<?xml version="1.0" encoding="UTF-8" standalone="no"?>
<!-- Created with Inkscape (http://www.inkscape.org/) -->

<svg
   width="200"
   height="200"
   viewBox="0 0 200 200"
   version="1.1"
   id="svg1"
   xml:space="preserve"
   xmlns="http://www.w3.org/2000/svg"
   xmlns:svg="http://www.w3.org/2000/svg"><defs
     id="defs1"><filter
       style="color-interpolation-filters:sRGB;"
       id="filter1"
       x="0"
       y="0"
       width="1"
       height="1"><feColorMatrix
         values="1 0 0 0 0 0 1 0 0 0 0 0 1 0 0 -0.21 -0.72 -0.07 2 0 "
         result="fbSourceGraphic"
         id="feColorMatrix1" /><feColorMatrix
         result="fbSourceGraphicAlpha"
         in="fbSourceGraphic"
         values="0 0 0 -1 0 0 0 0 -1 0 0 0 0 -1 0 0 0 0 1 0"
         id="feColorMatrix2" /><feColorMatrix
         id="feColorMatrix3"
         values="1 0 0 0 0 0 1 0 0 0 0 0 1 0 0 -0.21 -0.72 -0.07 2 0 "
         result="fbSourceGraphic"
         in="fbSourceGraphic" /><feColorMatrix
         result="fbSourceGraphicAlpha"
         in="fbSourceGraphic"
         values="0 0 0 -1 0 0 0 0 -1 0 0 0 0 -1 0 0 0 0 1 0"
         id="feColorMatrix4" /><feColorMatrix
         id="feColorMatrix5"
         type="hueRotate"
         values="180"
         result="color1"
         in="fbSourceGraphic" /><feColorMatrix
         id="feColorMatrix6"
         values="-1 0 0 0 1 0 -1 0 0 1 0 0 -1 0 1 -0.21 -0.72 -0.07 2 0 "
         result="fbSourceGraphic" /><feColorMatrix
         result="fbSourceGraphicAlpha"
         in="fbSourceGraphic"
         values="0 0 0 -1 0 0 0 0 -1 0 0 0 0 -1 0 0 0 0 1 0"
         id="feColorMatrix7" /><feColorMatrix
         id="feColorMatrix8"
         type="hueRotate"
         values="180"
         result="color1"
         in="fbSourceGraphic" /><feColorMatrix
         id="feColorMatrix9"
         values="-1 0 0 0 1 0 -1 0 0 1 0 0 -1 0 1 -0.21 -0.72 -0.07 2 0 "
         result="fbSourceGraphic" /><feColorMatrix
         result="fbSourceGraphicAlpha"
         in="fbSourceGraphic"
         values="0 0 0 -1 0 0 0 0 -1 0 0 0 0 -1 0 0 0 0 1 0"
         id="feColorMatrix10" /><feColorMatrix
         id="feColorMatrix11"
         type="hueRotate"
         values="180"
         result="color1"
         in="fbSourceGraphic" /><feColorMatrix
         id="feColorMatrix12"
         values="-1 0 0 0 1 0 -1 0 0 1 0 0 -1 0 1 -0.21 -0.72 -0.07 2 0 "
         result="fbSourceGraphic" /><feColorMatrix
         result="fbSourceGraphicAlpha"
         in="fbSourceGraphic"
         values="0 0 0 -1 0 0 0 0 -1 0 0 0 0 -1 0 0 0 0 1 0"
         id="feColorMatrix13" /><feColorMatrix
         id="feColorMatrix14"
         type="hueRotate"
         values="180"
         result="color1"
         in="fbSourceGraphic" /><feColorMatrix
         id="feColorMatrix15"
         values="-1 0 0 0 1 0 -1 0 0 1 0 0 -1 0 1 -0.21 -0.72 -0.07 2 0 "
         result="fbSourceGraphic" /><feColorMatrix
         result="fbSourceGraphicAlpha"
         in="fbSourceGraphic"
         values="0 0 0 -1 0 0 0 0 -1 0 0 0 0 -1 0 0 0 0 1 0"
         id="feColorMatrix16" /><feColorMatrix
         id="feColorMatrix17"
         type="hueRotate"
         values="180"
         result="color1"
         in="fbSourceGraphic" /><feColorMatrix
         id="feColorMatrix18"
         values="-1 0 0 0 1 0 -1 0 0 1 0 0 -1 0 1 -0.21 -0.72 -0.07 2 0 "
         result="color2" /></filter></defs><g
     id="layer1"
     transform="translate(0.09759312,-0.76442785)"><path
       id="path6"
       style="display:inline;fill:none;stroke:#ffffff;stroke-width:3.00325;stroke-linecap:round;stroke-dasharray:none"
       d="M 70.958789,21.088242 C 56.587304,20.503766 43.817064,25.8863 34.787979,35.061023 c -9.029084,9.174722 -15.311385,21.72179 -14.718251,36.306069 0.593133,14.584292 5.729771,25.195149 16.035659,34.182868 10.323398,9.00299 29.662287,9.55741 40.154993,20.26729 9.600502,9.79921 9.920904,27.86387 17.787463,37.11272 8.775147,10.31711 19.741927,16.51632 34.113437,17.10078 14.37147,0.58447 28.02561,-4.26728 37.05471,-13.44152 9.02911,-9.17426 14.31707,-22.14071 13.72393,-36.72499 C 178.3468,115.27996 172.81788,104.43501 162.46193,95.504987 152.01937,86.500266 134.65717,86.95911 124.69176,77.129191 114.09582,66.677309 113.95475,47.964078 104.60602,37.241018 95.705609,27.032199 85.330275,21.672718 70.958789,21.088242 Z" /><path
       id="path2"
       style="display:inline;fill:none;stroke:#ffffff;stroke-width:4.5073;stroke-linecap:round;stroke-dasharray:none"
       d="M 71.38448,35.585284 C 48.987289,32.632992 31.545975,49.435176 34.585768,72.496246 c 1.519904,11.530528 4.000127,15.554253 11.934037,23.481083 7.933916,7.926831 36.151284,8.865911 44.184638,17.399211 8.033341,8.53331 4.662475,31.22031 12.826347,39.39885 8.16388,8.17851 13.7056,9.93711 24.90417,11.41327 22.3972,2.95227 37.71372,-12.22342 34.67391,-35.28449 -1.51989,-11.53053 -3.48906,-16.52945 -11.42297,-24.45629 C 143.75199,96.521063 119.93344,99.820148 111.90009,91.286842 103.86673,82.753543 102.82733,55.436284 94.663456,47.257757 86.499585,39.079232 82.583075,37.061431 71.38448,35.585284 Z" /><path
       id="path5"
       style="display:inline;fill:none;stroke:#ffffff;stroke-width:3.15484;stroke-linecap:round;stroke-dasharray:none"
       d="m 44.749825,62.259669 c 3.548124,9.12625 7.046495,13.640652 15.035756,21.571406 8.049806,7.362985 27.146678,13.665037 36.937134,23.483755 9.819055,9.84739 12.939685,25.13196 19.922545,33.24283 7.91592,7.86087 13.40498,10.57872 22.02039,14.70052 17.2309,8.24354 23.89636,1.26907 15.34861,-16.35042 -4.27387,-8.80975 -6.56232,-13.50807 -14.55158,-21.43882 C 131.45551,110.69502 115.92532,107.24471 106.1347,97.425687 96.316115,87.578615 90.108835,67.861774 82.243161,60.044137 74.016521,51.867373 69.794007,49.757639 61.178588,45.635837 42.558713,37.482959 37.260676,42.996578 44.749825,62.259669 Z" /></g></svg>
