<?xml version="1.0" encoding="UTF-8"?>
<svg version="1.1" xmlns="http://www.w3.org/2000/svg" width="800" height="800">
<path d="M0 0 C1.72177576 0.65514433 3.4437869 1.30967038 5.16601562 1.96362305 C10.57511844 4.02247982 15.97547393 6.10368415 21.375 8.1875 C23.19106206 8.88676724 25.00714276 9.58598607 26.82324219 10.28515625 C55.46566975 21.32394571 83.87026212 32.49783916 111.375 46.1875 C112.57527832 46.78062988 112.57527832 46.78062988 113.79980469 47.38574219 C135.70120107 58.28353846 155.7362591 72.2494762 173.375 89.1875 C173.93477539 89.71811035 174.49455078 90.2487207 175.07128906 90.79541016 C192.4091546 107.58641488 203.68843661 130.84814188 204.50642776 155.0810318 C204.51440298 156.46175697 204.51714632 157.84251945 204.51544189 159.2232666 C204.51989858 160.37571562 204.51989858 160.37571562 204.5244453 161.55144644 C204.53306012 164.10527248 204.5346345 166.65905125 204.53613281 169.21289062 C204.54076681 171.05375263 204.54579225 172.89461368 204.55117798 174.73547363 C204.56426466 179.72872446 204.5707419 184.72196184 204.57518864 189.71522713 C204.57813083 192.84996339 204.58223816 195.98469609 204.58669281 199.11943054 C204.60036988 208.96951991 204.61003046 218.819601 204.6138947 228.66969919 C204.61834916 239.95737304 204.63577346 251.24492421 204.6648953 262.53256083 C204.68672122 271.30427742 204.69661028 280.07596008 204.69793582 288.84770346 C204.69897085 294.06219812 204.7045914 299.27657757 204.72275543 304.49104309 C204.79744133 327.19713452 204.24488854 349.46537481 201.69041538 372.0378561 C201.22554147 376.67994824 201.02213704 381.31848777 200.890625 385.98046875 C200.86679969 386.809842 200.84297438 387.63921524 200.81842709 388.49372101 C200.77717091 389.99641723 200.73658011 391.49913183 200.69656372 393.00186157 C200.10388216 412.65588982 197.15900722 431.27275927 192.97241211 450.44506836 C191.09480705 459.06425005 189.26213662 467.69330403 187.4203186 476.32019043 C186.93360069 478.5981754 186.44579552 480.87592835 185.95687866 483.15344238 C182.39750771 499.75792064 179.15551733 516.28269311 177.375 533.1875 C177.27695068 534.10394287 177.17890137 535.02038574 177.07788086 535.96459961 C174.88396688 558.0177843 176.69596217 576.86602339 186.6875 596.8125 C190.28271507 604.83375715 190.28165789 613.90986796 187.3125 622.1015625 C184.9396746 627.38109901 181.76184384 630.10827477 176.58203125 632.453125 C171.9334037 633.99992496 167.82945566 634.06598323 163.203125 632.41015625 C158.18833726 629.76136799 155.4779218 626.20739592 153.22265625 621.0546875 C149.8868857 609.77148206 153.63614765 599.8522051 157.90625 589.453125 C163.71472623 575.29897311 167.2523559 562.08647626 161.375 547.1875 C160.385 546.8575 159.395 546.5275 158.375 546.1875 C152.12980758 551.18365394 149.90759328 558.48169595 147.48828125 565.91015625 C144.72390271 574.00315587 139.91803461 578.82558855 132.33203125 582.76953125 C130.26044409 583.74484992 128.18883017 584.72011175 126.1171875 585.6953125 C119.78281578 589.14222133 116.69412338 594.47424811 114.375 601.1875 C113.56656252 605.27842674 113.22383962 609.21366464 113.12890625 613.37890625 C113.0812915 615.15189087 113.0812915 615.15189087 113.03271484 616.96069336 C113.00129395 618.21116455 112.96987305 619.46163574 112.9375 620.75 C112.68229018 629.75823209 112.24311557 638.66768423 111.25 647.625 C109.64106464 662.79785314 111.73648186 674.76372072 117.75 688.75 C120.39881479 695.08467477 122.56446222 701.51632997 124.625 708.0625 C124.975625 709.15046875 125.32625 710.2384375 125.6875 711.359375 C129.10054477 722.09733894 131.42152377 731.67937041 126.375 742.1875 C122.91346305 748.72595868 118.00017826 751.5677395 111.4375 754.5 C104.59400444 756.03629492 98.87022263 755.70792441 92.51953125 752.59375 C86.47316678 748.62892084 82.16161813 742.79283312 80.625 735.75 C79.50974976 724.68504285 83.52656969 713.80663489 87.1875 703.5625 C87.61353516 702.33015625 88.03957031 701.0978125 88.47851562 699.828125 C90.80139439 693.20739338 93.33478804 686.77976121 96.33544922 680.4362793 C100.85905469 670.65071566 100.19782932 661.9548176 96.58203125 652.02734375 C94.17232664 646.35790928 91.64568003 641.57712256 86.375 638.1875 C84.06608695 637.73729528 84.06608695 637.73729528 81.6015625 637.78125 C80.6940625 637.75933594 79.7865625 637.73742187 78.8515625 637.71484375 C77.91054688 637.70582031 76.96953125 637.69679688 76 637.6875 C64.59183101 637.57720002 64.59183101 637.57720002 59.375 634.1875 C55.95097903 630.65972082 53.84602257 626.51621617 51.62109375 622.17578125 C50.38128059 619.89524324 50.38128059 619.89524324 47.375 618.1875 C41.65692789 618.1875 37.83911417 619.3628831 33.39453125 622.9921875 C29.08213209 627.67994056 26.02507198 633.42391061 23.375 639.1875 C22.93909546 640.07731567 22.93909546 640.07731567 22.49438477 640.98510742 C19.41796935 648.40448268 19.88859256 656.44074848 19.92895508 664.33276367 C19.93742351 666.85224333 19.90871153 669.36941754 19.87695312 671.88867188 C19.83224478 682.03609147 20.88905312 690.57156041 24.375 700.1875 C24.65835205 700.98567139 24.9417041 701.78384277 25.23364258 702.60620117 C25.95672908 704.56475996 26.71952671 706.50123682 27.5 708.4375 C31.49597248 718.75358224 34.49493303 729.08174215 30.62109375 739.90625 C27.42658986 745.75449537 21.68910795 750.19918644 15.375 752.1875 C9.24589535 752.97539686 3.58940416 752.71220424 -1.8359375 749.59765625 C-5.96482027 746.34323119 -8.96915319 742.15504044 -10.625 737.1875 C-11.61769077 726.12608861 -9.71558817 717.54735918 -5.625 707.1875 C-4.72876511 704.89599034 -3.83291301 702.60433093 -2.9375 700.3125 C-2.54175781 699.34570312 -2.14601563 698.37890625 -1.73828125 697.3828125 C1.37018834 688.46095942 1.74762825 679.98355572 1.74560547 670.64135742 C1.74997152 668.38968792 1.78636486 666.13999539 1.82421875 663.88867188 C1.90798781 653.10702225 0.83405694 642.31912172 -6.23046875 633.58984375 C-10.36874878 629.42838008 -14.00062485 627.9425527 -19.75 627.625 C-30.28265397 628.05963496 -39.51827602 632.5013309 -46.625 640.1875 C-47.49108879 641.21927534 -48.34630512 642.26033019 -49.1875 643.3125 C-53.07605087 647.8989959 -57.6593636 651.75783069 -63.82421875 652.42578125 C-64.64535156 652.45027344 -65.46648437 652.47476563 -66.3125 652.5 C-67.12074219 652.53738281 -67.92898438 652.57476563 -68.76171875 652.61328125 C-77.46231753 651.31946779 -82.61865381 645.55634931 -88.24804688 639.3203125 C-93.43539939 633.82018446 -98.86287274 631.19521266 -106.125 629.25 C-110.75807009 629.16726661 -114.35638486 630.51645299 -118.625 632.1875 C-119.615 632.5175 -120.605 632.8475 -121.625 633.1875 C-122.76135557 634.97402058 -122.76135557 634.97402058 -123.625 637.1875 C-123.96660156 637.98027344 -124.30820312 638.77304687 -124.66015625 639.58984375 C-124.99917969 640.42644531 -125.33820313 641.26304687 -125.6875 642.125 C-126.02910156 642.95902344 -126.37070312 643.79304687 -126.72265625 644.65234375 C-131.98505455 659.43717707 -128.10982746 676.12925943 -121.70703125 689.8359375 C-121.01492871 691.28736963 -120.3208004 692.73783695 -119.625 694.1875 C-118.40456604 696.75256472 -117.18537721 699.31821558 -115.96704102 701.88427734 C-115.16988635 703.55662307 -114.36718752 705.22633997 -113.55834961 706.89306641 C-113.00739624 708.03654541 -113.00739624 708.03654541 -112.4453125 709.203125 C-112.11805176 709.87633789 -111.79079102 710.54955078 -111.45361328 711.24316406 C-108.14661684 719.00301075 -109.12164917 726.84281334 -112.1640625 734.53515625 C-115.35871169 740.33506747 -120.3708753 743.82651905 -125.9375 747.1875 C-132.46900032 748.95875432 -139.52762095 749.4792478 -145.875 746.75 C-151.56234493 743.40660267 -156.0441156 738.15165826 -159.125 732.375 C-161.61564831 716.49711705 -155.11375215 704.71527461 -147.75024414 691.19506836 C-138.62830005 674.24200285 -138.10856979 653.36708738 -143.28808594 635.02709961 C-147.30599312 622.09701635 -153.18537255 608.16673464 -165.375 601.1875 C-171.73478599 598.29845088 -177.84943596 598.55823933 -184.625 599.6875 C-193.44508216 601.15751369 -199.66780133 600.5336091 -207.125 595.5 C-209.31172579 593.47727864 -210.79098958 591.65527393 -212.5 589.25 C-215.3353565 585.3604725 -218.25161974 582.31002089 -222.625 580.1875 C-226.64548966 579.63566809 -229.21608138 580.02127482 -232.625 582.1875 C-233.92654109 584.20689565 -233.92654109 584.20689565 -234.8125 586.5625 C-235.13605469 587.33335937 -235.45960938 588.10421875 -235.79296875 588.8984375 C-242.06515823 606.1543203 -235.31312817 623.9902394 -228.84985352 640.00463867 C-225.72415324 647.74985831 -223.24259374 654.66532946 -223.3125 663.125 C-223.31987183 664.18050049 -223.31987183 664.18050049 -223.32739258 665.25732422 C-223.49356963 672.60831527 -224.95987293 678.20927475 -230.05078125 683.8046875 C-235.52903112 688.61684743 -241.37670809 691.07244775 -248.625 691.1875 C-255.56545616 690.32158297 -260.35728501 687.45521499 -265.3125 682.5 C-270.8677207 675.31405323 -271.39594565 666.96957651 -270.625 658.1875 C-269.40701867 649.15086431 -265.56593403 640.98920643 -261.84985352 632.74829102 C-257.84280793 623.78884913 -256.29639919 616.51121376 -256.4375 606.6875 C-256.4468457 605.71989746 -256.45619141 604.75229492 -256.46582031 603.75537109 C-256.50269094 600.89884282 -256.55983415 598.04350888 -256.625 595.1875 C-256.63901855 594.42211914 -256.65303711 593.65673828 -256.66748047 592.86816406 C-257.15260846 571.25246141 -264.17941898 545.79290656 -279.0859375 529.53125 C-281.79891931 527.16255522 -284.14035454 526.15545707 -287.625 525.1875 C-289.97385265 525.44519775 -289.97385265 525.44519775 -291.625 527.1875 C-295.75187717 534.21847592 -295.86186975 540.3461136 -295.9375 548.3125 C-295.96650391 549.30765625 -295.99550781 550.3028125 -296.02539062 551.328125 C-296.10362647 560.54791899 -293.55332819 567.68917885 -288.5 575.375 C-284.73644173 581.49197319 -282.93838446 586.73910197 -284.0390625 593.91796875 C-285.36480565 599.0530139 -287.57505088 602.70463303 -291.8984375 605.83203125 C-295.81581129 608.01973384 -299.32878921 609.60045577 -303.875 609.3125 C-308.05608716 608.05817385 -310.98069646 606.65557411 -313.625 603.1875 C-316.97081037 596.55900776 -317.81860572 590.00612366 -315.60546875 582.92578125 C-314.76915437 580.58864893 -313.90621683 578.26080001 -313.01171875 575.9453125 C-312.54933406 574.69276189 -312.08710299 573.44015456 -311.625 572.1875 C-311.35518311 571.52226318 -311.08536621 570.85702637 -310.80737305 570.17163086 C-307.69413584 561.53493836 -308.03238463 552.56158803 -308.0625 543.5 C-308.0629834 542.60279236 -308.0634668 541.70558472 -308.06396484 540.78118896 C-308.13775799 520.84693617 -310.95913169 501.73536737 -314.625 482.1875 C-314.95479455 480.41312397 -315.2843806 478.63870918 -315.61376953 476.86425781 C-316.46218737 472.30384215 -317.31653289 467.74455549 -318.17214966 463.18548584 C-319.51642167 456.017468 -320.85137593 448.84780665 -322.16748047 441.67456055 C-322.46393976 440.06301796 -322.76232148 438.45182735 -323.06298828 436.84106445 C-326.86385858 416.44717113 -328.06241367 397.03050336 -327.14868164 376.27734375 C-327.11152542 375.40904434 -327.0743692 374.54074493 -327.03608704 373.64613342 C-326.9643471 372.06008185 -326.88414334 370.47436703 -326.79167175 368.88938904 C-326.53636848 363.58317473 -326.77077269 358.35685447 -327.11132812 353.06021118 C-327.69149466 343.29905703 -327.78035234 333.5646404 -327.78613281 323.78881836 C-327.7907769 321.92214361 -327.79580361 320.05546978 -327.80117798 318.188797 C-327.81414102 313.17648494 -327.82071358 308.16418615 -327.82518864 303.15186 C-327.82814242 300.00881132 -327.832251 296.8657661 -327.83669281 293.72271919 C-327.85031808 283.85400727 -327.86001193 273.98530347 -327.8638947 264.11658281 C-327.86837961 252.78640945 -327.88596863 241.45635647 -327.9148953 230.12621969 C-327.9365857 221.32056594 -327.9466027 212.51494592 -327.94793582 203.70926577 C-327.9489775 198.47024752 -327.95474984 193.2313432 -327.97275543 187.99235344 C-327.98936695 183.06488462 -327.99132894 178.13761391 -327.98261642 173.21012688 C-327.98185332 171.41602035 -327.98609119 169.62190255 -327.99607468 167.82782364 C-328.1503018 138.35459952 -319.73967333 113.9110686 -299.625 92.1875 C-298.31015625 90.76630859 -298.31015625 90.76630859 -296.96875 89.31640625 C-277.98233328 69.63195951 -253.40011641 55.08538118 -228.9309082 43.26806641 C-226.78897606 42.2335182 -224.64740446 41.19841586 -222.50901794 40.15655518 C-210.65165349 34.38608756 -198.66124999 29.21992666 -186.375 24.4375 C-184.55216458 23.72318974 -182.72941326 23.00866486 -180.90673828 22.29394531 C-174.81813698 19.9113898 -168.72180815 17.54895732 -162.625 15.1875 C-161.4760022 14.74164551 -160.32700439 14.29579102 -159.14318848 13.83642578 C-151.80860907 10.9905502 -144.47007709 8.15520318 -137.12658691 5.33239746 C-134.73676049 4.41319633 -132.34766242 3.49209898 -129.95935059 2.56896973 C-83.96106066 -15.19075622 -46.31849743 -17.83294597 0 0 Z M-82.4375 37.375 C-83.45493286 37.52618286 -83.45493286 37.52618286 -84.49291992 37.68041992 C-100.17220158 40.40143585 -115.07676567 46.46004816 -129.8125 52.25 C-131.75895614 53.00952075 -133.70557273 53.76863043 -135.65234375 54.52734375 C-140.43979365 56.39583898 -145.22342158 58.27387775 -150.00531006 60.15655518 C-152.42156978 61.10744269 -154.83875454 62.0559268 -157.25634766 63.00341797 C-172.55599656 69.00469401 -187.77510181 75.13283176 -202.625 82.1875 C-203.50559082 82.60322266 -204.38618164 83.01894531 -205.29345703 83.44726562 C-222.41455828 91.58725037 -239.29611496 100.6209912 -253.625 113.1875 C-254.87990234 114.26257813 -254.87990234 114.26257813 -256.16015625 115.359375 C-270.46126257 127.87014674 -279.71218722 140.92797011 -281.625 160.1875 C-281.71206966 162.61040277 -281.75537851 165.03520658 -281.75871277 167.45967102 C-281.76097833 168.1457436 -281.76324388 168.83181617 -281.76557809 169.53867882 C-281.77185534 171.81397083 -281.77109274 174.0892023 -281.77026367 176.36450195 C-281.77325952 178.0065824 -281.77666303 179.64866214 -281.78044128 181.29074097 C-281.78925295 185.74028911 -281.79161851 190.18981799 -281.79225707 194.63937402 C-281.79297043 197.43235168 -281.79511039 200.22532454 -281.79775429 203.01830101 C-281.80700603 212.80118491 -281.81109034 222.58405523 -281.81030273 232.36694336 C-281.8097055 241.41770346 -281.8201876 250.46840328 -281.8360464 259.51914817 C-281.84924281 267.33538089 -281.85448146 275.15159425 -281.85384732 282.96783799 C-281.85359539 287.61484946 -281.85627318 292.26180759 -281.86702538 296.90880775 C-282.07199125 338.46235504 -282.07199125 338.46235504 -274.625 379.1875 C-274.07896154 381.17955995 -273.53340733 383.17175268 -272.98828125 385.1640625 C-271.82796148 389.37368679 -270.64287807 393.57538399 -269.44140625 397.7734375 C-268.21710867 402.05946056 -267.04053882 406.35439186 -265.90234375 410.6640625 C-257.97300094 440.44772348 -246.22563309 460.7636107 -224.49707031 482.29931641 C-220.93540608 485.83808565 -217.51135894 489.4348149 -214.26171875 493.265625 C-211.5123563 496.49399332 -208.6444679 499.61582427 -205.79296875 502.75390625 C-204.49296599 504.21318863 -203.2159354 505.69419338 -201.98828125 507.21484375 C-186.88757768 525.8149547 -162.29438208 537.63946591 -139.75 544.0625 C-128.02397408 547.41089368 -117.85425077 552.55829801 -107.5 558.9375 C-91.2689492 568.62305893 -71.87121935 567.65346431 -53.625 568.1875 C-52.59213867 568.22294922 -51.55927734 568.25839844 -50.49511719 568.29492188 C-47.62172504 568.38745964 -44.74939288 568.44878985 -41.875 568.5 C-40.62952393 568.54459351 -40.62952393 568.54459351 -39.35888672 568.59008789 C-25.33886746 568.72182892 -12.22431219 562.19993718 0.38671875 556.74462891 C3.1012212 555.57276542 5.8234037 554.42036993 8.546875 553.26953125 C33.52447098 542.60554011 57.06681142 529.57596556 74.16796875 507.9453125 C83.71266234 496.01866883 83.71266234 496.01866883 87.375 494.1875 C87.375 493.5275 87.375 492.8675 87.375 492.1875 C87.90609375 491.96449219 88.4371875 491.74148438 88.984375 491.51171875 C92.19940614 489.73084366 94.85958816 487.39414828 97.625 485 C98.2020166 484.50459717 98.7790332 484.00919434 99.37353516 483.4987793 C100.52231821 482.51132772 101.66965478 481.52219046 102.81542969 480.53125 C104.12084927 479.40648021 105.43796614 478.29530547 106.7578125 477.1875 C123.69646589 462.83946419 131.01069542 443.19695051 137.59814453 422.60742188 C138.97677035 418.31297212 140.39271055 414.03098752 141.8125 409.75 C142.1022168 408.8731958 142.39193359 407.9963916 142.69042969 407.09301758 C144.42434941 401.89077941 146.26494917 396.74316541 148.20654297 391.61499023 C157.90445996 365.98330797 158.53046768 338.96291521 158.52026367 311.81494141 C158.5232679 310.17807948 158.52667325 308.54121825 158.53044128 306.90435791 C158.53914846 302.52458068 158.54161344 298.14482306 158.54225707 293.76503801 C158.5429742 291.01817535 158.54512067 288.27131748 158.54775429 285.52445602 C158.55695748 275.91327352 158.56109476 266.30210474 158.56030273 256.69091797 C158.55970047 247.77313853 158.5702944 238.85541929 158.5860464 229.93765509 C158.59915773 222.23691738 158.60448526 214.5361993 158.60384732 206.83545053 C158.60359378 202.25500057 158.60636648 197.67460449 158.61702538 193.0941658 C158.62676953 188.79133294 158.62674268 184.48860488 158.61950874 180.18576813 C158.61847134 178.61735504 158.62077493 177.04893519 158.6268692 175.4805336 C158.70403541 154.22867691 155.15210255 136.68386062 139.75 121.125 C125.50843986 107.22400859 108.63037787 97.34826361 91.125 88.125 C90.28275879 87.67914551 89.44051758 87.23329102 88.57275391 86.77392578 C70.68436836 77.51835846 52.10947389 69.92819142 33.3125 62.75 C31.15161763 61.92024784 28.99089334 61.09008388 26.83032227 60.25952148 C22.59920934 58.63420119 18.36657634 57.01293249 14.1328125 55.39453125 C9.18495989 53.50134073 4.24692752 51.5840987 -0.6875 49.65625 C-12.50779049 45.05204641 -24.12413176 40.5377209 -36.625 38.1875 C-37.71167969 37.96707031 -38.79835938 37.74664062 -39.91796875 37.51953125 C-53.83297239 35.08889169 -68.4903351 35.2552413 -82.4375 37.375 Z " fill="#FDFDFD" transform="translate(463.625,33.8125)"/>
<path d="M0 0 C27.96631334 13.80525391 55.21539389 35.69124396 65.92651367 65.88378906 C69.87957766 78.43571646 70.57062884 90.78378986 70.4453125 103.828125 C70.44099213 104.69566406 70.43667175 105.56320313 70.43222046 106.45703125 C70.29696147 130.19004859 68.80908613 153.85359254 67.0703125 177.515625 C66.9807428 178.74120117 66.8911731 179.96677734 66.79888916 181.22949219 C66.23235349 188.91497154 65.63429709 196.59727211 65.0015564 204.27758789 C64.80057411 206.73079355 64.60446803 209.18440458 64.41372681 211.63842773 C60.73129235 258.46089949 60.73129235 258.46089949 45.0703125 272.515625 C42.5703125 273.640625 42.5703125 273.640625 40.0703125 273.515625 C31.56373038 267.77368207 29.54394849 255.32689163 27.6484375 245.9375 C26.19809261 237.3530262 25.91441756 229.12305796 25.9453125 220.41796875 C25.94653107 219.74220228 25.94774963 219.06643581 25.94900513 218.37019157 C25.97784367 204.5658174 26.40898232 190.78294188 26.92617798 176.98867798 C27.67028276 156.80016851 28.29044911 136.60821854 28.36987305 116.40475464 C28.37838344 114.38122781 28.39191291 112.35771478 28.41088867 110.33425903 C28.54115223 95.03264374 28.26278395 81.54377567 17.39453125 69.6875 C9.02305309 61.72832162 -1.74925642 56.93645842 -12.2421875 52.453125 C-18.89990512 49.59425138 -24.66375534 46.61207888 -29.9296875 41.515625 C-30.45949219 41.02449219 -30.98929687 40.53335938 -31.53515625 40.02734375 C-35.12129099 36.30057628 -36.02103932 32.53445387 -35.9296875 27.515625 C-35.16691752 23.33551587 -33.98440463 19.32567464 -32.7421875 15.265625 C-32.43732422 14.19054687 -32.13246094 13.11546875 -31.81835938 12.0078125 C-30.00363663 5.90547439 -28.56929741 1.90150707 -23.05859375 -1.7109375 C-15.76062174 -4.36231082 -6.99788717 -2.89708448 0 0 Z " fill="#FCFCFC" transform="translate(533.9296875,146.484375)"/>
<path d="M0 0 C2.84659939 1.1430474 5.70009204 2.26736238 8.55493164 3.38964844 C38.13772907 15.11112814 38.13772907 15.11112814 45.52563477 26.07714844 C49.08469228 34.82649815 46.42022609 43.38237981 43.77563477 52.07714844 C43.4752832 53.13482422 43.17493164 54.1925 42.86547852 55.28222656 C39.50541247 66.61351313 39.50541247 66.61351313 33.87719727 70.09277344 C22.94540886 74.61891741 12.80579953 74.39842328 1.31079102 72.19042969 C0.41557236 72.0247197 -0.4796463 71.8590097 -1.4019928 71.6882782 C-3.28769203 71.33698705 -5.17257311 70.9812777 -7.05664062 70.62133789 C-9.87152024 70.08483796 -12.68912356 69.56525319 -15.50756836 69.04785156 C-24.55548852 67.36181932 -33.52631087 65.49210805 -42.43530273 63.17480469 C-43.20031601 62.97720047 -43.96532928 62.77959625 -44.75352478 62.57600403 C-57.02092072 59.27544573 -67.56295543 53.6349374 -74.34936523 42.63964844 C-79.1013952 34.33023292 -81.09881793 25.716087 -79.41186523 16.13964844 C-76.83357058 6.75940537 -70.89766544 -0.73729229 -62.97436523 -6.23535156 C-41.89125698 -17.05926875 -20.31651036 -8.16811307 0 0 Z " fill="#FDFDFD" transform="translate(445.974365234375,109.2353515625)"/>
<path d="M0 0 C0.66 0.33 1.32 0.66 2 1 C-4.6 7.6 -11.2 14.2 -18 21 C-18.66 20.67 -19.32 20.34 -20 20 C-19.55269531 19.56429687 -19.10539063 19.12859375 -18.64453125 18.6796875 C-15.66689863 15.74649716 -12.79481674 12.83335543 -10.1875 9.5625 C-9.465625 8.716875 -8.74375 7.87125 -8 7 C-7.34 7 -6.68 7 -6 7 C-6 6.34 -6 5.68 -6 5 C-4.04072937 3.2856382 -2.04119788 1.61594832 0 0 Z " fill="#D3D3D3" transform="translate(557,521)"/>
</svg>
