<?xml version="1.0" encoding="UTF-8" standalone="no"?>
<!-- Created with Inkscape (http://www.inkscape.org/) -->

<svg
   width="256"
   height="256"
   viewBox="0 0 256 256"
   version="1.1"
   id="svg1"
   xml:space="preserve"
   xmlns:xlink="http://www.w3.org/1999/xlink"
   xmlns="http://www.w3.org/2000/svg"
   xmlns:svg="http://www.w3.org/2000/svg"><defs
     id="defs1"><linearGradient
       id="linearGradient2"><stop
         style="stop-color:#ffffff;stop-opacity:1;"
         offset="0.69564301"
         id="stop2" /><stop
         style="stop-color:#ffffff;stop-opacity:0;"
         offset="1"
         id="stop3" /></linearGradient><radialGradient
       xlink:href="#linearGradient2"
       id="radialGradient3"
       cx="128"
       cy="128"
       fx="128"
       fy="128"
       r="9"
       gradientTransform="matrix(1.3333334,0,0,10,-42.666667,-1152)"
       gradientUnits="userSpaceOnUse" /><radialGradient
       xlink:href="#linearGradient2"
       id="radialGradient5"
       gradientUnits="userSpaceOnUse"
       gradientTransform="matrix(0,1.3333334,-10,-1.8922194e-8,1407.9482,-42.65281)"
       cx="128"
       cy="128"
       fx="128"
       fy="128"
       r="9" /></defs><g
     id="layer1"
     style="display:inline"><path
       id="path2"
       style="fill:url(#radialGradient3);stroke-width:9.73926;stroke-linecap:round"
       d="m 140,128 c 0,36.69524 -6.53844,84.02522 -12,90 -5.15691,-6.36119 -12,-50.82944 -12,-90 0,-10.48463 1.15845,-46.668001 6.012,-68.836 1.67728,-7.66085 2.05058,-16.467499 5.988,-21.164 4.31127,4.600384 4.31072,13.50315 5.988,21.164 C 138.75246,80.925182 140,115.95458 140,128 Z" /><path
       id="path4"
       style="display:inline;fill:url(#radialGradient5);stroke-width:9.73926;stroke-linecap:round"
       d="m 127.94819,140.01388 c -36.695239,0 -84.025216,-6.53844 -89.999996,-12 6.36119,-5.15691 50.82944,-12 90.000006,-11.99999 10.48463,-1e-5 46.66799,1.15844 68.83599,6.012 7.66086,1.67727 16.4675,2.05057 21.16401,5.98799 -4.60039,4.31128 -13.50315,4.31072 -21.16401,5.988 -21.76118,4.76446 -56.79058,6.012 -68.836,6.012 z" /></g></svg>
