<?xml version="1.0" encoding="UTF-8" standalone="no"?>
<!-- Created with Inkscape (http://www.inkscape.org/) -->

<svg
   width="256"
   height="256"
   viewBox="0 0 256 256"
   version="1.1"
   id="svg1"
   xml:space="preserve"
   xmlns:xlink="http://www.w3.org/1999/xlink"
   xmlns="http://www.w3.org/2000/svg"
   xmlns:svg="http://www.w3.org/2000/svg"><defs
     id="defs1"><linearGradient
       id="linearGradient2"><stop
         style="stop-color:#ffffff;stop-opacity:1;"
         offset="0.69564301"
         id="stop2" /><stop
         style="stop-color:#ffffff;stop-opacity:0;"
         offset="1"
         id="stop3" /></linearGradient><radialGradient
       xlink:href="#linearGradient2"
       id="radialGradient3"
       cx="128"
       cy="128"
       fx="128"
       fy="128"
       r="9"
       gradientTransform="matrix(1.3333334,0,0,10,-42.666667,-1152)"
       gradientUnits="userSpaceOnUse" /><radialGradient
       xlink:href="#linearGradient2"
       id="radialGradient4"
       gradientUnits="userSpaceOnUse"
       gradientTransform="matrix(0.6666667,1.1547006,-8.660254,5,1151.1792,-659.80167)"
       cx="128"
       cy="128"
       fx="128"
       fy="128"
       r="9" /><radialGradient
       xlink:href="#linearGradient2"
       id="radialGradient5"
       gradientUnits="userSpaceOnUse"
       gradientTransform="matrix(-0.6666667,1.1547006,-8.660254,-5,1321.8459,620.19833)"
       cx="128"
       cy="128"
       fx="128"
       fy="128"
       r="9" /></defs><g
     id="layer1"
     style="display:inline"><path
       id="path2"
       style="fill:url(#radialGradient3);stroke-width:9.73926;stroke-linecap:round"
       d="m 140,128 c 0,36.69524 -6.53844,84.02522 -12,90 -5.15691,-6.36119 -12,-50.82944 -12,-90 0,-10.48463 1.15845,-46.668001 6.012,-68.836 1.67728,-7.66085 2.05058,-16.467499 5.988,-21.164 4.31127,4.600384 4.31072,13.50315 5.988,21.164 C 138.75246,80.925182 140,115.95458 140,128 Z" /><path
       id="path4"
       style="display:inline;fill:url(#radialGradient5);stroke-width:9.73926;stroke-linecap:round"
       d="M 122,138.3923 C 90.22099,120.04468 52.501245,90.71724 50.057714,83 58.145121,81.71458 100.0773,98.022415 134,117.6077 c 9.07996,5.24231 39.83645,24.33724 56.60772,39.62454 5.79586,5.28299 13.23599,10.0096 15.33457,15.76776 -6.13969,1.43348 -13.84943,-3.01838 -21.32257,-5.39624 C 163.39176,160.84931 132.43164,144.41501 122,138.3923 Z" /><path
       id="path3"
       style="fill:url(#radialGradient4);stroke-width:9.73926;stroke-linecap:round"
       d="M 134,138.3923 C 102.22099,156.73992 57.962805,174.74246 50.057714,173 52.988211,165.35339 88.0773,137.19298 122,117.6077 131.07996,112.36538 162.9949,95.276942 184.61972,88.39624 192.09286,86.018382 199.90629,81.938345 205.94229,83 204.11387,89.033861 196.40358,93.484768 190.60772,98.76776 174.14422,113.77449 144.43164,132.36959 134,138.3923 Z" /></g></svg>
