<?xml version="1.0" encoding="UTF-8" standalone="no"?>
<!-- Created with Inkscape (http://www.inkscape.org/) -->

<svg
   width="200"
   height="200"
   viewBox="0 0 52.916667 52.916666"
   version="1.1"
   id="svg1"
   xml:space="preserve"
   xmlns="http://www.w3.org/2000/svg"
   xmlns:svg="http://www.w3.org/2000/svg"><defs
     id="defs1"><filter
       style="color-interpolation-filters:sRGB"
       id="filter1"
       x="-0.0019296332"
       y="-0.0019104625"
       width="1.0038593"
       height="1.0038209"><feGaussianBlur
         stdDeviation="0.11817566"
         id="feGaussianBlur1" /></filter><filter
       style="color-interpolation-filters:sRGB"
       id="filter2"
       x="-0.0043200003"
       y="-0.0043200003"
       width="1.0086401"
       height="1.0086401"><feGaussianBlur
         stdDeviation="0.36"
         id="feGaussianBlur2" /></filter></defs><g
     id="layer1"
     transform="scale(0.26458333)"><circle
       style="display:inline;fill:#a16500;fill-opacity:1;stroke-width:0.264583"
       id="path1"
       cx="100"
       cy="100"
       r="100" /><path
       style="display:inline;fill:#ffbc1f;fill-opacity:1;filter:url(#filter1)"
       d="m 100.22198,175.47323 c -1.820523,0.006 -9.305106,-0.13129 -14.934752,-6.96831 -5.601475,-6.78758 -4.920049,-15.66109 -2.2322,-20.60852 2.687848,-4.94743 6.282835,-7.99571 11.887586,-9.73343 0.02359,-10.83088 -0.0068,-21.66155 0.01119,-32.4924 -3.844673,-0.52729 -6.358755,-1.28738 -8.467018,-2.0506 -2.108264,-0.76323 -4.626419,-1.90197 -7.284034,-3.5542 -10.201285,10.30165 -11.159985,11.24481 -16.968957,17.10734 3.852169,7.25752 2.792674,16.3851 -3.293574,22.50987 -6.801064,7.24202 -20.453216,7.82475 -27.873888,-1.07812 -7.420672,-8.90287 -5.244913,-20.41415 1.942772,-26.57768 5.948672,-5.76699 15.082609,-6.13879 21.853088,-2.26741 5.69465,-5.79171 10.51605,-10.625732 16.216085,-16.355533 0,0 -5.787149,-5.789844 -8.474683,-14.185625 C 59.916061,70.822831 58.52117,58.52048 66.88258,44.967313 71.617917,37.291717 83.076555,27.032608 100.14446,27.01637 c 17.0679,-0.01624 29.14375,10.863698 34.06069,19.718621 7.67829,13.318682 5.12644,26.001291 3.73326,30.73642 -2.68369,7.886788 -5.31926,11.906624 -9.10336,16.03135 8.36667,8.293139 3.59705,3.53385 16.37313,16.179919 3.4323,-2.07917 11.19859,-3.88822 17.77871,-0.41875 6.58011,3.46947 9.27421,9.47098 9.84833,12.05776 1.64324,7.40389 -0.19468,12.97397 -4.27337,17.63343 -4.16327,4.75608 -10.9991,7.13246 -17.31235,6.02473 -4.48049,-0.78614 -10.50347,-3.57832 -13.87321,-10.49613 -3.40873,-6.99787 -1.63849,-13.31708 0.64028,-17.93632 -5.55589,-5.6167 -11.17761,-11.16721 -16.77744,-16.739898 -2.07641,1.237188 -4.32136,2.594198 -7.90217,3.852428 -3.5808,1.25823 -5.33027,1.59237 -8.68044,2.03872 0.009,10.78131 6.7e-4,21.56229 -0.0261,32.3436 6.2389,1.60855 10.70573,6.21314 12.60182,10.42855 1.89608,4.21541 3.39846,12.13617 -2.23032,19.6671 -4.75568,6.07408 -11.13935,7.32429 -14.7804,7.33533 z"
       id="path3" /></g></svg>
