<?xml version="1.0" encoding="UTF-8" standalone="no"?>
<!-- Created with Inkscape (http://www.inkscape.org/) -->

<svg
   width="128"
   height="128"
   viewBox="0 0 128 128"
   version="1.1"
   id="svg1"
   xml:space="preserve"
   xmlns="http://www.w3.org/2000/svg"
   xmlns:svg="http://www.w3.org/2000/svg"><defs
     id="defs1" /><g
     id="layer1"
     style="display:inline"><path
       style="display:inline;fill:#17fc56;fill-opacity:1;stroke:none;stroke-width:3.97175"
       d="M 61.88726,40.017829 C 33.585681,39.547481 19.477077,38.911728 12.442473,36.385656 2.013304,32.640623 2.4357037,10.330456 11.789664,6.9080469 18.451518,4.4706207 32.083761,3.9657742 59.959972,4 c 43.873608,0.053867 50.074208,-1.094255 57.759868,6.40906 7.68565,7.503316 6.16221,17.677958 6.28016,57.115179 0.084,28.08032 -0.56165,41.929741 -3.0535,48.739501 -3.63427,9.93176 -25.175976,9.3533 -29.260814,-0.0682 C 88.693333,109.29381 87.545439,95.079934 87.622416,65.752987 77.299665,75.876658 66.564767,86.922934 52.440095,101.26518 38.31548,115.60748 24.169067,133.07697 9.6086422,118.52025 -4.9516684,103.96343 11.742387,88.996214 26.675037,74.529004 41.607696,60.061808 49.978831,51.956623 61.88726,40.017829 Z"
       id="path1" /></g></svg>
