<?xml version="1.0" encoding="UTF-8" standalone="no"?>
<!-- Created with Inkscape (http://www.inkscape.org/) -->

<svg
   width="128"
   height="128"
   viewBox="0 0 128 128"
   version="1.1"
   id="svg1"
   xml:space="preserve"
   xmlns="http://www.w3.org/2000/svg"
   xmlns:svg="http://www.w3.org/2000/svg"><defs
     id="defs1" /><g
     id="layer1"
     style="display:inline"><path
       style="display:inline;fill:#fc3566;fill-opacity:1;stroke:none;stroke-width:3.97062"
       d="M 61.870841,87.95835 C 33.577289,88.428565 19.472687,89.064138 12.440078,91.589493 2.0138675,95.333464 2.4361474,117.6373 11.787455,121.05874 c 6.659964,2.43674 20.28834,2.94144 48.156645,2.90722 43.86116,-0.0539 50.06,1.09394 57.74348,-6.40724 7.68347,-7.50119 6.16047,-17.672943 6.27838,-57.098978 0.084,-28.072355 -0.56149,-41.917848 -3.05263,-48.725676 C 117.28009,1.8051224 95.744494,2.3834184 91.660815,11.802246 88.669311,18.702019 87.521742,32.911863 87.598697,62.230492 77.278874,52.109692 66.547021,41.06655 52.426356,26.728372 38.305747,12.39014 24.163346,-5.0743957 9.6070514,9.4781954 -4.9491294,24.030887 11.740191,38.993858 26.668605,53.456964 41.597029,67.920057 49.96579,76.022943 61.870841,87.95835 Z"
       id="path1" /></g></svg>
