<?xml version="1.0" encoding="UTF-8" standalone="no"?>
<!-- Created with Inkscape (http://www.inkscape.org/) -->

<svg
   width="128"
   height="128"
   viewBox="0 0 128 128"
   version="1.1"
   id="svg1"
   xml:space="preserve"
   xmlns="http://www.w3.org/2000/svg"
   xmlns:svg="http://www.w3.org/2000/svg"><defs
     id="defs1" /><g
     id="layer1"
     style="display:inline"><path
       style="display:inline;fill:#17fc56;fill-opacity:1;stroke:none;stroke-width:3.22117"
       d="M 49.495199,50.99987 C 21.292316,76.816074 16.078784,81.480237 6.4546557,72.69987 -3.1694723,63.919504 2.2979824,56.329991 27.784686,31.49987 53.271388,6.6697502 55.823429,2.1057402 64.533966,2.0011702 c 8.710538,-0.10457 13.498672,6.77744 36.009854,29.4986998 22.51121,22.721271 30.65546,32.17096 22.17062,41.188308 -8.48484,9.017346 -14.73814,4.429481 -43.702168,-21.688308 -0.114168,11.725566 0.0644,24.216582 0.189175,40.541723 0.124835,16.325137 2.030543,34.456147 -14.667481,34.458277 -16.698025,0.002 -15.707722,-18.15503 -15.440803,-35.015192 0.266933,-16.860159 0.41945,-26.308959 0.402036,-39.984808 z"
       id="path1" /></g></svg>
