<?xml version="1.0" encoding="UTF-8" standalone="no"?>
<!-- Created with Inkscape (http://www.inkscape.org/) -->

<svg
   width="128"
   height="128"
   viewBox="0 0 128 128"
   version="1.1"
   id="svg1"
   xml:space="preserve"
   xmlns="http://www.w3.org/2000/svg"
   xmlns:svg="http://www.w3.org/2000/svg"><defs
     id="defs1" /><g
     id="layer1"
     style="display:inline"><path
       style="display:inline;fill:#fc3566;fill-opacity:1;stroke:none;stroke-width:3.22117"
       d="M 49.495199,77 C 21.292316,51.183796 16.078784,46.519633 6.4546557,55.3 -3.1694723,64.080366 2.2979824,71.669879 27.784686,96.5 53.271388,121.33012 55.823429,125.89413 64.533966,125.9987 73.244504,126.10327 78.032638,119.22126 100.54382,96.5 123.05503,73.778729 131.19928,64.32904 122.71444,55.311692 114.2296,46.294346 107.9763,50.882211 79.012272,77 78.898104,65.274434 79.076669,52.783418 79.201447,36.458277 79.326282,20.133139 81.23199,2.0021302 64.533966,2.0000002 47.835941,1.9978701 48.826244,20.155035 49.093163,37.015192 49.360096,53.875351 49.512613,63.324151 49.495199,77 Z"
       id="path1" /></g></svg>
