<?xml version="1.0" encoding="UTF-8" standalone="no"?>
<!-- Created with Inkscape (http://www.inkscape.org/) -->

<svg
   width="512"
   height="512"
   viewBox="0 0 512 512"
   version="1.1"
   id="svg1"
   xml:space="preserve"
   xmlns="http://www.w3.org/2000/svg"
   xmlns:svg="http://www.w3.org/2000/svg"><defs
     id="defs1"><filter
       style="color-interpolation-filters:sRGB"
       id="filter2"
       x="-0.0025351984"
       y="-0.0015423565"
       width="1.0050704"
       height="1.0030847"><feGaussianBlur
         stdDeviation="0.10456507"
         id="feGaussianBlur2" /></filter></defs><g
     id="layer1"
     style="display:inline"
     transform="matrix(9.5244095,0,0,9.5244099,4,4)"><path
       style="display:inline;fill:#70f423;fill-opacity:1;stroke-width:0.266504"
       d="M 23.771676,52.766304 C 12.102405,51.622084 2.3324073,42.542775 0.29319175,30.947622 c -0.39092233,-2.222818 -0.39092233,-6.833242 0,-9.056059 C 1.2690468,16.342769 4.1170526,11.092638 8.2782042,7.1716614 10.51904,5.0601634 11.844698,4.1352317 14.58805,2.7691845 18.58616,0.77833379 21.91689,0 26.438241,0 c 7.651562,0 14.257647,2.8992203 19.5337,8.5727797 5.069187,5.4511043 7.525613,12.7706983 6.828369,20.3469933 -0.988496,10.741083 -8.563959,19.903422 -18.936329,22.903019 -2.07377,0.599718 -3.212317,0.781105 -6.759099,1.076828 -0.586645,0.04891 -2.086587,-0.01109 -3.333206,-0.133316 z"
       id="path1" /><path
       style="display:inline;fill:#137d33;fill-opacity:1"
       d="m 77,179.66199 c 0,-0.30513 8.155299,-57.90395 9.470732,-66.8894 L 87.01641,109.04518 69.075477,108.77259 51.134544,108.5 87.159603,63 C 106.97339,37.975 123.50576,17.37912 123.8982,17.231377 c 0.39245,-0.147743 -1.43261,14.927257 -4.05569,33.5 -2.62307,18.572743 -4.28129,28.806892 -5.30334,37.22597 6.26281,-0.05702 1.95084,0.04265 18.04416,0.04265 10.60337,0 12.57174,0.189356 17.53998,0.449372 C 149.5393,90.104367 78.532136,179.86393 77.75,179.93339 77.3375,179.96999 77,179.84789 77,179.66199 Z"
       id="path2"
       transform="scale(0.26458333)" /></g></svg>
