<?xml version="1.0" encoding="UTF-8" standalone="no"?>
<!-- Created with Inkscape (http://www.inkscape.org/) -->

<svg
   width="200mm"
   height="200mm"
   viewBox="0 0 200 200"
   version="1.1"
   id="svg1"
   xml:space="preserve"
   xmlns="http://www.w3.org/2000/svg"
   xmlns:svg="http://www.w3.org/2000/svg"><defs
     id="defs1"><filter
       style="color-interpolation-filters:sRGB"
       id="filter2"
       x="-0.0025425359"
       y="-0.0015423565"
       width="1.0050851"
       height="1.0030847"><feGaussianBlur
         stdDeviation="0.10456507"
         id="feGaussianBlur2" /></filter></defs><g
     id="layer1"
     style="display:inline"><path
       style="display:inline;fill:#70f423;fill-opacity:1;stroke-width:1.00726"
       d="M 89.845705,199.4317 C 45.741374,195.10709 8.8153979,160.79159 1.1081263,116.96739 c -1.47750172,-8.4012 -1.47750172,-25.826426 0,-34.227624 C 4.7963975,61.767947 15.560514,41.92493 31.287701,27.105492 39.757,19.125027 44.767361,15.629222 55.135939,10.466209 70.246905,2.941734 82.835489,0 99.924062,0 c 28.919288,0 53.887168,10.957683 73.828158,32.401057 19.15913,20.602599 28.44326,48.267207 25.80801,76.902023 -3.73605,40.59622 -32.36772,75.22553 -71.57038,86.56259 -7.83787,2.26665 -12.14104,2.95221 -25.5462,4.0699 -2.21724,0.18487 -7.886313,-0.0419 -12.597945,-0.50387 z"
       id="path1" /><path
       style="display:inline;fill:#137d33;fill-opacity:1;filter:url(#filter2)"
       d="m 77,179.66199 c 0,-0.30513 8.155299,-57.90395 9.470732,-66.8894 L 87.01641,109.04518 69.075477,108.77259 51.134544,108.5 87.159603,63 C 106.97339,37.975 123.50576,17.37912 123.8982,17.231377 c 0.39245,-0.147743 -1.43261,14.927257 -4.05569,33.5 C 117.21944,69.30412 115.0568,85.2875 115.03664,86.25 c -0.0335,1.601705 1.45337,1.75 17.54669,1.75 10.60337,0 17.45101,0.374975 17.25,0.944604 -0.58401,1.654995 -71.301194,90.919326 -72.08333,90.988786 -0.4125,0.0366 -0.75,-0.0855 -0.75,-0.2714 z"
       id="path2" /></g></svg>
