<?xml version="1.0" encoding="UTF-8" standalone="no"?>
<!-- Created with Inkscape (http://www.inkscape.org/) -->

<svg
   version="1.1"
   id="svg1"
   width="512"
   height="512"
   viewBox="0 0 511.99999 511.99999"
   xml:space="preserve"
   xmlns="http://www.w3.org/2000/svg"
   xmlns:svg="http://www.w3.org/2000/svg"><defs
     id="defs1" /><g
     id="g1"><path
       id="path2-5"
       style="display:inline;fill:#002024;fill-opacity:0.752941;stroke-width:6.99718;stroke-linecap:round"
       d="m 101.92699,4.3212457 c 50.95394,0.1956816 71.06878,-1.2505108 83.29085,10.6851463 12.22207,11.935658 9.53875,34.594077 9.70011,84.975514 0.16135,50.381434 2.19394,71.406214 -10.70858,84.160614 -12.90252,12.75441 -34.12271,10.68513 -84.13883,10.71135 -50.016135,0.0262 -73.034326,2.77131 -85.360945,-9.64205 C 2.3829759,172.79847 4.1711062,150.35259 4.1858962,99.981906 4.2006862,49.611228 1.4862929,26.02764 13.788832,13.911248 26.091371,1.7948569 50.973035,4.1255641 101.92699,4.3212457 Z"
       transform="matrix(2.5940351,0,0,2.5939064,-2.0544322,-1.3094385)" /><path
       id="path1"
       style="display:inline;fill:#12ffd5;fill-opacity:1;stroke-width:6.86;stroke-linecap:round"
       d="M 42.505349,2.0849128 C 28.248595,2.1007232 18.936535,5.5960515 12.452526,12.147485 5.9685169,18.698918 2.3840087,28.485814 2.3621252,42.884241 2.2932919,88.173608 2.3750133,108.907 2.3544517,157.119 c -0.00588,13.79029 3.4691176,22.38626 10.0410753,28.85897 6.571957,6.47271 15.749123,10.34926 29.888143,10.37046 53.773095,0.0806 61.48496,-0.0141 114.07858,-1e-5 14.02002,0.004 23.25993,-3.79712 29.89888,-10.37045 6.63895,-6.57334 10.33645,-15.17844 10.35233,-28.95252 0.0456,-39.53716 -0.0463,-70.506097 -0.0838,-114.143426 C 196.51726,28.478348 192.78699,18.655539 186.26109,12.108933 179.73519,5.5623242 170.74484,2.1450344 156.82008,2.1174438 113.40367,2.0314182 93.465828,2.0283989 42.505349,2.0849128 Z M 156.9485,6.3496657 c 12.86102,0.045298 20.78865,3.7805213 26.04842,9.0701033 5.25977,5.289582 9.24172,14.578508 9.32562,27.866372 0.3154,49.951518 -0.1529,57.843969 -0.0166,113.486199 0.0313,12.78536 -4.22734,20.72627 -9.309,25.92872 -5.08166,5.20245 -13.75491,9.29076 -26.64351,9.32955 -51.54728,0.15512 -63.281887,0.2036 -114.081649,0 -13.214111,-0.053 -21.357623,-4.04493 -26.638056,-9.36811 -5.280433,-5.32318 -8.9285257,-12.93336 -8.9620789,-25.76887 -0.156007,-59.679255 -0.025126,-65.021539 0,-113.922751 C 6.6784461,29.699069 9.8188115,21.12035 15.633725,15.347292 21.448639,9.574234 29.470477,6.3827854 42.575608,6.3704837 91.014062,6.3250147 98.300342,6.1431023 156.9485,6.3496657 Z"
       transform="matrix(2.5940351,0,0,2.5939064,-2.0544322,-1.3094385)" /></g></svg>
