<?xml version="1.0" encoding="UTF-8" standalone="no"?>
<!-- Created with Inkscape (http://www.inkscape.org/) -->

<svg
   version="1.1"
   id="svg1"
   width="256"
   height="256"
   viewBox="0 0 256 256"
   xml:space="preserve"
   sodipodi:docname="CarbonDioxide.svg"
   inkscape:version="1.3.1 (9b9bdc1480, 2023-11-25, custom)"
   xmlns:inkscape="http://www.inkscape.org/namespaces/inkscape"
   xmlns:sodipodi="http://sodipodi.sourceforge.net/DTD/sodipodi-0.dtd"
   xmlns="http://www.w3.org/2000/svg"
   xmlns:svg="http://www.w3.org/2000/svg"><sodipodi:namedview
     id="namedview1"
     pagecolor="#ffffff"
     bordercolor="#111111"
     borderopacity="1"
     inkscape:showpageshadow="0"
     inkscape:pageopacity="0"
     inkscape:pagecheckerboard="1"
     inkscape:deskcolor="#d1d1d1"
     showgrid="false"
     inkscape:clip-to-page="true"
     inkscape:zoom="2.7727388"
     inkscape:cx="135.96665"
     inkscape:cy="124.78637"
     inkscape:window-width="1854"
     inkscape:window-height="1008"
     inkscape:window-x="0"
     inkscape:window-y="0"
     inkscape:window-maximized="1"
     inkscape:current-layer="svg1" /><defs
     id="defs1" /><g
     id="g1"
     transform="matrix(1.2599998,0,0,1.2292688,2.0000191,5.0731695)"><path
       style="display:inline;fill:#2346ad;stroke-width:1.02751"
       d="m 8.0010875,154.32494 c -0.0027,-33.08595 4.73e-4,-20.0093 0,-108.649958 C 30.964404,31.445744 80.005072,3.1025488 89.000432,-2.4976272 c 10.73278,-0.00376 19.924708,-0.0025 21.999818,0 13.77978,8.5929639 67.22716,39.5659542 80.99934,48.1726092 -1e-4,36.320461 9.7e-4,33.158766 0,108.649958 -14.07883,8.62099 -66.96545,39.6279 -80.99934,48.17498 H 89.000432 C 78.870825,196.30809 25.308377,164.92181 8.0010875,154.32494 Z"
       id="path4"
       clip-path="none" /><path
       style="display:inline;fill:#3baafc;stroke-width:0.999559"
       d="m 48.536011,138.13118 c -16.551861,-6.6048 -14.357147,-32.1243 3.043422,-35.38822 1.547915,-0.29035 1.086867,-0.20182 3.234838,-0.64844 -0.104113,-3.12332 -0.338165,-3.613101 -0.434392,-7.596999 -0.680125,-28.157469 31.889067,-44.493463 52.023951,-26.094082 2.76796,2.529372 3.97699,5.386676 4.56055,8.169166 -1.75905,1.647683 -1.06434,0.977508 -3.45935,3.423012 -1.89369,1.933613 -3.64167,4.420038 -4.79437,7.317787 -0.95688,2.405496 -1.05924,3.050219 -0.73463,3.930916 1.07537,-0.736651 0.92649,-0.643246 3.43784,-4.783958 7.50849,-11.701199 19.63383,-15.414424 31.19962,-9.554471 7.80786,3.955941 11.48478,10.757675 10.90703,20.176304 l -0.29549,4.817135 4.16514,1.47263 c 15.08193,5.3324 13.41208,27.27943 5.03155,33.37305 0,0 -2.79792,2.36983 -6.33279,2.35492 -3.53487,-0.0149 -49.43628,-0.0949 -49.43628,-0.0949 -30.814881,-0.0591 -50.849989,-0.36844 -52.116639,-0.87388 z"
       id="path28" /></g></svg>
