<?xml version="1.0" encoding="UTF-8" standalone="no"?>
<!-- Created with Inkscape (http://www.inkscape.org/) -->

<svg
   width="128"
   height="128"
   viewBox="0 0 128 128"
   version="1.1"
   id="svg1"
   xml:space="preserve"
   xmlns="http://www.w3.org/2000/svg"
   xmlns:svg="http://www.w3.org/2000/svg"><defs
     id="defs1" /><g
     id="layer1"
     transform="matrix(0.63164364,0,0,0.63165238,0.74870219,0.85102233)"><path
       id="path2"
       style="display:inline;fill:#08957c;fill-opacity:0.49803922;stroke-width:6.99718;stroke-linecap:round"
       d="m 100.07054,5.1099384 c 50.95394,0.1956816 71.91676,-1.224306 84.13883,10.7113506 12.22207,11.935658 10.54722,33.77918 10.70858,84.160617 0.16135,50.381434 2.19394,71.406214 -10.70858,84.160614 -12.90252,12.75441 -34.12271,10.68513 -84.13883,10.71135 -50.016135,0.0262 -71.812222,1.70201 -84.138841,-10.71135 C 3.6050795,171.72917 5.2083293,150.35259 5.2231193,99.981906 5.2379093,49.611228 3.6291595,27.937681 15.931699,15.821289 28.234238,3.704898 49.116588,4.9142568 100.07054,5.1099384 Z" /><path
       id="path1"
       style="display:inline;fill:#12ffd5;fill-opacity:1;stroke-width:6.85271;stroke-linecap:round"
       d="M 99.91223,1.9090257 C 50.921713,1.8705178 27.961045,0.11472835 14.00099,14.076715 1.2812596,26.798206 2.017092,52.03314 1.9944143,99.982758 1.9708293,149.85021 1.2759625,173.18595 14.00099,185.8888 c 13.931143,13.90686 36.154472,12.09213 85.91124,12.11626 47.99676,0.0233 71.66559,2.14652 85.91124,-12.11626 13.96092,-13.97771 12.28021,-36.08682 12.28155,-85.906042 0.001,-47.945959 2.69525,-70.925786 -12.28155,-85.906043 C 171.78308,0.03310131 148.90274,1.9475337 99.91223,1.9090257 Z m 0,5.1753366 c 49.90991,0.1916109 69.61501,-0.2577963 81.58666,11.4295697 11.97164,11.687366 11.15931,32.135448 11.31735,81.468826 0.15805,49.333372 1.3208,68.928312 -11.31735,81.417392 -12.63816,12.48908 -32.59535,11.45532 -81.58666,11.48101 -48.991313,0.0257 -69.237627,0.67412 -81.311676,-11.48101 C 6.5265051,169.24503 6.9937286,149.3056 7.0082155,99.982758 7.0227024,50.659916 6.5500917,30.378273 18.600554,18.513932 30.651017,6.6495914 50.002316,6.8927513 99.91223,7.0843623 Z" /><path
       style="display:inline;fill:#312c2c;stroke-width:1.01358;fill-opacity:0.59884876"
       d="m 56.929433,126.28488 -20.118649,-19.60069 4.396888,-4.28091 4.396886,-4.2809 16.359794,15.91253 16.359794,15.91253 38.164144,-37.150684 38.16414,-37.150678 4.40602,4.2898 4.40603,4.289801 -41.96073,40.829951 c -23.078414,22.45648 -42.522102,40.82996 -43.208207,40.82996 -0.686103,0 -10.300853,-8.82031 -21.36611,-19.60071 z"
       id="path3" /></g></svg>
