<?xml version="1.0" encoding="UTF-8" standalone="no"?>
<!-- Created with Inkscape (http://www.inkscape.org/) -->

<svg
   width="200"
   height="200"
   viewBox="0 0 200 200"
   version="1.1"
   id="svg1"
   xml:space="preserve"
   xmlns="http://www.w3.org/2000/svg"
   xmlns:svg="http://www.w3.org/2000/svg"><defs
     id="defs1" /><g
     id="layer1"><path
       id="path2"
       style="display:inline;fill:#11ffd5;fill-opacity:1;stroke-width:6.74013;stroke-linecap:round"
       d="M 99.935363,8.6200588 C 149.0171,8.808553 169.20966,7.4407217 180.98266,18.93798 c 11.77298,11.497259 10.15967,32.538466 10.3151,81.06939 0.15543,48.53091 2.11334,68.78345 -10.3151,81.06939 -12.42844,12.28593 -32.86893,10.29265 -81.047297,10.31792 -48.178359,0.0253 -69.173583,1.63949 -81.047279,-10.31792 C 7.0143873,169.11935 8.5587282,148.52793 8.5729746,100.00737 8.5872212,51.48681 7.0375825,30.609335 18.888084,18.93798 30.738586,7.2666257 50.853647,8.4315647 99.935363,8.6200588 Z" /><path
       id="path1"
       style="display:inline;fill:#10ffd4;fill-opacity:0.75;stroke-width:6.86;stroke-linecap:round"
       d="M 100,2 C 49.898937,1.9606167 26.911311,1.445528 14,14 1.0886892,26.554472 2.0227012,51.997938 2,100 c -0.023609,49.92199 -0.868884,73.41554 12,86 12.868884,12.58446 36.191826,11.97584 86,12 48.04635,0.0233 71.63658,2.17471 86,-12 14.36342,-14.17471 11.99866,-36.12629 12,-86 0.001,-47.998399 3.26879,-71.284973 -12,-86 C 170.73121,-0.71502651 147.9812,2.0377169 100,2 Z m 0,5 c 49.96148,0.1918205 70.26599,-0.9501486 82.25,10.75 11.98401,11.700149 10.59179,32.862665 10.75,82.25 0.15821,49.38733 1.90121,69.74726 -10.75,82.25 C 169.59879,194.75274 149.04193,192.97429 100,193 50.958072,193.0257 29.836524,194.41842 17.75,182.25 5.663476,170.08158 6.9854981,149.37679 7,100 7.0145019,50.623212 5.687087,29.627317 17.75,17.75 29.812913,5.8726832 50.038522,6.8081795 100,7 Z" /><path
       style="fill:#000000"
       d="m 59.57667,128.585 -19.585568,-19.59832 4.280384,-4.28039 4.280383,-4.28038 15.926311,15.9106 15.926311,15.9106 37.152909,-37.146177 37.15291,-37.146179 4.28928,4.289281 4.28928,4.289281 -40.84891,40.825004 c -22.466897,22.45376 -41.395389,40.82501 -42.063314,40.82501 -0.667924,0 -10.027913,-8.81924 -20.799976,-19.59833 z"
       id="path3" /></g></svg>
