<?xml version="1.0" encoding="UTF-8" standalone="no"?>
<!-- Created with Inkscape (http://www.inkscape.org/) -->

<svg
   width="200"
   height="200"
   viewBox="0 0 200 200"
   version="1.1"
   id="svg1"
   xml:space="preserve"
   sodipodi:docname="CheckBHover.svg"
   inkscape:version="1.3.1 (9b9bdc1480, 2023-11-25, custom)"
   xmlns:inkscape="http://www.inkscape.org/namespaces/inkscape"
   xmlns:sodipodi="http://sodipodi.sourceforge.net/DTD/sodipodi-0.dtd"
   xmlns="http://www.w3.org/2000/svg"
   xmlns:svg="http://www.w3.org/2000/svg"><sodipodi:namedview
     id="namedview1"
     pagecolor="#ffffff"
     bordercolor="#111111"
     borderopacity="1"
     inkscape:showpageshadow="0"
     inkscape:pageopacity="0"
     inkscape:pagecheckerboard="1"
     inkscape:deskcolor="#d1d1d1"
     showgrid="false"
     inkscape:zoom="2.8640327"
     inkscape:cx="80.306345"
     inkscape:cy="106.14404"
     inkscape:window-width="1854"
     inkscape:window-height="1008"
     inkscape:window-x="0"
     inkscape:window-y="0"
     inkscape:window-maximized="1"
     inkscape:current-layer="svg1" /><defs
     id="defs1" /><g
     id="layer1"
     style="display:inline"><path
       id="path1"
       style="display:inline;fill:#11ffd5;fill-opacity:1;stroke-width:6.86;stroke-linecap:round"
       d="M 100,2 C 49.898937,1.9606167 26.911311,1.445528 14,14 1.0886892,26.554472 2.0227012,51.997938 2,100 c -0.023609,49.92199 -0.868884,73.41554 12,86 12.868884,12.58446 36.191826,11.97584 86,12 48.04635,0.0233 71.63658,2.17471 86,-12 14.36342,-14.17471 11.99866,-36.12629 12,-86 0.001,-47.998399 3.26879,-71.284973 -12,-86 C 170.73121,-0.71502651 147.9812,2.0377169 100,2 Z m 0,5 c 49.96148,0.1918205 70.26599,-0.9501486 82.25,10.75 11.98401,11.700149 10.59179,32.862665 10.75,82.25 0.15821,49.38733 1.90121,69.74726 -10.75,82.25 C 169.59879,194.75274 149.04193,192.97429 100,193 50.958072,193.0257 29.836524,194.41842 17.75,182.25 5.663476,170.08158 6.9854981,149.37679 7,100 7.0145019,50.623212 5.687087,29.627317 17.75,17.75 29.812913,5.8726832 50.038522,6.8081795 100,7 Z"
       sodipodi:nodetypes="szszszszsszszzzszs"
       transform="translate(-0.13763063,0.02574297)" /><path
       id="path2"
       style="display:inline;fill:#0a957e;fill-opacity:0.49686846;stroke-width:6.86903;stroke-linecap:round"
       d="M 67.628906,6.9550781 C 40.297533,7.1677945 26.660457,8.8674119 17.613281,17.775391 5.5503803,29.652696 6.8777831,50.648652 6.8632812,100.02539 c -0.014502,49.37674 -1.3365119,70.08159 10.7499998,82.25 12.086512,12.16841 33.208121,10.7757 82.25,10.75 49.041879,-0.0257 69.598799,1.75273 82.249999,-10.75 12.6512,-12.50273 10.90821,-32.86272 10.75,-82.25 -0.15821,-49.387285 1.234,-70.549862 -10.75,-82.249999 C 170.12928,6.0752537 149.82471,7.2172109 99.863281,7.0253906 87.372924,6.9774355 76.739364,6.8841727 67.628906,6.9550781 Z"
       sodipodi:nodetypes="ssssssssss" /><path
       style="display:inline;fill:#000000"
       d="m 59.57667,128.585 -19.585568,-19.59832 4.280384,-4.28039 4.280383,-4.28038 15.926311,15.9106 15.926311,15.9106 37.152909,-37.146177 37.15291,-37.146179 4.28928,4.289281 4.28928,4.289281 -40.84891,40.825004 c -22.466897,22.45376 -41.395389,40.82501 -42.063314,40.82501 -0.667924,0 -10.027913,-8.81924 -20.799976,-19.59833 z"
       id="path3" /></g></svg>
