<?xml version="1.0" encoding="UTF-8" standalone="no"?>
<!-- Created with Inkscape (http://www.inkscape.org/) -->

<svg
   width="128"
   height="128"
   viewBox="0 0 128 128"
   version="1.1"
   id="svg1"
   xml:space="preserve"
   xmlns="http://www.w3.org/2000/svg"
   xmlns:svg="http://www.w3.org/2000/svg"><defs
     id="defs1" /><g
     id="layer1"
     transform="matrix(0.63164364,0,0,0.63165238,0.74870219,0.85102233)"><path
       id="path2"
       style="display:inline;fill:#002024;fill-opacity:0.75294119;stroke-width:6.99718;stroke-linecap:round"
       d="m 100.07054,5.1099384 c 50.95394,0.1956816 71.91676,-1.224306 84.13883,10.7113506 12.22207,11.935658 10.54722,33.77918 10.70858,84.160617 0.16135,50.381434 2.19394,71.406214 -10.70858,84.160614 -12.90252,12.75441 -34.12271,10.68513 -84.13883,10.71135 -50.016135,0.0262 -71.812222,1.70201 -84.138841,-10.71135 C 3.6050795,171.72917 5.2083293,150.35259 5.2231193,99.981906 5.2379093,49.611228 3.6291595,27.937681 15.931699,15.821289 28.234238,3.704898 49.116588,4.9142568 100.07054,5.1099384 Z" /><path
       id="path1"
       style="display:inline;fill:#12ffd5;fill-opacity:1;stroke-width:6.86;stroke-linecap:round"
       d="M 100,1.8190032 C 50.958868,1.7804531 27.974478,0.02274336 14,14 1.2671271,26.735405 2.0037198,51.997938 1.9810186,100 1.9574096,149.92199 1.2618246,173.28325 14,186 c 13.945536,13.92207 36.191826,12.10535 86,12.12951 48.04635,0.0233 71.73963,2.14887 86,-12.12951 13.97535,-13.993 12.2929,-36.12629 12.29424,-86 C 198.29524,52.001601 200.99228,28.996641 186,14 171.94511,-0.05897295 149.04113,1.8575533 100,1.8190032 Z M 100,7 C 149.96148,7.1918205 169.68694,6.7419218 181.67095,18.44207 193.65496,30.142219 192.84179,50.612665 193,100 c 0.15821,49.38733 1.32216,69.0037 -11.32905,81.50644 C 169.01974,194.00918 149.04193,192.97429 100,193 50.958072,193.0257 30.69084,193.67486 18.604316,181.50644 6.5177919,169.33802 6.9854981,149.37679 7,100 7.0145019,50.623212 6.5414029,30.319387 18.604316,18.44207 30.667229,6.5647536 50.038522,6.8081795 100,7 Z" /></g></svg>
