<?xml version="1.0" encoding="UTF-8" standalone="no"?>
<!-- Created with Inkscape (http://www.inkscape.org/) -->

<svg
   width="128"
   height="128"
   viewBox="0 0 128 128"
   version="1.1"
   id="svg1"
   xml:space="preserve"
   xmlns="http://www.w3.org/2000/svg"
   xmlns:svg="http://www.w3.org/2000/svg"><defs
     id="defs1" /><g
     id="layer1"
     transform="matrix(0.63164364,0,0,0.63165238,0.74870219,0.85102233)"><path
       id="path2"
       style="display:inline;fill:#12ffd5;fill-opacity:1;stroke-width:6.99715;stroke-linecap:round"
       d="M 67.785163,1.8306656 C 40.005471,1.9750723 24.471006,3.6038562 14.001059,14.075336 1.2814414,26.796814 2.0170855,52.033258 1.994408,99.982828 1.9708233,149.85023 1.2761444,173.18439 14.001059,185.88722 c 13.931019,13.90685 36.154769,12.09377 85.911095,12.1179 47.996336,0.0233 71.665566,2.14487 85.911096,-12.1179 13.96079,-13.97769 12.2805,-36.08522 12.28184,-85.904392 0.001,-47.945911 2.69482,-70.92725 -12.28184,-85.907492 C 171.78298,0.03173599 148.90223,1.9464758 99.912154,1.9079678 87.664633,1.8983409 77.045061,1.78253 67.785163,1.8306656 Z" /><path
       style="display:inline;fill:#000000;stroke-width:1.01358"
       d="m 56.929433,126.28488 -20.118649,-19.60069 4.396888,-4.28091 4.396886,-4.2809 16.359794,15.91253 16.359794,15.91253 38.164144,-37.150684 38.16414,-37.150678 4.40602,4.2898 4.40603,4.289801 -41.96073,40.829951 c -23.078414,22.45648 -42.522102,40.82996 -43.208207,40.82996 -0.686103,0 -10.300853,-8.82031 -21.36611,-19.60071 z"
       id="path3" /></g></svg>
