<?xml version="1.0" encoding="UTF-8" standalone="no"?>
<!-- Created with Inkscape (http://www.inkscape.org/) -->

<svg
   width="200"
   height="200"
   viewBox="0 0 200 200"
   version="1.1"
   id="svg1"
   xml:space="preserve"
   xmlns="http://www.w3.org/2000/svg"
   xmlns:svg="http://www.w3.org/2000/svg"><defs
     id="defs1" /><g
     id="layer1"><path
       id="path2"
       style="display:inline;fill:#11ffd5;fill-opacity:1;stroke-width:6.86903;stroke-linecap:round"
       d="M 131.5332 1.8222656 C 122.41447 1.8451091 111.99529 2.0094292 100 2 C 49.898987 1.9606167 26.911298 1.4455406 14 14 C 1.0887021 26.554459 2.0227012 51.997986 2 100 C 1.976391 149.92194 1.1311289 173.41555 14 186 C 26.868871 198.58445 50.191876 197.97584 100 198 C 148.0463 198.0233 171.63659 200.1747 186 186 C 200.36341 171.8253 197.99866 149.87366 198 100 C 198.001 52.001649 201.26877 28.715012 186 14 C 174.54842 2.9637412 158.88941 1.7537353 131.5332 1.8222656 z " /><path
       style="fill:#000000"
       d="m 59.57667,128.585 -19.585568,-19.59832 4.280384,-4.28039 4.280383,-4.28038 15.926311,15.9106 15.926311,15.9106 37.152909,-37.146177 37.15291,-37.146179 4.28928,4.289281 4.28928,4.289281 -40.84891,40.825004 c -22.466897,22.45376 -41.395389,40.82501 -42.063314,40.82501 -0.667924,0 -10.027913,-8.81924 -20.799976,-19.59833 z"
       id="path3" /></g></svg>
