<?xml version="1.0" encoding="UTF-8" standalone="no"?>
<!-- Created with Inkscape (http://www.inkscape.org/) -->

<svg
   width="200"
   height="200"
   viewBox="0 0 200 200"
   version="1.1"
   id="svg1"
   xml:space="preserve"
   sodipodi:docname="CheckA.svg"
   inkscape:version="1.3.1 (9b9bdc1480, 2023-11-25, custom)"
   xmlns:inkscape="http://www.inkscape.org/namespaces/inkscape"
   xmlns:sodipodi="http://sodipodi.sourceforge.net/DTD/sodipodi-0.dtd"
   xmlns="http://www.w3.org/2000/svg"
   xmlns:svg="http://www.w3.org/2000/svg"><sodipodi:namedview
     id="namedview1"
     pagecolor="#ffffff"
     bordercolor="#111111"
     borderopacity="1"
     inkscape:showpageshadow="0"
     inkscape:pageopacity="0"
     inkscape:pagecheckerboard="1"
     inkscape:deskcolor="#d1d1d1"
     inkscape:zoom="2.8662709"
     inkscape:cx="97.687905"
     inkscape:cy="116.17883"
     inkscape:window-width="1854"
     inkscape:window-height="1008"
     inkscape:window-x="0"
     inkscape:window-y="0"
     inkscape:window-maximized="1"
     inkscape:current-layer="svg1" /><defs
     id="defs1" /><g
     id="layer1"><path
       id="path2"
       style="display:inline;fill:#002024;fill-opacity:0.75294119;stroke-width:6.86;stroke-linecap:round"
       d="m 100,7 c 49.96148,0.1918205 70.51599,-1.2001486 82.5,10.5 11.98401,11.700149 10.34179,33.112665 10.5,82.5 0.15821,49.38733 2.15121,69.99726 -10.5,82.5 C 169.84879,195.00274 149.04193,192.97429 100,193 50.958072,193.0257 29.586524,194.66842 17.5,182.5 5.413476,170.33158 6.9854981,149.37679 7,100 7.0145019,50.623212 5.437087,29.377317 17.5,17.5 29.562913,5.6226832 50.038522,6.8081795 100,7 Z"
       sodipodi:nodetypes="szszzzszs"
       inkscape:label="Inside" /><path
       id="path1"
       style="display:inline;fill:#11ffd5;fill-opacity:1;stroke-width:6.86;stroke-linecap:round"
       d="M 100,2 C 49.898937,1.9606167 26.911311,1.445528 14,14 1.0886892,26.554472 2.0227012,51.997938 2,100 c -0.023609,49.92199 -0.868884,73.41554 12,86 12.868884,12.58446 36.191826,11.97584 86,12 48.04635,0.0233 71.63658,2.17471 86,-12 14.36342,-14.17471 11.99866,-36.12629 12,-86 0.001,-47.998399 3.26879,-71.284973 -12,-86 C 170.73121,-0.71502651 147.9812,2.0377169 100,2 Z m 0,5 c 49.96148,0.1918205 70.26599,-0.9501486 82.25,10.75 11.98401,11.700149 10.59179,32.862665 10.75,82.25 0.15821,49.38733 1.90121,69.74726 -10.75,82.25 C 169.59879,194.75274 149.04193,192.97429 100,193 50.958072,193.0257 29.836524,194.41842 17.75,182.25 5.663476,170.08158 6.9854981,149.37679 7,100 7.0145019,50.623212 5.687087,29.627317 17.75,17.75 29.812913,5.8726832 50.038522,6.8081795 100,7 Z"
       sodipodi:nodetypes="szszszszsszszzzszs" /></g></svg>
