<?xml version="1.0" encoding="UTF-8" standalone="no"?>
<!-- Created with Inkscape (http://www.inkscape.org/) -->

<svg
   version="1.1"
   id="svg1"
   width="512"
   height="512"
   viewBox="0 0 511.99999 511.99999"
   xml:space="preserve"
   xmlns="http://www.w3.org/2000/svg"
   xmlns:svg="http://www.w3.org/2000/svg"><defs
     id="defs1" /><g
     id="g1"><path
       id="path1"
       style="display:inline;fill:#12ffd5;fill-opacity:1;stroke-width:6.86;stroke-linecap:round"
       d="M 42.505349,2.0849128 C 28.248595,2.1007232 18.936535,5.5960515 12.452526,12.147485 5.9685169,18.698918 2.3840087,28.485814 2.3621252,42.884241 2.2932919,88.173608 2.3750133,108.907 2.3544517,157.119 c -0.00588,13.79029 3.4691176,22.38626 10.0410753,28.85897 6.571957,6.47271 15.749123,10.34926 29.888143,10.37046 53.773095,0.0806 61.48496,-0.0141 114.07858,-1e-5 14.02002,0.004 23.25993,-3.79712 29.89888,-10.37045 6.63895,-6.57334 10.33645,-15.17844 10.35233,-28.95252 0.0456,-39.53716 -0.0463,-70.506097 -0.0838,-114.143426 C 196.51726,28.478348 192.78699,18.655539 186.26109,12.108933 179.73519,5.5623242 170.74484,2.1450344 156.82008,2.1174438 113.40367,2.0314182 93.465828,2.0283989 42.505349,2.0849128 Z"
       transform="matrix(2.5940351,0,0,2.5939064,-2.0544322,-1.3094385)" /><path
       style="display:inline;fill:#030303;fill-opacity:1;stroke-width:1.7659"
       d="M 82.354754,88.994595 C 101.35697,70.013297 109.81959,61.743522 117.74153,53.745123 c -2.13385,-6.528897 -0.52247,-10.829646 2.52956,-10.071465 3.05208,0.758208 8.66376,5.818578 18.06574,15.228932 9.40198,9.410333 14.36992,14.108181 16.25107,18.429731 1.9009,4.366958 -3.90828,5.594085 -9.42161,3.731146 -8.53667,8.149381 -26.3354,26.196193 -34.50211,34.368233 -31.509536,31.52997 -42.106642,45.76934 -57.448461,30.45286 -15.341801,-15.31649 -2.413014,-25.37264 29.139035,-56.889965 z m 42.464136,-3.52495 c 4.96329,-4.904832 9.17587,-8.889211 12.05244,-12.004351 -3.68848,-4.055192 -7.95781,-7.942 -11.50069,-11.456081 -5.52867,5.782484 -8.59756,8.608707 -12.05242,12.004365 -3.45486,3.395698 -17.166182,17.012449 -24.770758,24.67465 7.946296,0.3329 14.283408,0.681751 22.116758,0.881221 5.67944,-5.754944 9.19157,-9.194824 14.1547,-14.099779 z"
       id="path5-1"
       transform="matrix(2.5850306,0,0,2.58491,-1.5004521,-0.41701329)" /></g></svg>
