<?xml version="1.0" encoding="UTF-8" standalone="no"?>
<!-- Created with Inkscape (http://www.inkscape.org/) -->

<svg
   width="512"
   height="512"
   viewBox="0 0 512 512"
   version="1.1"
   id="svg1"
   xml:space="preserve"
   xmlns="http://www.w3.org/2000/svg"
   xmlns:svg="http://www.w3.org/2000/svg"><defs
     id="defs1" /><g
     id="layer1"
     transform="matrix(2.5850306,0,0,2.58491,-1.0863298,-0.46900476)"
     style="display:inline"><path
       id="path2"
       style="display:inline;fill:#002024;fill-opacity:0.752941;stroke-width:6.99718;stroke-linecap:round"
       d="m 100.07054,5.1099384 c 50.95394,0.1956816 71.91676,-1.224306 84.13883,10.7113506 12.22207,11.935658 10.54722,33.77918 10.70858,84.160617 0.16135,50.381434 2.19394,71.406214 -10.70858,84.160614 -12.90252,12.75441 -34.12271,10.68513 -84.13883,10.71135 -50.016135,0.0262 -71.812222,1.70201 -84.138841,-10.71135 C 3.6050795,171.72917 5.2083293,150.35259 5.2231193,99.981906 5.2379093,49.611228 3.6291595,27.937681 15.931699,15.821289 28.234238,3.704898 49.116588,4.9142568 100.07054,5.1099384 Z" /><path
       id="path1"
       style="display:inline;fill:#12ffd5;fill-opacity:1;stroke-width:6.86;stroke-linecap:round"
       d="M 42.505349,2.0849128 C 28.248595,2.1007232 18.936535,5.7781367 12.452526,12.32957 5.9685169,18.881003 2.3840087,28.485814 2.3621252,42.884241 2.2932919,88.173608 2.3750133,108.907 2.3544517,157.119 c -0.00588,13.79029 3.5261626,22.52684 10.0981203,28.99955 6.571957,6.47271 15.692078,10.11537 29.831098,10.13657 53.773095,0.0806 61.48496,0.0792 114.07858,0.0933 14.02002,0.004 23.25993,-3.65651 29.89888,-10.22984 6.63895,-6.57334 10.33645,-15.31905 10.35233,-29.09313 0.0456,-39.53716 -0.0463,-70.506097 -0.0838,-114.143426 C 196.51726,28.478348 192.78699,18.876176 186.26109,12.32957 179.73519,5.7829613 170.74484,2.1450344 156.82008,2.1174438 113.40367,2.0314182 93.465828,2.0283989 42.505349,2.0849128 Z M 156.9485,6.7350942 c 12.86102,0.045298 19.67086,3.4128338 25.66287,9.2629078 5.99201,5.850074 9.24184,14.000275 9.32574,27.288139 0.3154,49.951518 0.23253,57.843969 0.36881,113.486199 0.0313,12.78536 -3.36896,19.37892 -9.69456,25.63029 -6.32561,6.25137 -13.36935,9.61309 -26.25795,9.65188 -51.54728,0.15512 -64.396959,-0.62243 -115.196721,-0.82603 -13.214111,-0.053 -19.280103,-2.68178 -25.323365,-8.76599 -6.043233,-6.08421 -8.7425884,-12.73335 -8.7761416,-25.56886 -0.156007,-59.679255 -0.025126,-64.636006 0,-113.537218 0.00682,-13.27181 2.7446686,-21.419874 8.7761256,-27.358532 6.031457,-5.938658 13.637169,-9.4607875 26.7423,-9.4730892 48.438454,-0.045469 55.724734,0.00374 114.372892,0.2103034 z" /><path
       style="display:inline;fill:#fcfcfc;fill-opacity:1;stroke-width:1.7659"
       d="M 82.354754,88.994595 C 101.35697,70.013297 109.81959,61.743522 117.74153,53.745123 c -2.13385,-6.528897 -0.52247,-10.829646 2.52956,-10.071465 3.05208,0.758208 8.66376,5.818578 18.06574,15.228932 9.40198,9.410333 14.36992,14.108181 16.25107,18.429731 1.9009,4.366958 -3.90828,5.594085 -9.42161,3.731146 -8.53667,8.149381 -26.3354,26.196193 -34.50211,34.368233 -31.509536,31.52997 -42.106642,45.76934 -57.448461,30.45286 -15.341801,-15.31649 -2.413014,-25.37264 29.139035,-56.889965 z m 42.464136,-3.52495 c 4.96329,-4.904832 9.17587,-8.889211 12.05244,-12.004351 -3.68848,-4.055192 -7.95781,-7.942 -11.50069,-11.456081 -5.52867,5.782484 -8.59756,8.608707 -12.05242,12.004365 -3.45486,3.395698 -17.166182,17.012449 -24.770758,24.67465 7.946296,0.3329 14.283408,0.681751 22.116758,0.881221 5.67944,-5.754944 9.19157,-9.194824 14.1547,-14.099779 z"
       id="path5-1" /></g></svg>
