<?xml version="1.0" encoding="UTF-8" standalone="no"?>
<!-- Created with Inkscape (http://www.inkscape.org/) -->

<svg
   version="1.1"
   id="svg1"
   width="512"
   height="512"
   viewBox="0 0 511.99999 511.99999"
   xml:space="preserve"
   xmlns="http://www.w3.org/2000/svg"
   xmlns:svg="http://www.w3.org/2000/svg"><defs
     id="defs1" /><g
     id="g1"><path
       id="path1"
       style="display:inline;fill:#11ffd5;fill-opacity:1;stroke-width:6.86;stroke-linecap:round"
       d="M 42.505349,2.0849128 C 28.248595,2.1007232 18.936535,5.5960515 12.452526,12.147485 5.9685169,18.698918 2.3840087,28.485814 2.3621252,42.884241 2.2932919,88.173608 2.3750133,108.907 2.3544517,157.119 c -0.00588,13.79029 3.4691176,22.38626 10.0410753,28.85897 6.571957,6.47271 15.749123,10.34926 29.888143,10.37046 53.773095,0.0806 61.48496,-0.0141 114.07858,-1e-5 14.02002,0.004 23.25993,-3.79712 29.89888,-10.37045 6.63895,-6.57334 10.33645,-15.17844 10.35233,-28.95252 0.0456,-39.53716 -0.0463,-70.506097 -0.0838,-114.143426 C 196.51726,28.478348 192.78699,18.655539 186.26109,12.108933 179.73519,5.5623242 170.74484,2.1450344 156.82008,2.1174438 113.40367,2.0314182 93.465828,2.0283989 42.505349,2.0849128 Z"
       transform="matrix(2.5940351,0,0,2.5939064,-2.0544322,-1.3094385)" /><path
       style="display:inline;fill:#112b36;fill-opacity:1"
       d="m 298.15524,374.38812 c 27.32882,-6.44342 53.62366,-24.07825 69.88832,-46.87113 30.21273,-42.33935 30.92517,-97.67565 1.80741,-140.38429 -42.73692,-62.6846 -131.73703,-70.87627 -185.53634,-17.07696 -16.79976,16.79976 -29.76979,41.6555 -33.60088,64.39266 l -2.62917,15.60388 -8.05178,-9.82614 C 133.81404,232.63697 130.56579,230.4 125.76449,230.4 c -8.61198,0 -10.70001,8.16267 -4.21043,16.45967 9.31758,11.91263 26.49933,27.81821 34.02272,34.7792 6.81514,-4.7164 11.72164,-8.72341 22.9128,-18.02884 17.71175,-14.72729 19.54652,-15.55163 20.09378,-21.23658 0.6892,-7.15939 -7.77293,-11.73938 -21.7475,0.0442 l -10.44259,8.80533 1.32676,-8.45763 c 4.02934,-25.68555 13.39084,-43.4366 29.28373,-59.16079 13.59817,-13.45382 20.53451,-18.11025 35.52957,-23.85133 61.81244,-23.66577 129.06851,15.55915 139.22888,81.20073 7.64164,49.36921 -23.15294,98.5614 -70.96221,113.35719 -33.96959,10.51274 -72.72437,2.3531 -98.67281,-20.77513 -8.8085,-7.85114 -11.652,-8.54459 -17.50069,-4.26792 -6.21161,4.54204 -2.67614,12.0713 10.47426,22.30634 29.31799,22.81839 67.33722,31.2349 103.05448,22.81371 z m 20.55201,-74.12145 c 5.14669,-8.34591 0.32394,-9.64455 -26.12969,-25.02053 L 268.8,261.42561 V 220 c 0,-12.74091 0.2545,-28.23731 -1.60359,-32.14671 -2.37924,-5.00593 -12.82687,-4.82196 -15.38802,-0.26021 -2.02597,3.60852 -1.80364,18.60143 -1.80839,41.87443 -0.005,23.273 -0.53792,37.84422 1.55675,41.25314 1.01809,1.65686 13.81267,9.87901 28.23399,18.55231 29.77666,17.90833 33.8838,19.15479 38.91651,10.99371 z"
       id="path2" /></g></svg>
