<?xml version="1.0" encoding="UTF-8" standalone="no"?>
<!-- Created with Inkscape (http://www.inkscape.org/) -->

<svg
   version="1.1"
   id="svg1"
   width="256"
   height="256"
   viewBox="0 0 256 256"
   xmlns="http://www.w3.org/2000/svg"
   xmlns:svg="http://www.w3.org/2000/svg">
  <defs
     id="defs1">
    <filter
       style="color-interpolation-filters:sRGB;"
       id="filter2"
       x="0"
       y="0"
       width="1"
       height="1">
      <feColorMatrix
         type="hueRotate"
         values="180"
         result="color1"
         id="feColorMatrix1" />
      <feColorMatrix
         values="-1 0 0 0 1 0 -1 0 0 1 0 0 -1 0 1 -0.21 -0.72 -0.07 2 0 "
         result="color2"
         id="feColorMatrix2" />
    </filter>
  </defs>
  <g
     id="g1">
    <path
       id="path2"
       style="fill:#030303;fill-opacity:1;stroke:none;stroke-width:19.1497"
       d="M 12.742188,12.730469 C 5.663655,19.767278 1.4413914,24.026593 21.144531,43.761719 41.90841,64.559264 77.294123,99.91698 82.492188,105.10938 84.202775,106.8181 97.43579,120.05074 105.32617,127.94336 97.711835,135.57962 94.334107,139.02 82.482422,150.9082 59.58055,173.88064 41.053489,192.50468 21.214844,212.17578 1.3761977,231.84689 5.6936536,236.21054 12.730469,243.28906 c 7.036809,7.07854 11.296124,11.29885 31.03125,-8.40429 20.797545,-20.76388 56.155259,-56.1496 61.347661,-61.34766 1.71408,-1.71595 14.97454,-14.97875 22.90429,-22.90625 10.03026,10.03105 16.94378,16.95084 23.86524,23.86523 20.12362,20.10326 40.6453,40.36111 60.26562,60.26563 19.62031,19.90451 24.02708,15.59764 31.11328,8.48633 7.0862,-7.11132 11.39975,-11.34079 -8.48437,-31.11328 -19.8841,-19.77251 -3.96239,-3.69634 -61.26758,-61.26563 -13.90091,-13.96498 -15.5913,-15.6353 -22.83398,-22.89648 10.01212,-10.01135 16.92022,-16.91318 23.82226,-23.82227 20.10326,-20.12362 40.36306,-40.645308 60.26758,-60.265624 19.90451,-19.620317 15.59569,-24.02708 8.48437,-31.113282 -7.11131,-7.0861998 -11.33883,-11.3997514 -31.11132,8.484375 -19.77251,19.884096 -3.69829,3.962379 -61.26758,61.267579 C 136.94694,96.379818 135.2995,98.049135 128.04492,105.28516 120.42398,97.686193 116.99906,94.323903 105.12109,82.482422 82.148654,59.58055 63.524616,41.053489 43.853516,21.214844 24.471761,1.6680175 20.020162,5.495376 12.742188,12.730469 Z" />
  </g>
</svg>
