<?xml version="1.0" encoding="UTF-8" standalone="no"?>
<!-- Created with Inkscape (http://www.inkscape.org/) -->

<svg
   width="256"
   height="256"
   viewBox="0 0 256 256"
   version="1.1"
   id="svg4824"
   xml:space="preserve"
   sodipodi:docname="Compounds.svg"
   inkscape:version="1.3.1 (9b9bdc1480, 2023-11-25, custom)"
   xmlns:inkscape="http://www.inkscape.org/namespaces/inkscape"
   xmlns:sodipodi="http://sodipodi.sourceforge.net/DTD/sodipodi-0.dtd"
   xmlns="http://www.w3.org/2000/svg"
   xmlns:svg="http://www.w3.org/2000/svg"
   xmlns:rdf="http://www.w3.org/1999/02/22-rdf-syntax-ns#"
   xmlns:cc="http://creativecommons.org/ns#"
   xmlns:dc="http://purl.org/dc/elements/1.1/"><sodipodi:namedview
     id="namedview1"
     pagecolor="#ffffff"
     bordercolor="#111111"
     borderopacity="1"
     inkscape:showpageshadow="0"
     inkscape:pageopacity="0"
     inkscape:pagecheckerboard="1"
     inkscape:deskcolor="#d1d1d1"
     showgrid="false"
     inkscape:clip-to-page="true"
     inkscape:zoom="2.2374014"
     inkscape:cx="125.14518"
     inkscape:cy="126.03907"
     inkscape:window-width="1854"
     inkscape:window-height="1008"
     inkscape:window-x="0"
     inkscape:window-y="0"
     inkscape:window-maximized="1"
     inkscape:current-layer="svg4824" /><defs
     id="defs4818" /><metadata
     id="metadata4821"><rdf:RDF><cc:Work
         rdf:about=""><dc:format>image/svg+xml</dc:format><dc:type
           rdf:resource="http://purl.org/dc/dcmitype/StillImage" /></cc:Work></rdf:RDF></metadata><g
     id="layer1"
     style="display:inline"
     transform="matrix(1.3914002,0,0,1.3367043,-4376.9418,-1131.9318)"><g
       id="g18"
       transform="matrix(1.4814965,0.19222796,-0.1683453,1.3502152,-1397.6478,-969.88349)"
       style="display:inline"><path
         id="path16"
         style="display:inline;fill:none;stroke:#ffffff;stroke-width:2.97931;stroke-dasharray:none"
         d="m 3274.7754,993.42077 c 6.0392,-5.37844 10.9799,-19.08413 3.3717,-27.97966 -5.4782,-5.99013 -17.0489,-6.19699 -22.446,0.37022" /><path
         id="path17"
         style="display:inline;fill:none;stroke:#ffffff;stroke-width:3.40092;stroke-dasharray:none"
         d="m 3228.8546,1009.1417 c -5.7743,-8.6505 -4.0635,-20.93053 3.8217,-27.42804 7.8851,-6.4978 16.8697,0.32091 20.8353,6.49476 3.9658,6.1739 7.9611,18.33348 0.076,24.83138 -7.8852,6.4976 -18.9583,4.7525 -24.7331,-3.8978 z" /><path
         id="path18"
         style="display:inline;fill:none;stroke:#ffffff;stroke-width:3.0426;stroke-dasharray:none"
         d="m 3256.288,1009.569 c 11.0528,-0.4743 19.6039,-9.88569 19.6668,-21.98261 0.063,-12.09691 -8.5195,-21.9944 -20.0069,-22.00639 -9.0372,0.0819 -14.9337,5.54908 -18.4113,13.86546"
         transform="translate(3.3152392e-5)" /></g><g
       id="g8"
       transform="matrix(1.2338873,0,0,1.3093532,-782.48068,-254.6485)"
       style="display:inline"><path
         id="ellipse2"
         style="display:inline;fill:none;stroke:#ffffff;stroke-width:3"
         d="m 3283.7339,864.80632 c -1.0722,-0.34556 -2.1926,-0.54935 -3.3324,-0.60205 -7.0207,-0.32289 -13.0421,5.04384 -13.4494,11.98716 -0.4071,6.94334 4.9539,12.83401 11.9745,13.15743 0.9628,0.034 1.9277,-0.0404 2.876,-0.22143" /><ellipse
         style="display:inline;fill:none;stroke:#ffffff;stroke-width:3;stroke-dasharray:none;stroke-opacity:1"
         id="path2"
         cx="3307.5908"
         cy="895.8363"
         rx="12.725248"
         ry="12.593734" /><path
         id="ellipse3"
         style="display:inline;fill:none;stroke:#ffffff;stroke-width:3.03133"
         d="m 3319.5472,892.38889 c 3.1958,-3.82996 4.9353,-8.56877 4.9376,-13.45087 2e-4,-11.98767 -10.2577,-21.70568 -22.9114,-21.70567 h 10e-5 c -12.6537,4e-5 -22.9115,9.71803 -22.9113,21.70567 0.018,9.86417 7.0555,18.47618 17.1309,20.96488"
         transform="translate(-7.9166666e-5)" /></g><g
       id="g14"
       transform="matrix(1.3179263,-0.3539142,0.35313727,1.3208258,-1465.6316,931.93111)"><path
         id="ellipse14"
         style="display:inline;fill:none;stroke:#ffffff;stroke-width:3"
         d="m 3290.7458,861.39546 c 6.346,2.86903 3.8376,12.55005 2.2491,15.42271 -1.5884,2.87267 -6.3517,10.61718 -12.6976,7.74807 -6.3459,-2.86901 -9.1513,-10.38174 -6.2661,-16.78016 2.8853,-6.39853 10.3686,-9.25974 16.7146,-6.39068 z" /><path
         id="path14"
         style="display:inline;fill:none;stroke:#ffffff;stroke-width:3"
         d="m 3278.2871,883.29931 c -1.6876,2.54157 -1.2094,2.00493 -2.5603,4.33948 -1.7939,5.73449 0.5802,11.33986 4.1161,14.14456 3.5359,2.80471 11.2888,3.95631 15.7097,1.49689 1.5276,-0.84984 1.6488,-0.7761 3.6785,-2.62721" /><path
         id="ellipse15"
         style="display:inline;fill:none;stroke:#ffffff;stroke-width:3"
         d="m 3319.666,883.90158 c 4.9226,4.92256 4.8881,12.93815 -0.077,17.90324 -4.9651,4.96502 -12.9806,4.99945 -17.9031,0.0769 -4.9225,-4.92255 -1.8441,-12.39121 1.8894,-15.83479 3.7335,-3.44359 11.1681,-7.06789 16.0907,-2.1454 z" /><path
         id="path12"
         style="display:inline;fill:none;stroke:#ffffff;stroke-width:3.03133"
         d="m 3321.3447,887.34606 c 2.0956,-4.52659 2.5494,-9.55416 1.288,-14.27048 -3.1025,-11.57926 -15.7728,-18.04115 -27.8228,-15.41022 0,0 -3.1731,0.51926 -5.6474,2.70936 m -9.6372,24.58912 c 2.1443,8.09614 11.3079,15.97837 20.8194,15.78821"
         transform="translate(-1.2066834e-4,-3.444961e-5)" /></g></g><style
     id="style4511"
     type="text/css">
	.st0{display:none;opacity:0.52;}
	.st1{fill:#DDFFDD;}
	.st2{display:none;fill:#DDFFDD;}
	.st3{fill:#76A37A;}
</style></svg>
