<?xml version="1.0" encoding="UTF-8" standalone="no"?>
<!-- Created with Inkscape (http://www.inkscape.org/) -->

<svg
   version="1.1"
   id="svg1"
   width="512"
   height="512"
   viewBox="0 0 512 512"
   xml:space="preserve"
   xmlns:xlink="http://www.w3.org/1999/xlink"
   xmlns="http://www.w3.org/2000/svg"
   xmlns:svg="http://www.w3.org/2000/svg"><defs
     id="defs1"><linearGradient
       id="linearGradient4"><stop
         style="stop-color:#112b36;stop-opacity:1;"
         offset="0.85042822"
         id="stop8" /><stop
         style="stop-color:#001315;stop-opacity:0.67058824;"
         offset="0.87"
         id="stop7" /><stop
         style="stop-color:#001315;stop-opacity:0.670588;"
         offset="0.99000001"
         id="stop5" /><stop
         style="stop-color:#001315;stop-opacity:0;"
         offset="1"
         id="stop6" /></linearGradient><radialGradient
       xlink:href="#linearGradient4"
       id="radialGradient6"
       cx="256"
       cy="256"
       fx="256"
       fy="256"
       r="254"
       gradientUnits="userSpaceOnUse" /></defs><g
     id="g1"><circle
       style="display:inline;fill:url(#radialGradient6);stroke-width:6.95631;stroke-linecap:round"
       id="path4"
       cx="256"
       cy="256"
       r="254" /><path
       style="display:inline;fill:#fafafa;fill-opacity:1;stroke:none"
       d="m 270.52578,162.83943 c 1.55658,-1.23878 4.2411,-0.25357 4.06161,2.44168 -3.7995,6.82515 -4.68696,12.21442 -4.68028,18.75022 10.04346,6.28411 34.69227,20.63198 40.38034,23.54414 7.92509,-4.76369 8.72283,-6.63849 13.21131,-12.59609 2.24979,-1.31071 4.31142,-0.21387 4.21767,3.0285 -8.95426,17.36636 -31.67162,21.84867 -46.91631,22.82125 6.71606,13.72964 13.76375,35.08662 3.26018,53.13063 -10.50357,18.04401 -27.98254,22.02329 -46.42605,23.26727 5.22399,13.88996 12.9089,31.59661 2.75021,52.77098 -1.93492,0.78779 -4.7405,0.0293 -4.47529,-2.5252 2.77724,-5.94758 3.98823,-10.77483 4.39445,-17.01927 -7.70172,-5.67018 -32.92085,-18.59547 -39.94241,-25.39195 -10.22858,6.5566 -10.16339,9.76413 -13.92143,13.85929 -1.82175,0.21093 -4.33813,0.10262 -3.88218,-3.22231 13.1743,-19.2225 30.55345,-21.85135 47.34547,-22.51771 -3.34762,-6.0804 -15.43044,-29.45863 -3.25398,-52.62736 12.17647,-23.16874 31.00597,-22.29036 46.47316,-24.17795 -7.58979,-16.01317 -13.09208,-37.6099 -2.59647,-53.53612 z m -24.90824,86.04801 c 1.25788,1.4589 -0.0708,4.47708 -2.48905,4.0615 -5.32876,-2.87505 -13.81224,-7.83593 -13.81224,-7.83593 -2.84196,4.73265 -3.40914,9.99272 -3.27352,15.07883 11.48466,6.69169 28.6728,17.77091 40.17476,24.43254 5.87295,-2.87362 8.38801,-5.14605 12.72222,-10.93401 -7.69318,-4.58624 -9.88403,-5.82151 -13.28725,-7.96419 -0.73917,-2.19155 0.45244,-4.132 2.58972,-3.95347 5.08118,2.60108 9.39202,5.20941 13.04146,7.37262 2.72931,-6.0546 3.18804,-8.53502 3.20028,-16.51018 -11.12402,-6.32712 -30.31594,-16.99106 -41.38877,-23.40824 -4.53595,2.80986 -8.50614,6.70609 -11.08,11.43937 m -5.72493,26.78784 c 1.1402,8.55018 4.07113,15.68256 8.49674,24.57977 10.65597,0.42146 19.41609,-1.78455 26.23583,-4.51796 m -56.04482,15.11849 c 11.5772,7.47817 23.52333,14.81727 35.47328,21.67644 -1.26418,-9.90141 -4.60557,-18.80278 -8.07875,-26.50331 -8.69601,0.35412 -19.36526,1.22761 -27.39453,4.82687 z m 42.93605,-76.15652 c 11.75092,7.57979 24.39842,13.98933 36.5171,20.94557 -0.59108,-9.28496 -5.82669,-19.81644 -9.35431,-26.21494 -8.55251,0.6884 -17.15964,1.13084 -27.16279,5.26937 z m 21.92124,-36.31765 c 1.00237,8.73715 3.47123,15.65529 8.80054,25.53829 10.6632,-0.36439 18.94233,-1.2838 26.91201,-5.1917"
       id="path8" /></g></svg>
