<?xml version="1.0" encoding="UTF-8" standalone="no"?>
<!-- Created with Inkscape (http://www.inkscape.org/) -->

<svg
   version="1.1"
   id="svg1"
   width="200"
   height="200"
   viewBox="0 0 200 200"
   sodipodi:docname="Environment2-Inkscape.svg"
   inkscape:version="1.3.1 (9b9bdc1480, 2023-11-25, custom)"
   xml:space="preserve"
   xmlns:inkscape="http://www.inkscape.org/namespaces/inkscape"
   xmlns:sodipodi="http://sodipodi.sourceforge.net/DTD/sodipodi-0.dtd"
   xmlns="http://www.w3.org/2000/svg"
   xmlns:svg="http://www.w3.org/2000/svg"><defs
     id="defs1" /><sodipodi:namedview
     id="namedview1"
     pagecolor="#ffffff"
     bordercolor="#111111"
     borderopacity="1"
     inkscape:showpageshadow="0"
     inkscape:pageopacity="0"
     inkscape:pagecheckerboard="1"
     inkscape:deskcolor="#d1d1d1"
     showgrid="false"
     inkscape:zoom="2.7917108"
     inkscape:cx="61.252763"
     inkscape:cy="114.62505"
     inkscape:window-width="1854"
     inkscape:window-height="1008"
     inkscape:window-x="0"
     inkscape:window-y="0"
     inkscape:window-maximized="1"
     inkscape:current-layer="g1" /><g
     inkscape:groupmode="layer"
     inkscape:label="Image"
     id="g1"
     transform="matrix(0.99999986,0,0,0.97561013,1.5187478e-5,2.4390234)"><path
       style="display:inline;fill:#f3f3f3;fill-opacity:0.19751436;stroke:#ffffff;stroke-width:5.06211;stroke-linecap:butt;stroke-linejoin:miter;stroke-dasharray:none;stroke-opacity:1"
       d="m 45.949103,119.85669 c -18.7672,-5.93401 -16.278739,-28.861733 3.450762,-31.794166 1.755091,-0.260862 1.232336,-0.181323 3.667796,-0.582585 -0.118054,-2.806114 -0.383426,-3.246151 -0.492533,-6.825442 -0.771153,-25.297779 36.157168,-39.97468 58.986962,-23.443951 3.13844,2.272487 6.20404,6.889278 6.8657,9.389178 -10.6377,7.895475 -2.36082,1.200631 -6.5417,5.378864 -3.49968,3.497469 -5.71248,4.961852 -5.34442,5.753105 1.21929,-0.661836 1.0505,-0.577918 3.89797,-4.298096 8.51343,-10.512819 22.26166,-13.848926 35.37545,-8.584114 8.85288,3.554174 13.02192,9.66512 12.36684,18.127187 l -0.33503,4.327904 4.72261,1.323068 c 17.10053,4.790837 15.20719,24.508918 5.70498,29.983658 0,0 -3.1724,2.12915 -7.18038,2.11576 -4.00798,-0.0134 -56.05295,-0.0853 -56.05295,-0.0853 -34.939212,-0.0531 -57.655875,-0.33102 -59.092057,-0.78513 z"
       id="path7"
       inkscape:label="cloud2"
       sodipodi:nodetypes="sscsscsccsscsszsss" /><path
       style="display:inline;fill:#ffffff;fill-opacity:1;stroke-width:1.12665;stroke-opacity:0.487466"
       d="m 35.008268,151.1286 c 16.356074,17.10941 19.449927,22.09132 29.176278,22.22144 9.72635,0.13012 13.902554,-1.83956 30.515243,-21.6987 13.855331,17.29885 19.522651,21.43677 29.637751,21.62178 10.1151,0.185 20.37852,-1.00827 33.38567,-21.50208 17.21132,24.81602 21.60138,22.06599 30.53568,21.8082 0.43218,1.22543 0.47094,4.38406 -0.11482,5.61704 -8.26814,0.0628 -15.70768,2.58188 -30.20336,-18.4221 -7.13365,12.49399 -17.22918,18.186 -33.69822,18.22731 -11.1274,0.0279 -18.72948,-5.30534 -29.794879,-18.96036 -9.744841,12.19198 -16.909747,19.0857 -30.104082,19.06016 -9.452411,-0.0183 -16.575536,-5.36374 -28.668945,-19.26718 -10.196772,14.11028 -18.13757,19.43138 -26.640523,19.37256 -0.3462314,-1.31422 -0.5493743,-3.51899 0.2093379,-5.19364 C 23.084417,172.6373 27.975836,158.08451 35.008268,151.1286 Z"
       id="path1"
       sodipodi:nodetypes="czczccccscscccc"
       inkscape:label="waves" /><path
       id="path9"
       style="display:inline;fill:#ffffff;fill-opacity:1;stroke:none;stroke-width:0.338055;stroke-opacity:0.487466"
       inkscape:label="sun2"
       d="m 61.8789,6.1083971 c -1.454314,0.0034 -2.641289,1.490763 -2.677735,3.3532702 h -0.0059 v 0.084082 13.7534127 0.230225 h 0.01367 c 0.09331,1.803063 1.259388,3.204236 2.669923,3.209129 1.410548,-0.0045 2.578584,-1.406066 2.671875,-3.209129 h 0.01172 V 23.299162 9.5457493 9.4616673 h -0.002 C 64.524111,7.5975971 63.33444,6.1093251 61.8789,6.1083971 Z m 22.453128,6.1780249 c -1.068106,-0.05007 -2.22608,0.628117 -2.927735,1.823779 l -0.0059,-0.002 -0.04102,0.07407 -6.675782,11.911616 -0.111328,0.198194 0.01172,0.006 c -0.79433,1.609543 -0.463321,3.425278 0.755859,4.156053 1.223969,0.722255 2.915166,0.108044 3.871094,-1.405371 l 0.0098,0.008 0.111328,-0.198193 6.675782,-11.911617 0.04102,-0.07407 h -0.002 c 0.873178,-1.633103 0.564765,-3.533651 -0.695313,-4.284178 -0.315251,-0.186599 -0.661541,-0.285599 -1.017578,-0.302295 z m -44.937506,0.002 c -0.345613,0.02039 -0.68034,0.117718 -0.986329,0.298291 -1.219154,0.730841 -1.548234,2.546509 -0.753906,4.156053 l -0.01172,0.006 0.111328,0.198193 6.675783,11.911617 0.04102,0.07407 h 0.002 c 0.936245,1.595578 2.688234,2.270391 3.94922,1.521484 1.257871,-0.751945 1.563834,-2.652423 0.691406,-4.284178 h 0.0059 l -0.04297,-0.07407 -6.675783,-11.913618 -0.109375,-0.196191 -0.01172,0.006 c -0.71704,-1.135105 -1.847922,-1.764826 -2.884766,-1.703661 z m 60.798838,16.774359 c -0.594614,0.0068 -1.224363,0.173468 -1.818361,0.510498 l -0.0039,-0.004 -0.07031,0.04204 -11.562502,6.876706 -0.191406,0.116113 0.0059,0.01001 c -1.469113,0.984778 -2.066386,2.72703 -1.365234,3.987889 0.709431,1.255944 2.472739,1.597056 4.035157,0.77876 l 0.0059,0.01201 0.193359,-0.116113 11.562497,-6.876706 0.0703,-0.04204 h 0.002 c 1.54783,-0.964762 2.20138,-2.771327 1.47461,-4.069969 -0.45613,-0.809938 -1.34491,-1.23606 -2.33594,-1.223193 z m -76.708997,0.002 c -0.960197,0.01019 -1.814448,0.436207 -2.257813,1.221191 -0.701109,1.26088 -0.105827,3.005124 1.363282,3.989891 l -0.0059,0.01001 0.189454,0.114111 11.564454,6.876706 0.07227,0.04404 v -0.002 c 1.585236,0.899566 3.431595,0.581392 4.160157,-0.716699 0.724379,-1.29913 0.06702,-3.102209 -1.480469,-4.065965 l 0.0039,-0.004 -0.07227,-0.04204 -11.564454,-6.876706 -0.189454,-0.114112 -0.0078,0.01001 C 24.673857,29.202375 24.060482,29.058714 23.484363,29.064785 Z M 61.8789,31.487147 c -12.31972,4.52e-4 -22.306605,10.288988 -22.306644,22.980411 0.03452,7.200846 3.343493,13.968678 8.939454,18.283831 C 49.913255,57.3005 65.568923,46.456562 82.361324,45.424739 78.85204,36.97878 70.796969,31.497579 61.8789,31.487147 Z M 18.054675,51.70086 v 0.01401 c -1.750255,0.09617 -3.112437,1.297597 -3.117188,2.750682 0.0048,1.453111 1.366933,2.654563 3.117188,2.750683 v 0.01401 h 0.220703 13.351564 0.08203 v -0.002 c 1.809466,-0.03738 3.254944,-1.263246 3.255859,-2.762695 -0.0032,-1.498189 -1.447902,-2.721153 -3.255859,-2.75869 v -0.004 h -0.08203 -13.351564 z m 18.175784,15.405023 c -0.594606,0.0068 -1.224374,0.17348 -1.81836,0.510498 l -0.002,-0.004 -0.07227,0.04404 -11.562501,6.876707 -0.191407,0.112109 0.0059,0.01201 c -1.469111,0.984798 -2.064432,2.727011 -1.363282,3.987889 0.70944,1.255928 2.470797,1.597049 4.033204,0.778759 l 0.0078,0.01001 0.189454,-0.114111 11.564454,-6.876707 0.07227,-0.04204 -0.002,-0.002 c 1.548822,-0.96455 2.203542,-2.770939 1.476563,-4.06997 h 0.002 c -0.456068,-0.80991 -1.346881,-1.236047 -2.337891,-1.223193 z"
       sodipodi:nodetypes="cccccccccccccccscccccccccccccccsccccccccccccccscccccccccccccccccccccccccccccccccccccccccccccccccccccccccccccccccccccccccc" /></g></svg>
