<?xml version="1.0" encoding="UTF-8" standalone="no"?>
<!-- Created with Inkscape (http://www.inkscape.org/) -->

<svg
   version="1.1"
   id="svg1"
   width="512"
   height="512"
   viewBox="0 0 512 512"
   xml:space="preserve"
   xmlns="http://www.w3.org/2000/svg"
   xmlns:svg="http://www.w3.org/2000/svg"><defs
     id="defs1" /><g
     id="g1"
     transform="matrix(0.99999986,0,0,0.97561013,1.5187478e-5,2.4390234)"><path
       style="display:inline;fill:#f3f3f3;fill-opacity:0.197514;stroke:#ffffff;stroke-width:12.959;stroke-linecap:butt;stroke-linejoin:miter;stroke-dasharray:none;stroke-opacity:1"
       d="m 117.62973,310.73311 c -48.044033,-15.19106 -41.673573,-73.88603 8.83395,-81.39305 4.49303,-0.6678 3.15478,-0.46418 9.38956,-1.49142 -0.30222,-7.18366 -0.98157,-8.31014 -1.26089,-17.47314 -1.97415,-64.76231 92.56235,-102.33517 151.00663,-60.01651 8.0344,5.81757 15.88234,17.63655 17.57618,24.0363 -27.2325,20.21241 -6.0437,3.07361 -16.74674,13.76989 -8.95918,8.95352 -14.62396,12.70234 -13.68172,14.72796 3.12138,-1.69431 2.68928,-1.47948 9.9788,-11.00314 21.79438,-26.91282 56.98986,-35.45325 90.56116,-21.97533 22.66336,9.09868 33.3361,24.74271 31.6591,46.40561 l -0.85768,11.07942 12.08988,3.38706 c 43.77736,12.26454 38.93042,62.74281 14.60476,76.75815 0,0 -8.12134,5.45062 -18.38178,5.41634 -10.26042,-0.0342 -143.49554,-0.21836 -143.49554,-0.21836 -89.44439,-0.136 -147.59905,-0.84742 -151.27567,-2.00994 z"
       id="path7" /><path
       style="display:inline;fill:#ffffff;fill-opacity:1;stroke-width:2.88422;stroke-opacity:0.487466"
       d="m 89.621191,390.78921 c 41.871549,43.80008 49.791809,56.55376 74.691269,56.88688 24.89946,0.3331 35.59054,-4.70928 78.11902,-55.54868 35.46966,44.28506 49.978,54.87814 75.87264,55.35176 25.89466,0.4736 52.16902,-2.58118 85.46732,-55.04532 44.06098,63.529 55.29954,56.48894 78.17135,55.82898 1.10638,3.1371 1.2056,11.2232 -0.29394,14.37964 -21.16645,0.1608 -40.21167,6.6096 -77.32061,-47.16058 -18.26214,31.9846 -44.1067,46.55616 -86.26744,46.6619 -28.48614,0.0714 -47.94746,-13.58166 -76.2749,-48.53852 -24.94678,31.21148 -43.28894,48.8594 -77.06644,48.79402 -24.19817,-0.0468 -42.43337,-13.73118 -73.392501,-49.32398 -26.103736,36.12232 -46.432179,49.74432 -68.199739,49.59374 -0.886352,-3.3644 -1.406398,-9.0086 0.535906,-13.2957 35.433006,-3.52188 47.955039,-40.77702 65.958065,-58.58414 z"
       id="path1" /><path
       id="path9"
       style="display:inline;fill:#ffffff;fill-opacity:1;stroke:none;stroke-width:0.865422;stroke-opacity:0.487466"
       d="m 158.41001,19.537493 c -3.72305,0.0087 -6.7617,3.816353 -6.855,8.584371 h -0.0152 v 0.21525 35.208735 0.589376 h 0.035 c 0.23887,4.615842 3.22403,8.202844 6.835,8.215372 3.611,-0.0116 6.60117,-3.59953 6.84,-8.215372 h 0.03 v -0.589376 -35.208735 -0.21525 h -0.005 c -0.0929,-4.772018 -3.13842,-8.581995 -6.8646,-8.584371 z m 57.48001,15.815743 c -2.73436,-0.12818 -5.69876,1.60798 -7.495,4.668876 l -0.016,-0.0052 -0.105,0.18962 -17.09,30.493735 -0.285,0.507378 0.03,0.0154 c -2.03348,4.12043 -1.1861,8.768712 1.935,10.639496 3.13336,1.848972 7.46282,0.276592 9.91,-3.59775 l 0.0252,0.02048 0.28498,-0.507374 17.09002,-30.493739 0.105,-0.18962 h -0.006 c 2.23534,-4.180742 1.4458,-9.046146 -1.78,-10.967494 -0.80704,-0.477694 -1.69354,-0.731134 -2.605,-0.773876 z M 100.85,35.358436 c -0.884769,0.0522 -1.741669,0.301358 -2.525001,0.763626 -3.121034,1.870952 -3.96348,6.519062 -1.93,10.639496 l -0.03,0.0154 0.285,0.507374 17.090001,30.493737 0.10502,0.18962 h 0.005 c 2.39679,4.08468 6.88188,5.8122 10.11001,3.894998 3.22015,-1.924978 4.00341,-6.790202 1.77,-10.967494 h 0.0152 l -0.11,-0.18962 -17.09001,-30.498861 -0.28,-0.502248 -0.03,0.0154 c -1.83562,-2.90603 -4.73068,-4.518116 -7.385,-4.361532 z m 155.64502,42.942359 c -1.5222,0.0174 -3.13436,0.444078 -4.655,1.306874 l -0.01,-0.0102 -0.18,0.10762 -29.6,17.604368 -0.49,0.29725 0.016,0.02562 c -3.76092,2.521033 -5.28994,6.981193 -3.495,10.208993 1.81614,3.21522 6.33022,4.08847 10.33,1.99363 l 0.016,0.0307 0.495,-0.29725 29.59998,-17.604367 0.18,-0.10762 h 0.006 c 3.96244,-2.46979 5.63552,-7.094596 3.775,-10.41912 -1.1677,-2.073442 -3.44298,-3.164314 -5.98002,-3.131374 z m -196.375026,0.0052 c -2.458106,0.02608 -4.644988,1.11669 -5.780002,3.126248 -1.79484,3.227854 -0.270918,7.693118 3.490002,10.214122 l -0.0152,0.02562 0.485002,0.292124 29.605003,17.604371 0.18502,0.11274 v -0.005 c 4.058206,2.30289 8.784884,1.48836 10.650002,-1.83475 1.854409,-3.32578 0.17158,-7.941657 -3.79,-10.408873 l 0.01,-0.0102 -0.18502,-0.10762 -29.605,-17.604366 -0.485004,-0.292128 -0.02,0.02562 c -1.499808,-0.785518 -3.070049,-1.15329 -4.544913,-1.137748 z m 98.290016,6.201256 c -31.53848,0.0012 -57.10491,26.339809 -57.10501,58.829849 0.0884,18.43417 8.55934,35.75982 22.885,46.80661 3.58796,-39.55444 43.66647,-67.31492 86.65502,-69.95638 C 201.86124,98.565671 181.24026,84.533797 158.41001,84.507091 Z M 46.219992,136.25419 v 0.0359 c -4.480652,0.2462 -7.967838,3.32185 -7.980002,7.04175 0.0122,3.71996 3.49935,6.79568 7.980002,7.04175 v 0.0359 h 0.565 34.180005 0.209996 v -0.005 c 4.632232,-0.0957 8.332656,-3.23391 8.334998,-7.0725 -0.0082,-3.83536 -3.706628,-6.96615 -8.334998,-7.06225 v -0.0102 H 80.964997 46.784992 Z m 46.530007,39.43686 c -1.52219,0.0174 -3.134398,0.44411 -4.655002,1.30688 l -0.0052,-0.0102 -0.18502,0.11274 -29.600003,17.60437 -0.490002,0.287 0.0152,0.0307 c -3.760924,2.52108 -5.284946,6.98115 -3.490002,10.209 1.816166,3.21518 6.32524,4.08846 10.325003,1.99362 l 0.02,0.0256 0.485002,-0.29214 29.605002,-17.60437 0.18502,-0.10762 -0.0052,-0.005 c 3.964984,-2.46925 5.641063,-7.09361 3.78,-10.41913 h 0.0052 c -1.167534,-2.07337 -3.448016,-3.16428 -5.985,-3.13137 z" /></g></svg>
