<?xml version="1.0" encoding="UTF-8" standalone="no"?>
<!-- Created with Inkscape (http://www.inkscape.org/) -->

<svg
   version="1.1"
   id="svg1"
   width="256"
   height="256"
   viewBox="0 0 256 256"
   sodipodi:docname="Environment.svg"
   inkscape:version="1.3.1 (9b9bdc1480, 2023-11-25, custom)"
   xml:space="preserve"
   xmlns:inkscape="http://www.inkscape.org/namespaces/inkscape"
   xmlns:sodipodi="http://sodipodi.sourceforge.net/DTD/sodipodi-0.dtd"
   xmlns="http://www.w3.org/2000/svg"
   xmlns:svg="http://www.w3.org/2000/svg"><defs
     id="defs1" /><sodipodi:namedview
     id="namedview1"
     pagecolor="#ffffff"
     bordercolor="#111111"
     borderopacity="1"
     inkscape:showpageshadow="0"
     inkscape:pageopacity="0"
     inkscape:pagecheckerboard="1"
     inkscape:deskcolor="#d1d1d1"
     showgrid="false"
     inkscape:zoom="2.7917108"
     inkscape:cx="124.65475"
     inkscape:cy="125.72936"
     inkscape:window-width="1854"
     inkscape:window-height="1008"
     inkscape:window-x="0"
     inkscape:window-y="0"
     inkscape:window-maximized="1"
     inkscape:current-layer="g1"
     inkscape:clip-to-page="true" /><g
     inkscape:groupmode="layer"
     inkscape:label="Image"
     id="g1"
     transform="matrix(0.99999986,0,0,0.97561013,1.5187478e-5,2.4390234)"><path
       style="display:inline;fill:#f3f3f3;fill-opacity:0.197514;stroke:#ffffff;stroke-width:6.4795;stroke-linecap:butt;stroke-linejoin:miter;stroke-dasharray:none;stroke-opacity:1"
       d="m 58.814855,154.11656 c -24.022015,-7.59553 -20.836785,-36.94302 4.416976,-40.69653 2.246516,-0.3339 1.57739,-0.23209 4.694778,-0.74571 -0.151109,-3.59183 -0.490785,-4.15507 -0.630442,-8.73657 -0.987076,-32.381152 46.281173,-51.167585 75.503313,-30.008253 4.0172,2.908784 7.94117,8.818276 8.78809,12.018148 -13.61625,10.106208 -3.02185,1.536808 -8.37337,6.884946 -4.47959,4.47676 -7.31198,6.351171 -6.84086,7.363979 1.56069,-0.847155 1.34464,-0.73974 4.9894,-5.501567 10.89719,-13.456409 28.49493,-17.726626 45.28058,-10.987666 11.33168,4.549342 16.66805,12.371353 15.82955,23.202803 l -0.42884,5.53971 6.04494,1.69353 c 21.88868,6.13227 19.46521,31.37141 7.30238,38.37908 0,0 -4.06067,2.72531 -9.19089,2.70817 -5.13021,-0.0171 -71.74777,-0.10918 -71.74777,-0.10918 -44.722193,-0.068 -73.799522,-0.42371 -75.637835,-1.00497 z"
       id="path7"
       inkscape:label="cloud2"
       sodipodi:nodetypes="sscsscsccsscsszsss" /><path
       style="display:inline;fill:#ffffff;fill-opacity:1;stroke-width:1.44211;stroke-opacity:0.487466"
       d="m 44.810587,194.14461 c 20.935774,21.90004 24.895906,28.27688 37.345635,28.44344 12.449728,0.16655 17.795269,-2.35464 39.059508,-27.77434 17.73483,22.14253 24.989,27.43907 37.93632,27.67588 12.94733,0.2368 26.08451,-1.29059 42.73366,-27.52266 22.03049,31.7645 27.64977,28.24447 39.08567,27.91449 0.55319,1.56855 0.6028,5.6116 -0.14697,7.18982 -10.58322,0.0804 -20.10583,3.3048 -38.6603,-23.58029 -9.13107,15.9923 -22.05335,23.27808 -43.13372,23.33095 -14.24307,0.0357 -23.97373,-6.79083 -38.13745,-24.26926 -12.47339,15.60574 -21.644471,24.4297 -38.53322,24.39701 -12.099086,-0.0234 -21.216685,-6.86559 -36.696249,-24.66199 -13.051868,18.06116 -23.216089,24.87216 -34.099869,24.79687 -0.443176,-1.6822 -0.703199,-4.5043 0.267953,-6.64785 17.716503,-1.76094 23.977519,-20.38851 32.979032,-29.29207 z"
       id="path1"
       sodipodi:nodetypes="czczccccscscccc"
       inkscape:label="waves" /><path
       id="path9"
       style="display:inline;fill:#ffffff;fill-opacity:1;stroke:none;stroke-width:0.432711;stroke-opacity:0.487466"
       inkscape:label="sun2"
       d="m 79.204995,8.5187476 c -1.861522,0.00435 -3.38085,1.9081764 -3.427501,4.2921854 h -0.0076 v 0.107625 17.604368 0.294688 h 0.0175 c 0.119437,2.307921 1.612017,4.101422 3.417501,4.107686 1.805502,-0.0058 3.300588,-1.799765 3.42,-4.107686 h 0.015 V 30.522926 12.918558 12.810933 h -0.0026 c -0.04643,-2.386009 -1.569209,-4.2909975 -3.4323,-4.2921854 z M 107.945,16.426619 c -1.36718,-0.06409 -2.84938,0.80399 -3.7475,2.334438 l -0.008,-0.0026 -0.0525,0.09481 -8.545,15.246868 -0.1425,0.253689 0.015,0.0077 c -1.016742,2.060215 -0.593051,4.384356 0.9675,5.319748 1.56668,0.924486 3.73141,0.138296 4.955,-1.798875 l 0.0126,0.01024 0.14249,-0.253687 8.54501,-15.24687 0.0525,-0.09481 h -0.003 c 1.11767,-2.090371 0.7229,-4.523073 -0.89,-5.483747 -0.40352,-0.238847 -0.84677,-0.365567 -1.3025,-0.386938 z m -57.520008,0.0026 c -0.442385,0.0261 -0.870835,0.150679 -1.262501,0.381813 -1.560517,0.935476 -1.98174,3.259531 -0.965,5.319748 l -0.015,0.0077 0.1425,0.253687 8.545002,15.246869 0.05251,0.09481 h 0.0026 c 1.198394,2.04234 3.440939,2.9061 5.055002,1.947499 1.610074,-0.962489 2.001707,-3.395101 0.884999,-5.483747 h 0.0076 l -0.055,-0.09481 -8.545003,-15.249431 -0.14,-0.251124 -0.015,0.0077 C 53.19989,17.156918 51.752361,16.350875 50.4252,16.429167 Z m 77.822508,21.47118 c -0.7611,0.0087 -1.56718,0.222039 -2.3275,0.653437 l -0.005,-0.0051 -0.09,0.05381 -14.8,8.802184 -0.245,0.148625 0.008,0.01281 c -1.88046,1.260516 -2.64497,3.490599 -1.7475,5.104498 0.90807,1.607609 3.16511,2.044232 5.165,0.996813 l 0.008,0.01537 0.2475,-0.148625 14.79999,-8.802183 0.09,-0.05381 h 0.003 c 1.98122,-1.234895 2.81776,-3.547298 1.8875,-5.20956 -0.58385,-1.036721 -1.72149,-1.582157 -2.99001,-1.565687 z m -98.187511,0.0026 c -1.229053,0.01304 -2.322494,0.558345 -2.890001,1.563124 -0.89742,1.613927 -0.135459,3.846559 1.745001,5.107061 l -0.0076,0.01281 0.242501,0.146062 14.802501,8.802184 0.09251,0.05637 v -0.0026 c 2.029103,1.151445 4.392442,0.744182 5.325001,-0.917374 0.927205,-1.662887 0.08579,-3.970828 -1.895,-5.204436 l 0.005,-0.0051 -0.09251,-0.05381 -14.8025,-8.802183 -0.242502,-0.146064 -0.01,0.01281 c -0.749904,-0.392759 -1.535024,-0.576645 -2.272456,-0.568874 z m 49.145006,3.100628 c -15.769241,5.79e-4 -28.552454,13.169905 -28.552504,29.414926 0.04419,9.217083 4.279671,17.879908 11.442501,23.403303 C 63.88897,74.044639 83.928225,60.164398 105.4225,58.843665 100.93061,48.032837 90.620123,41.0169 79.204995,41.003547 Z M 23.109988,66.877099 v 0.01793 c -2.240326,0.123098 -3.983919,1.660924 -3.990001,3.520873 0.0061,1.859982 1.749675,3.397841 3.990001,3.520874 v 0.01793 h 0.2825 17.090002 0.104998 v -0.0026 c 2.316116,-0.04785 4.166328,-1.616955 4.167499,-3.536249 -0.0041,-1.917682 -1.853314,-3.483076 -4.167499,-3.531124 v -0.0051 H 40.48249 23.392488 Z m 23.265003,19.71843 c -0.761095,0.0087 -1.567199,0.222054 -2.327501,0.653437 l -0.0026,-0.0051 -0.09251,0.05637 -14.800001,8.802185 -0.245001,0.1435 0.0076,0.01537 c -1.880462,1.260541 -2.642473,3.490574 -1.745001,5.104499 0.908083,1.60759 3.16262,2.04423 5.162501,0.99681 l 0.01,0.0128 0.242501,-0.14607 14.802501,-8.802184 0.09251,-0.05381 -0.0026,-0.0026 c 1.982492,-1.234624 2.820533,-3.546802 1.89,-5.209562 h 0.0026 c -0.583767,-1.036685 -1.724008,-1.58214 -2.9925,-1.565687 z"
       sodipodi:nodetypes="cccccccccccccccscccccccccccccccsccccccccccccccscccccccccccccccccccccccccccccccccccccccccccccccccccccccccccccccccccccccccc" /></g></svg>
