<?xml version="1.0" encoding="UTF-8" standalone="no"?>
<svg
   width="512px"
   height="512px"
   viewBox="0 0 512 512"
   version="1.1"
   id="svg1"
   xml:space="preserve"
   xmlns="http://www.w3.org/2000/svg"
   xmlns:svg="http://www.w3.org/2000/svg"><defs
     id="defs1" /><circle
     style="display:inline;fill:#8c8f1d;fill-opacity:1;stroke-width:7.17203;stroke-linecap:round"
     id="path4"
     cy="256"
     cx="256"
     r="250" /><path
     id="path2"
     style="display:inline;fill:#2d2112;fill-opacity:1"
     d="m 223.20588,324.13213 c -20.636,0.72716 -37.50656,22.08717 -56.64729,28.58271 -34.88566,14.55991 -69.999844,31.64568 -97.574215,58.03711 -2.193648,1.88527 -3.681963,3.58633 -4.753906,5.17774 C 111.64257,472.89454 181.88597,505.88646 256,506 c 60.12698,-0.001 118.23942,-21.67221 163.68555,-61.04102 -1.46194,-2.94285 -4.74611,-6.50695 -10.83594,-11.00781 -31.85577,-26.09433 -78.23191,-24.70031 -107.40625,-55.0039 -19.08483,-14.37175 -34.25113,-40.50733 -55.32342,-52.07491 -5.72841,-3.24044 -12.44287,-2.55846 -18.73633,-2.6875 -1.40989,-0.0856 -2.802,-0.10121 -4.17773,-0.0527 z" /><path
     id="path3"
     style="display:inline;fill:#4d4a0c;fill-opacity:1"
     d="M 298.26953 9.6738281 C 288.56492 22.177241 286.48251 38.758264 276.85156 51.320312 C 266.26315 62.858783 249.57064 65.740544 238.67383 77.232422 C 216.95535 96.240005 211.49804 127.55601 216.52734 154.87109 C 218.95887 179.01578 195.597 196.43814 196.92578 220.62109 C 195.74299 238.69094 204.40779 254.66657 214.12891 269.05273 C 222.05601 283.21002 211.31455 300.44296 219.26367 314.13672 C 232.87214 330.76525 253.89305 315.93367 265.80859 305.17188 C 289.54297 289.31692 322.8322 301.37687 344.76758 281.29688 C 360.42973 270.48689 362.13541 249.57026 376.35938 238.0332 C 390.09591 229.91149 408.44425 231.43253 420.43164 219.30078 C 434.97172 209.06425 439.4113 191.65293 449.19727 177.92773 C 457.30501 165.19794 473.19367 161.1848 481.35742 148.66602 C 481.45016 148.53978 481.49679 148.40852 481.58008 148.28125 A 250 250 0 0 0 298.26953 9.6738281 z M 458.43945 377.38281 C 454.62845 376.99247 458.82032 379.14555 458.43945 377.38281 z " /></svg>
