<?xml version="1.0" encoding="UTF-8"?>
<svg xmlns="http://www.w3.org/2000/svg" xmlns:xlink="http://www.w3.org/1999/xlink" width="512px" height="512px" viewBox="0 0 512 511" version="1.1">
<g id="surface1">
<path style=" stroke:none;fill-rule:evenodd;fill:rgb(97.647059%,97.647059%,97.647059%);fill-opacity:1;" d="M 232.640625 15.5 C 212.339844 17.292969 182.066406 25.261719 162.230469 34.046875 C 120.558594 52.492188 86.597656 80.128906 59.972656 117.253906 C 4.933594 193.996094 1.335938 300.863281 51.074219 381.457031 C 85.9375 437.957031 141.675781 477.886719 205.210938 491.886719 C 234.777344 498.402344 269.425781 499.195312 299.738281 494.050781 C 366.433594 482.730469 425.832031 443.21875 462.269531 385.921875 C 486.9375 347.140625 499.695312 304.589844 500.609375 258.058594 C 501.273438 224.382812 491.554688 180.773438 476.699219 150.765625 C 474.671875 146.667969 473.011719 143.132812 473.011719 142.910156 C 473.011719 142.691406 470.875 138.910156 468.269531 134.511719 C 431.804688 72.953125 369.601562 29.03125 303.199219 17.960938 C 281.972656 14.421875 255.40625 13.496094 232.640625 15.5 M 230.527344 28.730469 C 190.207031 33.40625 146.863281 51.613281 114.929688 77.285156 C 75.433594 109.035156 49.261719 150.03125 35.476562 201.738281 C 24.503906 242.890625 27.542969 293.546875 43.5625 336.398438 C 50.136719 353.984375 66.199219 383.347656 74.605469 393.144531 L 77.605469 396.640625 L 85.230469 390.480469 C 110.609375 369.984375 147.511719 349.738281 178.53125 339.289062 C 181.074219 338.433594 189.84375 334.605469 198.027344 330.785156 C 215.875 322.445312 221.335938 320.503906 228.925781 319.785156 C 235.644531 319.152344 246.511719 320.828125 251.488281 323.265625 C 256.386719 325.660156 268.125 334.660156 276.007812 342.058594 C 285.296875 350.777344 302.023438 364.710938 313.796875 373.535156 C 326.101562 382.761719 335.417969 387.3125 357.066406 394.679688 C 377.382812 401.597656 391.324219 408.347656 403.75 417.292969 C 408.832031 420.945312 413.273438 423.941406 413.628906 423.945312 C 413.984375 423.953125 418.601562 419.453125 423.890625 413.945312 C 445.367188 391.59375 461.769531 365.367188 473.097656 335.261719 C 484.351562 305.359375 489.519531 266.519531 486.320312 235.867188 C 484.074219 214.335938 480.804688 199.171875 474.425781 180.746094 C 469.710938 167.105469 469.605469 166.957031 466.652344 169.609375 C 465.351562 170.777344 461.980469 173.285156 459.160156 175.183594 C 450.949219 180.699219 445.617188 187.152344 439.652344 198.777344 C 433.398438 210.972656 426.855469 220.082031 420.773438 225.050781 C 414.433594 230.226562 402.4375 236.171875 394.515625 238.058594 C 381.085938 241.257812 379.734375 241.730469 376.742188 244.242188 C 375.054688 245.65625 371.273438 251.777344 368.058594 258.292969 C 361.207031 272.183594 354.828125 279.667969 344.214844 286.269531 C 332.507812 293.550781 325.328125 295.601562 306.789062 296.957031 C 287.875 298.339844 277.128906 300.65625 266.878906 305.558594 C 257.164062 310.207031 250.101562 311.769531 242.894531 310.871094 C 231.148438 309.40625 223.421875 301.1875 221.421875 288.027344 C 219.015625 272.214844 218.558594 270.882812 212.03125 260.429688 C 208.476562 254.742188 204.53125 246.929688 203.257812 243.066406 C 198.042969 227.226562 199.652344 208.332031 207.523438 193.03125 C 209.839844 188.527344 213.15625 182.09375 214.886719 178.738281 C 217.675781 173.332031 218.011719 171.753906 217.824219 164.914062 C 216.878906 130.640625 217.050781 126.816406 219.882812 118.277344 C 227.277344 95.992188 241.238281 79.777344 262.050781 69.292969 C 273.957031 63.296875 278.601562 58.496094 282.113281 48.566406 C 283.472656 44.730469 285.914062 39.101562 287.542969 36.050781 C 289.171875 33.003906 290.28125 30.289062 290.007812 30.015625 C 287.867188 27.878906 245.714844 26.96875 230.527344 28.730469 M 221.628906 334.769531 C 218.523438 335.785156 210.675781 339.140625 204.183594 342.234375 C 197.695312 345.324219 188.230469 349.371094 183.148438 351.222656 C 154.929688 361.523438 134.167969 372.035156 109.273438 388.640625 C 98.769531 395.644531 87.085938 404.785156 86.40625 406.527344 C 85.917969 407.78125 100.3125 422.589844 109.707031 430.503906 C 149.375 463.921875 194.933594 481.597656 249.84375 484.882812 C 284.488281 486.957031 329.476562 476.84375 363.734375 459.277344 C 373.941406 454.046875 397.519531 438.730469 400.558594 435.359375 C 403.015625 432.632812 402.367188 431.800781 392.648438 425.28125 C 381.753906 417.972656 374.519531 414.5 359.117188 409.203125 C 329.214844 398.914062 320.066406 394.605469 307.441406 384.863281 C 304.542969 382.628906 299.863281 379.027344 297.042969 376.859375 C 290.214844 371.621094 275.445312 358.992188 263.015625 347.765625 C 250.394531 336.367188 243.421875 332.792969 233.941406 332.871094 C 230.273438 332.902344 224.730469 333.753906 221.628906 334.769531 "/>
</g>
</svg>
