<?xml version="1.0" encoding="UTF-8" standalone="no"?>
<!-- Created with Inkscape (http://www.inkscape.org/) -->

<svg
   width="64"
   height="64"
   viewBox="0 0 64 64"
   version="1.1"
   id="svg1"
   xml:space="preserve"
   xmlns="http://www.w3.org/2000/svg"
   xmlns:svg="http://www.w3.org/2000/svg"><defs
     id="defs1"><filter
       style="color-interpolation-filters:sRGB"
       id="filter13"
       x="-0.0018909091"
       y="-0.00195"
       width="1.0037818"
       height="1.0039"><feGaussianBlur
         stdDeviation="0.039"
         id="feGaussianBlur13" /></filter></defs><g
     id="layer1"><path
       id="path11"
       style="display:inline;mix-blend-mode:normal;fill:#f1fffa;fill-opacity:1;stroke-width:0.893097;filter:url(#filter13)"
       d="M 36.8436,12.0936 C 32.823803,15.591733 24.005497,28.256444 19.591647,36.318209 16.438711,42.07695 12.986463,51.891637 12.0936,60.0936 16.737495,57.567166 26.545065,43.155461 27.353366,41.978366 28.154107,40.812275 28.621365,40.081515 36.8436,27.497897 45.064935,40.080138 45.533123,40.812319 46.333834,41.978366 47.142135,43.155461 56.949705,57.567166 61.5936,60.0936 60.700737,51.891637 57.248489,42.07695 54.095553,36.318209 49.681703,28.256444 40.863397,15.591733 36.8436,12.0936 Z"
       transform="matrix(0.80503703,0,0,0.83009525,2.3442022,2.038857)" /></g></svg>
