<?xml version="1.0" encoding="UTF-8"?>
<svg xmlns="http://www.w3.org/2000/svg" xmlns:xlink="http://www.w3.org/1999/xlink" width="250px" height="250px" viewBox="0 0 250 250" version="1.1">
<g id="surface1">
<path style=" stroke:none;fill-rule:nonzero;fill:rgb(99.607843%,99.607843%,100%);fill-opacity:1;" d="M 103.507812 29.546875 C 104.792969 30.636719 105.542969 32.007812 105.714844 33.6875 C 105.761719 35.515625 105.328125 37.175781 104.871094 38.921875 C 104.785156 39.253906 104.703125 39.582031 104.617188 39.914062 C 104.394531 40.792969 104.164062 41.667969 103.9375 42.546875 C 103.703125 43.457031 103.46875 44.371094 103.234375 45.28125 C 102.722656 47.273438 102.210938 49.265625 101.691406 51.253906 C 101.527344 51.890625 101.363281 52.523438 101.199219 53.160156 C 101.050781 53.738281 100.902344 54.3125 100.75 54.886719 C 100.644531 55.292969 100.542969 55.699219 100.4375 56.101562 C 100.121094 57.320312 99.804688 58.542969 99.484375 59.761719 C 99.425781 59.976562 99.371094 60.195312 99.3125 60.421875 C 99.207031 60.820312 99.101562 61.21875 98.996094 61.617188 C 98.46875 63.308594 98.46875 63.308594 98.640625 65 C 98.800781 65.265625 98.800781 65.265625 98.964844 65.53125 C 99.140625 65.832031 99.140625 65.832031 99.324219 66.140625 C 99.453125 66.351562 99.585938 66.566406 99.71875 66.785156 C 99.855469 67.011719 99.988281 67.238281 100.125 67.464844 C 100.402344 67.929688 100.679688 68.394531 100.960938 68.855469 C 101.558594 69.847656 102.140625 70.847656 102.722656 71.851562 C 102.832031 72.039062 102.945312 72.230469 103.058594 72.425781 C 104.003906 74.042969 104.933594 75.671875 105.863281 77.300781 C 106.878906 79.085938 107.90625 80.859375 108.941406 82.628906 C 110.144531 84.6875 111.332031 86.75 112.519531 88.8125 C 113.132812 89.871094 113.742188 90.933594 114.355469 91.992188 C 114.601562 92.414062 114.84375 92.839844 115.085938 93.261719 C 115.207031 93.472656 115.328125 93.679688 115.453125 93.894531 C 119.484375 100.878906 119.484375 100.878906 119.847656 101.515625 C 120.09375 101.933594 120.335938 102.355469 120.578125 102.777344 C 121.140625 103.753906 121.707031 104.730469 122.269531 105.710938 C 122.464844 106.050781 122.664062 106.394531 122.859375 106.734375 C 123.105469 107.160156 123.351562 107.585938 123.597656 108.011719 C 123.710938 108.207031 123.820312 108.402344 123.9375 108.605469 C 124.101562 108.890625 124.101562 108.890625 124.269531 109.179688 C 124.511719 109.59375 124.753906 110.007812 125 110.421875 C 125.125 110.632812 125.25 110.84375 125.378906 111.0625 C 125.550781 111.347656 125.550781 111.347656 125.726562 111.640625 C 125.976562 112.109375 125.976562 112.109375 125.976562 112.5 C 127.039062 111.597656 127.601562 110.441406 128.257812 109.226562 C 128.503906 108.785156 128.75 108.339844 128.996094 107.894531 C 129.113281 107.679688 129.234375 107.460938 129.355469 107.238281 C 129.773438 106.484375 130.210938 105.734375 130.652344 104.992188 C 131.460938 103.632812 132.253906 102.261719 133.042969 100.890625 C 133.167969 100.675781 133.292969 100.460938 133.421875 100.238281 C 133.804688 99.570312 134.1875 98.90625 134.570312 98.242188 C 136.109375 95.570312 137.652344 92.902344 139.207031 90.242188 C 140.410156 88.179688 141.601562 86.109375 142.792969 84.039062 C 143.40625 82.980469 144.015625 81.917969 144.628906 80.859375 C 144.875 80.4375 145.117188 80.011719 145.359375 79.589844 C 146.828125 77.050781 146.828125 77.050781 147.191406 76.414062 C 147.433594 75.996094 147.675781 75.574219 147.921875 75.15625 C 148.488281 74.167969 149.058594 73.179688 149.628906 72.195312 C 149.828125 71.84375 150.03125 71.496094 150.234375 71.148438 C 150.484375 70.707031 150.738281 70.269531 150.992188 69.832031 C 151.214844 69.441406 151.4375 69.054688 151.660156 68.664062 C 151.835938 68.363281 152.019531 68.066406 152.214844 67.777344 C 152.863281 66.8125 152.71875 66.125 152.539062 65.039062 C 152.433594 64.511719 152.308594 63.992188 152.171875 63.472656 C 152.136719 63.324219 152.097656 63.179688 152.058594 63.027344 C 151.9375 62.542969 151.8125 62.058594 151.691406 61.574219 C 151.601562 61.230469 151.515625 60.886719 151.425781 60.539062 C 151.242188 59.804688 151.054688 59.070312 150.867188 58.335938 C 150.621094 57.378906 150.378906 56.421875 150.136719 55.460938 C 149.230469 51.894531 148.324219 48.328125 147.375 44.769531 C 147.261719 44.34375 147.152344 43.917969 147.039062 43.496094 C 146.984375 43.289062 146.984375 43.289062 146.929688 43.082031 C 146.859375 42.816406 146.789062 42.546875 146.71875 42.28125 C 146.484375 41.40625 146.25 40.53125 146.011719 39.65625 C 144.511719 34.054688 144.511719 34.054688 145.605469 31.53125 C 146.53125 29.933594 147.828125 28.847656 149.609375 28.320312 C 151.363281 27.976562 152.886719 28.078125 154.417969 29.027344 C 157.222656 31.058594 157.644531 34.148438 158.4375 37.324219 C 158.535156 37.703125 158.628906 38.082031 158.722656 38.457031 C 158.972656 39.445312 159.21875 40.433594 159.46875 41.421875 C 159.71875 42.433594 159.976562 43.445312 160.230469 44.457031 C 160.726562 46.433594 161.222656 48.410156 161.71875 50.390625 C 161.976562 50.390625 162.234375 50.390625 162.5 50.390625 C 162.539062 50.242188 162.578125 50.089844 162.621094 49.9375 C 163 48.929688 163.546875 48.042969 164.097656 47.117188 C 164.347656 46.699219 164.597656 46.277344 164.84375 45.855469 C 164.972656 45.636719 165.101562 45.417969 165.234375 45.195312 C 165.742188 44.335938 166.238281 43.46875 166.734375 42.605469 C 167.101562 41.96875 167.46875 41.335938 167.835938 40.699219 C 168.3125 39.878906 168.78125 39.050781 169.25 38.226562 C 169.46875 37.839844 169.6875 37.457031 169.910156 37.074219 C 170.054688 36.8125 170.054688 36.8125 170.203125 36.546875 C 171.070312 35.042969 172.238281 33.792969 173.875 33.136719 C 175.484375 32.75 177.4375 32.726562 178.914062 33.53125 C 180.527344 34.625 181.773438 35.933594 182.171875 37.890625 C 182.492188 40.160156 181.632812 41.953125 180.503906 43.871094 C 180.394531 44.066406 180.28125 44.257812 180.167969 44.457031 C 179.816406 45.070312 179.457031 45.679688 179.101562 46.289062 C 178.871094 46.6875 178.640625 47.082031 178.410156 47.480469 C 177.953125 48.261719 177.496094 49.039062 177.042969 49.820312 C 176.367188 50.972656 175.699219 52.125 175.035156 53.285156 C 174.9375 53.457031 174.835938 53.628906 174.734375 53.808594 C 174.644531 53.964844 174.554688 54.125 174.460938 54.289062 C 174.378906 54.425781 174.300781 54.566406 174.21875 54.710938 C 173.996094 55.101562 173.996094 55.101562 173.828125 55.664062 C 176.460938 55.015625 179.074219 54.308594 181.679688 53.5625 C 181.910156 53.496094 182.136719 53.429688 182.371094 53.363281 C 183.53125 53.03125 184.691406 52.695312 185.851562 52.355469 C 186.289062 52.230469 186.726562 52.105469 187.164062 51.980469 C 187.363281 51.921875 187.5625 51.863281 187.765625 51.800781 C 189.769531 51.230469 191.816406 50.820312 193.765625 51.757812 C 195.53125 52.785156 196.609375 54.089844 197.183594 56.050781 C 197.515625 57.644531 197.214844 59.109375 196.484375 60.546875 C 195.207031 62.40625 193.636719 63.207031 191.519531 63.789062 C 191.292969 63.855469 191.066406 63.921875 190.832031 63.988281 C 190.1875 64.171875 189.542969 64.351562 188.898438 64.53125 C 188.308594 64.695312 187.722656 64.863281 187.136719 65.027344 C 185.136719 65.59375 183.136719 66.152344 181.132812 66.714844 C 179.9375 67.046875 178.738281 67.382812 177.542969 67.71875 C 176.867188 67.90625 176.191406 68.097656 175.515625 68.285156 C 173.765625 68.773438 172.015625 69.265625 170.269531 69.761719 C 169.910156 69.863281 169.554688 69.964844 169.199219 70.066406 C 168.523438 70.257812 167.847656 70.449219 167.171875 70.640625 C 166.867188 70.726562 166.566406 70.8125 166.261719 70.898438 C 166.121094 70.9375 165.984375 70.980469 165.839844 71.019531 C 164.886719 71.289062 164.886719 71.289062 164.453125 71.289062 C 164.402344 71.429688 164.347656 71.570312 164.292969 71.714844 C 164.0625 72.269531 163.789062 72.773438 163.488281 73.292969 C 163.371094 73.492188 163.253906 73.691406 163.136719 73.898438 C 163.011719 74.113281 162.886719 74.328125 162.757812 74.546875 C 162.625 74.773438 162.492188 75.003906 162.359375 75.230469 C 162.085938 75.699219 161.8125 76.171875 161.539062 76.644531 C 160.914062 77.722656 160.289062 78.800781 159.667969 79.882812 C 159.425781 80.304688 159.179688 80.726562 158.9375 81.152344 C 158.445312 82.003906 157.953125 82.855469 157.464844 83.707031 C 156.171875 85.949219 154.875 88.1875 153.566406 90.421875 C 152.363281 92.484375 151.171875 94.554688 149.980469 96.625 C 149.367188 97.683594 148.757812 98.746094 148.144531 99.804688 C 147.898438 100.226562 147.65625 100.652344 147.414062 101.074219 C 146.921875 101.921875 146.4375 102.765625 145.945312 103.613281 C 145.828125 103.824219 145.707031 104.03125 145.582031 104.25 C 145.335938 104.671875 145.09375 105.09375 144.847656 105.515625 C 144.234375 106.578125 143.625 107.640625 143.011719 108.707031 C 141.792969 110.820312 140.570312 112.929688 139.34375 115.039062 C 139.179688 115.320312 139.179688 115.320312 139.011719 115.609375 C 138.398438 116.65625 137.78125 117.699219 137.144531 118.730469 C 136.886719 119.15625 136.886719 119.15625 136.71875 119.726562 C 143.488281 119.734375 150.257812 119.730469 157.027344 119.722656 C 157.828125 119.71875 158.625 119.71875 159.425781 119.71875 C 159.582031 119.71875 159.742188 119.71875 159.90625 119.71875 C 162.484375 119.714844 165.058594 119.714844 167.636719 119.71875 C 170.277344 119.722656 172.921875 119.71875 175.566406 119.710938 C 177.195312 119.707031 178.828125 119.707031 180.457031 119.714844 C 181.578125 119.714844 182.695312 119.714844 183.8125 119.707031 C 184.460938 119.707031 185.105469 119.707031 185.75 119.710938 C 186.449219 119.714844 187.148438 119.710938 187.851562 119.703125 C 188.054688 119.707031 188.257812 119.710938 188.46875 119.710938 C 189.503906 119.695312 190.082031 119.605469 190.832031 118.859375 C 191.027344 118.632812 191.21875 118.398438 191.40625 118.164062 C 191.660156 117.933594 191.917969 117.710938 192.179688 117.488281 C 192.980469 116.792969 193.730469 116.054688 194.476562 115.300781 C 194.613281 115.164062 194.75 115.027344 194.890625 114.882812 C 195.324219 114.449219 195.757812 114.011719 196.191406 113.574219 C 196.761719 112.996094 197.335938 112.421875 197.90625 111.847656 C 198.035156 111.71875 198.164062 111.585938 198.292969 111.453125 C 198.910156 110.835938 199.53125 110.238281 200.191406 109.671875 C 201.007812 108.964844 201.769531 108.214844 202.527344 107.445312 C 202.667969 107.304688 202.808594 107.160156 202.957031 107.015625 C 203.402344 106.566406 203.851562 106.113281 204.296875 105.664062 C 204.886719 105.070312 205.476562 104.476562 206.066406 103.882812 C 206.265625 103.679688 206.265625 103.679688 206.46875 103.476562 C 207.230469 102.710938 208.015625 101.988281 208.832031 101.28125 C 209.265625 100.902344 209.664062 100.492188 210.0625 100.074219 C 210.214844 99.914062 210.367188 99.757812 210.523438 99.59375 C 210.832031 99.273438 211.136719 98.949219 211.441406 98.621094 C 212.949219 97.066406 214.644531 96.019531 216.832031 95.847656 C 218.699219 95.972656 220.320312 96.671875 221.636719 98.011719 C 222.726562 99.339844 223.179688 100.914062 223.113281 102.621094 C 222.773438 105.1875 221.074219 106.691406 219.324219 108.4375 C 219.105469 108.65625 219.105469 108.65625 218.882812 108.878906 C 218.574219 109.1875 218.269531 109.492188 217.960938 109.800781 C 217.492188 110.265625 217.027344 110.730469 216.5625 111.199219 C 216.261719 111.5 215.960938 111.796875 215.664062 112.097656 C 215.523438 112.234375 215.386719 112.375 215.246094 112.515625 C 214.476562 113.28125 213.683594 114.011719 212.859375 114.722656 C 212.355469 115.164062 211.886719 115.628906 211.414062 116.097656 C 211.320312 116.191406 211.230469 116.285156 211.132812 116.378906 C 210.941406 116.570312 210.75 116.765625 210.558594 116.957031 C 210.261719 117.253906 209.96875 117.546875 209.671875 117.839844 C 209.484375 118.027344 209.296875 118.21875 209.105469 118.40625 C 208.9375 118.574219 208.769531 118.746094 208.59375 118.917969 C 208.195312 119.304688 208.195312 119.304688 208.007812 119.726562 C 208.226562 119.726562 208.441406 119.722656 208.664062 119.722656 C 210.71875 119.707031 212.773438 119.695312 214.828125 119.6875 C 215.882812 119.683594 216.941406 119.675781 217.996094 119.667969 C 219.015625 119.660156 220.039062 119.65625 221.058594 119.652344 C 221.445312 119.652344 221.832031 119.648438 222.222656 119.644531 C 227.597656 119.585938 227.597656 119.585938 229.40625 121.335938 C 230.171875 122.097656 230.703125 122.808594 231.054688 123.828125 C 231.101562 123.949219 231.144531 124.070312 231.191406 124.199219 C 231.683594 125.757812 231.445312 127.433594 230.71875 128.882812 C 229.75 130.492188 228.523438 131.378906 226.757812 132.03125 C 225.769531 132.207031 224.804688 132.253906 223.800781 132.25 C 223.648438 132.25 223.496094 132.25 223.339844 132.25 C 222.839844 132.25 222.339844 132.246094 221.839844 132.246094 C 221.492188 132.246094 221.140625 132.246094 220.792969 132.246094 C 219.878906 132.242188 218.96875 132.242188 218.054688 132.238281 C 217.121094 132.238281 216.1875 132.238281 215.253906 132.234375 C 213.425781 132.234375 211.59375 132.230469 209.765625 132.226562 C 209.765625 132.421875 209.765625 132.613281 209.765625 132.8125 C 209.878906 132.863281 209.992188 132.910156 210.109375 132.960938 C 210.601562 133.234375 210.929688 133.542969 211.328125 133.941406 C 211.480469 134.09375 211.628906 134.246094 211.785156 134.402344 C 212.03125 134.648438 212.03125 134.648438 212.277344 134.902344 C 212.53125 135.15625 212.53125 135.15625 212.789062 135.417969 C 213.328125 135.960938 213.867188 136.503906 214.40625 137.046875 C 214.941406 137.589844 215.476562 138.128906 216.011719 138.671875 C 216.347656 139.007812 216.679688 139.34375 217.011719 139.679688 C 217.949219 140.625 218.910156 141.519531 219.921875 142.382812 C 221.714844 144.007812 222.996094 145.691406 223.121094 148.195312 C 223.066406 150.125 222.296875 151.535156 220.972656 152.910156 C 219.382812 154.3125 217.660156 154.414062 215.625 154.296875 C 212.613281 153.9375 209.851562 150.128906 207.847656 148.09375 C 207.394531 147.636719 206.941406 147.175781 206.484375 146.71875 C 206.207031 146.4375 205.925781 146.152344 205.644531 145.867188 C 204.898438 145.113281 204.125 144.398438 203.320312 143.703125 C 202.644531 143.105469 202.011719 142.464844 201.378906 141.820312 C 201.238281 141.679688 201.097656 141.535156 200.949219 141.390625 C 200.351562 140.789062 199.753906 140.1875 199.160156 139.582031 C 198.71875 139.140625 198.277344 138.699219 197.839844 138.257812 C 197.707031 138.121094 197.574219 137.988281 197.4375 137.851562 C 196.722656 137.132812 196 136.453125 195.210938 135.8125 C 194.8125 135.433594 194.515625 135.082031 194.1875 134.648438 C 193.210938 133.417969 192.269531 132.425781 190.667969 132.15625 C 189.285156 132.023438 187.902344 132.058594 186.515625 132.089844 C 185.984375 132.089844 185.453125 132.089844 184.921875 132.089844 C 183.78125 132.085938 182.644531 132.09375 181.503906 132.113281 C 179.855469 132.136719 178.210938 132.144531 176.5625 132.148438 C 173.890625 132.152344 171.21875 132.171875 168.542969 132.199219 C 165.949219 132.226562 163.355469 132.25 160.761719 132.261719 C 160.601562 132.261719 160.441406 132.261719 160.273438 132.261719 C 159.472656 132.265625 158.667969 132.269531 157.863281 132.273438 C 151.207031 132.304688 144.546875 132.355469 137.890625 132.421875 C 138.175781 133.15625 138.507812 133.828125 138.898438 134.511719 C 139.023438 134.730469 139.148438 134.945312 139.277344 135.171875 C 139.414062 135.40625 139.550781 135.640625 139.683594 135.875 C 139.824219 136.121094 139.96875 136.367188 140.109375 136.613281 C 140.46875 137.242188 140.832031 137.875 141.195312 138.503906 C 141.519531 139.0625 141.839844 139.621094 142.160156 140.179688 C 142.765625 141.222656 143.367188 142.269531 143.972656 143.316406 C 144.339844 143.953125 144.707031 144.589844 145.074219 145.226562 C 146.25 147.269531 147.429688 149.308594 148.621094 151.34375 C 149.679688 153.152344 150.722656 154.972656 151.761719 156.792969 C 152.777344 158.578125 153.804688 160.351562 154.839844 162.121094 C 156.292969 164.605469 157.722656 167.097656 159.160156 169.589844 C 159.34375 169.90625 159.34375 169.90625 159.527344 170.230469 C 159.652344 170.441406 159.773438 170.652344 159.898438 170.871094 C 160.140625 171.292969 160.386719 171.714844 160.628906 172.136719 C 161.25 173.207031 161.863281 174.28125 162.460938 175.363281 C 162.644531 175.6875 162.644531 175.6875 162.828125 176.015625 C 163.058594 176.425781 163.285156 176.839844 163.511719 177.25 C 163.613281 177.433594 163.71875 177.617188 163.824219 177.808594 C 163.914062 177.96875 164.003906 178.128906 164.09375 178.292969 C 165.113281 179.472656 167.128906 179.683594 168.570312 180.078125 C 168.847656 180.15625 169.125 180.230469 169.402344 180.308594 C 169.996094 180.472656 170.59375 180.636719 171.1875 180.800781 C 172.125 181.054688 173.066406 181.316406 174.003906 181.574219 C 174.160156 181.617188 174.320312 181.664062 174.480469 181.707031 C 174.804688 181.796875 175.125 181.886719 175.449219 181.976562 C 175.941406 182.113281 176.429688 182.246094 176.921875 182.382812 C 180.066406 183.253906 183.207031 184.128906 186.347656 185.011719 C 186.917969 185.171875 187.488281 185.332031 188.058594 185.492188 C 188.730469 185.679688 189.402344 185.867188 190.074219 186.058594 C 190.433594 186.160156 190.796875 186.257812 191.15625 186.359375 C 193.132812 186.921875 195.125 187.585938 196.238281 189.429688 C 197.121094 191.144531 197.550781 192.589844 197.046875 194.507812 C 196.484375 196.222656 195.519531 197.535156 193.945312 198.4375 C 191.40625 199.691406 188.804688 198.820312 186.261719 198.078125 C 185.917969 197.980469 185.578125 197.882812 185.238281 197.785156 C 184.34375 197.535156 183.453125 197.277344 182.5625 197.019531 C 181.132812 196.605469 179.703125 196.199219 178.269531 195.792969 C 177.769531 195.648438 177.269531 195.503906 176.773438 195.359375 C 176.46875 195.273438 176.164062 195.1875 175.859375 195.097656 C 175.722656 195.058594 175.582031 195.015625 175.441406 194.976562 C 174.636719 194.75 174.636719 194.75 173.828125 194.921875 C 175.648438 198.203125 175.648438 198.203125 177.527344 201.453125 C 178.3125 202.78125 179.09375 204.109375 179.867188 205.445312 C 180.0625 205.777344 180.257812 206.113281 180.453125 206.445312 C 181.671875 208.550781 182.664062 210.378906 182.007812 212.867188 C 181.382812 214.773438 180.28125 216.023438 178.546875 217 C 177.125 217.644531 175.359375 217.59375 173.875 217.175781 C 172.371094 216.570312 171.378906 215.660156 170.546875 214.273438 C 170.480469 214.160156 170.414062 214.050781 170.34375 213.9375 C 169.625 212.730469 168.929688 211.511719 168.238281 210.289062 C 167.964844 209.808594 167.691406 209.332031 167.417969 208.851562 C 167.347656 208.730469 167.28125 208.609375 167.210938 208.488281 C 166.210938 206.730469 165.191406 204.988281 164.167969 203.246094 C 163.882812 202.761719 163.601562 202.277344 163.320312 201.792969 C 163.160156 201.519531 163 201.25 162.84375 200.976562 C 162.773438 200.855469 162.703125 200.734375 162.628906 200.609375 C 162.46875 200.332031 162.289062 200.066406 162.109375 199.804688 C 161.980469 199.804688 161.851562 199.804688 161.71875 199.804688 C 161.664062 200.019531 161.609375 200.238281 161.554688 200.460938 C 161.039062 202.503906 160.519531 204.546875 160.003906 206.589844 C 159.734375 207.640625 159.46875 208.691406 159.203125 209.738281 C 158.949219 210.753906 158.691406 211.769531 158.433594 212.78125 C 158.335938 213.167969 158.238281 213.554688 158.140625 213.941406 C 158.003906 214.484375 157.867188 215.027344 157.726562 215.570312 C 157.6875 215.726562 157.648438 215.886719 157.609375 216.046875 C 157.054688 218.199219 156.195312 220.003906 154.296875 221.265625 C 152.859375 222.082031 151.359375 222.304688 149.742188 221.980469 C 148.03125 221.476562 146.675781 220.5625 145.746094 219.027344 C 144.664062 216.875 144.886719 215.167969 145.46875 212.910156 C 145.554688 212.558594 145.554688 212.558594 145.644531 212.199219 C 145.808594 211.554688 145.972656 210.914062 146.136719 210.269531 C 146.3125 209.585938 146.484375 208.902344 146.65625 208.21875 C 146.957031 207.03125 147.257812 205.84375 147.558594 204.65625 C 148.027344 202.808594 148.496094 200.957031 148.964844 199.105469 C 149.648438 196.398438 150.332031 193.6875 151.015625 190.980469 C 151.09375 190.683594 151.167969 190.386719 151.242188 190.089844 C 151.347656 189.679688 151.449219 189.265625 151.554688 188.855469 C 151.589844 188.726562 151.621094 188.597656 151.65625 188.460938 C 151.824219 187.800781 151.996094 187.144531 152.179688 186.488281 C 152.214844 186.355469 152.25 186.222656 152.289062 186.085938 C 152.386719 185.722656 152.492188 185.359375 152.59375 184.996094 C 152.832031 183.953125 152.792969 183.371094 152.238281 182.457031 C 152.132812 182.273438 152.023438 182.09375 151.910156 181.90625 C 151.792969 181.707031 151.671875 181.511719 151.550781 181.3125 C 151.296875 180.886719 151.042969 180.460938 150.792969 180.039062 C 150.660156 179.820312 150.53125 179.597656 150.394531 179.375 C 149.769531 178.320312 149.15625 177.257812 148.546875 176.195312 C 148.300781 175.769531 148.054688 175.34375 147.808594 174.917969 C 147.6875 174.703125 147.566406 174.492188 147.441406 174.273438 C 146.828125 173.214844 146.21875 172.152344 145.605469 171.09375 C 145.359375 170.671875 145.117188 170.246094 144.875 169.824219 C 144.691406 169.511719 144.691406 169.511719 144.507812 169.1875 C 131.6875 146.972656 131.6875 146.972656 131.324219 146.335938 C 131.082031 145.917969 130.839844 145.496094 130.597656 145.078125 C 130.023438 144.085938 129.449219 143.089844 128.882812 142.089844 C 128.613281 141.617188 128.34375 141.144531 128.074219 140.671875 C 127.882812 140.339844 127.695312 140.003906 127.507812 139.667969 C 127.390625 139.464844 127.277344 139.265625 127.15625 139.054688 C 127.054688 138.878906 126.957031 138.699219 126.851562 138.515625 C 126.570312 138.035156 126.570312 138.035156 125.976562 137.695312 C 125.9375 137.84375 125.898438 137.996094 125.855469 138.148438 C 125.476562 139.15625 124.929688 140.042969 124.378906 140.96875 C 124.128906 141.390625 123.878906 141.8125 123.628906 142.234375 C 123.5 142.453125 123.371094 142.671875 123.238281 142.894531 C 122.621094 143.949219 122.007812 145.007812 121.398438 146.070312 C 121.152344 146.496094 120.90625 146.921875 120.660156 147.347656 C 120.539062 147.5625 120.417969 147.773438 120.292969 147.992188 C 119.558594 149.261719 118.824219 150.535156 118.089844 151.804688 C 117.476562 152.867188 116.867188 153.929688 116.253906 154.996094 C 114.960938 157.238281 113.664062 159.476562 112.355469 161.710938 C 111.152344 163.773438 109.960938 165.84375 108.769531 167.914062 C 108.15625 168.972656 107.546875 170.035156 106.933594 171.09375 C 106.6875 171.515625 106.445312 171.941406 106.203125 172.363281 C 105.710938 173.210938 105.226562 174.054688 104.734375 174.902344 C 104.617188 175.113281 104.496094 175.320312 104.371094 175.539062 C 104.128906 175.957031 103.882812 176.378906 103.640625 176.800781 C 103.074219 177.78125 102.507812 178.761719 101.945312 179.742188 C 101.746094 180.089844 101.546875 180.433594 101.347656 180.777344 C 101.101562 181.207031 100.851562 181.640625 100.605469 182.070312 C 100.492188 182.265625 100.378906 182.464844 100.261719 182.664062 C 100.101562 182.949219 100.101562 182.949219 99.933594 183.242188 C 99.609375 183.789062 99.609375 183.789062 99.25 184.292969 C 98.617188 185.183594 98.617188 185.183594 98.457031 186.230469 C 98.496094 186.398438 98.53125 186.570312 98.570312 186.742188 C 98.609375 186.929688 98.652344 187.121094 98.691406 187.3125 C 98.738281 187.503906 98.78125 187.695312 98.828125 187.890625 C 98.867188 188.0625 98.910156 188.238281 98.949219 188.414062 C 99.078125 188.957031 99.214844 189.496094 99.351562 190.039062 C 99.402344 190.242188 99.457031 190.445312 99.507812 190.652344 C 99.675781 191.320312 99.84375 191.984375 100.015625 192.652344 C 100.132812 193.121094 100.253906 193.589844 100.371094 194.058594 C 100.683594 195.296875 100.996094 196.53125 101.308594 197.769531 C 101.6875 199.253906 102.0625 200.738281 102.4375 202.222656 C 102.785156 203.597656 103.132812 204.976562 103.484375 206.351562 C 103.589844 206.777344 103.699219 207.203125 103.804688 207.625 C 104.09375 208.769531 104.386719 209.910156 104.683594 211.046875 C 104.808594 211.539062 104.9375 212.03125 105.0625 212.519531 C 105.121094 212.746094 105.183594 212.972656 105.246094 213.203125 C 105.832031 215.503906 105.804688 217.273438 104.640625 219.386719 C 103.761719 220.691406 102.511719 221.382812 101.074219 221.949219 C 99.34375 222.257812 97.859375 222.125 96.289062 221.289062 C 94.433594 219.960938 93.625 218.488281 93.089844 216.320312 C 93.050781 216.164062 93.007812 216.007812 92.96875 215.847656 C 92.835938 215.335938 92.710938 214.824219 92.582031 214.3125 C 92.492188 213.957031 92.398438 213.597656 92.308594 213.242188 C 92.070312 212.308594 91.835938 211.371094 91.601562 210.4375 C 91.359375 209.480469 91.117188 208.527344 90.871094 207.570312 C 90.398438 205.699219 89.925781 203.824219 89.453125 201.953125 C 88.792969 202.597656 88.292969 203.167969 87.851562 203.976562 C 87.742188 204.175781 87.632812 204.375 87.519531 204.582031 C 87.347656 204.902344 87.347656 204.902344 87.171875 205.226562 C 86.925781 205.667969 86.679688 206.113281 86.4375 206.558594 C 86.316406 206.773438 86.199219 206.988281 86.074219 207.210938 C 85.578125 208.105469 85.0625 208.988281 84.539062 209.867188 C 84.054688 210.679688 83.582031 211.496094 83.121094 212.324219 C 83.003906 212.53125 82.886719 212.742188 82.765625 212.957031 C 82.535156 213.363281 82.308594 213.773438 82.082031 214.183594 C 81.085938 215.941406 79.828125 217.359375 77.878906 218.042969 C 76.054688 218.457031 74.253906 218.273438 72.632812 217.339844 C 71.246094 216.398438 70.363281 215.089844 69.921875 213.476562 C 69.855469 212.832031 69.855469 212.832031 69.847656 212.15625 C 69.84375 211.9375 69.835938 211.71875 69.832031 211.488281 C 70.066406 209.558594 71.167969 207.902344 72.132812 206.25 C 72.269531 206.011719 72.410156 205.769531 72.546875 205.53125 C 72.832031 205.035156 73.117188 204.542969 73.40625 204.050781 C 73.808594 203.355469 74.207031 202.660156 74.609375 201.964844 C 75.539062 200.347656 76.472656 198.730469 77.410156 197.121094 C 77.511719 196.949219 77.613281 196.777344 77.714844 196.597656 C 77.902344 196.28125 78.085938 195.960938 78.273438 195.644531 C 78.355469 195.503906 78.4375 195.363281 78.519531 195.222656 C 78.589844 195.101562 78.660156 194.980469 78.734375 194.859375 C 78.933594 194.5 78.933594 194.5 79.101562 193.945312 C 75.289062 194.910156 71.5 195.953125 67.71875 197.023438 C 66.730469 197.304688 65.742188 197.582031 64.753906 197.863281 C 64.230469 198.007812 63.710938 198.15625 63.1875 198.304688 C 62.953125 198.371094 62.722656 198.4375 62.480469 198.503906 C 62.277344 198.5625 62.070312 198.621094 61.859375 198.679688 C 59.933594 199.214844 58.257812 199.203125 56.445312 198.242188 C 54.941406 197.167969 54.097656 196.082031 53.515625 194.335938 C 53.359375 192.214844 53.484375 190.429688 54.835938 188.707031 C 56.085938 187.410156 57.546875 186.882812 59.253906 186.410156 C 59.480469 186.34375 59.707031 186.28125 59.941406 186.214844 C 60.585938 186.027344 61.230469 185.847656 61.875 185.667969 C 62.320312 185.542969 62.765625 185.417969 63.210938 185.292969 C 65.445312 184.660156 67.679688 184.039062 69.917969 183.417969 C 71.410156 183.003906 72.90625 182.585938 74.398438 182.171875 C 74.765625 182.070312 75.132812 181.964844 75.503906 181.863281 C 77.730469 181.242188 79.957031 180.621094 82.183594 179.988281 C 82.402344 179.925781 82.617188 179.867188 82.839844 179.800781 C 83.796875 179.53125 84.753906 179.257812 85.710938 178.984375 C 86.03125 178.894531 86.351562 178.800781 86.671875 178.710938 C 86.8125 178.671875 86.957031 178.628906 87.101562 178.585938 C 88.042969 178.320312 88.042969 178.320312 88.476562 178.320312 C 88.527344 178.183594 88.578125 178.042969 88.632812 177.902344 C 88.882812 177.3125 89.171875 176.773438 89.492188 176.21875 C 89.617188 175.996094 89.742188 175.777344 89.875 175.550781 C 90.011719 175.316406 90.148438 175.078125 90.28125 174.839844 C 90.425781 174.59375 90.566406 174.347656 90.707031 174.101562 C 91.699219 172.375 92.703125 170.652344 93.707031 168.933594 C 94.910156 166.878906 96.097656 164.8125 97.285156 162.75 C 97.898438 161.691406 98.507812 160.628906 99.121094 159.570312 C 99.367188 159.148438 99.609375 158.722656 99.851562 158.300781 C 100.34375 157.453125 100.828125 156.609375 101.320312 155.761719 C 101.4375 155.550781 101.558594 155.34375 101.683594 155.125 C 101.929688 154.703125 102.171875 154.28125 102.417969 153.859375 C 103.03125 152.796875 103.640625 151.734375 104.253906 150.667969 C 105.546875 148.425781 106.84375 146.1875 108.148438 143.953125 C 109.113281 142.304688 110.070312 140.644531 111.023438 138.988281 C 111.628906 137.9375 112.238281 136.890625 112.859375 135.847656 C 112.976562 135.648438 113.09375 135.449219 113.21875 135.246094 C 113.441406 134.867188 113.667969 134.492188 113.894531 134.117188 C 114.042969 133.867188 114.042969 133.867188 114.195312 133.613281 C 114.328125 133.394531 114.328125 133.394531 114.460938 133.171875 C 114.679688 132.820312 114.679688 132.820312 114.648438 132.421875 C 107.605469 132.359375 100.566406 132.3125 93.523438 132.28125 C 92.691406 132.277344 91.859375 132.273438 91.027344 132.273438 C 90.777344 132.269531 90.777344 132.269531 90.523438 132.269531 C 87.847656 132.257812 85.167969 132.234375 82.488281 132.210938 C 79.738281 132.183594 76.988281 132.171875 74.234375 132.164062 C 72.539062 132.160156 70.84375 132.148438 69.148438 132.125 C 67.984375 132.113281 66.816406 132.109375 65.652344 132.113281 C 64.980469 132.113281 64.3125 132.109375 63.640625 132.097656 C 60.402344 131.964844 60.402344 131.964844 57.613281 133.378906 C 57.144531 133.84375 56.71875 134.320312 56.3125 134.835938 C 55.972656 135.261719 55.585938 135.628906 55.191406 136 C 54.960938 136.234375 54.730469 136.464844 54.5 136.699219 C 54.371094 136.828125 54.246094 136.953125 54.117188 137.085938 C 53.722656 137.480469 53.332031 137.875 52.941406 138.269531 C 52.417969 138.796875 51.898438 139.324219 51.375 139.847656 C 51.203125 140.023438 51.203125 140.023438 51.023438 140.203125 C 50.445312 140.789062 49.851562 141.347656 49.226562 141.886719 C 48.425781 142.582031 47.675781 143.320312 46.929688 144.074219 C 46.792969 144.210938 46.65625 144.347656 46.515625 144.492188 C 46.082031 144.925781 45.648438 145.363281 45.214844 145.800781 C 44.644531 146.378906 44.070312 146.953125 43.5 147.527344 C 43.308594 147.722656 43.308594 147.722656 43.113281 147.921875 C 42.363281 148.671875 41.59375 149.386719 40.785156 150.074219 C 40.300781 150.503906 39.855469 150.96875 39.410156 151.433594 C 37.734375 153.179688 36.339844 154.304688 33.851562 154.359375 C 32.601562 154.347656 31.722656 154.171875 30.664062 153.515625 C 30.527344 153.429688 30.386719 153.34375 30.246094 153.257812 C 28.894531 152.339844 28.175781 151.171875 27.734375 149.609375 C 27.65625 148.9375 27.65625 148.9375 27.636719 148.21875 C 27.625 147.984375 27.617188 147.75 27.605469 147.507812 C 27.878906 144.683594 30.300781 142.796875 32.203125 140.953125 C 32.503906 140.65625 32.804688 140.359375 33.105469 140.0625 C 34.296875 138.886719 35.492188 137.734375 36.757812 136.636719 C 37.210938 136.238281 37.644531 135.816406 38.074219 135.390625 C 38.234375 135.226562 38.398438 135.066406 38.566406 134.898438 C 38.8125 134.652344 38.8125 134.652344 39.0625 134.398438 C 39.234375 134.230469 39.402344 134.0625 39.578125 133.886719 C 39.738281 133.726562 39.898438 133.566406 40.0625 133.398438 C 40.210938 133.253906 40.355469 133.109375 40.503906 132.957031 C 40.84375 132.671875 40.84375 132.671875 40.820312 132.421875 C 40.628906 132.421875 40.4375 132.417969 40.242188 132.417969 C 38.429688 132.402344 36.621094 132.382812 34.808594 132.367188 C 33.878906 132.355469 32.949219 132.347656 32.019531 132.339844 C 31.121094 132.332031 30.21875 132.324219 29.320312 132.3125 C 28.980469 132.308594 28.636719 132.304688 28.296875 132.304688 C 25.527344 132.285156 23.113281 132.265625 20.933594 130.351562 C 19.757812 129.101562 19.292969 127.675781 19.238281 125.976562 C 19.304688 124.054688 19.898438 122.683594 21.21875 121.285156 C 22.789062 119.964844 24.574219 119.699219 26.546875 119.6875 C 26.71875 119.683594 26.894531 119.683594 27.074219 119.679688 C 27.644531 119.675781 28.214844 119.667969 28.789062 119.664062 C 29.183594 119.660156 29.582031 119.65625 29.980469 119.652344 C 31.023438 119.640625 32.066406 119.632812 33.109375 119.621094 C 34.175781 119.613281 35.242188 119.601562 36.308594 119.589844 C 38.398438 119.570312 40.488281 119.550781 42.578125 119.53125 C 42.394531 119.316406 42.210938 119.097656 42.027344 118.882812 C 41.925781 118.761719 41.824219 118.640625 41.71875 118.519531 C 41.234375 117.96875 40.691406 117.484375 40.148438 116.992188 C 38.15625 115.160156 36.261719 113.226562 34.359375 111.304688 C 33.160156 110.097656 31.964844 108.910156 30.664062 107.8125 C 29.148438 106.4375 27.851562 105.027344 27.6875 102.910156 C 27.640625 100.617188 28.066406 99.121094 29.660156 97.445312 C 30.871094 96.363281 32.523438 95.800781 34.144531 95.847656 C 37.902344 96.289062 40.605469 99.953125 43.117188 102.488281 C 43.644531 103.023438 44.171875 103.554688 44.699219 104.085938 C 44.816406 104.203125 44.933594 104.324219 45.054688 104.445312 C 45.640625 105.035156 46.234375 105.601562 46.867188 106.144531 C 47.683594 106.851562 48.445312 107.605469 49.207031 108.375 C 49.417969 108.585938 49.417969 108.585938 49.636719 108.804688 C 50.234375 109.40625 50.832031 110.007812 51.425781 110.613281 C 51.867188 111.054688 52.308594 111.496094 52.746094 111.9375 C 52.878906 112.074219 53.011719 112.207031 53.148438 112.34375 C 53.90625 113.105469 54.683594 113.824219 55.496094 114.523438 C 56.015625 114.980469 56.496094 115.460938 56.980469 115.953125 C 57.125 116.097656 57.125 116.097656 57.273438 116.246094 C 57.574219 116.550781 57.878906 116.859375 58.179688 117.164062 C 58.582031 117.570312 58.984375 117.976562 59.386719 118.382812 C 59.5625 118.5625 59.738281 118.738281 59.917969 118.921875 C 60.527344 119.503906 60.832031 119.554688 61.652344 119.558594 C 61.84375 119.558594 62.035156 119.558594 62.234375 119.5625 C 62.449219 119.5625 62.660156 119.5625 62.878906 119.5625 C 63.21875 119.5625 63.21875 119.5625 63.5625 119.566406 C 64.191406 119.566406 64.816406 119.570312 65.445312 119.570312 C 66.121094 119.570312 66.796875 119.574219 67.46875 119.578125 C 68.640625 119.582031 69.8125 119.585938 70.984375 119.589844 C 72.675781 119.59375 74.371094 119.597656 76.0625 119.605469 C 78.808594 119.613281 81.558594 119.621094 84.304688 119.628906 C 86.972656 119.636719 89.640625 119.644531 92.308594 119.652344 C 92.472656 119.65625 92.640625 119.65625 92.808594 119.65625 C 93.632812 119.65625 94.457031 119.660156 95.28125 119.664062 C 102.128906 119.6875 108.972656 119.707031 115.820312 119.726562 C 115.664062 119.414062 115.507812 119.097656 115.351562 118.785156 C 115.265625 118.609375 115.179688 118.4375 115.089844 118.257812 C 114.828125 117.738281 114.546875 117.234375 114.253906 116.734375 C 114.148438 116.558594 114.042969 116.378906 113.933594 116.195312 C 113.824219 116.007812 113.714844 115.816406 113.597656 115.625 C 113.355469 115.210938 113.109375 114.792969 112.867188 114.378906 C 112.742188 114.164062 112.617188 113.953125 112.488281 113.734375 C 111.871094 112.679688 111.265625 111.625 110.65625 110.570312 C 110.535156 110.359375 110.414062 110.148438 110.289062 109.933594 C 110.042969 109.503906 109.796875 109.078125 109.550781 108.648438 C 108.9375 107.589844 108.328125 106.527344 107.714844 105.46875 C 107.46875 105.046875 107.226562 104.621094 106.984375 104.199219 C 106.863281 103.988281 106.742188 103.78125 106.617188 103.5625 C 102.34375 96.160156 98.070312 88.753906 93.796875 81.347656 C 93.617188 81.03125 93.617188 81.03125 93.433594 80.710938 C 93.191406 80.292969 92.949219 79.871094 92.707031 79.453125 C 92.132812 78.457031 91.558594 77.464844 90.980469 76.472656 C 90.707031 76 90.4375 75.53125 90.164062 75.058594 C 89.96875 74.726562 89.777344 74.394531 89.582031 74.058594 C 89.464844 73.859375 89.347656 73.65625 89.230469 73.449219 C 89.125 73.273438 89.023438 73.097656 88.917969 72.914062 C 88.671875 72.460938 88.671875 72.460938 88.476562 71.875 C 88.019531 71.722656 87.59375 71.609375 87.128906 71.511719 C 86.839844 71.445312 86.550781 71.375 86.265625 71.308594 C 86.113281 71.273438 85.960938 71.238281 85.808594 71.203125 C 85.074219 71.027344 84.347656 70.824219 83.621094 70.621094 C 83.46875 70.578125 83.320312 70.539062 83.164062 70.496094 C 82.6875 70.363281 82.210938 70.230469 81.734375 70.09375 C 81.390625 70 81.046875 69.902344 80.703125 69.808594 C 79.792969 69.550781 78.878906 69.296875 77.96875 69.042969 C 77.402344 68.882812 76.835938 68.726562 76.273438 68.566406 C 74.210938 67.992188 72.152344 67.414062 70.09375 66.835938 C 68.992188 66.527344 67.890625 66.21875 66.789062 65.914062 C 65.558594 65.570312 64.328125 65.226562 63.101562 64.878906 C 62.671875 64.757812 62.242188 64.640625 61.816406 64.519531 C 61.234375 64.355469 60.648438 64.191406 60.066406 64.027344 C 59.824219 63.960938 59.824219 63.960938 59.574219 63.890625 C 57.230469 63.226562 55.417969 62.519531 54.109375 60.375 C 53.355469 58.835938 53.269531 57.171875 53.636719 55.503906 C 54.222656 53.851562 55.316406 52.566406 56.871094 51.757812 C 58.816406 50.851562 60.632812 51.121094 62.628906 51.695312 C 62.828125 51.75 63.027344 51.804688 63.230469 51.859375 C 63.875 52.039062 64.519531 52.222656 65.160156 52.40625 C 65.605469 52.527344 66.050781 52.652344 66.496094 52.777344 C 67.621094 53.089844 68.742188 53.40625 69.863281 53.722656 C 70.476562 53.898438 71.089844 54.070312 71.703125 54.242188 C 72.078125 54.347656 72.449219 54.453125 72.824219 54.558594 C 73 54.609375 73.179688 54.660156 73.359375 54.710938 C 74.1875 54.945312 75.011719 55.175781 75.835938 55.414062 C 76.058594 55.476562 76.058594 55.476562 76.289062 55.539062 C 76.5625 55.617188 76.835938 55.695312 77.105469 55.773438 C 77.769531 55.960938 78.425781 56.125 79.101562 56.25 C 78.195312 54.367188 77.222656 52.546875 76.152344 50.753906 C 75.085938 48.96875 74.058594 47.164062 73.023438 45.359375 C 72.671875 44.75 72.316406 44.144531 71.960938 43.539062 C 71.75 43.171875 71.539062 42.808594 71.324219 42.445312 C 71.230469 42.28125 71.132812 42.113281 71.03125 41.945312 C 70.082031 40.304688 69.636719 38.738281 70.011719 36.851562 C 70.519531 35.128906 71.433594 33.785156 72.976562 32.855469 C 74.632812 32 76.128906 31.785156 77.941406 32.25 C 80.550781 33.121094 81.714844 35.40625 82.996094 37.671875 C 83.1875 38.007812 83.378906 38.34375 83.574219 38.679688 C 83.773438 39.027344 83.972656 39.378906 84.167969 39.726562 C 86.464844 44.339844 86.464844 44.339844 89.453125 48.4375 C 89.503906 48.242188 89.550781 48.042969 89.605469 47.839844 C 90.074219 45.976562 90.542969 44.117188 91.015625 42.253906 C 91.261719 41.296875 91.503906 40.339844 91.742188 39.382812 C 91.976562 38.457031 92.210938 37.53125 92.445312 36.609375 C 92.535156 36.257812 92.625 35.90625 92.710938 35.554688 C 92.835938 35.058594 92.960938 34.5625 93.089844 34.070312 C 93.125 33.925781 93.160156 33.78125 93.195312 33.632812 C 93.660156 31.851562 94.449219 30.128906 96.070312 29.152344 C 98.683594 27.808594 101.066406 27.792969 103.507812 29.546875 Z M 103.507812 29.546875 "/>
<path style=" stroke:none;fill-rule:nonzero;fill:rgb(99.607843%,99.607843%,100%);fill-opacity:1;" d="M 154.492188 6.054688 C 154.71875 6.109375 154.941406 6.164062 155.171875 6.21875 C 163.367188 8.246094 171.3125 11.164062 178.90625 14.84375 C 179.210938 14.988281 179.210938 14.988281 179.523438 15.140625 C 182.339844 16.492188 185.050781 17.988281 187.730469 19.59375 C 188.246094 19.902344 188.765625 20.203125 189.285156 20.507812 C 193.945312 23.222656 198.40625 26.414062 202.539062 29.882812 C 202.878906 30.160156 203.222656 30.4375 203.5625 30.710938 C 206.941406 33.480469 210.105469 36.457031 213.195312 39.539062 C 213.347656 39.6875 213.347656 39.6875 213.5 39.84375 C 214.644531 40.980469 215.75 42.132812 216.796875 43.359375 C 217.082031 43.671875 217.367188 43.988281 217.652344 44.300781 C 218.402344 45.132812 219.121094 45.984375 219.824219 46.859375 C 220.179688 47.296875 220.539062 47.734375 220.898438 48.167969 C 222.484375 50.085938 223.960938 52.0625 225.390625 54.101562 C 225.550781 54.328125 225.550781 54.328125 225.710938 54.558594 C 235.367188 68.386719 242.222656 83.933594 247.023438 108.203125 C 247.058594 108.453125 247.09375 108.707031 247.132812 108.964844 C 247.851562 114.164062 248.148438 119.375 248.125 124.621094 C 248.121094 125.34375 248.121094 126.066406 248.125 126.792969 C 248.144531 132.128906 247.808594 137.445312 247.007812 142.726562 C 246.988281 142.863281 246.96875 143 246.949219 143.140625 C 245.210938 154.847656 241.929688 166.226562 236.914062 176.953125 C 236.820312 177.15625 236.726562 177.359375 236.628906 177.570312 C 232.089844 187.34375 226.269531 196.476562 219.261719 204.667969 C 218.777344 205.234375 218.3125 205.816406 217.847656 206.398438 C 217.175781 207.222656 216.460938 207.980469 215.691406 208.71875 C 215.320312 209.09375 214.980469 209.472656 214.636719 209.871094 C 213.78125 210.859375 212.855469 211.78125 211.929688 212.703125 C 211.632812 213 211.339844 213.296875 211.042969 213.59375 C 210.105469 214.53125 209.160156 215.449219 208.152344 216.308594 C 207.648438 216.742188 207.164062 217.199219 206.675781 217.652344 C 205.59375 218.652344 204.472656 219.585938 203.320312 220.507812 C 203.101562 220.6875 202.882812 220.863281 202.664062 221.042969 C 197.441406 225.289062 191.8125 229.132812 185.9375 232.421875 C 185.671875 232.570312 185.671875 232.570312 185.398438 232.726562 C 180.097656 235.703125 174.625 238.265625 168.945312 240.429688 C 168.820312 240.476562 168.695312 240.523438 168.566406 240.574219 C 153.359375 246.347656 136.820312 249.042969 119.554688 248.289062 C 119.378906 248.28125 119.203125 248.273438 119.019531 248.265625 C 102.605469 247.460938 86.480469 243.261719 71.679688 236.132812 C 71.382812 235.988281 71.382812 235.988281 71.078125 235.84375 C 66.828125 233.785156 62.742188 231.484375 58.789062 228.90625 C 58.640625 228.8125 58.496094 228.714844 58.34375 228.617188 C 54.429688 226.0625 50.664062 223.304688 47.070312 220.3125 C 46.96875 220.230469 46.871094 220.148438 46.769531 220.0625 C 45.398438 218.921875 44.066406 217.753906 42.761719 216.542969 C 42.46875 216.273438 42.175781 216.003906 41.871094 215.746094 C 40.566406 214.636719 39.371094 213.421875 38.164062 212.210938 C 37.78125 211.828125 37.398438 211.449219 37.019531 211.066406 C 35.835938 209.886719 34.671875 208.703125 33.59375 207.421875 C 33.308594 207.109375 33.023438 206.792969 32.738281 206.480469 C 31.816406 205.457031 30.941406 204.394531 30.078125 203.320312 C 29.898438 203.101562 29.722656 202.882812 29.542969 202.664062 C 24.402344 196.335938 19.988281 189.445312 16.210938 182.226562 C 16.105469 182.023438 16 181.820312 15.886719 181.613281 C 8.207031 166.859375 3.625 150.328125 2.539062 133.203125 C 2.527344 133.03125 2.515625 132.855469 2.503906 132.675781 C 1.589844 117.601562 3.523438 102.25 8.203125 87.890625 C 8.316406 87.535156 8.316406 87.535156 8.4375 87.175781 C 10.113281 82.070312 12.132812 77.113281 14.453125 72.265625 C 14.5625 72.039062 14.671875 71.8125 14.78125 71.578125 C 16.511719 67.980469 18.417969 64.535156 20.507812 61.132812 C 20.691406 60.828125 20.878906 60.523438 21.0625 60.21875 C 22.179688 58.394531 23.378906 56.628906 24.609375 54.882812 C 24.707031 54.742188 24.808594 54.601562 24.910156 54.453125 C 26.339844 52.429688 27.835938 50.480469 29.414062 48.574219 C 29.777344 48.132812 30.128906 47.6875 30.480469 47.242188 C 33.21875 43.816406 36.25 40.6875 39.34375 37.585938 C 39.460938 37.464844 39.582031 37.347656 39.703125 37.222656 C 40.953125 35.96875 42.203125 34.738281 43.554688 33.59375 C 43.855469 33.316406 44.15625 33.042969 44.457031 32.765625 C 45.324219 31.980469 46.226562 31.253906 47.152344 30.539062 C 47.902344 29.957031 48.644531 29.359375 49.378906 28.75 C 51.085938 27.339844 52.855469 26.050781 54.6875 24.804688 C 54.859375 24.6875 55.035156 24.566406 55.210938 24.445312 C 59.511719 21.511719 63.945312 18.820312 68.554688 16.40625 C 68.757812 16.300781 68.960938 16.195312 69.167969 16.082031 C 83.996094 8.367188 100.5625 3.828125 117.773438 2.734375 C 117.957031 2.722656 118.144531 2.710938 118.332031 2.699219 C 130.472656 2.015625 142.683594 3.167969 154.492188 6.054688 Z M 53.125 38.28125 C 53.011719 38.375 52.898438 38.46875 52.78125 38.566406 C 51.324219 39.773438 49.914062 41.023438 48.53125 42.3125 C 48.246094 42.574219 47.960938 42.832031 47.675781 43.085938 C 45.675781 44.898438 43.679688 46.761719 41.9375 48.828125 C 41.578125 49.242188 41.207031 49.648438 40.832031 50.050781 C 39.734375 51.234375 38.703125 52.453125 37.695312 53.710938 C 37.515625 53.933594 37.335938 54.152344 37.15625 54.375 C 33.597656 58.738281 30.324219 63.460938 27.539062 68.359375 C 27.441406 68.53125 27.339844 68.707031 27.238281 68.886719 C 23.78125 74.921875 20.886719 81.136719 18.554688 87.695312 C 18.484375 87.890625 18.414062 88.089844 18.339844 88.292969 C 12.730469 104.039062 10.910156 121.140625 17.382812 159.765625 C 17.445312 159.960938 17.503906 160.15625 17.566406 160.355469 C 22.476562 176.015625 31.15625 190.433594 42.304688 202.4375 C 42.589844 202.746094 42.875 203.058594 43.15625 203.367188 C 44.761719 205.125 46.386719 206.863281 48.199219 208.410156 C 48.65625 208.808594 49.097656 209.21875 49.535156 209.628906 C 50.574219 210.597656 51.628906 211.535156 52.738281 212.421875 C 53.171875 212.769531 53.597656 213.121094 54.023438 213.472656 C 68.042969 225.074219 85.339844 233.007812 136 238.203125 C 152.476562 236.609375 168.417969 231.410156 188.867188 219.140625 C 188.996094 219.050781 189.125 218.964844 189.253906 218.871094 C 192.148438 216.875 194.964844 214.765625 197.65625 212.5 C 197.761719 212.414062 197.863281 212.324219 197.972656 212.234375 C 200.167969 210.382812 202.296875 208.472656 204.3125 206.421875 C 204.628906 206.109375 204.949219 205.828125 205.296875 205.554688 C 205.878906 205.058594 206.34375 204.53125 206.839844 203.953125 C 207.273438 203.460938 207.734375 203 208.203125 202.539062 C 209.027344 201.722656 209.796875 200.882812 210.546875 200 C 210.71875 199.804688 210.890625 199.609375 211.0625 199.410156 C 212.601562 197.652344 214.03125 195.816406 215.429688 193.945312 C 215.542969 193.792969 215.660156 193.640625 215.777344 193.484375 C 218.261719 190.167969 220.515625 186.75 222.65625 183.203125 C 222.75 183.046875 222.847656 182.886719 222.945312 182.726562 C 230.875 169.492188 235.867188 154.351562 235.136719 98.136719 C 230.988281 81.640625 223.273438 66.160156 208.113281 48.367188 C 207.78125 48.015625 207.457031 47.660156 207.128906 47.300781 C 205.582031 45.625 203.980469 44.035156 202.296875 42.5 C 201.96875 42.203125 201.644531 41.902344 201.324219 41.601562 C 200.261719 40.613281 199.179688 39.664062 198.050781 38.753906 C 197.617188 38.40625 197.1875 38.058594 196.761719 37.703125 C 191.109375 33.035156 184.957031 29.074219 178.515625 25.585938 C 178.363281 25.503906 178.210938 25.417969 178.054688 25.332031 C 164.144531 17.738281 148.542969 13.75 132.8125 12.5 C 132.632812 12.484375 132.457031 12.472656 132.273438 12.457031 C 117.234375 11.308594 101.917969 13.785156 53.125 38.28125 Z M 53.125 38.28125 "/>
</g>
</svg>
