<?xml version="1.0" encoding="UTF-8" standalone="no"?>
<!-- Created with Inkscape (http://www.inkscape.org/) -->

<svg
   width="130"
   height="130"
   viewBox="0 0 130 130"
   version="1.1"
   id="svg1"
   xml:space="preserve"
   sodipodi:docname="GrabClick.svg"
   inkscape:version="1.1.1 (3bf5ae0d25, 2021-09-20)"
   xmlns:inkscape="http://www.inkscape.org/namespaces/inkscape"
   xmlns:sodipodi="http://sodipodi.sourceforge.net/DTD/sodipodi-0.dtd"
   xmlns="http://www.w3.org/2000/svg"
   xmlns:svg="http://www.w3.org/2000/svg"><sodipodi:namedview
     id="namedview7"
     pagecolor="#ffffff"
     bordercolor="#999999"
     borderopacity="1"
     inkscape:pageshadow="0"
     inkscape:pageopacity="0"
     inkscape:pagecheckerboard="0"
     showgrid="false"
     width="130px"
     inkscape:zoom="4.574097"
     inkscape:cx="32.684047"
     inkscape:cy="61.323579"
     inkscape:window-width="1920"
     inkscape:window-height="991"
     inkscape:window-x="-9"
     inkscape:window-y="-9"
     inkscape:window-maximized="1"
     inkscape:current-layer="svg1" /><defs
     id="defs1" /><g
     id="layer1"
     transform="matrix(1.3061224,0,0,1.3061224,0.4522712,0.45227122)"><path
       id="path1"
       style="display:inline;fill:#11ffd5;fill-opacity:0.851442;stroke-width:3.43;stroke-linecap:round"
       d="m 49.419356,0.41935485 c -27.061953,0 -49.00000115,21.93804815 -49.00000115,49.00000115 0,27.061953 21.93804815,48.999999 49.00000115,48.999999 27.061953,0 48.999999,-21.938046 48.999999,-48.999999 0,-27.061953 -21.938046,-49.00000115 -48.999999,-49.00000115 z m 0,7.90322585 C 72.046146,8.3200929 90.537049,26.79306 90.516129,49.419356 90.495209,72.045652 72.06486,90.522299 49.419356,90.516129 26.773852,90.509959 8.3169757,72.024575 8.3225807,49.419356 8.3281857,26.814137 26.792566,8.3250684 49.419356,8.3225807 Z" /><circle
       style="display:inline;fill:#11ffd5;fill-opacity:0.850771;stroke-width:2.32355;stroke-linecap:round"
       id="circle2"
       cx="49.419357"
       cy="49.419357"
       r="33.19355" /></g></svg>
