<?xml version="1.0" encoding="UTF-8" standalone="no"?>
<!-- Created with Inkscape (http://www.inkscape.org/) -->

<svg
   width="64"
   height="64"
   viewBox="0 0 64 64"
   version="1.1"
   id="svg1"
   xml:space="preserve"
   xmlns="http://www.w3.org/2000/svg"
   xmlns:svg="http://www.w3.org/2000/svg"><defs
     id="defs1" /><g
     id="layer1"
     transform="matrix(0.63265306,0,0,0.63265306,0.73469387,0.73469387)"><path
       id="path1"
       style="display:inline;fill:#11ffd5;fill-opacity:0.85144204;stroke-width:3.43;stroke-linecap:round"
       d="m 49.419356,0.41935485 c -27.061953,0 -49.00000115,21.93804815 -49.00000115,49.00000115 0,27.061953 21.93804815,48.999999 49.00000115,48.999999 27.061953,0 48.999999,-21.938046 48.999999,-48.999999 0,-27.061953 -21.938046,-49.00000115 -48.999999,-49.00000115 z m 0,7.90322585 C 72.046146,8.3200929 90.537049,26.79306 90.516129,49.419356 90.495209,72.045652 72.06486,90.522299 49.419356,90.516129 26.773852,90.509959 8.3169757,72.024575 8.3225807,49.419356 8.3281857,26.814137 26.792566,8.3250684 49.419356,8.3225807 Z" /><circle
       style="display:inline;fill:#11ffd5;fill-opacity:0.85077095;stroke-width:2.32355;stroke-linecap:round"
       id="circle2"
       cx="49.419357"
       cy="49.419357"
       r="33.19355" /></g></svg>
