<?xml version="1.0" encoding="UTF-8" standalone="no"?>
<!-- Created with Inkscape (http://www.inkscape.org/) -->

<svg
   width="64"
   height="64"
   viewBox="0 0 64 64"
   version="1.1"
   id="svg1"
   xml:space="preserve"
   sodipodi:docname="GrabHover.svg"
   inkscape:version="1.3.1 (9b9bdc1480, 2023-11-25, custom)"
   xmlns:inkscape="http://www.inkscape.org/namespaces/inkscape"
   xmlns:sodipodi="http://sodipodi.sourceforge.net/DTD/sodipodi-0.dtd"
   xmlns="http://www.w3.org/2000/svg"
   xmlns:svg="http://www.w3.org/2000/svg"><sodipodi:namedview
     id="namedview1"
     pagecolor="#ffffff"
     bordercolor="#111111"
     borderopacity="1"
     inkscape:showpageshadow="0"
     inkscape:pageopacity="0"
     inkscape:pagecheckerboard="1"
     inkscape:deskcolor="#d1d1d1"
     inkscape:zoom="12.25"
     inkscape:cx="32"
     inkscape:cy="32"
     inkscape:window-width="1854"
     inkscape:window-height="1008"
     inkscape:window-x="0"
     inkscape:window-y="0"
     inkscape:window-maximized="1"
     inkscape:current-layer="svg1" /><defs
     id="defs1" /><g
     id="layer1"
     transform="matrix(0.63265306,0,0,0.63265306,0.73469387,0.73469387)"><path
       id="path1"
       style="display:inline;fill:#11ffd5;fill-opacity:0.75106227;stroke-width:3.43;stroke-linecap:round"
       d="m 49.419356,0.41935485 c -27.061953,0 -49.00000115,21.93804815 -49.00000115,49.00000115 0,27.061953 21.93804815,48.999999 49.00000115,48.999999 27.061953,0 48.999999,-21.938046 48.999999,-48.999999 0,-27.061953 -21.938046,-49.00000115 -48.999999,-49.00000115 z m 0,7.90322585 C 72.046146,8.3200929 90.537049,26.79306 90.516129,49.419356 90.495209,72.045652 72.06486,90.522299 49.419356,90.516129 26.773852,90.509959 8.3169757,72.024575 8.3225807,49.419356 8.3281857,26.814137 26.792566,8.3250684 49.419356,8.3225807 Z" /><path
       id="path2"
       style="display:inline;fill:#0ed6b2;fill-opacity:0.4;stroke-width:2.87678;stroke-linecap:round"
       d="m 49.419356,8.3225807 c -22.697122,0 -41.0967753,18.3996533 -41.0967753,41.0967753 0,22.697121 18.3996533,41.096773 41.0967753,41.096773 22.697121,0 41.096773,-18.399652 41.096773,-41.096773 0,-22.697122 -18.399652,-41.0967753 -41.096773,-41.0967753 z m 0,7.9032253 c 18.283698,0 33.189614,14.980292 33.193547,33.19355 0.0039,18.213253 -14.942512,33.219918 -33.193547,33.193547 -18.251038,-0.02639 -33.201027,-14.849635 -33.19355,-33.193547 0.0075,-18.343915 14.909847,-33.19355 33.19355,-33.19355 z" /><circle
       style="display:inline;fill:#11ffd5;fill-opacity:0.75105667;stroke-width:2.32355;stroke-linecap:round"
       id="circle2"
       cx="49.419357"
       cy="49.419357"
       r="33.19355" /></g></svg>
