<?xml version="1.0" encoding="UTF-8" standalone="no"?>
<!-- Created with Inkscape (http://www.inkscape.org/) -->

<svg
   version="1.1"
   id="svg1"
   width="256"
   height="256"
   viewBox="0 0 256 256"
   xml:space="preserve"
   sodipodi:docname="HydrogenSulfide.svg"
   inkscape:version="1.3.1 (9b9bdc1480, 2023-11-25, custom)"
   xmlns:inkscape="http://www.inkscape.org/namespaces/inkscape"
   xmlns:sodipodi="http://sodipodi.sourceforge.net/DTD/sodipodi-0.dtd"
   xmlns="http://www.w3.org/2000/svg"
   xmlns:svg="http://www.w3.org/2000/svg"><sodipodi:namedview
     id="namedview1"
     pagecolor="#ffffff"
     bordercolor="#111111"
     borderopacity="1"
     inkscape:showpageshadow="0"
     inkscape:pageopacity="0"
     inkscape:pagecheckerboard="1"
     inkscape:deskcolor="#d1d1d1"
     showgrid="false"
     inkscape:clip-to-page="true"
     inkscape:zoom="1.9030122"
     inkscape:cx="111.92782"
     inkscape:cy="123.48844"
     inkscape:window-width="1854"
     inkscape:window-height="1008"
     inkscape:window-x="0"
     inkscape:window-y="0"
     inkscape:window-maximized="1"
     inkscape:current-layer="svg1" /><defs
     id="defs1"><filter
       style="color-interpolation-filters:sRGB"
       id="filter6"
       x="-0.0017746983"
       y="-0.0021205922"
       width="1.0035495"
       height="1.0042412"><feGaussianBlur
         stdDeviation="0.42078438"
         id="feGaussianBlur6" /></filter><filter
       style="color-interpolation-filters:sRGB"
       id="filter3"
       x="-0.0017360906"
       y="-0.0021171796"
       width="1.0034722"
       height="1.0042344"><feGaussianBlur
         stdDeviation="0.4181085"
         id="feGaussianBlur3" /></filter></defs><g
     id="g1"
     transform="matrix(1.26,0,0,1.26,2,2)"><circle
       style="display:inline;fill:#75782e;fill-opacity:1;stroke-width:0.25"
       id="path1451"
       cx="100"
       cy="100"
       r="100" /><path
       id="path4"
       style="display:inline;fill:#d5d94c;fill-opacity:1;stroke-width:0.25"
       d="m 74.033203,94.267578 c -6.06775,5.865052 -10.590069,10.179362 -18.431641,17.349612 -0.248378,3.13342 1.698343,4.52915 4.31836,5.02148 6.216978,-5.86769 12.539345,-11.6171 18.859375,-17.37305 0.187108,-1.90627 -2.636773,-4.717267 -4.746094,-4.998042 z m 51.931637,0 c -2.1093,0.280923 -4.93139,3.091772 -4.74414,4.998042 6.32043,5.75551 12.64396,11.50384 18.86133,17.3711 2.62,-0.4925 4.565,-1.88808 4.31641,-5.02149 -7.84207,-7.16971 -12.36544,-11.48302 -18.4336,-17.347652 z" /><path
       id="path3"
       style="display:inline;fill:#d5d94c;fill-opacity:1;stroke:none;stroke-width:1.02673;stroke-dasharray:none"
       d="M 47.5,106 A 18.5,18.5 0 0 0 29,124.5 18.5,18.5 0 0 0 47.5,143 18.5,18.5 0 0 0 66,124.5 18.5,18.5 0 0 0 47.5,106 Z m 105,0 A 18.5,18.5 0 0 0 134,124.5 18.5,18.5 0 0 0 152.5,143 18.5,18.5 0 0 0 171,124.5 18.5,18.5 0 0 0 152.5,106 Z" /><circle
       style="display:inline;fill:#d5d94c;fill-opacity:1;stroke:none;stroke-width:2.19219;stroke-dasharray:none"
       id="circle4"
       cx="100"
       cy="75.5"
       r="39.5" /></g></svg>
