<?xml version="1.0" encoding="UTF-8" standalone="no"?>
<!-- Created with Inkscape (http://www.inkscape.org/) -->

<svg
   version="1.1"
   id="svg1"
   width="512"
   height="512"
   viewBox="0 0 512 512"
   xmlns="http://www.w3.org/2000/svg"
   xmlns:svg="http://www.w3.org/2000/svg">
  <defs
     id="defs1">
    <filter
       style="color-interpolation-filters:sRGB"
       id="filter8"
       x="-0.0019203782"
       y="-0.0019196221"
       width="1.0038408"
       height="1.0038392">
      <feGaussianBlur
         stdDeviation="0.10557941"
         id="feGaussianBlur8" />
    </filter>
  </defs>
  <g
     id="g1"
     transform="matrix(2.52,0,0,2.52,4,4)">
    <circle
       style="display:inline;fill:#8a2413;fill-opacity:1;stroke-width:7.62031"
       id="path8"
       cx="100"
       cy="100"
       r="100" />
    <path
       id="path5"
       style="display:inline;mix-blend-mode:normal;fill:#f47119;fill-opacity:1;stroke-width:8.00326"
       d="m 147.84655,33.987249 c -6.71088,-0.0148 -13.68854,3.755893 -17.41854,10.953005 l -1.20873,3.676768 -28.10443,0.03944 -28.069478,-0.171693 c -2.263194,-8.064264 -8.46002,-13.331976 -17.082251,-14.462092 -6.699058,-0.533761 -13.254228,2.920916 -16.532013,7.070845 -4.755372,6.020669 -5.50799,14.104967 -2.215983,20.742698 2.608329,5.259219 8.189151,9.152352 12.523622,9.966117 0.34503,0.06478 0.10969,2.292634 0.163256,27.977855 l 0.05898,28.280408 c 0,0 -6.460336,1.44759 -10.392417,6.43039 -3.932082,4.98279 -5.919365,13.22902 -2.633783,20.34304 3.285581,7.11401 11.061638,11.48464 18.31111,11.11224 7.249471,-0.3724 15.212339,-5.51788 17.757768,-14.34044 0,0 2.353983,-0.41207 28.119529,-0.41207 25.76556,0 27.98225,0.21181 28.13049,0.25955 2.56812,7.96541 7.64082,11.63703 11.65896,13.12361 5.81347,2.15078 12.31934,1.31572 17.30659,-1.72296 4.33748,-2.64277 8.97842,-8.02558 8.87563,-16.46089 -0.10279,-8.43531 -5.75826,-16.09424 -14.75048,-18.41168 l 0.007,-28.036349 c 0.007,-25.79315 0.0499,-28.007478 0.35451,-28.090714 7.54732,-2.062428 10.87376,-7.395011 12.49499,-10.1311 2.6135,-5.547339 2.62126,-11.266474 -0.10469,-16.979288 -3.38157,-7.086826 -10.54201,-10.741892 -17.24992,-10.75669 z M 73.168922,57.118652 h 27.961548 27.96155 c 0.95505,5.332168 5.38289,12.794969 14.83461,15.000327 l -0.0259,27.826816 v 28.076955 c -7.84844,2.17628 -12.89875,6.53537 -14.77713,14.778 -9.46239,-0.11626 -18.55593,-0.0278 -28.02437,-0.0278 l -28.015696,-0.0405 C 71.31574,135.66393 67.120251,130.03595 58.360236,127.94456 V 99.914511 l 0.02187,-27.885817 c 3.723353,-0.830772 7.143526,-2.744479 9.626192,-5.192915 2.41451,-2.381219 4.135689,-5.605865 5.193292,-9.88882 z"
       transform="matrix(0.98221683,0,0,0.98180307,0.6223852,1.8490697)" />
  </g>
</svg>
