<?xml version="1.0" encoding="UTF-8" standalone="no"?>
<!-- Created with Inkscape (http://www.inkscape.org/) -->

<svg
   version="1.1"
   id="svg1"
   width="512"
   height="512"
   viewBox="0 0 512 512"
   sodipodi:docname="IsogamyButtonLargeNormal.svg"
   inkscape:version="1.4.2 (f4327f4, 2025-05-13)"
   xml:space="preserve"
   xmlns:inkscape="http://www.inkscape.org/namespaces/inkscape"
   xmlns:sodipodi="http://sodipodi.sourceforge.net/DTD/sodipodi-0.dtd"
   xmlns:xlink="http://www.w3.org/1999/xlink"
   xmlns="http://www.w3.org/2000/svg"
   xmlns:svg="http://www.w3.org/2000/svg"><defs
     id="defs1"><linearGradient
       id="linearGradient4"
       inkscape:collect="always"><stop
         style="stop-color:#194a60;stop-opacity:1;"
         offset="0.85042822"
         id="stop8" /><stop
         style="stop-color:#001315;stop-opacity:0.67058824;"
         offset="0.87"
         id="stop7" /><stop
         style="stop-color:#001315;stop-opacity:0.670588;"
         offset="0.99000001"
         id="stop5" /><stop
         style="stop-color:#001315;stop-opacity:0;"
         offset="1"
         id="stop6" /></linearGradient><radialGradient
       inkscape:collect="always"
       xlink:href="#linearGradient4"
       id="radialGradient6"
       cx="256"
       cy="256"
       fx="256"
       fy="256"
       r="254"
       gradientUnits="userSpaceOnUse" /><inkscape:path-effect
       effect="spiro"
       id="path-effect8"
       is_visible="true"
       lpeversion="1" /><inkscape:path-effect
       effect="skeletal"
       id="path-effect9"
       is_visible="true"
       lpeversion="1"
       pattern="M 0,4.9921384 C 0,2.236478 2.236478,0 4.9921384,0 c 2.7556605,0 4.9921385,2.236478 4.9921385,4.9921384 0,2.7556605 -2.236478,4.9921385 -4.9921385,4.9921385 C 2.236478,9.9842769 0,7.7477989 0,4.9921384 Z"
       copytype="single_stretched"
       prop_scale="-0.3083226"
       scale_y_rel="false"
       spacing="0"
       normal_offset="0"
       tang_offset="0"
       prop_units="false"
       vertical_pattern="false"
       hide_knot="false"
       fuse_tolerance="0" /><inkscape:path-effect
       effect="spiro"
       id="path-effect4"
       is_visible="true"
       lpeversion="1" /><inkscape:path-effect
       effect="skeletal"
       id="path-effect6"
       is_visible="true"
       lpeversion="1"
       pattern="M 0,4.9921384 C 0,2.236478 2.236478,0 4.9921384,0 c 2.7556605,0 4.9921385,2.236478 4.9921385,4.9921384 0,2.7556605 -2.236478,4.9921385 -4.9921385,4.9921385 C 2.236478,9.9842769 0,7.7477989 0,4.9921384 Z"
       copytype="single_stretched"
       prop_scale="-0.3083226"
       scale_y_rel="false"
       spacing="0"
       normal_offset="0"
       tang_offset="0"
       prop_units="false"
       vertical_pattern="false"
       hide_knot="false"
       fuse_tolerance="0" /><inkscape:path-effect
       effect="spiro"
       id="path-effect10"
       is_visible="true"
       lpeversion="1" /><inkscape:path-effect
       effect="skeletal"
       id="path-effect12"
       is_visible="true"
       lpeversion="1"
       pattern="M 0,4.9921384 C 0,2.236478 2.236478,0 4.9921384,0 c 2.7556605,0 4.9921385,2.236478 4.9921385,4.9921384 0,2.7556605 -2.236478,4.9921385 -4.9921385,4.9921385 C 2.236478,9.9842769 0,7.7477989 0,4.9921384 Z"
       copytype="single_stretched"
       prop_scale="-0.3083226"
       scale_y_rel="false"
       spacing="0"
       normal_offset="0"
       tang_offset="0"
       prop_units="false"
       vertical_pattern="false"
       hide_knot="false"
       fuse_tolerance="0" /></defs><sodipodi:namedview
     id="namedview1"
     pagecolor="#ffffff"
     bordercolor="#111111"
     borderopacity="1"
     inkscape:showpageshadow="0"
     inkscape:pageopacity="0"
     inkscape:pagecheckerboard="1"
     inkscape:deskcolor="#d1d1d1"
     inkscape:zoom="2.4801324"
     inkscape:cx="187.89319"
     inkscape:cy="236.47931"
     inkscape:window-width="1920"
     inkscape:window-height="1009"
     inkscape:window-x="-8"
     inkscape:window-y="-8"
     inkscape:window-maximized="1"
     inkscape:current-layer="svg1" /><g
     inkscape:groupmode="layer"
     inkscape:label="layer1"
     id="g1"><circle
       style="display:inline;fill:url(#radialGradient6);stroke-width:6.95631;stroke-linecap:round"
       id="path4"
       cx="256"
       cy="256"
       r="254"
       inkscape:label="circle" /></g><g
     inkscape:label="Layer 1"
     id="layer1"
     transform="matrix(0.6289495,0,0,0.6289495,179.73935,79.455467)"><ellipse
       style="fill:#f9f9f9;fill-opacity:0;stroke:#ffffff;stroke-width:9.16584;stroke-dasharray:none"
       id="path10"
       cx="112.93723"
       cy="374.93054"
       rx="107.52818"
       ry="75.753777"
       transform="matrix(-0.70710678,0.70710678,0.70710678,0.70710678,0,0)"
       inkscape:transform-center-x="-110.96832"
       inkscape:transform-center-y="110.97025" /><path
       id="path1"
       style="fill:#ffffff;stroke-width:0.321867"
       d="m 68.661874,187.78988 c 22.117545,-4e-5 40.047366,17.92979 40.047326,40.04733 -3e-4,22.1173 -17.930023,40.04675 -40.047326,40.04671 -22.117304,4e-5 -40.047028,-17.92941 -40.047328,-40.04671 -4.3e-5,-22.11755 17.929782,-40.04737 40.047328,-40.04733 z m 0,7.82829 c -20.019469,-6e-5 -32.219096,12.19957 -32.219037,32.21904 2.84e-4,20.01923 12.19981,32.21848 32.219037,32.21842 20.019226,6e-5 32.218756,-12.19919 32.219036,-32.21842 6e-5,-20.01947 -12.199568,-32.2191 -32.219036,-32.21904 z"
       sodipodi:nodetypes="cccccccccc"
       inkscape:transform-center-x="-9.9981761"
       inkscape:transform-center-y="9.5304514" /><path
       id="path2"
       style="display:none;fill:#ffffff;stroke-width:0.321867"
       d="m -3.4216346,111.18024 a 40.047253,40.047253 0 0 1 19.8881876,8.23825 l -2.707848,2.70785 a 36.248304,36.248304 0 0 0 -17.1803396,-7.11636 z m -9.6345604,0 v 3.82974 a 36.248304,36.248304 0 0 0 -17.18034,7.11636 l -2.70785,-2.70785 a 40.047253,40.047253 0 0 1 19.88819,-8.23825 z M 23.279574,126.231 a 40.047253,40.047253 0 0 1 8.23774,19.88819 H 27.68809 a 36.248304,36.248304 0 0 0 -7.116361,-17.18035 z m -63.036979,0 2.70784,2.70784 a 36.248304,36.248304 0 0 0 -7.11636,17.18035 h -3.82974 a 40.047253,40.047253 0 0 1 8.23826,-19.88819 z m 71.274719,29.52326 a 40.047253,40.047253 0 0 1 -8.23774,19.88767 l -2.707845,-2.70784 a 36.248304,36.248304 0 0 0 7.116361,-17.17983 z m -75.683239,0 a 36.248304,36.248304 0 0 0 7.11636,17.17983 l -2.70784,2.70784 a 40.047253,40.047253 0 0 1 -8.23826,-19.88767 z m 57.92463,23.99285 2.707848,2.70784 a 40.047253,40.047253 0 0 1 -19.8881876,8.23774 v -3.82922 a 36.248304,36.248304 0 0 0 17.1803396,-7.11636 z m -43.99524,0 a 36.248304,36.248304 0 0 0 17.18034,7.11636 v 3.82922 a 40.047253,40.047253 0 0 1 -19.88819,-8.23774 z"
       sodipodi:insensitive="true"
       inkscape:transform-center-x="56.597176"
       inkscape:transform-center-y="-57.064369" /><path
       style="display:none;fill:#ffffff;stroke:none;stroke-width:0.264583"
       d="m 40.282214,174.58441 c 0,0.81569 8.030815,1.48384 18.172279,1.53592 10e-7,0 10e-7,0 2e-6,0 0.422009,0.002 0.847674,0.003 1.276566,0.003 10.735764,0 19.448847,-0.68956 19.448847,-1.53919 0,-0.84963 -8.713083,-1.53919 -19.448847,-1.53919 -0.428892,0 -0.854557,0.001 -1.276566,0.003 -1e-6,0 -1e-6,0 -2e-6,0 -10.141464,0.0521 -18.172279,0.72023 -18.172279,1.53592 z"
       id="path8-7"
       inkscape:path-effect="#path-effect8;#path-effect9"
       inkscape:original-d="M 40.282214,174.58441 H 58.454495 79.179902"
       sodipodi:nodetypes="ccc"
       transform="matrix(-1,0,0,1,59.130292,-16.009544)"
       sodipodi:insensitive="true"
       inkscape:transform-center-x="49.982411"
       inkscape:transform-center-y="-50.449609" /><path
       style="display:none;fill:#ffffff;stroke:none;stroke-width:0.264583"
       d="m 40.282214,174.58441 c 0,0.81569 8.030815,1.48384 18.172279,1.53592 10e-7,0 10e-7,0 2e-6,0 0.422009,0.002 0.847674,0.003 1.276566,0.003 10.735764,0 19.448847,-0.68956 19.448847,-1.53919 0,-0.84963 -8.713083,-1.53919 -19.448847,-1.53919 -0.428892,0 -0.854557,0.001 -1.276566,0.003 -1e-6,0 -1e-6,0 -2e-6,0 -10.141464,0.0521 -18.172279,0.72023 -18.172279,1.53592 z"
       id="path3"
       inkscape:path-effect="#path-effect4;#path-effect6"
       inkscape:original-d="M 40.282214,174.58441 H 58.454495 79.179902"
       sodipodi:nodetypes="ccc"
       transform="matrix(-1,0,0,1,128.39293,53.252486)"
       sodipodi:insensitive="true"
       inkscape:transform-center-x="-9.9981725"
       inkscape:transform-center-y="9.530448" /><path
       style="display:none;fill:#ffffff;stroke:none;stroke-width:0.264583"
       d="m 40.282214,174.58441 c 0,0.81569 8.030815,1.48384 18.172279,1.53592 10e-7,0 10e-7,0 2e-6,0 0.422009,0.002 0.847674,0.003 1.276566,0.003 10.735764,0 19.448847,-0.68956 19.448847,-1.53919 0,-0.84963 -8.713083,-1.53919 -19.448847,-1.53919 -0.428892,0 -0.854557,0.001 -1.276566,0.003 -1e-6,0 -1e-6,0 -2e-6,0 -10.141464,0.0521 -18.172279,0.72023 -18.172279,1.53592 z"
       id="path6"
       inkscape:path-effect="#path-effect10;#path-effect12"
       inkscape:original-d="M 40.282214,174.58441 H 58.454495 79.179902"
       sodipodi:nodetypes="ccc"
       transform="matrix(0,1,1,0,-105.92254,168.10584)"
       sodipodi:insensitive="true"
       inkscape:transform-center-x="-9.9981735"
       inkscape:transform-center-y="9.5304525" /><path
       style="display:none;fill:#ffffff;stroke:#ffffff;stroke-width:0.264583"
       d="m 51.293104,182.81553 c 0.733375,-1.36265 0.475281,7.12751 -15.539321,-4.57375 -14.030474,-10.25153 -7.013274,-16.48051 -6.950646,-12.79251 0.04402,2.5924 1.785055,4.89049 3.423333,6.84671 3.159165,3.77226 7.460174,6.63931 11.839095,8.81635 12.050362,5.99099 5.990646,4.0014 7.227539,1.7032 z"
       id="path4-6"
       sodipodi:nodetypes="sssass"
       sodipodi:insensitive="true"
       inkscape:transform-center-x="15.3681"
       inkscape:transform-center-y="-36.462715" /><path
       style="fill:#ffffff;stroke:#ffffff;stroke-width:0.264583"
       d="m 33.847659,216.2155 c -2.553275,4.23911 5.672302,-1.3768 -6.028958,-17.3914 -10.25153,-14.03047 -16.480506,-7.01327 -12.79251,-6.95065 2.5924,0.044 -11.0346956,-4.80211 5.06077,5.93688 4.352616,2.90409 9.618827,13.39277 10.139269,18.25524 1.162344,10.85973 4.968018,-2.08576 3.621429,0.14993 z"
       id="path5"
       sodipodi:nodetypes="ssssss"
       inkscape:transform-center-x="29.371358"
       inkscape:transform-center-y="-10.017035" /><path
       id="path9"
       style="fill:#ffffff;stroke-width:0.321867"
       d="m 4.3570654,118.83129 c 7.3476096,0.90724 14.0789356,3.80475 19.6375506,8.13645 l -4.818305,4.81831 c -4.07035,-2.76579 -9.053106,-4.53089 -14.8192456,-5.16557 z m -9.91568,0 v 7.78919 c -5.7662004,0.63463 -10.7493704,2.39929 -14.8197704,5.16506 l -4.81779,-4.8178 c 5.55867,-4.33168 12.28989,-7.22928 19.6375604,-8.13645 z M 31.006075,133.9792 c 4.331748,5.55861 7.229176,12.28993 8.136454,19.63756 H 31.35334 c -0.634706,-5.76617 -2.399729,-10.7489 -5.165576,-14.81925 z m -63.21371,0 4.8178,4.81779 c -2.76594,4.07039 -4.53086,9.05349 -5.16558,14.81977 h -7.78919 c 0.90729,-7.34773 3.80513,-14.07891 8.13697,-19.63756 z m 71.350164,29.55323 c -0.907257,7.34766 -3.804715,14.07894 -8.136454,19.63756 l -4.817794,-4.81779 c 2.765817,-4.07035 4.530355,-9.05357 5.165059,-14.81977 z m -71.697944,0 c 0.63472,5.76632 2.39967,10.74937 5.16558,14.81977 l -4.8178,4.81779 c -4.33183,-5.55866 -7.2297,-12.2898 -8.13697,-19.63756 z m 51.732236,21.83123 4.817795,4.81779 c -5.558625,4.33173 -12.289911,7.22921 -19.6375506,8.13646 v -7.78919 c 5.7661796,-0.63468 10.7493956,-2.39924 14.8197556,-5.16506 z m -39.555206,0 c 4.07042,2.7658 9.05352,4.53043 14.8197704,5.16506 v 7.78919 c -7.3477004,-0.90718 -14.0788704,-3.80475 -19.6375604,-8.13646 z"
       inkscape:transform-center-x="49.982644"
       inkscape:transform-center-y="-50.449839" /><path
       style="display:none;fill:#ececec;stroke:#ffffff;stroke-width:0.264583"
       d="m 19.235879,194.48821 -5.706204,5.70621"
       id="path11"
       sodipodi:insensitive="true"
       inkscape:transform-center-x="35.274871"
       inkscape:transform-center-y="-16.878346" /><path
       style="fill:#ffffff;stroke:#ffffff;stroke-width:0.264583"
       d="m 54.726766,191.20241 c 4.7555,-1.36911 -2.797989,5.12268 -15.238393,-10.32475 -10.8991,-13.53357 -2.50883,-17.73412 -3.40287,-14.15558 -0.62846,2.51545 -1.78249,-11.90158 4.42476,6.42491 1.6786,4.95593 10.446891,12.75737 15.008974,14.51859 10.188858,3.93344 -3.300505,4.25889 -0.792471,3.53683 z"
       id="path12"
       sodipodi:nodetypes="ssssss"
       inkscape:transform-center-x="9.0987751"
       inkscape:transform-center-y="-33.973802" /><path
       d="m -56.997007,240.28346 h -2.605702 q -0.451655,0 -0.729597,-0.22583 -0.277942,-0.22582 -0.416912,-0.57325 l -2.327761,-6.01049 h -11.169778 l -2.327761,6.01049 q -0.121599,0.31268 -0.416912,0.55588 -0.295313,0.2432 -0.729597,0.2432 h -2.605702 l 9.953783,-24.89314 h 3.422156 z m -16.311697,-9.24156 h 9.293672 l -3.908554,-10.12749 q -0.382169,-0.93805 -0.746968,-2.34513 -0.191084,0.71222 -0.382169,1.32022 -0.173714,0.59062 -0.347427,1.04228 z"
       id="text2"
       style="font-size:34.7427px;line-height:0.347427px;font-family:Lato;-inkscape-font-specification:Lato;fill:#f9f9f9;stroke:#ffffff;stroke-width:34.7427;stroke-opacity:0"
       inkscape:label="text2"
       inkscape:transform-center-x="-9.9981795"
       inkscape:transform-center-y="9.5304535"
       transform="scale(-1,1)"
       aria-label="A" /><path
       d="m -9.3735844,171.02116 v -24.89314 h 7.9387066 q 2.29301812,0 3.9432963,0.45166 1.6676495,0.45165 2.7273018,1.28548 1.0770237,0.83382 1.5807928,2.04981 0.5211405,1.19863 0.5211405,2.70993 0,0.92069 -0.2953129,1.77188 -0.2779416,0.8512 -0.8685675,1.5808 -0.5732545,0.72959 -1.4591933,1.30285 -0.8685675,0.57325 -2.0498193,0.93805 2.7273019,0.53851 4.1170098,1.96296 1.389708,1.42445 1.389708,3.75221 0,1.5808 -0.5906259,2.88365 -0.5732545,1.30285 -1.7023922,2.2409 -1.1117664,0.93805 -2.7446732,1.45919 -1.6155355,0.50377 -3.70009743,0.50377 z m 3.3700417,-11.34349 v 8.66831 h 5.38511832 q 1.441822,0 2.46673158,-0.33006 1.042281,-0.33006 1.7023923,-0.92068 0.6774826,-0.608 0.9901669,-1.42445 0.3126843,-0.83383 0.3126843,-1.82399 0,-1.92822 -1.3723366,-3.03999 -1.3549653,-1.12914 -4.11700983,-1.12914 z m 0,-2.39724 h 4.4470655 q 1.4244506,0 2.46673156,-0.31269 1.04228094,-0.31268 1.71976354,-0.86857 0.694854,-0.55588 1.0249097,-1.33759 0.3300556,-0.79908 0.3300556,-1.73713 0,-2.18879 -1.3202226,-3.2137 -1.3202225,-1.02491 -4.0996384,-1.02491 h -4.5686649 z"
       id="text1"
       style="font-size:34.7427px;line-height:0.347427px;font-family:Lato;-inkscape-font-specification:Lato;fill:#f9f9f9;stroke:#ffffff;stroke-width:34.7427;stroke-opacity:0"
       inkscape:transform-center-x="-49.982409"
       inkscape:transform-center-y="-50.449611"
       aria-label="B" /><rect
       style="fill:#ffffff;stroke:#ffffff;stroke-width:0.131818"
       id="rect1"
       width="22.20225"
       height="6.5493369"
       x="-290.2511"
       y="109.57278"
       transform="matrix(-0.70710678,-0.70710678,-0.70710678,0.70710678,0,0)"
       inkscape:transform-center-x="-52.372483"
       inkscape:transform-center-y="52.264455" /><path
       sodipodi:type="star"
       style="fill:#ffffff;stroke:#ffffff;stroke-width:0.264583"
       id="path7"
       inkscape:flatsided="true"
       sodipodi:sides="3"
       sodipodi:cx="198.47278"
       sodipodi:cy="88.805939"
       sodipodi:r1="19.25573"
       sodipodi:r2="9.6278648"
       sodipodi:arg1="2.0943951"
       sodipodi:arg2="3.1415927"
       inkscape:rounded="0"
       inkscape:randomized="0"
       d="m 188.84491,105.48189 0,-33.351902 28.8836,16.675951 z"
       inkscape:transform-center-x="-44.153261"
       transform="matrix(-0.35228709,-0.35228709,-0.35228709,0.35228709,208.0656,304.18706)"
       inkscape:transform-center-y="43.267096" /></g></svg>
