<?xml version="1.0" encoding="UTF-8" standalone="no"?>
<!-- Created with Inkscape (http://www.inkscape.org/) -->

<svg
   version="1.1"
   id="svg1"
   width="512"
   height="512"
   viewBox="0 0 512 512"
   xml:space="preserve"
   sodipodi:docname="Luciferase.svg"
   inkscape:version="1.4 (e7c3feb100, 2024-10-09)"
   xmlns:inkscape="http://www.inkscape.org/namespaces/inkscape"
   xmlns:sodipodi="http://sodipodi.sourceforge.net/DTD/sodipodi-0.dtd"
   xmlns="http://www.w3.org/2000/svg"
   xmlns:svg="http://www.w3.org/2000/svg"><sodipodi:namedview
     id="namedview1"
     pagecolor="#ffffff"
     bordercolor="#666666"
     borderopacity="1.0"
     inkscape:showpageshadow="2"
     inkscape:pageopacity="0.0"
     inkscape:pagecheckerboard="0"
     inkscape:deskcolor="#d1d1d1"
     inkscape:zoom="1.1640625"
     inkscape:cx="101.79866"
     inkscape:cy="393.44966"
     inkscape:window-width="2560"
     inkscape:window-height="1403"
     inkscape:window-x="0"
     inkscape:window-y="0"
     inkscape:window-maximized="1"
     inkscape:current-layer="svg1" /><defs
     id="defs1" /><circle
     style="display:inline;fill:#8ce0ff;fill-opacity:1;stroke-width:0.63"
     id="path1451"
     cx="256"
     cy="256"
     r="252" /><path
     style="fill:#ffffff;fill-opacity:1;stroke:none;stroke-width:0.781;stroke-linejoin:bevel;stroke-dashoffset:49.138"
     id="path1"
     sodipodi:type="arc"
     sodipodi:cx="256"
     sodipodi:cy="153.7718"
     sodipodi:rx="80.751678"
     sodipodi:ry="80.751678"
     sodipodi:start="0"
     sodipodi:end="6.2552725"
     sodipodi:open="true"
     sodipodi:arc-type="arc"
     d="m 336.75168,153.7718 a 80.751678,80.751678 0 0 1 -80.18818,80.74972 80.751678,80.751678 0 0 1 -81.30731,-79.62275 80.751678,80.751678 0 0 1 79.05343,-81.860949 80.751678,80.751678 0 0 1 82.4106,78.480269" /><path
     style="fill:#ffffff;fill-opacity:1;stroke:none;stroke-width:0.781;stroke-linejoin:bevel;stroke-dashoffset:49.138"
     id="path2"
     sodipodi:type="arc"
     sodipodi:cx="256"
     sodipodi:cy="200.79486"
     sodipodi:rx="63.314991"
     sodipodi:ry="69.328575"
     sodipodi:start="0"
     sodipodi:end="6.2552725"
     sodipodi:open="true"
     sodipodi:arc-type="arc"
     d="m 319.31499,200.79486 a 63.314991,69.328575 0 0 1 -62.87317,69.32689 63.314991,69.328575 0 0 1 -63.75064,-68.35934 63.314991,69.328575 0 0 1 61.98344,-70.28093 63.314991,69.328575 0 0 1 64.61571,67.37848" /><path
     style="fill:#ffffff;fill-opacity:1;stroke:none;stroke-width:0.781;stroke-linejoin:bevel;stroke-dashoffset:49.138"
     id="path3"
     sodipodi:type="arc"
     sodipodi:cx="256"
     sodipodi:cy="284.42117"
     sodipodi:rx="69.154358"
     sodipodi:ry="15.892617"
     sodipodi:start="0"
     sodipodi:end="3.1409485"
     sodipodi:arc-type="slice"
     d="m 325.15436,284.42117 a 69.154358,15.892617 0 0 1 -69.13209,15.89262 69.154358,15.892617 0 0 1 -69.17661,-15.88238 L 256,284.42117 Z" /><path
     style="fill:#ffffff;fill-opacity:1;stroke:none;stroke-width:0.781;stroke-linejoin:bevel;stroke-dashoffset:49.138"
     id="path3-2"
     sodipodi:type="arc"
     sodipodi:cx="256"
     sodipodi:cy="322.62418"
     sodipodi:rx="69.154358"
     sodipodi:ry="15.892617"
     sodipodi:start="0"
     sodipodi:end="3.1409485"
     sodipodi:arc-type="slice"
     d="m 325.15436,322.62418 a 69.154358,15.892617 0 0 1 -69.13209,15.89261 69.154358,15.892617 0 0 1 -69.17661,-15.88238 L 256,322.62418 Z" /><path
     style="fill:#ffffff;fill-opacity:1;stroke:none;stroke-width:0.781;stroke-linejoin:bevel;stroke-dashoffset:49.138"
     id="path3-2-7"
     sodipodi:type="arc"
     sodipodi:cx="256"
     sodipodi:cy="359.28189"
     sodipodi:rx="69.154358"
     sodipodi:ry="15.892617"
     sodipodi:start="0"
     sodipodi:end="3.1409485"
     sodipodi:arc-type="slice"
     d="m 325.15436,359.28189 a 69.154358,15.892617 0 0 1 -69.13209,15.89262 69.154358,15.892617 0 0 1 -69.17661,-15.88238 L 256,359.28189 Z" /><path
     style="fill:#ffffff;fill-opacity:1;stroke:none;stroke-width:0.781;stroke-linejoin:bevel;stroke-dashoffset:49.138"
     id="path3-2-7-6"
     sodipodi:type="arc"
     sodipodi:cx="256"
     sodipodi:cy="398.56375"
     sodipodi:rx="69.154358"
     sodipodi:ry="15.892617"
     sodipodi:start="0"
     sodipodi:end="3.1409485"
     sodipodi:arc-type="slice"
     d="m 325.15436,398.56375 a 69.154358,15.892617 0 0 1 -69.13209,15.89262 69.154358,15.892617 0 0 1 -69.17661,-15.88238 L 256,398.56375 Z" /></svg>
