<?xml version="1.0" encoding="UTF-8" standalone="no"?>
<!-- Created with Inkscape (http://www.inkscape.org/) -->

<svg
   width="64"
   height="64"
   viewBox="0 0 64 64"
   version="1.1"
   id="svg1"
   xml:space="preserve"
   sodipodi:docname="MapDotIndicator.svg"
   xmlns:inkscape="http://www.inkscape.org/namespaces/inkscape"
   xmlns:sodipodi="http://sodipodi.sourceforge.net/DTD/sodipodi-0.dtd"
   xmlns="http://www.w3.org/2000/svg"
   xmlns:svg="http://www.w3.org/2000/svg"><sodipodi:namedview
     id="namedview1"
     pagecolor="#ffffff"
     bordercolor="#000000"
     borderopacity="0.25"
     inkscape:showpageshadow="2"
     inkscape:pageopacity="0.0"
     inkscape:pagecheckerboard="0"
     inkscape:deskcolor="#d1d1d1" /><defs
     id="defs1" /><g
     id="layer1"
     transform="matrix(0.63265306,0,0,0.63265306,0.73469387,0.73469387)"
     style="fill:#4cd7bd;fill-opacity:0.85098"><path
       id="path1"
       style="display:inline;fill:#4cd7bd;fill-opacity:0.85098;stroke-width:3.43;stroke-linecap:round"
       d="m 49.419356,0.41935485 c -27.061953,0 -49.00000115,21.93804815 -49.00000115,49.00000115 0,27.061953 21.93804815,48.999999 49.00000115,48.999999 27.061953,0 48.999999,-21.938046 48.999999,-48.999999 0,-27.061953 -21.938046,-49.00000115 -48.999999,-49.00000115 z m 0,7.90322585 C 72.046146,8.3200929 90.537049,26.79306 90.516129,49.419356 90.495209,72.045652 72.06486,90.522299 49.419356,90.516129 26.773852,90.509959 8.3169757,72.024575 8.3225807,49.419356 8.3281857,26.814137 26.792566,8.3250684 49.419356,8.3225807 Z" /><circle
       style="display:inline;fill:#4cd7bd;fill-opacity:0.85098;stroke-width:2.32355;stroke-linecap:round"
       id="circle2"
       cx="49.419357"
       cy="49.419357"
       r="33.19355" /></g><path
     style="fill:#4cd7bd;fill-opacity:0.85098;stroke-width:0.0823681"
     d="M 29.570142,52.825564 C 25.897372,52.410976 22.145323,50.862029 19.07766,48.493983 18.164904,47.789391 16.210609,45.835096 15.506017,44.92234 13.095456,41.799602 11.577042,38.079914 11.165366,34.28896 c -0.111747,-1.029028 -0.111747,-3.548892 0,-4.57792 0.259481,-2.389456 0.94187,-4.705616 2.0557,-6.977449 2.848964,-5.810914 8.312261,-10.003947 14.701714,-11.283436 0.543629,-0.108862 1.348346,-0.237017 1.78826,-0.284789 1.029028,-0.111747 3.548892,-0.111747 4.57792,0 4.792154,0.520401 9.350708,2.761152 12.747517,6.266025 2.394277,2.470447 4.151689,5.490937 5.103006,8.770612 0.280368,0.96657 0.587312,2.515984 0.695151,3.509037 0.111747,1.029028 0.111747,3.548892 0,4.57792 -0.418441,3.85325 -1.991182,7.649836 -4.477046,10.807565 -0.662542,0.841609 -2.56928,2.726833 -3.435248,3.396489 -3.113477,2.40766 -6.841592,3.929853 -10.63338,4.34162 -0.943517,0.102461 -3.779061,0.09701 -4.718818,-0.0091 z"
     id="path2" /><path
     style="fill:#56d9c1;fill-opacity:0.85098;stroke-width:0.0823681"
     d="M 29.734878,62.884047 C 22.133018,62.252402 15.42768,59.169949 10.128866,53.871134 5.107829,48.850098 2.0747414,42.563732 1.2256067,35.418275 c -0.2032887,-1.710672 -0.2032887,-5.125878 0,-6.83655 0.6044423,-5.086374 2.2421345,-9.562199 5.033089,-13.75547 2.1474637,-3.226458 5.1786623,-6.2846984 8.3616393,-8.4362334 8.14227,-5.50377382 18.258818,-6.83898325 27.529432,-3.6334089 8.334243,2.881798 15.140848,9.3287353 18.502858,17.5251483 3.05883,7.457278 3.062526,15.983972 0.01015,23.409639 -1.579503,3.842533 -3.837363,7.227676 -6.79053,10.180843 -4.990095,4.990095 -11.415033,8.099155 -18.371599,8.890109 -1.39802,0.158954 -4.523445,0.22492 -5.765766,0.121695 z m 4.48906,-4.941194 C 42.840743,57.170547 50.508454,52.208208 54.716893,44.680355 56.809416,40.93735 57.877308,37.04415 58.003028,32.700129 58.181751,26.524653 56.226604,20.673398 52.347134,15.773488 51.468818,14.664143 49.338851,12.533775 48.226512,11.65209 44.127395,8.4029615 39.310486,6.4964079 34.059202,6.0446055 32.704922,5.9280879 29.951591,5.9952782 28.632869,6.1770257 23.048083,6.9467265 18.019786,9.3722069 14.002448,13.234246 5.9131258,21.010858 3.6982227,32.842143 8.4230936,43.037323 c 0.7590968,1.637956 1.9957584,3.620132 3.2374884,5.189189 0.846984,1.070254 2.983836,3.216633 4.030538,4.048508 4.231196,3.362777 9.010677,5.246811 14.455598,5.698283 0.789331,0.06545 3.20887,0.04738 4.07722,-0.03045 z"
     id="path3" /><path
     style="fill:#56d9c1;fill-opacity:0.85098;stroke-width:0.0823681"
     d="m 30.393822,52.83749 c -3.639552,-0.1714 -7.666221,-1.684015 -10.972012,-4.121628 -1.169556,-0.862403 -3.518865,-3.25709 -4.359879,-4.444091 -2.374799,-3.351776 -3.679971,-6.973032 -3.903465,-10.83033 -0.219551,-3.789273 0.336894,-6.8625 1.838145,-10.151995 1.626918,-3.564854 4.113557,-6.471668 7.425901,-8.680677 3.325969,-2.218096 6.973451,-3.385876 10.877359,-3.482504 1.932222,-0.04782 3.296751,0.05439 4.814866,0.360667 7.835394,1.58079 14.225148,7.644998 16.146514,15.323879 0.546861,2.18557 0.733189,4.331371 0.584312,6.729072 -0.239492,3.857074 -1.680531,7.71028 -4.128153,11.038307 -0.785235,1.067683 -3.09363,3.366393 -4.197461,4.179851 -2.489829,1.834855 -5.452028,3.160572 -8.374074,3.747775 -1.668752,0.335345 -3.469381,0.439172 -5.752053,0.331674 z"
     id="path4" /><path
     style="fill:#6cc3b3;fill-opacity:0.85098;stroke-width:0.0823681"
     d="M 28.540541,62.761454 C 24.461715,62.247993 20.621322,61.031519 17.209827,59.172361 12.617425,56.669648 8.4826055,52.751393 5.6576088,48.225198 3.2233149,44.324985 1.5722725,39.339169 1.1847773,34.718147 1.0415665,33.010306 1.1357714,29.115401 1.3541152,27.71686 2.2783423,21.796975 4.3968614,16.951921 8.0170317,12.478764 8.93306,11.346901 11.537521,8.7569926 12.684685,7.8371926 17.310012,4.128587 23.132251,1.7770201 29.158301,1.1836002 c 1.28738,-0.1267758 4.426827,-0.1260085 5.683398,0.00139 3.866029,0.3919573 7.365957,1.3777626 10.707851,3.0160207 3.214131,1.5756267 5.564151,3.250187 8.185733,5.8329301 8.393458,8.269109 11.334433,20.55635 7.598913,31.747867 -1.596252,4.782324 -4.121764,8.786784 -7.805594,12.376574 -4.851824,4.727965 -10.667778,7.557431 -17.53375,8.530182 -1.317314,0.186633 -6.17355,0.23412 -7.454311,0.07289 z m 7.124839,-4.978466 c 4.736279,-0.719079 8.842837,-2.497329 12.567944,-5.44226 1.102487,-0.871585 3.234444,-3.003629 4.114047,-4.114216 2.583749,-3.262241 4.393558,-7.137244 5.177562,-11.085743 0.376377,-1.895552 0.454061,-2.782125 0.454061,-5.181953 0,-2.468404 -0.08582,-3.395678 -0.493232,-5.329027 C 56.644719,22.638632 54.875896,18.927881 52.232305,15.608752 51.96169,15.268983 51.088676,14.340836 50.292275,13.546201 45.878093,9.1418111 40.406556,6.6045134 34.116568,6.0450951 32.790431,5.9271514 29.767608,5.9974017 28.556998,6.1742994 22.867566,7.0056553 17.940375,9.4141372 13.890226,13.343629 9.7026702,17.406433 7.1002638,22.490287 6.2163908,28.33462 c -0.2240589,1.481519 -0.3048429,4.264516 -0.168587,5.807789 0.4624824,5.238204 2.3827356,10.04104 5.6639912,14.166471 0.781074,0.982024 3.031609,3.219141 4.061693,4.037477 2.773434,2.203318 6.048907,3.868438 9.389961,4.773483 1.439886,0.390044 2.478289,0.579618 4.694981,0.857127 0.158558,0.01985 1.270528,0.02372 2.471042,0.0086 1.700086,-0.02142 2.43775,-0.06621 3.335908,-0.202572 z"
     id="path5" /><path
     style="fill:#6cc3b3;fill-opacity:0.85098;stroke-width:0.0823681"
     d="m 30.06435,52.838662 c -1.877295,-0.15689 -3.486189,-0.524526 -5.391732,-1.232021 -1.87146,-0.694842 -4.550778,-2.214423 -5.810327,-3.295338 -0.502112,-0.430901 -2.924067,-2.877541 -2.924067,-2.953869 0,-0.04971 -0.06597,-0.12568 -0.146591,-0.16883 -0.139451,-0.07463 -0.941094,-1.140779 -1.181636,-1.571519 -0.06227,-0.111504 -0.156807,-0.250409 -0.210087,-0.308676 -0.761993,-0.833326 -2.514877,-4.955588 -2.794675,-6.572244 -0.01568,-0.0906 -0.08238,-0.405663 -0.14822,-0.700129 C 11.207104,34.91833 11.129166,33.973906 11.123942,32 c -0.0051,-1.918987 0.05845,-2.707108 0.316419,-3.925626 0.02071,-0.09783 0.06324,-0.348481 0.09451,-0.556997 0.03127,-0.208516 0.09024,-0.399757 0.13106,-0.424982 0.04081,-0.02522 0.0573,-0.07321 0.03665,-0.106639 -0.115506,-0.186892 0.736735,-2.567304 1.448647,-4.046245 1.271341,-2.64111 2.915526,-4.811808 5.056276,-6.675431 0.466066,-0.405733 0.88349,-0.737696 0.927607,-0.737696 0.04412,0 0.101549,-0.0556 0.127626,-0.123553 0.02608,-0.06795 0.08829,-0.123552 0.138247,-0.123552 0.04996,0 0.153054,-0.06228 0.229098,-0.138404 0.463255,-0.463737 3.965711,-2.468483 3.969638,-2.272153 6.93e-4,0.03469 0.02849,0.02461 0.06178,-0.02239 0.123381,-0.174226 2.08899,-0.869171 3.269392,-1.155901 1.988616,-0.483052 2.8821,-0.574626 5.439771,-0.55753 1.841943,0.01231 2.278722,0.05022 3.541828,0.307418 0.09061,0.01845 0.312999,0.05888 0.494208,0.08985 0.634805,0.108491 2.149835,0.55905 3.047619,0.90634 1.267719,0.490392 3.571993,1.66924 3.651652,1.868155 0.0151,0.03771 0.062,0.06856 0.104228,0.06856 0.117456,0 0.980285,0.590255 0.980285,0.670607 0,0.03889 0.04633,0.0716 0.10296,0.07269 0.366339,0.0071 2.998484,2.481756 4.027881,3.786949 0.696159,0.882674 1.470189,2.008216 1.470189,2.13785 0,0.04735 0.0329,0.08609 0.07312,0.08609 0.12191,0 1.365341,2.527538 1.768267,3.59438 0.36098,0.955779 0.830314,2.630736 0.908478,3.242171 0.02027,0.158559 0.07676,0.462485 0.125539,0.675393 0.04878,0.212908 0.08791,0.472367 0.08695,0.576576 -9.52e-4,0.10421 0.02602,0.374801 0.05995,0.601313 0.08022,0.535605 0.08401,3.515666 0.0056,4.37044 -0.06452,0.703083 -0.280303,2.0527 -0.361364,2.26019 -0.02655,0.06795 -0.06609,0.253282 -0.08788,0.411841 -0.02179,0.158558 -0.241405,0.899871 -0.48804,1.647362 -0.889486,2.695824 -2.657774,5.778202 -4.184076,7.293443 -0.230308,0.22864 -0.514966,0.525165 -0.632573,0.658944 -0.244101,0.277672 -1.543856,1.513616 -2.003517,1.905157 -0.433891,0.36959 -1.498776,1.09741 -1.605638,1.09741 -0.04922,0 -0.0895,0.02895 -0.0895,0.06433 0,0.103378 -1.354955,0.875377 -2.471042,1.4079 -0.566281,0.270192 -1.585586,0.678223 -2.265122,0.906737 -1.434182,0.482283 -2.410561,0.715767 -3.66538,0.876509 -0.158559,0.02031 -0.418018,0.05711 -0.576577,0.08178 -0.528399,0.0822 -3.489246,0.109162 -4.324324,0.03937 z"
     id="path6" /><path
     style="fill:#6cc3b3;fill-opacity:0.85098;stroke-width:0.0823681"
     d="M 28.705277,62.748654 C 27.852497,62.658004 25.738545,62.26334 24.591742,61.980678 18.643066,60.51446 13.625884,57.536459 9.289483,52.897859 5.3005345,48.630926 2.6586604,43.307694 1.5751628,37.353925 1.2452255,35.540935 1.1655632,34.500552 1.1746728,32.123552 1.1844407,29.574767 1.282966,28.223286 1.5739904,26.646075 2.5300324,21.464789 4.4583676,17.137394 7.6668746,12.972973 8.6184263,11.737925 11.798842,8.5582711 13.046414,7.5947237 16.803385,4.6930705 21.242932,2.6731763 26.02713,1.6887893 c 2.111922,-0.4345448 3.164464,-0.5287236 5.931686,-0.5307524 2.667193,-0.00196 3.118839,0.030627 5.148005,0.371379 5.095156,0.8556164 10.14249,3.0901669 14.002574,6.1992052 7.307196,5.8854549 11.502721,14.2405489 11.753622,23.4065139 0.174966,6.39185 -1.62098,12.692773 -5.106248,17.914835 -2.915507,4.368374 -7.314545,8.275336 -11.91594,10.583022 -3.250614,1.630244 -7.355976,2.818043 -10.670057,3.087155 -0.967213,0.07854 -5.794587,0.09982 -6.465495,0.02851 z m 5.559845,-4.802173 c 1.389284,-0.09565 2.625947,-0.309211 4.297593,-0.742168 1.801044,-0.466471 3.14768,-0.97252 4.927632,-1.851741 1.654889,-0.817444 2.774182,-1.506628 4.324325,-2.662624 1.326333,-0.989092 3.926844,-3.602239 4.947127,-4.971163 3.061788,-4.108035 4.854105,-8.799606 5.192324,-13.591441 0.115205,-1.632185 0.04715,-4.570194 -0.134629,-5.812214 -0.652981,-4.461522 -2.581769,-8.932354 -5.3929,-12.500458 C 51.694078,14.884906 49.261002,12.479393 48.185328,11.621454 44.268106,8.497145 39.836559,6.6653185 34.800515,6.0887012 33.132364,5.8977011 29.61933,5.964789 28.130206,6.2160829 22.175555,7.2209469 17.362137,9.7309751 13.261261,13.969715 9.9765062,17.364898 7.8516576,21.205612 6.6810653,25.863578 6.1726792,27.886524 5.9738636,29.65479 5.9725358,32.165241 c -0.003,5.668766 1.8240191,10.992385 5.4063302,15.753128 0.916641,1.218178 3.604765,3.873242 4.902349,4.842059 3.681733,2.748895 7.520482,4.342719 12.176957,5.055795 1.443018,0.220979 3.740617,0.272517 5.80695,0.130258 z"
     id="path7" /><path
     style="fill:#6cc3b3;fill-opacity:0.85098;stroke-width:0.0823681"
     d="M 28.200215,62.680433 C 22.848494,61.950171 17.694901,59.882651 13.684424,56.856983 11.207533,54.988316 8.6560818,52.406959 6.9043338,49.997426 4.6603719,46.910852 2.9686316,43.235465 2.0194429,39.384767 1.3519765,36.67697 1.1914227,35.274948 1.1917417,32.156936 1.1920869,28.782205 1.3491944,27.350267 2.0177848,24.628057 3.1070145,20.193185 5.068247,16.214706 7.902536,12.690479 8.7225318,11.670876 11.497303,8.8767189 12.586112,7.9741826 13.47198,7.239868 15.15708,6.0728015 16.298373,5.4031431 20.375487,3.0108828 25.173168,1.5141102 29.817246,1.1855475 31.40326,1.073339 34.26434,1.1377156 35.706564,1.3180619 c 6.27647,0.7848559 12.287417,3.4968894 16.72072,7.5440959 3.19405,2.9158792 5.42922,5.8255992 7.214769,9.3921092 1.651685,3.299124 2.574759,6.45374 3.094226,10.574562 0.16283,1.29169 0.137695,5.258676 -0.04227,6.671815 -0.761301,5.977875 -2.925259,11.198286 -6.49493,15.668606 -1.091,1.366265 -3.602618,3.873615 -4.983827,4.975355 -1.986692,1.584714 -3.831922,2.752657 -5.912805,3.742524 -3.17103,1.508447 -7.068559,2.593377 -10.187882,2.835934 -1.485887,0.115542 -5.957215,0.08797 -6.914348,-0.04263 z m 6.106091,-4.735798 c 3.394581,-0.254231 7.170531,-1.414315 10.330363,-3.173792 0.999764,-0.556696 2.674046,-1.668701 3.466291,-2.302202 0.886109,-0.708558 2.453933,-2.20765 3.359706,-3.212421 3.396319,-3.767524 5.654103,-8.637459 6.356579,-13.710846 0.282104,-2.037396 0.23994,-5.932219 -0.0843,-7.78733 -0.750998,-4.296725 -2.545599,-8.365093 -5.213853,-11.81982 -0.725395,-0.939207 -3.213033,-3.414545 -4.33576,-4.314322 C 44.523041,8.6888656 40.345683,6.8899662 35.500644,6.1614846 34.10528,5.951683 29.844489,5.9538082 28.458172,6.1649973 22.524982,7.0688491 17.439805,9.6673837 13.342578,13.889092 9.9779336,17.35596 7.8302093,21.228507 6.6740272,25.91311 6.17162,27.948756 5.9729835,29.709173 5.9732723,32.123552 c 6.267e-4,5.240044 1.5302471,10.1549 4.5373797,14.579151 1.08565,1.597264 2.148659,2.803214 3.951212,4.482518 3.992955,3.719938 8.836153,5.950433 14.572885,6.711423 1.041546,0.138163 3.739582,0.162726 5.271557,0.04799 z"
     id="path8" /><path
     style="fill:#6cc3b3;fill-opacity:0.493282;stroke-width:0.0823681"
     d="M 28.458172,62.717953 C 25.565467,62.360368 22.134913,61.407667 19.392885,60.200429 13.974391,57.814815 8.9636296,53.424544 5.688806,48.193345 3.3842894,44.512113 1.675545,39.481665 1.2721209,35.190871 1.1744869,34.15244 1.2076709,29.025416 1.3172969,28.211068 1.8546421,24.219448 3.2137843,20.106359 5.0608637,16.882138 6.678129,14.059076 8.039329,12.331189 10.694829,9.7304686 c 1.48727,-1.4565907 2.426955,-2.2414684 3.785749,-3.1620713 2.565525,-1.7381807 4.980176,-2.9302536 7.882356,-3.8913882 3.540868,-1.172653 6.767476,-1.6408919 10.584299,-1.5359723 4.511016,0.1240021 8.523561,1.1183062 12.684685,3.1432497 3.213998,1.5640407 5.665064,3.356693 8.405858,6.1478505 2.393502,2.437481 4.093582,4.811135 5.599619,7.81819 1.657647,3.309771 2.648965,6.690636 3.101768,10.578502 0.15803,1.356883 0.130599,5.232162 -0.04723,6.671815 -0.726636,5.882755 -2.924902,11.188822 -6.483656,15.649935 -0.997703,1.250682 -3.365886,3.658617 -4.604676,4.681973 -1.947711,1.608989 -3.733873,2.773213 -5.889318,3.838671 -2.960519,1.463414 -5.898328,2.384499 -9.348778,2.931105 -1.011837,0.160291 -6.854842,0.24573 -7.907336,0.115625 z m 5.642214,-4.770976 c 5.085864,-0.347951 10.334801,-2.464296 14.37323,-5.795212 1.031503,-0.850787 3.23755,-3.106216 4.004256,-4.093887 2.991248,-3.853329 4.781295,-8.139538 5.399068,-12.927891 0.154899,-1.200618 0.130148,-5.402273 -0.03908,-6.634052 C 57.240369,24.146899 55.426728,19.810323 52.669914,16.138915 52.018835,15.271836 49.59634,12.801735 48.504707,11.891856 44.821521,8.82191 40.544114,6.941872 35.500644,6.1762119 33.458179,5.866141 29.565621,5.9480416 27.469755,6.3451843 21.32931,7.5087284 16.158049,10.50214 12.106822,15.238095 5.7743078,22.640918 4.1867103,33.186675 8.0458233,42.213642 c 1.1176056,2.614225 2.6638177,5.036277 4.5078217,7.061241 2.617495,2.874361 5.548531,5.031761 8.829848,6.499243 2.405583,1.075833 5.41433,1.884247 8.063096,2.166457 0.890186,0.09484 3.312325,0.09817 4.653797,0.0064 z"
     id="path9" /><path
     style="fill:#6cc3b3;fill-opacity:0.493282;stroke-width:0.0823681"
     d="M 29.734878,52.781495 C 27.531076,52.58125 24.829269,51.77125 22.655303,50.659041 20.499992,49.556377 19.32975,48.739264 17.884674,47.327984 c -2.717332,-2.653784 -3.90846,-4.34479 -5.143507,-7.302072 -0.858907,-2.056625 -1.337598,-3.893334 -1.512012,-5.8015 -0.136614,-1.494615 -0.04427,-4.614572 0.171884,-5.807424 0.09851,-0.543629 0.211332,-1.099613 0.250716,-1.235521 0.03938,-0.135907 0.151658,-0.543629 0.249499,-0.906049 0.383838,-1.421808 1.294835,-3.500635 2.212534,-5.048836 0.794853,-1.340955 1.67059,-2.484875 2.797789,-3.654578 2.706243,-2.80829 6.184764,-4.852057 9.85805,-5.791991 2.090666,-0.534967 2.455625,-0.574195 5.312741,-0.57104 2.499121,0.0028 2.635512,0.01119 3.706564,0.229136 2.867706,0.58354 5.410617,1.609086 7.546246,3.043372 0.484713,0.325533 0.940312,0.628944 1.012442,0.674246 1.023582,0.642882 3.312024,2.911537 4.334003,4.296529 1.024566,1.388498 1.464004,2.109248 2.101057,3.446071 0.937664,1.967643 1.457632,3.549228 1.814336,5.518661 0.226306,1.249472 0.314892,4.459544 0.163571,5.92725 -0.319657,3.100444 -1.572161,6.497386 -3.443852,9.340141 -0.727781,1.105365 -1.308626,1.774298 -2.87252,3.308153 -1.206934,1.183751 -1.674814,1.579788 -2.604401,2.204492 -2.854451,1.918255 -5.961542,3.116889 -9.108632,3.513869 -0.935087,0.117954 -3.998725,0.161246 -4.996304,0.0706 z"
     id="path10" /><path
     style="fill:#6cc3b3;fill-opacity:0.493282;stroke-width:0.0823681"
     d="m 29.446589,52.75289 c -2.244845,-0.269077 -4.54951,-0.975485 -6.67484,-2.045919 -2.312682,-1.164795 -3.419498,-1.944462 -5.090228,-3.585673 -2.497601,-2.453474 -3.666034,-4.10848 -4.831369,-6.843306 -1.341761,-3.148865 -1.747979,-5.326747 -1.666916,-8.936937 0.04477,-1.993776 0.15844,-2.91542 0.559287,-4.534669 0.406157,-1.640699 1.56018,-4.29893 2.554818,-5.884893 1.60034,-2.55176 4.04119,-5.003908 6.513381,-6.543527 2.860818,-1.781647 5.948156,-2.863283 8.972389,-3.143438 0.639692,-0.05926 1.762711,-0.07675 2.999386,-0.04673 1.763034,0.04281 2.106549,0.07477 3.176208,0.29556 1.487072,0.306945 2.809862,0.70443 3.987673,1.198258 4.724661,1.980937 8.621927,5.641755 10.792189,10.137425 1.184482,2.453641 1.767043,4.44408 2.020446,6.90328 0.147451,1.43097 0.06388,4.505182 -0.157081,5.77832 -0.57794,3.329976 -2.229298,7.020958 -4.256379,9.513513 -0.572758,0.704279 -2.991088,3.078865 -3.619684,3.554208 -2.736111,2.069045 -6.113306,3.532267 -9.395789,4.070871 -0.955244,0.156741 -4.889917,0.232749 -5.883491,0.113654 z"
     id="path11" /><path
     style="fill:#6cc3b3;fill-opacity:0.493282;stroke-width:0.0823681"
     d="M 28.458172,62.717953 C 26.761453,62.508211 24.099736,61.914257 22.445302,61.376199 18.833637,60.201608 15.359507,58.298967 12.478764,55.917928 11.212793,54.871557 8.7707876,52.3867 7.7611062,51.117484 4.5826534,47.122026 2.5265142,42.546762 1.5757158,37.353925 1.2687719,35.677535 1.1943372,34.66429 1.1943372,32.162392 c 0,-3.506972 0.1815626,-5.082694 0.9090678,-7.889497 1.0639919,-4.105011 2.8945548,-7.860547 5.4075544,-11.094002 1.2704737,-1.634707 4.3134776,-4.6754363 5.7914856,-5.7871576 3.678183,-2.7666371 8.11227,-4.7539049 12.724685,-5.7029461 2.115184,-0.4352159 3.16361,-0.5288887 5.931686,-0.5299729 2.668294,-0.00105 3.106118,0.030588 5.189189,0.3749179 3.665272,0.6058672 7.435757,1.9952918 10.696771,3.9417618 2.319156,1.3842836 4.034158,2.7581382 6.208371,4.9734059 2.369265,2.414002 4.105626,4.836566 5.579748,7.784845 1.666719,3.333476 2.652118,6.692577 3.108089,10.595082 0.133934,1.146302 0.129812,5.11581 -0.0066,6.342342 -0.665495,5.984309 -2.898697,11.441385 -6.556116,16.020592 -1.00191,1.254423 -3.370292,3.649176 -4.657046,4.7089 -3.772301,3.10673 -7.879,5.113161 -12.808237,6.257788 -2.206728,0.512429 -2.907729,0.578837 -6.424711,0.608643 -1.766795,0.01497 -3.490347,-0.0071 -3.830116,-0.04914 z m 6.960103,-4.893803 c 4.354434,-0.576246 8.70935,-2.375548 12.314029,-5.087731 1.408517,-1.059777 3.536758,-3.161933 4.774345,-4.715827 1.042348,-1.308755 2.339688,-3.41435 3.070388,-4.983269 1.915068,-4.111925 2.646501,-8.082539 2.375881,-12.897567 -0.09847,-1.752012 -0.210137,-2.506567 -0.620651,-4.19381 C 56.317146,21.773712 54.274296,17.844627 51.579692,14.881816 47.081164,9.9355289 42.089214,7.2183378 35.630984,6.2007041 34.674688,6.0500191 34.15937,6.0243105 32.082368,6.0236687 29.460197,6.0228585 28.795194,6.0798008 26.893179,6.4680051 20.301774,7.8133211 14.561857,11.587206 10.610207,17.173745 8.0506831,20.792205 6.3934048,25.396687 6.0594674,29.817246 5.6345827,35.441735 6.8591478,40.70568 9.6809909,45.384813 c 1.1884121,1.970606 2.1598971,3.199516 3.9068451,4.942085 1.45861,1.454955 2.496468,2.31963 3.956566,3.296352 3.560549,2.381806 7.668735,3.869601 11.941206,4.324555 1.004581,0.106973 4.785405,0.02817 5.932667,-0.123655 z"
     id="path12" /><path
     style="fill:#6cc3b3;fill-opacity:0.493282;stroke-width:0.0823681"
     d="M 28.1287,62.672651 C 25.98396,62.379846 23.201903,61.690822 21.311232,60.984187 16.79648,59.296807 13.306332,57.00108 9.8224465,53.427165 5.5021807,48.995256 2.8602069,43.901897 1.6132791,37.60103 1.292925,35.982244 1.1943372,34.720415 1.1943372,32.238979 c 0,-2.709512 0.087294,-4.005288 0.3761753,-5.583874 C 2.4930838,21.613729 4.5017849,17.059068 7.5138051,13.178893 8.7911193,11.533419 11.729709,8.5864609 13.220077,7.4563729 17.528925,4.1891406 22.821758,2.0265224 28.252252,1.31432 c 1.357994,-0.1780991 4.399686,-0.2433571 6.021251,-0.1291829 3.742211,0.2634886 7.565445,1.2800899 11.052011,2.9387397 2.067762,0.9836875 4.21926,2.3267964 5.871426,3.6653361 1.716561,1.39071 4.436718,4.2247051 5.687071,5.9250731 2.359184,3.208279 4.09492,6.883266 5.057431,10.70785 0.370731,1.47312 0.755736,3.721511 0.841223,4.912659 0.0948,1.320966 0.06343,4.702416 -0.05414,5.836376 -0.429769,4.144841 -1.796981,8.434292 -3.833502,12.027118 -1.338771,2.361859 -2.868727,4.34956 -4.982816,6.473618 -3.137725,3.152522 -6.200396,5.252989 -9.933529,6.8127 -2.760583,1.153378 -6.148594,2.023006 -8.687602,2.229917 -1.466543,0.119514 -6.182181,0.09194 -7.162372,-0.04187 z m 5.800354,-4.728373 c 4.894214,-0.310033 9.811188,-2.177297 13.885618,-5.273188 1.461822,-1.110744 3.73318,-3.396287 4.914028,-4.944722 2.780939,-3.646617 4.654524,-8.275156 5.131026,-12.675784 0.235001,-2.1703 0.155591,-5.636551 -0.17074,-7.452834 -0.69041,-3.842657 -2.282664,-7.623857 -4.545173,-10.793631 -1.534071,-2.149232 -4.25976,-4.7815 -6.605846,-6.379435 C 43.188508,8.1433449 39.828554,6.8575696 35.418275,6.1694395 34.311476,5.9967471 30.212524,5.9685774 28.911197,6.1247203 25.31806,6.5558515 21.271646,7.9944368 18.246601,9.9162086 11.109598,14.450254 6.6544929,21.81238 6.046719,30.07669 c -0.4221815,5.740687 1.0346729,11.369294 4.186061,16.172988 1.126912,1.717766 1.830732,2.562328 3.561173,4.2733 3.902026,3.858124 8.597051,6.255601 14.055675,7.17742 1.928195,0.325621 3.6798,0.395889 6.079426,0.24388 z"
     id="path13" /><path
     style="fill:#6cc3b3;fill-opacity:0.493282;stroke-width:0.0823681"
     d="M 28.33462,62.710037 C 27.36111,62.600593 25.048361,62.11878 23.63964,61.731935 19.592794,60.620641 15.712972,58.599684 12.4742,55.915978 11.438375,55.057674 8.9445561,52.574746 8.1429113,51.603604 4.3762219,47.040498 1.9860209,41.437269 1.3096815,35.584806 1.1147044,33.897642 1.1871707,28.857604 1.4269528,27.428571 1.9077368,24.563237 2.6083966,22.134429 3.6605296,19.685972 4.0778873,18.714724 4.961925,16.970801 5.3424105,16.368162 5.4488034,16.19965 5.732642,15.746718 5.9731629,15.361647 8.0132699,12.095464 11.692575,8.3655893 15.032175,6.1781267 18.902299,3.6431671 23.470099,1.9607245 28.252252,1.3088205 c 1.357466,-0.18505 5.78417,-0.2148874 7.124839,-0.048024 4.825863,0.6006415 9.305385,2.1788108 13.174773,4.641572 2.045973,1.3022063 3.449895,2.4602836 5.453159,4.4982405 2.949899,3.000985 5.066636,6.188502 6.606264,9.948134 2.486079,6.070775 2.946298,12.966242 1.29164,19.352673 -1.11581,4.306659 -2.992593,8.078713 -5.707586,11.4714 -0.99807,1.247199 -3.452397,3.733637 -4.700542,4.762041 -2.856415,2.353529 -6.065215,4.141387 -9.528261,5.308891 -2.326248,0.784253 -4.745119,1.310494 -6.795367,1.478373 -1.204387,0.09862 -5.926076,0.09027 -6.836551,-0.01208 z m 6.677151,-4.849882 c 4.093207,-0.449753 8.415538,-2.10334 11.938036,-4.567115 2.790006,-1.951442 5.601574,-4.969998 7.310086,-7.848257 2.860328,-4.818674 4.013865,-9.586777 3.68837,-15.245738 C 57.897804,29.321776 57.801102,28.283938 57.73337,27.892739 56.935052,23.281924 54.958806,18.906048 52.153709,15.538044 51.396848,14.629303 49.488185,12.731447 48.510019,11.914988 44.354233,8.4462186 39.117804,6.3667359 33.72996,6.0455528 31.808468,5.9310078 29.143631,6.0462211 27.71686,6.3055272 22.161516,7.3151733 17.516572,9.7431788 13.547404,13.712185 9.8685265,17.390914 7.4918398,21.842483 6.4661152,26.975547 c -0.314833,1.575528 -0.4063275,2.43406 -0.4652359,4.365508 -0.097482,3.196192 0.4190804,6.455672 1.4946491,9.431146 0.956554,2.646228 2.4571141,5.331038 4.1597266,7.442605 1.210086,1.500739 3.462813,3.654225 5.030561,4.808944 1.665272,1.226551 4.271537,2.635436 6.204027,3.353751 2.255326,0.838314 5.026659,1.446606 7.298059,1.601882 0.782357,0.05348 3.968781,-0.02527 4.823869,-0.119228 z"
     id="path14" /><path
     style="fill:#6cc3b3;fill-opacity:0.493282;stroke-width:0.0823681"
     d="M 28.664093,62.757023 C 21.952522,61.851639 16.472511,59.440099 11.81982,55.344511 10.063967,53.798901 8.2846321,51.876109 6.9860081,50.120978 3.9728685,46.048627 1.9085254,40.767353 1.3119987,35.604981 1.1331096,34.056865 1.1861961,28.88843 1.3942889,27.593308 2.3272885,21.786535 4.5574253,16.736439 8.068915,12.478764 8.7241173,11.684333 11.301612,9.0745323 12.23166,8.2638441 16.312544,4.7066903 22.278232,2.1159085 28.252252,1.3064131 29.596569,1.1242547 34.221333,1.096279 35.459459,1.2628159 41.4966,2.0748545 46.69813,4.2155722 51.068211,7.6866817 c 1.299049,1.0318213 4.089624,3.8247053 5.117451,5.1216853 3.590152,4.530294 5.689456,9.539488 6.5069,15.526253 0.176512,1.292729 0.204679,5.588148 0.04537,6.918919 -0.648365,5.41609 -2.489067,10.292624 -5.487067,14.536776 -0.949057,1.343543 -1.826072,2.360645 -3.380642,3.920636 -2.769944,2.779603 -5.011966,4.41384 -8.238306,6.005002 -2.882673,1.421672 -5.845666,2.356693 -9.057895,2.858367 -0.920533,0.143766 -1.542539,0.171082 -4.368103,0.191837 -1.812098,0.01331 -3.40592,0.0092 -3.541827,-0.0091 z m 6.383526,-4.899484 c 1.940838,-0.209467 4.649822,-0.905611 6.579928,-1.690884 3.800323,-1.54618 6.840201,-3.669384 9.626678,-6.723759 3.623159,-3.971496 5.949337,-9.015005 6.57874,-14.263712 0.139782,-1.165667 0.1865,-4.412639 0.08189,-5.691411 C 57.515565,24.60683 55.141916,18.956 51.967175,15.328431 51.031323,14.259095 49.085312,12.379222 48.089309,11.58236 43.997611,8.3087596 38.984885,6.3700788 33.775974,6.0466529 30.086766,5.8175866 26.753802,6.2692516 23.378278,7.4556919 17.115606,9.6569163 11.68502,14.445509 8.7343365,20.368454 7.4901216,22.865983 6.7404856,25.188529 6.3021412,27.90396 5.61818,32.140924 6.0408516,36.714962 7.4912524,40.772201 c 0.8496286,2.376685 2.7065456,5.68983 4.2009956,7.495495 0.707496,0.854829 2.783127,2.949193 3.627101,3.659835 4.095274,3.448298 9.22878,5.574888 14.539081,6.022915 0.949535,0.08011 4.110441,0.02352 5.189189,-0.09291 z"
     id="path15" /><path
     style="fill:#6cc3b3;fill-opacity:0.493282;stroke-width:0.0823681"
     d="M 28.664093,62.752334 C 23.624313,62.168097 18.55774,60.275526 14.520497,57.469129 12.547441,56.097604 10.144073,53.922006 8.5033458,52.02223 5.3736393,48.398386 3.1431879,44.050438 1.9827575,39.311269 1.2920146,36.490293 1.1611929,35.125291 1.2158467,31.309272 c 0.03874,-2.704898 0.061635,-3.083385 0.2524731,-4.173682 0.8938122,-5.106547 2.8030777,-9.636714 5.6912016,-13.503672 0.9203629,-1.23229 1.3805033,-1.749096 3.0105946,-3.381349 1.660054,-1.6622543 2.365719,-2.2943992 3.461802,-3.1011339 3.899351,-2.869985 8.659114,-4.8723507 13.461407,-5.6630255 1.66224,-0.27368 2.785563,-0.3541037 4.947859,-0.3542391 2.16815,-1.358e-4 3.209112,0.075347 4.876817,0.3536291 5.247318,0.8755967 10.144666,3.0214616 14.15021,6.2001806 1.184218,0.9397712 4.118921,3.8547208 5.016267,4.9825028 5.915487,7.434562 8.108542,16.86857 6.060486,26.070782 -0.877641,3.94337 -2.52474,7.68801 -4.804883,10.923789 -1.039953,1.475811 -1.877335,2.452742 -3.468423,4.046435 -2.027676,2.030994 -3.520231,3.246423 -5.603962,4.56346 -3.748598,2.369328 -8.75647,4.075944 -13.055341,4.449085 -0.86229,0.07485 -5.960497,0.09844 -6.548262,0.0303 z m 4.942085,-4.80512 c 6.691385,-0.369185 12.861513,-3.322248 17.552469,-8.400726 3.472155,-3.758991 5.724443,-8.392526 6.543088,-13.460816 0.30021,-1.858619 0.363742,-4.702925 0.157494,-7.050923 C 57.49635,24.903613 55.449884,19.82778 52.684036,16.198758 51.756972,14.982373 49.412664,12.630496 48.052096,11.551863 43.018638,7.5614321 36.958721,5.6726401 30.393822,6.0480246 27.990715,6.1854357 25.981384,6.5773091 23.680824,7.3572395 18.479192,9.1206843 13.934176,12.528028 10.69657,17.091377 5.241851,24.77971 4.4610774,35.094389 8.6944605,43.540943 c 1.5676405,3.127797 3.4086895,5.498644 6.2553465,8.055452 2.887837,2.593794 6.75246,4.633568 10.625483,5.608203 2.856943,0.718942 4.950754,0.912557 8.030888,0.742616 z"
     id="path16" /></svg>
