<?xml version="1.0" encoding="UTF-8" standalone="no"?>
<!-- Created with Inkscape (http://www.inkscape.org/) -->

<svg
   width="64"
   height="64"
   viewBox="0 0 64 64"
   version="1.1"
   id="svg1"
   xml:space="preserve"
   xmlns="http://www.w3.org/2000/svg"
   xmlns:svg="http://www.w3.org/2000/svg"><defs
     id="defs1" /><g
     id="layer1"><path
       id="path2"
       style="display:inline;fill:#3b4c43;fill-opacity:1;stroke-width:0.717057"
       d="M 10.572266 15.267578 C 10.138858 15.240777 9.4007585 15.8562 7.3105469 17.917969 C 3.9662079 21.216799 4.4318168 21.187209 5.0039062 21.816406 C 5.5759957 22.445604 14.578818 32.540909 20.939453 39.673828 C 27.30009 46.806747 29.882517 51.0278 31.998047 51 L 31.998047 39.935547 C 23.318166 29.935099 11.961428 16.653003 11.25 15.837891 C 10.983214 15.532224 10.83231 15.283659 10.572266 15.267578 z M 53.425781 15.267578 C 53.165737 15.283659 53.016786 15.532224 52.75 15.837891 C 52.038572 16.653003 40.679881 29.935099 32 39.935547 L 32 51 C 34.11553 51.0278 36.697957 46.806747 43.058594 39.673828 C 49.419228 32.540909 58.422051 22.445604 58.994141 21.816406 C 59.56623 21.187209 60.031839 21.216799 56.6875 17.917969 C 54.597288 15.8562 53.859189 15.240777 53.425781 15.267578 z " /><path
       id="path4"
       style="display:inline;fill:#ffffff;fill-opacity:1;stroke-width:0.679291"
       d="M 10.199219 16.525391 C 9.8081052 16.577892 9.306315 17.221867 7.9570312 18.623047 C 5.5583046 21.114033 5.5277197 20.928141 6.6035156 22.148438 C 7.6793115 23.368734 15.524629 32.360188 21.640625 39.017578 C 27.756621 45.67497 29.965834 49.826728 32 49.800781 C 34.034166 49.826728 36.243379 45.67497 42.359375 39.017578 C 48.475371 32.360188 56.320688 23.368734 57.396484 22.148438 C 58.47228 20.928141 58.441695 21.114033 56.042969 18.623047 C 53.644242 16.13206 53.924959 16.03385 52.740234 17.400391 C 51.55551 18.76693 40.346038 31.892812 32 41.226562 C 23.653962 31.892812 12.44449 18.76693 11.259766 17.400391 C 10.741449 16.802529 10.503418 16.484556 10.199219 16.525391 z " /></g></svg>
