<?xml version="1.0" encoding="UTF-8"?>
<svg xmlns="http://www.w3.org/2000/svg" xmlns:xlink="http://www.w3.org/1999/xlink" width="500px" height="500px" viewBox="0 0 500 500" version="1.1">
<g id="surface1">
<path style=" stroke:none;fill-rule:nonzero;fill:rgb(10.196079%,12.941177%,16.078432%);fill-opacity:1;" d="M 250.292969 4.222656 C 250.980469 4.222656 250.980469 4.222656 251.679688 4.222656 C 258.707031 4.234375 265.660156 4.371094 272.65625 5.078125 C 273.421875 5.152344 273.421875 5.152344 274.203125 5.230469 C 291.894531 7.003906 309.25 10.542969 326.171875 16.015625 C 326.628906 16.164062 327.085938 16.308594 327.558594 16.460938 C 355.871094 25.660156 382.640625 40.214844 405.570312 59.203125 C 406.554688 60.019531 407.550781 60.816406 408.546875 61.621094 C 410.222656 62.996094 411.84375 64.421875 413.445312 65.882812 C 414.265625 66.628906 415.09375 67.355469 415.929688 68.082031 C 417.597656 69.539062 419.214844 71.039062 420.824219 72.558594 C 421.257812 72.96875 421.257812 72.96875 421.699219 73.382812 C 424.734375 76.253906 427.757812 79.128906 430.46875 82.3125 C 431.316406 83.277344 432.191406 84.214844 433.070312 85.152344 C 435.09375 87.304688 437.050781 89.480469 438.894531 91.789062 C 439.621094 92.691406 440.351562 93.578125 441.097656 94.464844 C 444.164062 98.121094 447.03125 101.878906 449.78125 105.78125 C 450.371094 106.609375 450.960938 107.433594 451.558594 108.257812 C 470.953125 135.1875 484.296875 166.5625 496.558594 249.878906 C 496.558594 250.277344 496.558594 250.679688 496.558594 251.089844 C 496.503906 284.554688 489.550781 317.757812 442.96875 403.515625 C 442.53125 404.058594 442.53125 404.058594 442.085938 404.617188 C 438.429688 409.125 434.625 413.488281 430.664062 417.730469 C 430.074219 418.363281 429.488281 419 428.90625 419.640625 C 425.582031 423.28125 422.214844 426.894531 418.457031 430.09375 C 417.492188 430.933594 416.5625 431.804688 415.632812 432.679688 C 413.476562 434.703125 411.296875 436.660156 408.988281 438.507812 C 408.09375 439.226562 407.210938 439.953125 406.332031 440.691406 C 393.039062 451.824219 378.230469 461.113281 362.890625 469.140625 C 362.542969 469.324219 362.195312 469.507812 361.835938 469.695312 C 351.863281 474.902344 341.484375 479.132812 330.859375 482.8125 C 330.382812 482.976562 329.910156 483.144531 329.417969 483.3125 C 309.679688 490.121094 288.804688 494.324219 267.96875 495.703125 C 267.492188 495.738281 267.011719 495.769531 266.519531 495.804688 C 261.308594 496.148438 256.101562 496.171875 250.878906 496.167969 C 250.191406 496.167969 250.191406 496.167969 249.492188 496.167969 C 242.464844 496.15625 235.511719 496.019531 228.515625 495.3125 C 227.75 495.238281 227.75 495.238281 226.96875 495.160156 C 209.726562 493.429688 192.671875 490.105469 176.171875 484.765625 C 175.789062 484.640625 175.789062 484.640625 175.398438 484.515625 C 162.84375 480.453125 150.855469 475.449219 139.0625 469.53125 C 138.628906 469.3125 138.195312 469.097656 137.746094 468.871094 C 132.179688 466.066406 126.773438 463.066406 121.484375 459.765625 C 121.136719 459.550781 120.785156 459.332031 120.425781 459.109375 C 115.421875 456.007812 110.582031 452.734375 105.859375 449.21875 C 105.429688 448.902344 105.003906 448.585938 104.574219 448.269531 C 97.636719 443.121094 91.039062 437.597656 84.632812 431.800781 C 83.953125 431.183594 83.265625 430.566406 82.578125 429.953125 C 79.933594 427.574219 77.398438 425.09375 74.878906 422.582031 C 74.546875 422.253906 74.214844 421.925781 73.875 421.585938 C 72.175781 419.882812 70.535156 418.152344 68.964844 416.328125 C 68.089844 415.3125 67.175781 414.335938 66.257812 413.355469 C 64.605469 411.5625 63.027344 409.722656 61.496094 407.820312 C 60.796875 406.949219 60.089844 406.089844 59.378906 405.230469 C 56.445312 401.683594 53.699219 398.039062 51.042969 394.28125 C 50.378906 393.339844 49.707031 392.402344 49.035156 391.464844 C 41.972656 381.558594 35.945312 371.007812 30.46875 360.15625 C 30.25 359.722656 30.03125 359.289062 29.804688 358.84375 C 26.246094 351.746094 23.113281 344.539062 20.3125 337.109375 C 20.21875 336.867188 20.128906 336.621094 20.035156 336.371094 C 9.679688 308.945312 4.476562 279.71875 4.566406 250.414062 C 4.566406 249.667969 4.566406 249.667969 4.566406 248.90625 C 4.585938 240.492188 4.898438 232.183594 5.859375 223.828125 C 5.890625 223.535156 5.925781 223.238281 5.960938 222.9375 C 9.433594 192.226562 18.683594 163.089844 39.84375 123.046875 C 40.085938 122.652344 40.324219 122.253906 40.574219 121.847656 C 43.488281 117.070312 46.488281 112.375 49.789062 107.855469 C 50.433594 106.976562 51.066406 106.089844 51.703125 105.207031 C 54.5625 101.261719 57.554688 97.449219 60.695312 93.722656 C 61.289062 93.011719 61.882812 92.300781 62.476562 91.589844 C 64.542969 89.117188 66.667969 86.710938 68.863281 84.347656 C 69.539062 83.617188 70.207031 82.882812 70.871094 82.144531 C 73.238281 79.511719 75.703125 76.992188 78.199219 74.488281 C 78.527344 74.15625 78.855469 73.824219 79.195312 73.484375 C 80.898438 71.785156 82.628906 70.144531 84.453125 68.574219 C 85.46875 67.699219 86.445312 66.785156 87.425781 65.867188 C 89.59375 63.871094 91.839844 61.996094 94.140625 60.15625 C 94.578125 59.800781 95.015625 59.445312 95.453125 59.089844 C 99.34375 55.925781 103.355469 52.9375 107.421875 50 C 107.726562 49.777344 108.035156 49.554688 108.351562 49.324219 C 127.105469 35.753906 148.257812 25.050781 170.175781 17.628906 C 171.03125 17.339844 171.886719 17.046875 172.742188 16.75 C 192.144531 10.027344 212.734375 6.058594 233.203125 4.6875 C 233.6875 4.652344 234.175781 4.617188 234.675781 4.582031 C 239.878906 4.242188 245.078125 4.21875 250.292969 4.222656 Z M 250.292969 4.222656 "/>
<path style=" stroke:none;fill-rule:nonzero;fill:rgb(94.901961%,94.901961%,94.901961%);fill-opacity:1;" d="M 327.34375 83.984375 C 328.464844 84.683594 329.097656 85.148438 329.6875 86.328125 C 329.902344 88.816406 329.640625 90.554688 328.125 92.578125 C 326.03125 94.742188 323.730469 96.652344 321.386719 98.535156 C 318.933594 100.507812 316.671875 102.675781 314.386719 104.839844 C 312.859375 106.289062 311.292969 107.679688 309.695312 109.050781 C 308.472656 110.28125 308.222656 111.105469 308.082031 112.84375 C 308.140625 114.875 308.832031 116.207031 310.203125 117.699219 C 311.757812 118.613281 313.042969 118.960938 314.84375 118.75 C 317.714844 117.503906 320.003906 114.988281 322.265625 112.890625 C 323.714844 111.597656 325.1875 110.328125 326.664062 109.066406 C 326.894531 108.871094 327.121094 108.675781 327.359375 108.472656 C 327.839844 108.0625 328.316406 107.65625 328.796875 107.246094 C 330.1875 106.058594 331.546875 104.839844 332.886719 103.589844 C 338.515625 98.5 344.816406 96.46875 352.3125 96.820312 C 356.671875 97.113281 360.433594 98.328125 364.417969 100.050781 C 375.09375 104.636719 387.015625 100.472656 397.265625 96.484375 C 400.511719 95.101562 403.667969 93.542969 406.777344 91.878906 C 408.199219 91.230469 409.054688 91.382812 410.546875 91.796875 C 411.5 92.429688 411.5 92.429688 412.109375 93.359375 C 412.339844 94.90625 412.246094 95.804688 411.570312 97.21875 C 410.765625 98.289062 409.796875 99.128906 408.789062 100.015625 C 406.605469 101.964844 404.53125 104.003906 402.464844 106.078125 C 401.941406 106.601562 401.941406 106.601562 401.402344 107.136719 C 399.949219 108.59375 398.503906 110.046875 397.171875 111.617188 C 395.183594 113.933594 392.988281 116.054688 390.828125 118.207031 C 390.066406 118.96875 389.304688 119.730469 388.542969 120.496094 C 386.179688 122.859375 383.8125 125.191406 381.25 127.34375 C 380.414062 128.070312 379.585938 128.804688 378.757812 129.539062 C 378.558594 129.71875 378.355469 129.894531 378.144531 130.074219 C 376.710938 131.363281 375.867188 132.449219 375.722656 134.398438 C 375.890625 135.925781 376.082031 136.605469 377.074219 137.84375 C 378.769531 139.183594 379.761719 139.59375 381.980469 139.574219 C 383.398438 139.367188 384.390625 138.542969 385.472656 137.671875 C 385.949219 137.3125 386.425781 136.953125 386.902344 136.59375 C 387.136719 136.414062 387.367188 136.238281 387.609375 136.054688 C 390.238281 134.070312 393.117188 132 396.484375 131.640625 C 397.738281 132.125 398.230469 132.398438 398.828125 133.59375 C 399.1875 137.839844 398.375 141.53125 396.484375 145.3125 C 396.394531 145.871094 396.316406 146.433594 396.242188 146.996094 C 395.828125 149.371094 394.679688 151.316406 393.5 153.386719 C 391.5 156.941406 390.027344 160.695312 391.089844 164.769531 C 391.472656 165.894531 391.472656 165.894531 392.1875 166.796875 C 393.378906 167.296875 394.484375 167.5 395.757812 167.707031 C 396.945312 167.984375 397.359375 168.214844 398.121094 169.140625 C 400.332031 172.796875 399.46875 177.921875 398.5 181.882812 C 397.996094 183.769531 397.453125 185.636719 396.875 187.5 C 396.726562 187.972656 396.726562 187.972656 396.578125 188.457031 C 393.085938 199.472656 386.992188 206.238281 377.992188 213.207031 C 373.683594 216.722656 370.300781 222.292969 369.140625 227.734375 C 369.109375 228.324219 369.097656 228.917969 369.101562 229.511719 C 369.105469 229.839844 369.105469 230.171875 369.105469 230.511719 C 369.109375 230.851562 369.113281 231.191406 369.117188 231.542969 C 369.117188 232.0625 369.117188 232.0625 369.121094 232.59375 C 369.125 233.449219 369.132812 234.300781 369.140625 235.15625 C 369.507812 234.957031 369.875 234.761719 370.253906 234.558594 C 370.746094 234.300781 371.238281 234.046875 371.726562 233.789062 C 372.089844 233.59375 372.089844 233.59375 372.460938 233.394531 C 374.019531 232.589844 375.199219 232.195312 376.953125 232.421875 C 377.734375 233.203125 377.734375 233.203125 377.847656 234.597656 C 377.792969 236.457031 377.316406 238.070312 376.710938 239.820312 C 376.59375 240.164062 376.476562 240.511719 376.359375 240.867188 C 375.5625 243.15625 374.648438 245.371094 373.65625 247.578125 C 370.886719 253.746094 368.777344 259.292969 368.117188 266.09375 C 367.21875 275.144531 366.253906 284.222656 363.671875 292.96875 C 363.53125 293.445312 363.53125 293.445312 363.386719 293.929688 C 361.707031 299.601562 359.957031 305.253906 358.191406 310.898438 C 357.824219 312.070312 357.460938 313.242188 357.097656 314.414062 C 349.363281 339.328125 349.363281 339.328125 342.578125 346.875 C 342.078125 347.4375 342.078125 347.4375 341.566406 348.015625 C 338.347656 351.605469 334.992188 355.113281 331.320312 358.242188 C 330.183594 359.230469 329.082031 360.253906 327.976562 361.28125 C 326.15625 362.96875 324.324219 364.636719 322.476562 366.292969 C 321.136719 367.5 319.8125 368.722656 318.488281 369.941406 C 317.394531 370.945312 316.289062 371.933594 315.160156 372.898438 C 307.863281 379.300781 302.964844 387.222656 298.746094 395.875 C 297.792969 397.773438 296.757812 399.621094 295.71875 401.46875 C 294.796875 403.113281 293.886719 404.761719 293 406.421875 C 289.792969 412.410156 286.46875 418.261719 282.03125 423.4375 C 281.792969 423.730469 281.554688 424.027344 281.308594 424.332031 C 277.207031 429.242188 271.949219 432.234375 265.625 433.203125 C 257.765625 433.8125 250.257812 432.898438 242.578125 431.25 C 242.257812 431.183594 241.941406 431.117188 241.613281 431.046875 C 238.417969 430.367188 235.382812 429.378906 232.300781 428.320312 C 228.480469 427.011719 224.679688 426.070312 220.703125 425.390625 C 220.203125 425.300781 219.703125 425.214844 219.1875 425.125 C 205.515625 423.125 190.839844 424.65625 178.828125 431.835938 C 176.589844 433.09375 174.195312 433.726562 171.726562 434.398438 C 171.246094 434.535156 170.765625 434.667969 170.269531 434.804688 C 158.460938 438.050781 148.121094 439.511719 136.71875 433.984375 C 136.394531 433.828125 136.066406 433.671875 135.730469 433.515625 C 126.707031 429.203125 117.757812 424.140625 110.15625 417.578125 C 109.925781 417.382812 109.699219 417.1875 109.464844 416.984375 C 101.78125 409.863281 97.839844 399.214844 93.703125 389.839844 C 88.035156 377.007812 82.074219 364.539062 73.828125 353.125 C 73.429688 352.566406 73.027344 352.007812 72.628906 351.445312 C 70.90625 349.046875 69.171875 346.65625 67.402344 344.289062 C 49.480469 320.257812 49.480469 320.257812 51.300781 304.75 C 52.6875 295.984375 56.148438 287.550781 59.175781 279.246094 C 64.90625 263.527344 69.574219 247.648438 73.40625 231.363281 C 76.011719 220.296875 78.988281 209.65625 83.59375 199.21875 C 83.84375 198.648438 83.84375 198.648438 84.101562 198.066406 C 89.59375 185.773438 97.402344 175.820312 108.230469 167.75 C 109.074219 167.121094 109.910156 166.484375 110.75 165.847656 C 119.769531 159.058594 129.382812 154.160156 140.539062 151.859375 C 147.171875 150.46875 152.449219 147.589844 158.203125 144.140625 C 167.726562 138.550781 177.859375 133.984375 187.917969 129.460938 C 192.886719 127.222656 197.785156 124.851562 202.683594 122.464844 C 204.101562 121.78125 205.527344 121.109375 206.953125 120.445312 C 209.765625 119.128906 212.550781 117.761719 215.308594 116.332031 C 215.605469 116.179688 215.90625 116.027344 216.214844 115.867188 C 219.097656 114.351562 221.539062 112.496094 223.875 110.230469 C 227.105469 107.261719 230.820312 104.511719 235.15625 103.515625 C 235.496094 103.425781 235.832031 103.339844 236.179688 103.246094 C 239.117188 102.859375 242.074219 103.089844 244.539062 104.863281 C 246.332031 106.660156 247.023438 108.753906 247.746094 111.125 C 248.515625 113.632812 249.3125 115.621094 251.464844 117.1875 C 254.488281 118.117188 256.253906 117.695312 258.984375 116.257812 C 259.246094 116.121094 259.507812 115.980469 259.78125 115.839844 C 265.980469 112.582031 272.6875 110.371094 279.308594 108.136719 C 283.96875 106.546875 288.503906 104.695312 293.046875 102.792969 C 293.964844 102.417969 294.882812 102.054688 295.8125 101.703125 C 303.699219 98.71875 310.789062 94.589844 316.953125 88.828125 C 322.933594 83.3125 322.933594 83.3125 327.34375 83.984375 Z M 327.34375 83.984375 "/>
<path style=" stroke:none;fill-rule:nonzero;fill:rgb(99.607843%,49.411765%,43.921569%);fill-opacity:1;" d="M 327.34375 83.984375 C 328.464844 84.683594 329.097656 85.148438 329.6875 86.328125 C 329.902344 88.816406 329.640625 90.554688 328.125 92.578125 C 326.03125 94.742188 323.730469 96.652344 321.386719 98.535156 C 318.933594 100.507812 316.671875 102.675781 314.386719 104.839844 C 312.859375 106.289062 311.292969 107.679688 309.695312 109.050781 C 308.472656 110.28125 308.222656 111.105469 308.082031 112.84375 C 308.140625 114.875 308.832031 116.207031 310.203125 117.699219 C 311.757812 118.613281 313.042969 118.960938 314.84375 118.75 C 317.714844 117.503906 320.003906 114.988281 322.265625 112.890625 C 323.714844 111.597656 325.1875 110.328125 326.664062 109.066406 C 326.894531 108.871094 327.121094 108.675781 327.359375 108.472656 C 327.839844 108.0625 328.316406 107.65625 328.796875 107.246094 C 330.1875 106.058594 331.546875 104.839844 332.886719 103.589844 C 338.515625 98.5 344.816406 96.46875 352.3125 96.820312 C 356.671875 97.113281 360.433594 98.328125 364.417969 100.050781 C 375.09375 104.636719 387.015625 100.472656 397.265625 96.484375 C 400.511719 95.101562 403.667969 93.542969 406.777344 91.878906 C 408.199219 91.230469 409.054688 91.382812 410.546875 91.796875 C 411.5 92.429688 411.5 92.429688 412.109375 93.359375 C 412.339844 94.90625 412.246094 95.804688 411.570312 97.21875 C 410.765625 98.289062 409.796875 99.128906 408.789062 100.015625 C 406.605469 101.964844 404.53125 104.003906 402.464844 106.078125 C 401.941406 106.601562 401.941406 106.601562 401.402344 107.136719 C 399.949219 108.59375 398.503906 110.046875 397.171875 111.617188 C 395.183594 113.933594 392.988281 116.054688 390.828125 118.207031 C 390.066406 118.96875 389.304688 119.730469 388.542969 120.496094 C 386.179688 122.859375 383.8125 125.191406 381.25 127.34375 C 380.414062 128.070312 379.585938 128.804688 378.757812 129.539062 C 378.558594 129.71875 378.355469 129.894531 378.144531 130.074219 C 376.710938 131.363281 375.867188 132.449219 375.722656 134.398438 C 375.890625 135.925781 376.082031 136.605469 377.074219 137.84375 C 378.769531 139.183594 379.761719 139.59375 381.980469 139.574219 C 383.398438 139.367188 384.390625 138.542969 385.472656 137.671875 C 385.949219 137.3125 386.425781 136.953125 386.902344 136.59375 C 387.136719 136.414062 387.367188 136.238281 387.609375 136.054688 C 390.238281 134.070312 393.117188 132 396.484375 131.640625 C 397.738281 132.125 398.230469 132.398438 398.828125 133.59375 C 399.1875 137.839844 398.375 141.53125 396.484375 145.3125 C 396.394531 145.871094 396.316406 146.433594 396.242188 146.996094 C 395.828125 149.371094 394.679688 151.316406 393.5 153.386719 C 391.5 156.941406 390.027344 160.695312 391.089844 164.769531 C 391.472656 165.894531 391.472656 165.894531 392.1875 166.796875 C 393.378906 167.296875 394.484375 167.5 395.757812 167.707031 C 396.945312 167.984375 397.359375 168.214844 398.121094 169.140625 C 400.332031 172.796875 399.46875 177.921875 398.5 181.882812 C 397.996094 183.769531 397.453125 185.636719 396.875 187.5 C 396.726562 187.972656 396.726562 187.972656 396.578125 188.457031 C 393.085938 199.472656 386.992188 206.238281 377.992188 213.207031 C 373.683594 216.722656 370.300781 222.292969 369.140625 227.734375 C 369.109375 228.324219 369.097656 228.917969 369.101562 229.511719 C 369.105469 229.839844 369.105469 230.171875 369.105469 230.511719 C 369.109375 230.851562 369.113281 231.191406 369.117188 231.542969 C 369.117188 232.0625 369.117188 232.0625 369.121094 232.59375 C 369.125 233.449219 369.132812 234.300781 369.140625 235.15625 C 369.507812 234.957031 369.875 234.761719 370.253906 234.558594 C 370.746094 234.300781 371.238281 234.046875 371.726562 233.789062 C 372.089844 233.59375 372.089844 233.59375 372.460938 233.394531 C 374.019531 232.589844 375.199219 232.195312 376.953125 232.421875 C 377.734375 233.203125 377.734375 233.203125 377.847656 234.597656 C 377.792969 236.457031 377.316406 238.070312 376.710938 239.820312 C 376.59375 240.164062 376.476562 240.511719 376.359375 240.867188 C 375.5625 243.15625 374.648438 245.371094 373.65625 247.578125 C 370.886719 253.746094 368.777344 259.292969 368.117188 266.09375 C 367.21875 275.144531 366.253906 284.222656 363.671875 292.96875 C 363.53125 293.445312 363.53125 293.445312 363.386719 293.929688 C 361.707031 299.601562 359.957031 305.253906 358.191406 310.898438 C 357.824219 312.070312 357.460938 313.242188 357.097656 314.414062 C 349.363281 339.328125 349.363281 339.328125 342.578125 346.875 C 342.078125 347.4375 342.078125 347.4375 341.566406 348.015625 C 338.347656 351.605469 334.992188 355.113281 331.320312 358.242188 C 330.183594 359.230469 329.082031 360.253906 327.976562 361.28125 C 326.15625 362.96875 324.324219 364.636719 322.476562 366.292969 C 321.136719 367.5 319.8125 368.722656 318.488281 369.941406 C 317.394531 370.945312 316.289062 371.933594 315.160156 372.898438 C 307.863281 379.300781 302.964844 387.222656 298.746094 395.875 C 297.792969 397.773438 296.757812 399.621094 295.71875 401.46875 C 294.796875 403.113281 293.886719 404.761719 293 406.421875 C 289.792969 412.410156 286.46875 418.261719 282.03125 423.4375 C 281.792969 423.730469 281.554688 424.027344 281.308594 424.332031 C 277.207031 429.242188 271.949219 432.234375 265.625 433.203125 C 257.765625 433.8125 250.257812 432.898438 242.578125 431.25 C 242.257812 431.183594 241.941406 431.117188 241.613281 431.046875 C 238.417969 430.367188 235.382812 429.378906 232.300781 428.320312 C 228.480469 427.011719 224.679688 426.070312 220.703125 425.390625 C 220.203125 425.300781 219.703125 425.214844 219.1875 425.125 C 205.515625 423.125 190.839844 424.65625 178.828125 431.835938 C 176.589844 433.09375 174.195312 433.726562 171.726562 434.398438 C 171.246094 434.535156 170.765625 434.667969 170.269531 434.804688 C 158.460938 438.050781 148.121094 439.511719 136.71875 433.984375 C 136.394531 433.828125 136.066406 433.671875 135.730469 433.515625 C 126.707031 429.203125 117.757812 424.140625 110.15625 417.578125 C 109.925781 417.382812 109.699219 417.1875 109.464844 416.984375 C 101.78125 409.863281 97.839844 399.214844 93.703125 389.839844 C 88.035156 377.007812 82.074219 364.539062 73.828125 353.125 C 73.429688 352.566406 73.027344 352.007812 72.628906 351.445312 C 70.90625 349.046875 69.171875 346.65625 67.402344 344.289062 C 49.480469 320.257812 49.480469 320.257812 51.300781 304.75 C 52.6875 295.984375 56.148438 287.550781 59.175781 279.246094 C 64.90625 263.527344 69.574219 247.648438 73.40625 231.363281 C 76.011719 220.296875 78.988281 209.65625 83.59375 199.21875 C 83.84375 198.648438 83.84375 198.648438 84.101562 198.066406 C 89.59375 185.773438 97.402344 175.820312 108.230469 167.75 C 109.074219 167.121094 109.910156 166.484375 110.75 165.847656 C 119.769531 159.058594 129.382812 154.160156 140.539062 151.859375 C 147.171875 150.46875 152.449219 147.589844 158.203125 144.140625 C 167.726562 138.550781 177.859375 133.984375 187.917969 129.460938 C 192.886719 127.222656 197.785156 124.851562 202.683594 122.464844 C 204.101562 121.78125 205.527344 121.109375 206.953125 120.445312 C 209.765625 119.128906 212.550781 117.761719 215.308594 116.332031 C 215.605469 116.179688 215.90625 116.027344 216.214844 115.867188 C 219.097656 114.351562 221.539062 112.496094 223.875 110.230469 C 227.105469 107.261719 230.820312 104.511719 235.15625 103.515625 C 235.496094 103.425781 235.832031 103.339844 236.179688 103.246094 C 239.117188 102.859375 242.074219 103.089844 244.539062 104.863281 C 246.332031 106.660156 247.023438 108.753906 247.746094 111.125 C 248.515625 113.632812 249.3125 115.621094 251.464844 117.1875 C 254.488281 118.117188 256.253906 117.695312 258.984375 116.257812 C 259.246094 116.121094 259.507812 115.980469 259.78125 115.839844 C 265.980469 112.582031 272.6875 110.371094 279.308594 108.136719 C 283.96875 106.546875 288.503906 104.695312 293.046875 102.792969 C 293.964844 102.417969 294.882812 102.054688 295.8125 101.703125 C 303.699219 98.71875 310.789062 94.589844 316.953125 88.828125 C 322.933594 83.3125 322.933594 83.3125 327.34375 83.984375 Z M 213.289062 163.699219 C 211.882812 164.132812 210.472656 164.550781 209.0625 164.964844 C 208.789062 165.046875 208.515625 165.128906 208.234375 165.210938 C 207.664062 165.378906 207.097656 165.542969 206.53125 165.710938 C 205.664062 165.964844 204.800781 166.222656 203.933594 166.480469 C 200.308594 167.550781 196.675781 168.578125 193.015625 169.53125 C 192.605469 169.640625 192.191406 169.75 191.769531 169.859375 C 181.082031 172.605469 169.957031 171.914062 159.007812 171.835938 C 146.984375 171.558594 146.984375 171.558594 135.179688 173.511719 C 134.875 173.59375 134.570312 173.679688 134.253906 173.769531 C 126.753906 175.96875 120.089844 181.492188 114.0625 186.328125 C 113.851562 186.492188 113.636719 186.660156 113.417969 186.832031 C 97.421875 199.351562 90.875 225.0625 83.800781 243.464844 C 82.378906 247.160156 80.914062 250.839844 79.402344 254.5 C 79.242188 254.886719 79.078125 255.277344 78.914062 255.679688 C 78.75 256.074219 78.585938 256.46875 78.417969 256.875 C 74.242188 266.980469 70.40625 277.175781 66.796875 287.5 C 66.609375 288.03125 66.421875 288.566406 66.234375 289.097656 C 62.164062 300.738281 59.648438 311.167969 65.039062 322.777344 C 68.140625 329.195312 72.425781 334.800781 76.667969 340.496094 C 82.292969 348.066406 87.636719 355.789062 92.1875 364.0625 C 92.367188 364.382812 92.542969 364.703125 92.726562 365.03125 C 95.742188 370.503906 98.292969 376.148438 100.804688 381.859375 C 106.429688 394.953125 106.429688 394.953125 114.453125 406.640625 C 114.757812 407.023438 115.066406 407.410156 115.382812 407.804688 C 121.835938 415.21875 132.871094 420.304688 141.554688 424.460938 C 141.878906 424.621094 142.207031 424.777344 142.542969 424.9375 C 154.375 430.472656 167.152344 427.101562 178.964844 423.070312 C 181.035156 422.300781 182.960938 421.304688 184.90625 420.265625 C 197.066406 413.816406 212.550781 413.226562 225.5625 417.113281 C 227.773438 417.796875 229.886719 418.597656 232.007812 419.53125 C 242.476562 423.882812 257.03125 425.816406 267.792969 421.695312 C 279.152344 416.628906 284.238281 406.085938 289.609375 395.601562 C 296.117188 382.910156 303.46875 371.328125 314.449219 362.003906 C 315.421875 361.164062 316.363281 360.292969 317.308594 359.421875 C 318.65625 358.191406 320.019531 357.027344 321.460938 355.90625 C 323.707031 354.089844 325.753906 352.082031 327.808594 350.046875 C 328.136719 349.726562 328.464844 349.402344 328.804688 349.070312 C 341.609375 336.253906 343.011719 315.496094 343.085938 298.273438 C 343.089844 297.539062 343.097656 296.804688 343.109375 296.070312 C 343.207031 289.707031 342.628906 283.882812 339.746094 278.101562 C 339.582031 277.765625 339.417969 277.429688 339.25 277.082031 C 336.289062 271.226562 332.316406 265.929688 328.515625 260.601562 C 324.875 255.460938 321.378906 250.21875 317.96875 244.921875 C 317.742188 244.574219 317.519531 244.222656 317.285156 243.863281 C 312.421875 236.097656 310.054688 226.496094 307.296875 217.828125 C 307.195312 217.5 307.089844 217.175781 306.984375 216.839844 C 306.492188 215.300781 306.007812 213.761719 305.535156 212.214844 C 303.433594 205.453125 300.40625 199.761719 294.191406 195.949219 C 290.824219 194.195312 287.316406 192.796875 283.785156 191.410156 C 279.132812 189.578125 274.53125 187.667969 269.996094 185.554688 C 269.160156 185.164062 268.320312 184.785156 267.476562 184.410156 C 259.441406 180.777344 251.9375 176.054688 244.625 171.152344 C 243.519531 170.410156 242.414062 169.675781 241.308594 168.9375 C 240.5 168.398438 239.695312 167.851562 238.890625 167.304688 C 230.679688 161.792969 222.742188 160.757812 213.289062 163.699219 Z M 213.289062 163.699219 "/>
<path style=" stroke:none;fill-rule:nonzero;fill:rgb(99.607843%,99.607843%,97.254902%);fill-opacity:1;" d="M 264.453125 336.328125 C 264.78125 336.539062 265.113281 336.75 265.449219 336.96875 C 271.351562 341.128906 275.398438 348.597656 276.710938 355.597656 C 278.332031 366.269531 275.855469 376.484375 269.53125 385.15625 C 269.304688 385.480469 269.074219 385.804688 268.839844 386.140625 C 267.699219 387.730469 267.699219 387.730469 267.1875 388.28125 C 266.929688 388.28125 266.671875 388.28125 266.40625 388.28125 C 266.328125 388.496094 266.246094 388.710938 266.164062 388.933594 C 265.414062 390.199219 264.371094 391 263.234375 391.894531 C 262.980469 392.09375 262.730469 392.292969 262.472656 392.5 C 259.335938 394.933594 256.011719 397.097656 252.691406 399.273438 C 252.320312 399.519531 251.945312 399.769531 251.558594 400.023438 C 250.742188 400.554688 249.917969 401.074219 249.085938 401.582031 C 248.664062 401.847656 248.242188 402.113281 247.808594 402.386719 C 247.421875 402.621094 247.039062 402.859375 246.644531 403.101562 C 245.507812 404.074219 245.234375 404.800781 244.921875 406.25 C 245.222656 407.421875 245.578125 407.734375 246.605469 408.375 C 246.953125 408.574219 247.300781 408.777344 247.65625 408.984375 C 248.636719 409.894531 249.503906 410.800781 250.316406 411.867188 C 251.050781 412.742188 251.75 413.421875 252.613281 414.160156 C 255.71875 416.828125 258.523438 419.730469 260.9375 423.046875 C 260.9375 423.175781 260.9375 423.304688 260.9375 423.4375 C 250.996094 425.246094 238.988281 422.441406 229.820312 418.714844 C 215.609375 412.9375 200.003906 413.828125 185.925781 419.582031 C 184.933594 420.019531 183.984375 420.527344 183.03125 421.042969 C 176.515625 424.546875 167.253906 427.734375 159.765625 427.734375 C 163.308594 417.675781 176.328125 409.246094 185.421875 404.746094 C 192.988281 401.15625 201.996094 399.007812 210.351562 398.519531 C 211.777344 398.398438 213.082031 398.050781 214.453125 397.65625 C 214.246094 395.914062 213.832031 394.726562 212.914062 393.238281 C 212.667969 392.828125 212.421875 392.421875 212.171875 392.003906 C 212.035156 391.78125 211.902344 391.5625 211.761719 391.335938 C 204.871094 380.054688 199.316406 369.074219 202.542969 355.449219 C 203.664062 351.011719 205.554688 347.421875 208.203125 343.75 C 208.476562 343.367188 208.75 342.984375 209.03125 342.589844 C 215.109375 334.648438 224.527344 330.765625 234.101562 329.066406 C 245.253906 327.820312 255.144531 330.210938 264.453125 336.328125 Z M 264.453125 336.328125 "/>
<path style=" stroke:none;fill-rule:nonzero;fill:rgb(82.352942%,79.607844%,76.078433%);fill-opacity:1;" d="M 260.390625 200.359375 C 268.382812 207.285156 273.25 216.777344 274.21875 227.34375 C 274.777344 238.917969 271.101562 249.269531 263.367188 257.863281 C 259.511719 261.996094 254.875 265.121094 249.609375 267.1875 C 249.28125 267.328125 248.949219 267.464844 248.609375 267.609375 C 238.847656 271.496094 227.761719 270.765625 218.199219 266.703125 C 208.496094 262.128906 201.082031 253.980469 197.34375 243.976562 C 193.644531 233.523438 194.429688 222.9375 199.113281 212.957031 C 200.574219 210.136719 202.324219 207.5625 204.296875 205.078125 C 204.679688 204.589844 204.679688 204.589844 205.070312 204.09375 C 210.851562 197.203125 220.230469 192.355469 229.117188 191.128906 C 240.816406 190.164062 251.261719 192.816406 260.390625 200.359375 Z M 260.390625 200.359375 "/>
<path style=" stroke:none;fill-rule:nonzero;fill:rgb(99.607843%,40.392157%,23.137255%);fill-opacity:1;" d="M 327.34375 83.984375 C 328.464844 84.683594 329.097656 85.148438 329.6875 86.328125 C 329.902344 88.816406 329.640625 90.554688 328.125 92.578125 C 326.03125 94.742188 323.730469 96.652344 321.386719 98.535156 C 318.933594 100.507812 316.671875 102.675781 314.386719 104.839844 C 312.859375 106.289062 311.292969 107.679688 309.695312 109.050781 C 308.472656 110.28125 308.222656 111.105469 308.082031 112.84375 C 308.140625 114.875 308.832031 116.207031 310.203125 117.699219 C 311.757812 118.613281 313.042969 118.960938 314.84375 118.75 C 317.714844 117.503906 320.003906 114.988281 322.265625 112.890625 C 323.714844 111.597656 325.1875 110.328125 326.664062 109.066406 C 326.894531 108.871094 327.121094 108.675781 327.359375 108.472656 C 327.839844 108.0625 328.316406 107.65625 328.796875 107.246094 C 330.1875 106.058594 331.546875 104.839844 332.886719 103.589844 C 338.515625 98.5 344.816406 96.46875 352.3125 96.820312 C 356.671875 97.113281 360.433594 98.328125 364.417969 100.050781 C 375.09375 104.636719 387.015625 100.472656 397.265625 96.484375 C 400.511719 95.101562 403.667969 93.542969 406.777344 91.878906 C 408.199219 91.230469 409.054688 91.382812 410.546875 91.796875 C 411.5 92.429688 411.5 92.429688 412.109375 93.359375 C 412.339844 94.90625 412.246094 95.804688 411.570312 97.21875 C 410.765625 98.289062 409.796875 99.128906 408.789062 100.015625 C 406.605469 101.964844 404.53125 104.003906 402.464844 106.078125 C 401.941406 106.601562 401.941406 106.601562 401.402344 107.136719 C 399.949219 108.59375 398.503906 110.046875 397.171875 111.617188 C 395.183594 113.933594 392.988281 116.054688 390.828125 118.207031 C 390.066406 118.96875 389.304688 119.730469 388.542969 120.496094 C 386.179688 122.859375 383.8125 125.191406 381.25 127.34375 C 380.414062 128.070312 379.585938 128.804688 378.757812 129.539062 C 378.558594 129.71875 378.355469 129.894531 378.144531 130.074219 C 376.710938 131.363281 375.867188 132.449219 375.722656 134.398438 C 375.890625 135.925781 376.082031 136.605469 377.074219 137.84375 C 378.769531 139.183594 379.761719 139.59375 381.980469 139.574219 C 383.398438 139.367188 384.390625 138.542969 385.472656 137.671875 C 385.949219 137.3125 386.425781 136.953125 386.902344 136.59375 C 387.136719 136.414062 387.367188 136.238281 387.609375 136.054688 C 390.238281 134.070312 393.117188 132 396.484375 131.640625 C 397.738281 132.125 398.230469 132.398438 398.828125 133.59375 C 399.1875 137.839844 398.375 141.53125 396.484375 145.3125 C 396.394531 145.871094 396.316406 146.433594 396.242188 146.996094 C 395.828125 149.371094 394.679688 151.316406 393.5 153.386719 C 391.5 156.941406 390.027344 160.695312 391.089844 164.769531 C 391.472656 165.894531 391.472656 165.894531 392.1875 166.796875 C 393.378906 167.296875 394.484375 167.5 395.757812 167.707031 C 396.945312 167.984375 397.359375 168.214844 398.121094 169.140625 C 400.332031 172.796875 399.46875 177.921875 398.5 181.882812 C 397.996094 183.769531 397.453125 185.636719 396.875 187.5 C 396.726562 187.972656 396.726562 187.972656 396.578125 188.457031 C 393.085938 199.472656 386.992188 206.238281 377.992188 213.207031 C 373.683594 216.722656 370.300781 222.292969 369.140625 227.734375 C 369.109375 228.324219 369.097656 228.917969 369.101562 229.511719 C 369.105469 230.003906 369.105469 230.003906 369.105469 230.511719 C 369.109375 230.851562 369.113281 231.191406 369.117188 231.542969 C 369.117188 232.0625 369.117188 232.0625 369.121094 232.59375 C 369.125 233.449219 369.132812 234.300781 369.140625 235.15625 C 369.507812 234.957031 369.875 234.761719 370.253906 234.558594 C 370.746094 234.300781 371.238281 234.046875 371.726562 233.789062 C 371.96875 233.660156 372.210938 233.527344 372.460938 233.394531 C 374.019531 232.589844 375.199219 232.195312 376.953125 232.421875 C 377.734375 233.203125 377.734375 233.203125 377.847656 234.597656 C 377.792969 236.457031 377.316406 238.070312 376.710938 239.820312 C 376.59375 240.164062 376.476562 240.511719 376.359375 240.867188 C 375.5625 243.15625 374.648438 245.371094 373.65625 247.578125 C 370.644531 254.285156 368.6875 260.199219 367.96875 267.578125 C 367.714844 269.976562 367.441406 272.375 367.160156 274.769531 C 367.042969 275.808594 366.9375 276.847656 366.835938 277.890625 C 366.15625 284.226562 366.15625 284.226562 363.671875 286.328125 C 362.316406 287.230469 361.75 287.273438 360.15625 287.109375 C 359.15625 286.386719 358.992188 285.960938 358.59375 284.765625 C 358.40625 282.152344 358.953125 280.101562 359.789062 277.636719 C 359.914062 277.257812 360.039062 276.882812 360.167969 276.492188 C 360.425781 275.714844 360.6875 274.9375 360.949219 274.160156 C 361.292969 273.15625 361.625 272.144531 361.953125 271.132812 C 363.433594 266.683594 365.234375 262.386719 367.117188 258.097656 C 370.15625 251.171875 370.839844 246.34375 368.75 239.0625 C 368.414062 237.875 368.082031 236.6875 367.75 235.5 C 367.664062 235.191406 367.578125 234.882812 367.488281 234.570312 C 367.402344 234.269531 367.320312 233.972656 367.234375 233.664062 C 367.160156 233.398438 367.085938 233.128906 367.007812 232.855469 C 365.070312 225.304688 366.511719 218.027344 370.164062 211.304688 C 372.390625 207.625 374.953125 204.167969 377.480469 200.691406 C 386.183594 188.691406 386.183594 188.691406 389.253906 174.800781 C 388.59375 171.421875 386.941406 168.183594 385.558594 165.050781 C 383.816406 160.777344 384.558594 156.453125 386.277344 152.339844 C 387.058594 150.421875 387.320312 148.953125 387.109375 146.875 C 386.386719 145.757812 385.558594 145.5 384.300781 145.164062 C 383.957031 145.070312 383.617188 144.972656 383.261719 144.871094 C 382.605469 144.691406 381.945312 144.507812 381.289062 144.328125 C 375.023438 142.578125 375.023438 142.578125 372.65625 140.234375 C 372.441406 140.03125 372.226562 139.824219 372.007812 139.613281 C 369.726562 137.222656 368.402344 133.894531 368.339844 130.589844 C 368.351562 130.21875 368.363281 129.847656 368.375 129.46875 C 368.382812 129.058594 368.394531 128.652344 368.402344 128.230469 C 368.421875 127.378906 368.449219 126.527344 368.476562 125.675781 C 368.542969 123.230469 368.542969 123.230469 367.621094 121.019531 C 366.480469 120.039062 365.851562 119.875 364.382812 119.839844 C 364.054688 119.828125 363.726562 119.820312 363.386719 119.808594 C 363.039062 119.796875 362.6875 119.785156 362.328125 119.773438 C 358.351562 119.613281 355.128906 119.007812 351.5625 117.1875 C 350.371094 116.785156 349.171875 116.40625 347.96875 116.039062 C 346.890625 115.628906 346.160156 115.234375 345.3125 114.453125 C 345.183594 114.066406 345.054688 113.679688 344.921875 113.28125 C 338.074219 112.4375 332.207031 116.890625 326.992188 120.878906 C 326.039062 121.625 325.089844 122.375 324.152344 123.144531 C 321.835938 125.023438 319.804688 126.464844 316.71875 126.320312 C 311.492188 125.613281 307.746094 123.269531 304.253906 119.414062 C 302.164062 116.425781 301.210938 113.492188 300.660156 109.914062 C 300.59375 109.519531 300.527344 109.128906 300.460938 108.722656 C 300.300781 107.769531 300.148438 106.816406 300 105.859375 C 297.582031 105.132812 295.1875 106.417969 292.96875 107.421875 C 292.113281 107.902344 291.265625 108.398438 290.429688 108.910156 C 284.359375 112.539062 277.191406 114.242188 270.484375 116.332031 C 270.128906 116.445312 269.769531 116.554688 269.40625 116.671875 C 258.394531 120.097656 258.394531 120.097656 254.148438 120.042969 C 253.871094 120.039062 253.59375 120.039062 253.304688 120.035156 C 251.464844 119.992188 249.675781 119.800781 247.851562 119.53125 C 234.421875 117.597656 221.503906 121.6875 209.175781 126.550781 C 197.582031 131.09375 197.582031 131.09375 193.359375 129.6875 C 192.894531 128.492188 192.894531 128.492188 192.578125 127.34375 C 194.050781 126.632812 195.523438 125.917969 196.996094 125.207031 C 197.515625 124.957031 198.039062 124.703125 198.5625 124.449219 C 201.363281 123.097656 204.164062 121.746094 206.980469 120.429688 C 209.785156 119.121094 212.558594 117.757812 215.308594 116.332031 C 215.605469 116.179688 215.90625 116.027344 216.214844 115.867188 C 219.097656 114.351562 221.539062 112.496094 223.875 110.230469 C 227.105469 107.261719 230.820312 104.511719 235.15625 103.515625 C 235.496094 103.425781 235.832031 103.339844 236.179688 103.246094 C 239.117188 102.859375 242.074219 103.089844 244.539062 104.863281 C 246.332031 106.660156 247.023438 108.753906 247.746094 111.125 C 248.515625 113.632812 249.3125 115.621094 251.464844 117.1875 C 254.488281 118.117188 256.253906 117.695312 258.984375 116.257812 C 259.246094 116.121094 259.507812 115.980469 259.78125 115.839844 C 265.980469 112.582031 272.6875 110.371094 279.308594 108.136719 C 283.96875 106.546875 288.503906 104.695312 293.046875 102.792969 C 293.964844 102.417969 294.882812 102.054688 295.8125 101.703125 C 303.699219 98.71875 310.789062 94.589844 316.953125 88.828125 C 322.933594 83.3125 322.933594 83.3125 327.34375 83.984375 Z M 327.34375 83.984375 "/>
<path style=" stroke:none;fill-rule:nonzero;fill:rgb(82.352942%,79.607844%,76.078433%);fill-opacity:1;" d="M 130.078125 175.78125 C 138.351562 192.175781 140.492188 210.488281 134.765625 228.125 C 131.375 238.046875 125.992188 246.375 118.75 253.90625 C 118.484375 254.199219 118.21875 254.496094 117.949219 254.796875 C 113.523438 259.546875 107.691406 263.074219 101.953125 266.015625 C 101.714844 266.140625 101.472656 266.261719 101.226562 266.390625 C 93.285156 270.429688 84.152344 273.179688 75.195312 273.070312 C 74.910156 273.070312 74.628906 273.066406 74.335938 273.066406 C 73.644531 273.0625 72.957031 273.054688 72.265625 273.046875 C 73.007812 270.402344 73.898438 267.875 74.957031 265.339844 C 75.265625 264.59375 75.574219 263.847656 75.882812 263.101562 C 76.042969 262.710938 76.207031 262.320312 76.371094 261.917969 C 79.351562 254.730469 82.238281 247.507812 85.054688 240.257812 C 88.628906 231.070312 92.402344 222 96.464844 213.019531 C 96.90625 212.035156 97.347656 211.050781 97.785156 210.070312 C 100.855469 203.199219 100.855469 203.199219 102.34375 200.390625 C 102.503906 200.085938 102.664062 199.785156 102.832031 199.472656 C 104.257812 196.835938 105.902344 194.496094 107.8125 192.1875 C 108.023438 191.914062 108.230469 191.640625 108.445312 191.359375 C 110.566406 188.722656 113.328125 186.78125 116.015625 184.765625 C 116.25 184.585938 116.488281 184.40625 116.730469 184.222656 C 127.878906 175.78125 127.878906 175.78125 130.078125 175.78125 Z M 130.078125 175.78125 "/>
<path style=" stroke:none;fill-rule:nonzero;fill:rgb(99.607843%,99.607843%,97.254902%);fill-opacity:1;" d="M 266.015625 199.609375 C 266.566406 200.019531 266.566406 200.019531 267.128906 200.4375 C 275.542969 206.90625 280.453125 218.039062 281.910156 228.355469 C 283.566406 241.375 280.902344 254.554688 273.046875 265.234375 C 265.148438 275.4375 253.765625 283.277344 240.75 285.035156 C 225.964844 286.410156 212.285156 283.644531 200.628906 273.976562 C 197.21875 271.046875 194.339844 267.773438 191.796875 264.0625 C 191.53125 263.679688 191.269531 263.296875 190.996094 262.898438 C 183.671875 251.664062 181.597656 237.929688 184.144531 224.863281 C 187 212.039062 194.898438 200.878906 205.957031 193.785156 C 226.023438 181.28125 248.128906 185.761719 266.015625 199.609375 Z M 205.175781 203.785156 C 198.257812 211.890625 194.550781 222.203125 194.96875 232.835938 C 195.910156 243.714844 200.699219 253.507812 208.957031 260.75 C 218.085938 268.117188 228.378906 270.753906 239.996094 269.847656 C 249.894531 268.722656 258.695312 263.15625 265.234375 255.859375 C 272.09375 247.171875 275.304688 236.628906 274.039062 225.605469 C 272.636719 215.246094 267.234375 205.542969 258.972656 199.074219 C 242.089844 186.9375 219.636719 188.664062 205.175781 203.785156 Z M 205.175781 203.785156 "/>
<path style=" stroke:none;fill-rule:nonzero;fill:rgb(82.352942%,79.607844%,76.078433%);fill-opacity:1;" d="M 258.460938 337.433594 C 259.308594 338.082031 260.125 338.761719 260.9375 339.453125 C 261.324219 339.734375 261.710938 340.015625 262.109375 340.308594 C 267.3125 344.746094 270.582031 352.058594 271.179688 358.789062 C 271.691406 367.40625 269.484375 374.914062 263.933594 381.648438 C 262.316406 383.449219 260.558594 384.925781 258.59375 386.328125 C 258.300781 386.542969 258.003906 386.757812 257.699219 386.980469 C 251.46875 391.128906 243.09375 392.414062 235.789062 391.152344 C 228.09375 389.53125 221.117188 384.96875 216.734375 378.429688 C 212.34375 371.332031 210.882812 362.933594 212.5 354.710938 C 214.796875 346.578125 220.050781 340.089844 227.34375 335.9375 C 237.308594 330.695312 249.078125 330.964844 258.460938 337.433594 Z M 258.460938 337.433594 "/>
<path style=" stroke:none;fill-rule:nonzero;fill:rgb(99.607843%,99.607843%,97.254902%);fill-opacity:1;" d="M 135.9375 173.828125 C 139.804688 180.582031 143.03125 187.214844 145.042969 194.75 C 145.132812 195.085938 145.222656 195.421875 145.316406 195.769531 C 146.859375 201.917969 147.484375 208.003906 147.4375 214.332031 C 147.433594 214.671875 147.433594 215.007812 147.433594 215.359375 C 147.367188 226.777344 144.898438 237.394531 139.84375 247.65625 C 139.71875 247.914062 139.59375 248.171875 139.464844 248.4375 C 137.601562 252.21875 135.386719 255.644531 132.8125 258.984375 C 132.480469 259.421875 132.480469 259.421875 132.140625 259.867188 C 127.457031 265.878906 121.726562 271.730469 115.234375 275.78125 C 114.949219 275.960938 114.660156 276.140625 114.367188 276.324219 C 100.933594 284.625 83.851562 289.65625 67.96875 287.109375 C 67.710938 286.851562 67.453125 286.59375 67.1875 286.328125 C 67.847656 284.5 68.507812 282.671875 69.167969 280.84375 C 69.394531 280.21875 69.617188 279.597656 69.84375 278.972656 C 70.164062 278.082031 70.488281 277.1875 70.8125 276.296875 C 70.910156 276.015625 71.011719 275.734375 71.117188 275.445312 C 71.832031 273.480469 71.832031 273.480469 72.265625 273.046875 C 72.859375 272.980469 73.457031 272.9375 74.050781 272.90625 C 88.105469 272.023438 101.3125 267.734375 112.5 258.984375 C 112.835938 258.734375 113.171875 258.484375 113.519531 258.226562 C 126.851562 248.058594 134.871094 232.164062 137.179688 215.757812 C 138.78125 202.484375 136.355469 189.519531 130.507812 177.566406 C 130.078125 176.5625 130.078125 176.5625 130.078125 175.390625 C 130.6875 175.125 131.296875 174.867188 131.910156 174.609375 C 132.25 174.464844 132.589844 174.320312 132.9375 174.171875 C 134.011719 173.820312 134.816406 173.800781 135.9375 173.828125 Z M 135.9375 173.828125 "/>
<path style=" stroke:none;fill-rule:nonzero;fill:rgb(82.745099%,79.607844%,76.078433%);fill-opacity:1;" d="M 152.554688 321.695312 C 156.011719 324.21875 158.195312 327.523438 159.375 331.640625 C 159.96875 335.878906 159.089844 340.246094 156.542969 343.726562 C 153.628906 347.109375 149.910156 349.257812 145.445312 349.714844 C 140.90625 349.878906 137.082031 348.371094 133.65625 345.402344 C 130.691406 342.339844 129.332031 338.441406 129.101562 334.226562 C 129.25 329.933594 131.3125 325.996094 134.375 323.046875 C 135.617188 322.113281 136.886719 321.382812 138.28125 320.703125 C 138.527344 320.570312 138.777344 320.4375 139.03125 320.300781 C 143.273438 318.335938 148.6875 319.34375 152.554688 321.695312 Z M 152.554688 321.695312 "/>
<path style=" stroke:none;fill-rule:nonzero;fill:rgb(99.607843%,99.607843%,97.254902%);fill-opacity:1;" d="M 62.890625 316.796875 C 79.742188 324.828125 92.859375 337.917969 99.382812 355.636719 C 100.453125 358.660156 101.355469 361.6875 101.953125 364.84375 C 102.011719 365.144531 102.070312 365.449219 102.128906 365.757812 C 103.308594 372.207031 103.253906 378.628906 103.125 385.15625 C 102.867188 385.285156 102.609375 385.414062 102.34375 385.546875 C 102.226562 385.277344 102.109375 385.011719 101.988281 384.734375 C 94.789062 368.324219 86.355469 353.582031 75.660156 339.171875 C 71.527344 333.601562 67.640625 328.105469 64.648438 321.828125 C 64.515625 321.546875 64.382812 321.269531 64.246094 320.984375 C 63.609375 319.601562 63.101562 318.3125 62.890625 316.796875 Z M 62.890625 316.796875 "/>
<path style=" stroke:none;fill-rule:nonzero;fill:rgb(100%,100%,97.254902%);fill-opacity:1;" d="M 335.546875 340.625 C 331.292969 346.722656 326.144531 352.234375 320.308594 356.84375 C 318.523438 358.328125 316.851562 359.925781 315.167969 361.527344 C 313.902344 362.734375 312.621094 363.917969 311.300781 365.0625 C 301.414062 373.652344 295.5 384.363281 289.589844 395.902344 C 288.371094 398.277344 287.117188 400.632812 285.839844 402.976562 C 285.664062 403.308594 285.484375 403.636719 285.300781 403.972656 C 285.058594 404.417969 285.058594 404.417969 284.808594 404.875 C 284.667969 405.132812 284.527344 405.390625 284.378906 405.65625 C 283.984375 406.25 283.984375 406.25 283.203125 406.640625 C 282.875 389.398438 291.148438 372.863281 302.734375 360.546875 C 302.941406 360.328125 303.148438 360.105469 303.363281 359.878906 C 311.253906 351.550781 320.625 345.878906 331.203125 341.578125 C 331.542969 341.4375 331.882812 341.296875 332.238281 341.152344 C 332.554688 341.027344 332.871094 340.898438 333.199219 340.769531 C 333.484375 340.65625 333.765625 340.542969 334.058594 340.425781 C 334.765625 340.234375 334.765625 340.234375 335.546875 340.625 Z M 335.546875 340.625 "/>
<path style=" stroke:none;fill-rule:nonzero;fill:rgb(100%,100%,100%);fill-opacity:1;" d="M 430.757812 335.5625 C 432.273438 336.789062 433.464844 337.90625 433.789062 339.851562 C 433.859375 343.824219 433.859375 343.824219 432.59375 345.164062 C 431.011719 346.398438 429.34375 347.125 427.367188 347.460938 C 425.390625 347.136719 423.847656 346.195312 422.5 344.710938 C 421.4375 343.121094 421.207031 341.515625 421.277344 339.625 C 421.734375 337.519531 423.28125 336.300781 425 335.15625 C 426.886719 334.5625 429.03125 334.527344 430.757812 335.5625 Z M 430.757812 335.5625 "/>
<path style=" stroke:none;fill-rule:nonzero;fill:rgb(100%,100%,100%);fill-opacity:1;" d="M 304.46875 47.949219 C 305.386719 48.757812 306.027344 49.339844 306.640625 50.390625 C 306.773438 50.613281 306.902344 50.832031 307.039062 51.058594 C 307.660156 52.308594 307.953125 53.089844 307.503906 54.445312 C 306.570312 56.183594 305.492188 58.082031 303.613281 58.886719 C 301.332031 59.140625 299.382812 59.164062 297.265625 58.203125 C 295.898438 57.054688 295.390625 56.222656 295.207031 54.425781 C 295.128906 52.074219 295.121094 50.363281 296.714844 48.542969 C 298.808594 46.65625 302.0625 46.726562 304.46875 47.949219 Z M 304.46875 47.949219 "/>
<path style=" stroke:none;fill-rule:nonzero;fill:rgb(100%,100%,100%);fill-opacity:1;" d="M 105.859375 142.578125 C 106.664062 143.300781 107.183594 144.027344 107.8125 144.921875 C 107.167969 146.210938 106.523438 147.5 105.859375 148.828125 C 102.292969 149.066406 102.292969 149.066406 100.734375 147.972656 C 100 146.875 100 146.875 99.757812 145.921875 C 100.113281 144.453125 100.910156 143.648438 101.953125 142.578125 C 103.46875 142.074219 104.316406 142.179688 105.859375 142.578125 Z M 105.859375 142.578125 "/>
<path style=" stroke:none;fill-rule:nonzero;fill:rgb(100%,100%,100%);fill-opacity:1;" d="M 217.96875 469.53125 C 219.09375 470.484375 219.09375 470.484375 219.921875 471.484375 C 220.050781 471.613281 220.179688 471.742188 220.3125 471.875 C 220.519531 473.402344 220.425781 474.046875 219.554688 475.34375 C 218.144531 476.320312 217.320312 476.441406 215.636719 476.332031 C 214.84375 476.171875 214.84375 476.171875 214.039062 475.609375 C 213.480469 474.089844 213.414062 472.691406 213.671875 471.09375 C 214.757812 469.308594 215.976562 469.21875 217.96875 469.53125 Z M 217.96875 469.53125 "/>
</g>
</svg>
