<?xml version="1.0" encoding="UTF-8"?>
<svg xmlns="http://www.w3.org/2000/svg" xmlns:xlink="http://www.w3.org/1999/xlink" width="250px" height="250px" viewBox="0 0 250 250" version="1.1">
<g id="surface1">
<path style=" stroke:none;fill-rule:nonzero;fill:rgb(99.607843%,100%,100%);fill-opacity:1;" d="M 162.660156 44.773438 C 163.222656 45.226562 163.441406 45.617188 163.535156 46.332031 C 163.460938 47.945312 162.675781 48.742188 161.523438 49.804688 C 160.734375 50.511719 159.925781 51.195312 159.109375 51.875 C 158.335938 52.53125 157.585938 53.222656 156.835938 53.90625 C 156.636719 54.085938 156.4375 54.269531 156.234375 54.449219 C 154.175781 56.050781 154.175781 56.050781 153.085938 58.21875 C 153.058594 59.464844 153.277344 60.058594 154.113281 61 C 154.96875 61.492188 155.679688 61.558594 156.640625 61.328125 C 157.367188 60.886719 157.964844 60.335938 158.59375 59.765625 C 158.90625 59.523438 159.21875 59.28125 159.535156 59.046875 C 160.1875 58.550781 160.75 58.003906 161.328125 57.421875 C 161.703125 57.070312 162.082031 56.71875 162.464844 56.371094 C 162.566406 56.277344 162.667969 56.183594 162.773438 56.085938 C 164.136719 54.847656 165.5 53.621094 166.992188 52.539062 C 167.179688 52.402344 167.179688 52.402344 167.371094 52.261719 C 170.113281 50.511719 173.734375 50.523438 176.804688 51.132812 C 178.035156 51.414062 179.195312 51.882812 180.355469 52.371094 C 185.753906 54.589844 191.703125 52.445312 196.832031 50.378906 C 197.828125 49.957031 198.785156 49.464844 199.742188 48.964844 C 200.878906 48.382812 201.457031 48.171875 202.734375 48.4375 C 202.863281 48.5 202.992188 48.566406 203.125 48.632812 C 203.226562 49.003906 203.226562 49.003906 203.285156 49.460938 C 203.304688 49.613281 203.328125 49.761719 203.347656 49.917969 C 203.292969 50.859375 202.640625 51.511719 201.996094 52.148438 C 201.777344 52.367188 201.777344 52.367188 201.550781 52.589844 C 201.394531 52.746094 201.238281 52.898438 201.074219 53.058594 C 200.910156 53.21875 200.75 53.382812 200.582031 53.546875 C 200.0625 54.0625 199.542969 54.578125 199.023438 55.089844 C 198.503906 55.605469 197.984375 56.121094 197.464844 56.632812 C 197.140625 56.953125 196.820312 57.273438 196.496094 57.59375 C 196.277344 57.8125 196.277344 57.8125 196.050781 58.035156 C 195.921875 58.160156 195.792969 58.289062 195.660156 58.421875 C 195.300781 58.785156 195.300781 58.785156 194.996094 59.226562 C 194.863281 59.398438 194.863281 59.398438 194.726562 59.570312 C 194.597656 59.570312 194.46875 59.570312 194.335938 59.570312 C 194.292969 59.675781 194.253906 59.78125 194.210938 59.890625 C 193.851562 60.519531 193.359375 60.984375 192.847656 61.488281 C 192.742188 61.589844 192.636719 61.695312 192.527344 61.800781 C 191.566406 62.746094 190.570312 63.640625 189.515625 64.476562 C 189.046875 64.84375 189.046875 64.84375 188.597656 65.308594 C 188.207031 65.699219 187.816406 66.050781 187.390625 66.40625 C 186.34375 67.253906 186.34375 67.253906 185.855469 68.472656 C 185.808594 69.421875 185.804688 69.941406 186.390625 70.714844 C 187.316406 71.382812 187.914062 71.652344 189.0625 71.484375 C 189.949219 71.089844 190.609375 70.5625 191.359375 69.945312 C 192.78125 68.789062 194.21875 67.808594 196.09375 67.773438 C 196.289062 67.835938 196.480469 67.902344 196.679688 67.96875 C 197.3125 69.863281 196.910156 72.0625 196.09375 73.828125 C 195.09375 75.761719 193.367188 77.386719 191.796875 78.871094 C 191.152344 79.507812 190.691406 80.179688 190.429688 81.054688 C 190.429688 82.074219 190.675781 83.050781 191.40625 83.789062 C 192.628906 84.492188 193.914062 84.824219 195.289062 85.070312 C 195.882812 85.191406 196.230469 85.320312 196.679688 85.742188 C 197.726562 87.421875 197.273438 89.960938 196.898438 91.808594 C 196.726562 92.472656 196.488281 93.105469 196.234375 93.742188 C 196.082031 94.171875 195.988281 94.597656 195.898438 95.042969 C 195.742188 95.796875 195.480469 96.390625 195.117188 97.070312 C 194.980469 97.445312 194.839844 97.824219 194.703125 98.199219 C 194.214844 99.425781 193.648438 100.566406 192.773438 101.5625 C 192.644531 101.757812 192.515625 101.949219 192.382812 102.148438 C 192.253906 102.148438 192.125 102.148438 191.992188 102.148438 C 191.949219 102.289062 191.90625 102.433594 191.863281 102.582031 C 191.535156 103.261719 191.136719 103.566406 190.539062 104.027344 C 189.800781 104.597656 189.800781 104.597656 189.117188 105.230469 C 188.867188 105.46875 188.867188 105.46875 188.476562 105.46875 C 188.414062 105.664062 188.347656 105.855469 188.28125 106.054688 C 187.953125 106.351562 187.613281 106.636719 187.269531 106.910156 C 187.074219 107.066406 186.878906 107.21875 186.679688 107.378906 C 186.5 107.523438 186.320312 107.664062 186.132812 107.8125 C 185.570312 108.269531 185.027344 108.722656 184.523438 109.242188 C 184.179688 109.570312 184.179688 109.570312 183.789062 109.570312 C 183.746094 109.683594 183.699219 109.792969 183.65625 109.910156 C 183.328125 110.472656 182.933594 110.769531 182.421875 111.167969 C 181.472656 111.921875 180.574219 112.714844 179.6875 113.542969 C 179.296875 113.867188 179.296875 113.867188 178.90625 113.867188 C 178.90625 113.996094 178.90625 114.125 178.90625 114.257812 C 178.582031 114.550781 178.246094 114.828125 177.90625 115.101562 C 177.609375 115.335938 177.609375 115.335938 177.3125 115.578125 C 177.128906 115.722656 176.945312 115.867188 176.757812 116.015625 C 176.195312 116.472656 175.652344 116.925781 175.148438 117.445312 C 174.804688 117.773438 174.804688 117.773438 174.414062 117.773438 C 174.351562 117.96875 174.285156 118.160156 174.21875 118.359375 C 173.84375 118.667969 173.84375 118.667969 173.375 118.992188 C 172.53125 119.636719 172.0625 120.097656 171.679688 121.09375 C 171.601562 121.972656 171.769531 122.507812 172.277344 123.230469 C 172.996094 123.734375 173.542969 123.859375 174.414062 123.828125 C 175.222656 123.621094 175.726562 123.175781 176.367188 122.65625 C 176.496094 122.65625 176.625 122.65625 176.757812 122.65625 C 176.757812 122.527344 176.757812 122.398438 176.757812 122.265625 C 177.148438 121.988281 177.53125 121.742188 177.941406 121.496094 C 178.160156 121.363281 178.382812 121.226562 178.609375 121.089844 C 179.59375 120.523438 180.535156 120.035156 181.6875 120.03125 C 181.933594 120.027344 181.933594 120.027344 182.179688 120.019531 C 182.617188 120.117188 182.617188 120.117188 182.957031 120.464844 C 184.019531 122.332031 183.304688 125.023438 183.003906 127.046875 C 182.933594 127.503906 182.867188 127.964844 182.804688 128.421875 C 182.761719 128.71875 182.71875 129.015625 182.671875 129.3125 C 182.644531 129.515625 182.644531 129.515625 182.613281 129.722656 C 182.519531 130.347656 182.398438 130.941406 182.21875 131.546875 C 182.019531 132.269531 181.941406 132.933594 181.886719 133.679688 C 181.863281 133.957031 181.839844 134.234375 181.816406 134.515625 C 181.785156 134.941406 181.75 135.371094 181.71875 135.800781 C 181.589844 137.464844 181.398438 139.042969 180.992188 140.664062 C 180.824219 141.359375 180.738281 142.039062 180.664062 142.75 C 180.535156 143.777344 180.320312 144.5625 179.882812 145.507812 C 179.777344 145.929688 179.683594 146.351562 179.589844 146.777344 C 179.382812 147.71875 179.101562 148.53125 178.710938 149.414062 C 178.554688 149.957031 178.410156 150.5 178.269531 151.046875 C 178.125 151.5625 178.125 151.5625 177.929688 152.042969 C 177.636719 152.785156 177.480469 153.550781 177.300781 154.328125 C 177.164062 154.824219 176.988281 155.207031 176.757812 155.664062 C 176.65625 156.03125 176.5625 156.402344 176.476562 156.773438 C 176.167969 158.050781 175.78125 159.265625 175.304688 160.484375 C 174.941406 161.4375 174.6875 162.421875 174.425781 163.40625 C 174.21875 164.058594 173.945312 164.625 173.632812 165.234375 C 173.574219 165.457031 173.511719 165.675781 173.449219 165.90625 C 173.210938 166.699219 172.894531 167.261719 172.460938 167.96875 C 172.371094 168.125 172.285156 168.28125 172.191406 168.445312 C 171.824219 169.027344 171.414062 169.570312 170.992188 170.117188 C 170.734375 170.46875 170.496094 170.824219 170.265625 171.191406 C 170.152344 171.351562 170.039062 171.515625 169.921875 171.679688 C 169.792969 171.679688 169.664062 171.679688 169.53125 171.679688 C 169.480469 171.835938 169.425781 171.992188 169.371094 172.15625 C 169.257812 172.402344 169.257812 172.402344 169.140625 172.65625 C 168.945312 172.71875 168.753906 172.785156 168.554688 172.851562 C 168.5 172.960938 168.445312 173.070312 168.390625 173.183594 C 168.066406 173.824219 167.574219 174.273438 167.066406 174.769531 C 166.960938 174.871094 166.855469 174.976562 166.746094 175.082031 C 165.773438 176.035156 164.769531 176.941406 163.695312 177.78125 C 163.242188 178.125 163.242188 178.125 162.890625 178.710938 C 162.773438 178.765625 162.65625 178.824219 162.535156 178.882812 C 161.789062 179.265625 161.277344 179.925781 160.707031 180.53125 C 160.351562 180.859375 160.351562 180.859375 159.960938 180.859375 C 159.910156 180.976562 159.859375 181.09375 159.808594 181.210938 C 159.550781 181.679688 159.296875 181.914062 158.886719 182.25 C 157.359375 183.550781 156.007812 184.953125 154.804688 186.554688 C 154.699219 186.671875 154.597656 186.792969 154.492188 186.914062 C 154.363281 186.914062 154.234375 186.914062 154.101562 186.914062 C 154.058594 187.046875 154.011719 187.179688 153.96875 187.316406 C 153.488281 188.386719 152.792969 189.226562 151.953125 190.039062 C 151.53125 190.523438 151.199219 190.960938 150.914062 191.539062 C 150.613281 192.128906 150.285156 192.628906 149.902344 193.164062 C 149.40625 193.859375 149 194.539062 148.632812 195.3125 C 148.53125 195.441406 148.429688 195.570312 148.328125 195.703125 C 148.011719 196.101562 148.011719 196.101562 147.851562 196.691406 C 147.648438 197.285156 147.496094 197.425781 147.070312 197.851562 C 146.929688 198.175781 146.789062 198.496094 146.65625 198.824219 C 146.332031 199.570312 145.910156 200.269531 145.507812 200.976562 C 144.898438 202.054688 144.320312 203.144531 143.792969 204.265625 C 143.558594 204.683594 143.308594 204.945312 142.96875 205.273438 C 142.90625 205.433594 142.839844 205.59375 142.773438 205.761719 C 142.570312 206.269531 142.378906 206.464844 141.992188 206.835938 C 141.890625 207.007812 141.789062 207.183594 141.6875 207.359375 C 141.59375 207.511719 141.5 207.660156 141.40625 207.8125 C 141.277344 207.8125 141.148438 207.8125 141.015625 207.8125 C 140.976562 207.945312 140.933594 208.078125 140.894531 208.214844 C 139.867188 210.410156 137.28125 212.167969 135.117188 213.105469 C 133.363281 213.671875 131.707031 213.734375 129.871094 213.71875 C 129.738281 213.71875 129.601562 213.71875 129.464844 213.71875 C 124.609375 213.699219 124.609375 213.699219 123.183594 213.089844 C 122.398438 212.792969 121.59375 212.71875 120.765625 212.609375 C 118.664062 212.316406 118.664062 212.316406 117.738281 212 C 116.773438 211.671875 115.789062 211.578125 114.78125 211.488281 C 113.929688 211.40625 113.136719 211.246094 112.3125 211.03125 C 110.980469 210.722656 109.726562 210.652344 108.363281 210.65625 C 108.011719 210.65625 108.011719 210.65625 107.648438 210.65625 C 107.152344 210.652344 106.65625 210.652344 106.160156 210.65625 C 105.410156 210.65625 104.664062 210.652344 103.914062 210.644531 C 101.628906 210.636719 99.484375 210.65625 97.292969 211.335938 C 96.660156 211.527344 96.050781 211.636719 95.398438 211.730469 C 94.507812 211.867188 93.796875 212.132812 92.96875 212.5 C 92.382812 212.660156 91.796875 212.796875 91.207031 212.9375 C 90.28125 213.171875 89.382812 213.484375 88.484375 213.8125 C 87.347656 214.214844 86.191406 214.484375 85.019531 214.75 C 84.25 214.925781 83.5 215.121094 82.75 215.367188 C 80.964844 215.914062 79.085938 215.839844 77.234375 215.855469 C 77.046875 215.859375 76.859375 215.863281 76.667969 215.863281 C 74.910156 215.867188 73.230469 215.722656 71.679688 214.84375 C 71.363281 214.707031 71.042969 214.570312 70.722656 214.4375 C 69.902344 214.082031 69.09375 213.699219 68.285156 213.316406 C 68.113281 213.238281 67.9375 213.15625 67.757812 213.074219 C 66.738281 212.59375 65.804688 212.058594 64.875 211.421875 C 64.199219 210.960938 63.488281 210.554688 62.78125 210.144531 C 61.945312 209.660156 61.109375 209.171875 60.285156 208.667969 C 60.101562 208.554688 60.101562 208.554688 59.910156 208.441406 C 59.558594 208.195312 59.28125 207.925781 58.984375 207.617188 C 58.667969 207.363281 58.351562 207.109375 58.03125 206.859375 C 57.328125 206.300781 56.652344 205.753906 56.054688 205.078125 C 56.054688 204.949219 56.054688 204.820312 56.054688 204.6875 C 55.863281 204.625 55.667969 204.558594 55.46875 204.492188 C 55.148438 204.050781 55.148438 204.050781 54.808594 203.492188 C 54.433594 202.867188 54.046875 202.265625 53.617188 201.679688 C 53.117188 200.988281 52.738281 200.265625 52.367188 199.5 C 52.234375 199.222656 52.097656 198.949219 51.964844 198.675781 C 51.898438 198.539062 51.832031 198.398438 51.761719 198.257812 C 51.570312 197.871094 51.375 197.480469 51.179688 197.09375 C 50.585938 195.933594 50.050781 194.785156 49.609375 193.554688 C 49.417969 193.265625 49.417969 193.265625 49.21875 192.96875 C 49.117188 192.695312 49.023438 192.417969 48.9375 192.140625 C 48.457031 190.652344 47.773438 189.28125 47.070312 187.890625 C 46.878906 187.507812 46.6875 187.121094 46.492188 186.738281 C 46.289062 186.328125 46.085938 185.921875 45.882812 185.515625 C 45.664062 185.074219 45.441406 184.632812 45.226562 184.191406 C 44.441406 182.605469 43.582031 181.074219 42.65625 179.570312 C 42.503906 179.320312 42.503906 179.320312 42.347656 179.066406 C 42.242188 178.898438 42.140625 178.730469 42.03125 178.554688 C 41.796875 178.125 41.796875 178.125 41.796875 177.734375 C 41.605469 177.671875 41.410156 177.605469 41.210938 177.539062 C 41.007812 177.152344 40.8125 176.761719 40.625 176.367188 C 40.375 176.003906 40.121094 175.644531 39.855469 175.292969 C 38.984375 174.117188 38.984375 174.117188 38.609375 173.546875 C 38.292969 173.046875 38.292969 173.046875 37.941406 172.609375 C 37.695312 172.265625 37.695312 172.265625 37.695312 171.875 C 37.578125 171.832031 37.460938 171.785156 37.339844 171.742188 C 36.792969 171.410156 36.632812 171.070312 36.328125 170.507812 C 36.117188 170.199219 36.117188 170.199219 35.902344 169.886719 C 35.546875 169.335938 35.546875 169.335938 35.546875 168.945312 C 35.417969 168.945312 35.289062 168.945312 35.15625 168.945312 C 34.867188 168.59375 34.867188 168.59375 34.535156 168.101562 C 34.414062 167.925781 34.292969 167.75 34.167969 167.566406 C 33.679688 166.824219 33.199219 166.074219 32.730469 165.320312 C 32.433594 164.847656 32.433594 164.847656 32.105469 164.429688 C 31.753906 163.949219 31.613281 163.457031 31.445312 162.890625 C 31.316406 162.890625 31.1875 162.890625 31.054688 162.890625 C 30.980469 162.71875 30.980469 162.71875 30.90625 162.539062 C 30.484375 161.566406 30.484375 161.566406 29.96875 160.644531 C 29.558594 159.933594 29.347656 159.175781 29.101562 158.398438 C 29.035156 158.210938 28.964844 158.023438 28.898438 157.832031 C 28.074219 155.152344 28.375 151.652344 29.289062 149.042969 C 29.503906 148.398438 29.65625 147.757812 29.796875 147.09375 C 30.003906 146.167969 30.269531 145.390625 30.664062 144.53125 C 30.953125 143.742188 31.203125 142.9375 31.441406 142.132812 C 31.507812 141.90625 31.574219 141.683594 31.640625 141.453125 C 31.699219 141.246094 31.761719 141.039062 31.824219 140.824219 C 32.027344 140.242188 32.300781 139.785156 32.617188 139.257812 C 32.746094 138.816406 32.746094 138.816406 32.8125 138.378906 C 32.917969 137.839844 33 137.511719 33.289062 137.035156 C 33.691406 136.359375 33.839844 135.664062 34.03125 134.902344 C 34.179688 134.375 34.179688 134.375 34.484375 133.667969 C 34.71875 133.121094 34.847656 132.679688 34.960938 132.105469 C 35.070312 131.566406 35.152344 131.257812 35.449219 130.785156 C 35.839844 130.101562 35.90625 129.433594 36.011719 128.65625 C 36.132812 128.125 36.132812 128.125 36.425781 127.640625 C 36.761719 127.074219 36.832031 126.640625 36.914062 125.988281 C 36.996094 125.3125 37.09375 124.835938 37.402344 124.226562 C 37.726562 123.566406 37.804688 123.042969 37.878906 122.3125 C 37.984375 121.449219 38.121094 120.71875 38.476562 119.921875 C 38.925781 118.914062 39.027344 117.917969 39.160156 116.832031 C 39.273438 116.101562 39.554688 115.519531 39.84375 114.84375 C 39.953125 114.15625 40.039062 113.46875 40.113281 112.773438 C 40.242188 112.070312 40.5 111.574219 40.820312 110.9375 C 40.945312 110.289062 41.015625 109.644531 41.089844 108.988281 C 41.21875 108.359375 41.414062 108.113281 41.796875 107.617188 C 41.929688 107.09375 41.929688 107.09375 41.992188 106.542969 C 42.101562 105.726562 42.277344 105.332031 42.773438 104.6875 C 42.945312 104.171875 42.945312 104.171875 43.066406 103.625 C 43.265625 102.835938 43.503906 102.25 43.945312 101.5625 C 44.011719 101.332031 44.074219 101.101562 44.140625 100.867188 C 44.332031 100.210938 44.523438 99.941406 44.921875 99.414062 C 45.082031 99.015625 45.226562 98.613281 45.363281 98.203125 C 45.507812 97.851562 45.507812 97.851562 45.898438 97.460938 C 46.042969 97.125 46.191406 96.785156 46.332031 96.445312 C 46.535156 95.976562 46.796875 95.550781 47.070312 95.117188 C 47.15625 94.96875 47.246094 94.816406 47.335938 94.664062 C 48.558594 92.664062 50.054688 90.671875 51.757812 89.0625 C 51.914062 88.902344 52.070312 88.742188 52.234375 88.574219 C 53.734375 87.109375 53.734375 87.109375 54.296875 87.109375 C 54.363281 86.914062 54.425781 86.722656 54.492188 86.523438 C 54.875 86.253906 55.269531 85.992188 55.664062 85.742188 C 55.839844 85.597656 56.019531 85.453125 56.203125 85.304688 C 56.640625 84.960938 56.640625 84.960938 57.03125 84.960938 C 57.097656 84.765625 57.160156 84.574219 57.226562 84.375 C 57.484375 84.1875 57.75 84.003906 58.019531 83.835938 C 58.480469 83.539062 58.925781 83.226562 59.375 82.910156 C 62.46875 80.742188 62.46875 80.742188 64.109375 80.152344 C 64.820312 79.921875 64.820312 79.921875 65.304688 79.589844 C 65.863281 79.273438 66.34375 79.140625 66.96875 79.003906 C 67.644531 78.847656 68.21875 78.6875 68.859375 78.40625 C 69.613281 78.089844 70.316406 77.96875 71.125 77.855469 C 71.707031 77.746094 71.707031 77.746094 72.332031 77.449219 C 73.105469 77.125 73.820312 76.972656 74.644531 76.84375 C 75.480469 76.707031 76.199219 76.554688 76.953125 76.171875 C 77.351562 76.105469 77.75 76.046875 78.148438 76 C 79.179688 75.855469 80.027344 75.601562 80.972656 75.183594 C 81.632812 74.925781 82.300781 74.8125 83 74.707031 C 83.441406 74.636719 83.441406 74.636719 83.789062 74.21875 C 84.367188 74.054688 84.949219 73.933594 85.539062 73.804688 C 86.144531 73.628906 86.570312 73.371094 87.109375 73.046875 C 87.632812 72.902344 87.632812 72.902344 88.148438 72.816406 C 88.320312 72.785156 88.492188 72.753906 88.667969 72.722656 C 88.800781 72.699219 88.929688 72.679688 89.0625 72.65625 C 89.0625 72.527344 89.0625 72.398438 89.0625 72.265625 C 89.257812 72.203125 89.257812 72.203125 89.457031 72.136719 C 90.65625 71.722656 91.738281 71.222656 92.839844 70.597656 C 93.472656 70.25 94.121094 69.96875 94.789062 69.699219 C 95.15625 69.554688 95.15625 69.554688 95.3125 69.140625 C 95.640625 68.953125 95.640625 68.953125 96.046875 68.761719 C 97.058594 68.285156 97.992188 67.691406 98.9375 67.089844 C 99.121094 66.976562 99.300781 66.859375 99.488281 66.742188 C 99.796875 66.539062 100.101562 66.328125 100.394531 66.105469 C 100.78125 65.820312 100.78125 65.820312 101.253906 65.535156 C 101.785156 65.21875 102.273438 64.867188 102.769531 64.5 C 103.46875 63.988281 104.171875 63.484375 104.882812 62.988281 C 109.035156 60.195312 109.035156 60.195312 112.792969 56.925781 C 113.179688 56.550781 113.605469 56.261719 114.050781 55.957031 C 114.742188 55.484375 114.742188 55.484375 115.402344 54.964844 C 115.976562 54.582031 116.589844 54.429688 117.25 54.261719 C 117.375 54.226562 117.496094 54.191406 117.625 54.15625 C 119.324219 53.710938 120.71875 53.882812 122.265625 54.6875 C 123.246094 55.492188 123.40625 56.628906 123.671875 57.808594 C 123.96875 58.921875 124.40625 59.84375 125.316406 60.558594 C 126.8125 60.972656 128.109375 60.871094 129.492188 60.15625 C 129.792969 60.023438 130.09375 59.894531 130.394531 59.765625 C 130.871094 59.554688 131.289062 59.351562 131.726562 59.070312 C 132.363281 58.714844 133.011719 58.546875 133.707031 58.351562 C 134.210938 58.207031 134.210938 58.207031 134.765625 57.910156 C 135.429688 57.578125 136.089844 57.382812 136.804688 57.175781 C 138.679688 56.632812 140.515625 55.9375 142.308594 55.164062 C 142.875 54.921875 143.441406 54.710938 144.019531 54.503906 C 144.816406 54.214844 145.59375 53.90625 146.367188 53.550781 C 146.757812 53.371094 147.15625 53.203125 147.554688 53.035156 C 151.503906 51.382812 154.777344 49.222656 157.96875 46.378906 C 159.328125 45.175781 160.765625 43.933594 162.660156 44.773438 Z M 167.480469 55.664062 C 167.363281 55.757812 167.246094 55.847656 167.125 55.945312 C 166.152344 56.714844 165.207031 57.519531 164.265625 58.332031 C 163.238281 59.21875 162.1875 60.082031 161.132812 60.9375 C 160.796875 61.214844 160.457031 61.492188 160.121094 61.765625 C 159.070312 62.625 158.019531 63.480469 156.964844 64.335938 C 156.839844 64.4375 156.710938 64.539062 156.582031 64.644531 C 156.460938 64.746094 156.335938 64.84375 156.210938 64.945312 C 155.984375 65.128906 155.761719 65.320312 155.546875 65.515625 C 154.253906 66.660156 153.097656 66.660156 151.453125 66.578125 C 151.269531 66.574219 151.089844 66.566406 150.902344 66.5625 C 149.839844 66.515625 149.195312 66.4375 148.4375 65.625 C 148.113281 65.25 148.113281 65.25 147.839844 64.867188 C 147.691406 64.664062 147.691406 64.664062 147.542969 64.457031 C 147.304688 64.117188 147.074219 63.765625 146.851562 63.414062 C 146.484375 62.890625 146.273438 62.589844 145.703125 62.304688 C 144.652344 62.152344 143.96875 62.34375 142.992188 62.742188 C 140.941406 63.578125 138.703125 64.265625 136.476562 63.941406 C 135.808594 63.847656 135.148438 63.820312 134.472656 63.804688 C 134.132812 63.796875 134.132812 63.796875 133.78125 63.785156 C 131.9375 63.980469 130.28125 64.898438 128.648438 65.734375 C 128.464844 65.828125 128.277344 65.921875 128.089844 66.019531 C 127.355469 66.390625 126.621094 66.765625 125.894531 67.152344 C 124.972656 67.574219 124.105469 67.4375 123.144531 67.25 C 122.054688 66.839844 121.117188 66.277344 120.3125 65.429688 C 120.210938 65.332031 120.109375 65.234375 120.007812 65.136719 C 119.726562 64.84375 119.726562 64.84375 119.335938 64.257812 C 119.207031 64.257812 119.078125 64.257812 118.945312 64.257812 C 118.90625 64.101562 118.863281 63.945312 118.824219 63.78125 C 118.472656 62.867188 117.945312 62.125 117.382812 61.328125 C 116.167969 61.351562 116.167969 61.351562 115.136719 61.925781 C 114.976562 62.117188 114.8125 62.304688 114.648438 62.5 C 113.609375 63.511719 112.644531 64.242188 111.328125 64.84375 C 111.199219 64.972656 111.070312 65.101562 110.9375 65.234375 C 110.71875 65.328125 110.503906 65.417969 110.277344 65.515625 C 109.679688 65.773438 109.289062 66.007812 108.789062 66.40625 C 108.464844 66.605469 108.140625 66.800781 107.8125 66.992188 C 107.550781 67.15625 107.292969 67.316406 107.03125 67.480469 C 106.449219 67.84375 105.863281 68.203125 105.273438 68.554688 C 104.984375 68.75 104.984375 68.75 104.6875 68.945312 C 104.6875 69.074219 104.6875 69.203125 104.6875 69.335938 C 104.539062 69.359375 104.390625 69.382812 104.234375 69.410156 C 103.671875 69.507812 103.671875 69.507812 103.125 69.921875 C 103.125 70.050781 103.125 70.179688 103.125 70.3125 C 102.929688 70.355469 102.738281 70.402344 102.539062 70.445312 C 101.78125 70.660156 101.179688 71.027344 100.527344 71.460938 C 100.195312 71.679688 100.195312 71.679688 99.804688 71.875 C 99.804688 72.003906 99.804688 72.132812 99.804688 72.265625 C 99.679688 72.300781 99.554688 72.335938 99.425781 72.375 C 99.265625 72.421875 99.105469 72.472656 98.9375 72.523438 C 98.777344 72.570312 98.617188 72.617188 98.449219 72.667969 C 98.316406 72.726562 98.183594 72.789062 98.046875 72.851562 C 97.980469 73.046875 97.917969 73.238281 97.851562 73.4375 C 97.683594 73.453125 97.511719 73.46875 97.339844 73.484375 C 96.578125 73.65625 96.152344 73.976562 95.507812 74.414062 C 94.992188 74.636719 94.476562 74.816406 93.945312 75 C 93.945312 75.128906 93.945312 75.257812 93.945312 75.390625 C 93.769531 75.421875 93.769531 75.421875 93.589844 75.457031 C 93.433594 75.488281 93.277344 75.515625 93.117188 75.550781 C 92.960938 75.578125 92.808594 75.609375 92.648438 75.636719 C 92.132812 75.796875 91.835938 76.042969 91.40625 76.367188 C 90.9375 76.53125 90.9375 76.53125 90.441406 76.660156 C 89.695312 76.867188 89.136719 77.136719 88.476562 77.539062 C 88.089844 77.648438 87.703125 77.738281 87.3125 77.828125 C 86.695312 77.988281 86.128906 78.265625 85.546875 78.515625 C 85.054688 78.671875 84.5625 78.816406 84.066406 78.957031 C 83.589844 79.09375 83.589844 79.09375 83.125 79.296875 C 82.332031 79.601562 81.507812 79.75 80.675781 79.925781 C 80.101562 80.046875 80.101562 80.046875 79.699219 80.273438 C 79.113281 80.558594 78.519531 80.636719 77.882812 80.75 C 76.941406 80.925781 76.070312 81.132812 75.191406 81.507812 C 74.515625 81.742188 73.8125 81.824219 73.109375 81.929688 C 72.621094 81.996094 72.621094 81.996094 72.265625 82.421875 C 71.847656 82.539062 71.421875 82.636719 70.996094 82.726562 C 70.140625 82.894531 70.140625 82.894531 69.335938 83.203125 C 69.335938 83.332031 69.335938 83.460938 69.335938 83.59375 C 69.039062 83.621094 69.039062 83.621094 68.738281 83.648438 C 67.945312 83.765625 67.28125 84.074219 66.578125 84.449219 C 66.460938 84.507812 66.34375 84.566406 66.226562 84.628906 C 64.796875 85.367188 63.394531 86.195312 62.269531 87.351562 C 61.855469 87.753906 61.46875 87.882812 60.9375 88.085938 C 60.851562 88.171875 60.769531 88.253906 60.679688 88.34375 C 60.097656 88.925781 59.398438 89.363281 58.730469 89.835938 C 58.246094 90.199219 57.84375 90.585938 57.421875 91.015625 C 57.230469 91.144531 57.035156 91.273438 56.835938 91.40625 C 56.835938 91.535156 56.835938 91.664062 56.835938 91.796875 C 56.679688 91.847656 56.523438 91.902344 56.359375 91.957031 C 56.113281 92.070312 56.113281 92.070312 55.859375 92.1875 C 55.796875 92.382812 55.730469 92.574219 55.664062 92.773438 C 55.519531 92.832031 55.375 92.886719 55.226562 92.949219 C 53.84375 93.503906 52.632812 95.09375 51.757812 96.289062 C 51.757812 96.484375 51.757812 96.675781 51.757812 96.875 C 51.644531 96.914062 51.53125 96.957031 51.417969 96.996094 C 50.453125 97.585938 49.972656 98.820312 49.445312 99.789062 C 49.277344 100.085938 49.105469 100.378906 48.925781 100.671875 C 48.058594 102.152344 47.3125 103.722656 46.789062 105.359375 C 46.597656 105.953125 46.375 106.484375 46.082031 107.03125 C 45.710938 107.734375 45.558594 108.402344 45.410156 109.175781 C 45.3125 109.570312 45.3125 109.570312 45.019531 110.035156 C 44.628906 110.71875 44.5625 111.386719 44.457031 112.164062 C 44.335938 112.695312 44.335938 112.695312 44.042969 113.164062 C 43.675781 113.796875 43.628906 114.316406 43.554688 115.039062 C 43.425781 116.296875 43.425781 116.296875 43.066406 116.894531 C 42.6875 117.523438 42.65625 118.042969 42.589844 118.773438 C 42.46875 119.914062 42.199219 120.890625 41.773438 121.949219 C 41.589844 122.496094 41.535156 122.972656 41.503906 123.546875 C 41.460938 124.296875 41.335938 124.851562 41.027344 125.539062 C 40.554688 126.601562 40.460938 127.664062 40.332031 128.8125 C 40.25 129.382812 40.148438 129.792969 39.917969 130.308594 C 39.484375 131.289062 39.601562 132.347656 39.648438 133.398438 C 40.15625 132.890625 40.351562 132.308594 40.613281 131.648438 C 40.671875 131.511719 40.726562 131.371094 40.785156 131.226562 C 40.972656 130.761719 41.160156 130.296875 41.34375 129.835938 C 41.476562 129.507812 41.609375 129.179688 41.738281 128.855469 C 42.65625 126.578125 43.558594 124.292969 44.457031 122.007812 C 44.9375 120.792969 45.417969 119.574219 45.898438 118.359375 C 45.953125 118.226562 46.003906 118.089844 46.058594 117.953125 C 54.234375 97.277344 54.234375 97.277344 63.648438 90.929688 C 63.816406 90.816406 63.980469 90.703125 64.152344 90.585938 C 68.640625 87.605469 73.527344 87.253906 78.769531 87.296875 C 79.207031 87.300781 79.644531 87.300781 80.078125 87.304688 C 81.316406 87.308594 82.554688 87.316406 83.792969 87.324219 C 90.0625 87.402344 90.0625 87.402344 96.242188 86.449219 C 96.441406 86.402344 96.644531 86.355469 96.851562 86.304688 C 99.484375 85.660156 102.082031 84.867188 104.683594 84.09375 C 105.464844 83.859375 106.246094 83.628906 107.03125 83.398438 C 107.238281 83.335938 107.238281 83.335938 107.449219 83.273438 C 108.984375 82.824219 110.429688 82.484375 112.035156 82.519531 C 112.210938 82.523438 112.386719 82.523438 112.566406 82.527344 C 115.953125 82.628906 118.457031 84.40625 121.179688 86.253906 C 128.097656 90.902344 135.269531 94.449219 142.996094 97.507812 C 146.484375 98.890625 146.484375 98.890625 147.851562 100.195312 C 147.96875 100.292969 148.082031 100.390625 148.203125 100.488281 C 150.761719 102.757812 151.542969 106.410156 152.515625 109.535156 C 154.285156 115.1875 156.160156 120.539062 159.535156 125.445312 C 159.871094 125.933594 160.195312 126.433594 160.523438 126.929688 C 161.152344 127.875 161.804688 128.808594 162.464844 129.734375 C 166.527344 135.480469 169.910156 140.425781 169.8125 147.703125 C 169.808594 148.066406 169.808594 148.425781 169.804688 148.789062 C 169.777344 151.558594 169.566406 154.277344 169.210938 157.023438 C 169.09375 158 169.019531 158.980469 168.945312 159.960938 C 169.5 159.445312 169.652344 159.082031 169.824219 158.335938 C 170.03125 157.503906 170.320312 156.824219 170.703125 156.054688 C 170.773438 155.761719 170.839844 155.46875 170.898438 155.175781 C 171.050781 154.410156 171.328125 153.824219 171.679688 153.125 C 171.839844 152.59375 171.980469 152.058594 172.121094 151.519531 C 172.328125 150.738281 172.589844 149.980469 172.851562 149.21875 C 173.597656 147.113281 173.597656 147.113281 174.109375 144.945312 C 174.21875 144.53125 174.21875 144.53125 174.511719 143.890625 C 174.832031 143.164062 174.894531 142.492188 174.953125 141.699219 C 175.089844 140.207031 175.570312 139.035156 176.257812 137.714844 C 176.910156 136.414062 176.964844 135.117188 176.574219 133.71875 C 176.15625 132.558594 175.789062 131.644531 174.804688 130.859375 C 174.480469 130.535156 174.152344 130.207031 173.828125 129.882812 C 173.722656 129.78125 173.617188 129.679688 173.511719 129.574219 C 172.914062 128.984375 172.34375 128.386719 171.800781 127.746094 C 171.164062 127.003906 170.460938 126.378906 169.710938 125.753906 C 169.132812 125.191406 168.960938 124.792969 168.890625 123.980469 C 168.882812 122.574219 168.882812 122.574219 168.882812 122.015625 C 168.882812 121.597656 168.878906 121.175781 168.875 120.753906 C 168.875 120.484375 168.875 120.214844 168.875 119.945312 C 168.875 119.582031 168.875 119.582031 168.871094 119.207031 C 168.972656 118.304688 169.292969 117.804688 169.941406 117.183594 C 170.550781 116.769531 171.167969 116.445312 171.824219 116.125 C 174.433594 114.835938 176.046875 113.503906 177.148438 110.742188 C 177.230469 110.496094 177.3125 110.246094 177.390625 109.996094 C 177.429688 109.867188 177.46875 109.742188 177.507812 109.609375 C 177.617188 109.25 177.71875 108.886719 177.820312 108.523438 C 178.699219 106.472656 180.375 105.703125 182.289062 104.796875 C 185.074219 103.476562 187.484375 101.929688 188.675781 98.941406 C 189.203125 97.023438 189.0625 95.074219 188.265625 93.257812 C 188.074219 92.738281 188.039062 92.335938 188.023438 91.785156 C 187.953125 90.601562 187.3125 89.722656 186.523438 88.867188 C 186.394531 88.867188 186.265625 88.867188 186.132812 88.867188 C 186.089844 88.765625 186.042969 88.664062 186 88.5625 C 185.769531 88.136719 185.527344 87.804688 185.230469 87.425781 C 184.90625 86.96875 184.757812 86.6875 184.605469 86.132812 C 184.824219 85.328125 185.285156 85.039062 185.917969 84.523438 C 187.308594 83.355469 187.953125 81.648438 188.15625 79.867188 C 188.21875 77.597656 187.519531 75.511719 185.964844 73.828125 C 184.960938 72.902344 183.820312 72.238281 182.574219 71.683594 C 182.03125 71.371094 182.023438 70.90625 181.835938 70.3125 C 181.535156 69.777344 181.226562 69.25 180.90625 68.726562 C 180.601562 68.019531 180.578125 67.5625 180.664062 66.796875 C 180.886719 66.296875 181.101562 65.875 181.382812 65.417969 C 181.449219 65.304688 181.515625 65.1875 181.585938 65.070312 C 182.402344 63.699219 183.222656 62.78125 184.667969 62.097656 C 185.792969 61.554688 186.703125 61.015625 187.378906 59.914062 C 187.613281 58.875 187.511719 57.949219 186.949219 57.042969 C 186.101562 56.246094 185.402344 56.179688 184.269531 56.199219 C 183.632812 56.265625 183.175781 56.539062 182.617188 56.835938 C 181.96875 56.984375 181.96875 56.984375 181.25 56.835938 C 180.777344 56.433594 180.367188 56 179.945312 55.542969 C 178.414062 53.964844 176.476562 53.117188 174.289062 53.03125 C 171.476562 53 169.671875 53.933594 167.480469 55.664062 Z M 105.46875 101.757812 C 105.277344 101.929688 105.085938 102.101562 104.890625 102.28125 C 101.53125 105.417969 99.34375 109.878906 99.179688 114.507812 C 99.089844 119.820312 100.667969 124.351562 104.296875 128.320312 C 107.789062 131.859375 112.441406 133.773438 117.394531 133.863281 C 122.585938 133.847656 127.007812 131.730469 130.664062 128.125 C 130.808594 127.984375 130.949219 127.84375 131.097656 127.699219 C 134.648438 123.964844 135.679688 119.1875 135.609375 114.195312 C 135.554688 112.621094 135.292969 111.25 134.765625 109.765625 C 134.691406 109.558594 134.621094 109.351562 134.542969 109.140625 C 132.742188 104.488281 129.382812 101.019531 124.902344 98.875 C 118.539062 96.15625 110.664062 96.953125 105.46875 101.757812 Z M 39.453125 133.59375 C 39.648438 133.984375 39.648438 133.984375 39.648438 133.984375 Z M 68.945312 161.523438 C 67.582031 163.386719 67.183594 165.089844 67.382812 167.382812 C 67.75 169.0625 68.78125 170.441406 70.191406 171.414062 C 71.910156 172.402344 73.828125 172.570312 75.765625 172.140625 C 77.660156 171.449219 78.742188 170.238281 79.664062 168.484375 C 80.296875 166.992188 80.277344 165.292969 79.796875 163.757812 C 79.066406 161.964844 77.789062 160.730469 76.046875 159.929688 C 73.582031 159.050781 70.785156 159.628906 68.945312 161.523438 Z M 168.75 159.960938 C 168.945312 160.546875 168.945312 160.546875 168.945312 160.546875 Z M 110.441406 170.480469 C 107.839844 173.773438 107.085938 177.335938 107.421875 181.445312 C 107.929688 185.011719 110.101562 188.0625 112.890625 190.234375 C 116.09375 192.429688 119.664062 193.007812 123.484375 192.523438 C 126.949219 191.871094 130.066406 189.589844 132.03125 186.71875 C 133.972656 183.542969 134.742188 179.984375 133.957031 176.3125 C 133.117188 172.835938 131.058594 169.824219 128.078125 167.820312 C 122.269531 164.324219 114.960938 165.394531 110.441406 170.480469 Z M 110.441406 170.480469 "/>
<path style=" stroke:none;fill-rule:nonzero;fill:rgb(99.607843%,100%,100%);fill-opacity:1;" d="M 124.058594 3.699219 C 124.894531 3.683594 125.726562 3.691406 126.5625 3.710938 C 126.746094 3.714844 126.933594 3.71875 127.121094 3.722656 C 143.023438 4.050781 158.808594 7.289062 201.5625 30.46875 C 201.835938 30.6875 201.835938 30.6875 202.113281 30.910156 C 204.367188 32.738281 206.546875 34.640625 208.667969 36.621094 C 208.984375 36.914062 209.304688 37.207031 209.625 37.5 C 211.445312 39.160156 213.253906 40.84375 214.851562 42.726562 C 215.269531 43.207031 215.707031 43.671875 216.144531 44.136719 C 217.15625 45.214844 218.132812 46.304688 219.058594 47.457031 C 219.417969 47.90625 219.78125 48.347656 220.152344 48.789062 C 224.328125 53.773438 228.015625 59.203125 231.25 64.84375 C 231.355469 65.03125 231.464844 65.214844 231.574219 65.40625 C 240.320312 80.628906 245.558594 97.457031 243.832031 157.847656 C 240.796875 169.0625 236.320312 179.910156 230.273438 189.84375 C 230.089844 190.144531 230.089844 190.144531 229.90625 190.449219 C 228.449219 192.835938 226.949219 195.179688 225.300781 197.441406 C 224.980469 197.878906 224.660156 198.320312 224.34375 198.761719 C 222.90625 200.746094 221.398438 202.652344 219.828125 204.527344 C 219.429688 205.007812 219.039062 205.496094 218.652344 205.980469 C 217.828125 206.992188 216.941406 207.945312 216.042969 208.890625 C 215.484375 209.476562 214.941406 210.070312 214.417969 210.683594 C 213.542969 211.691406 212.597656 212.628906 211.652344 213.570312 C 211.339844 213.878906 211.03125 214.191406 210.722656 214.5 C 209.65625 215.566406 208.570312 216.597656 207.421875 217.578125 C 207.074219 217.894531 206.730469 218.210938 206.382812 218.53125 C 205.519531 219.320312 204.632812 220.074219 203.722656 220.808594 C 203.285156 221.160156 202.851562 221.515625 202.417969 221.875 C 200.636719 223.347656 198.804688 224.722656 196.921875 226.058594 C 196.496094 226.359375 196.074219 226.660156 195.65625 226.964844 C 190.949219 230.347656 185.925781 233.257812 180.761719 235.882812 C 180.335938 236.101562 179.910156 236.320312 179.484375 236.542969 C 175.203125 238.75 170.738281 240.5625 166.210938 242.1875 C 165.980469 242.269531 165.75 242.355469 165.511719 242.4375 C 152.632812 247.011719 138.910156 249.273438 125.257812 249.253906 C 125.074219 249.253906 124.894531 249.253906 124.707031 249.253906 C 111.878906 249.234375 99.089844 247.238281 86.914062 243.164062 C 86.683594 243.089844 86.453125 243.011719 86.21875 242.933594 C 79.324219 240.671875 72.621094 237.820312 66.300781 234.253906 C 65.847656 234 65.394531 233.753906 64.9375 233.507812 C 61.027344 231.390625 57.3125 228.96875 53.710938 226.367188 C 53.554688 226.253906 53.394531 226.140625 53.234375 226.023438 C 49.335938 223.214844 45.644531 220.167969 42.125 216.902344 C 41.875 216.675781 41.625 216.449219 41.371094 216.226562 C 40.160156 215.148438 38.996094 214.027344 37.851562 212.878906 C 37.558594 212.585938 37.265625 212.292969 36.972656 212 C 36.039062 211.066406 35.128906 210.125 34.269531 209.121094 C 33.871094 208.65625 33.449219 208.203125 33.03125 207.75 C 32.242188 206.886719 31.488281 206 30.753906 205.089844 C 30.402344 204.652344 30.046875 204.21875 29.6875 203.785156 C 28.222656 202.011719 26.847656 200.191406 25.523438 198.3125 C 25.1875 197.84375 24.851562 197.375 24.515625 196.90625 C 13.320312 181.195312 6.105469 162.492188 2.539062 133.984375 C 2.527344 133.804688 2.515625 133.625 2.503906 133.441406 C 1.78125 121.304688 2.972656 109.070312 5.859375 97.265625 C 5.914062 97.039062 5.96875 96.816406 6.023438 96.585938 C 8.808594 85.324219 13.242188 74.371094 19.199219 64.421875 C 19.515625 63.894531 19.828125 63.363281 20.136719 62.835938 C 21.46875 60.570312 22.902344 58.398438 24.414062 56.25 C 24.503906 56.121094 24.59375 55.996094 24.683594 55.863281 C 27.832031 51.371094 31.320312 47.105469 35.058594 43.089844 C 35.378906 42.742188 35.699219 42.398438 36.019531 42.050781 C 39.476562 38.316406 39.476562 38.316406 41.351562 36.71875 C 41.835938 36.296875 42.300781 35.859375 42.769531 35.417969 C 43.847656 34.40625 44.9375 33.429688 46.089844 32.503906 C 46.539062 32.144531 46.984375 31.777344 47.425781 31.40625 C 49.257812 29.871094 51.132812 28.4375 53.085938 27.0625 C 53.5 26.769531 53.914062 26.472656 54.324219 26.175781 C 67.765625 16.492188 83.460938 9.804688 124.058594 3.699219 Z M 49.917969 42.113281 C 49.515625 42.484375 49.109375 42.839844 48.695312 43.199219 C 47.878906 43.914062 47.105469 44.664062 46.335938 45.433594 C 46.199219 45.570312 46.0625 45.707031 45.921875 45.851562 C 45.632812 46.140625 45.34375 46.425781 45.054688 46.714844 C 44.617188 47.15625 44.179688 47.59375 43.742188 48.027344 C 43.460938 48.3125 43.175781 48.59375 42.894531 48.875 C 42.703125 49.070312 42.703125 49.070312 42.503906 49.265625 C 41.644531 50.128906 40.832031 51.027344 40.039062 51.953125 C 39.855469 52.164062 39.667969 52.375 39.480469 52.585938 C 38.070312 54.207031 36.753906 55.882812 35.464844 57.597656 C 35.175781 57.984375 34.878906 58.367188 34.585938 58.75 C 25.308594 70.8125 18.824219 85.050781 15.234375 99.804688 C 15.179688 100.027344 15.125 100.246094 15.070312 100.472656 C 13.9375 105.199219 13.15625 109.964844 12.648438 114.796875 C 12.628906 114.949219 12.613281 115.101562 12.597656 115.257812 C 12.210938 118.945312 12.070312 122.609375 12.074219 126.320312 C 12.074219 126.519531 12.074219 126.722656 12.074219 126.929688 C 12.078125 130.273438 12.171875 133.582031 12.5 136.914062 C 12.535156 137.285156 12.535156 137.285156 12.574219 137.664062 C 14.265625 154.382812 19.613281 170.578125 28.320312 184.960938 C 28.40625 185.105469 28.492188 185.25 28.582031 185.398438 C 31.390625 190.050781 34.585938 194.476562 38.085938 198.632812 C 38.253906 198.835938 38.425781 199.039062 38.59375 199.242188 C 39.722656 200.59375 40.886719 201.90625 42.085938 203.195312 C 42.410156 203.546875 42.734375 203.894531 43.058594 204.246094 C 45.527344 206.914062 45.527344 206.914062 48.195312 209.382812 C 48.648438 209.78125 49.09375 210.191406 49.539062 210.605469 C 50.757812 211.746094 52.011719 212.824219 53.320312 213.867188 C 53.539062 214.042969 53.757812 214.222656 53.976562 214.402344 C 58.273438 217.894531 62.835938 220.972656 67.578125 223.828125 C 67.816406 223.972656 67.816406 223.972656 68.058594 224.117188 C 74.804688 228.148438 82.011719 231.292969 89.453125 233.789062 C 89.671875 233.863281 89.894531 233.9375 90.121094 234.015625 C 101.304688 237.746094 113.070312 239.496094 124.839844 239.503906 C 125.078125 239.503906 125.316406 239.503906 125.558594 239.503906 C 129.632812 239.5 133.652344 239.347656 137.695312 238.867188 C 137.835938 238.851562 137.976562 238.835938 138.121094 238.816406 C 150.652344 237.328125 162.84375 233.78125 174.21875 228.320312 C 174.421875 228.222656 174.621094 228.128906 174.832031 228.027344 C 178.191406 226.421875 181.398438 224.609375 184.570312 222.65625 C 184.769531 222.535156 184.964844 222.414062 185.167969 222.289062 C 187.417969 220.902344 189.578125 219.445312 191.667969 217.828125 C 192.125 217.476562 192.59375 217.144531 193.066406 216.808594 C 194.515625 215.761719 195.890625 214.617188 197.265625 213.476562 C 197.382812 213.382812 197.496094 213.285156 197.617188 213.1875 C 199.066406 211.984375 200.46875 210.738281 201.847656 209.457031 C 202.160156 209.167969 202.472656 208.882812 202.785156 208.597656 C 204.535156 206.996094 206.269531 205.378906 207.8125 203.570312 C 208.234375 203.085938 208.671875 202.621094 209.113281 202.152344 C 210.296875 200.890625 211.421875 199.597656 212.5 198.242188 C 212.675781 198.023438 212.855469 197.804688 213.03125 197.589844 C 215.355469 194.730469 217.535156 191.769531 219.53125 188.671875 C 219.621094 188.53125 219.710938 188.394531 219.804688 188.25 C 222.285156 184.414062 224.503906 180.445312 226.5625 176.367188 C 226.652344 176.1875 226.742188 176.011719 226.835938 175.824219 C 234.03125 161.488281 237.984375 144.949219 238.121094 126.613281 C 238.121094 126.410156 238.121094 126.207031 238.121094 126 C 238.117188 122.65625 238.023438 119.347656 237.695312 116.015625 C 237.671875 115.769531 237.648438 115.519531 237.621094 115.265625 C 235.820312 97.46875 229.847656 80.210938 209.425781 51.273438 C 209.179688 51 208.933594 50.722656 208.695312 50.445312 C 207.875 49.492188 207.019531 48.589844 206.128906 47.703125 C 205.992188 47.566406 205.855469 47.429688 205.710938 47.289062 C 205.421875 47 205.136719 46.710938 204.847656 46.421875 C 204.40625 45.984375 203.96875 45.546875 203.535156 45.109375 C 203.25 44.828125 202.96875 44.542969 202.6875 44.261719 C 202.558594 44.132812 202.429688 44.003906 202.296875 43.871094 C 201.433594 43.011719 200.535156 42.199219 199.609375 41.40625 C 199.453125 41.273438 199.453125 41.273438 199.292969 41.132812 C 197.679688 39.742188 196.027344 38.40625 194.335938 37.109375 C 194.121094 36.941406 194.121094 36.941406 193.898438 36.773438 C 189.023438 33.027344 183.863281 29.71875 178.4375 26.832031 C 177.964844 26.582031 177.5 26.328125 177.035156 26.070312 C 162.828125 18.332031 146.261719 14.234375 49.917969 42.113281 Z M 49.917969 42.113281 "/>
<path style=" stroke:none;fill-rule:nonzero;fill:rgb(100%,100%,100%);fill-opacity:1;" d="M 211.914062 166.210938 C 212.867188 166.632812 213.332031 167.203125 213.746094 168.136719 C 214.035156 169.125 213.800781 169.871094 213.328125 170.765625 C 212.753906 171.449219 212.363281 171.8125 211.457031 171.9375 C 210.335938 171.988281 209.660156 171.859375 208.789062 171.09375 C 208.15625 170.503906 208.050781 169.851562 207.984375 169.019531 C 208.039062 167.945312 208.542969 167.226562 209.300781 166.503906 C 210.199219 166.105469 210.949219 166.058594 211.914062 166.210938 Z M 211.914062 166.210938 "/>
<path style=" stroke:none;fill-rule:nonzero;fill:rgb(100%,100%,100%);fill-opacity:1;" d="M 151.234375 27.074219 C 151.921875 27.683594 152.449219 28.199219 152.613281 29.136719 C 152.667969 30.191406 152.476562 30.828125 151.757812 31.640625 C 150.9375 32.367188 150.304688 32.535156 149.238281 32.484375 C 148.296875 32.339844 147.679688 31.753906 147.070312 31.054688 C 146.746094 30.085938 146.699219 29.101562 147.117188 28.160156 C 148.230469 26.773438 149.558594 26.253906 151.234375 27.074219 Z M 151.234375 27.074219 "/>
<path style=" stroke:none;fill-rule:nonzero;fill:rgb(100%,100%,100%);fill-opacity:1;" d="M 109.570312 231.445312 C 110.15625 231.941406 110.320312 232.257812 110.460938 233.007812 C 110.3125 233.808594 110.023438 234.089844 109.375 234.570312 C 108.621094 234.710938 108.3125 234.636719 107.652344 234.242188 C 107.167969 233.726562 107.03125 233.515625 107.03125 232.8125 C 107.558594 231.503906 108.160156 231.199219 109.570312 231.445312 Z M 109.570312 231.445312 "/>
<path style=" stroke:none;fill-rule:nonzero;fill:rgb(99.607843%,100%,100%);fill-opacity:1;" d="M 54.6875 72.851562 C 55.347656 73.328125 55.617188 73.613281 55.785156 74.414062 C 55.617188 75.214844 55.347656 75.5 54.6875 75.976562 C 53.992188 76.085938 53.992188 76.085938 53.320312 75.976562 C 52.84375 75.625 52.609375 75.355469 52.367188 74.816406 C 52.328125 74.132812 52.597656 73.644531 52.964844 73.082031 C 53.558594 72.695312 54.003906 72.757812 54.6875 72.851562 Z M 54.6875 72.851562 "/>
</g>
</svg>
