<?xml version="1.0" encoding="UTF-8"?>
<svg version="1.1" xmlns="http://www.w3.org/2000/svg" width="250" height="250">
<path d="M0 0 C0.70487549 0.00054382 1.40975098 0.00108765 2.13598633 0.00164795 C13.64019402 0.042376 24.47375748 0.91770868 35.5 4.375 C36.51755371 4.68848389 36.51755371 4.68848389 37.55566406 5.00830078 C70.87717514 15.62505908 96.00640085 38.48000907 112.03637695 69.21655273 C127.20879461 99.33009204 127.80472122 133.68528468 117.5 165.375 C111.76269551 181.67652512 102.68433536 196.14970889 90.5 208.375 C89.68144531 209.2 88.86289063 210.025 88.01953125 210.875 C64.60065909 234.11233051 34.43436509 246.9070479 1.375 247.5625 C-31.63582199 247.17322144 -61.62254126 235.25088748 -85.5 212.375 C-86.24765625 211.69050781 -86.9953125 211.00601563 -87.765625 210.30078125 C-101.22295698 197.5727802 -110.95430032 180.70963672 -116.875 163.25 C-117.10155273 162.58323242 -117.32810547 161.91646484 -117.56152344 161.22949219 C-121.49862311 148.80246629 -123.05918268 136.62274469 -122.9375 123.625 C-122.93445862 122.93011475 -122.93141724 122.23522949 -122.92828369 121.51928711 C-122.85473152 110.10791241 -121.93697028 99.30843665 -118.5 88.375 C-118.28569336 87.68599609 -118.07138672 86.99699219 -117.85058594 86.28710938 C-107.78582755 55.02336208 -85.44258101 28.44251567 -56.359375 13.14453125 C-46.80207453 8.34153403 -36.91871719 4.79539149 -26.5 2.375 C-25.30745605 2.0968042 -25.30745605 2.0968042 -24.09082031 1.81298828 C-16.08775733 0.14729322 -8.1512163 -0.02368705 0 0 Z " fill="#1B2129" transform="translate(124.5,1.625)"/>
<path d="M0 0 C0.58668457 0.21938232 1.17336914 0.43876465 1.77783203 0.66479492 C1.15018504 5.68597082 -2.47458343 7.65409353 -6.19091797 10.66479492 C-8.29670647 12.73818668 -8.86201289 13.78355429 -9.22216797 16.66479492 C-4.61828897 15.40254815 -1.98018234 13.80396643 1.46533203 10.53979492 C6.23301291 6.53291419 9.49523092 5.88179036 15.62548828 6.28588867 C17.77783203 6.66479492 17.77783203 6.66479492 18.77783203 7.66479492 C24.53895297 8.33349646 29.30833766 7.40147528 34.69189453 5.39916992 C37.34590107 4.46480058 39.99270712 4.02186222 42.77783203 3.66479492 C42.44783203 4.98479492 42.11783203 6.30479492 41.77783203 7.66479492 C41.11783203 7.66479492 40.45783203 7.66479492 39.77783203 7.66479492 C39.43751953 8.49430664 39.43751953 8.49430664 39.09033203 9.34057617 C37.39411386 12.34429586 35.23396833 14.43542824 32.77783203 16.85229492 C31.44751953 18.17293945 31.44751953 18.17293945 30.09033203 19.52026367 C27.77783203 21.66479492 27.77783203 21.66479492 25.77783203 22.66479492 C25.77783203 23.98479492 25.77783203 25.30479492 25.77783203 26.66479492 C28.73958326 26.05201881 30.15841986 25.4110697 32.77783203 23.66479492 C33.76783203 23.66479492 34.75783203 23.66479492 35.77783203 23.66479492 C35.6632451 25.10316243 35.53574087 26.54050458 35.40283203 27.97729492 C35.33322266 28.77780273 35.26361328 29.57831055 35.19189453 30.40307617 C34.77783203 32.66479492 34.77783203 32.66479492 32.77783203 35.66479492 C32.61069634 38.29011016 32.61069634 38.29011016 32.77783203 40.66479492 C33.76783203 40.99479492 34.75783203 41.32479492 35.77783203 41.66479492 C36.32875616 48.27588452 35.73917604 53.21925342 31.77783203 58.66479492 C29.49933348 60.99995241 27.14407127 63.23558097 24.77392578 65.47729492 C22.04373613 68.46928358 21.36662768 70.71145268 20.77783203 74.66479492 C22.09783203 74.66479492 23.41783203 74.66479492 24.77783203 74.66479492 C24.09215234 78.96825125 23.26282439 83.21853484 22.34033203 87.47729492 C22.09412109 88.61811523 21.84791016 89.75893555 21.59423828 90.93432617 C21.19011719 92.7809082 21.19011719 92.7809082 20.77783203 94.66479492 C20.56537842 95.68730347 20.56537842 95.68730347 20.34863281 96.73046875 C19.05378031 102.83040611 17.36985434 108.77142278 15.52783203 114.72729492 C15.25326172 115.66895508 14.97869141 116.61061523 14.69580078 117.58081055 C11.52615184 127.79333416 5.25041075 135.54241725 -3.10644531 142.15600586 C-8.87793411 146.75644702 -12.06041539 151.87628308 -15.47216797 158.35229492 C-16.47135989 160.21361012 -17.47637814 162.07181186 -18.48779297 163.92651367 C-18.91866211 164.74079834 -19.34953125 165.55508301 -19.79345703 166.39404297 C-22.0886091 170.04189146 -24.1009433 172.29105337 -28.22216797 173.66479492 C-34.68310843 174.10168556 -41.00144502 174.36267921 -47.15966797 172.16479492 C-54.10822788 169.76438332 -62.64854152 169.11601522 -69.67919922 171.49682617 C-70.9633014 172.17306933 -72.22878445 172.88642742 -73.46826172 173.64135742 C-78.5174218 176.58763791 -85.52365255 177.77502293 -91.22216797 176.66479492 C-100.67922386 173.07366965 -109.43802078 167.96170181 -113.95263672 158.61791992 C-114.78624529 156.72323414 -115.60471567 154.8218317 -116.40966797 152.91479492 C-121.18637956 142.23648061 -127.03979252 132.89324062 -133.97631836 123.49804688 C-137.90572382 117.7159764 -138.01294286 112.53162582 -137.22216797 105.66479492 C-136.21930765 102.43657927 -134.97449596 99.39780262 -133.65576172 96.28588867 C-132.00517318 92.11669092 -130.77293912 87.92470507 -129.59716797 83.60229492 C-129.38471436 82.82837402 -129.17226074 82.05445312 -128.95336914 81.25708008 C-127.80110894 76.9963865 -126.79134294 72.72691112 -125.84716797 68.41479492 C-123.34155513 58.29380825 -118.56601434 48.16808695 -110.22216797 41.66479492 C-109.56732422 41.13499023 -108.91248047 40.60518555 -108.23779297 40.05932617 C-104.10664535 37.006197 -100.29789612 35.26556466 -95.34716797 33.91479492 C-86.78884721 31.51806565 -79.3659341 27.17451588 -71.60888672 22.94311523 C-67.28915245 20.62947687 -62.88407267 18.48629265 -58.47290039 16.35327148 C-55.47829214 14.88369152 -52.74339253 13.33791085 -49.98388672 11.45385742 C-46.7774335 9.37669254 -44.9685097 9.30800047 -41.22216797 9.66479492 C-40.23216797 11.64479492 -39.24216797 13.62479492 -38.22216797 15.66479492 C-32.18691277 15.04501282 -26.91075106 12.7526291 -21.34716797 10.47729492 C-20.39197266 10.10282227 -19.43677734 9.72834961 -18.45263672 9.3425293 C-12.92429602 7.09403408 -8.46207486 4.66824004 -3.97167969 0.71044922 C-2.22216797 -0.33520508 -2.22216797 -0.33520508 0 0 Z " fill="#F6F6F2" transform="translate(163.22216796875,42.335205078125)"/>
<path d="M0 0 C0.58668457 0.21938232 1.17336914 0.43876465 1.77783203 0.66479492 C1.15018504 5.68597082 -2.47458343 7.65409353 -6.19091797 10.66479492 C-8.29670647 12.73818668 -8.86201289 13.78355429 -9.22216797 16.66479492 C-4.61828897 15.40254815 -1.98018234 13.80396643 1.46533203 10.53979492 C6.23301291 6.53291419 9.49523092 5.88179036 15.62548828 6.28588867 C17.77783203 6.66479492 17.77783203 6.66479492 18.77783203 7.66479492 C24.53895297 8.33349646 29.30833766 7.40147528 34.69189453 5.39916992 C37.34590107 4.46480058 39.99270712 4.02186222 42.77783203 3.66479492 C42.44783203 4.98479492 42.11783203 6.30479492 41.77783203 7.66479492 C41.11783203 7.66479492 40.45783203 7.66479492 39.77783203 7.66479492 C39.43751953 8.49430664 39.43751953 8.49430664 39.09033203 9.34057617 C37.39411386 12.34429586 35.23396833 14.43542824 32.77783203 16.85229492 C31.44751953 18.17293945 31.44751953 18.17293945 30.09033203 19.52026367 C27.77783203 21.66479492 27.77783203 21.66479492 25.77783203 22.66479492 C25.77783203 23.98479492 25.77783203 25.30479492 25.77783203 26.66479492 C28.73958326 26.05201881 30.15841986 25.4110697 32.77783203 23.66479492 C33.76783203 23.66479492 34.75783203 23.66479492 35.77783203 23.66479492 C35.6632451 25.10316243 35.53574087 26.54050458 35.40283203 27.97729492 C35.33322266 28.77780273 35.26361328 29.57831055 35.19189453 30.40307617 C34.77783203 32.66479492 34.77783203 32.66479492 32.77783203 35.66479492 C32.61069634 38.29011016 32.61069634 38.29011016 32.77783203 40.66479492 C33.76783203 40.99479492 34.75783203 41.32479492 35.77783203 41.66479492 C36.32875616 48.27588452 35.73917604 53.21925342 31.77783203 58.66479492 C29.49933348 60.99995241 27.14407127 63.23558097 24.77392578 65.47729492 C22.04373613 68.46928358 21.36662768 70.71145268 20.77783203 74.66479492 C22.09783203 74.66479492 23.41783203 74.66479492 24.77783203 74.66479492 C24.09215234 78.96825125 23.26282439 83.21853484 22.34033203 87.47729492 C22.09412109 88.61811523 21.84791016 89.75893555 21.59423828 90.93432617 C21.19011719 92.7809082 21.19011719 92.7809082 20.77783203 94.66479492 C20.56537842 95.68730347 20.56537842 95.68730347 20.34863281 96.73046875 C19.05378031 102.83040611 17.36985434 108.77142278 15.52783203 114.72729492 C15.25326172 115.66895508 14.97869141 116.61061523 14.69580078 117.58081055 C11.52615184 127.79333416 5.25041075 135.54241725 -3.10644531 142.15600586 C-8.87793411 146.75644702 -12.06041539 151.87628308 -15.47216797 158.35229492 C-16.47135989 160.21361012 -17.47637814 162.07181186 -18.48779297 163.92651367 C-18.91866211 164.74079834 -19.34953125 165.55508301 -19.79345703 166.39404297 C-22.0886091 170.04189146 -24.1009433 172.29105337 -28.22216797 173.66479492 C-34.68310843 174.10168556 -41.00144502 174.36267921 -47.15966797 172.16479492 C-54.10822788 169.76438332 -62.64854152 169.11601522 -69.67919922 171.49682617 C-70.9633014 172.17306933 -72.22878445 172.88642742 -73.46826172 173.64135742 C-78.5174218 176.58763791 -85.52365255 177.77502293 -91.22216797 176.66479492 C-100.67922386 173.07366965 -109.43802078 167.96170181 -113.95263672 158.61791992 C-114.78624529 156.72323414 -115.60471567 154.8218317 -116.40966797 152.91479492 C-121.18637956 142.23648061 -127.03979252 132.89324062 -133.97631836 123.49804688 C-137.90572382 117.7159764 -138.01294286 112.53162582 -137.22216797 105.66479492 C-136.21930765 102.43657927 -134.97449596 99.39780262 -133.65576172 96.28588867 C-132.00517318 92.11669092 -130.77293912 87.92470507 -129.59716797 83.60229492 C-129.38471436 82.82837402 -129.17226074 82.05445312 -128.95336914 81.25708008 C-127.80110894 76.9963865 -126.79134294 72.72691112 -125.84716797 68.41479492 C-123.34155513 58.29380825 -118.56601434 48.16808695 -110.22216797 41.66479492 C-109.56732422 41.13499023 -108.91248047 40.60518555 -108.23779297 40.05932617 C-104.10664535 37.006197 -100.29789612 35.26556466 -95.34716797 33.91479492 C-86.78884721 31.51806565 -79.3659341 27.17451588 -71.60888672 22.94311523 C-67.28915245 20.62947687 -62.88407267 18.48629265 -58.47290039 16.35327148 C-55.47829214 14.88369152 -52.74339253 13.33791085 -49.98388672 11.45385742 C-46.7774335 9.37669254 -44.9685097 9.30800047 -41.22216797 9.66479492 C-40.23216797 11.64479492 -39.24216797 13.62479492 -38.22216797 15.66479492 C-32.18691277 15.04501282 -26.91075106 12.7526291 -21.34716797 10.47729492 C-20.39197266 10.10282227 -19.43677734 9.72834961 -18.45263672 9.3425293 C-12.92429602 7.09403408 -8.46207486 4.66824004 -3.97167969 0.71044922 C-2.22216797 -0.33520508 -2.22216797 -0.33520508 0 0 Z M-60.53466797 40.60229492 C-68.73827569 43.09053725 -76.95364685 43.19291696 -85.47729492 43.24853516 C-91.54479632 43.33637362 -95.8629276 43.7604324 -101.22216797 46.66479492 C-102.00462891 47.08116211 -102.78708984 47.4975293 -103.59326172 47.92651367 C-117.58739115 57.58219844 -122.62913836 80.3244659 -128.56201172 95.61791992 C-128.815811 96.26840302 -129.06961029 96.91888611 -129.33110046 97.58908081 C-131.99055542 104.49344929 -134.2737506 111.88820942 -131.19873047 119.04760742 C-129.63602189 121.66363339 -127.95919339 124.16091023 -126.22216797 126.66479492 C-124.75314 128.86698417 -123.29330714 131.07273256 -121.84716797 133.28979492 C-121.46391357 133.87293457 -121.08065918 134.45607422 -120.68579102 135.05688477 C-117.7843987 139.5604479 -115.40474534 144.21009968 -113.09716797 149.03979492 C-107.83906256 159.84869075 -101.61355459 166.86382738 -90.22216797 171.66479492 C-82.86836763 173.12497398 -76.92781136 170.82763723 -70.33544922 167.79760742 C-64.24204651 165.20204034 -57.57437793 164.3174879 -51.14013672 166.30932617 C-49.47780619 167.0445181 -47.84792317 167.85191732 -46.22216797 168.66479492 C-40.29356059 170.42735387 -33.61057734 170.76713771 -27.97216797 168.16479492 C-23.54099582 164.1364566 -20.3558198 159.8505409 -17.59326172 154.52416992 C-13.31691621 146.28550859 -8.59262853 140.58705568 -1.41381836 134.63500977 C4.80927165 129.32973951 6.88097462 123.74706285 7.77783203 115.66479492 C8.64182233 103.01584451 8.64182233 103.01584451 3.77783203 91.66479492 C2.30523629 89.52715594 0.8446986 87.3854648 -0.59716797 85.22729492 C-0.99186279 84.64069092 -1.38655762 84.05408691 -1.79321289 83.44970703 C-5.24756878 78.09513563 -7.31904075 72.53615426 -9.10644531 66.43847656 C-10.82908636 60.82090812 -13.07736713 57.39436537 -18.41552734 54.45849609 C-21.03611526 53.17709816 -23.68163292 51.97473767 -26.34716797 50.78979492 C-33.32550853 47.6036276 -39.7712365 44.39525898 -45.96826172 39.84448242 C-50.95532042 37.23427145 -55.48393393 38.93454373 -60.53466797 40.60229492 Z " fill="#FCD8CF" transform="translate(163.22216796875,42.335205078125)"/>
<path d="M0 0 C0.88002686 0.32907349 0.88002686 0.32907349 1.77783203 0.66479492 C1.15018504 5.68597082 -2.47458343 7.65409353 -6.19091797 10.66479492 C-8.29670647 12.73818668 -8.86201289 13.78355429 -9.22216797 16.66479492 C-4.61828897 15.40254815 -1.98018234 13.80396643 1.46533203 10.53979492 C6.23301291 6.53291419 9.49523092 5.88179036 15.62548828 6.28588867 C17.77783203 6.66479492 17.77783203 6.66479492 18.77783203 7.66479492 C24.53895297 8.33349646 29.30833766 7.40147528 34.69189453 5.39916992 C37.34590107 4.46480058 39.99270712 4.02186222 42.77783203 3.66479492 C42.44783203 4.98479492 42.11783203 6.30479492 41.77783203 7.66479492 C41.11783203 7.66479492 40.45783203 7.66479492 39.77783203 7.66479492 C39.55095703 8.21780273 39.32408203 8.77081055 39.09033203 9.34057617 C37.39411386 12.34429586 35.23396833 14.43542824 32.77783203 16.85229492 C31.44751953 18.17293945 31.44751953 18.17293945 30.09033203 19.52026367 C27.77783203 21.66479492 27.77783203 21.66479492 25.77783203 22.66479492 C25.77783203 23.98479492 25.77783203 25.30479492 25.77783203 26.66479492 C28.73958326 26.05201881 30.15841986 25.4110697 32.77783203 23.66479492 C33.76783203 23.66479492 34.75783203 23.66479492 35.77783203 23.66479492 C35.6632451 25.10316243 35.53574087 26.54050458 35.40283203 27.97729492 C35.33322266 28.77780273 35.26361328 29.57831055 35.19189453 30.40307617 C34.77783203 32.66479492 34.77783203 32.66479492 32.77783203 35.66479492 C32.61069634 38.29011016 32.61069634 38.29011016 32.77783203 40.66479492 C34.26283203 41.15979492 34.26283203 41.15979492 35.77783203 41.66479492 C36.32875616 48.27588452 35.73917604 53.21925342 31.77783203 58.66479492 C29.49933348 60.99995241 27.14407127 63.23558097 24.77392578 65.47729492 C22.04373613 68.46928358 21.36662768 70.71145268 20.77783203 74.66479492 C20.44783203 74.66479492 20.11783203 74.66479492 19.77783203 74.66479492 C18.78165458 65.98381998 21.88671113 61.63192491 26.77783203 54.66479492 C30.84583262 47.84105199 29.92904887 42.29160646 28.77783203 34.66479492 C28.77783203 33.34479492 28.77783203 32.02479492 28.77783203 30.66479492 C27.35470703 30.26260742 27.35470703 30.26260742 25.90283203 29.85229492 C22.77783203 28.66479492 22.77783203 28.66479492 20.77783203 25.66479492 C20.52022924 22.97026971 20.6888315 20.37931117 20.77783203 17.66479492 C19.70533203 17.70604492 18.63283203 17.74729492 17.52783203 17.78979492 C13.90889752 17.66916377 12.82048137 17.23519458 9.77783203 15.66479492 C6.70539298 15.18685996 4.6873058 15.08731932 2.01220703 16.78588867 C0.82046315 17.70042256 -0.36966196 18.61707001 -1.55810547 19.53588867 C-3.22216797 20.66479492 -3.22216797 20.66479492 -5.90966797 21.22729492 C-9.11941163 20.44654646 -10.31392985 19.35046338 -12.22216797 16.66479492 C-12.47216797 13.41479492 -12.47216797 13.41479492 -12.22216797 10.66479492 C-15.2165868 11.61435252 -18.09262792 12.60522134 -20.94873047 13.91870117 C-28.74155383 17.43702439 -35.29150498 18.11280767 -43.75 18.27783203 C-50.50207145 18.46378102 -56.06842831 19.69053471 -62.47216797 21.92260742 C-65.35846919 22.70158076 -66.44859587 22.49375517 -69.22216797 21.66479492 C-67.59408203 20.8681543 -67.59408203 20.8681543 -65.93310547 20.05541992 C-64.48768558 19.34209582 -63.04237908 18.62854192 -61.59716797 17.91479492 C-60.88431641 17.56674805 -60.17146484 17.21870117 -59.43701172 16.86010742 C-56.11179285 15.21275129 -52.95065275 13.54812193 -49.90966797 11.41479492 C-46.75152569 9.35833018 -44.91852305 9.3127611 -41.22216797 9.66479492 C-40.23216797 11.64479492 -39.24216797 13.62479492 -38.22216797 15.66479492 C-32.18691277 15.04501282 -26.91075106 12.7526291 -21.34716797 10.47729492 C-20.39197266 10.10282227 -19.43677734 9.72834961 -18.45263672 9.3425293 C-12.92429602 7.09403408 -8.46207486 4.66824004 -3.97167969 0.71044922 C-2.22216797 -0.33520508 -2.22216797 -0.33520508 0 0 Z " fill="#F6A17D" transform="translate(163.22216796875,42.335205078125)"/>
<path d="M0 0 C0.5775 0.226875 1.155 0.45375 1.75 0.6875 C1.12235301 5.7086759 -2.50241547 7.67679861 -6.21875 10.6875 C-8.3245385 12.76089175 -8.88984492 13.80625937 -9.25 16.6875 C-7.93 17.0175 -6.61 17.3475 -5.25 17.6875 C-7.625 18.3125 -7.625 18.3125 -10.25 18.6875 C-12.25 16.6875 -12.25 16.6875 -12.375 13.5625 C-12.33375 12.61375 -12.2925 11.665 -12.25 10.6875 C-13.549375 11.120625 -13.549375 11.120625 -14.875 11.5625 C-15.98875 11.93375 -17.1025 12.305 -18.25 12.6875 C-19.28125 13.1 -20.3125 13.5125 -21.375 13.9375 C-24.72493503 14.81139609 -25.37275923 14.34222216 -28.25 12.6875 C-27.16460937 12.30078125 -26.07921875 11.9140625 -24.9609375 11.515625 C-23.51547287 10.9900015 -22.07016882 10.46393628 -20.625 9.9375 C-19.91214844 9.68484375 -19.19929687 9.4321875 -18.46484375 9.171875 C-13.04684093 7.18361708 -8.54694774 4.64666131 -4.125 0.875 C-2.25 -0.3125 -2.25 -0.3125 0 0 Z " fill="#EA9976" transform="translate(163.25,42.3125)"/>
<path d="M0 0 C-1.57400842 4.26085081 -4.83190723 6.59283724 -8.1875 9.4375 C-14.73268328 15.18114006 -18.4771701 21.05761986 -22 29 C-22.66 28.67 -23.32 28.34 -24 28 C-23.60448465 18.90314703 -18.29779226 11.56630516 -11.80078125 5.47265625 C-8.20756453 2.53416882 -4.77634791 0 0 0 Z " fill="#FEFCF6" transform="translate(166,171)"/>
<path d="M0 0 C1.3357457 3.77371512 0.72408671 6.85831347 0.0625 10.75 C-0.13214844 11.92046875 -0.32679688 13.0909375 -0.52734375 14.296875 C-0.76130859 15.63492188 -0.76130859 15.63492188 -1 17 C-2.32 16.67 -3.64 16.34 -5 16 C-4.49228528 10.03435204 -2.61407872 5.36190101 0 0 Z " fill="#DC9679" transform="translate(184,127)"/>
<path d="M0 0 C2.125 0.375 2.125 0.375 4 1 C4.5625 2.9375 4.5625 2.9375 5 5 C4 6 4 6 1.4375 6.0625 C0.2309375 6.0315625 0.2309375 6.0315625 -1 6 C-1.625 4.125 -1.625 4.125 -2 2 C-1.34 1.34 -0.68 0.68 0 0 Z " fill="#D5D6D8" transform="translate(212,167)"/>
<path d="M0 0 C0.66 0.33 1.32 0.66 2 1 C0.74948576 3.3447142 -0.34713696 4.73525087 -2.83984375 5.74609375 C-6.63239174 6.77015233 -9.18552877 7.18615548 -13 6 C-10.87959258 4.96966118 -8.75352092 3.95097146 -6.625 2.9375 C-5.44164063 2.36902344 -4.25828125 1.80054688 -3.0390625 1.21484375 C-2.03617188 0.81394531 -1.03328125 0.41304687 0 0 Z " fill="#E59878" transform="translate(107,58)"/>
<path d="M0 0 C1.67542976 0.28604898 3.34385343 0.61781233 5 1 C4.67 2.65 4.34 4.3 4 6 C2.68 6 1.36 6 0 6 C-0.38218767 4.34385343 -0.71395102 2.67542976 -1 1 C-0.67 0.67 -0.34 0.34 0 0 Z " fill="#DCDDDE" transform="translate(148,24)"/>
<path d="M0 0 C-0.33 0.99 -0.66 1.98 -1 3 C-3.8125 4.3125 -3.8125 4.3125 -7 5 C-9.19921875 4.04296875 -9.19921875 4.04296875 -11 3 C-9.54293274 2.49632243 -8.08429904 1.99717444 -6.625 1.5 C-5.81289062 1.2215625 -5.00078125 0.943125 -4.1640625 0.65625 C-2 0 -2 0 0 0 Z " fill="#DF9374" transform="translate(146,52)"/>
<path d="M0 0 C1.32 0 2.64 0 4 0 C3.5020163 3.73487777 3.12508244 5.81237635 1 9 C0.67 6.03 0.34 3.06 0 0 Z " fill="#F29F7B" transform="translate(184,117)"/>
</svg>
