<?xml version="1.0" encoding="UTF-8"?>
<svg version="1.1" xmlns="http://www.w3.org/2000/svg" width="250" height="250">
<path d="M0 0 C0.70487549 0.00054382 1.40975098 0.00108765 2.13598633 0.00164795 C13.64019402 0.042376 24.47375748 0.91770868 35.5 4.375 C36.51755371 4.68848389 36.51755371 4.68848389 37.55566406 5.00830078 C70.87717514 15.62505908 96.00640085 38.48000907 112.03637695 69.21655273 C127.20879461 99.33009204 127.80472122 133.68528468 117.5 165.375 C111.76269551 181.67652512 102.68433536 196.14970889 90.5 208.375 C89.68144531 209.2 88.86289063 210.025 88.01953125 210.875 C64.60065909 234.11233051 34.43436509 246.9070479 1.375 247.5625 C-31.63582199 247.17322144 -61.62254126 235.25088748 -85.5 212.375 C-86.24765625 211.69050781 -86.9953125 211.00601563 -87.765625 210.30078125 C-101.22295698 197.5727802 -110.95430032 180.70963672 -116.875 163.25 C-117.10155273 162.58323242 -117.32810547 161.91646484 -117.56152344 161.22949219 C-121.49862311 148.80246629 -123.05918268 136.62274469 -122.9375 123.625 C-122.93445862 122.93011475 -122.93141724 122.23522949 -122.92828369 121.51928711 C-122.85473152 110.10791241 -121.93697028 99.30843665 -118.5 88.375 C-118.28569336 87.68599609 -118.07138672 86.99699219 -117.85058594 86.28710938 C-107.78582755 55.02336208 -85.44258101 28.44251567 -56.359375 13.14453125 C-46.80207453 8.34153403 -36.91871719 4.79539149 -26.5 2.375 C-25.30745605 2.0968042 -25.30745605 2.0968042 -24.09082031 1.81298828 C-16.08775733 0.14729322 -8.1512163 -0.02368705 0 0 Z " fill="#1B2229" transform="translate(124.5,1.625)"/>
<path d="M0 0 C0.58668457 0.21938232 1.17336914 0.43876465 1.77783203 0.66479492 C1.23815052 4.45917106 -0.19368616 5.7799258 -3.15966797 8.10229492 C-6.29391601 10.703889 -8.23083179 12.57553319 -9.22216797 16.66479492 C-4.61828897 15.40254815 -1.98018234 13.80396643 1.46533203 10.53979492 C6.23301291 6.53291419 9.49523092 5.88179036 15.62548828 6.28588867 C17.77783203 6.66479492 17.77783203 6.66479492 18.77783203 7.66479492 C25.41629051 8.48286758 30.5431373 7.35794164 36.55126953 4.53979492 C38.77783203 3.66479492 38.77783203 3.66479492 42.77783203 3.66479492 C42.46478383 6.58657812 41.95816313 7.51628696 39.65283203 9.41479492 C38.70408203 10.15729492 37.75533203 10.89979492 36.77783203 11.66479492 C34.97240646 13.65601373 33.24181086 15.69543471 31.52392578 17.76245117 C29.77783203 19.66479492 29.77783203 19.66479492 27.56298828 21.16088867 C26.97388672 21.65717773 26.38478516 22.1534668 25.77783203 22.66479492 C25.77783203 23.98479492 25.77783203 25.30479492 25.77783203 26.66479492 C28.73958326 26.05201881 30.15841986 25.4110697 32.77783203 23.66479492 C33.76783203 23.66479492 34.75783203 23.66479492 35.77783203 23.66479492 C35.6632451 25.10316243 35.53574087 26.54050458 35.40283203 27.97729492 C35.33322266 28.77780273 35.26361328 29.57831055 35.19189453 30.40307617 C34.77783203 32.66479492 34.77783203 32.66479492 32.77783203 35.66479492 C32.61069634 38.29011016 32.61069634 38.29011016 32.77783203 40.66479492 C33.76783203 40.99479492 34.75783203 41.32479492 35.77783203 41.66479492 C36.32875616 48.27588452 35.73917604 53.21925342 31.77783203 58.66479492 C29.49933348 60.99995241 27.14407127 63.23558097 24.77392578 65.47729492 C22.04373613 68.46928358 21.36662768 70.71145268 20.77783203 74.66479492 C22.09783203 74.66479492 23.41783203 74.66479492 24.77783203 74.66479492 C24.29525048 78.3324147 23.47345195 81.71920145 22.34033203 85.22729492 C21.17275414 88.97350455 20.49095702 92.52149143 20.02783203 96.41479492 C19.11579032 102.79148655 17.42080592 108.82461928 15.52783203 114.97729492 C15.11452637 116.37383301 15.11452637 116.37383301 14.69287109 117.79858398 C11.48814575 127.8741828 5.15374373 135.61891922 -3.10644531 142.15600586 C-8.87793411 146.75644702 -12.06041539 151.87628308 -15.47216797 158.35229492 C-16.47135989 160.21361012 -17.47637814 162.07181186 -18.48779297 163.92651367 C-18.91866211 164.74079834 -19.34953125 165.55508301 -19.79345703 166.39404297 C-22.0886091 170.04189146 -24.1009433 172.29105337 -28.22216797 173.66479492 C-34.68310843 174.10168556 -41.00144502 174.36267921 -47.15966797 172.16479492 C-54.10822788 169.76438332 -62.64854152 169.11601522 -69.67919922 171.49682617 C-70.9633014 172.17306933 -72.22878445 172.88642742 -73.46826172 173.64135742 C-78.5174218 176.58763791 -85.52365255 177.77502293 -91.22216797 176.66479492 C-100.67922386 173.07366965 -109.43802078 167.96170181 -113.95263672 158.61791992 C-114.78624529 156.72323414 -115.60471567 154.8218317 -116.40966797 152.91479492 C-121.18637956 142.23648061 -127.03979252 132.89324062 -133.97631836 123.49804688 C-137.90698142 117.71412587 -138.00884045 112.53398655 -137.22216797 105.66479492 C-136.23792001 102.52618447 -135.00549962 99.57425745 -133.71826172 96.54760742 C-131.75326487 91.71888417 -130.49201805 86.69689397 -129.15966797 81.66479492 C-128.90362793 80.70879395 -128.64758789 79.75279297 -128.38378906 78.76782227 C-127.47395915 75.36780835 -126.56823467 71.96670816 -125.6640625 68.56518555 C-122.0197685 55.06885381 -116.11429971 45.08534835 -104.15185547 37.32104492 C-100.73403405 35.49451688 -97.27323084 34.37029447 -93.54248047 33.35620117 C-88.34620091 31.81691514 -83.82488253 29.59416291 -79.09716797 26.97729492 C-77.44566227 26.08381704 -75.79330272 25.19191582 -74.14013672 24.30151367 C-72.91109619 23.63708252 -72.91109619 23.63708252 -71.65722656 22.95922852 C-67.31587561 20.651444 -62.89950432 18.49389611 -58.47363281 16.35351562 C-55.47870559 14.88396745 -52.74361483 13.33806262 -49.98388672 11.45385742 C-46.7774335 9.37669254 -44.9685097 9.30800047 -41.22216797 9.66479492 C-40.23216797 11.64479492 -39.24216797 13.62479492 -38.22216797 15.66479492 C-32.18691277 15.04501282 -26.91075106 12.7526291 -21.34716797 10.47729492 C-20.39197266 10.10282227 -19.43677734 9.72834961 -18.45263672 9.3425293 C-12.92429602 7.09403408 -8.46207486 4.66824004 -3.97167969 0.71044922 C-2.22216797 -0.33520508 -2.22216797 -0.33520508 0 0 Z " fill="#843E38" transform="translate(163.22216796875,42.335205078125)"/>
<path d="M0 0 C0.58668457 0.21938232 1.17336914 0.43876465 1.77783203 0.66479492 C1.23815052 4.45917106 -0.19368616 5.7799258 -3.15966797 8.10229492 C-6.29391601 10.703889 -8.23083179 12.57553319 -9.22216797 16.66479492 C-4.61828897 15.40254815 -1.98018234 13.80396643 1.46533203 10.53979492 C6.23301291 6.53291419 9.49523092 5.88179036 15.62548828 6.28588867 C17.77783203 6.66479492 17.77783203 6.66479492 18.77783203 7.66479492 C25.41629051 8.48286758 30.5431373 7.35794164 36.55126953 4.53979492 C38.77783203 3.66479492 38.77783203 3.66479492 42.77783203 3.66479492 C42.46478383 6.58657812 41.95816313 7.51628696 39.65283203 9.41479492 C38.70408203 10.15729492 37.75533203 10.89979492 36.77783203 11.66479492 C34.97240646 13.65601373 33.24181086 15.69543471 31.52392578 17.76245117 C29.77783203 19.66479492 29.77783203 19.66479492 27.56298828 21.16088867 C26.97388672 21.65717773 26.38478516 22.1534668 25.77783203 22.66479492 C25.77783203 23.98479492 25.77783203 25.30479492 25.77783203 26.66479492 C28.73958326 26.05201881 30.15841986 25.4110697 32.77783203 23.66479492 C33.76783203 23.66479492 34.75783203 23.66479492 35.77783203 23.66479492 C35.6632451 25.10316243 35.53574087 26.54050458 35.40283203 27.97729492 C35.33322266 28.77780273 35.26361328 29.57831055 35.19189453 30.40307617 C34.77783203 32.66479492 34.77783203 32.66479492 32.77783203 35.66479492 C32.61069634 38.29011016 32.61069634 38.29011016 32.77783203 40.66479492 C33.76783203 40.99479492 34.75783203 41.32479492 35.77783203 41.66479492 C36.32875616 48.27588452 35.73917604 53.21925342 31.77783203 58.66479492 C29.49933348 60.99995241 27.14407127 63.23558097 24.77392578 65.47729492 C22.04373613 68.46928358 21.36662768 70.71145268 20.77783203 74.66479492 C22.09783203 74.66479492 23.41783203 74.66479492 24.77783203 74.66479492 C24.29525048 78.3324147 23.47345195 81.71920145 22.34033203 85.22729492 C21.17275414 88.97350455 20.49095702 92.52149143 20.02783203 96.41479492 C19.11579032 102.79148655 17.42080592 108.82461928 15.52783203 114.97729492 C15.11452637 116.37383301 15.11452637 116.37383301 14.69287109 117.79858398 C11.48814575 127.8741828 5.15374373 135.61891922 -3.10644531 142.15600586 C-8.87793411 146.75644702 -12.06041539 151.87628308 -15.47216797 158.35229492 C-16.47135989 160.21361012 -17.47637814 162.07181186 -18.48779297 163.92651367 C-18.91866211 164.74079834 -19.34953125 165.55508301 -19.79345703 166.39404297 C-22.0886091 170.04189146 -24.1009433 172.29105337 -28.22216797 173.66479492 C-34.68310843 174.10168556 -41.00144502 174.36267921 -47.15966797 172.16479492 C-54.10822788 169.76438332 -62.64854152 169.11601522 -69.67919922 171.49682617 C-70.9633014 172.17306933 -72.22878445 172.88642742 -73.46826172 173.64135742 C-78.5174218 176.58763791 -85.52365255 177.77502293 -91.22216797 176.66479492 C-100.67922386 173.07366965 -109.43802078 167.96170181 -113.95263672 158.61791992 C-114.78624529 156.72323414 -115.60471567 154.8218317 -116.40966797 152.91479492 C-121.18637956 142.23648061 -127.03979252 132.89324062 -133.97631836 123.49804688 C-137.90698142 117.71412587 -138.00884045 112.53398655 -137.22216797 105.66479492 C-136.23792001 102.52618447 -135.00549962 99.57425745 -133.71826172 96.54760742 C-131.75326487 91.71888417 -130.49201805 86.69689397 -129.15966797 81.66479492 C-128.90362793 80.70879395 -128.64758789 79.75279297 -128.38378906 78.76782227 C-127.47395915 75.36780835 -126.56823467 71.96670816 -125.6640625 68.56518555 C-122.0197685 55.06885381 -116.11429971 45.08534835 -104.15185547 37.32104492 C-100.73403405 35.49451688 -97.27323084 34.37029447 -93.54248047 33.35620117 C-88.34620091 31.81691514 -83.82488253 29.59416291 -79.09716797 26.97729492 C-77.44566227 26.08381704 -75.79330272 25.19191582 -74.14013672 24.30151367 C-72.91109619 23.63708252 -72.91109619 23.63708252 -71.65722656 22.95922852 C-67.31587561 20.651444 -62.89950432 18.49389611 -58.47363281 16.35351562 C-55.47870559 14.88396745 -52.74361483 13.33806262 -49.98388672 11.45385742 C-46.7774335 9.37669254 -44.9685097 9.30800047 -41.22216797 9.66479492 C-40.23216797 11.64479492 -39.24216797 13.62479492 -38.22216797 15.66479492 C-32.18691277 15.04501282 -26.91075106 12.7526291 -21.34716797 10.47729492 C-20.39197266 10.10282227 -19.43677734 9.72834961 -18.45263672 9.3425293 C-12.92429602 7.09403408 -8.46207486 4.66824004 -3.97167969 0.71044922 C-2.22216797 -0.33520508 -2.22216797 -0.33520508 0 0 Z M-61.65576172 40.66479492 C-68.34806924 42.94494443 -74.51361557 43.22321054 -81.53466797 43.22729492 C-91.78407944 43.18432819 -91.78407944 43.18432819 -101.22216797 46.66479492 C-102.00462891 47.08116211 -102.78708984 47.4975293 -103.59326172 47.92651367 C-116.4219477 56.77806449 -121.00262961 76.1283478 -126.23095703 90.04174805 C-127.10181117 92.34629407 -127.99591684 94.63951514 -128.90185547 96.93041992 C-131.68901034 104.20536654 -134.08246976 110.4593633 -131.37060547 118.04760742 C-129.22259669 122.7089326 -126.50564327 126.71067954 -123.40966797 130.78979492 C-120.03239386 135.26946228 -117.4748375 139.82828016 -115.03466797 144.85229492 C-114.5295166 145.89063477 -114.5295166 145.89063477 -114.01416016 146.94995117 C-113.68834961 147.62026367 -113.36253906 148.29057617 -113.02685547 148.98120117 C-108.08861062 159.13658655 -102.43393008 164.88228459 -92.82373047 170.78198242 C-85.73234679 173.18836788 -79.51971817 171.41455325 -72.84716797 168.66479492 C-62.09189982 164.60119803 -54.98751361 164.82199754 -44.14794922 168.75854492 C-38.29189148 170.57243731 -33.35729439 170.73235813 -27.84716797 167.97729492 C-22.87132301 163.59381246 -19.97513728 158.55689751 -16.90966797 152.78979492 C-13.14484192 145.92097762 -9.30693617 140.90948816 -3.15185547 136.02026367 C2.96742186 131.01871412 7.14964427 124.73727659 7.98657227 116.64697266 C8.695172 101.61510714 8.695172 101.61510714 1.77783203 88.66479492 C-3.5766582 81.25652761 -6.88393485 73.87621032 -9.6496582 65.21386719 C-11.29058139 60.30814359 -12.60332024 57.43200399 -17.22216797 54.66479492 C-19.94813348 53.35085049 -19.94813348 53.35085049 -22.84716797 52.28979492 C-30.51098067 49.22050384 -37.61524752 45.47834237 -44.40966797 40.78979492 C-50.51146573 36.9807939 -55.31936981 38.25154917 -61.65576172 40.66479492 Z " fill="#FBFA5B" transform="translate(163.22216796875,42.335205078125)"/>
<path d="M0 0 C3.61400234 2.71050175 6.45740163 5.78980327 8.5 9.875 C9.25599464 16.29015449 9.09670704 21.65744577 5.27734375 27.015625 C1.83646537 30.61531315 -2.28894769 33.25842381 -6.5 35.875 C-4.77845212 39.63988042 -2.50765886 42.02563897 0.5 44.875 C-11.02315022 45.39354176 -11.02315022 45.39354176 -15.5625 43.375 C-22.4993128 40.37955811 -29.34512059 41.2134484 -36.25 43.875 C-37.14847656 44.24109375 -38.04695313 44.6071875 -38.97265625 44.984375 C-42.35642987 46.17680218 -44.95489177 46.19012073 -48.5 45.875 C-43.95025422 39.28571302 -37.48413655 34.8890597 -29.5625 33.27734375 C-27.19614628 33.0386916 -24.87742968 32.88531423 -22.5 32.875 C-22.933125 32.13636719 -23.36625 31.39773437 -23.8125 30.63671875 C-27.5945283 23.74677368 -30.32087797 17.78974956 -28.5 9.875 C-26.41890316 5.59954934 -23.65727558 2.77823948 -19.9375 -0.125 C-13.40764307 -2.02459474 -6.48271652 -2.08373031 0 0 Z " fill="#6C362B" transform="translate(129.5,166.125)"/>
<path d="M0 0 C5.28786492 3.6585228 9.77741812 8.69485275 11.0703125 15.125 C11.41627525 21.53089094 9.49516489 27.70220175 5.203125 32.53515625 C-0.0488162 37.16283571 -4.88808933 38.46195626 -11.73828125 38.30859375 C-16.85661798 37.57197852 -21.30643443 35.21107902 -24.78515625 31.3671875 C-29.14001805 25.1011993 -29.26837767 18.29961175 -28.37109375 10.9296875 C-26.10359247 5.59143726 -22.0226954 1.82318475 -16.70703125 -0.4375 C-11.13376036 -1.94731586 -5.35669693 -2.41801476 0 0 Z " fill="#481A0D" transform="translate(126.37109375,97.0703125)"/>
<path d="M0 0 C0.88002686 0.32907349 0.88002686 0.32907349 1.77783203 0.66479492 C1.23815052 4.45917106 -0.19368616 5.7799258 -3.15966797 8.10229492 C-6.29391601 10.703889 -8.23083179 12.57553319 -9.22216797 16.66479492 C-4.61828897 15.40254815 -1.98018234 13.80396643 1.46533203 10.53979492 C6.23301291 6.53291419 9.49523092 5.88179036 15.62548828 6.28588867 C17.77783203 6.66479492 17.77783203 6.66479492 18.77783203 7.66479492 C25.41629051 8.48286758 30.5431373 7.35794164 36.55126953 4.53979492 C38.77783203 3.66479492 38.77783203 3.66479492 42.77783203 3.66479492 C42.46478383 6.58657812 41.95816313 7.51628696 39.65283203 9.41479492 C38.70408203 10.15729492 37.75533203 10.89979492 36.77783203 11.66479492 C34.97240646 13.65601373 33.24181086 15.69543471 31.52392578 17.76245117 C29.77783203 19.66479492 29.77783203 19.66479492 27.56298828 21.16088867 C26.97388672 21.65717773 26.38478516 22.1534668 25.77783203 22.66479492 C25.77783203 23.98479492 25.77783203 25.30479492 25.77783203 26.66479492 C28.73958326 26.05201881 30.15841986 25.4110697 32.77783203 23.66479492 C33.76783203 23.66479492 34.75783203 23.66479492 35.77783203 23.66479492 C35.6632451 25.10316243 35.53574087 26.54050458 35.40283203 27.97729492 C35.33322266 28.77780273 35.26361328 29.57831055 35.19189453 30.40307617 C34.77783203 32.66479492 34.77783203 32.66479492 32.77783203 35.66479492 C32.61069634 38.29011016 32.61069634 38.29011016 32.77783203 40.66479492 C34.26283203 41.15979492 34.26283203 41.15979492 35.77783203 41.66479492 C36.32875616 48.27588452 35.73917604 53.21925342 31.77783203 58.66479492 C29.49933348 60.99995241 27.14407127 63.23558097 24.77392578 65.47729492 C22.04373613 68.46928358 21.36662768 70.71145268 20.77783203 74.66479492 C22.09783203 74.66479492 23.41783203 74.66479492 24.77783203 74.66479492 C24.27984833 78.3996727 23.90291447 80.47717127 21.77783203 83.66479492 C20.01888122 77.72833594 18.44078774 71.8275951 19.77783203 65.66479492 C21.54791052 62.41212169 23.52940789 59.4969149 25.73486328 56.52416992 C29.69125046 51.11151468 29.69125046 51.11151468 30.52783203 44.72729492 C30.28033203 43.71666992 30.03283203 42.70604492 29.77783203 41.66479492 C29.61283203 40.48916992 29.44783203 39.31354492 29.27783203 38.10229492 C29.11283203 36.96791992 28.94783203 35.83354492 28.77783203 34.66479492 C28.69533203 33.73666992 28.61283203 32.80854492 28.52783203 31.85229492 C28.28033203 31.13041992 28.03283203 30.40854492 27.77783203 29.66479492 C25.3683118 28.41765089 25.3683118 28.41765089 22.77783203 27.66479492 C20.77783203 25.66479492 20.77783203 25.66479492 20.58251953 23.71948242 C20.6476237 21.70125326 20.71272786 19.68302409 20.77783203 17.66479492 C19.70533203 17.70604492 18.63283203 17.74729492 17.52783203 17.78979492 C13.90889752 17.66916377 12.82048137 17.23519458 9.77783203 15.66479492 C6.70539298 15.18685996 4.6873058 15.08731932 2.01220703 16.78588867 C0.82109321 17.69993906 -0.36902403 18.61528968 -1.55810547 19.53198242 C-3.22216797 20.66479492 -3.22216797 20.66479492 -5.90966797 21.28979492 C-9.33966593 20.36276845 -10.37660643 18.63087597 -12.22216797 15.66479492 C-12.59958335 14.00755429 -12.94045956 12.34095997 -13.22216797 10.66479492 C-14.33076172 11.08631836 -15.43935547 11.5078418 -16.58154297 11.94213867 C-18.04504045 12.49564093 -19.50858457 13.04901988 -20.97216797 13.60229492 C-21.70177734 13.88008789 -22.43138672 14.15788086 -23.18310547 14.4440918 C-24.24658203 14.8453125 -24.24658203 14.8453125 -25.33154297 15.25463867 C-25.9809082 15.50076904 -26.63027344 15.74689941 -27.29931641 16.00048828 C-31.35211404 17.40064856 -34.96189688 17.77888205 -39.26464844 17.90551758 C-47.52890105 18.15982889 -54.54452227 19.22919533 -62.40185547 21.92260742 C-65.32847815 22.69277129 -66.4197814 22.50438544 -69.22216797 21.66479492 C-67.59408203 20.8681543 -67.59408203 20.8681543 -65.93310547 20.05541992 C-64.48768558 19.34209582 -63.04237908 18.62854192 -61.59716797 17.91479492 C-60.88431641 17.56674805 -60.17146484 17.21870117 -59.43701172 16.86010742 C-56.11179285 15.21275129 -52.95065275 13.54812193 -49.90966797 11.41479492 C-46.75152569 9.35833018 -44.91852305 9.3127611 -41.22216797 9.66479492 C-40.23216797 11.64479492 -39.24216797 13.62479492 -38.22216797 15.66479492 C-32.18691277 15.04501282 -26.91075106 12.7526291 -21.34716797 10.47729492 C-20.39197266 10.10282227 -19.43677734 9.72834961 -18.45263672 9.3425293 C-12.92429602 7.09403408 -8.46207486 4.66824004 -3.97167969 0.71044922 C-2.22216797 -0.33520508 -2.22216797 -0.33520508 0 0 Z " fill="#F4E71B" transform="translate(163.22216796875,42.335205078125)"/>
<path d="M0 0 C3.71270531 7.88949878 4.46131485 15.79172399 2.0859375 24.2578125 C-2.2063645 35.30702863 -8.20692453 40.90863538 -18.5 46.3125 C-22.07032312 47.29433886 -25.30267831 47.12533294 -29 47 C-28.39072321 41.02708985 -26.10540688 35.86060319 -23.8125 30.375 C-23.40322266 29.3945874 -22.99394531 28.4141748 -22.57226562 27.40405273 C-21.39149937 24.59833826 -20.1968225 21.7988932 -19 19 C-18.71431152 18.31341309 -18.42862305 17.62682617 -18.13427734 16.91943359 C-14.7297145 8.80051855 -9.75816136 0 0 0 Z " fill="#4B1E0E" transform="translate(66,89)"/>
<path d="M0 0 C4.79093194 1.69091716 8.72822004 4.349647 11 9 C11.81388959 13.72209524 11.39525404 17.76773739 9.9375 22.3125 C7.41636283 25.80956124 4.91494255 28.15214712 1 30 C-4.90908952 30.93795072 -8.41906094 29.91007109 -13.30078125 26.4765625 C-16.49619359 23.69985937 -17.71812221 20.98384875 -18.30859375 16.828125 C-18.60921704 11.39868621 -17.69883037 8.18551857 -14 4 C-9.4419324 0.06348707 -5.82193413 -0.94504342 0 0 Z " fill="#481A0D" transform="translate(124,166)"/>
<path d="M0 0 C5.69426112 3.74081321 9.6994604 8.33326229 11.8125 14.84765625 C12.74488512 21.87489565 12.29274151 27.77373793 8.44140625 33.80859375 C3.88449634 39.51292702 -1.34638321 44.4110703 -8.76171875 45.25390625 C-16.34850673 45.53950483 -22.26760102 45.55403901 -28.421875 40.5625 C-33.2281228 35.89448499 -36.81442584 31.67530026 -37.48828125 24.76171875 C-37.52280388 15.07236744 -35.8561647 8.84657919 -29.203125 1.6484375 C-19.99839064 -6.57517207 -10.25878795 -5.53503482 0 0 Z M-27.5625 5.41015625 C-28.09875 6.21453125 -28.635 7.01890625 -29.1875 7.84765625 C-29.8475 8.83765625 -30.5075 9.82765625 -31.1875 10.84765625 C-31.87169318 17.50298995 -32.25083296 24.24305907 -28.1875 29.84765625 C-24.41754518 34.2289551 -20.73345987 37.35896934 -14.86328125 38.16796875 C-8.06479282 38.48030359 -2.75343738 37.07786925 2.34765625 32.45703125 C6.95056321 27.3576008 8.35368714 21.8645471 8.1953125 15.15625 C7.31070844 9.82154591 4.09969993 6.01226571 0.1875 2.47265625 C-8.91141726 -3.75291872 -19.92453825 -2.83080248 -27.5625 5.41015625 Z " fill="#6A342A" transform="translate(129.1875,97.15234375)"/>
<path d="M0 0 C1.65 0 3.3 0 5 0 C9.94085789 10.01406018 11.30841074 21.90604674 7.82421875 32.61328125 C6.39409963 35.58068603 4.84101398 38.2715908 3 41 C2.42572266 41.91652344 2.42572266 41.91652344 1.83984375 42.8515625 C-2.35977638 48.72199924 -10.23947896 52.81126853 -17 55 C-20.11328125 55.1953125 -20.11328125 55.1953125 -23.3125 55.125 C-24.38113281 55.10695312 -25.44976562 55.08890625 -26.55078125 55.0703125 C-27.76314453 55.03550781 -27.76314453 55.03550781 -29 55 C-28.67 52.36 -28.34 49.72 -28 47 C-26.72125 47.103125 -25.4425 47.20625 -24.125 47.3125 C-17.1343427 47.32352627 -11.90727036 43.87357423 -6.1875 40.1875 C0.71010595 33.28989405 4.1385678 24.9657369 4.3125 15.3125 C4.29693941 10.98146842 3.69453332 7.96291258 2 4 C2 3.01 2 2.02 2 1 C1.34 0.67 0.68 0.34 0 0 Z " fill="#6A352A" transform="translate(64,88)"/>
<path d="M0 0 C2.9375 2.125 2.9375 2.125 5 5 C5.125 8.0625 5.125 8.0625 4 11 C1.548247 13.5879615 -0.05333931 14.81528572 -3.5625 15.5 C-6.96311101 14.80243877 -8.05445623 13.88228706 -10 11 C-10.59002965 8.03793195 -10.39336407 6.09774206 -10 3 C-7.21376523 -0.42921203 -4.23976577 -0.69220666 0 0 Z " fill="#491B0E" transform="translate(75,160)"/>
<path d="M0 0 C3.07469523 1.70251719 5.40613254 3.81226508 7 7 C7.375 10.3125 7.375 10.3125 7 14 C4.5625 16.875 4.5625 16.875 2 19 C1.67 19.33 1.34 19.66 1 20 C-3.52285132 20.57002878 -6.97343495 20.61157067 -10.9375 18.25 C-13.80613836 15.12057634 -14.83578792 13.28632794 -15.375 9.0625 C-14.90977662 5.2631757 -13.63608379 3.71361566 -11 1 C-7.51556578 -0.74221711 -3.80112955 -0.58675154 0 0 Z M-11 5 C-11.56559975 9.454098 -11.77198078 11.73395152 -9.4375 15.5625 C-6.96901591 17.28795113 -6.96901591 17.28795113 -3.5 17.0625 C0.07099457 16.2406113 0.07099457 16.2406113 2.5 13.8125 C4.24509804 11.07169118 4.24509804 11.07169118 4 7.875 C2.83897552 4.53705462 2.16252443 3.5385254 -1 2 C-5.26211439 1.4672357 -8.19663749 1.54970768 -11 5 Z " fill="#6B342A" transform="translate(76,158)"/>
<path d="M0 0 C7.92195263 2.71609804 11.94412938 7.94682909 16 15 C17.61391838 18.43295013 18.23803586 21.02579879 18.125 24.8125 C18.10695313 25.60269531 18.08890625 26.39289063 18.0703125 27.20703125 C18.04710938 27.79871094 18.02390625 28.39039063 18 29 C15.04290895 26.38060145 13.26260176 23.31464575 11.25 19.9375 C8.15217713 14.77591217 4.84712581 9.85707531 1.25 5.0234375 C0 3 0 3 0 0 Z " fill="#6F3A2C" transform="translate(33,160)"/>
<path d="M0 0 C1.32 2.64 2.64 5.28 4 8 C2.72769531 8.03867187 2.72769531 8.03867187 1.4296875 8.078125 C-6.67820267 8.47015485 -13.3316019 9.70041711 -21.0390625 12.2578125 C-24.04570443 13.01145626 -25.14089298 12.86073197 -28 12 C-26.37191406 11.20335937 -26.37191406 11.20335937 -24.7109375 10.390625 C-23.26551761 9.6773009 -21.82021111 8.96374699 -20.375 8.25 C-19.66214844 7.90195312 -18.94929688 7.55390625 -18.21484375 7.1953125 C-14.88962488 5.54795636 -11.72848478 3.88332701 -8.6875 1.75 C-5.52935772 -0.30646474 -3.69635508 -0.35203382 0 0 Z " fill="#F7E91C" transform="translate(122,52)"/>
<path d="M0 0 C-1.54643024 4.03376081 -4.41249662 6.23891809 -7.625 8.9375 C-13.27520002 13.85216095 -16.91909576 19.04244981 -20.57421875 25.54296875 C-21.04472656 26.35378906 -21.51523438 27.16460937 -22 28 C-22.33 28 -22.66 28 -23 28 C-22.6927136 19.70326708 -19.49788749 13.63102507 -13.7421875 7.65625 C-5.33695652 0 -5.33695652 0 0 0 Z " fill="#6F3A2C" transform="translate(165,172)"/>
<path d="M0 0 C1.03115279 3.26913624 0.9638984 5.86041348 0.5625 9.25 C0.46066406 10.14203125 0.35882813 11.0340625 0.25390625 11.953125 C0.17011719 12.62859375 0.08632812 13.3040625 0 14 C-1.32 14 -2.64 14 -4 14 C-3.46148032 8.72250715 -2.22656164 4.74354436 0 0 Z " fill="#E9DD21" transform="translate(183,129)"/>
<path d="M0 0 C2.125 0.375 2.125 0.375 4 1 C4.5625 2.9375 4.5625 2.9375 5 5 C4 6 4 6 1.4375 6.0625 C0.2309375 6.0315625 0.2309375 6.0315625 -1 6 C-1.625 4.125 -1.625 4.125 -2 2 C-1.34 1.34 -0.68 0.68 0 0 Z " fill="#D5D6D8" transform="translate(212,167)"/>
<path d="M0 0 C1.67542976 0.28604898 3.34385343 0.61781233 5 1 C4.67 2.65 4.34 4.3 4 6 C2.68 6 1.36 6 0 6 C-0.38218767 4.34385343 -0.71395102 2.67542976 -1 1 C-0.67 0.67 -0.34 0.34 0 0 Z " fill="#DCDDDE" transform="translate(148,24)"/>
<path d="M0 0 C0.66 0.99 1.32 1.98 2 3 C2.598125 2.835 3.19625 2.67 3.8125 2.5 C6 2 6 2 9 2 C7.35 3.32 5.7 4.64 4 6 C1.525 5.01 1.525 5.01 -1 4 C-0.67 2.68 -0.34 1.36 0 0 Z " fill="#DED21B" transform="translate(187,66)"/>
<path d="M0 0 C0.66 0.33 1.32 0.66 2 1 C0 4 0 4 -2.1640625 4.51171875 C-2.97617188 4.56972656 -3.78828125 4.62773438 -4.625 4.6875 C-5.85089844 4.78611328 -5.85089844 4.78611328 -7.1015625 4.88671875 C-7.72804688 4.92410156 -8.35453125 4.96148437 -9 5 C-6.06626269 3.04417512 -3.21783702 1.43775696 0 0 Z " fill="#E0D322" transform="translate(103,60)"/>
<path d="M0 0 C0.66 0.33 1.32 0.66 2 1 C2 2.98 2 4.96 2 7 C1.01 7 0.02 7 -1 7 C-0.67 4.69 -0.34 2.38 0 0 Z " fill="#FFF222" transform="translate(180,136)"/>
</svg>
