<?xml version="1.0" encoding="UTF-8"?>
<svg version="1.1" xmlns="http://www.w3.org/2000/svg" width="250" height="250">
<path d="M0 0 C0.70487549 0.00054382 1.40975098 0.00108765 2.13598633 0.00164795 C13.64019402 0.042376 24.47375748 0.91770868 35.5 4.375 C36.51755371 4.68848389 36.51755371 4.68848389 37.55566406 5.00830078 C70.87717514 15.62505908 96.00640085 38.48000907 112.03637695 69.21655273 C127.20879461 99.33009204 127.80472122 133.68528468 117.5 165.375 C111.76269551 181.67652512 102.68433536 196.14970889 90.5 208.375 C89.68144531 209.2 88.86289063 210.025 88.01953125 210.875 C64.60065909 234.11233051 34.43436509 246.9070479 1.375 247.5625 C-31.63582199 247.17322144 -61.62254126 235.25088748 -85.5 212.375 C-86.24765625 211.69050781 -86.9953125 211.00601563 -87.765625 210.30078125 C-101.22295698 197.5727802 -110.95430032 180.70963672 -116.875 163.25 C-117.10155273 162.58323242 -117.32810547 161.91646484 -117.56152344 161.22949219 C-121.49862311 148.80246629 -123.05918268 136.62274469 -122.9375 123.625 C-122.93445862 122.93011475 -122.93141724 122.23522949 -122.92828369 121.51928711 C-122.85473152 110.10791241 -121.93697028 99.30843665 -118.5 88.375 C-118.28569336 87.68599609 -118.07138672 86.99699219 -117.85058594 86.28710938 C-107.78582755 55.02336208 -85.44258101 28.44251567 -56.359375 13.14453125 C-46.80207453 8.34153403 -36.91871719 4.79539149 -26.5 2.375 C-25.30745605 2.0968042 -25.30745605 2.0968042 -24.09082031 1.81298828 C-16.08775733 0.14729322 -8.1512163 -0.02368705 0 0 Z " fill="#1A222A" transform="translate(124.5,1.625)"/>
<path d="M0 0 C0.58668457 0.21938232 1.17336914 0.43876465 1.77783203 0.66479492 C1.23815052 4.45917106 -0.19368616 5.7799258 -3.15966797 8.10229492 C-6.29391601 10.703889 -8.23083179 12.57553319 -9.22216797 16.66479492 C-4.61828897 15.40254815 -1.98018234 13.80396643 1.46533203 10.53979492 C6.23301291 6.53291419 9.49523092 5.88179036 15.62548828 6.28588867 C17.77783203 6.66479492 17.77783203 6.66479492 18.77783203 7.66479492 C25.44870005 8.20276815 30.13339381 7.10144457 36.29736328 4.53979492 C38.77783203 3.66479492 38.77783203 3.66479492 42.77783203 3.66479492 C42.46478383 6.58657812 41.95816313 7.51628696 39.65283203 9.41479492 C38.70408203 10.15729492 37.75533203 10.89979492 36.77783203 11.66479492 C34.97240646 13.65601373 33.24181086 15.69543471 31.52392578 17.76245117 C29.77783203 19.66479492 29.77783203 19.66479492 27.56298828 21.16088867 C26.97388672 21.65717773 26.38478516 22.1534668 25.77783203 22.66479492 C25.77783203 23.98479492 25.77783203 25.30479492 25.77783203 26.66479492 C28.73958326 26.05201881 30.15841986 25.4110697 32.77783203 23.66479492 C33.76783203 23.66479492 34.75783203 23.66479492 35.77783203 23.66479492 C35.6632451 25.10316243 35.53574087 26.54050458 35.40283203 27.97729492 C35.33322266 28.77780273 35.26361328 29.57831055 35.19189453 30.40307617 C34.77783203 32.66479492 34.77783203 32.66479492 32.77783203 35.66479492 C32.61069634 38.29011016 32.61069634 38.29011016 32.77783203 40.66479492 C33.76783203 40.99479492 34.75783203 41.32479492 35.77783203 41.66479492 C36.32875616 48.27588452 35.73917604 53.21925342 31.77783203 58.66479492 C29.49933348 60.99995241 27.14407127 63.23558097 24.77392578 65.47729492 C22.04373613 68.46928358 21.36662768 70.71145268 20.77783203 74.66479492 C22.09783203 74.66479492 23.41783203 74.66479492 24.77783203 74.66479492 C24.02075099 81.22616392 24.02075099 81.22616392 22.81298828 83.40698242 C21.32389435 86.65489297 21.06252411 90.03219161 20.59033203 93.53979492 C19.45773644 100.98080124 17.69194796 108.10171763 15.46533203 115.28979492 C15.19374268 116.20100098 14.92215332 117.11220703 14.64233398 118.05102539 C11.44796068 127.98805954 5.04213827 135.70724341 -3.10644531 142.15600586 C-8.87793411 146.75644702 -12.06041539 151.87628308 -15.47216797 158.35229492 C-16.47135989 160.21361012 -17.47637814 162.07181186 -18.48779297 163.92651367 C-18.91866211 164.74079834 -19.34953125 165.55508301 -19.79345703 166.39404297 C-22.0886091 170.04189146 -24.1009433 172.29105337 -28.22216797 173.66479492 C-34.68310843 174.10168556 -41.00144502 174.36267921 -47.15966797 172.16479492 C-54.10822788 169.76438332 -62.64854152 169.11601522 -69.67919922 171.49682617 C-70.9633014 172.17306933 -72.22878445 172.88642742 -73.46826172 173.64135742 C-78.5174218 176.58763791 -85.52365255 177.77502293 -91.22216797 176.66479492 C-100.67922386 173.07366965 -109.43802078 167.96170181 -113.95263672 158.61791992 C-114.78624529 156.72323414 -115.60471567 154.8218317 -116.40966797 152.91479492 C-121.18637956 142.23648061 -127.03979252 132.89324062 -133.97631836 123.49804688 C-137.90572382 117.7159764 -138.01294286 112.53162582 -137.22216797 105.66479492 C-136.21930765 102.43657927 -134.97449596 99.39780262 -133.65576172 96.28588867 C-132.00517318 92.11669092 -130.77293912 87.92470507 -129.59716797 83.60229492 C-129.38471436 82.82837402 -129.17226074 82.05445312 -128.95336914 81.25708008 C-127.80110894 76.9963865 -126.79134294 72.72691112 -125.84716797 68.41479492 C-123.34155513 58.29380825 -118.56601434 48.16808695 -110.22216797 41.66479492 C-109.56732422 41.13499023 -108.91248047 40.60518555 -108.23779297 40.05932617 C-104.07244746 36.98092302 -100.20978698 35.23290767 -95.22216797 33.85229492 C-88.8938716 32.07890024 -83.54487086 29.38063428 -77.82421875 26.23291016 C-72.00695041 23.0379236 -66.08389953 20.1843869 -60.01806641 17.49194336 C-56.54897406 15.91477386 -53.50648136 14.23116217 -50.44482422 11.94995117 C-46.93759554 9.4630072 -45.41120397 9.15393687 -41.22216797 9.66479492 C-40.23216797 11.64479492 -39.24216797 13.62479492 -38.22216797 15.66479492 C-32.18691277 15.04501282 -26.91075106 12.7526291 -21.34716797 10.47729492 C-20.39197266 10.10282227 -19.43677734 9.72834961 -18.45263672 9.3425293 C-12.92429602 7.09403408 -8.46207486 4.66824004 -3.97167969 0.71044922 C-2.22216797 -0.33520508 -2.22216797 -0.33520508 0 0 Z " fill="#D1E382" transform="translate(163.22216796875,42.335205078125)"/>
<path d="M0 0 C0.58668457 0.21938232 1.17336914 0.43876465 1.77783203 0.66479492 C1.23815052 4.45917106 -0.19368616 5.7799258 -3.15966797 8.10229492 C-6.29391601 10.703889 -8.23083179 12.57553319 -9.22216797 16.66479492 C-4.61828897 15.40254815 -1.98018234 13.80396643 1.46533203 10.53979492 C6.23301291 6.53291419 9.49523092 5.88179036 15.62548828 6.28588867 C17.77783203 6.66479492 17.77783203 6.66479492 18.77783203 7.66479492 C25.44870005 8.20276815 30.13339381 7.10144457 36.29736328 4.53979492 C38.77783203 3.66479492 38.77783203 3.66479492 42.77783203 3.66479492 C42.46478383 6.58657812 41.95816313 7.51628696 39.65283203 9.41479492 C38.70408203 10.15729492 37.75533203 10.89979492 36.77783203 11.66479492 C34.97240646 13.65601373 33.24181086 15.69543471 31.52392578 17.76245117 C29.77783203 19.66479492 29.77783203 19.66479492 27.56298828 21.16088867 C26.97388672 21.65717773 26.38478516 22.1534668 25.77783203 22.66479492 C25.77783203 23.98479492 25.77783203 25.30479492 25.77783203 26.66479492 C28.73958326 26.05201881 30.15841986 25.4110697 32.77783203 23.66479492 C33.76783203 23.66479492 34.75783203 23.66479492 35.77783203 23.66479492 C35.6632451 25.10316243 35.53574087 26.54050458 35.40283203 27.97729492 C35.33322266 28.77780273 35.26361328 29.57831055 35.19189453 30.40307617 C34.77783203 32.66479492 34.77783203 32.66479492 32.77783203 35.66479492 C32.61069634 38.29011016 32.61069634 38.29011016 32.77783203 40.66479492 C33.76783203 40.99479492 34.75783203 41.32479492 35.77783203 41.66479492 C36.32875616 48.27588452 35.73917604 53.21925342 31.77783203 58.66479492 C29.49933348 60.99995241 27.14407127 63.23558097 24.77392578 65.47729492 C22.04373613 68.46928358 21.36662768 70.71145268 20.77783203 74.66479492 C22.09783203 74.66479492 23.41783203 74.66479492 24.77783203 74.66479492 C24.02075099 81.22616392 24.02075099 81.22616392 22.81298828 83.40698242 C21.32389435 86.65489297 21.06252411 90.03219161 20.59033203 93.53979492 C19.45773644 100.98080124 17.69194796 108.10171763 15.46533203 115.28979492 C15.19374268 116.20100098 14.92215332 117.11220703 14.64233398 118.05102539 C11.44796068 127.98805954 5.04213827 135.70724341 -3.10644531 142.15600586 C-8.87793411 146.75644702 -12.06041539 151.87628308 -15.47216797 158.35229492 C-16.47135989 160.21361012 -17.47637814 162.07181186 -18.48779297 163.92651367 C-18.91866211 164.74079834 -19.34953125 165.55508301 -19.79345703 166.39404297 C-22.0886091 170.04189146 -24.1009433 172.29105337 -28.22216797 173.66479492 C-34.68310843 174.10168556 -41.00144502 174.36267921 -47.15966797 172.16479492 C-54.10822788 169.76438332 -62.64854152 169.11601522 -69.67919922 171.49682617 C-70.9633014 172.17306933 -72.22878445 172.88642742 -73.46826172 173.64135742 C-78.5174218 176.58763791 -85.52365255 177.77502293 -91.22216797 176.66479492 C-100.67922386 173.07366965 -109.43802078 167.96170181 -113.95263672 158.61791992 C-114.78624529 156.72323414 -115.60471567 154.8218317 -116.40966797 152.91479492 C-121.18637956 142.23648061 -127.03979252 132.89324062 -133.97631836 123.49804688 C-137.90572382 117.7159764 -138.01294286 112.53162582 -137.22216797 105.66479492 C-136.21930765 102.43657927 -134.97449596 99.39780262 -133.65576172 96.28588867 C-132.00517318 92.11669092 -130.77293912 87.92470507 -129.59716797 83.60229492 C-129.38471436 82.82837402 -129.17226074 82.05445312 -128.95336914 81.25708008 C-127.80110894 76.9963865 -126.79134294 72.72691112 -125.84716797 68.41479492 C-123.34155513 58.29380825 -118.56601434 48.16808695 -110.22216797 41.66479492 C-109.56732422 41.13499023 -108.91248047 40.60518555 -108.23779297 40.05932617 C-104.07244746 36.98092302 -100.20978698 35.23290767 -95.22216797 33.85229492 C-88.8938716 32.07890024 -83.54487086 29.38063428 -77.82421875 26.23291016 C-72.00695041 23.0379236 -66.08389953 20.1843869 -60.01806641 17.49194336 C-56.54897406 15.91477386 -53.50648136 14.23116217 -50.44482422 11.94995117 C-46.93759554 9.4630072 -45.41120397 9.15393687 -41.22216797 9.66479492 C-40.23216797 11.64479492 -39.24216797 13.62479492 -38.22216797 15.66479492 C-32.18691277 15.04501282 -26.91075106 12.7526291 -21.34716797 10.47729492 C-20.39197266 10.10282227 -19.43677734 9.72834961 -18.45263672 9.3425293 C-12.92429602 7.09403408 -8.46207486 4.66824004 -3.97167969 0.71044922 C-2.22216797 -0.33520508 -2.22216797 -0.33520508 0 0 Z M-61.65966797 40.60229492 C-69.44480704 43.2248506 -77.21344769 43.19566037 -85.3762207 43.24853516 C-93.369239 43.3631193 -98.78295275 44.55959385 -105.34716797 49.35229492 C-105.96849609 49.78928711 -106.58982422 50.2262793 -107.22998047 50.67651367 C-113.66024775 57.09417259 -116.58485276 65.89294307 -119.87890625 74.17114258 C-120.7132432 76.26737188 -121.55842942 78.35894577 -122.40576172 80.44995117 C-131.31078138 98.81612568 -131.31078138 98.81612568 -131.37060547 118.04760742 C-129.22259669 122.7089326 -126.50564327 126.71067954 -123.40966797 130.78979492 C-120.03239386 135.26946228 -117.4748375 139.82828016 -115.03466797 144.85229492 C-114.5295166 145.89063477 -114.5295166 145.89063477 -114.01416016 146.94995117 C-113.68834961 147.62026367 -113.36253906 148.29057617 -113.02685547 148.98120117 C-107.90157911 159.52121249 -101.36965591 167.1640204 -90.22216797 171.66479492 C-84.11366303 173.24233115 -79.04646503 170.93706893 -73.40966797 168.66479492 C-62.69751639 164.37272072 -54.94952556 164.78696753 -44.11279297 168.75854492 C-38.38811337 170.55330934 -33.438069 170.68751848 -27.97216797 168.16479492 C-22.84437767 163.50316737 -19.48332191 158.28211452 -16.28466797 152.16479492 C-12.17326192 144.43321575 -6.73822401 138.8420251 -0.01904297 133.30541992 C5.68056812 128.10142719 7.75406322 121.3408272 8.28173828 113.76245117 C8.5466091 103.78434707 8.27868492 96.66584463 1.77783203 88.66479492 C-3.26102827 81.63068121 -6.53619891 74.8413603 -9.00537109 66.59033203 C-10.96105207 60.37210303 -13.67037655 57.01661908 -19.56982422 53.89135742 C-20.80399575 53.34806987 -22.04249521 52.81453062 -23.28466797 52.28979492 C-31.17528504 48.7901907 -38.56659604 44.64575068 -45.83935547 39.98901367 C-51.29977936 36.95445023 -56.17401191 38.58475162 -61.65966797 40.60229492 Z " fill="#68E2FB" transform="translate(163.22216796875,42.335205078125)"/>
<path d="M0 0 C5.20642268 3.37713903 9.11298468 7.69420711 10.74609375 13.78125 C12.22801917 21.19087711 11.62371306 27.23463574 8.05859375 33.96875 C3.6721219 39.30364819 -1.27977644 44.35562713 -8.390625 45.1171875 C-16.71326852 45.20874573 -23.6494161 44.96991615 -30.02734375 39.16796875 C-36.36638609 32.19502218 -37.93723282 25.82714591 -37.7265625 16.484375 C-36.78350601 9.09580015 -32.86585243 4.84454412 -27.19140625 0.34375 C-17.60171892 -6.18809363 -10.08459668 -5.44696687 0 0 Z " fill="#B1AC5F" transform="translate(129.25390625,97.21875)"/>
<path d="M0 0 C7.99321865 6.04365312 7.99321865 6.04365312 9.078125 11.55859375 C9.3162192 17.68951927 8.59062446 23.15228226 4.5625 27.9375 C1.0577386 30.86737967 -2.6062794 33.45381216 -6.4375 35.9375 C-4.82367243 39.33962299 -2.85146234 42.04074519 -0.4375 44.9375 C-10.89178045 45.45637054 -10.89178045 45.45637054 -15.375 43.4375 C-21.62823698 40.78847089 -28.28666637 40.83890426 -34.6640625 43.0625 C-36.67990679 43.94286872 -38.67771998 44.8665347 -40.6484375 45.84375 C-43.76502882 47.06594267 -46.11942933 47.13325638 -49.4375 46.9375 C-43.73270443 39.43915128 -37.84893743 35.02895086 -28.515625 33.19921875 C-26.4375 32.9375 -26.4375 32.9375 -22.4375 32.9375 C-22.870625 32.19886719 -23.30375 31.46023437 -23.75 30.69921875 C-27.5320283 23.80927368 -30.25837797 17.85224956 -28.4375 9.9375 C-26.35640316 5.66204934 -23.59477558 2.84073948 -19.875 -0.0625 C-13.3739612 -1.95371129 -6.47547204 -2.00150954 0 0 Z " fill="#BAB564" transform="translate(129.4375,166.0625)"/>
<path d="M0 0 C3.77292291 1.79193289 4.60925027 6.35842343 5.98046875 10.0390625 C8.41678453 21.47100578 6.14736289 31.78607369 0.04296875 41.7265625 C-3.09040915 46.06931432 -6.64532757 49.08255787 -11.20703125 51.8515625 C-11.88507812 52.26535156 -12.563125 52.67914063 -13.26171875 53.10546875 C-19.7402544 56.51085287 -26.02886582 56.25096583 -33.20703125 55.8515625 C-30.7394345 44.83149972 -26.01729616 34.09451241 -21.64453125 23.7265625 C-21.09925781 22.4128064 -21.09925781 22.4128064 -20.54296875 21.07250977 C-17.34431011 13.61398876 -13.93521193 7.55361033 -7.14453125 2.8515625 C-6.30792969 2.2534375 -5.47132812 1.6553125 -4.609375 1.0390625 C-2.20703125 -0.1484375 -2.20703125 -0.1484375 0 0 Z " fill="#ACA960" transform="translate(67.20703125,87.1484375)"/>
<path d="M0 0 C0.88002686 0.32907349 0.88002686 0.32907349 1.77783203 0.66479492 C1.23815052 4.45917106 -0.19368616 5.7799258 -3.15966797 8.10229492 C-6.29391601 10.703889 -8.23083179 12.57553319 -9.22216797 16.66479492 C-4.61828897 15.40254815 -1.98018234 13.80396643 1.46533203 10.53979492 C6.23301291 6.53291419 9.49523092 5.88179036 15.62548828 6.28588867 C17.77783203 6.66479492 17.77783203 6.66479492 18.77783203 7.66479492 C25.44870005 8.20276815 30.13339381 7.10144457 36.29736328 4.53979492 C38.77783203 3.66479492 38.77783203 3.66479492 42.77783203 3.66479492 C42.46478383 6.58657812 41.95816313 7.51628696 39.65283203 9.41479492 C38.70408203 10.15729492 37.75533203 10.89979492 36.77783203 11.66479492 C34.97240646 13.65601373 33.24181086 15.69543471 31.52392578 17.76245117 C29.77783203 19.66479492 29.77783203 19.66479492 27.56298828 21.16088867 C26.97388672 21.65717773 26.38478516 22.1534668 25.77783203 22.66479492 C25.77783203 23.98479492 25.77783203 25.30479492 25.77783203 26.66479492 C28.73958326 26.05201881 30.15841986 25.4110697 32.77783203 23.66479492 C33.76783203 23.66479492 34.75783203 23.66479492 35.77783203 23.66479492 C35.6632451 25.10316243 35.53574087 26.54050458 35.40283203 27.97729492 C35.33322266 28.77780273 35.26361328 29.57831055 35.19189453 30.40307617 C34.77783203 32.66479492 34.77783203 32.66479492 32.77783203 35.66479492 C32.61069634 38.29011016 32.61069634 38.29011016 32.77783203 40.66479492 C34.26283203 41.15979492 34.26283203 41.15979492 35.77783203 41.66479492 C36.32875616 48.27588452 35.73917604 53.21925342 31.77783203 58.66479492 C29.49933348 60.99995241 27.14407127 63.23558097 24.77392578 65.47729492 C22.04373613 68.46928358 21.36662768 70.71145268 20.77783203 74.66479492 C22.09783203 74.66479492 23.41783203 74.66479492 24.77783203 74.66479492 C24.5222188 77.00791622 24.18512431 79.34322895 23.77783203 81.66479492 C22.78783203 82.15979492 22.78783203 82.15979492 21.77783203 82.66479492 C19.36963006 77.09582787 18.63367137 71.61141941 19.77783203 65.66479492 C22.07577953 61.03756428 24.86333948 56.93119065 27.77783203 52.66479492 C30.23559701 48.94068152 29.82050606 46.04573139 29.40283203 41.66479492 C29.06532611 37.96007881 28.77783203 34.38770623 28.77783203 30.66479492 C27.63314453 30.26260742 27.63314453 30.26260742 26.46533203 29.85229492 C22.25038316 27.98987565 22.25038316 27.98987565 20.77783203 25.66479492 C20.53023211 22.94657841 20.6430527 20.40530804 20.77783203 17.66479492 C19.70533203 17.70604492 18.63283203 17.74729492 17.52783203 17.78979492 C13.77783203 17.66479492 13.77783203 17.66479492 11.77783203 16.60229492 C8.54972627 15.08912034 6.16422408 15.83304951 2.77783203 16.66479492 C1.93220703 17.34541992 1.08658203 18.02604492 0.21533203 18.72729492 C-2.22216797 20.66479492 -2.22216797 20.66479492 -5.22216797 21.28979492 C-8.22216797 20.66479492 -8.22216797 20.66479492 -11.09716797 17.91479492 C-13.22216797 14.66479492 -13.22216797 14.66479492 -13.22216797 10.66479492 C-14.30111328 11.15850586 -15.38005859 11.6522168 -16.49169922 12.16088867 C-25.69546417 16.16464574 -33.52415129 18.26116607 -43.57348633 18.38110352 C-49.25633866 18.48189485 -53.77178948 19.43424711 -58.99560547 21.82495117 C-61.53415573 22.78247452 -63.5310893 22.81218616 -66.22216797 22.66479492 C-66.22216797 22.00479492 -66.22216797 21.34479492 -66.22216797 20.66479492 C-65.18576172 20.12209961 -64.14935547 19.5794043 -63.08154297 19.02026367 C-61.71165561 18.29778883 -60.34186924 17.57512249 -58.97216797 16.85229492 C-57.94929688 16.31765625 -57.94929688 16.31765625 -56.90576172 15.7722168 C-54.08914368 14.28187036 -51.47493136 12.8586956 -48.94091797 10.91479492 C-46.41877122 9.08050638 -44.24576972 9.45864026 -41.22216797 9.66479492 C-40.23216797 11.64479492 -39.24216797 13.62479492 -38.22216797 15.66479492 C-32.18691277 15.04501282 -26.91075106 12.7526291 -21.34716797 10.47729492 C-20.39197266 10.10282227 -19.43677734 9.72834961 -18.45263672 9.3425293 C-12.92429602 7.09403408 -8.46207486 4.66824004 -3.97167969 0.71044922 C-2.22216797 -0.33520508 -2.22216797 -0.33520508 0 0 Z " fill="#C8F4F6" transform="translate(163.22216796875,42.335205078125)"/>
<path d="M0 0 C0.845625 0 1.69125 0 2.5625 0 C6.80621393 1.74101084 9.04841982 4.92826461 11 9 C12.0095416 14.37410114 11.68964492 18.56962535 9.3125 23.5 C5.95944103 27.12492861 3.40574882 28.6355466 -1.375 29.875 C-7.10584312 30.07261528 -10.60086602 28.21663824 -14.875 24.5 C-17.99440398 20.83011297 -18.29336413 17.81343923 -18.21484375 13.05859375 C-17.74129167 8.52110378 -15.77725298 5.718959 -12.5 2.6875 C-8.28034529 -0.16076693 -4.99222067 -0.17214554 0 0 Z " fill="#ADA85E" transform="translate(124,166)"/>
<path d="M0 0 C1.875 0.0625 1.875 0.0625 4 1 C9.14293124 9.30781201 10.43919046 18.59723791 8.3125 28.05859375 C5.13859434 38.43991017 0.37703069 46.30803856 -9 52 C-9.67804687 52.41378906 -10.35609375 52.82757813 -11.0546875 53.25390625 C-17.53322315 56.65929037 -23.82183457 56.39940333 -31 56 C-30.31911019 53.08014819 -29.41898766 50.64877696 -28 48 C-27.05125 48.0825 -26.1025 48.165 -25.125 48.25 C-18.68751555 48.23694222 -13.03419857 45.33005291 -7.75 41.875 C0.11288023 33.65471612 3.43869227 24.76930058 3.1953125 13.5390625 C2.89425659 9.62533567 2.36401079 5.69630085 1 2 C0.34 1.67 -0.32 1.34 -1 1 C-0.67 0.67 -0.34 0.34 0 0 Z " fill="#BAB564" transform="translate(65,87)"/>
<path d="M0 0 C3.07469523 1.70251719 5.40613254 3.81226508 7 7 C7.59968751 12.27725011 6.27164725 14.88707202 3 19 C-0.76875875 21.51250583 -2.53150134 21.53016086 -7 21 C-10.64468151 18.92087487 -13.76308164 16.08183059 -15 12 C-15.50046695 8.07967553 -15.34198493 6.51297739 -13.125 3.1875 C-9.29976346 -0.7502435 -5.27428144 -0.81415083 0 0 Z " fill="#BCB765" transform="translate(76,158)"/>
<path d="M0 0 C2.9375 2.125 2.9375 2.125 5 5 C5.16299417 8.99335725 4.47797727 10.46739675 1.8125 13.4375 C-1 15 -1 15 -4.125 14.9375 C-8.49189189 13.51351351 -8.49189189 13.51351351 -10 11 C-10.50030235 7.06905293 -10.5996142 4.8994213 -8.375 1.5625 C-5.24316508 -0.49791771 -3.68455227 -0.6767545 0 0 Z " fill="#ADA85E" transform="translate(75,160)"/>
<path d="M0 0 C9.04635992 2.9267635 13.75471903 9.86028772 18 18 C19.18513635 22.38766774 19.07651379 26.4856863 19 31 C16.47452523 27.77300447 14.36352739 24.38345547 12.25 20.875 C9.16771239 15.78393349 5.89140626 10.90798158 2.34765625 6.12109375 C1.02438903 4.03838622 0.43208112 2.41199716 0 0 Z " fill="#B9B768" transform="translate(32,159)"/>
<path d="M0 0 C1.32 2.64 2.64 5.28 4 8 C2.78376953 8.03867187 2.78376953 8.03867187 1.54296875 8.078125 C-5.4131619 8.43443437 -11.14881178 9.41282944 -17.5625 12.16015625 C-20.1896668 13.06534994 -22.24167554 13.15269296 -25 13 C-25 12.34 -25 11.68 -25 11 C-23.96359375 10.45730469 -22.9271875 9.91460937 -21.859375 9.35546875 C-20.48948764 8.63299391 -19.11970127 7.91032757 -17.75 7.1875 C-17.06808594 6.83107422 -16.38617188 6.47464844 -15.68359375 6.10742188 C-12.86697571 4.61707544 -10.25276339 3.19390068 -7.71875 1.25 C-5.19660325 -0.58428854 -3.02360175 -0.20615466 0 0 Z " fill="#CAF7F9" transform="translate(122,52)"/>
<path d="M0 0 C-3.90056843 3.9939331 -7.78151796 7.86164291 -12.125 11.375 C-17.93712664 16.36336066 -21.3055235 22.92385143 -24 30 C-24.33 30 -24.66 30 -25 30 C-25.99688252 22.68952818 -22.77218971 17.12044025 -19 11 C-14.80887899 5.61699842 -7.27891702 -2.58232089 0 0 Z " fill="#B8B86A" transform="translate(167,172)"/>
<path d="M0 0 C0.33 0 0.66 0 1 0 C0.67 4.62 0.34 9.24 0 14 C-1.32 14.33 -2.64 14.66 -4 15 C-3.43179252 9.54520815 -2.05362055 5.08940744 0 0 Z " fill="#BEF1F5" transform="translate(183,128)"/>
<path d="M0 0 C0.66 0.33 1.32 0.66 2 1 C1.360625 1.103125 0.72125 1.20625 0.0625 1.3125 C-0.618125 1.539375 -1.29875 1.76625 -2 2 C-2.33 2.99 -2.66 3.98 -3 5 C-7.0916861 6.80795432 -10.55719328 7.21156222 -15 7 C-12.0356239 5.02374927 -9.21212254 3.70113094 -5.9375 2.3125 C-4.87402344 1.85488281 -3.81054688 1.39726563 -2.71484375 0.92578125 C-1.81894531 0.62027344 -0.92304688 0.31476562 0 0 Z " fill="#B0E1E7" transform="translate(141,53)"/>
<path d="M0 0 C2.125 0.375 2.125 0.375 4 1 C4.5625 2.9375 4.5625 2.9375 5 5 C4 6 4 6 1.4375 6.0625 C0.2309375 6.0315625 0.2309375 6.0315625 -1 6 C-1.625 4.125 -1.625 4.125 -2 2 C-1.34 1.34 -0.68 0.68 0 0 Z " fill="#D5D6D8" transform="translate(212,167)"/>
<path d="M0 0 C1.67542976 0.28604898 3.34385343 0.61781233 5 1 C4.67 2.65 4.34 4.3 4 6 C2.68 6 1.36 6 0 6 C-0.38218767 4.34385343 -0.71395102 2.67542976 -1 1 C-0.67 0.67 -0.34 0.34 0 0 Z " fill="#DCDDDE" transform="translate(148,24)"/>
<path d="M0 0 C0.66 0.33 1.32 0.66 2 1 C1 4 1 4 -0.75 5.1875 C-3.29960574 6.10819096 -5.30923081 6.14948718 -8 6 C-8 5.34 -8 4.68 -8 4 C-6.71349294 3.30289269 -5.42059335 2.61757124 -4.125 1.9375 C-3.40570313 1.55464844 -2.68640625 1.17179687 -1.9453125 0.77734375 C-1.30335937 0.52082031 -0.66140625 0.26429687 0 0 Z " fill="#BEEDF0" transform="translate(105,59)"/>
<path d="M0 0 C9.41002278 -0.3690205 9.41002278 -0.3690205 14 2 C14 2.33 14 2.66 14 3 C4.58997722 3.3690205 4.58997722 3.3690205 0 1 C0 0.67 0 0.34 0 0 Z " fill="#BDBA67" transform="translate(111,93)"/>
</svg>
