<?xml version="1.1" encoding="UTF-8"?>
<svg xmlns="http://www.w3.org/2000/svg" width="250px" height="250px" viewBox="0 0 250 250" version="1.1">
<g id="surface1">
<path d="M0 0 C0.70487549 0.00054382 1.40975098 0.00108765 2.13598633 0.00164795 C13.64019402 0.042376 24.47375748 0.91770868 35.5 4.375 C36.51755371 4.68848389 36.51755371 4.68848389 37.55566406 5.00830078 C70.87717514 15.62505908 96.00640085 38.48000907 112.03637695 69.21655273 C127.20879461 99.33009204 127.80472122 133.68528468 117.5 165.375 C111.76269551 181.67652512 102.68433536 196.14970889 90.5 208.375 C89.68144531 209.2 88.86289063 210.025 88.01953125 210.875 C64.60065909 234.11233051 34.43436509 246.9070479 1.375 247.5625 C-31.63582199 247.17322144 -61.62254126 235.25088748 -85.5 212.375 C-86.24765625 211.69050781 -86.9953125 211.00601563 -87.765625 210.30078125 C-101.22295698 197.5727802 -110.95430032 180.70963672 -116.875 163.25 C-117.10155273 162.58323242 -117.32810547 161.91646484 -117.56152344 161.22949219 C-121.49862311 148.80246629 -123.05918268 136.62274469 -122.9375 123.625 C-122.93445862 122.93011475 -122.93141724 122.23522949 -122.92828369 121.51928711 C-122.85473152 110.10791241 -121.93697028 99.30843665 -118.5 88.375 C-118.28569336 87.68599609 -118.07138672 86.99699219 -117.85058594 86.28710938 C-107.78582755 55.02336208 -85.44258101 28.44251567 -56.359375 13.14453125 C-46.80207453 8.34153403 -36.91871719 4.79539149 -26.5 2.375 C-25.30745605 2.0968042 -25.30745605 2.0968042 -24.09082031 1.81298828 C-16.08775733 0.14729322 -8.1512163 -0.02368705 0 0 Z " fill="#1B2229" transform="translate(124.5,1.625)" id="path1" />
<path d="M0 0 C0.58668457 0.21938232 1.17336914 0.43876465 1.77783203 0.66479492 C1.23815052 4.45917106 -0.19368616 5.7799258 -3.15966797 8.10229492 C-6.29391601 10.703889 -8.23083179 12.57553319 -9.22216797 16.66479492 C-4.61828897 15.40254815 -1.98018234 13.80396643 1.46533203 10.53979492 C6.23301291 6.53291419 9.49523092 5.88179036 15.62548828 6.28588867 C17.77783203 6.66479492 17.77783203 6.66479492 18.77783203 7.66479492 C25.41629051 8.48286758 30.5431373 7.35794164 36.55126953 4.53979492 C38.77783203 3.66479492 38.77783203 3.66479492 42.77783203 3.66479492 C42.46478383 6.58657812 41.95816313 7.51628696 39.65283203 9.41479492 C38.70408203 10.15729492 37.75533203 10.89979492 36.77783203 11.66479492 C34.97240646 13.65601373 33.24181086 15.69543471 31.52392578 17.76245117 C29.77783203 19.66479492 29.77783203 19.66479492 27.56298828 21.16088867 C26.97388672 21.65717773 26.38478516 22.1534668 25.77783203 22.66479492 C25.77783203 23.98479492 25.77783203 25.30479492 25.77783203 26.66479492 C28.73958326 26.05201881 30.15841986 25.4110697 32.77783203 23.66479492 C33.76783203 23.66479492 34.75783203 23.66479492 35.77783203 23.66479492 C35.6632451 25.10316243 35.53574087 26.54050458 35.40283203 27.97729492 C35.33322266 28.77780273 35.26361328 29.57831055 35.19189453 30.40307617 C34.77783203 32.66479492 34.77783203 32.66479492 32.77783203 35.66479492 C32.61069634 38.29011016 32.61069634 38.29011016 32.77783203 40.66479492 C33.76783203 40.99479492 34.75783203 41.32479492 35.77783203 41.66479492 C36.32875616 48.27588452 35.73917604 53.21925342 31.77783203 58.66479492 C29.49933348 60.99995241 27.14407127 63.23558097 24.77392578 65.47729492 C22.04373613 68.46928358 21.36662768 70.71145268 20.77783203 74.66479492 C22.09783203 74.66479492 23.41783203 74.66479492 24.77783203 74.66479492 C24.36992401 77.58813574 23.98297621 80.19855816 22.78955078 82.91088867 C21.54187597 86.30706913 21.29246138 89.43777726 20.96533203 93.03979492 C20.06314111 101.44763227 17.68683941 108.74087299 14.77783203 116.66479492 C14.33310547 118.16526367 14.33310547 118.16526367 13.87939453 119.69604492 C11.2442253 128.3026527 6.12567892 134.15006839 -0.83154297 139.77416992 C-9.8407525 147.11693607 -14.55241215 156.22858089 -19.84106445 166.44165039 C-22.10214621 170.08128455 -24.12852114 172.30024598 -28.22216797 173.66479492 C-34.68310843 174.10168556 -41.00144502 174.36267921 -47.15966797 172.16479492 C-54.10822788 169.76438332 -62.64854152 169.11601522 -69.67919922 171.49682617 C-70.96430416 172.17359741 -72.23099955 172.88702661 -73.47216797 173.64135742 C-76.54163107 175.43644521 -79.74243386 176.09260155 -83.22216797 176.66479492 C-83.88603516 176.7962793 -84.54990234 176.92776367 -85.23388672 177.06323242 C-90.69937881 177.64918167 -94.7181973 175.72483319 -99.40966797 173.10229492 C-99.99184082 172.78019043 -100.57401367 172.45808594 -101.17382812 172.1262207 C-109.33222124 167.24046892 -113.09618289 160.43611282 -116.78466797 151.91479492 C-121.43170848 141.629479 -127.29776078 132.61226164 -133.96044922 123.52978516 C-137.89871395 117.7084995 -138.10659164 112.57868083 -137.22216797 105.66479492 C-136.17834942 102.44257245 -135.00015391 99.35618454 -133.71069336 96.22900391 C-131.4291506 90.58051139 -129.977037 84.9187141 -128.65966797 78.97729492 C-124.7357952 61.61774492 -119.12101031 47.3263364 -103.79638672 37.03588867 C-101.06503268 35.58110071 -98.59405779 34.8574479 -95.59716797 34.10229492 C-86.99433013 31.56518681 -79.45106408 27.22095353 -71.60888672 22.94311523 C-67.28915245 20.62947687 -62.88407267 18.48629265 -58.47290039 16.35327148 C-55.47829214 14.88369152 -52.74339253 13.33791085 -49.98388672 11.45385742 C-46.7774335 9.37669254 -44.9685097 9.30800047 -41.22216797 9.66479492 C-40.23216797 11.64479492 -39.24216797 13.62479492 -38.22216797 15.66479492 C-32.18691277 15.04501282 -26.91075106 12.7526291 -21.34716797 10.47729492 C-20.39197266 10.10282227 -19.43677734 9.72834961 -18.45263672 9.3425293 C-12.92429602 7.09403408 -8.46207486 4.66824004 -3.97167969 0.71044922 C-2.22216797 -0.33520508 -2.22216797 -0.33520508 0 0 Z " fill="#59885E" transform="translate(163.22216796875,42.335205078125)" id="path2" style="fill:#78df64;fill-opacity:1" />
<path d="M0 0 C0.58668457 0.21938232 1.17336914 0.43876465 1.77783203 0.66479492 C1.23815052 4.45917106 -0.19368616 5.7799258 -3.15966797 8.10229492 C-6.29391601 10.703889 -8.23083179 12.57553319 -9.22216797 16.66479492 C-4.61828897 15.40254815 -1.98018234 13.80396643 1.46533203 10.53979492 C6.23301291 6.53291419 9.49523092 5.88179036 15.62548828 6.28588867 C17.77783203 6.66479492 17.77783203 6.66479492 18.77783203 7.66479492 C25.41629051 8.48286758 30.5431373 7.35794164 36.55126953 4.53979492 C38.77783203 3.66479492 38.77783203 3.66479492 42.77783203 3.66479492 C42.46478383 6.58657812 41.95816313 7.51628696 39.65283203 9.41479492 C38.70408203 10.15729492 37.75533203 10.89979492 36.77783203 11.66479492 C34.97240646 13.65601373 33.24181086 15.69543471 31.52392578 17.76245117 C29.77783203 19.66479492 29.77783203 19.66479492 27.56298828 21.16088867 C26.97388672 21.65717773 26.38478516 22.1534668 25.77783203 22.66479492 C25.77783203 23.98479492 25.77783203 25.30479492 25.77783203 26.66479492 C28.73958326 26.05201881 30.15841986 25.4110697 32.77783203 23.66479492 C33.76783203 23.66479492 34.75783203 23.66479492 35.77783203 23.66479492 C35.6632451 25.10316243 35.53574087 26.54050458 35.40283203 27.97729492 C35.33322266 28.77780273 35.26361328 29.57831055 35.19189453 30.40307617 C34.77783203 32.66479492 34.77783203 32.66479492 32.77783203 35.66479492 C32.61069634 38.29011016 32.61069634 38.29011016 32.77783203 40.66479492 C33.76783203 40.99479492 34.75783203 41.32479492 35.77783203 41.66479492 C36.32875616 48.27588452 35.73917604 53.21925342 31.77783203 58.66479492 C29.49933348 60.99995241 27.14407127 63.23558097 24.77392578 65.47729492 C22.04373613 68.46928358 21.36662768 70.71145268 20.77783203 74.66479492 C22.09783203 74.66479492 23.41783203 74.66479492 24.77783203 74.66479492 C24.36992401 77.58813574 23.98297621 80.19855816 22.78955078 82.91088867 C21.54187597 86.30706913 21.29246138 89.43777726 20.96533203 93.03979492 C20.06314111 101.44763227 17.68683941 108.74087299 14.77783203 116.66479492 C14.33310547 118.16526367 14.33310547 118.16526367 13.87939453 119.69604492 C11.2442253 128.3026527 6.12567892 134.15006839 -0.83154297 139.77416992 C-9.8407525 147.11693607 -14.55241215 156.22858089 -19.84106445 166.44165039 C-22.10214621 170.08128455 -24.12852114 172.30024598 -28.22216797 173.66479492 C-34.68310843 174.10168556 -41.00144502 174.36267921 -47.15966797 172.16479492 C-54.10822788 169.76438332 -62.64854152 169.11601522 -69.67919922 171.49682617 C-70.96430416 172.17359741 -72.23099955 172.88702661 -73.47216797 173.64135742 C-76.54163107 175.43644521 -79.74243386 176.09260155 -83.22216797 176.66479492 C-83.88603516 176.7962793 -84.54990234 176.92776367 -85.23388672 177.06323242 C-90.69937881 177.64918167 -94.7181973 175.72483319 -99.40966797 173.10229492 C-99.99184082 172.78019043 -100.57401367 172.45808594 -101.17382812 172.1262207 C-109.33222124 167.24046892 -113.09618289 160.43611282 -116.78466797 151.91479492 C-121.43170848 141.629479 -127.29776078 132.61226164 -133.96044922 123.52978516 C-137.89871395 117.7084995 -138.10659164 112.57868083 -137.22216797 105.66479492 C-136.17834942 102.44257245 -135.00015391 99.35618454 -133.71069336 96.22900391 C-131.4291506 90.58051139 -129.977037 84.9187141 -128.65966797 78.97729492 C-124.7357952 61.61774492 -119.12101031 47.3263364 -103.79638672 37.03588867 C-101.06503268 35.58110071 -98.59405779 34.8574479 -95.59716797 34.10229492 C-86.99433013 31.56518681 -79.45106408 27.22095353 -71.60888672 22.94311523 C-67.28915245 20.62947687 -62.88407267 18.48629265 -58.47290039 16.35327148 C-55.47829214 14.88369152 -52.74339253 13.33791085 -49.98388672 11.45385742 C-46.7774335 9.37669254 -44.9685097 9.30800047 -41.22216797 9.66479492 C-40.23216797 11.64479492 -39.24216797 13.62479492 -38.22216797 15.66479492 C-32.18691277 15.04501282 -26.91075106 12.7526291 -21.34716797 10.47729492 C-20.39197266 10.10282227 -19.43677734 9.72834961 -18.45263672 9.3425293 C-12.92429602 7.09403408 -8.46207486 4.66824004 -3.97167969 0.71044922 C-2.22216797 -0.33520508 -2.22216797 -0.33520508 0 0 Z M-61.59716797 40.60229492 C-69.53651801 43.29233353 -77.51965423 43.14567513 -85.84472656 43.07275391 C-93.29445368 43.13118969 -98.10004049 44.40487025 -104.22216797 48.66479492 C-105.12966797 49.24229492 -106.03716797 49.81979492 -106.97216797 50.41479492 C-117.21331993 60.65594688 -122.04896733 79.30543065 -127.22216797 92.66479492 C-127.46773437 93.28161133 -127.71330078 93.89842773 -127.96630859 94.53393555 C-132.59859558 105.76666103 -132.59859558 105.76666103 -131.62841797 117.53198242 C-129.38071448 122.54769114 -125.97762602 126.86461968 -122.79174805 131.31298828 C-119.74041371 135.67390817 -117.29500575 140.19350769 -114.97216797 144.97729492 C-114.63934814 145.66162598 -114.30652832 146.34595703 -113.96362305 147.05102539 C-113.64288818 147.71118652 -113.32215332 148.37134766 -112.99169922 149.05151367 C-107.87779007 159.57410515 -101.33292046 167.15105172 -90.22216797 171.66479492 C-82.62918373 172.6289834 -75.63040581 170.36891384 -68.84716797 166.97729492 C-60.1281303 163.82040197 -52.48308309 165.66348166 -44.04638672 168.76245117 C-38.68716243 170.47473445 -34.25718459 170.36922375 -28.97216797 168.53979492 C-23.10443096 164.53906514 -20.07259381 158.86144744 -16.84716797 152.72729492 C-13.10900412 145.87127728 -9.28861288 140.89493324 -3.15185547 136.02026367 C2.96742186 131.01871412 7.14964427 124.73727659 7.98657227 116.64697266 C8.69286925 101.61587253 8.69286925 101.61587253 1.77783203 88.66479492 C-3.26102827 81.63068121 -6.53619891 74.8413603 -9.00537109 66.59033203 C-10.51439578 61.79227898 -12.15613705 58.87301341 -16.22216797 55.66479492 C-18.66773642 54.47407915 -21.00863283 53.44649407 -23.53466797 52.47729492 C-30.45790229 49.67759944 -36.55128381 46.18739704 -42.64135742 41.86523438 C-49.0640143 37.5225516 -54.37150544 37.62515244 -61.59716797 40.60229492 Z " fill="#FAFCFB" transform="translate(163.22216796875,42.335205078125)" id="path3" />
<path d="M0 0 C3.55796687 2.80374347 5.64659302 5.30600255 6.5859375 9.80859375 C6.93214658 16.27940639 5.85287412 20.84863036 1.93359375 26.02734375 C-0.81599031 28.83247496 -3.85331773 30.84573354 -7.2421875 32.80859375 C-8.11230469 33.39833984 -8.11230469 33.39833984 -9 34 C-9 34.66 -9 35.32 -9 36 C-8.01 36.825 -7.02 37.65 -6 38.5 C-5.01 39.325 -4.02 40.15 -3 41 C-3 41.66 -3 42.32 -3 43 C-2.01 43.495 -2.01 43.495 -1 44 C-6.57371639 44.37158109 -10.56394151 43.9638875 -15.8125 42 C-24.61483505 38.88738723 -31.78909624 38.79606684 -40.4375 42.4375 C-41.85869141 43.11619141 -41.85869141 43.11619141 -43.30859375 43.80859375 C-47.31490656 45.58207039 -50.95774672 46.13630938 -55.3125 46.0625 C-57.1378125 46.0315625 -57.1378125 46.0315625 -59 46 C-59 45.67 -59 45.34 -59 45 C-57.989375 44.979375 -56.97875 44.95875 -55.9375 44.9375 C-51.53728675 44.33545875 -49.65205714 41.93684197 -46.7421875 38.78125 C-41.88740101 33.8176118 -35.73821469 31.94658839 -29 31 C-27.68 31 -26.36 31 -25 31 C-25.433125 30.17757812 -25.86625 29.35515625 -26.3125 28.5078125 C-32.85462631 15.39327225 -32.85462631 15.39327225 -31 8 C-28.76124792 3.0864842 -25.82166549 -0.06321833 -20.75 -2 C-13.59725359 -3.85754291 -6.25328095 -4.40572067 0 0 Z " fill="#67B357" transform="translate(132,168)" id="path4" />
<path d="M0 0 C4.63408878 3.41323422 8.34362155 7.41546381 10.54296875 12.80078125 C11.52866918 19.54022142 10.56564542 25.26034621 6.54296875 30.80078125 C3.13364502 34.38330592 -0.79665461 37.45765059 -5.7890625 38.1015625 C-12.77316354 38.13455825 -17.70374914 37.11604121 -23.20703125 32.48828125 C-28.19352964 26.53218595 -29.11190451 21.68467484 -28.9453125 14.00390625 C-28.05928293 8.19155226 -24.86475938 4.83290379 -20.50390625 1.15234375 C-14.97563539 -2.49800304 -5.87725397 -2.86854844 0 0 Z " fill="#89FD72" transform="translate(126.45703125,97.19921875)" id="path5" style="fill:#59885e;fill-opacity:1" />
<path d="M0 0 C0.22786458 1.98567708 0.45572917 3.97135417 0.68359375 5.95703125 C0.97170735 8.19396393 0.97170735 8.19396393 2 11 C3.07392466 22.56669678 0.2931492 31.09425065 -7.07421875 40.0234375 C-13.75150341 46.8767966 -21.74036653 49.04210688 -31 50 C-14.94391678 0 -14.94391678 0 0 0 Z " fill="#8AFD74" transform="translate(67,87)" id="path6" style="fill:#59885e;fill-opacity:1" />
<path d="M0 0 C0.556875 0.2475 1.11375 0.495 1.6875 0.75 C1.14781849 4.54437614 -0.28401819 5.86513088 -3.25 8.1875 C-6.38424804 10.78909408 -8.32116382 12.66073827 -9.3125 16.75 C-4.708621 15.48775323 -2.07051437 13.88917151 1.375 10.625 C6.14268087 6.61811926 9.40489889 5.96699544 15.53515625 6.37109375 C17.6875 6.75 17.6875 6.75 18.6875 7.75 C25.32595847 8.56807266 30.45280527 7.44314671 36.4609375 4.625 C38.6875 3.75 38.6875 3.75 42.6875 3.75 C42.3744518 6.6717832 41.86783109 7.60149204 39.5625 9.5 C38.61375 10.2425 37.665 10.985 36.6875 11.75 C34.88207443 13.74121881 33.15147883 15.78063979 31.43359375 17.84765625 C29.6875 19.75 29.6875 19.75 27.47265625 21.24609375 C26.88355469 21.74238281 26.29445312 22.23867187 25.6875 22.75 C25.6875 24.07 25.6875 25.39 25.6875 26.75 C28.64925123 26.13722388 30.06808783 25.49627478 32.6875 23.75 C33.6775 23.75 34.6675 23.75 35.6875 23.75 C35.57291307 25.18836751 35.44540884 26.62570966 35.3125 28.0625 C35.24289063 28.86300781 35.17328125 29.66351563 35.1015625 30.48828125 C34.6875 32.75 34.6875 32.75 32.6875 35.75 C32.52036431 38.37531524 32.52036431 38.37531524 32.6875 40.75 C33.6775 41.08 34.6675 41.41 35.6875 41.75 C36.23842413 48.3610896 35.64884401 53.3044585 31.6875 58.75 C29.40900145 61.08515748 27.05373923 63.32078604 24.68359375 65.5625 C21.9534041 68.55448866 21.27629565 70.79665776 20.6875 74.75 C22.0075 74.75 23.3275 74.75 24.6875 74.75 C24.1895163 78.48487777 23.81258244 80.56237635 21.6875 83.75 C19.35370167 75.58170583 18.24483054 69.36859048 22.47265625 61.6953125 C24.06010716 59.15334931 25.80715321 56.75189284 27.578125 54.3359375 C29.84876695 51.08987894 30.80618284 48.84188214 30.375 44.875 C30.0346875 43.328125 30.0346875 43.328125 29.6875 41.75 C28.40511658 34.31217617 28.40511658 34.31217617 29.6875 30.75 C28.759375 30.481875 27.83125 30.21375 26.875 29.9375 C22.24780796 28.21364414 22.24780796 28.21364414 20.6875 25.75 C20.14608368 23.06945841 19.91178898 20.48632553 19.6875 17.75 C14.7375 16.76 14.7375 16.76 9.6875 15.75 C9.6875 15.09 9.6875 14.43 9.6875 13.75 C5.90497665 15.26300934 2.92712965 16.57394556 -0.375 19 C-3.3125 20.75 -3.3125 20.75 -6.5 20.75 C-9.74836281 19.59502656 -10.68481818 18.74836124 -12.3125 15.75 C-13 13.5 -13 13.5 -13.3125 11.75 C-16.2825 11.255 -16.2825 11.255 -19.3125 10.75 C-17.13386657 8.57136657 -15.27632775 7.68199687 -12.5 6.375 C-9.40961933 4.88094546 -7.10474674 3.57837774 -4.4375 1.375 C-2.3125 -0.25 -2.3125 -0.25 0 0 Z " fill="#D0EFD9" transform="translate(163.3125,42.25)" id="path7" />
<path d="M0 0 C5.14042251 4.3581843 9.47290609 9.67649551 10.30859375 16.53125 C10.66241957 24.67996584 9.11853082 30.54981889 4 37 C-3.26105174 43.27315354 -9.80125279 44.5506987 -19.2578125 44.33984375 C-26.21151635 43.70834872 -29.84056817 40.45892331 -34.375 35.4375 C-40.22444019 28.36261843 -39.82958016 20.77608483 -39 12 C-37.91428041 8.66204348 -36.42386337 6.51168451 -34 4 C-33.07574219 3.03126953 -33.07574219 3.03126953 -32.1328125 2.04296875 C-22.29608996 -7.35358916 -11.04075155 -7.0505852 0 0 Z M-29.375 4.5625 C-33.99064995 10.30120916 -33.48294619 15.79971128 -33 23 C-30.96949861 28.98463567 -27.27063164 32.70885652 -21.8125 35.8125 C-16.12352253 37.58447659 -11.0941532 38.36336125 -5.5 35.8984375 C-0.30152183 32.70068941 2.45742162 29.50891983 5 24 C5.33 23.34 5.66 22.68 6 22 C6.83324332 15.59592991 6.19974277 10.97931279 2.43359375 5.6875 C-0.68235758 2.01967718 -4.79544794 -1.75182674 -9.671875 -2.30078125 C-18.04591753 -2.33266212 -23.58783397 -1.98900871 -29.375 4.5625 Z " fill="#65B355" transform="translate(131,98)" id="path8" />
<path d="M0 0 C3.3125 1.6875 3.3125 1.6875 6 4 C6.78375 4.66 7.5675 5.32 8.375 6 C10.99094679 10.82944022 10.84846462 15.64089442 10 21 C8.07869011 24.97171965 5.0665012 27.38206702 1 29 C-4.31192637 29.62837093 -9.27693562 29.91427906 -14.0625 27.375 C-18.04180139 22.49714669 -19.5894525 18.43094523 -19.34765625 12.17578125 C-18.58118706 7.37888982 -15.82504268 4.72910749 -12.3125 1.625 C-8.0333271 -0.47421689 -4.68209654 -0.83218592 0 0 Z " fill="#88FD72" transform="translate(125,166)" id="path9" style="fill:#59885e;fill-opacity:1" />
<path d="M0 0 C5.41821964 4.96290707 6.16821744 11.46543302 6.51025391 18.45776367 C6.71343756 27.61526976 5.22623441 34.25464541 0 42 C-0.57427734 42.91652344 -0.57427734 42.91652344 -1.16015625 43.8515625 C-6.20311992 50.90086655 -15.74626041 55.13490539 -24 57 C-27.32853477 57.47617187 -30.64424351 57.79683311 -34 58 C-32.94124926 54.59687262 -31.99097846 51.98646769 -30 49 C-27.8984375 48.41015625 -27.8984375 48.41015625 -25.375 48.0625 C-17.82142696 46.74362217 -10.40877317 43.55859815 -5.69140625 37.25 C0.40914028 27.98151388 2.53395035 19.41237849 0.5078125 8.30078125 C0.01356541 6.1985385 -0.49217633 4.0990045 -1 2 C-0.67 1.34 -0.34 0.68 0 0 Z " fill="#66B255" transform="translate(67,87)" id="path10" />
<path d="M0 0 C2.82424288 2.19022918 4.41508603 3.83017207 6 7 C6.44408691 10.9079648 6.13704844 12.74548146 4.25 16.25 C1.27531632 19.8857245 -0.2985899 20.74108977 -4.875 21.4375 C-9.12677233 20.84225187 -10.97204564 18.95913721 -14 16 C-16.4915904 12.2626144 -16.45793285 10.42668417 -16 6 C-11.80749364 -0.42850976 -7.35101818 -1.06335483 0 0 Z " fill="#65B256" transform="translate(77,158)" id="path11" />
<path d="M 0,0 C 2.4375,1 2.4375,1 4,3 4.4531445,6.1720117 4.7019151,7.992657 4,11 1.5816209,13.763862 0.03342666,14.798356 -3.5625,15.5 -6.963111,14.802439 -8.0544562,13.882287 -10,11 -10.638577,7.4736365 -10.658413,4.239366 -8.9375,1 -5.8587326,-0.58904125 -3.3984442,-0.35773097 0,0 Z" fill="#88fc71" transform="translate(75,160)" id="path12" style="display:inline;fill:#59885e;fill-opacity:1" />
<path d="M0 0 C7.93131126 2.40342766 12.81166177 8.27268691 16.77734375 15.2734375 C19.46176233 21.25977669 20.11677593 27.49558087 20 34 C17.49466104 31.49466104 16.49992159 28.96617803 15 25.75 C12.03077836 19.5501873 8.44907175 14.08469074 4.2890625 8.62011719 C2.17841158 5.81855788 0.46556198 3.53482244 0 0 Z " fill="#68B259" transform="translate(32,159)" id="path13" />
<path d="M0 0 C-1.31423722 3.53769516 -3.49069077 5.42330061 -6.34301758 7.80761719 C-14.57365052 14.71185962 -19.30152452 22.43307836 -24 32 C-25.57544865 27.27365406 -23.79665109 23.5178562 -22 19 C-18.01614751 11.36634476 -9.4152681 0 0 0 Z " fill="#68B159" transform="translate(166,171)" id="path14" />
<path d="M0 0 C0.99 1.98 1.98 3.96 3 6 C4.98 6 6.96 6 9 6 C8.67 6.66 8.34 7.32 8 8 C7.33355469 7.97679687 6.66710937 7.95359375 5.98046875 7.9296875 C-3.80657291 7.73805312 -12.57355487 9.30151578 -21.80859375 12.51171875 C-24.27300418 13.06082981 -25.60880836 12.68091462 -28 12 C-26.37191406 11.20335937 -26.37191406 11.20335937 -24.7109375 10.390625 C-23.26551761 9.6773009 -21.82021111 8.96374699 -20.375 8.25 C-19.66214844 7.90195312 -18.94929688 7.55390625 -18.21484375 7.1953125 C-14.88962488 5.54795636 -11.72848478 3.88332701 -8.6875 1.75 C-5.52935772 -0.30646474 -3.69635508 -0.35203382 0 0 Z " fill="#D2F1DB" transform="translate(122,52)" id="path15" />
<path d="M0 0 C0.556875 0.2475 1.11375 0.495 1.6875 0.75 C1.14781849 4.54437614 -0.28401819 5.86513088 -3.25 8.1875 C-6.38424804 10.78909408 -8.32116382 12.66073827 -9.3125 16.75 C-10.3025 16.42 -11.2925 16.09 -12.3125 15.75 C-13 13.6875 -13 13.6875 -13.3125 11.75 C-16.2825 11.255 -16.2825 11.255 -19.3125 10.75 C-17.13386657 8.57136657 -15.27632775 7.68199687 -12.5 6.375 C-9.40961933 4.88094546 -7.10474674 3.57837774 -4.4375 1.375 C-2.3125 -0.25 -2.3125 -0.25 0 0 Z " fill="#C8E7D2" transform="translate(163.3125,42.25)" id="path16" />
<path d="M0 0 C2.125 0.375 2.125 0.375 4 1 C4.5625 2.9375 4.5625 2.9375 5 5 C4 6 4 6 1.4375 6.0625 C0.2309375 6.0315625 0.2309375 6.0315625 -1 6 C-1.625 4.125 -1.625 4.125 -2 2 C-1.34 1.34 -0.68 0.68 0 0 Z " fill="#D5D6D8" transform="translate(212,167)" id="path17" />
<path d="M0 0 C0 0.66 0 1.32 0 2 C-1.57914015 2.53341184 -3.16354387 3.05125763 -4.75 3.5625 C-5.63171875 3.85253906 -6.5134375 4.14257812 -7.421875 4.44140625 C-10.07834316 5.01697435 -11.47031106 4.89248371 -14 4 C-12.23494565 3.13395466 -10.46271926 2.28251358 -8.6875 1.4375 C-7.70136719 0.96183594 -6.71523437 0.48617187 -5.69921875 -0.00390625 C-3 -1 -3 -1 0 0 Z " fill="#C9E4D2" transform="translate(108,60)" id="path18" />
<path d="M0 0 C1.67542976 0.28604898 3.34385343 0.61781233 5 1 C4.67 2.65 4.34 4.3 4 6 C2.68 6 1.36 6 0 6 C-0.38218767 4.34385343 -0.71395102 2.67542976 -1 1 C-0.67 0.67 -0.34 0.34 0 0 Z " fill="#DCDDDE" transform="translate(148,24)" id="path19" />
<path d="M0 0 C0.66 0 1.32 0 2 0 C1.67 4.29 1.34 8.58 1 13 C0.67 13 0.34 13 0 13 C-0.19466332 11.20909747 -0.38051213 9.41723495 -0.5625 7.625 C-0.66691406 6.62726563 -0.77132812 5.62953125 -0.87890625 4.6015625 C-1 2 -1 2 0 0 Z " fill="#BFD9C8" transform="translate(182,131)" id="path20" />
<path d="M0 0 C2 2 2 2 2.1953125 3.9453125 C2.13020833 5.96354167 2.06510417 7.98177083 2 10 C0.4375 8.9375 0.4375 8.9375 -1 7 C-0.6875 3.3125 -0.6875 3.3125 0 0 Z " fill="#DFF6E5" transform="translate(180,136)" id="path21" />
<path d="M0 0 C-7.28571429 4.57142857 -7.28571429 4.57142857 -12 4 C-8.71298741 1.21868166 -4.24676932 -2.12338466 0 0 Z " fill="#B3CDBC" transform="translate(143,54)" id="path22" />
</g>
</svg>
