<?xml version="1.0" encoding="UTF-8"?>
<svg version="1.1" xmlns="http://www.w3.org/2000/svg" width="250" height="250">
<path d="M0 0 C0.70487549 0.00054382 1.40975098 0.00108765 2.13598633 0.00164795 C13.64019402 0.042376 24.47375748 0.91770868 35.5 4.375 C36.51755371 4.68848389 36.51755371 4.68848389 37.55566406 5.00830078 C70.87717514 15.62505908 96.00640085 38.48000907 112.03637695 69.21655273 C127.20879461 99.33009204 127.80472122 133.68528468 117.5 165.375 C111.76269551 181.67652512 102.68433536 196.14970889 90.5 208.375 C89.68144531 209.2 88.86289063 210.025 88.01953125 210.875 C64.60065909 234.11233051 34.43436509 246.9070479 1.375 247.5625 C-31.63582199 247.17322144 -61.62254126 235.25088748 -85.5 212.375 C-86.24765625 211.69050781 -86.9953125 211.00601563 -87.765625 210.30078125 C-101.22295698 197.5727802 -110.95430032 180.70963672 -116.875 163.25 C-117.10155273 162.58323242 -117.32810547 161.91646484 -117.56152344 161.22949219 C-121.49862311 148.80246629 -123.05918268 136.62274469 -122.9375 123.625 C-122.93445862 122.93011475 -122.93141724 122.23522949 -122.92828369 121.51928711 C-122.85473152 110.10791241 -121.93697028 99.30843665 -118.5 88.375 C-118.28569336 87.68599609 -118.07138672 86.99699219 -117.85058594 86.28710938 C-107.78582755 55.02336208 -85.44258101 28.44251567 -56.359375 13.14453125 C-46.80207453 8.34153403 -36.91871719 4.79539149 -26.5 2.375 C-25.30745605 2.0968042 -25.30745605 2.0968042 -24.09082031 1.81298828 C-16.08775733 0.14729322 -8.1512163 -0.02368705 0 0 Z " fill="#1B2229" transform="translate(124.5,1.625)"/>
<path d="M0 0 C0.58668457 0.21938232 1.17336914 0.43876465 1.77783203 0.66479492 C1.23815052 4.45917106 -0.19368616 5.7799258 -3.15966797 8.10229492 C-6.29391601 10.703889 -8.23083179 12.57553319 -9.22216797 16.66479492 C-4.61828897 15.40254815 -1.98018234 13.80396643 1.46533203 10.53979492 C6.23301291 6.53291419 9.49523092 5.88179036 15.62548828 6.28588867 C17.77783203 6.66479492 17.77783203 6.66479492 18.77783203 7.66479492 C24.53895297 8.33349646 29.30833766 7.40147528 34.69189453 5.39916992 C37.34590107 4.46480058 39.99270712 4.02186222 42.77783203 3.66479492 C42.46478383 6.58657812 41.95816313 7.51628696 39.65283203 9.41479492 C38.70408203 10.15729492 37.75533203 10.89979492 36.77783203 11.66479492 C34.97240646 13.65601373 33.24181086 15.69543471 31.52392578 17.76245117 C29.77783203 19.66479492 29.77783203 19.66479492 27.56298828 21.16088867 C26.97388672 21.65717773 26.38478516 22.1534668 25.77783203 22.66479492 C25.77783203 23.98479492 25.77783203 25.30479492 25.77783203 26.66479492 C28.73958326 26.05201881 30.15841986 25.4110697 32.77783203 23.66479492 C33.76783203 23.66479492 34.75783203 23.66479492 35.77783203 23.66479492 C35.6632451 25.10316243 35.53574087 26.54050458 35.40283203 27.97729492 C35.33322266 28.77780273 35.26361328 29.57831055 35.19189453 30.40307617 C34.77783203 32.66479492 34.77783203 32.66479492 32.77783203 35.66479492 C32.61069634 38.29011016 32.61069634 38.29011016 32.77783203 40.66479492 C33.76783203 40.99479492 34.75783203 41.32479492 35.77783203 41.66479492 C36.32875616 48.27588452 35.73917604 53.21925342 31.77783203 58.66479492 C29.49933348 60.99995241 27.14407127 63.23558097 24.77392578 65.47729492 C22.04373613 68.46928358 21.36662768 70.71145268 20.77783203 74.66479492 C22.09783203 74.66479492 23.41783203 74.66479492 24.77783203 74.66479492 C24.31705188 78.25888008 23.52542448 81.46858077 22.27783203 84.85229492 C21.10944791 88.20259235 20.58978148 91.13515854 20.41455078 94.67260742 C19.87934669 101.2127138 18.11301361 107.13358489 16.09033203 113.35229492 C15.60016602 114.96587891 15.60016602 114.96587891 15.10009766 116.61206055 C11.69026666 127.25881774 5.65600617 135.22143037 -3.10644531 142.15600586 C-8.87793411 146.75644702 -12.06041539 151.87628308 -15.47216797 158.35229492 C-16.47135989 160.21361012 -17.47637814 162.07181186 -18.48779297 163.92651367 C-18.91866211 164.74079834 -19.34953125 165.55508301 -19.79345703 166.39404297 C-22.0886091 170.04189146 -24.1009433 172.29105337 -28.22216797 173.66479492 C-34.68310843 174.10168556 -41.00144502 174.36267921 -47.15966797 172.16479492 C-54.10822788 169.76438332 -62.64854152 169.11601522 -69.67919922 171.49682617 C-70.9633014 172.17306933 -72.22878445 172.88642742 -73.46826172 173.64135742 C-78.5174218 176.58763791 -85.52365255 177.77502293 -91.22216797 176.66479492 C-100.67922386 173.07366965 -109.43802078 167.96170181 -113.95263672 158.61791992 C-114.78624529 156.72323414 -115.60471567 154.8218317 -116.40966797 152.91479492 C-121.18637956 142.23648061 -127.03979252 132.89324062 -133.97631836 123.49804688 C-137.93040283 117.67966156 -138.18724078 112.57994069 -137.22216797 105.66479492 C-136.04992148 101.71832239 -134.51906391 97.91450678 -132.99829102 94.09179688 C-130.82002396 88.54457896 -129.26393938 83.13051533 -128.09716797 77.28979492 C-124.88179268 61.53513797 -119.34155262 48.53236628 -106.22216797 38.66479492 C-102.20107567 36.09380414 -98.12886255 34.5969933 -93.53857422 33.35229492 C-88.34270746 31.81547585 -83.82389191 29.59361459 -79.09716797 26.97729492 C-77.44566227 26.08381704 -75.79330272 25.19191582 -74.14013672 24.30151367 C-72.91109619 23.63708252 -72.91109619 23.63708252 -71.65722656 22.95922852 C-67.31587561 20.651444 -62.89950432 18.49389611 -58.47363281 16.35351562 C-55.47870559 14.88396745 -52.74361483 13.33806262 -49.98388672 11.45385742 C-46.7774335 9.37669254 -44.9685097 9.30800047 -41.22216797 9.66479492 C-40.23216797 11.64479492 -39.24216797 13.62479492 -38.22216797 15.66479492 C-32.18691277 15.04501282 -26.91075106 12.7526291 -21.34716797 10.47729492 C-20.39197266 10.10282227 -19.43677734 9.72834961 -18.45263672 9.3425293 C-12.92429602 7.09403408 -8.46207486 4.66824004 -3.97167969 0.71044922 C-2.22216797 -0.33520508 -2.22216797 -0.33520508 0 0 Z " fill="#FFB1FE" transform="translate(163.22216796875,42.335205078125)"/>
<path d="M0 0 C0.58668457 0.21938232 1.17336914 0.43876465 1.77783203 0.66479492 C1.23815052 4.45917106 -0.19368616 5.7799258 -3.15966797 8.10229492 C-6.29391601 10.703889 -8.23083179 12.57553319 -9.22216797 16.66479492 C-4.61828897 15.40254815 -1.98018234 13.80396643 1.46533203 10.53979492 C6.23301291 6.53291419 9.49523092 5.88179036 15.62548828 6.28588867 C17.77783203 6.66479492 17.77783203 6.66479492 18.77783203 7.66479492 C24.53895297 8.33349646 29.30833766 7.40147528 34.69189453 5.39916992 C37.34590107 4.46480058 39.99270712 4.02186222 42.77783203 3.66479492 C42.46478383 6.58657812 41.95816313 7.51628696 39.65283203 9.41479492 C38.70408203 10.15729492 37.75533203 10.89979492 36.77783203 11.66479492 C34.97240646 13.65601373 33.24181086 15.69543471 31.52392578 17.76245117 C29.77783203 19.66479492 29.77783203 19.66479492 27.56298828 21.16088867 C26.97388672 21.65717773 26.38478516 22.1534668 25.77783203 22.66479492 C25.77783203 23.98479492 25.77783203 25.30479492 25.77783203 26.66479492 C28.73958326 26.05201881 30.15841986 25.4110697 32.77783203 23.66479492 C33.76783203 23.66479492 34.75783203 23.66479492 35.77783203 23.66479492 C35.6632451 25.10316243 35.53574087 26.54050458 35.40283203 27.97729492 C35.33322266 28.77780273 35.26361328 29.57831055 35.19189453 30.40307617 C34.77783203 32.66479492 34.77783203 32.66479492 32.77783203 35.66479492 C32.61069634 38.29011016 32.61069634 38.29011016 32.77783203 40.66479492 C33.76783203 40.99479492 34.75783203 41.32479492 35.77783203 41.66479492 C36.32875616 48.27588452 35.73917604 53.21925342 31.77783203 58.66479492 C29.49933348 60.99995241 27.14407127 63.23558097 24.77392578 65.47729492 C22.04373613 68.46928358 21.36662768 70.71145268 20.77783203 74.66479492 C22.09783203 74.66479492 23.41783203 74.66479492 24.77783203 74.66479492 C24.31705188 78.25888008 23.52542448 81.46858077 22.27783203 84.85229492 C21.10944791 88.20259235 20.58978148 91.13515854 20.41455078 94.67260742 C19.87934669 101.2127138 18.11301361 107.13358489 16.09033203 113.35229492 C15.60016602 114.96587891 15.60016602 114.96587891 15.10009766 116.61206055 C11.69026666 127.25881774 5.65600617 135.22143037 -3.10644531 142.15600586 C-8.87793411 146.75644702 -12.06041539 151.87628308 -15.47216797 158.35229492 C-16.47135989 160.21361012 -17.47637814 162.07181186 -18.48779297 163.92651367 C-18.91866211 164.74079834 -19.34953125 165.55508301 -19.79345703 166.39404297 C-22.0886091 170.04189146 -24.1009433 172.29105337 -28.22216797 173.66479492 C-34.68310843 174.10168556 -41.00144502 174.36267921 -47.15966797 172.16479492 C-54.10822788 169.76438332 -62.64854152 169.11601522 -69.67919922 171.49682617 C-70.9633014 172.17306933 -72.22878445 172.88642742 -73.46826172 173.64135742 C-78.5174218 176.58763791 -85.52365255 177.77502293 -91.22216797 176.66479492 C-100.67922386 173.07366965 -109.43802078 167.96170181 -113.95263672 158.61791992 C-114.78624529 156.72323414 -115.60471567 154.8218317 -116.40966797 152.91479492 C-121.18637956 142.23648061 -127.03979252 132.89324062 -133.97631836 123.49804688 C-137.93040283 117.67966156 -138.18724078 112.57994069 -137.22216797 105.66479492 C-136.04992148 101.71832239 -134.51906391 97.91450678 -132.99829102 94.09179688 C-130.82002396 88.54457896 -129.26393938 83.13051533 -128.09716797 77.28979492 C-124.88179268 61.53513797 -119.34155262 48.53236628 -106.22216797 38.66479492 C-102.20107567 36.09380414 -98.12886255 34.5969933 -93.53857422 33.35229492 C-88.34270746 31.81547585 -83.82389191 29.59361459 -79.09716797 26.97729492 C-77.44566227 26.08381704 -75.79330272 25.19191582 -74.14013672 24.30151367 C-72.91109619 23.63708252 -72.91109619 23.63708252 -71.65722656 22.95922852 C-67.31587561 20.651444 -62.89950432 18.49389611 -58.47363281 16.35351562 C-55.47870559 14.88396745 -52.74361483 13.33806262 -49.98388672 11.45385742 C-46.7774335 9.37669254 -44.9685097 9.30800047 -41.22216797 9.66479492 C-40.23216797 11.64479492 -39.24216797 13.62479492 -38.22216797 15.66479492 C-32.18691277 15.04501282 -26.91075106 12.7526291 -21.34716797 10.47729492 C-20.39197266 10.10282227 -19.43677734 9.72834961 -18.45263672 9.3425293 C-12.92429602 7.09403408 -8.46207486 4.66824004 -3.97167969 0.71044922 C-2.22216797 -0.33520508 -2.22216797 -0.33520508 0 0 Z M-61.40966797 40.10229492 C-66.62324798 41.84576998 -71.20162318 42.78612558 -76.72216797 42.66479492 C-92.9036885 42.57057789 -92.9036885 42.57057789 -106.76904297 49.94995117 C-113.15375044 57.01582966 -116.40055837 65.42979768 -119.87890625 74.17114258 C-120.7132432 76.26737188 -121.55842942 78.35894577 -122.40576172 80.44995117 C-131.21332946 98.64756391 -131.21332946 98.64756391 -132.22216797 117.66479492 C-129.51666054 122.68969045 -126.00820479 127.20229405 -122.60253906 131.76489258 C-118.22303794 137.79270965 -114.79739089 144.39105392 -111.65722656 151.12744141 C-108.48033329 157.86256182 -105.43892401 162.5202909 -99.22216797 166.66479492 C-98.49900391 167.1675293 -97.77583984 167.67026367 -97.03076172 168.18823242 C-91.75709517 171.50834945 -87.39314473 172.9756816 -81.22216797 171.66479492 C-78.5945509 170.70299838 -76.00306588 169.71023094 -73.40966797 168.66479492 C-62.67346033 164.3630821 -54.8472227 164.77967057 -43.97607422 168.76245117 C-38.7923161 170.46095915 -34.86704437 170.14691387 -29.59716797 168.60229492 C-23.51976921 165.11341786 -20.7548946 160.86852586 -17.765625 154.57421875 C-13.79339694 146.31616568 -8.80695659 140.8167488 -1.76953125 134.94018555 C4.65723394 129.44606438 6.83464673 124.0342093 7.77783203 115.66479492 C8.61495439 104.94115148 8.59545017 97.46027151 1.77783203 88.66479492 C-3.24706286 81.61645242 -6.53439481 74.84738892 -9.00537109 66.59033203 C-10.92799539 60.47720914 -13.57324988 57.05776047 -19.39404297 53.99682617 C-20.57482422 53.49538086 -21.75560547 52.99393555 -22.97216797 52.47729492 C-29.77806618 49.51328495 -36.0291289 45.93838639 -42.23486328 41.86523438 C-48.71311624 37.8167188 -54.07158866 37.60040491 -61.40966797 40.10229492 Z " fill="#FCFBDC" transform="translate(163.22216796875,42.335205078125)"/>
<path d="M0 0 C3.44628468 2.78720259 5.68541289 5.23780067 6.48046875 9.69140625 C6.68008566 16.67799827 5.4184756 21.24562501 0.75 26.5625 C-2.36099594 29.31997367 -5.57342408 31.64842829 -9 34 C-7.49961812 37.81915388 -5.16734582 39.49946383 -2 42 C-2 42.66 -2 43.32 -2 44 C-7.20407599 44.40031354 -10.84566379 43.83267301 -15.75 42 C-26.2083523 38.33892059 -34.05760984 39.43090402 -44.08984375 43.90625 C-46.9772809 44.99146128 -48.95138046 45.22457602 -52 45 C-46.29520443 37.50165128 -40.41143743 33.09145086 -31.078125 31.26171875 C-29 31 -29 31 -25 31 C-25.433125 30.26136719 -25.86625 29.52273437 -26.3125 28.76171875 C-30.10591211 21.85103511 -32.78887584 15.93433365 -31 8 C-29.18315443 3.88998231 -26.88352415 1.06194886 -22.94921875 -1.15625 C-15.49669799 -4.01547644 -6.73123768 -4.74246291 0 0 Z " fill="#FD85FE" transform="translate(132,168)"/>
<path d="M0 0 C4.26638379 3.8032273 7.85421084 7.97735835 9.00390625 13.6953125 C9.349869 20.10120344 7.42875864 26.27251425 3.13671875 31.10546875 C-1.95501621 35.59198457 -6.53748444 36.92612168 -13.1640625 36.75 C-19.35789893 36.06889084 -23.52158434 33.17734371 -27.4375 28.5 C-31.51350558 22.87792334 -31.45261405 16.15914816 -30.4375 9.5 C-28.1640625 4.76183253 -24.80098009 1.38122922 -20.4375 -1.5 C-13.93215103 -3.77149582 -5.74241787 -4.03609941 0 0 Z " fill="#C84AFF" transform="translate(128.4375,98.5)"/>
<path d="M0 0 C0.88002686 0.32907349 0.88002686 0.32907349 1.77783203 0.66479492 C1.23815052 4.45917106 -0.19368616 5.7799258 -3.15966797 8.10229492 C-6.29391601 10.703889 -8.23083179 12.57553319 -9.22216797 16.66479492 C-4.61828897 15.40254815 -1.98018234 13.80396643 1.46533203 10.53979492 C6.23301291 6.53291419 9.49523092 5.88179036 15.62548828 6.28588867 C17.77783203 6.66479492 17.77783203 6.66479492 18.77783203 7.66479492 C24.53895297 8.33349646 29.30833766 7.40147528 34.69189453 5.39916992 C37.34590107 4.46480058 39.99270712 4.02186222 42.77783203 3.66479492 C42.46478383 6.58657812 41.95816313 7.51628696 39.65283203 9.41479492 C38.70408203 10.15729492 37.75533203 10.89979492 36.77783203 11.66479492 C34.97240646 13.65601373 33.24181086 15.69543471 31.52392578 17.76245117 C29.77783203 19.66479492 29.77783203 19.66479492 27.56298828 21.16088867 C26.97388672 21.65717773 26.38478516 22.1534668 25.77783203 22.66479492 C25.77783203 23.98479492 25.77783203 25.30479492 25.77783203 26.66479492 C28.73958326 26.05201881 30.15841986 25.4110697 32.77783203 23.66479492 C33.76783203 23.66479492 34.75783203 23.66479492 35.77783203 23.66479492 C35.6632451 25.10316243 35.53574087 26.54050458 35.40283203 27.97729492 C35.33322266 28.77780273 35.26361328 29.57831055 35.19189453 30.40307617 C34.77783203 32.66479492 34.77783203 32.66479492 32.77783203 35.66479492 C32.61069634 38.29011016 32.61069634 38.29011016 32.77783203 40.66479492 C34.26283203 41.15979492 34.26283203 41.15979492 35.77783203 41.66479492 C36.32875616 48.27588452 35.73917604 53.21925342 31.77783203 58.66479492 C29.49933348 60.99995241 27.14407127 63.23558097 24.77392578 65.47729492 C22.04373613 68.46928358 21.36662768 70.71145268 20.77783203 74.66479492 C22.09783203 74.66479492 23.41783203 74.66479492 24.77783203 74.66479492 C24.27984833 78.3996727 23.90291447 80.47717127 21.77783203 83.66479492 C19.56598045 76.19979585 17.82600572 69.51077995 21.49658203 62.27807617 C23.46475121 58.98970417 25.6345713 55.84095239 27.77783203 52.66479492 C30.23272326 48.93755153 29.82073761 46.04816008 29.40283203 41.66479492 C29.06532611 37.96007881 28.77783203 34.38770623 28.77783203 30.66479492 C27.35470703 30.26260742 27.35470703 30.26260742 25.90283203 29.85229492 C22.77783203 28.66479492 22.77783203 28.66479492 20.77783203 25.66479492 C20.38395416 23.34091546 20.04297118 21.00685743 19.77783203 18.66479492 C11.93072564 16.11755038 11.93072564 16.11755038 3.77783203 15.66479492 C2.03869702 16.6724036 2.03869702 16.6724036 0.59033203 18.10229492 C-2.22216797 20.66479492 -2.22216797 20.66479492 -5.28466797 21.35229492 C-9.53392558 20.35778782 -10.88175646 18.24424782 -13.22216797 14.66479492 C-13.22216797 13.34479492 -13.22216797 12.02479492 -13.22216797 10.66479492 C-14.33076172 11.08631836 -15.43935547 11.5078418 -16.58154297 11.94213867 C-18.04504045 12.49564093 -19.50858457 13.04901988 -20.97216797 13.60229492 C-21.70177734 13.88008789 -22.43138672 14.15788086 -23.18310547 14.4440918 C-24.24658203 14.8453125 -24.24658203 14.8453125 -25.33154297 15.25463867 C-25.9809082 15.50076904 -26.63027344 15.74689941 -27.29931641 16.00048828 C-31.5691208 17.47562004 -35.38906551 17.8062451 -39.90966797 17.97729492 C-46.70202022 18.30788489 -53.03144511 19.6008238 -59.58618164 21.38085938 C-63.22660782 22.34105261 -65.62928416 22.77006969 -69.22216797 21.66479492 C-67.59408203 20.8681543 -67.59408203 20.8681543 -65.93310547 20.05541992 C-64.48768558 19.34209582 -63.04237908 18.62854192 -61.59716797 17.91479492 C-60.88431641 17.56674805 -60.17146484 17.21870117 -59.43701172 16.86010742 C-56.11179285 15.21275129 -52.95065275 13.54812193 -49.90966797 11.41479492 C-46.75152569 9.35833018 -44.91852305 9.3127611 -41.22216797 9.66479492 C-40.23216797 11.64479492 -39.24216797 13.62479492 -38.22216797 15.66479492 C-32.18691277 15.04501282 -26.91075106 12.7526291 -21.34716797 10.47729492 C-20.39197266 10.10282227 -19.43677734 9.72834961 -18.45263672 9.3425293 C-12.92429602 7.09403408 -8.46207486 4.66824004 -3.97167969 0.71044922 C-2.22216797 -0.33520508 -2.22216797 -0.33520508 0 0 Z " fill="#F6C3F6" transform="translate(163.22216796875,42.335205078125)"/>
<path d="M0 0 C1.89453125 0.83984375 1.89453125 0.83984375 3.64453125 4.27734375 C6.5582121 13.16168208 4.96583021 21.58440994 1.08203125 29.90234375 C-3.22813641 38.12506212 -9.31172446 43.19045995 -18.0703125 46.3125 C-21.17130177 47.11601929 -23.91752106 47.03909048 -27.10546875 46.83984375 C-26.23523379 40.24638015 -23.71373447 34.46814334 -21.17773438 28.3815918 C-20.36103831 26.41575005 -19.56087013 24.44373111 -18.76171875 22.47070312 C-9.25084701 -0.70368224 -9.25084701 -0.70368224 0 0 Z " fill="#C84DFE" transform="translate(64.10546875,89.16015625)"/>
<path d="M0 0 C5.23235436 4.23041417 8.37040281 9.14708046 9.45703125 15.796875 C9.89868954 23.72618191 7.94625799 29.76691067 3 36 C-4.19745148 42.21820638 -10.79363821 43.62956501 -20.1875 43.41015625 C-27.16762927 42.65922021 -31.41358479 38.9855901 -35.9375 33.875 C-41.10443025 26.67261238 -40.81068495 19.57619337 -40 11 C-37.90178389 4.54920534 -32.38679031 -0.13393379 -27 -4 C-17.23940182 -8.88029909 -8.5111154 -5.77048115 0 0 Z M-30.375 3.5625 C-34.99064995 9.30120916 -34.48294619 14.79971128 -34 22 C-31.96201974 28.00667868 -28.25531014 31.74223088 -22.75 34.8125 C-16.72144241 36.72154324 -11.59933882 37.00775325 -5.75 34.375 C-0.90711161 31.6351986 1.94125686 28.26873531 4.3125 23.1875 C5.62350335 17.10921173 6.07410215 12.19529986 2.8125 6.6875 C-0.15709014 2.45604437 -3.73123906 -0.15415937 -8 -3 C-16.98398182 -4.01135468 -24.186705 -3.44311698 -30.375 3.5625 Z " fill="#FD84FF" transform="translate(132,99)"/>
<path d="M0 0 C4.324855 2.20322802 7.60172751 4.75690252 10 9 C10.87572913 14.87427291 10.52568339 20.06404325 7 25 C3.21373938 28.68917701 0.05851024 29.31126498 -5.0625 29.5 C-8.79998691 29.36123192 -10.72511987 29.14585476 -14.0625 27.375 C-18.04180139 22.49714669 -19.5894525 18.43094523 -19.34765625 12.17578125 C-18.58118706 7.37888982 -15.82504268 4.72910749 -12.3125 1.625 C-8.0333271 -0.47421689 -4.68209654 -0.83218592 0 0 Z " fill="#C84BFF" transform="translate(125,166)"/>
<path d="M0 0 C1.8125 0.125 1.8125 0.125 4 1 C9.08199839 9.28177516 9.00629307 19.55949626 8 29 C5.45278218 38.93634538 0.59508775 45.95609927 -8.0625 51.3125 C-13.83481787 54.64092974 -18.06599239 56.26129308 -24.8125 56.125 C-25.97394531 56.10695312 -27.13539062 56.08890625 -28.33203125 56.0703125 C-29.21246094 56.04710937 -30.09289063 56.02390625 -31 56 C-30.31911019 53.08014819 -29.41898766 50.64877696 -28 48 C-27.05125 48.0825 -26.1025 48.165 -25.125 48.25 C-18.85580118 48.23728357 -12.64019604 45.51558075 -7.6875 41.75 C0.26263721 33.61497588 3.30221969 24.78041428 3.234375 13.53515625 C2.87623718 9.66129878 1.50521495 6.5748855 0 3 C0 2.01 0 1.02 0 0 Z " fill="#FD84FE" transform="translate(65,87)"/>
<path d="M0 0 C0.88002686 0.32907349 0.88002686 0.32907349 1.77783203 0.66479492 C1.23815052 4.45917106 -0.19368616 5.7799258 -3.15966797 8.10229492 C-6.29391601 10.703889 -8.23083179 12.57553319 -9.22216797 16.66479492 C-10.21216797 16.66479492 -11.20216797 16.66479492 -12.22216797 16.66479492 C-12.71716797 13.69479492 -12.71716797 13.69479492 -13.22216797 10.66479492 C-14.33076172 11.08631836 -15.43935547 11.5078418 -16.58154297 11.94213867 C-18.04504045 12.49564093 -19.50858457 13.04901988 -20.97216797 13.60229492 C-21.70177734 13.88008789 -22.43138672 14.15788086 -23.18310547 14.4440918 C-24.24658203 14.8453125 -24.24658203 14.8453125 -25.33154297 15.25463867 C-25.9809082 15.50076904 -26.63027344 15.74689941 -27.29931641 16.00048828 C-31.5691208 17.47562004 -35.38906551 17.8062451 -39.90966797 17.97729492 C-46.70202022 18.30788489 -53.03144511 19.6008238 -59.58618164 21.38085938 C-63.22660782 22.34105261 -65.62928416 22.77006969 -69.22216797 21.66479492 C-67.59408203 20.8681543 -67.59408203 20.8681543 -65.93310547 20.05541992 C-64.48768558 19.34209582 -63.04237908 18.62854192 -61.59716797 17.91479492 C-60.88431641 17.56674805 -60.17146484 17.21870117 -59.43701172 16.86010742 C-56.11179285 15.21275129 -52.95065275 13.54812193 -49.90966797 11.41479492 C-46.75152569 9.35833018 -44.91852305 9.3127611 -41.22216797 9.66479492 C-40.23216797 11.64479492 -39.24216797 13.62479492 -38.22216797 15.66479492 C-32.18691277 15.04501282 -26.91075106 12.7526291 -21.34716797 10.47729492 C-20.39197266 10.10282227 -19.43677734 9.72834961 -18.45263672 9.3425293 C-12.92429602 7.09403408 -8.46207486 4.66824004 -3.97167969 0.71044922 C-2.22216797 -0.33520508 -2.22216797 -0.33520508 0 0 Z " fill="#EEBDEE" transform="translate(163.22216796875,42.335205078125)"/>
<path d="M0 0 C3 2.125 3 2.125 5 5 C5.125 8.0625 5.125 8.0625 4 11 C1.548247 13.5879615 -0.05333931 14.81528572 -3.5625 15.5 C-6.96311101 14.80243877 -8.05445623 13.88228706 -10 11 C-10.63857688 7.47363655 -10.65841319 4.23936601 -8.9375 1 C-5.76942356 -0.63513623 -3.49884179 -0.48259887 0 0 Z " fill="#CA4CFF" transform="translate(75,160)"/>
<path d="M0 0 C3.06583403 1.72732021 5.40227558 3.80455115 7 7 C7.59873168 12.26883876 6.25400021 14.8846468 3 19 C-0.45739557 20.72869779 -4.21975568 20.48966895 -8 20 C-10.87029869 18.20606332 -12.49131638 17.01736724 -14 14 C-14.58094684 9.23623589 -14.98189835 5.3303139 -12.0625 1.375 C-7.91255915 -0.48823875 -4.47174478 -0.93521552 0 0 Z M-9.9375 3 C-11.66160604 6.24537607 -11.62413468 9.46796513 -11 13 C-9.62283334 15.71107713 -9.62283334 15.71107713 -7 17 C-2.72434594 17.07635097 -0.73583334 16.64385417 2.5 13.8125 C4.24509804 11.07169118 4.24509804 11.07169118 4 7.875 C3.19640943 4.9928022 3.19640943 4.9928022 1.375 3.125 C-2.41513471 1.32967303 -6.14838286 1.04432664 -9.9375 3 Z " fill="#FC84FF" transform="translate(76,158)"/>
<path d="M0 0 C9.04635992 2.9267635 13.75471903 9.86028772 18 18 C19.18513635 22.38766774 19.07651379 26.4856863 19 31 C16.89617755 28.28717631 15.08920254 25.53478687 13.375 22.5625 C10.16096774 17.11402718 6.54622503 12.0140147 2.85546875 6.8828125 C1.27787276 4.43172652 0.41800962 2.83698332 0 0 Z " fill="#FF8AFE" transform="translate(32,159)"/>
<path d="M0 0 C1.32 2.64 2.64 5.28 4 8 C2.98421875 8.10957031 1.9684375 8.21914063 0.921875 8.33203125 C-6.76807834 9.2046966 -14.09545849 10.31584042 -21.546875 12.51171875 C-24.15434723 13.03072198 -25.49244015 12.72037646 -28 12 C-26.37191406 11.20335937 -26.37191406 11.20335937 -24.7109375 10.390625 C-23.26551761 9.6773009 -21.82021111 8.96374699 -20.375 8.25 C-19.66214844 7.90195312 -18.94929688 7.55390625 -18.21484375 7.1953125 C-14.88962488 5.54795636 -11.72848478 3.88332701 -8.6875 1.75 C-5.52935772 -0.30646474 -3.69635508 -0.35203382 0 0 Z " fill="#F8C6F7" transform="translate(122,52)"/>
<path d="M0 0 C-1.57112452 4.2360699 -4.78502845 6.5470224 -8.125 9.375 C-14.93836919 15.35028038 -19.04466895 21.92204294 -23 30 C-23.33 30 -23.66 30 -24 30 C-23.71642919 21.20930504 -20.91400109 15.05845456 -14.77734375 8.6953125 C-5.23798077 0 -5.23798077 0 0 0 Z " fill="#FF8BFD" transform="translate(166,171)"/>
<path d="M0 0 C1.36421031 2.72842061 0.87807211 4.60953318 0.5625 7.625 C0.46066406 8.62789062 0.35882813 9.63078125 0.25390625 10.6640625 C0.17011719 11.43492187 0.08632812 12.20578125 0 13 C-1.32 13 -2.64 13 -4 13 C-3.50269348 8.02693484 -2.44697666 4.36200187 0 0 Z " fill="#F4C6F1" transform="translate(183,130)"/>
<path d="M0 0 C2.125 0.375 2.125 0.375 4 1 C4.5625 2.9375 4.5625 2.9375 5 5 C4 6 4 6 1.4375 6.0625 C0.2309375 6.0315625 0.2309375 6.0315625 -1 6 C-1.625 4.125 -1.625 4.125 -2 2 C-1.34 1.34 -0.68 0.68 0 0 Z " fill="#D5D6D8" transform="translate(212,167)"/>
<path d="M0 0 C1.67542976 0.28604898 3.34385343 0.61781233 5 1 C4.67 2.65 4.34 4.3 4 6 C2.68 6 1.36 6 0 6 C-0.38218767 4.34385343 -0.71395102 2.67542976 -1 1 C-0.67 0.67 -0.34 0.34 0 0 Z " fill="#DCDDDE" transform="translate(148,24)"/>
<path d="M0 0 C0.66 0.33 1.32 0.66 2 1 C0.17251097 3.46313739 -1.22976216 4.83428618 -4.26953125 5.48828125 C-6.51479346 5.72518293 -8.74455578 5.90361349 -11 6 C-8.66460191 4.44306794 -6.42031244 3.09799354 -3.9375 1.8125 C-2.89916016 1.26529297 -2.89916016 1.26529297 -1.83984375 0.70703125 C-1.23269531 0.47371094 -0.62554687 0.24039063 0 0 Z " fill="#E3B8E3" transform="translate(105,59)"/>
<path d="M0 0 C-1 3 -1 3 -3 4 C-5.6723621 4.13415472 -8.32250488 4.04318541 -11 4 C-7.61125486 1.74083657 -4.15175481 0 0 0 Z " fill="#DBAFDE" transform="translate(146,52)"/>
</svg>
