<?xml version="1.0" encoding="UTF-8"?>
<svg xmlns="http://www.w3.org/2000/svg" xmlns:xlink="http://www.w3.org/1999/xlink" width="250px" height="250px" viewBox="0 0 250 250" version="1.1">
<g id="surface1">
<path style=" stroke:none;fill-rule:nonzero;fill:rgb(10.196079%,12.941177%,16.078432%);fill-opacity:1;" d="M 138.476562 2.929688 C 138.695312 2.953125 138.695312 2.953125 138.917969 2.980469 C 154.003906 4.710938 168.527344 9.253906 187.78125 19.421875 C 188.25 19.707031 188.722656 19.988281 189.199219 20.269531 C 193.90625 23.078125 198.371094 26.304688 202.589844 29.796875 C 203.078125 30.199219 203.574219 30.597656 204.066406 30.992188 C 204.980469 31.742188 205.855469 32.53125 206.726562 33.332031 C 207.160156 33.726562 207.597656 34.113281 208.042969 34.496094 C 208.714844 35.078125 209.335938 35.699219 209.960938 36.332031 C 210.34375 36.710938 210.738281 37.0625 211.144531 37.414062 C 212.289062 38.402344 213.308594 39.472656 214.292969 40.617188 C 214.660156 41.027344 215.039062 41.414062 215.429688 41.796875 C 216.1875 42.546875 216.886719 43.332031 217.578125 44.140625 C 217.753906 44.34375 217.933594 44.546875 218.109375 44.75 C 219.375 46.210938 220.601562 47.695312 221.777344 49.226562 C 221.976562 49.488281 222.179688 49.746094 222.378906 50.007812 C 225.878906 54.496094 229.054688 59.296875 231.835938 64.257812 C 231.933594 64.429688 232.027344 64.597656 232.125 64.773438 C 240.410156 79.519531 245.53125 95.65625 247.3125 112.476562 C 247.332031 112.628906 247.347656 112.78125 247.363281 112.941406 C 247.777344 116.90625 247.898438 120.839844 247.898438 124.828125 C 247.902344 125.210938 247.902344 125.210938 247.902344 125.601562 C 247.898438 129.917969 247.753906 134.1875 247.265625 138.476562 C 247.25 138.621094 247.234375 138.769531 247.214844 138.917969 C 245.476562 154.039062 240.917969 168.597656 230.777344 187.773438 C 230.488281 188.246094 230.207031 188.722656 229.925781 189.199219 C 227.117188 193.90625 223.890625 198.371094 220.398438 202.589844 C 219.996094 203.078125 219.597656 203.574219 219.203125 204.066406 C 218.453125 204.980469 217.664062 205.855469 216.863281 206.726562 C 216.46875 207.160156 216.082031 207.597656 215.699219 208.042969 C 215.117188 208.714844 214.496094 209.335938 213.863281 209.960938 C 213.484375 210.34375 213.132812 210.738281 212.78125 211.144531 C 211.792969 212.289062 210.722656 213.308594 209.578125 214.292969 C 209.167969 214.660156 208.78125 215.039062 208.398438 215.429688 C 207.648438 216.1875 206.863281 216.886719 206.054688 217.578125 C 205.851562 217.753906 205.648438 217.933594 205.445312 218.109375 C 203.984375 219.375 202.5 220.601562 200.96875 221.777344 C 200.707031 221.976562 200.449219 222.179688 200.1875 222.378906 C 195.699219 225.878906 190.898438 229.054688 185.9375 231.835938 C 185.765625 231.933594 185.597656 232.027344 185.421875 232.125 C 179.128906 235.660156 172.628906 238.617188 165.820312 241.015625 C 165.503906 241.128906 165.503906 241.128906 165.179688 241.242188 C 156.289062 244.363281 147.085938 246.324219 137.71875 247.3125 C 137.488281 247.339844 137.488281 247.339844 137.253906 247.363281 C 120.164062 249.152344 102.890625 247.074219 71.679688 235.742188 C 71.363281 235.589844 71.363281 235.589844 71.042969 235.4375 C 67.910156 233.925781 64.894531 232.261719 61.914062 230.46875 C 61.605469 230.285156 61.296875 230.105469 60.992188 229.921875 C 56.285156 227.113281 51.824219 223.890625 47.605469 220.398438 C 47.117188 219.996094 46.621094 219.597656 46.128906 219.203125 C 45.214844 218.453125 44.339844 217.664062 43.46875 216.863281 C 43.035156 216.46875 42.597656 216.082031 42.152344 215.699219 C 41.480469 215.117188 40.859375 214.496094 40.234375 213.863281 C 39.851562 213.484375 39.457031 213.132812 39.050781 212.78125 C 37.90625 211.792969 36.886719 210.722656 35.902344 209.578125 C 35.535156 209.167969 35.15625 208.78125 34.765625 208.398438 C 34.007812 207.648438 33.308594 206.863281 32.617188 206.054688 C 32.441406 205.851562 32.261719 205.648438 32.085938 205.445312 C 30.820312 203.984375 29.59375 202.5 28.417969 200.96875 C 28.21875 200.707031 28.015625 200.449219 27.816406 200.1875 C 24.316406 195.699219 21.140625 190.898438 18.359375 185.9375 C 18.261719 185.765625 18.167969 185.597656 18.070312 185.421875 C 14.535156 179.128906 11.578125 172.628906 9.179688 165.820312 C 9.105469 165.609375 9.03125 165.398438 8.953125 165.179688 C 3.144531 148.640625 0.929688 130.527344 14.152344 72.304688 C 14.300781 71.996094 14.300781 71.996094 14.453125 71.679688 C 14.554688 71.46875 14.65625 71.257812 14.757812 71.042969 C 16.269531 67.910156 17.933594 64.894531 19.726562 61.914062 C 19.910156 61.605469 20.089844 61.296875 20.273438 60.992188 C 23.082031 56.285156 26.304688 51.824219 29.796875 47.605469 C 30.199219 47.117188 30.597656 46.621094 30.992188 46.128906 C 31.742188 45.214844 32.53125 44.339844 33.332031 43.46875 C 33.726562 43.035156 34.113281 42.597656 34.496094 42.152344 C 35.078125 41.480469 35.699219 40.859375 36.332031 40.234375 C 36.710938 39.851562 37.0625 39.457031 37.414062 39.050781 C 38.402344 37.90625 39.472656 36.886719 40.617188 35.902344 C 41.027344 35.535156 41.414062 35.15625 41.796875 34.765625 C 42.546875 34.007812 43.332031 33.308594 44.140625 32.617188 C 44.34375 32.441406 44.546875 32.261719 44.75 32.085938 C 46.210938 30.820312 47.695312 29.59375 49.226562 28.417969 C 49.488281 28.21875 49.746094 28.015625 50.007812 27.816406 C 54.496094 24.316406 59.296875 21.140625 64.257812 18.359375 C 64.429688 18.261719 64.597656 18.167969 64.773438 18.070312 C 71.066406 14.535156 77.566406 11.578125 84.375 9.179688 C 84.691406 9.066406 84.691406 9.066406 85.015625 8.953125 C 101.59375 3.128906 119.691406 0.960938 138.476562 2.929688 Z M 138.476562 2.929688 "/>
<path style=" stroke:none;fill-rule:nonzero;fill:rgb(67.843139%,68.627453%,71.372551%);fill-opacity:1;" d="M 163.671875 42.1875 C 164.34375 42.777344 164.609375 43.136719 164.757812 44.019531 C 164.402344 46.316406 162.683594 47.515625 160.96875 48.894531 C 160.101562 49.613281 159.289062 50.394531 158.46875 51.167969 C 157.84375 51.753906 157.21875 52.335938 156.566406 52.894531 C 154.960938 54.179688 154.960938 54.179688 153.90625 55.859375 C 153.835938 56.949219 153.855469 57.660156 154.492188 58.59375 C 155.132812 59.175781 155.664062 59.433594 156.519531 59.496094 C 157.617188 59.433594 158.1875 58.914062 158.984375 58.203125 C 159.195312 58.023438 159.410156 57.84375 159.621094 57.664062 C 160.675781 56.777344 161.710938 55.871094 162.730469 54.945312 C 163.5625 54.191406 164.417969 53.484375 165.292969 52.785156 C 165.800781 52.359375 166.265625 51.914062 166.734375 51.453125 C 167.542969 50.71875 168.378906 50.207031 169.347656 49.71875 C 169.539062 49.621094 169.539062 49.621094 169.730469 49.523438 C 173.027344 47.941406 177.097656 48.335938 180.472656 49.46875 C 181.195312 49.730469 181.886719 50.039062 182.574219 50.378906 C 186.929688 52.472656 192.554688 50.367188 196.773438 48.925781 C 198.855469 48.183594 201.003906 47.324219 202.878906 46.148438 C 203.597656 45.738281 204.0625 45.808594 204.882812 45.898438 C 205.527344 46.3125 205.640625 46.605469 205.859375 47.339844 C 205.859375 48.3125 205.433594 48.847656 204.78125 49.523438 C 204.4375 49.851562 204.089844 50.171875 203.734375 50.488281 C 202.699219 51.4375 201.679688 52.398438 200.683594 53.394531 C 200.523438 53.554688 200.523438 53.554688 200.359375 53.714844 C 199.8125 54.265625 199.289062 54.828125 198.785156 55.414062 C 198.074219 56.230469 197.324219 57 196.558594 57.765625 C 196.421875 57.902344 196.285156 58.039062 196.140625 58.179688 C 195.851562 58.46875 195.566406 58.757812 195.277344 59.046875 C 194.835938 59.484375 194.398438 59.921875 193.964844 60.359375 C 193.679688 60.640625 193.398438 60.925781 193.117188 61.207031 C 192.921875 61.398438 192.921875 61.398438 192.726562 61.597656 C 191.863281 62.457031 190.964844 63.269531 190.039062 64.0625 C 189.6875 64.367188 189.339844 64.671875 188.988281 64.976562 C 188.828125 65.121094 188.664062 65.261719 188.496094 65.40625 C 187.847656 66.0625 187.707031 66.449219 187.632812 67.371094 C 187.65625 68.109375 187.789062 68.566406 188.28125 69.140625 C 189.09375 69.703125 189.796875 69.796875 190.753906 69.824219 C 191.414062 69.683594 191.835938 69.339844 192.382812 68.945312 C 192.488281 68.867188 192.597656 68.789062 192.707031 68.710938 C 192.929688 68.546875 193.15625 68.386719 193.378906 68.222656 C 196.667969 65.824219 196.667969 65.824219 198.4375 66.015625 C 198.84375 66.308594 198.996094 66.511719 199.144531 66.988281 C 199.363281 68.984375 198.867188 70.847656 198.046875 72.65625 C 197.960938 72.984375 197.878906 73.3125 197.796875 73.640625 C 197.488281 74.804688 197.011719 75.832031 196.472656 76.90625 C 195.484375 78.878906 194.679688 80.601562 195.410156 82.8125 C 195.503906 83.074219 195.601562 83.335938 195.703125 83.59375 C 195.816406 83.601562 195.929688 83.609375 196.046875 83.617188 C 197.023438 83.699219 197.796875 83.816406 198.632812 84.375 C 199.597656 85.671875 199.523438 87.113281 199.414062 88.671875 C 198.402344 95.519531 195.574219 101.089844 190.191406 105.417969 C 188.230469 107.007812 186.785156 108.53125 185.546875 110.742188 C 185.445312 110.925781 185.339844 111.109375 185.234375 111.296875 C 184.257812 113.234375 183.925781 115.300781 184.570312 117.382812 C 184.820312 117.253906 184.820312 117.253906 185.078125 117.121094 C 185.414062 116.953125 185.414062 116.953125 185.753906 116.785156 C 185.972656 116.671875 186.195312 116.5625 186.421875 116.449219 C 187.210938 116.175781 187.675781 116.199219 188.476562 116.40625 C 188.953125 117.359375 188.515625 118.722656 188.199219 119.6875 C 188.078125 120.019531 187.953125 120.347656 187.828125 120.679688 C 187.761719 120.859375 187.695312 121.042969 187.625 121.230469 C 187.226562 122.296875 186.789062 123.339844 186.316406 124.378906 C 184.96875 127.34375 184.144531 129.972656 183.789062 133.203125 C 183.695312 134.015625 183.597656 134.828125 183.5 135.636719 C 183.398438 136.496094 183.296875 137.351562 183.207031 138.207031 C 182.6875 142.875 181.410156 147.285156 180.007812 151.75 C 179.824219 152.339844 179.640625 152.929688 179.457031 153.519531 C 178.449219 156.746094 177.433594 159.972656 176.367188 163.183594 C 176.324219 163.320312 176.277344 163.453125 176.230469 163.59375 C 174.421875 169.039062 171.707031 172.867188 167.664062 176.890625 C 167.488281 177.066406 167.3125 177.242188 167.132812 177.421875 C 166.253906 178.304688 165.359375 179.160156 164.414062 179.96875 C 163.878906 180.433594 163.359375 180.914062 162.84375 181.398438 C 162.621094 181.601562 162.402344 181.804688 162.183594 182.007812 C 162.074219 182.109375 161.960938 182.210938 161.851562 182.316406 C 160.625 183.449219 159.394531 184.574219 158.15625 185.695312 C 157.917969 185.90625 157.917969 185.90625 157.675781 186.125 C 157.394531 186.375 157.109375 186.621094 156.820312 186.859375 C 155.691406 187.800781 154.804688 188.882812 153.90625 190.039062 C 153.761719 190.21875 153.617188 190.402344 153.464844 190.589844 C 152.257812 192.136719 151.3125 193.78125 150.390625 195.507812 C 150.320312 195.636719 150.25 195.769531 150.179688 195.902344 C 149.898438 196.4375 149.613281 196.96875 149.332031 197.503906 C 148.433594 199.214844 147.503906 200.910156 146.574219 202.605469 C 146.308594 203.089844 146.046875 203.570312 145.789062 204.054688 C 144.207031 206.976562 142.453125 209.820312 140.234375 212.304688 C 140.109375 212.445312 139.988281 212.582031 139.859375 212.726562 C 137.367188 215.382812 134.3125 216.421875 130.746094 216.644531 C 125.820312 216.761719 120.347656 215.828125 115.796875 213.953125 C 113.421875 213.015625 110.734375 212.574219 108.203125 212.304688 C 107.90625 212.273438 107.90625 212.273438 107.601562 212.238281 C 101.636719 211.683594 95.335938 212.300781 90.101562 215.40625 C 88.640625 216.25 87.046875 216.691406 85.4375 217.152344 C 85.246094 217.207031 85.246094 217.207031 85.046875 217.261719 C 77.128906 219.519531 71.535156 218.855469 64.324219 214.921875 C 54.925781 209.671875 50.71875 203.746094 46.484375 194.140625 C 42.988281 186.238281 38.902344 179.09375 33.71875 172.171875 C 24.554688 159.902344 24.554688 159.902344 25.652344 152.269531 C 26.277344 148.324219 27.769531 144.566406 29.101562 140.820312 C 29.207031 140.523438 29.3125 140.230469 29.417969 139.933594 C 29.464844 139.792969 29.515625 139.648438 29.570312 139.503906 C 29.617188 139.363281 29.667969 139.222656 29.71875 139.078125 C 29.769531 138.941406 29.816406 138.800781 29.867188 138.660156 C 30.015625 138.242188 30.164062 137.828125 30.308594 137.414062 C 30.382812 137.210938 30.382812 137.210938 30.457031 137 C 32.851562 130.242188 34.828125 123.402344 36.460938 116.417969 C 39.234375 104.589844 43.058594 92.296875 53.136719 84.664062 C 53.535156 84.359375 53.929688 84.050781 54.324219 83.742188 C 55.15625 83.097656 55.992188 82.460938 56.835938 81.835938 C 56.953125 81.746094 57.074219 81.660156 57.195312 81.566406 C 61.070312 78.734375 65.660156 76.917969 70.347656 75.957031 C 73.304688 75.34375 75.714844 73.953125 78.320312 72.460938 C 83.117188 69.753906 88.082031 67.398438 93.097656 65.140625 C 96.085938 63.796875 99.03125 62.375 101.96875 60.925781 C 102.335938 60.746094 102.707031 60.5625 103.074219 60.382812 C 107.621094 58.277344 107.621094 58.277344 111.625 55.332031 C 113.988281 53.148438 116.414062 51.671875 119.667969 51.703125 C 120.898438 51.808594 121.722656 52.179688 122.578125 53.066406 C 123.089844 53.703125 123.300781 54.351562 123.523438 55.140625 C 124.132812 57.144531 124.132812 57.144531 125.546875 58.609375 C 126.433594 58.980469 127.453125 58.949219 128.359375 58.644531 C 128.804688 58.4375 129.230469 58.207031 129.664062 57.972656 C 131.546875 57.007812 133.480469 56.273438 135.472656 55.566406 C 135.703125 55.484375 135.703125 55.484375 135.933594 55.402344 C 136.695312 55.132812 137.453125 54.863281 138.210938 54.597656 C 148.859375 51.019531 148.859375 51.019531 158.007812 44.726562 C 161.507812 41.496094 161.507812 41.496094 163.671875 42.1875 Z M 163.671875 42.1875 "/>
<path style=" stroke:none;fill-rule:nonzero;fill:rgb(99.607843%,99.607843%,71.372551%);fill-opacity:1;" d="M 163.671875 42.1875 C 164.34375 42.777344 164.609375 43.136719 164.757812 44.019531 C 164.402344 46.316406 162.683594 47.515625 160.96875 48.894531 C 160.101562 49.613281 159.289062 50.394531 158.46875 51.167969 C 157.84375 51.753906 157.21875 52.335938 156.566406 52.894531 C 154.960938 54.179688 154.960938 54.179688 153.90625 55.859375 C 153.835938 56.949219 153.855469 57.660156 154.492188 58.59375 C 155.132812 59.175781 155.664062 59.433594 156.519531 59.496094 C 157.617188 59.433594 158.1875 58.914062 158.984375 58.203125 C 159.195312 58.023438 159.410156 57.84375 159.621094 57.664062 C 160.675781 56.777344 161.710938 55.871094 162.730469 54.945312 C 163.5625 54.191406 164.417969 53.484375 165.292969 52.785156 C 165.800781 52.359375 166.265625 51.914062 166.734375 51.453125 C 167.542969 50.71875 168.378906 50.207031 169.347656 49.71875 C 169.539062 49.621094 169.539062 49.621094 169.730469 49.523438 C 173.027344 47.941406 177.097656 48.335938 180.472656 49.46875 C 181.195312 49.730469 181.886719 50.039062 182.574219 50.378906 C 186.929688 52.472656 192.554688 50.367188 196.773438 48.925781 C 198.855469 48.183594 201.003906 47.324219 202.878906 46.148438 C 203.597656 45.738281 204.0625 45.808594 204.882812 45.898438 C 205.527344 46.3125 205.640625 46.605469 205.859375 47.339844 C 205.859375 48.3125 205.433594 48.847656 204.78125 49.523438 C 204.4375 49.851562 204.089844 50.171875 203.734375 50.488281 C 202.699219 51.4375 201.679688 52.398438 200.683594 53.394531 C 200.523438 53.554688 200.523438 53.554688 200.359375 53.714844 C 199.8125 54.265625 199.289062 54.828125 198.785156 55.414062 C 198.074219 56.230469 197.324219 57 196.558594 57.765625 C 196.421875 57.902344 196.285156 58.039062 196.140625 58.179688 C 195.851562 58.46875 195.566406 58.757812 195.277344 59.046875 C 194.835938 59.484375 194.398438 59.921875 193.964844 60.359375 C 193.679688 60.640625 193.398438 60.925781 193.117188 61.207031 C 192.921875 61.398438 192.921875 61.398438 192.726562 61.597656 C 191.863281 62.457031 190.964844 63.269531 190.039062 64.0625 C 189.6875 64.367188 189.339844 64.671875 188.988281 64.976562 C 188.828125 65.121094 188.664062 65.261719 188.496094 65.40625 C 187.847656 66.0625 187.707031 66.449219 187.632812 67.371094 C 187.65625 68.109375 187.789062 68.566406 188.28125 69.140625 C 189.09375 69.703125 189.796875 69.796875 190.753906 69.824219 C 191.414062 69.683594 191.835938 69.339844 192.382812 68.945312 C 192.488281 68.867188 192.597656 68.789062 192.707031 68.710938 C 192.929688 68.546875 193.15625 68.386719 193.378906 68.222656 C 196.667969 65.824219 196.667969 65.824219 198.4375 66.015625 C 198.84375 66.308594 198.996094 66.511719 199.144531 66.988281 C 199.363281 68.984375 198.867188 70.847656 198.046875 72.65625 C 197.960938 72.984375 197.878906 73.3125 197.796875 73.640625 C 197.488281 74.804688 197.011719 75.832031 196.472656 76.90625 C 195.484375 78.878906 194.679688 80.601562 195.410156 82.8125 C 195.503906 83.074219 195.601562 83.335938 195.703125 83.59375 C 195.816406 83.601562 195.929688 83.609375 196.046875 83.617188 C 197.023438 83.699219 197.796875 83.816406 198.632812 84.375 C 199.597656 85.671875 199.523438 87.113281 199.414062 88.671875 C 198.402344 95.519531 195.574219 101.089844 190.191406 105.417969 C 188.230469 107.007812 186.785156 108.53125 185.546875 110.742188 C 185.445312 110.925781 185.339844 111.109375 185.234375 111.296875 C 184.257812 113.234375 183.925781 115.300781 184.570312 117.382812 C 184.820312 117.253906 184.820312 117.253906 185.078125 117.121094 C 185.414062 116.953125 185.414062 116.953125 185.753906 116.785156 C 185.972656 116.671875 186.195312 116.5625 186.421875 116.449219 C 187.210938 116.175781 187.675781 116.199219 188.476562 116.40625 C 188.953125 117.359375 188.515625 118.722656 188.199219 119.6875 C 188.078125 120.019531 187.953125 120.347656 187.828125 120.679688 C 187.761719 120.859375 187.695312 121.042969 187.625 121.230469 C 187.226562 122.296875 186.789062 123.339844 186.316406 124.378906 C 184.96875 127.34375 184.144531 129.972656 183.789062 133.203125 C 183.695312 134.015625 183.597656 134.828125 183.5 135.636719 C 183.398438 136.496094 183.296875 137.351562 183.207031 138.207031 C 182.6875 142.875 181.410156 147.285156 180.007812 151.75 C 179.824219 152.339844 179.640625 152.929688 179.457031 153.519531 C 178.449219 156.746094 177.433594 159.972656 176.367188 163.183594 C 176.324219 163.320312 176.277344 163.453125 176.230469 163.59375 C 174.421875 169.039062 171.707031 172.867188 167.664062 176.890625 C 167.488281 177.066406 167.3125 177.242188 167.132812 177.421875 C 166.253906 178.304688 165.359375 179.160156 164.414062 179.96875 C 163.878906 180.433594 163.359375 180.914062 162.84375 181.398438 C 162.621094 181.601562 162.402344 181.804688 162.183594 182.007812 C 162.074219 182.109375 161.960938 182.210938 161.851562 182.316406 C 160.625 183.449219 159.394531 184.574219 158.15625 185.695312 C 157.917969 185.90625 157.917969 185.90625 157.675781 186.125 C 157.394531 186.375 157.109375 186.621094 156.820312 186.859375 C 155.691406 187.800781 154.804688 188.882812 153.90625 190.039062 C 153.761719 190.21875 153.617188 190.402344 153.464844 190.589844 C 152.257812 192.136719 151.3125 193.78125 150.390625 195.507812 C 150.320312 195.636719 150.25 195.769531 150.179688 195.902344 C 149.898438 196.4375 149.613281 196.96875 149.332031 197.503906 C 148.433594 199.214844 147.503906 200.910156 146.574219 202.605469 C 146.308594 203.089844 146.046875 203.570312 145.789062 204.054688 C 144.207031 206.976562 142.453125 209.820312 140.234375 212.304688 C 140.109375 212.445312 139.988281 212.582031 139.859375 212.726562 C 137.367188 215.382812 134.3125 216.421875 130.746094 216.644531 C 125.820312 216.761719 120.347656 215.828125 115.796875 213.953125 C 113.421875 213.015625 110.734375 212.574219 108.203125 212.304688 C 107.90625 212.273438 107.90625 212.273438 107.601562 212.238281 C 101.636719 211.683594 95.335938 212.300781 90.101562 215.40625 C 88.640625 216.25 87.046875 216.691406 85.4375 217.152344 C 85.246094 217.207031 85.246094 217.207031 85.046875 217.261719 C 77.128906 219.519531 71.535156 218.855469 64.324219 214.921875 C 54.925781 209.671875 50.71875 203.746094 46.484375 194.140625 C 42.988281 186.238281 38.902344 179.09375 33.71875 172.171875 C 24.554688 159.902344 24.554688 159.902344 25.652344 152.269531 C 26.277344 148.324219 27.769531 144.566406 29.101562 140.820312 C 29.207031 140.523438 29.3125 140.230469 29.417969 139.933594 C 29.464844 139.792969 29.515625 139.648438 29.570312 139.503906 C 29.617188 139.363281 29.667969 139.222656 29.71875 139.078125 C 29.769531 138.941406 29.816406 138.800781 29.867188 138.660156 C 30.015625 138.242188 30.164062 137.828125 30.308594 137.414062 C 30.382812 137.210938 30.382812 137.210938 30.457031 137 C 32.851562 130.242188 34.828125 123.402344 36.460938 116.417969 C 39.234375 104.589844 43.058594 92.296875 53.136719 84.664062 C 53.535156 84.359375 53.929688 84.050781 54.324219 83.742188 C 55.15625 83.097656 55.992188 82.460938 56.835938 81.835938 C 56.953125 81.746094 57.074219 81.660156 57.195312 81.566406 C 61.070312 78.734375 65.660156 76.917969 70.347656 75.957031 C 73.304688 75.34375 75.714844 73.953125 78.320312 72.460938 C 83.117188 69.753906 88.082031 67.398438 93.097656 65.140625 C 96.085938 63.796875 99.03125 62.375 101.96875 60.925781 C 102.335938 60.746094 102.707031 60.5625 103.074219 60.382812 C 107.621094 58.277344 107.621094 58.277344 111.625 55.332031 C 113.988281 53.148438 116.414062 51.671875 119.667969 51.703125 C 120.898438 51.808594 121.722656 52.179688 122.578125 53.066406 C 123.089844 53.703125 123.300781 54.351562 123.523438 55.140625 C 124.132812 57.144531 124.132812 57.144531 125.546875 58.609375 C 126.433594 58.980469 127.453125 58.949219 128.359375 58.644531 C 128.804688 58.4375 129.230469 58.207031 129.664062 57.972656 C 131.546875 57.007812 133.480469 56.273438 135.472656 55.566406 C 135.703125 55.484375 135.703125 55.484375 135.933594 55.402344 C 136.695312 55.132812 137.453125 54.863281 138.210938 54.597656 C 148.859375 51.019531 148.859375 51.019531 158.007812 44.726562 C 161.507812 41.496094 161.507812 41.496094 163.671875 42.1875 Z M 105.46875 82.226562 C 105.214844 82.300781 104.960938 82.375 104.707031 82.453125 C 104.15625 82.613281 103.609375 82.777344 103.0625 82.9375 C 102.921875 82.980469 102.78125 83.023438 102.636719 83.0625 C 102.351562 83.148438 102.066406 83.234375 101.78125 83.316406 C 99.820312 83.898438 97.855469 84.457031 95.875 84.960938 C 95.664062 85.015625 95.457031 85.070312 95.242188 85.125 C 92.335938 85.847656 89.484375 85.996094 86.503906 85.996094 C 85.894531 85.996094 85.28125 86 84.671875 86.003906 C 82.941406 86.015625 81.207031 86.023438 79.476562 86.027344 C 78.410156 86.03125 77.34375 86.035156 76.277344 86.042969 C 75.878906 86.046875 75.476562 86.046875 75.074219 86.046875 C 68.535156 86.046875 63.988281 87.910156 58.789062 91.796875 C 58.667969 91.886719 58.546875 91.976562 58.421875 92.070312 C 52.945312 96.136719 50.503906 101.0625 47.851562 107.226562 C 47.691406 107.601562 47.527344 107.972656 47.367188 108.347656 C 47.003906 109.183594 46.648438 110.023438 46.292969 110.863281 C 46.101562 111.304688 45.914062 111.75 45.71875 112.191406 C 44.859375 114.195312 44.066406 116.222656 43.285156 118.257812 C 42.484375 120.335938 41.671875 122.40625 40.84375 124.476562 C 40.789062 124.617188 40.730469 124.761719 40.671875 124.910156 C 40.054688 126.449219 39.433594 127.988281 38.789062 129.515625 C 36.820312 134.199219 35.089844 138.960938 33.398438 143.75 C 33.335938 143.929688 33.269531 144.109375 33.203125 144.296875 C 33.015625 144.824219 32.832031 145.351562 32.644531 145.882812 C 32.589844 146.035156 32.535156 146.191406 32.476562 146.355469 C 31.988281 147.746094 31.589844 149.148438 31.25 150.585938 C 31.183594 150.84375 31.183594 150.84375 31.117188 151.105469 C 30.5 153.859375 30.652344 156.746094 31.640625 159.375 C 31.707031 159.5625 31.773438 159.753906 31.839844 159.945312 C 33.007812 163.015625 34.988281 165.730469 36.914062 168.359375 C 37.023438 168.507812 37.128906 168.65625 37.242188 168.804688 C 38.269531 170.210938 39.300781 171.609375 40.347656 173 C 43.367188 177.027344 46.195312 181.34375 48.132812 186.003906 C 48.417969 186.675781 48.734375 187.316406 49.070312 187.964844 C 49.738281 189.269531 50.300781 190.605469 50.867188 191.957031 C 53.308594 197.773438 55.898438 203.265625 61.390625 206.8125 C 61.59375 206.945312 61.796875 207.078125 62.007812 207.214844 C 64.761719 209 67.585938 210.585938 70.53125 212.023438 C 70.832031 212.171875 70.832031 212.171875 71.136719 212.320312 C 76.949219 215.09375 83.210938 213.507812 89.027344 211.453125 C 90.007812 211.085938 90.929688 210.617188 91.859375 210.136719 C 95.769531 208.109375 100.011719 207.335938 104.394531 207.347656 C 104.597656 207.347656 104.597656 207.347656 104.804688 207.347656 C 108.90625 207.367188 112.515625 208.25 116.308594 209.765625 C 117.691406 210.300781 119.082031 210.621094 120.539062 210.902344 C 120.925781 210.972656 121.308594 211.050781 121.695312 211.128906 C 126.863281 212.136719 132 212.203125 136.527344 209.175781 C 137.003906 208.804688 137.449219 208.417969 137.890625 208.007812 C 138.023438 207.890625 138.15625 207.773438 138.292969 207.652344 C 141.269531 204.878906 143.0625 200.789062 144.882812 197.214844 C 145.9375 195.144531 147.015625 193.101562 148.207031 191.101562 C 148.316406 190.914062 148.425781 190.726562 148.539062 190.535156 C 150.078125 187.992188 151.972656 185.824219 154.085938 183.75 C 154.433594 183.40625 154.78125 183.0625 155.125 182.71875 C 156.246094 181.605469 157.378906 180.511719 158.59375 179.492188 C 158.703125 179.398438 158.808594 179.308594 158.921875 179.214844 C 159.132812 179.035156 159.34375 178.855469 159.554688 178.675781 C 167.636719 171.832031 170.191406 164.847656 171.15625 154.359375 C 171.3125 152.355469 171.335938 150.347656 171.351562 148.339844 C 171.351562 148.191406 171.355469 148.046875 171.355469 147.894531 C 171.433594 140.921875 168.070312 135.914062 164.136719 130.417969 C 158.902344 123.101562 155.4375 115.9375 152.863281 107.316406 C 151.667969 103.328125 150.164062 100.019531 146.445312 97.839844 C 145.144531 97.148438 143.753906 96.652344 142.382812 96.125 C 134.667969 93.132812 127.28125 89.507812 120.546875 84.65625 C 119.199219 83.6875 117.875 82.789062 116.371094 82.078125 C 116.242188 82.019531 116.113281 81.957031 115.980469 81.894531 C 112.414062 80.3125 109.039062 81.171875 105.46875 82.226562 Z M 105.46875 82.226562 "/>
<path style=" stroke:none;fill-rule:nonzero;fill:rgb(58.039218%,58.823532%,58.823532%);fill-opacity:1;" d="M 132.53125 168.601562 C 135.550781 171.15625 137.683594 174.460938 138.226562 178.429688 C 138.53125 182.125 138.195312 185.703125 136.523438 189.0625 C 136.367188 189.382812 136.367188 189.382812 136.207031 189.707031 C 135.519531 191.039062 134.761719 192.226562 133.789062 193.359375 C 133.644531 193.535156 133.644531 193.535156 133.496094 193.714844 C 132.691406 194.671875 131.839844 195.4375 130.835938 196.179688 C 130.691406 196.289062 130.542969 196.398438 130.394531 196.507812 C 128.46875 197.945312 126.488281 199.285156 124.453125 200.558594 C 123.996094 200.863281 123.597656 201.160156 123.1875 201.515625 C 122.65625 201.953125 122.65625 201.953125 122.265625 201.953125 C 122.222656 202.953125 122.222656 202.953125 122.460938 203.90625 C 122.574219 203.960938 122.6875 204.019531 122.804688 204.074219 C 124.488281 204.929688 125.894531 206.71875 127.230469 208.054688 C 127.53125 208.351562 127.832031 208.652344 128.132812 208.949219 C 128.328125 209.144531 128.523438 209.335938 128.714844 209.53125 C 128.890625 209.703125 129.0625 209.875 129.238281 210.050781 C 129.664062 210.519531 129.972656 210.972656 130.273438 211.523438 C 128.0625 212.628906 124.019531 211.578125 121.679688 211.132812 C 121.5 211.101562 121.324219 211.066406 121.140625 211.035156 C 118.839844 210.609375 116.695312 210.027344 114.523438 209.15625 C 111.285156 207.863281 108.050781 207.34375 104.566406 207.359375 C 104.429688 207.359375 104.292969 207.363281 104.152344 207.363281 C 101.945312 207.371094 99.808594 207.492188 97.65625 208.007812 C 97.449219 208.054688 97.449219 208.054688 97.238281 208.105469 C 94.847656 208.691406 92.546875 209.621094 90.375 210.785156 C 89.027344 211.5 87.652344 211.925781 86.179688 212.328125 C 85.953125 212.394531 85.722656 212.460938 85.488281 212.527344 C 81.199219 213.726562 81.199219 213.726562 79.6875 213.671875 C 81.527344 210.289062 84.710938 207.21875 87.890625 205.078125 C 88.003906 205 88.117188 204.925781 88.234375 204.84375 C 92.230469 202.132812 96.464844 200.746094 101.148438 199.757812 C 101.386719 199.707031 101.625 199.65625 101.871094 199.601562 C 103.109375 199.351562 104.324219 199.152344 105.585938 199.066406 C 106.078125 199.019531 106.546875 198.933594 107.03125 198.828125 C 107.117188 197.800781 106.875 197.25 106.347656 196.375 C 106.277344 196.253906 106.207031 196.136719 106.132812 196.015625 C 105.664062 195.226562 105.175781 194.453125 104.6875 193.675781 C 101.8125 189.027344 99.878906 183.945312 100.921875 178.398438 C 101.101562 177.699219 101.308594 177.039062 101.5625 176.367188 C 101.632812 176.164062 101.703125 175.960938 101.777344 175.753906 C 103.335938 171.636719 106.527344 168.652344 110.328125 166.601562 C 110.535156 166.488281 110.535156 166.488281 110.75 166.371094 C 111.539062 165.964844 112.199219 165.753906 113.085938 165.625 C 113.148438 165.496094 113.214844 165.367188 113.28125 165.234375 C 119.886719 163.34375 127.089844 164.324219 132.53125 168.601562 Z M 132.53125 168.601562 "/>
<path style=" stroke:none;fill-rule:nonzero;fill:rgb(38.431373%,38.431373%,38.431373%);fill-opacity:1;" d="M 129.882812 100.09375 C 133.957031 103.527344 136.429688 108.355469 136.914062 113.671875 C 137.246094 118.855469 135.757812 123.902344 132.402344 127.902344 C 131.90625 128.460938 131.414062 128.992188 130.859375 129.492188 C 130.730469 129.492188 130.601562 129.492188 130.46875 129.492188 C 130.425781 129.601562 130.386719 129.714844 130.34375 129.828125 C 129.980469 130.433594 129.523438 130.746094 128.953125 131.164062 C 128.753906 131.3125 128.554688 131.464844 128.347656 131.617188 C 127.765625 132.007812 127.195312 132.316406 126.5625 132.617188 C 126.296875 132.757812 126.296875 132.757812 126.023438 132.902344 C 123.242188 134.363281 120.371094 135.039062 117.234375 135.023438 C 117.03125 135.019531 116.828125 135.019531 116.617188 135.019531 C 111.457031 134.941406 106.703125 132.761719 103.015625 129.207031 C 98.839844 124.75 97.242188 119.511719 97.425781 113.480469 C 97.738281 108.183594 100.679688 103.421875 104.523438 99.914062 C 111.820312 93.730469 122.640625 94.214844 129.882812 100.09375 Z M 129.882812 100.09375 "/>
<path style=" stroke:none;fill-rule:nonzero;fill:rgb(99.607843%,88.235295%,46.27451%);fill-opacity:1;" d="M 163.671875 42.1875 C 164.34375 42.777344 164.609375 43.136719 164.757812 44.019531 C 164.402344 46.316406 162.683594 47.515625 160.96875 48.894531 C 160.101562 49.613281 159.289062 50.394531 158.46875 51.167969 C 157.84375 51.753906 157.21875 52.335938 156.566406 52.894531 C 154.960938 54.179688 154.960938 54.179688 153.90625 55.859375 C 153.835938 56.949219 153.855469 57.660156 154.492188 58.59375 C 155.132812 59.175781 155.664062 59.433594 156.519531 59.496094 C 157.617188 59.433594 158.1875 58.914062 158.984375 58.203125 C 159.195312 58.023438 159.410156 57.84375 159.621094 57.664062 C 160.675781 56.777344 161.710938 55.871094 162.730469 54.945312 C 163.5625 54.191406 164.417969 53.484375 165.292969 52.785156 C 165.800781 52.359375 166.265625 51.914062 166.734375 51.453125 C 167.542969 50.71875 168.378906 50.207031 169.347656 49.71875 C 169.476562 49.65625 169.601562 49.589844 169.730469 49.523438 C 173.027344 47.941406 177.097656 48.335938 180.472656 49.46875 C 181.195312 49.730469 181.886719 50.039062 182.574219 50.378906 C 186.929688 52.472656 192.554688 50.367188 196.773438 48.925781 C 198.855469 48.183594 201.003906 47.324219 202.878906 46.148438 C 203.597656 45.738281 204.0625 45.808594 204.882812 45.898438 C 205.527344 46.3125 205.640625 46.605469 205.859375 47.339844 C 205.859375 48.3125 205.433594 48.847656 204.78125 49.523438 C 204.4375 49.851562 204.089844 50.171875 203.734375 50.488281 C 202.699219 51.4375 201.679688 52.398438 200.683594 53.394531 C 200.523438 53.554688 200.523438 53.554688 200.359375 53.714844 C 199.8125 54.265625 199.289062 54.828125 198.785156 55.414062 C 198.074219 56.230469 197.324219 57 196.558594 57.765625 C 196.421875 57.902344 196.285156 58.039062 196.140625 58.179688 C 195.851562 58.46875 195.566406 58.757812 195.277344 59.046875 C 194.835938 59.484375 194.398438 59.921875 193.964844 60.359375 C 193.679688 60.640625 193.398438 60.925781 193.117188 61.207031 C 192.988281 61.335938 192.859375 61.464844 192.726562 61.597656 C 191.863281 62.457031 190.964844 63.269531 190.039062 64.0625 C 189.6875 64.367188 189.339844 64.671875 188.988281 64.976562 C 188.828125 65.121094 188.664062 65.261719 188.496094 65.40625 C 187.847656 66.0625 187.707031 66.449219 187.632812 67.371094 C 187.65625 68.109375 187.789062 68.566406 188.28125 69.140625 C 189.09375 69.703125 189.796875 69.796875 190.753906 69.824219 C 191.414062 69.683594 191.835938 69.339844 192.382812 68.945312 C 192.542969 68.828125 192.542969 68.828125 192.707031 68.710938 C 192.929688 68.546875 193.15625 68.386719 193.378906 68.222656 C 196.667969 65.824219 196.667969 65.824219 198.4375 66.015625 C 198.84375 66.308594 198.996094 66.511719 199.144531 66.988281 C 199.363281 68.984375 198.867188 70.847656 198.046875 72.65625 C 197.960938 72.984375 197.878906 73.3125 197.796875 73.640625 C 197.488281 74.804688 197.011719 75.832031 196.472656 76.90625 C 195.484375 78.878906 194.679688 80.601562 195.410156 82.8125 C 195.503906 83.074219 195.601562 83.335938 195.703125 83.59375 C 195.816406 83.601562 195.929688 83.609375 196.046875 83.617188 C 197.023438 83.699219 197.796875 83.816406 198.632812 84.375 C 199.597656 85.671875 199.523438 87.113281 199.414062 88.671875 C 198.402344 95.519531 195.574219 101.089844 190.191406 105.417969 C 188.230469 107.007812 186.785156 108.53125 185.546875 110.742188 C 185.445312 110.925781 185.339844 111.109375 185.234375 111.296875 C 184.257812 113.234375 183.925781 115.300781 184.570312 117.382812 C 184.738281 117.296875 184.90625 117.210938 185.078125 117.121094 C 185.300781 117.007812 185.523438 116.898438 185.753906 116.785156 C 185.972656 116.671875 186.195312 116.5625 186.421875 116.449219 C 187.210938 116.175781 187.675781 116.199219 188.476562 116.40625 C 188.953125 117.359375 188.515625 118.722656 188.199219 119.6875 C 188.078125 120.019531 187.953125 120.347656 187.828125 120.679688 C 187.761719 120.859375 187.695312 121.042969 187.625 121.230469 C 187.226562 122.296875 186.789062 123.339844 186.316406 124.378906 C 185.09375 127.070312 184.207031 129.511719 183.875 132.457031 C 183.769531 133.386719 183.652344 134.3125 183.535156 135.242188 C 183.398438 136.332031 183.265625 137.425781 183.136719 138.515625 C 183.117188 138.6875 183.097656 138.855469 183.074219 139.03125 C 183.039062 139.355469 183 139.675781 182.964844 140 C 182.695312 142.277344 182.695312 142.277344 181.46875 143.28125 C 181.054688 143.554688 181.054688 143.554688 180.421875 143.703125 C 179.882812 143.554688 179.882812 143.554688 179.417969 143.1875 C 178.800781 142 179.027344 140.746094 179.394531 139.496094 C 179.527344 139.09375 179.660156 138.695312 179.796875 138.292969 C 179.867188 138.078125 179.941406 137.863281 180.015625 137.644531 C 180.226562 137.007812 180.445312 136.375 180.664062 135.742188 C 180.722656 135.574219 180.777344 135.410156 180.835938 135.238281 C 181.601562 133.03125 182.5 130.882812 183.433594 128.742188 C 185.085938 124.917969 185.054688 122.144531 183.734375 118.226562 C 182.433594 114.332031 182.527344 110.382812 184.355469 106.671875 C 185.34375 104.734375 186.5625 102.992188 187.851562 101.246094 C 190.648438 97.566406 190.648438 97.566406 192.382812 93.359375 C 192.511719 93.359375 192.640625 93.359375 192.773438 93.359375 C 192.824219 93.191406 192.878906 93.027344 192.929688 92.855469 C 193.167969 92.171875 193.464844 91.535156 193.773438 90.882812 C 194.601562 88.992188 194.539062 87.695312 193.8125 85.777344 C 193.652344 85.378906 193.488281 84.976562 193.324219 84.578125 C 193.070312 83.949219 192.84375 83.316406 192.613281 82.679688 C 192.535156 82.464844 192.460938 82.25 192.378906 82.027344 C 191.808594 80.289062 191.898438 78.941406 192.566406 77.269531 C 193.289062 75.5 193.289062 75.5 193.359375 73.632812 C 192.808594 72.972656 192.363281 72.726562 191.539062 72.515625 C 191.335938 72.464844 191.136719 72.410156 190.929688 72.355469 C 190.511719 72.246094 190.09375 72.140625 189.671875 72.035156 C 187.675781 71.5 186.199219 70.707031 185.085938 68.921875 C 183.953125 66.917969 183.882812 64.964844 183.921875 62.714844 C 183.945312 61.589844 183.945312 61.589844 183.558594 60.570312 C 183.101562 60.148438 182.683594 59.972656 182.074219 59.878906 C 181.890625 59.894531 181.707031 59.910156 181.519531 59.925781 C 179.632812 60.003906 177.933594 59.625 176.171875 58.984375 C 175.875 58.890625 175.578125 58.796875 175.28125 58.703125 C 172.953125 57.917969 172.953125 57.917969 172.265625 56.640625 C 167.695312 56.535156 164.285156 59.609375 160.867188 62.3125 C 159.554688 63.289062 158.320312 63.238281 156.726562 63.015625 C 154.671875 62.515625 152.753906 61.09375 151.644531 59.304688 C 150.675781 57.503906 150.21875 55.792969 149.917969 53.789062 C 149.875 53.160156 149.875 53.160156 149.609375 52.929688 C 147.785156 52.6875 146.164062 53.734375 144.660156 54.652344 C 143.125 55.554688 141.523438 56.09375 139.832031 56.628906 C 139.523438 56.726562 139.214844 56.828125 138.90625 56.929688 C 138.128906 57.179688 137.351562 57.425781 136.578125 57.671875 C 136.019531 57.847656 135.464844 58.027344 134.910156 58.207031 C 133.4375 58.683594 131.957031 59.140625 130.46875 59.570312 C 130.234375 59.636719 130.234375 59.636719 129.992188 59.707031 C 127.511719 60.390625 125.105469 60.035156 122.597656 59.707031 C 120.511719 59.449219 118.519531 59.617188 116.441406 59.886719 C 116.242188 59.914062 116.242188 59.914062 116.039062 59.941406 C 111.980469 60.476562 108.324219 61.804688 104.507812 63.25 C 103.679688 63.5625 102.847656 63.863281 102.015625 64.160156 C 101.773438 64.246094 101.527344 64.332031 101.28125 64.421875 C 100.136719 64.792969 99.085938 65.09375 97.875 65.074219 C 97.605469 65.074219 97.605469 65.074219 97.328125 65.070312 C 96.875 65.039062 96.875 65.039062 96.484375 64.84375 C 96.421875 64.648438 96.355469 64.457031 96.289062 64.257812 C 96.160156 64.128906 96.03125 64 95.898438 63.867188 C 96.152344 63.746094 96.152344 63.746094 96.410156 63.621094 C 104.488281 60.1875 104.488281 60.1875 111.625 55.332031 C 113.988281 53.148438 116.414062 51.671875 119.667969 51.703125 C 120.898438 51.808594 121.722656 52.179688 122.578125 53.066406 C 123.089844 53.703125 123.300781 54.351562 123.523438 55.140625 C 124.132812 57.144531 124.132812 57.144531 125.546875 58.609375 C 126.433594 58.980469 127.453125 58.949219 128.359375 58.644531 C 128.804688 58.4375 129.230469 58.207031 129.664062 57.972656 C 131.546875 57.007812 133.480469 56.273438 135.472656 55.566406 C 135.625 55.511719 135.777344 55.457031 135.933594 55.402344 C 136.695312 55.132812 137.453125 54.863281 138.210938 54.597656 C 148.859375 51.019531 148.859375 51.019531 158.007812 44.726562 C 161.507812 41.496094 161.507812 41.496094 163.671875 42.1875 Z M 163.671875 42.1875 "/>
<path style=" stroke:none;fill-rule:nonzero;fill:rgb(38.431373%,38.431373%,38.431373%);fill-opacity:1;" d="M 64.648438 87.890625 C 67.992188 90.886719 68.667969 98.164062 68.898438 102.355469 C 69.152344 108.40625 67.746094 114.226562 64.84375 119.53125 C 64.730469 119.738281 64.617188 119.949219 64.503906 120.164062 C 60.214844 127.804688 52.925781 133.109375 44.589844 135.570312 C 41.910156 136.285156 39.101562 136.703125 36.328125 136.523438 C 36.429688 135.136719 36.960938 133.933594 37.476562 132.652344 C 37.574219 132.410156 37.671875 132.164062 37.769531 131.917969 C 38.46875 130.15625 39.210938 128.414062 39.960938 126.671875 C 40.777344 124.746094 41.527344 122.792969 42.273438 120.835938 C 44 116.308594 45.847656 111.835938 47.800781 107.398438 C 48.0625 106.804688 48.316406 106.207031 48.570312 105.609375 C 52.082031 97.414062 56.84375 92.269531 64.648438 87.890625 Z M 64.648438 87.890625 "/>
<path style=" stroke:none;fill-rule:nonzero;fill:rgb(58.039218%,58.823532%,58.823532%);fill-opacity:1;" d="M 115.539062 93.125 C 121.609375 92.945312 127.527344 95.761719 132.226562 99.414062 C 132.414062 99.558594 132.414062 99.558594 132.605469 99.707031 C 137.308594 103.398438 140.078125 108.980469 140.832031 114.878906 C 141.589844 121.679688 139.726562 128.15625 135.484375 133.519531 C 131.472656 138.246094 125.96875 141.890625 119.664062 142.539062 C 112.976562 143.035156 106.164062 141.867188 100.871094 137.445312 C 100.167969 136.835938 99.5 136.191406 98.828125 135.546875 C 98.675781 135.410156 98.523438 135.269531 98.367188 135.128906 C 96.125 133.039062 94.601562 130.308594 93.359375 127.539062 C 93.21875 127.226562 93.21875 127.226562 93.074219 126.910156 C 92.066406 124.492188 91.503906 121.757812 91.40625 119.140625 C 91.394531 118.976562 91.386719 118.8125 91.375 118.640625 C 91.140625 111.761719 93.957031 105.507812 98.53125 100.511719 C 102.949219 95.796875 109.203125 93.472656 115.539062 93.125 Z M 101.757812 102.734375 C 98.25 107.089844 96.992188 112.527344 97.503906 118.039062 C 98.140625 122.761719 100.730469 127.464844 104.410156 130.511719 C 109.070312 133.957031 114.203125 135.59375 120.050781 134.898438 C 123.558594 134.324219 128.113281 132.734375 130.46875 129.882812 C 130.46875 129.753906 130.46875 129.625 130.46875 129.492188 C 130.585938 129.4375 130.703125 129.386719 130.820312 129.328125 C 133.476562 127.917969 135.214844 124.003906 136.066406 121.261719 C 137.605469 115.902344 137.039062 110.675781 134.523438 105.726562 C 132.097656 101.417969 128.523438 98.574219 124.023438 96.679688 C 123.867188 96.613281 123.707031 96.542969 123.546875 96.472656 C 115.78125 93.519531 107.007812 96.699219 101.757812 102.734375 Z M 101.757812 102.734375 "/>
<path style=" stroke:none;fill-rule:nonzero;fill:rgb(38.431373%,38.431373%,38.431373%);fill-opacity:1;" d="M 120.160156 165.972656 C 123.515625 165.820312 127.101562 167.035156 129.6875 169.140625 C 129.851562 169.269531 130.011719 169.402344 130.179688 169.535156 C 133.035156 171.960938 135.042969 175.414062 135.394531 179.1875 C 135.644531 183.316406 134.777344 187.265625 132 190.449219 C 131.570312 190.914062 131.121094 191.355469 130.664062 191.796875 C 130.539062 191.925781 130.417969 192.054688 130.289062 192.1875 C 127.886719 194.550781 124.03125 195.667969 120.75 195.765625 C 116.519531 195.671875 112.898438 194.070312 109.8125 191.1875 C 106.824219 188.058594 105.742188 184.230469 105.808594 179.972656 C 105.949219 175.945312 107.925781 172.429688 110.789062 169.691406 C 113.492188 167.320312 116.625 166.324219 120.160156 165.972656 Z M 120.160156 165.972656 "/>
<path style=" stroke:none;fill-rule:nonzero;fill:rgb(58.039218%,58.823532%,58.823532%);fill-opacity:1;" d="M 67.96875 87.109375 C 68.289062 87.566406 68.289062 87.566406 68.601562 88.171875 C 68.71875 88.394531 68.832031 88.613281 68.949219 88.84375 C 69.070312 89.082031 69.191406 89.324219 69.3125 89.5625 C 69.371094 89.683594 69.433594 89.804688 69.496094 89.929688 C 70.421875 91.746094 71.265625 93.554688 71.875 95.507812 C 71.917969 95.644531 71.960938 95.78125 72.003906 95.921875 C 75.011719 105.621094 73.929688 115.957031 69.273438 124.9375 C 67.757812 127.769531 65.847656 130.261719 63.671875 132.617188 C 63.582031 132.714844 63.488281 132.816406 63.394531 132.917969 C 61.339844 135.121094 58.957031 136.90625 56.390625 138.46875 C 56.066406 138.664062 55.75 138.863281 55.433594 139.066406 C 49.042969 142.957031 41.339844 144.132812 33.984375 143.554688 C 33.679688 142.625 33.945312 141.945312 34.28125 141.074219 C 34.335938 140.929688 34.386719 140.789062 34.441406 140.644531 C 34.609375 140.191406 34.777344 139.742188 34.949219 139.292969 C 35.0625 138.988281 35.175781 138.683594 35.289062 138.375 C 35.570312 137.628906 35.851562 136.878906 36.132812 136.132812 C 36.195312 136.261719 36.261719 136.390625 36.328125 136.523438 C 43.726562 135.949219 50.585938 134.085938 56.445312 129.296875 C 56.5625 129.203125 56.679688 129.109375 56.800781 129.011719 C 63.1875 123.828125 67.519531 116.09375 68.503906 107.898438 C 69.253906 100.699219 67.738281 94.4375 64.84375 87.890625 C 65.085938 87.761719 65.332031 87.636719 65.578125 87.511719 C 65.710938 87.441406 65.847656 87.371094 65.988281 87.300781 C 66.683594 86.984375 67.242188 86.773438 67.96875 87.109375 Z M 67.96875 87.109375 "/>
<path style=" stroke:none;fill-rule:nonzero;fill:rgb(58.039218%,58.823532%,58.823532%);fill-opacity:1;" d="M 78.320312 159.375 C 80.65625 161.113281 82.121094 163.539062 82.691406 166.394531 C 83.109375 169.484375 82.238281 172.273438 80.46875 174.804688 C 78.648438 177.050781 76.253906 178.214844 73.4375 178.710938 C 70.46875 179.007812 67.839844 178.132812 65.46875 176.347656 C 63.230469 174.429688 61.539062 171.75 61.296875 168.769531 C 61.113281 165.875 61.578125 163.363281 63.429688 161.023438 C 67.324219 156.777344 73.566406 156.203125 78.320312 159.375 Z M 78.320312 159.375 "/>
<path style=" stroke:none;fill-rule:nonzero;fill:rgb(38.431373%,38.431373%,38.431373%);fill-opacity:1;" d="M 75.648438 160.414062 C 77.554688 161.605469 78.855469 163.054688 79.457031 165.222656 C 79.914062 167.335938 79.722656 169.222656 78.65625 171.15625 C 77.398438 172.9375 75.75 174.226562 73.632812 174.757812 C 71.078125 174.96875 69.074219 174.507812 66.984375 172.945312 C 65.632812 171.722656 64.726562 169.878906 64.601562 168.066406 C 64.539062 165.765625 64.875 163.941406 66.394531 162.125 C 68.84375 159.652344 72.464844 158.851562 75.648438 160.414062 Z M 75.648438 160.414062 "/>
<path style=" stroke:none;fill-rule:nonzero;fill:rgb(58.039218%,59.215689%,59.215689%);fill-opacity:1;" d="M 31.445312 158.398438 C 34.917969 160.09375 38 161.964844 40.820312 164.648438 C 40.921875 164.746094 41.027344 164.84375 41.132812 164.941406 C 46.90625 170.386719 50.257812 177.53125 51.367188 185.351562 C 51.394531 185.53125 51.417969 185.707031 51.445312 185.890625 C 51.589844 187.128906 51.582031 188.378906 51.585938 189.625 C 51.585938 189.804688 51.589844 189.980469 51.589844 190.167969 C 51.585938 190.996094 51.578125 191.773438 51.367188 192.578125 C 50.957031 192.0625 50.652344 191.570312 50.386719 190.96875 C 50.316406 190.808594 50.246094 190.652344 50.175781 190.488281 C 50.101562 190.320312 50.027344 190.152344 49.953125 189.976562 C 49.792969 189.625 49.636719 189.269531 49.480469 188.914062 C 49.402344 188.742188 49.324219 188.566406 49.246094 188.386719 C 48.730469 187.238281 48.199219 186.097656 47.65625 184.960938 C 47.597656 184.835938 47.539062 184.714844 47.476562 184.585938 C 45.183594 179.816406 42.226562 175.519531 39.0625 171.289062 C 31.445312 161.101562 31.445312 161.101562 31.445312 158.398438 Z M 31.445312 158.398438 "/>
<path style=" stroke:none;fill-rule:nonzero;fill:rgb(58.039218%,59.215689%,59.215689%);fill-opacity:1;" d="M 167.382812 170.117188 C 166.972656 171.289062 166.222656 172.109375 165.429688 173.046875 C 165.300781 173.199219 165.171875 173.355469 165.039062 173.511719 C 163.429688 175.363281 161.609375 177.0625 159.691406 178.589844 C 158.136719 179.839844 156.710938 181.230469 155.273438 182.617188 C 155.027344 182.851562 155.027344 182.851562 154.777344 183.09375 C 150.027344 187.667969 147.070312 192.894531 144.121094 198.738281 C 142.507812 201.925781 142.507812 201.925781 141.601562 203.320312 C 141.539062 203.320312 141.472656 203.320312 141.40625 203.320312 C 141.285156 199.441406 142.125 195.582031 143.554688 191.992188 C 143.613281 191.839844 143.675781 191.6875 143.738281 191.53125 C 147.34375 182.601562 154.621094 175.308594 163.453125 171.519531 C 166.761719 170.117188 166.761719 170.117188 167.382812 170.117188 Z M 167.382812 170.117188 "/>
<path style=" stroke:none;fill-rule:nonzero;fill:rgb(100%,100%,100%);fill-opacity:1;" d="M 215.40625 167.90625 C 216.144531 168.710938 216.644531 169.304688 216.6875 170.421875 C 216.636719 171.445312 216.316406 171.988281 215.5625 172.679688 C 214.714844 173.273438 213.957031 173.796875 212.890625 173.632812 C 211.789062 173.109375 210.835938 172.21875 210.351562 171.09375 C 210.21875 170.210938 210.214844 169.5625 210.679688 168.785156 C 212.085938 167.457031 213.585938 166.839844 215.40625 167.90625 Z M 215.40625 167.90625 "/>
<path style=" stroke:none;fill-rule:nonzero;fill:rgb(100%,100%,100%);fill-opacity:1;" d="M 152 24.042969 C 152.804688 24.691406 153.230469 25.382812 153.515625 26.367188 C 153.464844 27.398438 153.003906 28.398438 152.332031 29.175781 C 151.304688 29.742188 150.148438 29.816406 149.011719 29.539062 C 148.820312 29.460938 148.632812 29.378906 148.4375 29.296875 C 148.375 29.101562 148.308594 28.910156 148.242188 28.710938 C 148.046875 28.648438 147.855469 28.582031 147.65625 28.515625 C 147.316406 27.496094 147.324219 26.453125 147.460938 25.390625 C 148.3125 23.753906 150.335938 23.230469 152 24.042969 Z M 152 24.042969 "/>
<path style=" stroke:none;fill-rule:nonzero;fill:rgb(100%,100%,100%);fill-opacity:1;" d="M 52.734375 71.289062 C 53.332031 71.714844 53.332031 71.714844 53.710938 72.265625 C 53.710938 73.066406 53.308594 73.71875 52.929688 74.414062 C 52.734375 74.609375 52.734375 74.609375 52 74.683594 C 51.285156 74.679688 51.191406 74.625 50.597656 74.132812 C 50.464844 73.96875 50.332031 73.804688 50.195312 73.632812 C 50.132812 73.570312 50.066406 73.503906 50 73.4375 C 49.90625 72.75 49.96875 72.503906 50.367188 71.921875 C 51.054688 71.195312 51.765625 71.125 52.734375 71.289062 Z M 52.734375 71.289062 "/>
<path style=" stroke:none;fill-rule:nonzero;fill:rgb(100%,100%,100%);fill-opacity:1;" d="M 108.789062 234.570312 C 109.339844 235.046875 109.339844 235.046875 109.765625 235.546875 C 109.828125 235.609375 109.894531 235.675781 109.960938 235.742188 C 110.066406 236.507812 110.019531 236.828125 109.582031 237.476562 C 108.875 237.964844 108.464844 238.027344 107.621094 237.96875 C 107.226562 237.890625 107.226562 237.890625 106.824219 237.609375 C 106.546875 236.847656 106.484375 236.148438 106.640625 235.351562 C 107.265625 234.597656 107.824219 234.390625 108.789062 234.570312 Z M 108.789062 234.570312 "/>
<path style=" stroke:none;fill-rule:nonzero;fill:rgb(93.333334%,76.47059%,42.352942%);fill-opacity:1;" d="M 101.5625 61.328125 C 101.5625 61.457031 101.5625 61.585938 101.5625 61.71875 C 101.253906 61.886719 100.945312 62.054688 100.632812 62.21875 C 100.460938 62.3125 100.289062 62.40625 100.113281 62.5 C 99.570312 62.710938 99.363281 62.707031 98.828125 62.5 C 99.210938 62.304688 99.59375 62.109375 99.976562 61.914062 C 100.296875 61.75 100.296875 61.75 100.621094 61.585938 C 101.171875 61.328125 101.171875 61.328125 101.5625 61.328125 Z M 101.5625 61.328125 "/>
<path style=" stroke:none;fill-rule:nonzero;fill:rgb(92.54902%,76.47059%,41.960785%);fill-opacity:1;" d="M 107.226562 58.789062 C 106.371094 59.4375 105.785156 59.675781 104.6875 59.765625 C 106.285156 58.476562 106.285156 58.476562 107.226562 58.789062 Z M 107.226562 58.789062 "/>
</g>
</svg>
