<?xml version="1.0" encoding="UTF-8" standalone="no"?>
<!-- Created with Inkscape (http://www.inkscape.org/) -->

<svg
   width="256"
   height="256"
   viewBox="0 0 256 256"
   version="1.1"
   id="svg1"
   xml:space="preserve"
   sodipodi:docname="Mucilage.svg"
   inkscape:version="1.3.1 (9b9bdc1480, 2023-11-25, custom)"
   xmlns:inkscape="http://www.inkscape.org/namespaces/inkscape"
   xmlns:sodipodi="http://sodipodi.sourceforge.net/DTD/sodipodi-0.dtd"
   xmlns="http://www.w3.org/2000/svg"
   xmlns:svg="http://www.w3.org/2000/svg"><sodipodi:namedview
     id="namedview1"
     pagecolor="#ffffff"
     bordercolor="#111111"
     borderopacity="1"
     inkscape:showpageshadow="0"
     inkscape:pageopacity="0"
     inkscape:pagecheckerboard="1"
     inkscape:deskcolor="#d1d1d1"
     showgrid="false"
     inkscape:clip-to-page="true"
     inkscape:zoom="1.6433737"
     inkscape:cx="79.105562"
     inkscape:cy="138.13048"
     inkscape:window-width="1854"
     inkscape:window-height="1008"
     inkscape:window-x="0"
     inkscape:window-y="0"
     inkscape:window-maximized="1"
     inkscape:current-layer="svg1" /><defs
     id="defs1"><filter
       style="color-interpolation-filters:sRGB"
       id="filter1"
       x="-0.0021010177"
       y="-0.0017677001"
       width="1.004202"
       height="1.0035354"><feGaussianBlur
         stdDeviation="0.096860525"
         id="feGaussianBlur1" /></filter></defs><g
     id="layer1"
     style="display:inline"
     transform="matrix(1.26,0,0,1.26,2,2)"><path
       style="display:inline;fill:#007f66;fill-opacity:1;stroke-width:1.00726"
       d="M 89.845705,199.4317 C 45.741374,195.10709 8.8153979,160.79159 1.1081263,116.96739 c -1.47750172,-8.4012 -1.47750172,-25.826426 0,-34.227624 C 4.7963975,61.767947 15.560514,41.92493 31.287701,27.105492 39.757,19.125027 44.767361,15.629222 55.135939,10.466209 70.246905,2.941734 82.835489,0 99.924062,0 c 28.919288,0 53.887168,10.957683 73.828158,32.401057 19.15913,20.602599 28.44326,48.267207 25.80801,76.902023 -3.73605,40.59622 -32.36772,75.22553 -71.57038,86.56259 -7.83787,2.26665 -12.14104,2.95221 -25.5462,4.0699 -2.21724,0.18487 -7.886313,-0.0419 -12.597945,-0.50387 z"
       id="path1" /><path
       style="display:inline;fill:#00c7a0;fill-opacity:1;filter:url(#filter1)"
       d="M 95.5,170.64284 C 85.853836,166.18038 83.351825,153.84235 87.967856,133.5 c 6.276494,-27.65984 4.27559,-39.9 -6.52247,-39.9 -9.661874,0 -11.863048,9.20496 -7.030393,29.4 4.066248,16.99232 -4.278567,28.21197 -14.200298,27.24623 -9.921732,-0.96574 -15.933199,-11.76678 -10.097977,-35.21525 3.787278,-15.218948 4.00073,-18.417006 -0.437235,-31.775049 -7.433389,-13.878259 -1.755041,-29.421957 14.16385,-38.574145 11.944225,-6.867048 22.762076,-4.755825 34.827983,-1.343013 5.876684,1.662206 12.214594,4.156631 21.936844,4.753869 8.78109,0.539423 4.82081,-1.292869 17.91905,-1.71697 15.60574,-0.505289 22.77715,15.317542 16.02945,34.86738 -4.02459,11.660288 -4.19997,15.772213 -1.17271,27.494938 2.97361,11.515 3.2091,15.2215 1.21106,19.06167 -5.33163,10.24723 -18.82405,11.03796 -24.74945,1.45045 -2.52064,-4.07847 -2.66924,-10.45536 -0.48357,-20.75011 4.6735,-22.012698 2.08026,-33.5 -7.56259,-33.5 -10.78029,0 -12.95944,14.069996 -7.51165,48.5 5.11626,32.33467 4.45112,39.12617 -4.4853,45.79817 -3.30711,2.46912 -10.425222,3.13834 -14.30245,1.34467 z"
       id="path3" /></g></svg>
