<?xml version="1.0" encoding="UTF-8" standalone="no"?>
<!-- Created with Inkscape (http://www.inkscape.org/) -->

<svg
   width="512"
   height="512"
   viewBox="0 0 512 512"
   version="1.1"
   id="svg1"
   xml:space="preserve"
   xmlns="http://www.w3.org/2000/svg"
   xmlns:svg="http://www.w3.org/2000/svg"><defs
     id="defs1" /><g
     id="layer1"><path
       id="rect1"
       style="display:inline;fill:#fcfcfc;fill-opacity:1;stroke-width:6.69332;stroke-linecap:round"
       d="M 316.76562,140.41996 C 305.44441,140.48447 293,141.00004 293,141.00004 c 0,0 -6.62173,0.61372 -9,3 -2.37827,2.38628 -3,8.5 -3,8.5 v 56.20668 h -56.793 c 0,0 -6.08398,0.65288 -8.5,3 -2.41602,2.34712 -3,9 -3,9 v 40 c 0,0 0.66092,6.63306 3,9 2.33908,2.36694 8.5,3 8.5,3 H 281 V 329.5 c 0,0 0.65288,6.08398 3,8.5 2.34712,2.41602 9,3 9,3 h 40 c 0,0 6.63306,-0.66092 9,-3 2.36694,-2.33908 3,-8.5 3,-8.5 v -56.79328 h 56.207 c 0,0 6.03416,-0.53552 8.5,-3 2.46584,-2.46448 1.67885,-0.8587 3,-9 1.32115,-8.1413 0,-40 0,-40 0,0 -0.61372,-6.62173 -3,-9 -2.38628,-2.37827 -8.5,-3 -8.5,-3 H 345 v -56.20668 c 0,0 -0.53552,-6.03416 -3,-8.5 -2.46448,-2.46584 -0.8587,-1.67885 -9,-3 -3.05299,-0.49543 -9.44165,-0.61878 -16.23438,-0.58008 z" /></g></svg>
