<?xml version="1.0" encoding="UTF-8" standalone="no"?>
<!-- Created with Inkscape (http://www.inkscape.org/) -->

<svg
   version="1.1"
   id="svg1"
   width="200"
   height="200"
   viewBox="0 0 200 200"
   sodipodi:docname="Nitrogen-Inkscape.svg"
   inkscape:version="1.3.1 (9b9bdc1480, 2023-11-25, custom)"
   xml:space="preserve"
   xmlns:inkscape="http://www.inkscape.org/namespaces/inkscape"
   xmlns:sodipodi="http://sodipodi.sourceforge.net/DTD/sodipodi-0.dtd"
   xmlns:xlink="http://www.w3.org/1999/xlink"
   xmlns="http://www.w3.org/2000/svg"
   xmlns:svg="http://www.w3.org/2000/svg"><defs
     id="defs1"><linearGradient
       id="linearGradient1"
       inkscape:collect="always"><stop
         style="stop-color:#77c85f;stop-opacity:1;"
         offset="0.213479"
         id="stop1" /><stop
         style="stop-color:#6cb869;stop-opacity:1;"
         offset="0.84633327"
         id="stop3" /><stop
         style="stop-color:#69b26e;stop-opacity:1;"
         offset="0.93234044"
         id="stop2" /></linearGradient><radialGradient
       inkscape:collect="always"
       xlink:href="#linearGradient1"
       id="radialGradient2"
       cx="100"
       cy="100"
       fx="100"
       fy="100"
       r="92"
       gradientTransform="matrix(1,0,0,1.0869565,0,-8.6956523)"
       gradientUnits="userSpaceOnUse" /></defs><sodipodi:namedview
     id="namedview1"
     pagecolor="#ffffff"
     bordercolor="#111111"
     borderopacity="1"
     inkscape:showpageshadow="0"
     inkscape:pageopacity="0"
     inkscape:pagecheckerboard="1"
     inkscape:deskcolor="#d1d1d1"
     inkscape:zoom="3.7935214"
     inkscape:cx="92.262561"
     inkscape:cy="102.27964"
     inkscape:window-width="1854"
     inkscape:window-height="1008"
     inkscape:window-x="0"
     inkscape:window-y="0"
     inkscape:window-maximized="1"
     inkscape:current-layer="g1" /><g
     inkscape:groupmode="layer"
     inkscape:label="Image"
     id="g1"><path
       style="display:inline;fill:url(#radialGradient2);stroke-width:1.0149"
       d="m 8.0011016,153 c -0.0027,-32.27899 4.73e-4,-19.52128 0,-106 C 30.964415,33.117811 80.005078,5.4659024 89.000437,0.00231398 c 10.732779,-0.00366995 19.924703,-0.002439966 21.999813,0 C 124.78004,8.3856966 178.22741,38.60326 191.99959,47 c -1e-4,35.43461 9.7e-4,32.350028 0,106 -14.07883,8.41072 -66.96544,38.66138 -80.99934,47 H 89.000437 C 78.870831,193.95918 25.308389,163.33841 8.0011016,153 Z"
       id="path4"
       inkscape:label="Hex"
       clip-path="none"
       sodipodi:nodetypes="ccccccccc" /><path
       style="display:inline;fill:#ccf19a"
       d="M 77.412384,167.73555 C 66.260258,165.93599 55.970789,158.4919 51.592367,149.14859 44.385819,133.77022 50.644172,114.99503 64.951506,106.41154 69.605518,103.61943 77.427792,95.923132 81.004766,89.876991 85.3287,82.568267 87.482298,72.469522 88.004144,67 88.657175,60.155514 89.12349,56.676238 91.532897,51.824874 99.115901,36.556423 119.37387,29.167951 134.97326,36.478073 c 23.92356,11.210955 24.55137,46.77439 0.94223,59.058882 -6.63729,3.453567 -13.1197,10.688025 -15.50093,14.837945 -2.38123,4.14992 -5.99024,14.88263 -6.30954,22.1251 -0.49341,11.19142 -2.04004,16.66071 -7.14243,23.04184 -6.56523,8.21059 -19.994318,13.7357 -29.550206,12.19371 z m 10.254283,-12.73988 c 6.942843,-2.31349 12.707123,-8.63462 14.169853,-15.5387 3.68129,-17.37561 -14.116877,-31.07845 -30.169597,-23.22764 -10.61155,5.18973 -14.619588,19.31716 -8.398833,29.604 4.923503,8.14167 15.519883,12.1209 24.398577,9.16234 z m 22.763873,-40.79082 c 1.45039,-0.70613 3.05511,-3.135 5.75536,-7.88969 3.45397,-6.08188 1.50245,-8.46913 -5.34473,-8.908555 -8.25439,0.301692 -11.578903,8.558665 -6.2294,15.236905 2.33139,2.33139 3.50697,2.68684 5.81877,1.56134 z M 96.181623,87.234255 C 93.686096,84.738728 92.0001,84.482364 89.847204,86.33575 c -1.224359,1.054028 -5.92412,8.973707 -6.427402,10.830969 -0.699103,2.579899 0.104459,4.614181 2.639861,5.703471 8.52084,2.17037 17.316097,-6.71002 10.12196,-15.635935 z M 127.33333,86.66234 c 6.94285,-2.313493 12.70713,-8.634619 14.16986,-15.538708 C 145.18511,53.744997 127.38911,40.04382 111.33359,47.896 100.72204,53.085728 96.714002,67.21316 102.93476,77.5 c 4.9235,8.141664 15.51988,12.120898 24.39857,9.16234 z"
       id="path11"
       sodipodi:nodetypes="sssssssszsssssssscssscsscssscsss"
       inkscape:label="icon" /></g></svg>
