<?xml version="1.0" encoding="UTF-8" standalone="no"?>
<!-- Created with Inkscape (http://www.inkscape.org/) -->

<svg
   version="1.1"
   id="svg1"
   width="512"
   height="512"
   viewBox="0 0 512 512"
   xml:space="preserve"
   xmlns:xlink="http://www.w3.org/1999/xlink"
   xmlns="http://www.w3.org/2000/svg"
   xmlns:svg="http://www.w3.org/2000/svg"><defs
     id="defs1"><linearGradient
       id="linearGradient1"><stop
         style="stop-color:#77c85f;stop-opacity:1;"
         offset="0.213479"
         id="stop1" /><stop
         style="stop-color:#6cb869;stop-opacity:1;"
         offset="0.84633327"
         id="stop3" /><stop
         style="stop-color:#69b26e;stop-opacity:1;"
         offset="0.93234044"
         id="stop2" /></linearGradient><radialGradient
       xlink:href="#linearGradient1"
       id="radialGradient2"
       cx="100"
       cy="100"
       fx="100"
       fy="100"
       r="92"
       gradientTransform="matrix(1.26,0,0,1.3695652,2,-8.9565219)"
       gradientUnits="userSpaceOnUse" /></defs><g
     id="g1"
     transform="scale(2)"><path
       style="display:inline;fill:#69b26e;stroke-width:1.27877;fill-opacity:1"
       d="m 12.081389,194.78 c -0.0034,-40.67153 5.95e-4,-24.59681 0,-133.56 C 41.015163,43.728442 102.8064,8.887037 114.14055,2.0029156 c 13.52331,-0.00462 25.10513,-0.00307 27.71977,0 C 159.22285,12.565978 226.56654,50.640108 243.91948,61.22 c -1.2e-4,44.64761 0.001,40.76104 0,133.56 -17.73932,10.59751 -84.37645,48.71334 -102.05916,59.22 H 114.14055 C 101.37725,246.38857 33.88857,207.8064 12.081389,194.78 Z"
       id="path4"
       clip-path="none" /><path
       style="display:inline;fill:#ccf19a;stroke-width:1.26"
       d="m 99.539604,213.34679 c -14.051679,-2.26744 -27.01641,-11.647 -32.533222,-23.41957 -9.08025,-19.37674 -1.194725,-43.03348 16.832516,-53.84868 5.864055,-3.51806 15.72012,-13.21539 20.227112,-20.83353 5.44815,-9.20899 8.16169,-21.933412 8.81921,-28.82501 0.82282,-8.624052 1.41038,-13.00794 4.44623,-19.120659 9.55458,-19.238248 35.07963,-28.54772 54.73486,-19.336969 23.19987,10.871823 28.32944,39.129058 17.79039,58.243438 -3.63808,6.5983 -9.06821,11.82513 -16.30256,16.3615 -7.98699,5.00831 -16.83144,13.27616 -19.83179,18.50506 -3.00035,5.2289 -7.54771,18.75212 -7.95002,27.87763 -0.6217,14.10119 -2.57046,20.99249 -8.99947,29.03272 -8.27219,10.34534 -25.19284,17.30698 -37.233256,15.36407 z M 112.46,197.29454 c 8.74798,-2.91499 16.01098,-10.87962 17.85402,-19.57876 4.63842,-21.89327 -17.78727,-39.15884 -38.013697,-29.26682 -13.370553,6.53906 -18.420681,24.33962 -10.58253,37.30104 6.203614,10.2585 19.555057,15.27233 30.742207,11.54454 z m 28.68248,-51.39643 c 1.82749,-0.88972 3.84944,-3.9501 7.25175,-9.94101 4.35201,-7.66317 1.89309,-10.6711 -6.73436,-11.22478 -10.40053,0.38013 -14.58941,10.78392 -7.84904,19.1985 2.93755,2.93755 4.41878,3.38542 7.33165,1.96729 z m -17.95364,-33.98295 c -3.14436,-3.14436 -5.26871,-3.46738 -7.98136,-1.13212 -1.5427,1.32808 -7.46439,11.30688 -8.09853,13.64703 -0.88087,3.25067 0.13162,5.81386 3.32623,7.18637 10.73625,2.73467 21.81828,-8.45463 12.75366,-19.70128 z M 162.44,111.19455 c 8.74799,-2.915 16.01098,-10.87962 17.85402,-19.578774 4.63922,-21.89708 -17.78374,-39.160563 -38.0137,-29.266816 -13.37055,6.539057 -18.42068,24.339622 -10.58252,37.30104 6.20361,10.2585 19.55505,15.27233 30.7422,11.54455 z"
       id="path11" /></g></svg>
