<?xml version="1.0" encoding="UTF-8" standalone="no"?>
<!-- Created with Inkscape (http://www.inkscape.org/) -->

<svg
   version="1.1"
   id="svg1"
   width="200"
   height="200"
   viewBox="0 0 200 200"
   xml:space="preserve"
   xmlns="http://www.w3.org/2000/svg"
   xmlns:svg="http://www.w3.org/2000/svg"><defs
     id="defs1"><filter
       style="color-interpolation-filters:sRGB"
       id="filter15"
       x="-0.0027914331"
       y="-0.0095489089"
       width="1.0055829"
       height="1.0190978"><feGaussianBlur
         stdDeviation="0.12245651"
         id="feGaussianBlur15" /></filter></defs><g
     id="g1"><path
       style="display:inline;fill:#a1a1a1;fill-opacity:1;stroke-width:1.0149"
       d="m 8.0011016,153 c -0.0027,-32.27899 4.73e-4,-19.52128 0,-106 C 30.964415,33.117811 80.005078,5.4659024 89.000437,0.00231398 c 10.732779,-0.00366995 19.924703,-0.002439966 21.999813,0 C 124.78004,8.3856966 178.22741,38.60326 191.99959,47 c -1e-4,35.43461 9.7e-4,32.350028 0,106 -14.07883,8.41072 -66.96544,38.66138 -80.99934,47 H 89.000437 C 78.870831,193.95918 25.308389,163.33841 8.0011016,153 Z"
       id="path4"
       clip-path="none" /><path
       style="display:inline;fill:#424242;fill-opacity:1;filter:url(#filter15)"
       d="m 54.565878,142.97538 c -11.323975,-6.78893 -8.822946,-24.58514 3.938036,-28.02131 14.191663,-3.82142 25.013612,12.25083 16.396894,24.3519 -4.07144,5.71781 -13.94603,7.49966 -20.33493,3.66941 z m 37.723744,0.30017 C 83.211485,138.48312 81.765541,125.30923 89.565951,118.46038 99.835298,109.44378 115,116.33698 115,130.02159 c 0,11.57288 -12.29858,18.75043 -22.710378,13.25396 z m 37.569118,0.0354 c -5.91192,-3.12293 -9.20892,-10.75948 -7.4395,-17.23144 4.8236,-17.64315 30.34922,-14.25017 30.20773,4.01534 -0.0886,11.44017 -12.49615,18.64228 -22.76823,13.2161 z"
       id="path13" /></g></svg>
