<?xml version="1.0" encoding="UTF-8" standalone="no"?>
<!-- Created with Inkscape (http://www.inkscape.org/) -->

<svg
   version="1.1"
   id="svg1"
   width="256"
   height="256"
   viewBox="0 0 256 256"
   xml:space="preserve"
   sodipodi:docname="Oxygen.svg"
   inkscape:version="1.3.1 (9b9bdc1480, 2023-11-25, custom)"
   xmlns:inkscape="http://www.inkscape.org/namespaces/inkscape"
   xmlns:sodipodi="http://sodipodi.sourceforge.net/DTD/sodipodi-0.dtd"
   xmlns="http://www.w3.org/2000/svg"
   xmlns:svg="http://www.w3.org/2000/svg"><sodipodi:namedview
     id="namedview1"
     pagecolor="#ffffff"
     bordercolor="#111111"
     borderopacity="1"
     inkscape:showpageshadow="0"
     inkscape:pageopacity="0"
     inkscape:pagecheckerboard="1"
     inkscape:deskcolor="#d1d1d1"
     showgrid="false"
     inkscape:clip-to-page="true"
     inkscape:zoom="2.4204958"
     inkscape:cx="118.15761"
     inkscape:cy="126.42038"
     inkscape:window-width="1854"
     inkscape:window-height="1008"
     inkscape:window-x="0"
     inkscape:window-y="0"
     inkscape:window-maximized="1"
     inkscape:current-layer="svg1" /><defs
     id="defs1"><filter
       style="color-interpolation-filters:sRGB"
       id="filter63"
       x="-0.0076799998"
       y="-0.0076799998"
       width="1.01536"
       height="1.01536"><feGaussianBlur
         stdDeviation="0.1024"
         id="feGaussianBlur63" /></filter><filter
       style="color-interpolation-filters:sRGB"
       id="filter64"
       x="-0.071600422"
       y="-0.066805681"
       width="1.1432008"
       height="1.1336114"><feGaussianBlur
         stdDeviation="0.70362055"
         id="feGaussianBlur64" /></filter><filter
       style="color-interpolation-filters:sRGB"
       id="filter65"
       x="-0.071855164"
       y="-0.066585425"
       width="1.1437103"
       height="1.1331708"><feGaussianBlur
         stdDeviation="0.44571469"
         id="feGaussianBlur65" /></filter><filter
       style="color-interpolation-filters:sRGB"
       id="filter70"
       x="-0.004391326"
       y="-0.0042509544"
       width="1.0087827"
       height="1.0085019"><feGaussianBlur
         stdDeviation="0.18368105"
         id="feGaussianBlur70" /></filter></defs><g
     id="g1"
     transform="matrix(1.26,0,0,1.26,2,2)"><path
       style="display:inline;mix-blend-mode:normal;fill:#0098c3;fill-opacity:1;stroke-width:1.0149"
       d="m 8.0011016,153 c -0.0027,-32.27899 4.73e-4,-19.52128 0,-106 C 30.964415,33.117811 80.005078,5.4659024 89.000437,0.00231398 c 10.732779,-0.00366995 19.924703,-0.002439966 21.999813,0 C 124.78004,8.3856966 178.22741,38.60326 191.99959,47 c -1e-4,35.43461 9.7e-4,32.350028 0,106 -14.07883,8.41072 -66.96544,38.66138 -80.99934,47 H 89.000437 C 78.870831,193.95918 25.308389,163.33841 8.0011016,153 Z"
       id="path4"
       clip-path="none" /><path
       style="display:inline;fill:#8bf7ff;fill-opacity:1;filter:url(#filter70)"
       d="M 62.985714,157.5566 C 51.805382,149.4371 43.495721,129.17082 55.664686,111.6064 66.344514,96.191362 85.856069,94.301496 98.408769,100.98481 c 11.032111,5.87373 16.283961,15.13454 17.825401,24.51109 1.76906,10.76118 -1.81187,23.54813 -12.98363,32.08188 -9.494836,7.25281 -26.52392,10.40365 -40.264826,-0.0212 z m 31.79244,-2.87831 c 17.698746,-8.82574 19.111486,-31.4206 7.192366,-42.584 -17.958667,-16.820011 -44.391898,-3.08648 -44.545029,17.99499 -0.152305,20.96772 20.727765,32.27629 37.352663,24.58901 z m 32.018996,-49.15364 c -8.77396,0.0338 -21.54608,-7.607054 -21.74941,-22.923742 0.19689,-11.784548 9.78264,-22.095127 22.97562,-22.055827 11.03885,0.08748 21.96595,8.960086 22.02243,22.610451 -0.1047,15.166996 -13.5987,22.871458 -23.24864,22.369118 z m 12.19903,-11.225083 c 9.17099,-9.522046 3.55047,-26.50297 -11.37622,-27.106027 -12.6428,0.0721 -19.56695,13.04155 -14.49144,23.078203 5.24279,10.315587 18.34701,11.680707 25.86766,4.027824 z"
       id="path30" /><path
       id="path31"
       style="display:inline;mix-blend-mode:normal;fill:#8bf7ff;stroke-width:1.00373;stroke-opacity:0.487466;filter:url(#filter63)"
       d="m 97.5,34 a 16,16 0 0 0 -16,16 16,16 0 0 0 16,16 16,16 0 0 0 16,-16 16,16 0 0 0 -16,-16 z m -4.380859,10.509766 c 0.115327,-0.0021 0.231779,-0.0013 0.349609,0.002 1.077307,0.02965 2.258257,0.285009 3.525391,0.814453 5.996019,2.5053 7.943389,9.029278 3.902339,13.070312 -2.727731,2.727752 -5.123394,3.039091 -8.812496,1.140625 C 83.600567,55.17146 85.853521,44.63987 93.119141,44.509813 Z"
       transform="matrix(0.91397835,0,0,0.9139781,8.2659863,4.1953984)" /><path
       id="path47"
       style="display:inline;fill:#8ceff9;filter:url(#filter64)"
       d="m 83.449219,113.66211 c -1.107719,0.0225 -2.233663,0.17825 -3.363281,0.48242 -5.451795,1.46802 -4.817354,6.14814 1.21875,8.99609 12.120793,5.71889 11.483995,5.19951 13.248046,10.81836 1.875318,5.9733 2.557261,6.34629 4.240235,2.31836 4.434541,-10.61331 -4.635804,-22.83232 -15.34375,-22.61523 z" /><path
       id="path62"
       style="display:inline;fill:#8ceff9;stroke-width:0.617934;filter:url(#filter65)"
       d="m 127.67374,72.532855 c -0.66994,0.01421 -1.35089,0.112541 -2.03407,0.304583 -3.29719,0.926857 -4.03616,5.774194 -0.31108,7.41233 4.43299,1.949452 6.99734,1.791555 8.06422,5.339101 1.13417,3.771334 2.54282,3.76555 3.56066,1.222455 2.68196,-6.700875 -1.93973,-14.57325 -9.27973,-14.278469 z" /></g></svg>
