<?xml version="1.0" encoding="UTF-8" standalone="no"?>
<!-- Created with Inkscape (http://www.inkscape.org/) -->

<svg
   width="512"
   height="512"
   viewBox="0 0 512 512"
   version="1.1"
   id="svg1"
   xml:space="preserve"
   xmlns="http://www.w3.org/2000/svg"
   xmlns:svg="http://www.w3.org/2000/svg"><defs
     id="defs1" /><g
     id="layer1"
     style="display:inline"
     transform="matrix(2.52,0,0,2.52,4,4)"><path
       style="display:inline;fill:#9f1360;fill-opacity:1;stroke-width:1.00726"
       d="M 89.845705,199.4317 C 45.741374,195.10709 8.8153979,160.79159 1.1081263,116.96739 c -1.47750172,-8.4012 -1.47750172,-25.826426 0,-34.227624 C 4.7963975,61.767947 15.560514,41.92493 31.287701,27.105492 39.757,19.125027 44.767361,15.629222 55.135939,10.466209 70.246905,2.941734 82.835489,0 99.924062,0 c 28.919288,0 53.887168,10.957683 73.828158,32.401057 19.15913,20.602599 28.44326,48.267207 25.80801,76.902023 -3.73605,40.59622 -32.36772,75.22553 -71.57038,86.56259 -7.83787,2.26665 -12.14104,2.95221 -25.5462,4.0699 -2.21724,0.18487 -7.886313,-0.0419 -12.597945,-0.50387 z"
       id="path1" /><path
       style="display:inline;fill:#ff7d9b;fill-opacity:1"
       d="m 59,165.91495 c -6.971457,-1.3415 -18.170099,-7.50368 -23.534823,-12.9503 -5.914842,-6.00514 -5.216803,-7.59688 1.154644,-2.63293 10.712176,8.34578 23.756709,9.87449 36.141977,4.23553 15.559054,-7.08397 23.338754,-25.08139 16.678027,-41.7378 -1.684172,-4.21159 -1.950298,-3.57979 0.191037,-4.93806 1.327677,-0.84216 0.687339,-0.44263 2.324802,-1.51465 2.655499,3.3751 5.644085,4.113 7.995915,4.19934 2.351831,0.0863 5.961921,-0.85647 8.353481,-4.17831 1.20402,0.76381 1.5238,0.94587 2.46778,1.57022 1.99569,1.31997 1.63139,0.48394 -0.18647,5.42935 -2.17334,5.9125 -2.02911,15.74878 -0.009,22.55061 2.21545,7.46022 11.61074,16.96022 19.71033,19.93001 11.92122,4.37102 25.66333,1.72215 34.95206,-6.7372 1.50676,-1.37223 3.01516,-2.21936 3.352,-1.88253 1.71753,1.71754 -8.12972,10.47024 -16.577,14.73442 -14.63246,7.38644 -32.74374,6.27258 -47.21312,-2.90362 -2.08611,-1.32297 -3.09896,-2.02351 -4.38354,-3.00029 -1.057101,0.64572 -1.349864,0.87573 -2.289307,1.53374 C 87.013227,165.40799 72.428385,168.49893 59,165.91495 Z m 17.147993,-29.2483 c -7.110481,-4.64599 -10.933716,-9.42643 -15.273076,-17.5679 -3.299948,-6.19134 -4.893223,-16.13943 -4.26564,-22.429231 0.302044,-3.027165 0.95207,-2.726471 6.016995,-2.437027 5.746715,1.55984 5.446647,-0.134058 5.77945,6.806358 0.555997,11.59501 6.043198,21.20973 15.178234,26.56322 2.428824,1.42339 3.032487,1.81364 4.596727,3.55545 0,3.57116 -2.505995,9.24276 -4.018083,9.28307 -0.632144,0.0169 -4.591543,-1.53731 -8.014607,-3.77394 z m 39.138977,2.73013 c -1.00391,-1.28397 -3.75175,-4.66018 -3.28697,-8.49909 0.0531,-0.43891 1.55051,-1.53962 3.44558,-2.43889 8.89438,-4.22066 16.24592,-17.12553 16.55442,-27.87968 0.18068,-6.298506 -0.42725,-5.289853 5.93783,-6.824372 6.12857,-0.21793 5.30588,-0.58621 5.53885,5.933765 0.55636,15.570657 -8.39766,29.602797 -19.93821,37.143727 -4.73837,3.0962 -6.93083,4.25364 -8.2515,2.56454 z m 59.54018,-2.92427 c -0.31125,-0.53488 -0.11348,-3.67251 0.43949,-6.97251 1.38105,-8.24184 -0.31073,-15.71095 -5.31084,-23.44709 -11.56629,-17.895303 -37.30752,-19.915942 -51.96306,-4.42921 -4.8086,5.08132 -3.42683,5.37447 -6.31886,3.64398 -0.77959,-0.46648 -1.09789,-0.63758 -2.12417,-1.22533 0.45453,-1.31047 1.23529,-3.97387 -0.17399,-7.339502 -1.34904,-3.22178 -4.23538,-5.371872 -7.41596,-5.946395 0.003,-1.145843 -0.0294,-1.544553 -0.0303,-3.129734 -0.002,-2.534315 -0.88091,-1.632024 5.98013,-2.47586 4.87302,-0.599331 10.45644,-4.413102 15.1603,-8.813009 C 130.06204,69.797518 133.48264,61.629607 133.47161,51.5 133.46439,44.86065 133.0059,42.564553 130.77595,38 126.6777,29.611186 119.12703,23.111404 108.5,18.824376 c -3,-1.210224 -3,-1.210224 -0.37867,-1.571306 3.78001,-0.520688 13.27685,3.089902 19.64624,7.469278 7.5511,5.191879 11.77528,10.332481 16.50964,20.091345 3.68337,7.592491 4.0748,9.17675 4.51232,18.262615 0.23954,4.974461 -0.40596,7.162716 -0.14565,9.622157 2.05176,1.105629 2.6802,1.385168 5.43826,2.588074 2.5309,1.10383 7.26149,4.847809 11.34439,8.952185 5.88756,5.918533 7.84768,8.740623 10.59994,15.261276 3.11068,7.36981 3.3772,8.82713 3.38344,18.5 0.005,8.38208 -0.39902,11.40213 -2.00504,14.97251 -1.10649,2.45987 -2.26646,4.03487 -2.57772,3.5 z m -152.378362,-5.6267 c -3.479142,-10.47471 -1.901346,-23.90045 4.252751,-36.187405 3.154913,-6.298937 13.605703,-16.537431 19.866542,-19.462977 2.46596,-1.152286 3.539383,-1.985756 5.485731,-3.165519 0.12259,-2.174022 -0.530276,-3.236767 -0.506786,-7.334481 C 51.644059,47.785531 59.95661,32.713949 74.154331,23.705869 82.339214,18.512776 94,15.16016 94,18 c 0,0.55 -0.603125,1 -1.340278,1 -0.737152,0 -4.09907,1.378585 -7.470927,3.063522 -15.30651,7.648753 -22.188954,25.097112 -16.331305,41.403094 3.877923,10.795005 11.724098,17.411572 22.899207,20.591589 8.14297,2.317184 7.09341,1.112193 7.051442,4.230596 -0.02594,1.927104 0.0082,0.788226 0.05721,2.386472 -3.595699,0.483988 -5.8752,2.678328 -6.930699,4.224797 -1.055499,1.546469 -2.604646,4.738616 -1.206592,9.12565 -1.293292,0.75443 -1.102851,0.61716 -1.846888,1.03787 -2.972358,1.6807 -1.451114,2.35849 -6.313268,-3.43465 C 80.256834,98.875353 75.877841,95.891633 72.436733,94.280165 64.616706,90.618056 52.201001,90.39266 44.74105,93.777376 30.219622,100.36601 21.769848,117.38596 25.392583,132.75 c 1.248648,5.29552 -1.045282,3.8117 -2.943795,-1.90419 z m 53.6041,-59.524944 c -1.690042,-2.050314 -2.742871,-4.221338 -2.742871,-4.618034 0,-1.674022 7.075856,-5.756652 12.74845,-7.519676 9.998074,-3.10737 17.851793,-2.922527 26.569453,-0.55152 5.14647,1.399723 14.09806,6.489101 14.09806,8.178559 0,0.716869 -0.57008,2.114427 -3.00734,4.799763 -3.2641,3.596337 -3.05485,3.794145 -7.03988,1.384177 -1.9042,-1.151577 -6.00892,-2.632477 -9.42867,-3.508576 -7.46537,-1.91254 -14.987932,-0.908408 -22.592376,3.01569 -2.663258,1.374313 -4.682979,2.378536 -4.86718,2.378536 -0.1842,0 -2.047604,-1.508605 -3.737646,-3.558919 z"
       id="path2" /></g></svg>
