<?xml version="1.0" encoding="UTF-8" standalone="no"?>
<!-- Created with Inkscape (http://www.inkscape.org/) -->

<svg
   width="512"
   height="512"
   viewBox="0 0 512 512"
   version="1.1"
   id="svg1"
   xml:space="preserve"
   xmlns="http://www.w3.org/2000/svg"
   xmlns:svg="http://www.w3.org/2000/svg"><defs
     id="defs1" /><g
     id="layer1"
     transform="matrix(3.9997724,0,0,3.9998583,0.02207497,0.01056256)"><path
       style="display:inline;fill:#002a9e;fill-opacity:1;stroke-width:0.997406"
       d="m 0,28 v 72 H 128 V 28 Z"
       id="path4" /><path
       id="path1"
       style="display:inline;fill:#040a43;fill-opacity:1;stroke-width:0.997406"
       d="m 103.00034,-0.00264073 c 16.00457,0.00140446 16.77435,-0.22463402 21.0012,4.00014173 4.22685,4.2247758 4.00143,4.5368142 4.00022,21.000744 -10e-4,16.46393 0,37.291239 0,37.291239 0,0 -9.43519,-3.589314 -18.1304,-8.011719 -14.059965,-7.150929 -16.674259,-8.042205 -23.628907,-8.052734 -6.938181,-0.0105 -9.450394,0.829747 -22.28125,7.455078 -7.953916,4.107077 -16.519888,7.966058 -19.035156,8.576172 -7.682991,1.863617 -14.35127,-0.0435 -29.843746,-7.65625 L -0.00551906,47.13714 c 0,0 0.00140162,-6.146982 0,-22.138895 C -0.00692068,9.0063321 -0.24241121,8.2408832 3.9947086,3.997501 8.2318284,-0.24588126 8.9911815,-0.00395067 24.995904,-0.00264073 c 8.93888,-0.01 11.650276,0.005 39.002219,0 13.67597,-0.003 29.960797,-7.9342e-4 39.002217,0 z M 85.386985,65.682062 c 6.356535,0.02577 12.938622,2.841049 24.808595,8.376953 L 128.00176,82.311 c 0,0 0.001,4.656202 0,20.689 -10e-4,16.0328 -0.11368,17.1152 -4.00022,21.00175 -4.22581,4.22582 -4.97409,4.00115 -21.0012,4.00014 -9.04142,-5.7e-4 -39.002217,0 -39.002217,0 0,0 -30.063333,-1.9e-4 -39.002219,0 -16.0624741,3.4e-4 -16.7805154,0.23804 -21.0011954,-4.00014 -4.22068002,-4.23818 -4.00080641,-4.86382 -4.00022766,-21.00074 5.9309e-4,-16.536589 0,-35.770019 0,-35.770019 L 15.847921,74.748469 C 36.927848,84.680448 40.169466,85.20453 61.937766,74.041437 72.900637,68.419525 79.03045,65.65629 85.386985,65.682062 Z" /></g></svg>
