<?xml version="1.0" encoding="UTF-8" standalone="no"?>
<!-- Created with Inkscape (http://www.inkscape.org/) -->

<svg
   width="512"
   height="512"
   viewBox="0 0 512 512"
   version="1.1"
   id="svg1"
   xml:space="preserve"
   sodipodi:docname="PatchBathyFloor.svg"
   inkscape:version="1.3.1 (9b9bdc1480, 2023-11-25, custom)"
   xmlns:inkscape="http://www.inkscape.org/namespaces/inkscape"
   xmlns:sodipodi="http://sodipodi.sourceforge.net/DTD/sodipodi-0.dtd"
   xmlns="http://www.w3.org/2000/svg"
   xmlns:svg="http://www.w3.org/2000/svg"><sodipodi:namedview
     id="namedview1"
     pagecolor="#ffffff"
     bordercolor="#111111"
     borderopacity="1"
     inkscape:showpageshadow="0"
     inkscape:pageopacity="0"
     inkscape:pagecheckerboard="1"
     inkscape:deskcolor="#d1d1d1"
     inkscape:clip-to-page="true"
     inkscape:zoom="0.98501622"
     inkscape:cx="249.23447"
     inkscape:cy="239.58996"
     inkscape:window-width="1854"
     inkscape:window-height="1008"
     inkscape:window-x="0"
     inkscape:window-y="0"
     inkscape:window-maximized="1"
     inkscape:current-layer="svg1" /><defs
     id="defs1" /><g
     id="layer1"
     transform="matrix(-3.9958208,0,0,3.996041,511.51633,0.48352097)"><path
       style="display:inline;fill:#002a9e;fill-opacity:1;stroke-width:0.997406"
       d="m 124.00865,3.8829629 c 4.22685,4.22478 4.00418,5.0214085 4.00418,14.0138701 v 82.08124 H -0.12104668 c 0,0 -0.002,-73.070107 0,-82.08124 0.002,-9.0111325 -0.21649,-9.7756901 4.00418998,-14.0138701 4.22068,-4.23817995 5.07575,-3.9939979 14.0146397,-4.0039629 8.93889,-0.009965 46.048111,0 46.048111,0 0,0 37.006696,0.0148 46.048116,0 9.04141,-0.0148 9.78778,-0.22081705 14.01464,4.0039629 z"
       id="path4"
       inkscape:label="bg" /><path
       style="display:inline;fill:#040a43;fill-opacity:1;stroke-width:0.997406"
       d="M 128.01283,89.968166 V 67.458512 L 110.19744,59.206171 C 86.428733,48.196169 83.864169,47.945255 61.938406,59.189091 40.170084,70.352195 36.92984,69.827787 15.849893,59.895798 L -0.12104668,52.377074 V 89.968166 Z M 44.926511,47.403697 c 2.51527,-0.610115 11.080972,-4.469638 19.034896,-8.576719 12.830868,-6.625338 15.343526,-7.466086 22.281714,-7.455583 6.954654,0.01053 9.569546,0.901644 23.629529,8.052581 8.69521,4.422409 17.59867,8.027712 18.14018,8.011783 8.4e-4,-0.910214 0,-5.353176 0,-17.996953 L 111.03208,20.960367 C 95.890695,13.400317 93.658049,12.479876 86.287016,12.459827 78.877301,12.439677 76.705353,13.18115 61.643127,20.872961 45.353199,29.191722 45.007914,29.298742 36.637365,28.623334 29.650065,28.05954 25.950653,26.743329 15.710463,21.177789 8.8689233,17.459413 0.69210332,14.417152 -0.12104668,14.417152 c -0.004,0.22519 0,8.917438 0,17.866047 L 15.082833,39.747756 c 15.495068,7.60752 22.160679,9.51956 29.843678,7.655941 z"
       id="path1"
       sodipodi:nodetypes="ccssccccssssccsssssccss" /><path
       style="display:inline;fill:#4b4355;fill-opacity:1;stroke-width:0.997406"
       d="m 124.00865,124.00185 c 4.22685,-4.22478 4.00418,-5.01014 4.00418,-14.01387 0,-9.00373 0,-26.025759 0,-26.025759 -35.800052,0.04955 -80.087377,0.04926 -128.13387668,0 0,0 0,17.015429 0,26.025759 0,9.01033 -0.21649,9.77569 4.00418998,14.01387 4.22068,4.23818 4.98145,4.00396 14.0146397,4.00396 9.03319,0 46.3194,-0.006 46.3194,-0.006 0,0 36.753137,0.006 45.776827,0.006 9.02368,0 9.78778,0.22082 14.01464,-4.00396 z"
       id="path5"
       inkscape:label="floor" /></g></svg>
