<?xml version="1.0" encoding="UTF-8" standalone="no"?>
<!-- Created with Inkscape (http://www.inkscape.org/) -->

<svg
   width="512"
   height="512"
   viewBox="0 0 512 512"
   version="1.1"
   id="svg1"
   xml:space="preserve"
   xmlns="http://www.w3.org/2000/svg"
   xmlns:svg="http://www.w3.org/2000/svg"><defs
     id="defs1" /><g
     id="layer1"
     style="display:inline"
     transform="matrix(3.9961591,0,0,3.996041,0.0085184,0.48352097)"><path
       style="display:inline;fill:#e5f6f6;fill-opacity:1;stroke-width:0.997406"
       d="m 4.0017129,3.8829629 c -4.22685622,4.22478 -4.00330894,5.0029123 -4.00384455,14.0138701 -5.3561e-4,9.010958 0,57.056472 0,57.056472 H 64.059382 128.1209 c 0,0 -1.2e-4,-40.519868 0,-57.056472 7e-5,-9.0123896 0.21683,-9.7756901 -4.00385,-14.0138701 -4.22068,-4.23817995 -5.07457,-3.9940329 -14.01346,-4.0039629 -8.93889,-0.01 -46.044208,0 -46.044208,0 0,0 -37.002796,0.0148 -46.044213,0 C 8.9737525,-0.1358 8.2285692,-0.34181705 4.0017129,3.8829629 Z"
       id="path4" /><path
       id="path1"
       style="display:inline;fill:#5b8daf;fill-opacity:1;stroke-width:0.997406"
       d="m 128.1209,63.942407 c 0,0 -2.1e-4,37.023153 0,46.045573 2e-4,9.02242 0.223,9.78909 -4.00385,14.01387 -4.22685,4.22478 -4.96248,4.00392 -14.01346,4.00396 -9.05097,5e-5 -46.044208,0 -46.044208,0 0,0 -37.034655,-3.5e-4 -46.044213,0 -9.0095581,3.6e-4 -9.7927761,0.23422 -14.0134561,-4.00396 -4.22067994,-4.23818 -4.00313216,-4.99456 -4.00384455,-14.01387 -7.1238e-4,-9.01931 0,-46.045573 0,-46.045573 l 64.06151365,3e-6 z" /><path
       id="circle8"
       style="display:inline;fill:#5b8daf;fill-opacity:1;stroke-width:7.52766;stroke-linecap:round"
       d="M 64,42.5 C 52.125878,42.5 42.5,52.125878 42.5,64 h 43 C 85.5,52.125878 75.874122,42.5 64,42.5 Z" /><path
       id="path2"
       style="display:inline;fill:#5b8daf;fill-opacity:1"
       d="m 64,7 c -1.969254,0.7272929 -2.685689,3.094215 -2.990234,4.988281 -0.245025,4.289904 -0.05966,8.598769 -0.107422,12.896485 -3.754741,-2.096954 -7.395384,-4.411754 -11.22461,-6.365235 -1.798172,-0.688991 -4.211141,-1.238676 -5.833984,0.0957 -0.357328,2.068954 1.334624,3.873003 2.822266,5.083985 4.6305,2.981482 9.542801,5.513986 14.236328,8.40039 V 48 h 6.197265 V 32.099609 c 4.693486,-2.886528 9.605853,-5.418833 14.236329,-8.40039 1.487641,-1.210982 3.179594,-3.015031 2.822265,-5.083985 -1.622843,-1.334379 -4.035812,-0.784694 -5.833984,-0.0957 -3.829225,1.953481 -7.469868,4.268281 -11.22461,6.365235 -0.04776,-4.297712 0.137602,-8.606585 -0.107421,-12.896485 C 66.685897,10.118265 65.969198,7.696319 64,7 Z M 34.802734,23.5 c -1.967029,0.738233 -2.697597,3.102147 -3,5.003906 -0.222847,4.292947 -0.03825,8.604119 -0.09961,12.904297 -3.745807,-2.107493 -7.38498,-4.422714 -11.222656,-6.355469 -1.792578,-0.68329 -4.199965,-1.246074 -5.814453,0.0957 -0.38157,2.053534 1.355937,3.885673 2.822265,5.085937 3.592657,2.357147 7.41719,4.350799 11.115235,6.541016 -3.693385,2.203224 -7.518624,4.199596 -11.125,6.539062 -1.495769,1.212768 -3.178174,3.026997 -2.833985,5.099609 1.613099,1.343933 4.023848,0.780501 5.816407,0.09766 4.897345,-2.519331 9.544075,-5.507493 14.390624,-8.128907 4.590042,2.650063 9.181439,5.299157 13.771485,7.949219 1.032869,-1.788994 2.064777,-3.578192 3.097656,-5.367187 C 47.130658,50.314781 42.54121,47.665687 37.951172,45.015625 37.798242,39.50771 38.061712,33.989153 37.794922,28.488281 37.490002,26.594455 36.773164,24.225022 34.802734,23.5 Z m 58.615235,0 c -1.97043,0.725022 -2.687268,3.094455 -2.992188,4.988281 -0.266789,5.500872 -0.0033,11.019429 -0.15625,16.527344 L 76.5,52.964844 l 3.097656,5.367187 13.771485,-7.949219 c 4.846549,2.621414 9.493279,5.609576 14.390629,8.128907 1.79255,0.682844 4.2033,1.246276 5.8164,-0.09766 0.34419,-2.072612 -1.33821,-3.886841 -2.83398,-5.099609 -3.60638,-2.339466 -7.43162,-4.335838 -11.125002,-6.539062 3.698042,-2.190217 7.522582,-4.183869 11.115232,-6.541016 1.46633,-1.200264 3.20579,-3.032403 2.82422,-5.085937 -1.61449,-1.341778 -4.02383,-0.778994 -5.81641,-0.0957 -3.83767,1.932755 -7.47684,4.247976 -11.222652,6.355469 -0.06136,-4.300178 0.123239,-8.61135 -0.09961,-12.904297 -0.302403,-1.901759 -1.032971,-4.265673 -3,-5.003906 z" /><path
       id="path6"
       style="display:inline;fill:#e5f6f6;fill-opacity:1;stroke-width:0.996511"
       d="m 63.984521,120.78625 c -1.969255,-0.72223 -2.685689,-3.07266 -2.990255,-4.95353 -0.245011,-4.26 -0.05966,-8.53886 -0.107414,-12.80663 -3.75474,2.08234 -7.395384,4.38102 -11.224615,6.32088 -1.798173,0.6842 -4.211145,1.23006 -5.833985,-0.0949 -0.357328,-2.05454 1.334625,-3.84603 2.822267,-5.04857 4.6305,-2.96071 9.542826,-5.475529 14.236329,-8.341868 l 2e-5,-22.939116 6.197264,10e-7 v 22.939105 c 4.693486,2.866419 9.605849,5.381078 14.236327,8.341868 1.487642,1.20254 3.179595,2.99402 2.822268,5.04857 -1.622844,1.32507 -4.035814,0.77922 -5.833989,0.0949 -3.829219,-1.93987 -7.469863,-4.23854 -11.224604,-6.32089 -0.04776,4.26776 0.137594,8.54664 -0.107424,12.80664 -0.306294,1.85699 -1.022995,4.26206 -2.992216,4.95353 z M 34.787259,104.40119 c -1.967036,-0.73307 -2.697603,-3.08053 -2.999979,-4.969049 -0.222841,-4.263041 -0.03824,-8.544178 -0.0996,-12.814397 -3.745806,2.092811 -7.384982,4.391903 -11.222656,6.311193 -1.792583,0.678529 -4.199971,1.237397 -5.814458,-0.09502 -0.381568,-2.039228 1.355943,-3.858606 2.822262,-5.050507 3.59266,-2.340727 7.417193,-4.320492 11.11524,-6.495447 -3.69339,-2.187871 -7.518623,-4.170339 -11.124998,-6.493507 -1.49577,-1.204319 -3.178183,-3.005903 -2.833987,-5.06408 1.613098,-1.334569 4.023844,-0.775061 5.816401,-0.09698 4.897346,2.501779 9.544074,5.469128 14.390631,8.072271 4.590039,-2.631599 19.747049,-11.319815 24.337097,-13.951418 1.032869,1.776529 2.064778,3.553261 3.097656,5.329792 -4.590044,2.631601 -19.74512,11.31981 -24.335158,13.95141 -0.152931,5.46954 0.110545,10.949644 -0.156251,16.4122 -0.304917,1.880619 -1.021751,4.233549 -2.992187,4.953499 z m 58.61523,0 c -1.97042,-0.71995 -2.68727,-3.07288 -2.99218,-4.953518 -0.26679,-5.462545 -0.003,-10.94266 -0.15625,-16.412201 L 71.114867,72.063059 74.212523,66.733265 93.353659,77.705691 c 4.84655,-2.603149 9.493281,-5.570495 14.390621,-8.072278 1.79256,-0.678078 4.2033,-1.237586 5.81641,0.09699 0.34418,2.058173 -1.33822,3.859761 -2.83399,5.064077 -3.60637,2.323173 -7.43161,4.305633 -11.124991,6.493506 3.698031,2.174952 7.522581,4.154723 11.115231,6.495444 1.46632,1.1919 3.20579,3.011283 2.82422,5.050503 -1.61449,1.332434 -4.02383,0.773566 -5.81641,0.09502 -3.83767,-1.919283 -7.47685,-4.218376 -11.222651,-6.31119 -0.0614,4.270223 0.12324,8.551358 -0.0996,12.814389 -0.3024,1.888518 -1.03296,4.235978 -2.99998,4.969058 z" /><circle
       style="display:inline;fill:#e5f6f6;fill-opacity:1;stroke-width:7.49076;stroke-linecap:round"
       id="path7"
       cx="64"
       cy="64"
       r="14.5" /></g></svg>
