<?xml version="1.0" encoding="UTF-8" standalone="no"?>
<!-- Created with Inkscape (http://www.inkscape.org/) -->

<svg
   width="512"
   height="512"
   viewBox="0 0 512 512"
   version="1.1"
   id="svg1"
   xml:space="preserve"
   xmlns="http://www.w3.org/2000/svg"
   xmlns:svg="http://www.w3.org/2000/svg"><defs
     id="defs1" /><g
     id="layer1"
     transform="matrix(3.9998329,0,0,3.9995772,0.01337213,0.04505996)"><path
       style="display:inline;fill:#834840;fill-opacity:1;stroke-width:0.997406"
       d="m 3.9968239,3.9891567 c -4.22685623,4.22478 -4.00016707,4.5695769 -4.00016707,21.0022203 v 85.008983 l 128.00534317,0 c 0,0 10e-4,-68.472379 0,-85.008983 -0.001,-15.6825999 0.22052,-16.7640403 -4.00016,-21.0022203 -4.22068,-4.23818001 -4.16433,-4.00001437 -14.00059,-4.00042288 -8.93889,-0.01 -46.001919,0 -46.001919,0 0,0 -36.960493,-1.6891e-4 -46.001922,0 C 8.9578539,-0.01109731 8.2236802,-0.23562331 3.9968239,3.9891567 Z"
       id="path4" /><path
       id="path1"
       style="display:inline;fill:#39b183;fill-opacity:1;stroke-width:0.997406"
       d="M 79.875609,56.71329 C 68.745628,70.095603 67.930233,86.994387 83.868382,97.810849 99.806531,108.62731 125.18864,108.06071 128.002,108.00015 c -5.4e-4,11.75565 0.22669,11.77691 -4.00016,16.00169 -4.22685,4.22478 -4.92369,4.00039 -14.00059,4.00042 -9.04142,3e-5 -46.001919,0 -46.001919,0 0,0 -37.063036,6.8e-4 -46.001922,0 -8.9308392,-6.8e-4 -9.7799051,0.23614 -14.0005851,-4.00204 -4.22067995,-4.23818 -3.99716707216,-4.25146 -4.00016707,-20.75057 -0.00300681,-16.536588 -0.0057081,-18.04931 0,-27.24965 C 9.0136068,75.9974 20.337178,77.460762 37.349942,66.124071 54.362707,54.78738 53.048568,52.479545 70.224745,44.207319 87.400922,35.935092 104.14719,32.999312 115,33 c 6.72748,4.26e-4 13.002,0 13.002,0 v 6.5 c 0,0 -11.40607,-0.336699 -18.12898,1.380016 -10.619453,2.711709 -24.432421,9.142118 -29.997411,15.833274 z" /></g></svg>
