<?xml version="1.0" encoding="UTF-8" standalone="no"?>
<!-- Created with Inkscape (http://www.inkscape.org/) -->

<svg
   width="512"
   height="512"
   viewBox="0 0 512 512"
   version="1.1"
   id="svg1"
   xml:space="preserve"
   xmlns="http://www.w3.org/2000/svg"
   xmlns:svg="http://www.w3.org/2000/svg"><defs
     id="defs1" /><g
     id="layer1"
     transform="matrix(3.9998963,0,0,3.9998817,0.00663197,0.00763101)"><path
       style="display:inline;fill:#6fffdc;fill-opacity:1;stroke-width:0.997406"
       d="M 3.9984457,3.9982105 C -0.22841059,8.2229905 -0.00170381,9.0022912 -0.00165804,18 c 4.578e-5,8.997709 0,82.00105 0,82.00105 H 128.00166 c 0,0 -5.6e-4,-73.001065 0,-82.00105 5.6e-4,-8.999985 0.22058,-9.7636095 -4.0001,-14.0017895 -4.22068,-4.23817998 -5.03537,-4.00057506 -14.00156,-4.00011831 -8.96619,4.5675e-4 -46.32525,0 -46.32525,0 0,0 -36.676088,-4.8931e-4 -45.67475,0 C 9.0013384,-0.0014185 8.225302,-0.22656948 3.9984457,3.9982105 Z"
       id="path4" /><path
       id="path1"
       style="display:inline;fill:#0063cc;fill-opacity:1;stroke-width:0.997406"
       d="m 85,49 c 9.060287,0.0082 11.994361,11.996813 21,12 9.00564,0.0032 13.01551,-12.003532 22.00166,-12 2.3e-4,10.289955 0.001,44.477062 0,61 -5.5e-4,8.99962 0.22675,9.77698 -4.0001,14.00176 -4.22685,4.22478 -4.97874,4.00003 -14.00156,4.00012 -9.02282,9e-5 -46,0 -46,0 0,0 -37.065163,-2.5e-4 -46,0 -8.9348366,2.5e-4 -9.7808743,0.23806 -14.0015543,-4.00012 -4.22068001,-4.23818 -4.00109813,-4.74022 -4.00010374,-20.70176 9.9440225e-4,-15.961543 7.6163108e-4,-45.124578 0,-54.3 C 9.015292,48.9974 13.040365,60.99906 22,61 c 8.959635,9.4e-4 12.008796,-12.000939 21,-12 8.991204,9.39e-4 12.030033,12.003981 21,12 8.969967,-0.004 11.939713,-12.008232 21,-12 z" /></g></svg>
