<?xml version="1.0" encoding="UTF-8" standalone="no"?>
<!-- Created with Inkscape (http://www.inkscape.org/) -->

<svg
   width="512"
   height="512"
   viewBox="0 0 512 512"
   version="1.1"
   id="svg1"
   xml:space="preserve"
   xmlns:xlink="http://www.w3.org/1999/xlink"
   xmlns="http://www.w3.org/2000/svg"
   xmlns:svg="http://www.w3.org/2000/svg"><defs
     id="defs1"><linearGradient
       id="linearGradient201"><stop
         style="stop-color:#009ebd;stop-opacity:1;"
         offset="0.80402243"
         id="stop200" /><stop
         style="stop-color:#00a2c2;stop-opacity:0;"
         offset="1"
         id="stop201" /></linearGradient><linearGradient
       id="linearGradient195"><stop
         style="stop-color:#009dbd;stop-opacity:1;"
         offset="0.39548388"
         id="stop198" /><stop
         style="stop-color:#009dbd;stop-opacity:1;"
         offset="0.60318047"
         id="stop196" /><stop
         style="stop-color:#00a3c3;stop-opacity:0;"
         offset="1"
         id="stop197" /></linearGradient><linearGradient
       id="linearGradient3"><stop
         style="stop-color:#00a3c3;stop-opacity:0;"
         offset="0"
         id="stop3" /><stop
         style="stop-color:#009dbd;stop-opacity:1;"
         offset="0.2"
         id="stop4" /></linearGradient><linearGradient
       xlink:href="#linearGradient201"
       id="linearGradient4"
       x1="64.775627"
       y1="61.65958"
       x2="99.181847"
       y2="68.00631"
       gradientUnits="userSpaceOnUse"
       gradientTransform="matrix(1,0,0,1.00929,0,-1.6497817)" /><linearGradient
       xlink:href="#linearGradient195"
       id="linearGradient197"
       x1="38.843483"
       y1="51.522079"
       x2="55.231915"
       y2="57.686378"
       gradientUnits="userSpaceOnUse"
       gradientTransform="translate(0,-1.5138628)" /><linearGradient
       xlink:href="#linearGradient3"
       id="linearGradient199"
       gradientUnits="userSpaceOnUse"
       x1="65.353012"
       y1="59.302681"
       x2="99.181847"
       y2="68.00631"
       gradientTransform="matrix(1,0,0,1.00929,0,-1.6497817)" /><filter
       style="color-interpolation-filters:sRGB"
       id="filter201"
       x="-0.017851479"
       y="-0.0089392669"
       width="1.035703"
       height="1.0178785"><feGaussianBlur
         stdDeviation="0.39758302"
         id="feGaussianBlur201" /></filter></defs><g
     id="layer1"
     transform="matrix(3.9998026,0,0,3.9633694,0.01525457,6.5386946)"><path
       id="path4"
       style="display:inline;fill:#0341ad;fill-opacity:1;stroke-width:1.00193"
       d="M 17.997075,-1.6497818 C 8.9693523,-1.656185 8.2197287,-1.8795532 3.9963836,2.3871874 -0.20389767,6.6306272 2.1843929e-4,7.4508712 -0.00381383,16.516579 c -0.00403227,9.065708 0.00571265,83.730061 0,92.850291 -0.00571265,9.12023 -0.23622829,9.84699 4.00019743,14.12939 4.2221412,4.26796 4.9904114,4.03715 14.0006914,4.03697 9.010279,-1.7e-4 83.007735,1.2e-4 92.004535,0 8.99681,-1.2e-4 9.78002,0.23976 14.0007,-4.03697 4.22068,-4.27673 3.99966,-5.0426 4.00019,-14.12939 5.4e-4,-9.08679 0.001,-83.726742 0,-92.850291 -0.001,-9.1235476 -0.53755,-10.6207741 -4.00019,-14.1293916 -4.22068,-4.2767248 -5.01983,-4.0335907 -14.0007,-4.0369692 -8.98087,-0.00338 -82.976813,0.00641 -92.004535,0 z" /><path
       id="rect1"
       style="display:inline;fill:#009dbd;fill-opacity:1;stroke-width:7.03244;stroke-linecap:round"
       d="M 85.499917,-1.6497818 60.59781,84.135813 H 94.686894 L 108.39997,-1.6497818 Z" /><path
       id="path1"
       style="display:inline;mix-blend-mode:normal;fill:#009dbd;fill-opacity:1;stroke-width:7;stroke-linecap:round"
       d="M 63.665001,-1.6497818 39.277344,55.898243 55.847656,46.331837 72.465782,-1.6497818 Z M 51.673828,58.693165 33.816406,69.003712 29.697266,78.890431 48.525391,68.019337 Z" /><path
       id="path2"
       style="display:inline;fill:#666680;fill-opacity:1;stroke-width:1.00188"
       d="m -4.849498e-6,84.135813 c 0,0 0.0057107595,16.109937 -1.6375808e-6,25.229657 C -0.00571889,118.4852 -0.23622434,119.21192 4.0000143,123.49408 c 4.2219546,4.26772 4.9901908,4.03693 14.0000727,4.03675 9.00988,-1.7e-4 83.004073,1.2e-4 92.000473,0 8.99641,-1.2e-4 9.77959,0.23974 14.00008,-4.03675 4.22049,-4.27649 3.99948,-5.04232 4.00001,-14.12861 5e-4,-9.08628 0,-25.229657 0,-25.229657 z" /><path
       id="path3"
       style="display:inline;fill:#6fb2a8;fill-opacity:1;stroke-width:7.03244;stroke-linecap:round;opacity:0.4"
       d="M 76.574732,94.281015 C 60.936753,94.44574 60.59781,84.135813 60.59781,84.135813 h 34.089084 c 0,0 -2.474183,9.980477 -18.112162,10.145202 z" /></g></svg>
