<?xml version="1.0" encoding="UTF-8" standalone="no"?>
<!-- Created with Inkscape (http://www.inkscape.org/) -->

<svg
   width="512"
   height="512"
   viewBox="0 0 512 512"
   version="1.1"
   id="svg1"
   xml:space="preserve"
   xmlns="http://www.w3.org/2000/svg"
   xmlns:svg="http://www.w3.org/2000/svg"><defs
     id="defs1" /><g
     id="layer1"
     transform="matrix(3.9958208,0,0,3.996041,0.48308529,0.48352097)"><path
       style="display:inline;fill:#002a9e;fill-opacity:1;stroke-width:0.997406"
       d="m 3.8832859,3.8829629 c -4.22685623,4.22478 -4.00418354,5.0214085 -4.00418354,14.0138701 v 82.08124 H 128.01298 c 0,0 0.002,-73.070107 0,-82.08124 -0.002,-9.0111325 0.21649,-9.7756901 -4.00419,-14.0138701 -4.22068,-4.23817995 -5.07575,-3.9939979 -14.01464,-4.0039629 -8.93889,-0.009965 -46.048111,0 -46.048111,0 0,0 -37.006694,0.0148 -46.048111,0 C 8.8565117,-0.1358 8.1101422,-0.34181705 3.8832859,3.8829629 Z"
       id="path4" /><path
       id="path1"
       style="display:inline;fill:#040a43;fill-opacity:1;stroke-width:0.997406"
       d="m 41.604826,28.899911 c -7.371025,0.02005 -9.603723,0.940561 -24.745092,8.500601 l -16.98063164,8.478607 c 0,12.643764 -8.425e-4,17.086603 0,17.996816 0.54150939,0.01593 9.44483654,-3.589432 18.14004664,-8.011836 14.059965,-7.15093 16.675022,-8.041874 23.629669,-8.052404 6.938181,-0.0105 9.450725,0.829802 22.28158,7.455133 7.953916,4.107077 16.519757,7.966734 19.035025,8.576848 7.682991,1.863618 14.348629,-0.0485 29.843677,-7.656015 l 15.20388,-7.464419 c 0,-8.9486 0.004,-17.640637 0,-17.865827 -0.81315,0 -8.98995,3.042225 -15.83149,6.760598 -10.24018,5.565534 -13.939841,6.881563 -20.927134,7.445357 -8.37054,0.675407 -8.715706,0.568406 -25.005618,-7.750347 C 51.186527,29.62122 49.014534,28.879761 41.604826,28.899911 Z m 0.910131,40.465832 c -6.352943,0.0335 -12.936026,2.848979 -24.820366,8.353972 l -17.81548864,8.252308 v 24.015957 c 0,9.00372 -0.22266843,9.78909 4.00418354,14.01387 4.2268521,4.22478 4.9909633,4.00396 14.0146421,4.00396 9.02368,0 45.776832,-0.006 45.776832,-0.006 0,0 37.28621,0.006 46.31939,0.006 9.03318,0 9.79397,0.23422 14.01464,-4.00396 4.22068,-4.23818 4.00419,-5.00355 4.00419,-14.01387 V 70.89069 l -15.97079,7.518672 C 90.962263,88.341341 87.721808,88.865701 65.953508,77.702608 54.990637,72.080696 48.867899,69.332243 42.514957,69.365743 Z" /></g></svg>
