<?xml version="1.0" encoding="UTF-8" standalone="no"?>
<!-- Created with Inkscape (http://www.inkscape.org/) -->

<svg
   width="512"
   height="512"
   viewBox="0 0 512 512"
   version="1.1"
   id="svg1"
   xml:space="preserve"
   xmlns="http://www.w3.org/2000/svg"
   xmlns:svg="http://www.w3.org/2000/svg"><defs
     id="defs1" /><g
     id="layer1"
     transform="matrix(3.9997724,0,0,3.9998583,0.02207497,0.01056256)"
     style="display:inline"><path
       style="display:inline;fill:#002a9e;fill-opacity:1;stroke-width:0.997406"
       d="M -0.00551906,24.998245 V 75.000016 H 128.00176 V 24.998245 Z"
       id="path4" /><path
       id="path1"
       style="display:inline;fill:#040a43;fill-opacity:1;stroke-width:0.997362"
       d="M 24.99733,8.8012032e-4 C 8.9933905,0.00228452 8.2236408,-0.22374332 3.9969575,4.0008335 -0.22972582,8.2254104 -0.00431471,8.5374341 -0.00310476,25.000589 c 9.9997e-4,16.463155 0,18.021328 0,18.021328 0,0 9.43481796,-3.589145 18.12968576,-8.011342 14.059411,-7.150592 16.673602,-8.041826 23.627975,-8.052354 6.937908,-0.0105 9.450022,0.829707 22.280372,7.454727 7.953602,4.106883 16.519237,7.965682 19.034406,8.575768 7.682688,1.863529 14.350704,-0.0435 29.842566,-7.65589 l 15.08722,-7.462539 c 0,0 -0.001,13.121462 0,-2.869698 0.001,-15.9911602 0.23689,-16.7565731 -4.00006,-20.9997555 -4.23695,-4.24318245 -4.99628,-4.00126325801 -21.00037,-3.99995337968 -26.00045,-9.17387457e-4 -52.000907,-0.00243808 -78.00136,0 z M 42.609991,39.186249 c -6.356285,0.02577 -12.938112,2.840915 -24.807617,8.376558 l -17.80547876,8.251597 v 47.184266 l 128.00222476,0.001 V 40.735105 l -15.85281,7.517124 C 91.067217,58.18374 87.825727,58.707798 66.058285,47.54523 55.095846,41.923583 48.966275,39.160478 42.609991,39.186249 Z" /><path
       style="display:inline;fill:#3d3c3c;fill-opacity:1;stroke-width:0.996439"
       d="m 124.00142,124.00175 c 4.22268,-4.22075 4.00022,-5.00536 4.00022,-14.00049 V 84.000335 c -35.764682,0.0495 -80.008125,0.04921 -128.00715906,0 v 26.000925 c 0,9.00173 -0.21640396,9.76636 4.00010616,14.00049 4.2165102,4.23414 4.9765286,4.00014 14.0007949,4.00014 h 46.273639 45.731599 c 9.01477,0 9.77812,0.22061 14.0008,-4.00014 z"
       id="path2" /></g></svg>
