<?xml version="1.0" encoding="UTF-8" standalone="no"?>
<!-- Created with Inkscape (http://www.inkscape.org/) -->

<svg
   width="512"
   height="512"
   viewBox="0 0 512 512"
   version="1.1"
   id="svg1"
   xml:space="preserve"
   xmlns="http://www.w3.org/2000/svg"
   xmlns:svg="http://www.w3.org/2000/svg"><defs
     id="defs1" /><g
     id="layer1"
     transform="matrix(3.9998087,0,0,3.9998171,0.01546543,0.01361474)"><path
       id="path4"
       style="display:inline;fill:#00acce;fill-opacity:1;stroke-width:0.997406"
       d="M -0.00386654,47.998791 0,110 c 0,0 -0.00411554,-9.61202 -0.00386654,0.002 2.49e-4,9.61364 0.51602963,10.50203 4.00019134,14.00064 4.2206758,4.23818 5.0607451,4.00025 14.0006692,4.00018 8.938877,-7e-5 46.0022,0 46.0022,0 0,0 36.960786,-2.4e-4 46.002196,0 9.05551,2.4e-4 9.77382,0.2246 14.00067,-4.00018 3.92118,-3.91926 3.99956,-5.0178 4.0002,-14.00064 0.007,-8.98606 -0.011,-82.997861 0,-92.004211 2e-4,-9.026949 0.22048,-9.7624641 -4.0002,-14.0006399 -4.22068,-4.23817574 -5.05913,-4.00083043 -14.00067,-4.00018294 -8.94154,6.4749e-4 -62.002961,0 -62.002961,0 z" /><path
       id="path2"
       style="display:inline;fill:#ffd46b;fill-opacity:1;stroke-width:0.997406"
       d="m 3.9963248,3.9967791 c -4.27999566,4.2752166 -4.00062664,5.0042182 -4.00019134,14.0006399 2.7455e-4,5.674256 0,82.003751 0,82.003751 0,0 2.18903344,-16.615523 34.35341054,-25.520792 C 40.571291,72.757779 72.062192,63.97052 70.484015,52.60155 68.899688,41.188273 40.223399,39.15816 35.975006,24.141731 34.509266,18.960906 38.777188,12.683808 46.906784,7.3793923 55.03638,2.074977 71.499553,-0.00340384 71.499553,-0.00340384 c 0,0 -44.513812,-6.5847e-4 -53.502559,0 C 8.9854161,-0.00274369 8.2763204,-0.27843757 3.9963248,3.9967791 Z" /></g></svg>
