<?xml version="1.0" encoding="UTF-8" standalone="no"?>
<!-- Created with Inkscape (http://www.inkscape.org/) -->

<svg
   width="512"
   height="512"
   viewBox="0 0 512 512"
   version="1.1"
   id="svg1"
   xml:space="preserve"
   xmlns="http://www.w3.org/2000/svg"
   xmlns:svg="http://www.w3.org/2000/svg"><defs
     id="defs1" /><g
     id="layer1"
     transform="matrix(3.9996648,0,0,3.9996787,0.02532516,0.02173128)"><path
       id="path4"
       style="display:inline;fill:#6fffdc;fill-opacity:1;stroke-width:0.997407"
       d="m -0.00633182,110.0034 c 0,0 0.01480003,-82.965987 0,-92.007387 C -0.02113186,8.9546124 -0.23078755,8.2217381 3.9940034,3.9948881 7.9132736,0.07370808 9.0090928,0.00191674 17.995177,-0.00543326 c 8.986083,-0.007 83.001333,0.01103 92.007713,0 9.00637,-0.011 9.76298,-0.22035866 14.00117,4.00032136 4.23819,4.22068 3.99041,5.0622443 4.00034,14.0011249 0.01,8.93888 0,92.007387 0,92.007387 z" /><path
       id="path2"
       style="display:inline;fill:#e55b5b;fill-opacity:1;stroke-width:0.997883"
       d="M 110.73019,31.036652 C 95.067304,34.991167 93.079103,66.247415 65.907265,73.736121 45.613598,76.613663 38.191839,67.234536 38.191839,67.234536 33.147548,57.111252 29.085096,48.868109 23.713267,48.892465 9.8401215,48.955364 8.904466,71.504225 -0.00193742,76.952034 c -0.00300005,13.68879 0.00300004,24.033846 0,33.031036 -0.00300005,8.99718 -0.27521562,9.72915 4.00006062,14.01316 4.2752762,4.28403 4.9995538,4.00764 14.0002128,4.00377 0.691991,-2.4e-4 7.473232,1.4e-4 10.000152,0 18.193821,-9.8e-4 72.001091,0 72.001091,0 2.526911,1.4e-4 9.308161,-2.4e-4 10.000151,0 9.00065,0.004 9.72493,0.28026 14.00021,-4.00377 4.27528,-4.28401 4.00306,-5.01598 4.00006,-14.01316 -0.002,-4.7929 -7.9e-4,-17.225181 0,-28.526804 -0.002,-4.900386 -8e-4,-15.512666 0,-25.023513 6.7e-4,-7.951216 0.001,-14.686962 0,-20.920048 -3.43874,-3.865043 -11.30938,-6.110242 -17.26981,-4.476053 z" /><path
       id="path7"
       style="display:inline;fill:#0054ae;fill-opacity:1;stroke-width:0.997406"
       d="m 37.740234,66.400391 c 8.038076,16.123257 18.451142,37.623109 40.853516,37.738279 22.41774,0.11526 31.16683,-23.160678 37.66406,-37.738279 z" /></g></svg>
