<?xml version="1.0" encoding="UTF-8" standalone="no"?>
<!-- Created with Inkscape (http://www.inkscape.org/) -->

<svg
   width="512"
   height="512"
   viewBox="0 0 512 512"
   version="1.1"
   id="svg1"
   xml:space="preserve"
   xmlns="http://www.w3.org/2000/svg"
   xmlns:svg="http://www.w3.org/2000/svg"><defs
     id="defs1" /><g
     id="layer1"
     transform="matrix(3.999813,0,0,3.9996216,0.02289229,0.036737)"><path
       style="display:inline;fill:#650099;fill-opacity:1;stroke-width:0.997406"
       d="M -0.00572334,22.992991 V 107.50099 H 128.00026 V 22.992991 Z"
       id="path4" /><path
       id="path1"
       style="display:inline;fill:#0a001c;fill-opacity:1;stroke-width:0.997406"
       d="m 102.99909,-0.00918512 c 16.0155,2.4153e-4 16.77413,-0.22439728 21.00098,4.00037842 4.22685,4.2247758 3.99972,4.9751738 4.00019,21.0019867 4.7e-4,16.026813 0,21.001987 0,21.001987 0,0 -5.57863,-5.082621 -11.23961,-5.499346 -5.66097,-0.416725 -16.911671,32.280923 -16.911671,32.280923 0,0 -10.385614,-38.887738 -19.138449,-39.484573 -8.752834,-0.596835 -20.337417,10.848676 -20.337417,10.848676 0,0 -9.227731,-16.336056 -13.305801,-16.448979 -4.078071,-0.112924 -20.037307,23.825255 -20.037307,23.825255 0,0 -10.542193,-17.404529 -14.403741,-17.084454 C 8.7647165,34.752744 -0.00572334,42 -0.00572334,42 c 0,0 -4.6165e-4,-15.333492 0,-24.322278 4.6165e-4,-8.9887858 0.53754703,-10.2095367 4.00018704,-13.6865287 4.22068,-4.23817569 5.0042761,-4.00037666 21.0009813,-4.00037842 14.148577,-1.56e-6 39.001824,0 39.001824,0 0,0 30.994072,-1.2076e-4 39.001821,0 z M 79.136985,98.086399 c 3.95718,-0.327423 12.014402,-12.099692 12.014402,-12.099692 0,0 9.660203,18.116813 17.240623,19.208793 7.58042,1.09197 19.60825,-10.3845 19.60825,-10.3845 0,0 -4e-4,6.0919 -2.6e-4,8.189 0.001,15.9936 0.22692,16.77777 -3.99993,21.00255 -4.22685,4.22478 -4.98999,4.0015 -21.00007,4.00037 -28.369694,-0.002 -62.002425,-0.002 -78.004555,0 -16.0021293,0.002 -16.7803013,0.23781 -21.0009813,-4.00037 -4.22068001,-4.23818 -3.99919369,-4.93172 -4.00018704,-21.00255 -1.4421e-4,-2.33311 0,-7 0,-7 L 9.9040434,83.983801 c 0,0 13.7048076,16.275879 18.3964386,16.327819 4.691631,0.0519 13.770699,-30.74835 13.770699,-30.74835 0,0 11.011051,25.504464 12.569545,25.321029 1.50904,-0.177614 10.338185,-13.25035 10.338185,-13.25035 0,0 10.200893,16.779873 14.158074,16.45245 z" /></g></svg>
