<?xml version="1.0" encoding="UTF-8" standalone="no"?>
<!-- Created with Inkscape (http://www.inkscape.org/) -->

<svg
   width="512"
   height="512"
   viewBox="0 0 512 512"
   version="1.1"
   id="svg1"
   xml:space="preserve"
   xmlns="http://www.w3.org/2000/svg"
   xmlns:svg="http://www.w3.org/2000/svg"><defs
     id="defs1" /><g
     id="layer1"
     transform="matrix(3.9996648,0,0,3.9996787,0.02532516,0.02173128)"><path
       id="path4"
       style="display:inline;fill:#521714;fill-opacity:1;stroke-width:0.997407"
       d="M 1.6426457e-8,110 C 1.6426457e-8,110 0.01428176,27.040882 -5.1827114e-4,17.999482 -0.01531831,8.9580817 -0.22529886,8.2263317 3.9994921,3.9994817 7.9187623,0.07830171 9.0134451,0.00683171 17.999529,-5.1828626e-4 26.985612,-0.00751829 100.99339,0.01028171 109.99977,-7.4828626e-4 119.00614,-0.01174829 119.76161,-0.22142829 123.9998,3.9992517 c 4.23819,4.22068 3.99008,5.06112 4.00001,14.0000003 0.01,8.93888 5.2e-4,92.000748 5.2e-4,92.000748 z" /><path
       id="path8"
       style="fill:#242424;stroke-width:7;stroke-linecap:round"
       d="M 35.769531,-0.00543326 C 33.830474,3.9357298 32.783799,8.5791565 32.761719,13.338317 c 0.01121,4.512386 0.943791,8.929645 2.691406,12.748047 -3.761201,2.439199 -5.919635,7.106832 -7.390625,12.574219 -2.533117,9.454973 -0.498286,18.4736 5.699219,20.134765 6.198082,1.661183 12.272856,-4.362679 14.80664,-13.818359 0.353974,-1.32251 1.75586,-4.302735 1.75586,-4.302734 0,0 11.89806,0.03153 17.697265,-2.773438 13.493787,-6.532046 14.452737,-16.885348 15.580078,-17.931641 4.51706,0.09274 9.313312,-0.999143 13.744141,-3.128906 C 105.03922,13.113594 110.71854,6.7020563 112.26758,-0.00543326 Z M 128,27.826598 c -7.55067,0.655148 -15.26266,5.548374 -20.59961,13.070313 -3.41832,4.858934 -5.12378,6.508692 -5.76953,12.060547 -3.599255,1.869265 -6.529761,7.875729 -6.333985,12.205078 -2.787676,1.546339 -3.887582,4.357444 -4.914063,7.46289 -0.972646,2.958931 -0.849609,7.798829 -0.849609,7.798829 l 10.980467,-0.189454 c 0,0 0.78426,0.312359 2.40039,-4.574218 2.32888,-0.915185 3.29437,-2.284422 4.85352,-4.609375 1.04368,-1.556292 1.39707,-2.653614 1.32422,-3.685547 7.79901,-0.720145 12.97781,-1.81667 18.9082,-6.53711 z" /><path
       id="path2"
       style="display:inline;fill:#b91c20;fill-opacity:1;stroke-width:0.996868"
       d="m 96.898181,79.301762 c -7.639715,0.296228 -9.672796,-0.136703 -14.030582,7.235833 -2.522963,4.26837 -4.463433,9.660659 -6.79495,11.568653 C 70.01565,92.837906 61.685071,72.674301 56.432892,60.472094 51.180712,48.269887 53.459529,45.756413 37.744184,45.748277 22.02884,45.740141 23.723842,47.139507 18.55564,58.98132 13.387439,70.823133 5.8086307,90.775017 -0.00193742,94.536709 c -0.00300005,13.660951 0.00300004,6.504131 0,15.483021 -0.00300005,8.97888 -0.27521562,9.70936 4.00006062,13.98466 4.2752762,4.27531 4.9995538,3.99949 14.0002128,3.99562 0.691991,-2.4e-4 7.473232,1.4e-4 10.000152,0 18.193821,-9.8e-4 72.001091,0 72.001091,0 2.526911,1.4e-4 9.308161,-2.4e-4 10.000151,0 9.00065,0.004 9.72493,0.27969 14.00021,-3.99562 4.27528,-4.2753 4.00306,-5.00578 4.00006,-13.98466 -0.0177,-42.387932 5.2e-4,-9.3236 0,-12.586198 -9.01704,6.814828 -14.08581,-3.089472 -18.51023,-9.697059 -5.51884,-8.242041 -7.2337,-8.642462 -12.591589,-8.434711 z" /></g></svg>
