<?xml version="1.0" encoding="UTF-8" standalone="no"?>
<!-- Created with Inkscape (http://www.inkscape.org/) -->

<svg
   width="256"
   height="256"
   viewBox="0 0 256 256"
   version="1.1"
   id="svg1"
   xml:space="preserve"
   sodipodi:docname="Phosphate.svg"
   inkscape:version="1.3.1 (9b9bdc1480, 2023-11-25, custom)"
   xmlns:inkscape="http://www.inkscape.org/namespaces/inkscape"
   xmlns:sodipodi="http://sodipodi.sourceforge.net/DTD/sodipodi-0.dtd"
   xmlns="http://www.w3.org/2000/svg"
   xmlns:svg="http://www.w3.org/2000/svg"><sodipodi:namedview
     id="namedview1"
     pagecolor="#ffffff"
     bordercolor="#111111"
     borderopacity="1"
     inkscape:showpageshadow="0"
     inkscape:pageopacity="0"
     inkscape:pagecheckerboard="1"
     inkscape:deskcolor="#d1d1d1"
     showgrid="false"
     inkscape:clip-to-page="true"
     inkscape:zoom="2.1113884"
     inkscape:cx="112.72203"
     inkscape:cy="104.67046"
     inkscape:window-width="1854"
     inkscape:window-height="1008"
     inkscape:window-x="0"
     inkscape:window-y="0"
     inkscape:window-maximized="1"
     inkscape:current-layer="svg1" /><defs
     id="defs1"><filter
       style="color-interpolation-filters:sRGB"
       id="filter4"
       x="-0.0020368165"
       y="-0.0018158563"
       width="1.0040736"
       height="1.0036317"><feGaussianBlur
         stdDeviation="0.12886652"
         id="feGaussianBlur4" /></filter></defs><g
     id="layer1"
     style="display:inline"
     transform="matrix(1.26,0,0,1.26,2,2)"><path
       style="display:inline;fill:#6124cc;fill-opacity:1;stroke-width:1.00726"
       d="M 89.845705,199.4317 C 45.741374,195.10709 8.8153979,160.79159 1.1081263,116.96739 c -1.47750172,-8.4012 -1.47750172,-25.826426 0,-34.227624 C 4.7963975,61.767947 15.560514,41.92493 31.287701,27.105492 39.757,19.125027 44.767361,15.629222 55.135939,10.466209 70.246905,2.941734 82.835489,0 99.924062,0 c 28.919288,0 53.887168,10.957683 73.828158,32.401057 19.15913,20.602599 28.44326,48.267207 25.80801,76.902023 -3.73605,40.59622 -32.36772,75.22553 -71.57038,86.56259 -7.83787,2.26665 -12.14104,2.95221 -25.5462,4.0699 -2.21724,0.18487 -7.886313,-0.0419 -12.597945,-0.50387 z"
       id="path1" /><path
       style="display:inline;fill:#e96cff;fill-opacity:1;filter:url(#filter4)"
       d="m 86.031844,179.20045 c -5.138361,-5.2814 -6.334579,-14.80336 -2.927042,-21.56677 3.407537,-6.76342 9.452172,-8.84472 11.912409,-9.62169 C 95.007644,143.87556 95,140.75172 95,140.75172 c 0,-3.71345 0.02633,-3.5027 0.03477,-6.14539 -6.73136,-1.13121 -11.072672,-3.03569 -15.698465,-6.37165 -4.625793,-3.33596 -11.552837,-11.00589 -13.570593,-20.96545 -2.017756,-9.959564 0.320864,-16.18909 1.546855,-19.838158 -8.266606,-4.783662 -5.014718,-2.917316 -11.116908,-6.43027 -3.144774,3.151431 -7.674578,5.394277 -14.08787,5.09687 C 35.601377,85.795946 29.264592,81.65797 26.503802,76.196563 22.468478,68.817399 24.24875,61.905811 26.758934,57.506407 c 3.264923,-5.722178 9.826768,-9.037575 15.691964,-9.364426 5.899796,-0.32878 12.62136,2.81709 16.868915,9.013832 3.193189,5.373601 3.184807,11.09306 2.303341,14.145963 3.979515,2.3812 7.427981,4.310167 11.21684,6.56212 1.865631,-1.966113 4.298197,-4.884194 8.311642,-7.3374 4.013445,-2.453206 7.348556,-4.036512 13.492436,-5.112002 0.02572,-4.390512 0.05384,-8.781364 0.01279,-13.171868 -4.123332,-1.209584 -7.369201,-3.366286 -10.09081,-7.255309 -4.472807,-6.391383 -4.598617,-14.247374 -0.859991,-20.651126 3.900048,-6.680246 10.950936,-9.363438 16.425569,-9.345507 5.2602,0.01723 10.94354,2.373828 14.63074,6.965754 3.83865,4.780518 5.64626,11.589322 3.09643,18.509532 -2.16584,5.878078 -6.69932,9.871993 -12.12235,11.626574 -0.10099,4.459517 0.0384,8.919566 -0.0365,13.378943 4.42855,0.95719 7.04218,1.650085 11.04201,3.789638 3.99983,2.139554 7.50988,4.823559 10.4546,8.70211 6.1204,-3.58212 5.3883,-3.150459 11.14563,-6.452969 -0.80322,-4.001269 -0.84669,-8.644528 2.79131,-14.342766 3.63799,-5.698239 10.10639,-8.552088 15.43227,-8.584963 7.30994,-0.04512 13.36602,3.439941 16.88603,9.477346 3.52001,6.037405 3.00724,13.266618 0.51819,18.087717 -4.13272,8.004748 -11.95055,10.124631 -15.92168,10.378153 -3.97113,0.253522 -9.74754,-0.904768 -14.29944,-5.410483 -3.71599,2.177863 -6.00891,3.460923 -6.00891,3.460923 -4.88967,2.755141 -2.37968,1.326536 -5.06738,2.848384 2.47446,6.430133 2.86036,13.802883 1.57559,19.772533 -2.00412,9.3121 -6.87312,15.04988 -10.32816,18.3553 -3.45504,3.30542 -10.44752,7.73597 -18.91646,9.10637 10e-4,2.84222 -0.004,6.5066 -0.004,6.5066 0,5.66176 0.0211,4.47905 0.0311,6.83021 5.74768,1.55946 11.79075,6.68197 13.47252,14.0143 1.85332,8.08028 -1.78909,14.614 -5.29089,17.97173 -4.17162,3.99999 -9.15452,5.35074 -13.0766,5.33041 -3.922081,-0.0203 -9.477421,-1.35592 -14.104283,-6.11158 z"
       id="path2" /></g></svg>
