<?xml version="1.0" encoding="UTF-8" standalone="no"?>
<!-- Created with Inkscape (http://www.inkscape.org/) -->

<svg
   width="512"
   height="512"
   viewBox="0 0 512 512"
   version="1.1"
   id="svg1"
   xml:space="preserve"
   xmlns="http://www.w3.org/2000/svg"
   xmlns:svg="http://www.w3.org/2000/svg"><defs
     id="defs1" /><g
     id="layer1-4"
     transform="matrix(2.5850306,0,0,2.58491,-1.1586631,-0.41701329)"
     style="display:inline"><path
       id="path2-2"
       style="display:inline;opacity:1;fill:#11ffd5;fill-opacity:1;stroke:none;stroke-width:3.86852;stroke-linecap:round;stroke-dasharray:none;stroke-opacity:1"
       d="m 99.412838,4.3333363 c 50.953942,0.1956816 71.916762,-1.224306 84.138832,10.7113507 12.22207,11.935658 10.54722,33.77918 10.70858,84.160617 0.16135,50.381436 2.19394,71.406216 -10.70858,84.160616 -12.90252,12.75441 -34.12271,10.68513 -84.138832,10.71135 -50.016135,0.0262 -71.812222,1.70201 -84.138841,-10.71135 C 2.9473775,170.95257 4.5506273,149.57599 4.5654173,99.205304 4.5802073,48.834626 2.9714575,27.161079 15.273997,15.044687 27.576536,2.9282959 48.458886,4.1376547 99.412838,4.3333363 Z" /><path
       id="path1-3"
       style="display:inline;fill:#11ffd5;fill-opacity:1;stroke-width:6.86;stroke-linecap:round"
       d="M 42.505349,2.0849128 C 28.248595,2.1007232 18.936535,5.7781367 12.452526,12.32957 5.9685169,18.881003 2.3840087,28.485814 2.3621252,42.884241 2.2932919,88.173608 2.3750133,108.907 2.3544517,157.119 c -0.00588,13.79029 3.5261626,22.52684 10.0981203,28.99955 6.571957,6.47271 15.692078,10.11537 29.831098,10.13657 53.773095,0.0806 61.48496,0.0792 114.07858,0.0933 14.02002,0.004 23.25993,-3.65651 29.89888,-10.22984 6.63895,-6.57334 10.33645,-15.31905 10.35233,-29.09313 0.0456,-39.53716 -0.0463,-70.506097 -0.0838,-114.143426 C 196.51726,28.478348 192.78699,18.876176 186.26109,12.32957 179.73519,5.7829613 170.74484,2.1450344 156.82008,2.1174438 113.40367,2.0314182 93.465828,2.0283989 42.505349,2.0849128 Z M 156.9485,6.7350942 c 12.86102,0.045298 19.67086,3.4128338 25.66287,9.2629078 5.99201,5.850074 9.24184,14.000275 9.32574,27.288139 0.3154,49.951518 0.23253,57.843969 0.36881,113.486199 0.0313,12.78536 -3.36896,19.37892 -9.69456,25.63029 -6.32561,6.25137 -13.36935,9.61309 -26.25795,9.65188 -51.54728,0.15512 -64.396959,-0.62243 -115.196721,-0.82603 -13.214111,-0.053 -19.280103,-2.68178 -25.323365,-8.76599 -6.043233,-6.08421 -8.7425884,-12.73335 -8.7761416,-25.56886 -0.156007,-59.679255 -0.025126,-64.636006 0,-113.537218 0.00682,-13.27181 2.7446686,-21.419874 8.7761256,-27.358532 6.031457,-5.938658 13.637169,-9.4607875 26.7423,-9.4730892 48.438454,-0.045469 55.724734,0.00374 114.372892,0.2103034 z" /><path
       style="display:inline;opacity:1;fill:#112b36;fill-opacity:1;fill-rule:nonzero;stroke:#112b36;stroke-width:8.7298;stroke-linecap:butt;stroke-linejoin:miter;stroke-miterlimit:100;stroke-dasharray:none;stroke-dashoffset:2.04596;stroke-opacity:1;paint-order:normal"
       d="m 115.05278,400.85486 c 0,-0.30277 21.64439,-27.7904 48.09863,-61.08361 l 48.09863,-60.53312 12.7281,12.7054 c 7.00046,6.98796 12.64224,12.77729 12.5373,12.86517 -0.10494,0.0879 -26.77733,21.24717 -59.27197,47.02066 -32.49463,25.77348 -59.7808,47.47178 -60.63592,48.21844 -0.85512,0.74665 -1.55477,1.10984 -1.55477,0.80706 z"
       id="path69"
       transform="matrix(0.38684262,0,0,0.38686066,0.44822026,0.16132604)" /><g
       id="g27"
       transform="matrix(0.70710678,0.70713977,-0.70707379,0.70710678,95.324674,-35.842036)"><g
         id="g26"
         transform="matrix(0.85506392,0,0,0.66795776,17.693748,10.012683)"
         style="display:inline;stroke-width:5.02988;stroke-dasharray:none"><path
           style="fill:#ff0066;fill-opacity:0;fill-rule:nonzero;stroke:#112b36;stroke-width:5.02988;stroke-dasharray:none;stroke-dashoffset:2.04596;stroke-opacity:1"
           d="m 95.649203,29.719688 c -53.271308,0 -54.989737,0 -54.989737,0 l 18.559038,18.559901 v 62.897451"
           id="path25" /><path
           style="display:inline;fill:#ff0066;fill-opacity:0;fill-rule:nonzero;stroke:#112b36;stroke-width:5.02988;stroke-dasharray:none;stroke-dashoffset:2.04596;stroke-opacity:1"
           d="m 95.649201,29.719684 c 53.271309,0 54.989739,0 54.989739,0 L 132.0799,48.279585 v 62.897455"
           id="path25-3" /><path
           style="display:inline;fill:#ff0066;fill-opacity:0;fill-rule:nonzero;stroke:#112b36;stroke-width:5.02976;stroke-dasharray:none;stroke-dashoffset:2.04596;stroke-opacity:1"
           d="m 95.649203,148.62627 c -53.271308,0 -54.989737,0 -54.989737,0 l 18.559038,-18.5599 V 67.168916"
           id="path25-4" /><path
           style="display:inline;fill:#ff0066;fill-opacity:0;fill-rule:nonzero;stroke:#112b36;stroke-width:5.02976;stroke-dasharray:none;stroke-dashoffset:2.04596;stroke-opacity:1"
           d="m 95.649201,148.62627 c 53.271309,0 54.989739,0 54.989739,0 L 132.0799,130.06637 V 67.168916"
           id="path25-3-1" /><path
           style="display:inline;fill:none;fill-opacity:1;fill-rule:nonzero;stroke:#112b36;stroke-width:5.02976;stroke-linecap:butt;stroke-linejoin:miter;stroke-miterlimit:100;stroke-dasharray:none;stroke-dashoffset:2.04596;stroke-opacity:1;paint-order:normal"
           d="m 70.780325,148.62627 c 52.011475,0 52.366755,0 52.366755,0"
           id="path27" /><path
           style="display:inline;fill:none;fill-opacity:1;fill-rule:nonzero;stroke:#112b36;stroke-width:5.02976;stroke-linecap:butt;stroke-linejoin:miter;stroke-miterlimit:100;stroke-dasharray:none;stroke-dashoffset:2.04596;stroke-opacity:1;paint-order:normal"
           d="m 75.442004,29.719684 c 52.011466,0 52.366746,0 52.366746,0"
           id="path27-4" /><path
           style="display:inline;opacity:1;fill:#112b36;fill-opacity:1;fill-rule:nonzero;stroke:#112b36;stroke-width:3.8012;stroke-linecap:butt;stroke-linejoin:miter;stroke-miterlimit:100;stroke-dasharray:none;stroke-dashoffset:2.04596;stroke-opacity:1;paint-order:normal"
           d="m 44.955539,155.2363 c -0.01137,0.15558 0.01516,0.31876 -0.0342,0.46675 -0.03427,0.1028 -0.336193,0.5827 -0.486044,0.66834 -0.09469,0.0541 -0.208447,0.0686 -0.30378,0.12152 -0.24079,0.13378 -0.439121,0.33326 -0.668313,0.48606 -0.09395,0.21962 -0.335327,0.14255 -0.486045,0.24304 -0.126165,0.0841 -0.478942,0.4182 -0.607555,0.54682"
           id="path70"
           transform="matrix(0.82696365,-1.0586594,0.82692507,1.05861,-69.884258,123.86911)" /><path
           style="display:inline;opacity:1;fill:#112b36;fill-opacity:1;fill-rule:nonzero;stroke:#112b36;stroke-width:3.8012;stroke-linecap:butt;stroke-linejoin:miter;stroke-miterlimit:100;stroke-dasharray:none;stroke-dashoffset:2.04596;stroke-opacity:1;paint-order:normal"
           d="m 112.45126,130.60979 c 1.34512,2.16715 2.8847,4.20006 4.34403,6.2885 0.30888,0.44204 0.60288,0.89436 0.91133,1.33669 0.22826,0.32733 0.47596,0.64103 0.6987,0.97214 0.24145,0.35893 0.45873,0.73371 0.69868,1.09365 0.40221,0.60333 0.80494,1.20555 1.18474,1.82275 0.0405,0.0608 0.081,0.12152 0.12151,0.18228 0.0101,0.0304 0.0148,0.0631 0.0304,0.0911 -0.0163,0.14094 0.13017,0.1562 0.18227,0.24303 0.0165,0.0275 0.0112,0.0655 0.0304,0.0911 0.0136,0.0181 0.0523,0.009 0.0607,0.0304 0.0151,0.0376 0,0.081 0,0.12151"
           id="path71"
           transform="matrix(0.82696365,-1.0586594,0.82692507,1.05861,-69.884258,123.86911)" /><path
           style="display:inline;opacity:1;fill:#112b36;fill-opacity:1;fill-rule:nonzero;stroke:#112b36;stroke-width:8.7298;stroke-linecap:butt;stroke-linejoin:miter;stroke-miterlimit:100;stroke-dasharray:none;stroke-dashoffset:2.04596;stroke-opacity:1;paint-order:normal"
           d="M 230.51375,285.15271 C 171.85869,226.49457 155.9428,210.1157 157.59782,210.1157 c 1.16443,0 10.31918,1.03791 20.34388,2.30647 l 18.22672,2.30648 51.2253,-51.21958 51.2253,-51.21959 -2.00059,-16.60923 c -1.10033,-9.135075 -2.24952,-18.408315 -2.55378,-20.6072 l -0.5532,-3.997973 75.14642,75.073053 c 54.97543,54.92177 74.69511,75.14537 73.46512,75.3425 -0.9247,0.1482 -9.82677,-0.74355 -19.78238,-1.98167 l -18.10111,-2.25113 -51.45462,51.43825 -51.45461,51.43826 2.38343,19.75254 c 1.31089,10.86389 2.25962,19.87635 2.10828,20.02769 -0.15133,0.15133 -34.04004,-33.4915 -75.30823,-74.76186 z"
           id="path68"
           transform="matrix(0.31990478,-0.40953458,0.31990478,0.40953458,-69.380191,123.56538)" /></g><path
         style="display:inline;opacity:1;fill:none;fill-opacity:1;fill-rule:nonzero;stroke:#112b36;stroke-width:3.8012;stroke-linecap:butt;stroke-linejoin:miter;stroke-miterlimit:100;stroke-dasharray:none;stroke-dashoffset:2.04596;stroke-opacity:1;paint-order:normal"
         d="m 90.016129,96.840526 9.463802,82.506324 9.463799,-82.506324"
         id="path66"
         transform="translate(6.8113671e-7,10.98498)" /></g></g></svg>
