<?xml version="1.0" encoding="UTF-8" standalone="no"?>
<!-- Created with Inkscape (http://www.inkscape.org/) -->

<svg
   version="1.1"
   id="svg1"
   width="200"
   height="200"
   viewBox="0 0 200 200"
   xml:space="preserve"
   xmlns="http://www.w3.org/2000/svg"
   xmlns:svg="http://www.w3.org/2000/svg"><defs
     id="defs1" /><g
     id="g1"
     style="display:inline"><path
       style="display:inline;fill:#e7e8ed;fill-opacity:1;stroke-width:1.0149"
       d="m 8.0011016,153 c -0.0027,-32.27899 4.73e-4,-19.52128 0,-106 C 30.964415,33.117811 80.005078,5.4659024 89.000437,0.00231398 c 10.732779,-0.00366995 19.924703,-0.002439966 21.999813,0 C 124.78004,8.3856966 178.22741,38.60326 191.99959,47 c -1e-4,35.43461 9.7e-4,32.350028 0,106 -14.07883,8.41072 -66.96544,38.66138 -80.99934,47 H 89.000437 C 78.870831,193.95918 25.308389,163.33841 8.0011016,153 Z"
       id="path4"
       clip-path="none" /><path
       id="path87"
       clip-path="none"
       style="display:inline;fill:#1e3251;fill-opacity:1;stroke-width:1.0149"
       d="m 99.583984,50.5625 c -25.531082,0 -47.842737,17.575765 -54.296875,42.771484 -2.521596,9.843846 -1.180017,29.629526 2.335938,33.866016 25.91831,0.085 71.285663,0.12231 103.921873,0 3.5113,-4.23086 4.85326,-24.00728 2.33985,-33.866016 C 147.48848,68.245674 125.04042,50.5625 99.583984,50.5625 Z m 0.259766,6.601562 c 20.51159,0.210796 40.44646,13.523278 47.33398,36.585938 1.62392,5.43757 1.94668,19.59815 0.55079,24.16602 l -0.76563,2.5 -47.177734,0.21679 c -25.947903,0.11835 -47.377164,-0.10921 -47.621094,-0.5039 -0.243923,-0.39468 -0.868777,-3.44892 -1.386718,-6.78711 C 48.50708,98.709594 53.97658,82.673811 64.992188,71.658203 75.022688,61.627695 87.536795,57.037592 99.84375,57.164062 Z" /><path
       id="path94"
       style="fill:#1e3251;fill-opacity:1;stroke:none;stroke-width:0.347541;stroke-opacity:0.487466"
       d="m 99.599609,61.746094 a 3.3503899,2.9109771 0 0 0 -3.34375,2.83789 H 96.25 v 0.07227 6.253906 0.19336 h 0.01563 a 3.3503899,2.9109771 0 0 0 3.333984,2.71875 3.3503899,2.9109771 0 0 0 3.333976,-2.71875 h 0.0156 v -0.19336 -6.253906 -0.07227 h -0.002 a 3.3503899,2.9109771 0 0 0 -3.347666,-2.83789 z M 127.2832,73.439453 a 3.3503899,2.9109771 45 0 0 -1.86718,0.71875 l -0.004,-0.0039 -0.0508,0.05078 -4.42188,4.421875 -0.13672,0.136719 0.01,0.01172 a 3.3503899,2.9109771 45 0 0 0.43555,4.279297 3.3503899,2.9109771 45 0 0 4.28125,0.435546 l 0.01,0.01172 0.13672,-0.136719 4.42188,-4.421875 0.0508,-0.05273 a 3.3503899,2.9109771 45 0 0 -0.36133,-4.375 3.3503899,2.9109771 45 0 0 -2.50391,-1.076172 z M 59.611328,101.59961 v 0.0156 a 2.9109771,3.3503899 0 0 0 -2.71875,3.33399 2.9109771,3.3503899 0 0 0 2.71875,3.33594 v 0.0156 h 0.19336 6.253906 0.07227 v -0.002 a 2.9109771,3.3503899 0 0 0 2.837891,-3.34766 v -0.002 a 2.9109771,3.3503899 0 0 0 -2.837891,-3.34375 v -0.006 h -0.07227 -6.253906 z m 73.207032,0 v 0.0156 a 2.9109771,3.3503899 0 0 0 -2.71875,3.33399 2.9109771,3.3503899 0 0 0 2.71875,3.33594 v 0.0156 h 0.19336 6.2539 0.0723 v -0.002 a 2.9109771,3.3503899 0 0 0 2.83789,-3.34766 v -0.002 a 2.9109771,3.3503899 0 0 0 -2.83789,-3.34375 v -0.006 h -0.0723 -6.2539 z" /><circle
       style="fill:#1e3251;fill-opacity:1;stroke:none;stroke-width:1.02161;stroke-opacity:0.487466"
       id="path98"
       cx="99.5"
       cy="104.85"
       r="12.75" /><path
       id="path97"
       style="display:inline;fill:#1e3251;fill-opacity:1;stroke:none;stroke-width:0.347541;stroke-opacity:0.487466"
       d="m 69.759238,74.713444 c 1.285542,-1.281865 3.223858,-1.44046 4.37108,-0.357697 l 0.0042,-0.0042 0.0511,0.0511 28.108322,28.200683 0.13673,0.13672 -0.011,0.011 c 0.99731,1.16176 0.80723,3.03179 -0.43503,4.27992 -1.24803,1.24238 -3.118162,1.43235 -4.279922,0.43504 l -0.011,0.0111 -0.13673,-0.13673 -28.108304,-28.2007 -0.0511,-0.0511 0.0013,-0.0013 c -1.083665,-1.148182 -0.923758,-3.08851 0.360462,-4.373845 z" /></g></svg>
