<?xml version="1.0" encoding="UTF-8" standalone="no"?>
<!-- Created with Inkscape (http://www.inkscape.org/) -->

<svg
   width="128"
   height="128"
   viewBox="0 0 128 128"
   version="1.1"
   id="svg1"
   xml:space="preserve"
   xmlns="http://www.w3.org/2000/svg"
   xmlns:svg="http://www.w3.org/2000/svg"><defs
     id="defs1" /><g
     id="layer1"
     transform="matrix(0.63265306,0,0,0.63265306,0.73469387,0.73469387)"
     style="display:inline"><path
       id="path1"
       style="display:inline;fill:#65a099;fill-opacity:1;stroke-width:6.86;stroke-linecap:round"
       d="M 100,2 C 45.876095,2 2,45.876095 2,100 c 0,54.12391 43.876095,98 98,98 54.12391,0 98,-43.87609 98,-98 C 198,45.876095 154.12391,2 100,2 Z m 0,8.693548 c 50.25791,0 89.30645,39.04854 89.30645,89.306452 0,50.25791 -39.04854,89.30645 -89.30645,89.30645 -50.257912,0 -89.306452,-39.04854 -89.306452,-89.30645 0,-50.257912 39.04854,-89.306452 89.306452,-89.306452 z" /><path
       id="circle2-7"
       style="display:inline;fill:#65a099;fill-opacity:1;stroke-width:5.75354;stroke-linecap:round"
       d="M 100,17.806452 C 54.605757,17.806453 17.806453,54.605757 17.806452,100 c 0,45.39424 36.799305,82.19355 82.193548,82.19355 45.39424,0 82.19355,-36.79931 82.19355,-82.19355 0,-45.394243 -36.79931,-82.193548 -82.19355,-82.193548 z M 100,26.5 c 40.35164,0.0038 73.45043,33.243927 73.5,73.5 0.0496,40.25607 -33.18554,73.56604 -73.5,73.5 C 59.685545,173.43396 26.489726,140.3604 26.5,100 26.510274,59.639604 59.648365,26.496171 100,26.5 Z" /><circle
       style="display:inline;fill:#2d3f47;fill-opacity:0.8;stroke-width:5.14499;stroke-linecap:round"
       id="circle4"
       cx="100"
       cy="100"
       r="73.5" /></g></svg>
