<?xml version="1.0" encoding="UTF-8" standalone="no"?>
<!-- Created with Inkscape (http://www.inkscape.org/) -->

<svg
   width="128"
   height="128"
   viewBox="0 0 128 128"
   version="1.1"
   id="svg1"
   xml:space="preserve"
   xmlns="http://www.w3.org/2000/svg"
   xmlns:svg="http://www.w3.org/2000/svg"><defs
     id="defs1" /><g
     id="layer1"
     transform="matrix(0.63265306,0,0,0.63265306,0.73469388,0.73469388)"><path
       id="path1"
       style="display:inline;fill:#65a099;fill-opacity:1;stroke-width:6.86;stroke-linecap:round"
       d="M 100,2 C 45.876095,2 2,45.876095 2,100 c 0,54.12391 43.876095,98 98,98 54.12391,0 98,-43.87609 98,-98 C 198,45.876095 154.12391,2 100,2 Z m 0,8.693548 C 148.17479,10.695028 189.27019,51.819292 189.30645,100 189.34271,148.18071 148.57809,189.47369 100,189.30645 51.421907,189.13921 10.62717,150.25787 10.693548,100 10.757189,51.814851 51.825212,10.692068 100,10.693548 Z" /><circle
       style="display:inline;fill:#2e3f47;fill-opacity:0.80000001;stroke-width:6.25145;stroke-linecap:round"
       id="circle2"
       cx="100"
       cy="100"
       r="89.30645" /></g></svg>
