<?xml version="1.0" encoding="UTF-8" standalone="no"?>
<!-- Created with Inkscape (http://www.inkscape.org/) -->

<svg
   version="1.1"
   id="svg1"
   width="512"
   height="512"
   viewBox="0 0 512 512"
   xml:space="preserve"
   xmlns="http://www.w3.org/2000/svg"
   xmlns:svg="http://www.w3.org/2000/svg"><defs
     id="defs1" /><g
     id="g1"
     style="display:inline"
     transform="matrix(2.52,0,0,2.5199954,4,4.0009094)"><path
       id="path1"
       clip-path="none"
       style="display:inline;fill:#ffbf00;fill-opacity:1;stroke-width:1.0149"
       d="M 89,0.00195313 C 80.00465,5.4655361 30.965244,33.117825 8.0019531,47 c 4.73e-4,86.47863 -0.0027,73.72104 0,106 C 25.309223,163.3384 78.870404,193.95919 89,200 h 22 c 7.01694,-4.16931 23.74669,-13.81633 40.48242,-23.47266 C 168.21815,166.87102 184.96059,157.20536 192,153 c 9.7e-4,-73.649898 -1e-4,-70.565425 0,-106 -3.44304,-2.099183 -9.36659,-5.562357 -16.5293,-9.707031 C 153.98259,24.858946 121.33483,6.2894838 111,0.00195313 c -2.07511,-0.002439969 -11.267232,-0.00366995 -22,0 z" /><path
       id="path4"
       style="display:inline;fill:#050505;fill-opacity:1;stroke-width:2.92106;stroke-linecap:round"
       d="m 100.10303,84.238823 c -5.606897,-0.13316 -11.003107,3.768036 -12.677741,9.173901 -1.74452,5.130081 0.02082,11.220336 4.251677,14.574476 4.566318,3.8164 11.672754,3.96359 16.404674,0.36779 4.38203,-3.16134 6.41703,-9.177425 4.89247,-14.385435 -1.51776,-5.712436 -7.01472,-9.863951 -12.87108,-9.730732 z" /><path
       id="path12"
       style="display:inline;fill:#050505;fill-opacity:1;stroke-width:14.3735;stroke-linecap:round"
       d="M 67.085254,40.515586 C 47.164897,52.052112 34.106194,74.54554 34.127009,97.594775 h 46.79211 c -1.07e-4,-6.687311 3.781145,-13.209666 9.56219,-16.555774 z m 65.811286,0.198798 -23.31404,40.380942 c 1.75718,1.001244 3.35926,2.272215 4.70156,3.804509 3.18747,3.443602 4.83969,8.075977 4.86062,12.69494 h 46.72833 c -0.0447,-11.776722 -3.18796,-23.581086 -9.26897,-33.733623 -2.14249,-3.577006 -4.64877,-6.949248 -7.51208,-10.042632 -4.62334,-5.277683 -10.14328,-9.655395 -16.19542,-13.104136 z M 90.508643,114.13231 67.198734,154.50498 c 5.189698,3.03181 10.778227,5.38467 16.661769,6.81713 16.696997,4.51163 34.503747,1.66738 49.106437,-6.69619 l -23.36789,-40.47373 c -4.24009,2.42962 -9.4042,3.26918 -14.252985,1.959 -1.708095,-0.41586 -3.330754,-1.09868 -4.837422,-1.97888 z" /></g></svg>
