<?xml version="1.0" encoding="UTF-8" standalone="no"?>
<!-- Created with Inkscape (http://www.inkscape.org/) -->

<svg
   width="128"
   height="128"
   viewBox="0 0 128 128"
   version="1.1"
   id="svg1"
   xml:space="preserve"
   xmlns="http://www.w3.org/2000/svg"
   xmlns:svg="http://www.w3.org/2000/svg"><defs
     id="defs1" /><g
     id="layer1"
     transform="matrix(0.63265306,0,0,0.63265306,0.73469387,0.73469387)"><path
       id="path1"
       style="display:inline;fill:#11ffd5;fill-opacity:1;stroke-width:6.86;stroke-linecap:round"
       d="M 100,2 C 45.876095,2 2,45.876095 2,100 c 0,54.12391 43.876095,98 98,98 54.12391,0 98,-43.87609 98,-98 C 198,45.876095 154.12391,2 100,2 Z m 0,12.645161 C 146.65225,14.653713 185.33652,53.428919 185.35484,100 185.37316,146.57108 147.44448,185.49211 100,185.35484 52.555521,185.21757 14.664534,146.66468 14.645161,100 14.625788,53.335321 53.347754,14.636609 100,14.645161 Z" /><circle
       style="display:inline;fill:#242f36;fill-opacity:0.7019608;stroke-width:5.97483;stroke-linecap:round"
       id="circle2"
       cx="100"
       cy="100"
       r="85.354836" /></g></svg>
