<?xml version="1.0" encoding="UTF-8" standalone="no"?>
<!-- Created with Inkscape (http://www.inkscape.org/) -->

<svg
   width="512"
   height="512"
   viewBox="0 0 512 512"
   version="1.1"
   id="svg1"
   xml:space="preserve"
   xmlns="http://www.w3.org/2000/svg"
   xmlns:svg="http://www.w3.org/2000/svg"><defs
     id="defs1" /><g
     id="layer1"
     transform="matrix(-2.5850306,0,0,2.58491,513.231,-0.46900476)"
     style="display:inline"><path
       id="path2"
       style="display:inline;fill:#29363c;fill-opacity:0.752941;stroke-width:6.99718;stroke-linecap:round"
       d="m 100.07054,5.1099384 c 50.95394,0.1956816 71.91676,-1.224306 84.13883,10.7113506 12.22207,11.935658 10.54722,33.77918 10.70858,84.160617 0.16135,50.381434 2.19394,71.406214 -10.70858,84.160614 -12.90252,12.75441 -34.12271,10.68513 -84.13883,10.71135 -50.016135,0.0262 -71.812222,1.70201 -84.138841,-10.71135 C 3.6050795,171.72917 5.2083293,150.35259 5.2231193,99.981906 5.2379093,49.611228 3.6291595,27.937681 15.931699,15.821289 28.234238,3.704898 49.116588,4.9142568 100.07054,5.1099384 Z" /><path
       id="path1"
       style="display:inline;fill:#659f95;fill-opacity:1;stroke-width:6.86;stroke-linecap:round"
       d="M 42.505349,2.0849128 C 28.248595,2.1007232 18.936535,5.7781367 12.452526,12.32957 5.9685169,18.881003 2.3840087,28.485814 2.3621252,42.884241 2.2932919,88.173608 2.3750133,108.907 2.3544517,157.119 c -0.00588,13.79029 3.5261626,22.52684 10.0981203,28.99955 6.571957,6.47271 15.692078,10.11537 29.831098,10.13657 53.773095,0.0806 61.48496,0.0792 114.07858,0.0933 14.02002,0.004 23.25993,-3.65651 29.89888,-10.22984 6.63895,-6.57334 10.33645,-15.31905 10.35233,-29.09313 0.0456,-39.53716 -0.0463,-70.506097 -0.0838,-114.143426 C 196.51726,28.478348 192.78699,18.876176 186.26109,12.32957 179.73519,5.7829613 170.74484,2.1450344 156.82008,2.1174438 113.40367,2.0314182 93.465828,2.0283989 42.505349,2.0849128 Z M 156.9485,6.7350942 c 12.86102,0.045298 19.67086,3.4128338 25.66287,9.2629078 5.99201,5.850074 9.24184,14.000275 9.32574,27.288139 0.3154,49.951518 0.23253,57.843969 0.36881,113.486199 0.0313,12.78536 -3.36896,19.37892 -9.69456,25.63029 -6.32561,6.25137 -13.36935,9.61309 -26.25795,9.65188 -51.54728,0.15512 -64.396959,-0.62243 -115.196721,-0.82603 -13.214111,-0.053 -19.280103,-2.68178 -25.323365,-8.76599 -6.043233,-6.08421 -8.7425884,-12.73335 -8.7761416,-25.56886 -0.156007,-59.679255 -0.025126,-64.636006 0,-113.537218 0.00682,-13.27181 2.7446686,-21.419874 8.7761256,-27.358532 6.031457,-5.938658 13.637169,-9.4607875 26.7423,-9.4730892 48.438454,-0.045469 55.724734,0.00374 114.372892,0.2103034 z" /><path
       style="display:inline;fill:#7f878a;fill-opacity:1"
       d="m 409.26315,351.8465 c 3.36098,-27.04693 -1.04993,-55.0235 -12.74305,-80.8238 -21.62655,-47.71794 -71.63049,-86.57348 -126.58646,-98.36395 -21.39111,-4.58934 -57.24491,-4.08748 -76.93364,1.07687 -8.6625,2.27217 -15.97538,3.92455 -16.25084,3.67196 -0.27546,-0.25259 4.20242,-14.4985 9.95084,-31.65758 5.74842,-17.15908 10.2263,-31.40018 9.95084,-31.64688 -0.81552,-0.7304 -92.90084,116.43262 -92.90084,118.20062 0,1.77028 135.47571,49.15708 138.14023,48.3188 0.90212,-0.28381 -9.66583,-9.44015 -23.48434,-20.34741 -13.81851,-10.90726 -24.6674,-20.5711 -24.10864,-21.47519 0.55876,-0.90409 7.81921,-3.78268 16.13434,-6.39687 21.73524,-6.83333 62.48926,-6.76792 86.51841,0.13886 27.59561,7.9319 47.88224,19.89383 68.27499,40.25807 27.94438,27.90531 39.44244,56.61344 37.00764,92.4 -0.66794,9.8175 -1.70288,20.2125 -2.29986,23.1 -0.59697,2.8875 0.77542,-0.24858 3.04975,-6.96908 2.27434,-6.72049 5.10063,-19.98848 6.28063,-29.48442 z"
       id="path3"
       transform="matrix(0.38684262,0,0,0.38686066,0.42023866,0.18143949)" /></g></svg>
