<?xml version="1.0" encoding="UTF-8" standalone="no"?>
<!-- Created with Inkscape (http://www.inkscape.org/) -->

<svg
   version="1.1"
   id="svg1"
   width="512"
   height="512"
   viewBox="0 0 512 512"
   xmlns:xlink="http://www.w3.org/1999/xlink"
   xmlns="http://www.w3.org/2000/svg"
   xmlns:svg="http://www.w3.org/2000/svg">
  <defs
     id="defs1">
    <linearGradient
       id="linearGradient1">
      <stop
         style="stop-color:#ffffff;stop-opacity:0;"
         offset="0.84966868"
         id="stop4" />
      <stop
         style="stop-color:#ffffff;stop-opacity:1;"
         offset="0.88"
         id="stop3" />
      <stop
         style="stop-color:#ffffff;stop-opacity:1;"
         offset="0.98000002"
         id="stop1" />
      <stop
         style="stop-color:#ffffff;stop-opacity:0;"
         offset="0.99969411"
         id="stop2" />
    </linearGradient>
    <radialGradient
       xlink:href="#linearGradient1"
       id="radialGradient2"
       cx="256"
       cy="256"
       fx="256"
       fy="256"
       r="248"
       gradientUnits="userSpaceOnUse"
       gradientTransform="matrix(1.0040323,0,0,1.0040323,-2.0322582,-2.0322582)" />
  </defs>
  <g
     id="g1">
    <path
       id="path1"
       style="display:inline;fill:url(#radialGradient2);stroke-width:23.1525;stroke-linecap:round"
       d="M 255,6 A 249,249 0 0 0 6,255 249,249 0 0 0 255,504 249,249 0 0 0 504,255 249,249 0 0 0 255,6 Z m 0,33.133065 A 215.86694,215.86694 0 0 1 470.86694,255 215.86694,215.86694 0 0 1 255,470.86694 215.86694,215.86694 0 0 1 39.133065,255 215.86694,215.86694 0 0 1 255,39.133065 Z" />
  </g>
</svg>
