<?xml version="1.0" encoding="UTF-8" standalone="no"?>
<svg
   version="1.1"
   width="250"
   height="250"
   id="svg11"
   sodipodi:docname="RunoffEvent.svg"
   inkscape:version="1.4.2 (ebf0e940d0, 2025-05-08)"
   xmlns:inkscape="http://www.inkscape.org/namespaces/inkscape"
   xmlns:sodipodi="http://sodipodi.sourceforge.net/DTD/sodipodi-0.dtd"
   xmlns="http://www.w3.org/2000/svg"
   xmlns:svg="http://www.w3.org/2000/svg">
  <defs
     id="defs11" />
  <sodipodi:namedview
     id="namedview11"
     pagecolor="#000000"
     bordercolor="#000000"
     borderopacity="0.25"
     inkscape:showpageshadow="2"
     inkscape:pageopacity="0.0"
     inkscape:pagecheckerboard="0"
     inkscape:deskcolor="#d1d1d1"
     inkscape:zoom="1.066317"
     inkscape:cx="60.488577"
     inkscape:cy="138.7955"
     inkscape:window-width="1920"
     inkscape:window-height="983"
     inkscape:window-x="0"
     inkscape:window-y="0"
     inkscape:window-maximized="1"
     inkscape:current-layer="svg11" />
  <path
     id="path2-6"
     style="fill:#ffffff;fill-opacity:1;fill-rule:nonzero"
     d="M 13.623432,78.651903 C 6.3745523,97.22067 5.5457423,115.88194 6.6234323,135.6519 c 4.1426197,32.53348 20.6681797,61.30547 46.2617197,81.64063 0.59085,0.46219 1.16481,0.91078 1.73828,1.35937 21.43849,16.78301 49.684598,26.14758 77.007808,25.21875 1.01735,-0.0744 2.00477,-0.14655 2.99219,-0.21875 13.57145,-0.98701 26.44911,-3.64516 39.16406,-8.5664 18.39491,-7.50514 43.72486,-21.20395 51.83594,-40.4336 -12.4576,0.10128 -24.34466,-1.38588 -36.52539,-3.8457 l -2.28711,-0.4668 c -7.95321,-1.61517 -15.88008,-3.33664 -23.77149,-5.23242 l -2.0957,-0.50976 c -11.39674,-2.76918 -20.59012,-8.61864 -30.32031,-14.94532 -7.4905,-4.9562 -13.91263,-7.77785 -22.76953,-9.41015 -6.49868,-1.18657 -12.198968,-3.49684 -18.152348,-6.29883 -13.95602,-6.78074 -20.93253,-14.33828 -26.2207,-29.11328 -2.542,-7.12455 -5.31498,-13.70441 -9.47852,-20.08008 -10.06151,-13.10144 -24.03128,-22.894857 -40.3789,-26.097657 z m 12.37695,25.343747 c 13.43225,2.5603 24.91056,10.38811 33.17774,20.86133 3.42103,5.09668 5.70038,10.35742 7.78906,16.05274 4.34508,11.81105 10.07777,17.85099 21.54492,23.27148 4.89167,2.23991 9.57432,4.08662 14.914058,5.03516 7.27738,1.30486 12.55433,3.56148 18.70899,7.52343 7.99494,5.05751 15.54783,9.7336 24.91211,11.94727 0.56831,0.13436 1.13713,0.26779 1.72265,0.40625 6.48408,1.51546 12.99639,2.89244 19.53125,4.18359 0.93039,0.18483 0.93169,0.18451 1.88086,0.37305 10.00846,1.96639 19.77577,3.15518 30.01172,3.07422 -6.66458,15.37207 -27.47737,26.3227 -42.5918,32.32226 -10.44741,3.93401 -21.02852,6.05865 -32.17968,6.84766 -0.81133,0.0578 -1.62307,0.11631 -2.45899,0.17578 -22.45047,0.74249 -45.660178,-6.74394 -63.275388,-20.16015 -0.47121,-0.35861 -0.94225,-0.71646 -1.42773,-1.08594 -21.02927,-16.2558 -34.60789,-39.2566 -38.01172,-65.26367 -0.88551,-15.80401 -0.20418,-30.72069 5.75195,-45.56446 z" />
  <path
     id="path1-6"
     d="m 126.40609,2.0894918 c -9.95624,-0.198677 -19.93367,0.785434 -28.851558,3.033202 l -3.41797,1.035157 c -20.43346,5.8934382 -37.34561,14.8818182 -52.41797,28.4199212 -0.37251,0.232403 -0.81148,0.593305 -1.49219,1.154297 -0.73179,0.718515 -1.44207,1.415899 -2.15234,2.113282 -0.81424,0.781842 -1.50456,1.49234 -2.08985,2.191406 -1.63523,1.647274 -3.25068,3.353358 -4.84765,5.121094 -4.53924,5.190229 -8.47184,10.57584 -11.85157,16.138671 -0.0491,-0.04627 -0.0989,-0.09245 -0.14843,-0.138671 -2.18779,3.602861 -4.02982,7.282594 -5.6836,11.052734 -1.56324,3.563761 -2.95833,7.208233 -4.3164002,10.947266 -0.32937,0.8437 -0.64399,1.68707 -0.94727,2.53125 -6.37151,17.735099 -7.08146,35.597069 -6.05273,54.468749 4.14262,32.53348 20.6701302,61.30547 46.2636702,81.64063 0.59078,0.46213 1.16292,0.91083 1.73633,1.35937 2.56771,2.01012 5.23519,3.91567 7.98632,5.70899 h 0.002 l 0.002,0.002 c 2.75001,1.79242 5.58387,3.47358 8.49024,5.03906 h 0.002 v 0.002 h 0.002 0.002 c 17.44463,9.39523 37.462878,14.61025 57.148438,14.5293 1.12579,-0.004 2.24985,-0.0243 3.37305,-0.0625 1.01735,-0.0744 2.00477,-0.14655 2.99219,-0.21875 6.19191,-0.40508 12.28025,-1.35958 18.30468,-2.58203 1.25949,-0.25575 2.53162,-0.49265 3.78321,-0.78516 1.90345,-0.44455 3.79435,-0.92541 5.67578,-1.45508 1.72104,-0.48566 3.43565,-1.04359 5.14648,-1.60546 1.96712,-0.64386 3.93657,-1.26879 5.875,-2.00977 0.12576,-0.0482 0.25318,-0.0802 0.37891,-0.12891 0.3352,-0.13676 0.72869,-0.34545 1.06836,-0.48632 2.93234,-1.16269 5.86801,-2.31875 8.72656,-3.70899 1.13544,-0.58025 2.2603,-1.17831 3.375,-1.79101 14.2566,-7.20407 29.25792,-17.39204 36.62891,-30.33399 9.754,-11.82968 17.351,-25.45505 22.2207,-40.29687 9.61589,-31.51422 7.1654,-65.722919 -8.19922,-95.011722 -15.92424,-29.186555 -42.37512,-51.012904 -74.26172,-60.7734372 -1.26571,-0.350625 -2.49417,-0.690938 -3.72265,-1.03125 -8.83919,-2.488217 -18.77424,-3.869682 -28.73047,-4.068359 z m -0.73242,15.5839842 0.002,0.002 c 8.6372,0.173009 17.25568,1.376214 24.92383,3.542969 1.06573,0.296345 2.13048,0.591157 3.22851,0.896484 27.66217,8.499532 50.60928,27.506043 64.42383,52.921875 13.32907,25.504866 15.45523,55.295506 7.11328,82.738286 -4.22455,12.92434 -10.81557,24.78848 -19.27734,35.08984 -6.39446,11.26992 -19.40754,20.14268 -31.77539,26.41602 -0.96703,0.53354 -1.94273,1.05331 -2.92774,1.55859 -2.47985,1.21064 -5.02645,2.21798 -7.57031,3.23047 -0.29467,0.12266 -0.63694,0.30473 -0.92773,0.42383 -0.10907,0.0423 -0.21903,0.0693 -0.32813,0.11133 -1.68163,0.64525 -3.39114,1.18932 -5.09765,1.75 -1.48418,0.48928 -2.97182,0.97551 -4.46485,1.39843 -1.63218,0.46123 -3.27255,0.88046 -4.92383,1.26758 -1.08578,0.25471 -2.18863,0.46089 -3.28125,0.6836 -5.2263,1.06452 -10.5073,1.89529 -15.8789,2.24804 -0.85659,0.0629 -1.71509,0.12661 -2.59766,0.19141 -0.9744,0.0332 -1.94914,0.0487 -2.92578,0.0527 -17.07757,0.0705 -34.442658,-4.47091 -49.576168,-12.65234 h -0.002 -0.002 l -0.002,-0.002 c -2.52132,-1.36324 -4.97956,-2.82587 -7.36524,-4.38672 v -0.002 h -0.002 -0.002 c -2.38666,-1.56163 -4.7002,-3.22222 -6.92774,-4.97265 -0.49744,-0.39058 -0.99335,-0.78118 -1.50586,-1.1836 -22.20284,-17.70798 -36.54097,-42.76143 -40.13476,-71.09179 -0.89245,-16.43357 -0.2774,-31.98781 5.25,-47.431642 0.2631,-0.73512 0.53653,-1.47038 0.82226,-2.20508 1.17815,-3.25597 2.38801,-6.42985 3.74414,-9.533205 1.4347,-3.283059 3.0337,-6.487607 4.93165,-9.625 0.043,0.04026 0.0843,0.0808 0.12695,0.121093 2.93197,-4.844147 6.34533,-9.53305 10.2832,-14.052734 1.38539,-1.539355 2.78649,-3.02648 4.20508,-4.460937 0.50775,-0.608753 1.10613,-1.227371 1.8125,-1.908204 0.61617,-0.607284 1.23235,-1.214156 1.86719,-1.839843 0.59053,-0.488515 0.97177,-0.803483 1.29492,-1.00586 13.07554,-11.789065 27.74627,-19.616005 45.47266,-24.748047 l 2.964838,-0.90039 c 7.73643,-1.95737 16.39209,-2.815587 25.0293,-2.642578 z"
     style="fill:#ffffff;fill-opacity:1" />
  <path
     id="path3-9"
     style="fill:#ffffff;fill-opacity:1;stroke-width:0.906577"
     d="m 27.853837,76.689357 c -3.85083,6.36593 -4.281926,12.578854 -6.810766,19.567964 1.73595,3.05139 3.18339,5.692869 4.44531,8.023449 0.31434,-0.33559 0.63757,-0.67078 0.97266,-1.00586 0.39365,-0.39365 3.27216,1.57194 7.45117,4.77344 -1.70533,-1.96628 -3.17695,-3.75351 -4.35352,-5.29883 1.7363,-3.585679 2.2364,7.62526 5.11619,5.09946 -0.24467,-0.73333 25.29048,19.8843 26.71043,21.56117 13.41879,15.32056 24.783878,29.67793 47.445679,36.68107 13.8472,7.27947 35.39918,12.86091 51.05579,13.89637 10.77996,3.1391 9.83739,-10.3967 11.72269,-10.12275 l 1.87749,-1.36523 c 0.82327,-4.56855 6.16036,-5.03199 7.52678,-9.52799 2.86065,0.72408 1.23593,0.38073 3.4188,1.93317 3.08578,2.14363 3.80336,1.45789 7.07146,3.44247 8.58342,12.41145 3.81496,8.5254 5.94776,9.8861 -0.68177,3.20193 3.06958,3.44044 0.49203,6.03826 -1.18849,0.60899 -17.72979,8.90933 -18.97423,9.2806 1.93637,1.27946 35.54426,5.35666 36.45827,7.30676 0.35395,-0.21535 0.70632,-0.44458 1.06055,-0.6875 3.29223,-4.44069 5.46318,-9.05986 6.33398,-14.5332 -4.76183,-4.06576 -9.51676,-8.13763 -14.3457,-12.12305 -4.45335,-3.63843 -8.87678,-7.30656 -13.25195,-11.03906 -2.82272,-2.40991 -5.6512,-4.80728 -8.52149,-7.16016 -4.17423,-3.39238 -8.23442,-6.82987 -12.17578,-10.49414 -2.78811,-2.65372 -5.05517,-4.27008 -8.70898,-5.50781 -1.74528,7.68536 -3.17309,15.2902 -4.22461,23.09961 l -0.30078,2.33398 c -2.40804,-0.46829 -4.79996,-0.97257 -7.18946,-1.52929 -9.99884,-0.88499 -20.85586,-6.07718 -21.68727,-4.53213 -3.38171,6.2844 -8.75606,5.66473 -13.25033,-3.15767 -0.44694,-0.87734 -5.7009,-8.08938 -10.57209,-10.43455 C 80.371373,127.50666 54.186331,111.1492 37.046971,84.960541 34.970231,81.678331 30.26356,71.602455 28.599859,75.114514 Z"
     sodipodi:nodetypes="cccscccccccccccccccccccccccccssscsc" />
  <path
     id="path4-0"
     d="m 178,287 c -2,0 -2,0 -3.91016,1.57422 l -2.15234,2.11328 c -3.13662,3.01184 -4.44191,4.95895 -4.9375,9.3125 0,0 7.9046,6.57443 8,10 1.8125,2.5625 1.8125,2.5625 3.23438,3.67578 1.88444,1.36604 1.88444,1.36604 3.90624,3.30469 14.96252,14.02133 35.84326,29.24578 57.17188,30.70703 2.85097,0.0131 4.17791,-0.0584 6.49609,1.62891 1.53159,1.78431 1.53159,1.78431 0.94141,4.93359 -0.7147,3.57349 -1.23481,7.14369 -1.75,10.75 2.69859,0.1542 4.68195,0.12375 7.21875,-0.86328 2.66451,-1.08901 5.34952,-1.98342 8.09766,-2.83594 1.36727,-0.41969 2.73345,-0.84231 4.09961,-1.26562 1.09569,-0.33954 1.09593,-0.33906 2.16992,-0.67188 3.60051,-1.11171 7.1991,-2.22709 10.79687,-3.34766 0.69834,-0.2178 1.37688,-0.42921 2.05469,-0.64062 5.54299,-1.72845 11.06404,-3.50945 16.5625,-5.375 -2.29893,-2.41068 -4.78481,-4.56614 -7.32617,-6.7168 -0.84492,-0.71089 -0.84565,-0.71138 -1.67383,-1.4082 -4.19519,-3.54323 -8.42082,-7.04283 -12.6875,-10.5 -3.68601,-2.98648 -7.2071,-6.08915 -10.6875,-9.3125 -3.08132,-2.92159 -5.58694,-4.69983 -9.625,-6.0625 -1,2 -1,2 -1.31641,4.60156 -0.12427,1.52684 -0.12427,1.52684 -0.24609,3.02344 -0.12822,1.53473 -0.12822,1.53473 -0.25391,3.03906 C 252.12117,327.45828 252.0606,328.22914 252,329 224.81785,325.60223 198.5747,313.18878 181.4375,291.375 180.33428,289.88417 179.20028,288.41386 178,287 Z m 0.7207,4.71484 c 0.95965,0.99353 11.23123,14.46019 12.11328,15.50782 13.70151,15.32867 40.65213,23.80182 62.38477,26.18945 0.0484,-0.54168 0.0966,-1.08252 0.14648,-1.64063 0.10054,-1.0571 0.10066,-1.0563 0.20313,-2.13476 0.0974,-1.05167 0.0979,-1.05208 0.19726,-2.125 0.25298,-1.82813 0.25322,-1.82896 1.05274,-3.23438 3.22851,0.95756 5.23174,2.20676 7.69531,4.25977 2.78265,2.26507 5.59789,4.4463 8.54492,6.54492 3.4113,2.42938 6.79039,4.88907 10.14453,7.37891 0.66215,0.48966 0.66041,0.48873 1.33594,0.98828 2.03186,1.51128 4.02135,3.02671 5.85938,4.7207 -4.39612,1.31094 -8.81046,2.56276 -13.24219,3.77735 -0.54192,0.14855 -1.08425,0.29615 -1.64258,0.44921 -2.87649,0.78743 -5.75414,1.57232 -8.63281,2.35352 -0.85868,0.23387 -0.85836,0.23406 -1.73438,0.47266 -1.09227,0.29747 -2.18613,0.59375 -3.27929,0.88867 -2.19719,0.59907 -4.34234,1.22694 -6.47266,1.99219 -2.02822,0.69359 -3.61391,0.71578 -5.77148,0.60742 0.4119,-2.53418 0.82702,-5.04358 1.39843,-7.55469 0.47187,-2.21302 0.47258,-2.21296 -0.75195,-3.4668 -1.85343,-1.18569 -3.33037,-2.87604 -5.60977,-2.88525 -17.05264,-1.02683 -33.33171,-9.98453 -45.29453,-19.8374 -1.61647,-1.3623 -1.61639,-1.36235 -3.12304,-2.32227 -1.13682,-0.78231 -4.53525,-1.77743 -5.98438,-3.57812 -0.0763,-2.40717 -17.00586,-19.62696 -17.00586,-19.62696 0.29109,-4.08775 4.19726,-7.72461 7.46875,-7.72461 z"
     sodipodi:nodetypes="cccccccccccccscccccccccccccccccccccccccccsccsccccccccccc"
     style="fill:#ffffff;fill-opacity:0.99373692" />
  <path
     id="path2-6-0"
     style="fill:#ffffff;fill-opacity:1;fill-rule:nonzero"
     d="m -168.12684,442.58739 c -7.24888,18.56877 -8.07769,37.23004 -7,57 4.14262,32.53348 20.66818,61.30547 46.26172,81.64063 0.59085,0.46219 1.16481,0.91078 1.73828,1.35937 21.43849,16.78301 49.6846,26.14758 77.00781,25.21875 1.01735,-0.0744 2.00477,-0.14655 2.99219,-0.21875 13.57145,-0.98701 26.44911,-3.64516 39.16406,-8.5664 18.39491,-7.50514 43.72486,-21.20395 51.83594,-40.4336 -12.4576,0.10128 -24.34466,-1.38588 -36.52539,-3.8457 l -2.28711,-0.4668 c -7.95321,-1.61517 -15.88008,-3.33664 -23.77149,-5.23242 l -2.0957,-0.50976 c -11.39674,-2.76918 -20.59012,-8.61864 -30.32031,-14.94532 -7.4905,-4.9562 -13.91263,-7.77785 -22.76953,-9.41015 -6.49868,-1.18657 -12.198968,-3.49684 -18.152348,-6.29883 -13.956022,-6.78074 -20.932532,-14.33828 -26.220702,-29.11328 -2.542,-7.12455 -5.31498,-13.70441 -9.47852,-20.08008 -10.06151,-13.10144 -24.03128,-22.89486 -40.3789,-26.09766 z m 12.37695,25.34375 c 13.43225,2.5603 24.91056,10.38811 33.17774,20.86133 3.42103,5.09668 5.70038,10.35742 7.78906,16.05274 4.34508,11.81105 10.07777,17.85099 21.544922,23.27148 4.89167,2.23991 9.57432,4.08662 14.914058,5.03516 7.27738,1.30486 12.55433,3.56148 18.70899,7.52343 7.99494,5.05751 15.54783,9.7336 24.91211,11.94727 0.56831,0.13436 1.13713,0.26779 1.72265,0.40625 6.48408,1.51546 12.99639,2.89244 19.53125,4.18359 0.93039,0.18483 0.93169,0.18451 1.88086,0.37305 10.00846,1.96639 19.77577,3.15518 30.01172,3.07422 -6.66458,15.37207 -27.47737,26.3227 -42.5918,32.32226 -10.44741,3.93401 -21.02852,6.05865 -32.17968,6.84766 -0.81133,0.0578 -1.62307,0.11631 -2.45899,0.17578 -22.45047,0.74249 -45.66018,-6.74394 -63.27539,-20.16015 -0.47121,-0.35861 -0.94225,-0.71646 -1.42773,-1.08594 -21.02927,-16.2558 -34.60789,-39.2566 -38.01172,-65.26367 -0.88551,-15.80401 -0.20418,-30.72069 5.75195,-45.56446 z" />
  <path
     id="path5-0-6"
     d="m 307.42356,525.53119 c -3.79479,0.7454 -4.26971,1.12927 -6.625,3.9375 -1.75972,2.32451 -3.16384,3.98953 -5.4375,5.875 -2.78788,2.14453 -5.18023,4.16628 -7.4375,6.875 -0.375,3.1875 -0.375,3.1875 0,6 1.88521,3.77042 5.1486,5.51572 9,7 7.5903,0.80359 14.46793,1.14113 20.92187,-3.33203 l 1.82813,-1.48047 c 1.85937,-1.45703 1.85937,-1.45703 3.25,-3.1875 0.91885,-5.80635 0.91885,-5.80635 -6,-17 -2.74863,-3.08048 -5.44194,-3.89038 -9.5,-4.6875 z m 0.80078,4.47461 c 2.99224,0.58035 4.97914,1.1713 7.00586,3.41407 5.10166,8.14963 5.10135,8.14959 4.42383,12.37695 -1.02539,1.25988 -1.02547,1.25951 -2.39649,2.32031 -0.66725,0.53354 -0.66692,0.5338 -1.34765,1.07813 -4.75886,3.25672 -9.83098,3.01084 -15.42774,2.42578 -2.83985,-1.08064 -5.24665,-2.35063 -6.63672,-5.09571 -0.27651,-2.04767 -0.27651,-2.04846 0,-4.36914 1.66442,-1.97211 3.42872,-3.44452 5.48438,-5.00586 1.6765,-1.37273 2.71222,-2.58496 4.00976,-4.27734 1.73669,-2.04456 2.08666,-2.3245 4.88477,-2.86719 z"
     style="fill:#ffffff;fill-opacity:1" />
  <path
     id="path6-6-3"
     d="m 245.38254,501.8183 c -3.21837,-0.15929 -6.17306,0.39483 -8.45898,3.40039 -0.41584,3.25739 -0.55779,5.1766 1.3125,7.9375 0.57375,0.70125 1.13063,1.38187 1.6875,2.0625 1.89474,4.53091 3.32842,8.63438 7,12 3.625,0.4375 3.625,0.4375 7,0 2.97191,-2.97191 5.10353,-6.25316 7,-10 1.29217,-4.00132 1.48695,-6.98182 -0.375,-10.875 -3.06887,-2.48433 -5.33335,-3.18323 -9.17578,-3.84375 -2.03314,-0.23347 -4.05921,-0.58606 -5.99024,-0.68164 z m 1.59375,4.125 c 1.44707,0.0695 2.96469,0.32639 4.48828,0.4961 2.87942,0.48012 4.57723,0.98714 6.87696,2.79297 1.39531,2.82988 1.24957,4.99776 0.28125,7.90624 -1.42117,2.72353 -3.01902,5.10735 -5.2461,7.26758 -2.52915,0.31801 -2.5296,0.31801 -5.24609,0 -2.75139,-2.44641 -3.82622,-5.42921 -5.24609,-8.72265 -0.41731,-0.49474 -0.83373,-0.98832 -1.26368,-1.49805 -1.40155,-2.00684 -1.29599,-3.40179 -0.98437,-5.76953 1.71301,-2.18469 3.92807,-2.58844 6.33984,-2.47266 z"
     style="fill:#ffffff;fill-opacity:1" />
  <path
     id="path7-2-2"
     d="m 229.98215,459.8183 c -0.74242,0.0299 -1.463,0.0589 -2.18359,0.0879 -3.43421,0.0456 -6.74442,-0.25279 -9.875,1.3125 -0.75,2.8125 -0.75,2.8125 -1,6 1.60949,4.15165 4.3683,6.72234 7.6914,9.58203 3.7053,2.27584 7.11259,2.02989 11.3086,1.41797 1.68389,-3.58742 2.95867,-6.83744 3.9375,-10.6875 0.0625,-3.3125 0.0625,-3.3125 -1.42578,-5.5 -2.89951,-2.09234 -4.92037,-2.25519 -8.45313,-2.21289 z m -0.64844,2.25 c 2.63079,-0.027 4.13571,0.0773 6.29493,1.41407 1.10829,1.3975 1.10708,1.39745 1.06054,3.51367 -0.72892,2.45965 -1.67768,4.53431 -2.93164,6.82617 -3.1247,0.39093 -5.66259,0.54964 -8.42187,-0.9043 -2.47465,-1.82694 -4.528,-3.47072 -5.72656,-6.12304 0.18617,-2.03638 0.18563,-2.03526 0.74414,-3.83204 2.33129,-1 4.79611,-0.81071 7.35351,-0.83984 0.53661,-0.0185 1.07408,-0.0355 1.62695,-0.0547 z"
     style="fill:#ffffff;fill-opacity:1" />
  <path
     id="path10-1-0"
     d="m 259.92356,485.21869 c -0.625,2.375 -0.625,2.375 -1,5 l 2,2 c 3.125,0.125 3.125,0.125 6,0 0.625,-2.375 0.625,-2.375 1,-5 l -2,-2 c -3.125,-0.125 -3.125,-0.125 -6,0 z m 0.80469,1.99805 c 2.05116,-0.0679 2.05172,-0.0679 4.28125,0 0.47087,0.3586 0.94064,0.71647 1.42578,1.08594 -0.26754,1.42623 -0.26699,1.42638 -0.71289,2.71679 -2.05117,0.0679 -2.05173,0.0679 -4.28125,0 -0.47088,-0.3586 -0.94064,-0.71646 -1.42579,-1.08593 0.26754,-1.42624 0.26699,-1.4264 0.7129,-2.7168 z"
     style="fill:#ffffff;fill-opacity:1" />
  <path
     id="path11-8-6"
     d="m 200.54856,462.09369 c -2.625,0.125 -2.625,0.125 -4.625,2.125 -0.125,2.625 -0.125,2.625 0,5 2.3125,0.6875 2.3125,0.6875 5,1 1.875,-1.125 1.875,-1.125 3,-3 -0.3125,-2.6875 -0.3125,-2.6875 -1,-5 -0.8075,-0.0425 -1.59125,-0.0837 -2.375,-0.125 z m -0.3125,0.89844 c 0.57942,0.0318 1.15887,0.0631 1.75586,0.0957 0.50826,1.77869 0.5092,1.77861 0.74023,3.84571 -0.83171,1.44217 -0.83257,1.44329 -2.21875,2.30859 -1.98686,-0.24037 -1.98764,-0.24074 -3.69726,-0.76953 -0.0924,-1.82674 -0.0924,-1.82666 0,-3.8457 1.47859,-1.53832 1.47926,-1.53863 3.41992,-1.63477 z"
     style="fill:#ffffff;fill-opacity:1" />
  <path
     id="path1-6-1"
     d="m -55.34418,366.02498 c -9.95624,-0.19868 -19.93367,0.78544 -28.851558,3.0332 l -3.41797,1.03516 c -20.433462,5.89344 -37.345612,14.88182 -52.417972,28.41992 -0.37251,0.23241 -0.81148,0.59331 -1.49219,1.1543 -0.73179,0.71851 -1.44207,1.4159 -2.15234,2.11328 -0.81424,0.78184 -1.50456,1.49234 -2.08985,2.19141 -1.63523,1.64727 -3.25068,3.35335 -4.84765,5.12109 -4.53924,5.19023 -8.47184,10.57584 -11.85157,16.13867 -0.0491,-0.0463 -0.0989,-0.0924 -0.14843,-0.13867 -2.18779,3.60286 -4.02982,7.2826 -5.6836,11.05273 -1.56324,3.56377 -2.95833,7.20824 -4.3164,10.94727 -0.32937,0.8437 -0.64399,1.68707 -0.94727,2.53125 -6.37151,17.7351 -7.08146,35.59707 -6.05273,54.46875 4.14262,32.53348 20.67013,61.30547 46.26367,81.64063 0.59078,0.46213 1.16292,0.91083 1.73633,1.35937 2.56771,2.01012 5.23519,3.91567 7.98632,5.70899 h 0.002 l 0.002,0.002 c 2.75001,1.79242 5.58387,3.47358 8.49024,5.03906 h 0.002 v 0.002 h 0.002 0.002 c 17.444632,9.39523 37.46288,14.61025 57.14844,14.5293 1.12579,-0.004 2.24985,-0.0243 3.37305,-0.0625 1.01735,-0.0744 2.00477,-0.14655 2.99219,-0.21875 6.19191,-0.40508 12.28025,-1.35958 18.30468,-2.58203 1.25949,-0.25575 2.53162,-0.49265 3.78321,-0.78516 1.90345,-0.44455 3.79435,-0.92541 5.67578,-1.45508 1.72104,-0.48566 3.43565,-1.04359 5.14648,-1.60546 1.96712,-0.64386 3.93657,-1.26879 5.875,-2.00977 0.12576,-0.0482 0.25318,-0.0802 0.37891,-0.12891 0.3352,-0.13676 0.72869,-0.34545 1.06836,-0.48632 2.93234,-1.16269 5.86801,-2.31875 8.72656,-3.70899 1.13544,-0.58025 2.2603,-1.17831 3.375,-1.79101 14.2566,-7.20407 29.25792,-17.39204 36.62891,-30.33399 9.754,-11.82968 17.351,-25.45505 22.2207,-40.29687 9.61589,-31.51422 7.1654,-65.72292 -8.19922,-95.01172 -15.92424,-29.18656 -42.37512,-51.01291 -74.26172,-60.77344 -1.26571,-0.35062 -2.49417,-0.69094 -3.72265,-1.03125 -8.83919,-2.48822 -18.77424,-3.86968 -28.73047,-4.06836 z m -0.73242,15.58399 0.002,0.002 c 8.6372,0.173 17.25568,1.37621 24.92383,3.54296 1.06573,0.29635 2.13048,0.59116 3.22851,0.89649 27.66217,8.49953 50.60928,27.50604 64.42383,52.92187 13.32907,25.50487 15.45523,55.29551 7.11328,82.73829 -4.22455,12.92434 -10.81557,24.78848 -19.27734,35.08984 -6.39446,11.26992 -19.40754,20.14268 -31.77539,26.41602 -0.96703,0.53354 -1.94273,1.05331 -2.92774,1.55859 -2.47985,1.21064 -5.02645,2.21798 -7.57031,3.23047 -0.29467,0.12266 -0.63694,0.30473 -0.92773,0.42383 -0.10907,0.0423 -0.21903,0.0693 -0.32813,0.11133 -1.68163,0.64525 -3.39114,1.18932 -5.09765,1.75 -1.48418,0.48928 -2.97182,0.97551 -4.46485,1.39843 -1.63218,0.46123 -3.27255,0.88046 -4.92383,1.26758 -1.08578,0.25471 -2.18863,0.46089 -3.28125,0.6836 -5.2263,1.06452 -10.5073,1.89529 -15.8789,2.24804 -0.85659,0.0629 -1.71509,0.12661 -2.59766,0.19141 -0.9744,0.0332 -1.94914,0.0487 -2.92578,0.0527 -17.07757,0.0705 -34.442658,-4.47091 -49.57617,-12.65234 h -0.002 -0.002 l -0.002,-0.002 c -2.52132,-1.36324 -4.97956,-2.82587 -7.36524,-4.38672 v -0.002 h -0.002 -0.002 c -2.38666,-1.56163 -4.7002,-3.22222 -6.92774,-4.97265 -0.49744,-0.39058 -0.99335,-0.78118 -1.50586,-1.1836 -22.20284,-17.70798 -36.54097,-42.76143 -40.13476,-71.09179 -0.89245,-16.43357 -0.2774,-31.98781 5.25,-47.43164 0.2631,-0.73512 0.53653,-1.47038 0.82226,-2.20508 1.17815,-3.25597 2.38801,-6.42985 3.74414,-9.53321 1.4347,-3.28306 3.0337,-6.4876 4.93165,-9.625 0.043,0.0403 0.0843,0.0808 0.12695,0.1211 2.93197,-4.84415 6.34533,-9.53305 10.2832,-14.05274 1.38539,-1.53935 2.78649,-3.02648 4.20508,-4.46094 0.50775,-0.60875 1.10613,-1.22737 1.8125,-1.9082 0.61617,-0.60728 1.23235,-1.21415 1.86719,-1.83984 0.59053,-0.48852 0.97177,-0.80348 1.29492,-1.00586 13.07554,-11.78907 27.74627,-19.61601 45.472662,-24.74805 l 2.964838,-0.90039 c 7.73643,-1.95737 16.39209,-2.81559 25.0293,-2.64258 z"
     style="fill:#ffffff;fill-opacity:1" />
  <path
     id="path3-9-5"
     d="m 126.822,541.94916 c -4.25581,7.0085 -7.20521,14.30541 -10,22 13.8598,24.26898 11.04018,24.94026 35.01171,43.76563 3.57722,9.93008 18.98831,18.26075 27.73829,24.78906 21.76224,10.56377 12.75689,6.63037 48.04882,24.50391 2.92123,1.94827 12.42667,3.37951 15.43946,5.18359 0.57807,0.34224 1.13816,0.67563 1.69922,1.00781 11.18279,6.75296 24.38512,9.58592 37.07226,12.11914 0.76209,0.15041 1.50056,0.29737 2.24024,0.44336 12.2607,2.46174 24.20151,4.52763 36.75,3.1875 l 3,-1 c 3.3192,-0.94834 6.13681,-2.04406 9,-4 3.63845,-4.88893 6.03762,-9.97419 7,-16 -5.26261,-4.47615 -10.51869,-8.95995 -15.85547,-13.34765 -4.92169,-4.00569 -9.80924,-8.0431 -14.64453,-12.15235 -3.11957,-2.65317 -6.24583,-5.29244 -9.41797,-7.88281 -4.61321,-3.73481 -9.10118,-7.52055 -13.45703,-11.55469 -3.08132,-2.92158 -5.58694,-4.69983 -9.625,-6.0625 -1.92883,8.46112 -3.50586,16.83201 -4.66797,25.42969 l -0.33203,2.57031 c -2.66128,-0.51556 -5.30453,-1.07068 -7.94532,-1.68359 -22.10073,-1.94864 -31.00809,-1.867 -50.55468,-15.56641 -31.98918,-13.17937 -59.87068,-37.35539 -78.8125,-66.1875 -2.29514,-3.61351 -4.554,-6.63652 -7.6875,-9.5625 z m 9.29882,20.77539 c 0.12741,-0.008 0.26768,-0.006 0.42188,0.004 -0.40993,0.50441 -0.84063,0.94388 -1.28711,1.33398 2.13048,6.36121 36.24126,33.24957 37.81055,35.09571 14.82997,16.867 39.31044,28.02629 64.35547,35.73632 15.30344,8.01425 22.2789,7.9655 39.58203,9.10547 2.06753,0.35856 4.13518,0.68473 6.21875,0.98633 l 0.26172,-1.5039 c 0.90985,-5.0297 2.14417,-9.92714 3.65429,-14.87696 3.16149,0.79717 5.12273,1.83774 7.53516,3.54688 3.41029,2.36 6.92336,4.57486 10.53515,6.75976 2.48353,1.51538 4.93262,3.05921 7.375,4.61133 3.78565,2.40394 7.61155,4.76602 11.46485,7.10938 4.17828,2.56684 8.29386,5.19 12.41406,7.80859 -0.75347,3.52513 -2.63185,6.49932 -5.48047,9.35937 -2.24165,1.14424 -4.4482,1.78505 -7.04687,2.33985 l -2.34961,0.58594 c -9.82448,0.78398 -19.17232,-0.42512 -28.77149,-1.86524 -0.57911,-0.0854 -1.15921,-0.16983 -1.75586,-0.25781 -9.93304,-1.48196 -20.26818,-3.14128 -29.02343,-7.0918 -0.43927,-0.19433 -0.87749,-0.38767 -1.33008,-0.58789 -2.35877,-1.0554 -9.80079,-1.89345 -12.08789,-3.0332 -27.6308,-10.45615 -20.58101,-8.15606 -37.61914,-14.33594 -6.85054,-3.81911 -18.91417,-8.69083 -21.71485,-14.5 -18.76783,-11.01298 -52.19769,-43.76146 -63.04882,-57.95898 1.9189,-3.94761 5.83883,-4.25246 9.02148,-7.03321 -0.2704,-0.80735 -0.0266,-1.28503 0.86523,-1.33789 z"
     style="fill:#ffffff;fill-opacity:1" />
  <path
     id="path4-0-5"
     d="m -3.75027,650.93549 c -2,0 -2,0 -3.91016,1.57422 l -2.15234,2.11328 c -3.13662,3.01184 -4.44191,4.95895 -4.9375,9.3125 0,0 7.9046,6.57443 8,10 1.8125,2.5625 1.8125,2.5625 3.23438,3.67578 1.88444,1.36604 1.88444,1.36604 3.90624,3.30469 14.96252,14.02133 35.84326,29.24578 57.17188,30.70703 2.85097,0.0131 4.17791,-0.0584 6.49609,1.62891 1.53159,1.78431 1.53159,1.78431 0.94141,4.93359 -0.7147,3.57349 -1.23481,7.14369 -1.75,10.75 2.69859,0.1542 4.68195,0.12375 7.21875,-0.86328 2.66451,-1.08901 5.34952,-1.98342 8.09766,-2.83594 1.36727,-0.41969 2.73345,-0.84231 4.09961,-1.26562 1.09569,-0.33954 1.09593,-0.33906 2.16992,-0.67188 3.60051,-1.11171 7.1991,-2.22709 10.79687,-3.34766 0.69834,-0.2178 1.37688,-0.42921 2.05469,-0.64062 5.54299,-1.72845 11.06404,-3.50945 16.5625,-5.375 -2.29893,-2.41068 -4.78481,-4.56614 -7.32617,-6.7168 -0.84492,-0.71089 -0.84565,-0.71138 -1.67383,-1.4082 -4.19519,-3.54323 -8.42082,-7.04283 -12.6875,-10.5 -3.68601,-2.98648 -7.2071,-6.08915 -10.6875,-9.3125 -3.08132,-2.92159 -5.58694,-4.69983 -9.625,-6.0625 -1,2 -1,2 -1.31641,4.60156 -0.12427,1.52684 -0.12427,1.52684 -0.24609,3.02344 -0.12822,1.53473 -0.12822,1.53473 -0.25391,3.03906 -0.06242,0.79422 -0.12299,1.56508 -0.18359,2.33594 -27.18215,-3.39777 -53.4253,-15.81122 -70.5625,-37.625 -1.10322,-1.49083 -2.23722,-2.96114 -3.4375,-4.375 z m 0.7207,4.71484 c 0.95965,0.99353 11.23123,14.46019 12.11328,15.50782 13.70151,15.32867 40.65213,23.80182 62.38477,26.18945 0.0484,-0.54168 0.0966,-1.08252 0.14648,-1.64063 0.10054,-1.0571 0.10066,-1.0563 0.20313,-2.13476 0.0974,-1.05167 0.0979,-1.05208 0.19726,-2.125 0.25298,-1.82813 0.25322,-1.82896 1.05274,-3.23438 3.22851,0.95756 5.23174,2.20676 7.69531,4.25977 2.78265,2.26507 5.59789,4.4463 8.54492,6.54492 3.4113,2.42938 6.79039,4.88907 10.14453,7.37891 0.66215,0.48966 0.66041,0.48873 1.33594,0.98828 2.03186,1.51128 4.02135,3.02671 5.85938,4.7207 -4.39612,1.31094 -8.81046,2.56276 -13.24219,3.77735 -0.54192,0.14855 -1.08425,0.29615 -1.64258,0.44921 -2.87649,0.78743 -5.75414,1.57232 -8.63281,2.35352 -0.85868,0.23387 -0.85836,0.23406 -1.73438,0.47266 -1.09227,0.29747 -2.18613,0.59375 -3.27929,0.88867 -2.19719,0.59907 -4.34234,1.22694 -6.47266,1.99219 -2.02822,0.69359 -3.61391,0.71578 -5.77148,0.60742 0.4119,-2.53418 0.82702,-5.04358 1.39843,-7.55469 0.47187,-2.21302 0.47258,-2.21296 -0.75195,-3.4668 -1.85343,-1.18569 -3.33037,-2.87604 -5.60977,-2.88525 -17.05264,-1.02683 -33.33171,-9.98453 -45.29453,-19.8374 -1.61647,-1.3623 -1.61639,-1.36235 -3.12304,-2.32227 -1.13682,-0.78231 -4.53525,-1.77743 -5.98438,-3.57812 -0.0763,-2.40717 -17.00586,-19.62696 -17.00586,-19.62696 0.29109,-4.08775 4.19726,-7.72461 7.46875,-7.72461 z"
     sodipodi:nodetypes="cccccccccccccscccccccccccccccccccccccccccsccsccccccccccc"
     style="fill:#ffffff;fill-opacity:0.993737" />
  <path
     id="path2-6-7"
     style="fill:#ffffff;fill-opacity:1;fill-rule:nonzero"
     d="M 12.960302,77.988773 C 5.7114223,96.55754 4.8826123,115.21881 5.9603023,134.98877 c 4.1426197,32.53348 20.6681797,61.30547 46.2617197,81.64063 0.59085,0.46219 1.16481,0.91078 1.73828,1.35937 21.43849,16.78301 49.684598,26.14758 77.007808,25.21875 1.01735,-0.0744 2.00477,-0.14655 2.99219,-0.21875 13.57145,-0.98701 26.44911,-3.64516 39.16406,-8.5664 18.39491,-7.50514 43.72486,-21.20395 51.83594,-40.4336 -12.4576,0.10128 -24.34466,-1.38588 -36.52539,-3.8457 l -2.28711,-0.4668 c -7.95321,-1.61517 -15.88008,-3.33664 -23.77149,-5.23242 l -2.0957,-0.50976 c -11.39674,-2.76918 -20.59012,-8.61864 -30.32031,-14.94532 -7.4905,-4.9562 -13.91263,-7.77785 -22.76953,-9.41015 -6.49868,-1.18657 -12.198968,-3.49684 -18.152348,-6.29883 -13.95602,-6.78074 -20.93253,-14.33828 -26.2207,-29.11328 -2.542,-7.12455 -5.31498,-13.70441 -9.47852,-20.08008 -10.06151,-13.10144 -24.03128,-22.894857 -40.3789,-26.097657 z m 12.37695,25.343747 c 13.43225,2.5603 24.91056,10.38811 33.17774,20.86133 3.42103,5.09668 5.70038,10.35742 7.78906,16.05274 4.34508,11.81105 10.07777,17.85099 21.54492,23.27148 4.89167,2.23991 9.57432,4.08662 14.914058,5.03516 7.27738,1.30486 12.55433,3.56148 18.70899,7.52343 7.99494,5.05751 15.54783,9.7336 24.91211,11.94727 0.56831,0.13436 1.13713,0.26779 1.72265,0.40625 6.48408,1.51546 12.99639,2.89244 19.53125,4.18359 0.93039,0.18483 0.93169,0.18451 1.88086,0.37305 10.00846,1.96639 19.77577,3.15518 30.01172,3.07422 -6.66458,15.37207 -27.47737,26.3227 -42.5918,32.32226 -10.44741,3.93401 -21.02852,6.05865 -32.17968,6.84766 -0.81133,0.0578 -1.62307,0.11631 -2.45899,0.17578 -22.45047,0.74249 -45.660178,-6.74394 -63.275388,-20.16015 -0.47121,-0.35861 -0.94225,-0.71646 -1.42773,-1.08594 -21.02927,-16.2558 -34.60789,-39.2566 -38.01172,-65.26367 -0.88551,-15.80401 -0.20418,-30.72069 5.75195,-45.56446 z" />
  <path
     id="path5-0-65"
     d="m 183.12999,158.66279 c -3.79479,0.7454 -4.26971,1.12927 -6.625,3.9375 -1.75972,2.32451 -3.16384,3.98953 -5.4375,5.875 -2.78788,2.14453 -5.18023,4.16628 -7.4375,6.875 -0.375,3.1875 -0.375,3.1875 0,6 1.88521,3.77042 5.1486,5.51572 9,7 7.5903,0.80359 14.46793,1.14113 20.92187,-3.33203 l 1.82813,-1.48047 c 1.85937,-1.45703 1.85937,-1.45703 3.25,-3.1875 0.91885,-5.80635 0.91885,-5.80635 -6,-17 -2.74863,-3.08048 -5.44194,-3.89038 -9.5,-4.6875 z m 0.80078,4.47461 c 2.99224,0.58035 4.97914,1.1713 7.00586,3.41407 5.10166,8.14963 5.10135,8.14959 4.42383,12.37695 -1.02539,1.25988 -1.02547,1.25951 -2.39649,2.32031 -0.66725,0.53354 -0.66692,0.5338 -1.34765,1.07813 -4.75886,3.25672 -9.83098,3.01084 -15.42774,2.42578 -2.83985,-1.08064 -5.24665,-2.35063 -6.63672,-5.09571 -0.27651,-2.04767 -0.27651,-2.04846 0,-4.36914 1.66442,-1.97211 3.42872,-3.44452 5.48438,-5.00586 1.6765,-1.37273 2.71222,-2.58496 4.00976,-4.27734 1.73669,-2.04456 2.08666,-2.3245 4.88477,-2.86719 z"
     style="fill:#ffffff;fill-opacity:1" />
  <path
     id="path6-6-6"
     d="m 121.08897,134.9499 c -3.21837,-0.15929 -6.17306,0.39483 -8.45898,3.40039 -0.41584,3.25739 -0.55779,5.1766 1.3125,7.9375 0.57375,0.70125 1.13063,1.38187 1.6875,2.0625 1.89474,4.53091 3.32842,8.63438 7,12 3.625,0.4375 3.625,0.4375 7,0 2.97191,-2.97191 5.10353,-6.25316 7,-10 1.29217,-4.00132 1.48695,-6.98182 -0.375,-10.875 -3.06887,-2.48433 -5.33335,-3.18323 -9.17578,-3.84375 -2.03314,-0.23347 -4.05921,-0.58606 -5.99024,-0.68164 z m 1.59375,4.125 c 1.44707,0.0695 2.96469,0.32639 4.48828,0.4961 2.87942,0.48012 4.57723,0.98714 6.87696,2.79297 1.39531,2.82988 1.24957,4.99776 0.28125,7.90624 -1.42117,2.72353 -3.01902,5.10735 -5.2461,7.26758 -2.52915,0.31801 -2.5296,0.31801 -5.24609,0 -2.75139,-2.44641 -3.82622,-5.42921 -5.24609,-8.72265 -0.41731,-0.49474 -0.83373,-0.98832 -1.26368,-1.49805 -1.40155,-2.00684 -1.29599,-3.40179 -0.98437,-5.76953 1.71301,-2.18469 3.92807,-2.58844 6.33984,-2.47266 z"
     style="fill:#ffffff;fill-opacity:1" />
  <path
     id="path7-2-9"
     d="m 128.07646,88.694075 c -0.74242,0.0299 -1.463,0.0589 -2.18359,0.0879 -3.43421,0.0456 -6.74442,-0.25279 -9.875,1.3125 -0.75,2.8125 -0.75,2.8125 -1,6 1.60949,4.151645 4.3683,6.722335 7.6914,9.582025 3.7053,2.27584 7.11259,2.02989 11.3086,1.41797 1.68389,-3.58742 4.48261,-6.83744 5.46144,-10.687495 0.0625,-3.3125 -1.46144,-3.3125 -2.94972,-5.5 -2.89951,-2.09234 -4.92037,-2.25519 -8.45313,-2.21289 z m -0.64844,2.25 c 2.63079,-0.027 4.13571,0.0773 6.29493,1.41406 1.10829,1.39751 1.10708,1.39746 1.06054,3.51368 -0.72892,2.45965 -1.67768,4.534305 -2.93164,6.826165 -3.1247,0.39093 -5.66259,0.54964 -8.42187,-0.9043 -2.47465,-1.826935 -4.528,-3.470715 -5.72656,-6.123035 0.18617,-2.03638 0.18563,-2.03526 0.74414,-3.83204 2.33129,-1 4.79611,-0.81071 7.35351,-0.83984 0.53661,-0.0185 1.07408,-0.0355 1.62695,-0.0547 z"
     style="fill:#ffffff;fill-opacity:1"
     sodipodi:nodetypes="scccccccssscccccccss" />
  <path
     id="path10-1-3"
     d="m 135.62999,118.35029 c -0.625,2.375 -0.625,2.375 -1,5 l 2,2 c 3.125,0.125 3.125,0.125 6,0 0.625,-2.375 0.625,-2.375 1,-5 l -2,-2 c -3.125,-0.125 -3.125,-0.125 -6,0 z m 0.80469,1.99805 c 2.05116,-0.0679 2.05172,-0.0679 4.28125,0 0.47087,0.3586 0.94064,0.71647 1.42578,1.08594 -0.26754,1.42623 -0.26699,1.42638 -0.71289,2.71679 -2.05117,0.0679 -2.05173,0.0679 -4.28125,0 -0.47088,-0.3586 -0.94064,-0.71646 -1.42579,-1.08593 0.26754,-1.42624 0.26699,-1.4264 0.7129,-2.7168 z"
     style="fill:#ffffff;fill-opacity:1" />
  <path
     id="path11-8-7"
     d="m 90.180721,94.893727 c -2.625,0.125 -2.625,0.125 -4.625,2.125 -0.125,2.625 -0.125,2.625 0,5.000003 2.3125,0.6875 2.3125,0.6875 5,1 1.875,-1.125 1.875,-1.125 3,-3 -0.3125,-2.687503 -0.3125,-2.687503 -1,-5.000003 -0.8075,-0.0425 -1.59125,-0.0837 -2.375,-0.125 z m -0.3125,0.89844 c 0.57942,0.0318 1.15887,0.0631 1.75586,0.0957 0.50826,1.77869 0.5092,1.77861 0.74023,3.84571 -0.83171,1.442173 -0.83257,1.443293 -2.21875,2.308593 -1.98686,-0.24037 -1.98764,-0.24074 -3.69726,-0.76953 -0.0924,-1.826743 -0.0924,-1.826663 0,-3.845703 1.47859,-1.53832 1.47926,-1.53863 3.41992,-1.63477 z"
     style="fill:#ffffff;fill-opacity:1" />
  <path
     id="path1-6-4"
     d="m 126.40609,2.0894918 c -9.95624,-0.198677 -19.93367,0.785434 -28.851558,3.033202 l -3.41797,1.035157 c -20.43346,5.8934382 -37.34561,14.8818182 -52.41797,28.4199212 -0.37251,0.232403 -0.81148,0.593305 -1.49219,1.154297 -0.73179,0.718515 -1.44207,1.415899 -2.15234,2.113282 -0.81424,0.781842 -1.50456,1.49234 -2.08985,2.191406 -1.63523,1.647274 -3.25068,3.353358 -4.84765,5.121094 -4.53924,5.190229 -8.47184,10.57584 -11.85157,16.138671 -0.0491,-0.04627 -0.0989,-0.09245 -0.14843,-0.138671 -2.18779,3.602861 -4.02982,7.282594 -5.6836,11.052734 -1.56324,3.563761 -2.95833,7.208233 -4.3164002,10.947266 -0.32937,0.8437 -0.64399,1.68707 -0.94727,2.53125 -6.37151,17.735099 -7.08146,35.597069 -6.05273,54.468749 4.14262,32.53348 20.6701302,61.30547 46.2636702,81.64063 0.59078,0.46213 1.16292,0.91083 1.73633,1.35937 2.56771,2.01012 5.23519,3.91567 7.98632,5.70899 h 0.002 l 0.002,0.002 c 2.75001,1.79242 5.58387,3.47358 8.49024,5.03906 h 0.002 v 0.002 h 0.002 0.002 c 17.44463,9.39523 37.462878,14.61025 57.148438,14.5293 1.12579,-0.004 2.24985,-0.0243 3.37305,-0.0625 1.01735,-0.0744 2.00477,-0.14655 2.99219,-0.21875 6.19191,-0.40508 12.28025,-1.35958 18.30468,-2.58203 1.25949,-0.25575 2.53162,-0.49265 3.78321,-0.78516 1.90345,-0.44455 3.79435,-0.92541 5.67578,-1.45508 1.72104,-0.48566 3.43565,-1.04359 5.14648,-1.60546 1.96712,-0.64386 3.93657,-1.26879 5.875,-2.00977 0.12576,-0.0482 0.25318,-0.0802 0.37891,-0.12891 0.3352,-0.13676 0.72869,-0.34545 1.06836,-0.48632 2.93234,-1.16269 5.86801,-2.31875 8.72656,-3.70899 1.13544,-0.58025 2.2603,-1.17831 3.375,-1.79101 14.2566,-7.20407 29.25792,-17.39204 36.62891,-30.33399 9.754,-11.82968 17.351,-25.45505 22.2207,-40.29687 9.61589,-31.51422 7.1654,-65.722919 -8.19922,-95.011722 -15.92424,-29.186555 -42.37512,-51.012904 -74.26172,-60.7734372 -1.26571,-0.350625 -2.49417,-0.690938 -3.72265,-1.03125 -8.83919,-2.488217 -18.77424,-3.869682 -28.73047,-4.068359 z m -0.73242,15.5839842 0.002,0.002 c 8.6372,0.173009 17.25568,1.376214 24.92383,3.542969 1.06573,0.296345 2.13048,0.591157 3.22851,0.896484 27.66217,8.499532 50.60928,27.506043 64.42383,52.921875 13.32907,25.504866 15.45523,55.295506 7.11328,82.738286 -4.22455,12.92434 -10.81557,24.78848 -19.27734,35.08984 -6.39446,11.26992 -19.40754,20.14268 -31.77539,26.41602 -0.96703,0.53354 -1.94273,1.05331 -2.92774,1.55859 -2.47985,1.21064 -5.02645,2.21798 -7.57031,3.23047 -0.29467,0.12266 -0.63694,0.30473 -0.92773,0.42383 -0.10907,0.0423 -0.21903,0.0693 -0.32813,0.11133 -1.68163,0.64525 -3.39114,1.18932 -5.09765,1.75 -1.48418,0.48928 -2.97182,0.97551 -4.46485,1.39843 -1.63218,0.46123 -3.27255,0.88046 -4.92383,1.26758 -1.08578,0.25471 -2.18863,0.46089 -3.28125,0.6836 -5.2263,1.06452 -10.5073,1.89529 -15.8789,2.24804 -0.85659,0.0629 -1.71509,0.12661 -2.59766,0.19141 -0.9744,0.0332 -1.94914,0.0487 -2.92578,0.0527 -17.07757,0.0705 -34.442658,-4.47091 -49.576168,-12.65234 h -0.002 -0.002 l -0.002,-0.002 c -2.52132,-1.36324 -4.97956,-2.82587 -7.36524,-4.38672 v -0.002 h -0.002 -0.002 c -2.38666,-1.56163 -4.7002,-3.22222 -6.92774,-4.97265 -0.49744,-0.39058 -0.99335,-0.78118 -1.50586,-1.1836 -22.20284,-17.70798 -36.54097,-42.76143 -40.13476,-71.09179 -0.89245,-16.43357 -0.2774,-31.98781 5.25,-47.431642 0.2631,-0.73512 0.53653,-1.47038 0.82226,-2.20508 1.17815,-3.25597 2.38801,-6.42985 3.74414,-9.533205 1.4347,-3.283059 3.0337,-6.487607 4.93165,-9.625 0.043,0.04026 0.0843,0.0808 0.12695,0.121093 2.93197,-4.844147 6.34533,-9.53305 10.2832,-14.052734 1.38539,-1.539355 2.78649,-3.02648 4.20508,-4.460937 0.50775,-0.608753 1.10613,-1.227371 1.8125,-1.908204 0.61617,-0.607284 1.23235,-1.214156 1.86719,-1.839843 0.59053,-0.488515 0.97177,-0.803483 1.29492,-1.00586 13.07554,-11.789065 27.74627,-19.616005 45.47266,-24.748047 l 2.964838,-0.90039 c 7.73643,-1.95737 16.39209,-2.815587 25.0293,-2.642578 z"
     style="fill:#ffffff;fill-opacity:1" />
  <path
     d="m 64.863282,32.058194 c 1.20028,1.413861 2.33428,2.884167 3.4375,4.375 17.1372,21.813778 43.380348,34.22723 70.562498,37.624999 0.0606,-0.770859 0.12117,-1.541719 0.18359,-2.335938 0.12569,-1.504336 0.12569,-1.504336 0.25391,-3.039062 0.12182,-1.496602 0.12182,-1.496602 0.24609,-3.023438 0.31641,-2.601562 0.31641,-2.601562 1.31641,-4.601562 4.03806,1.362666 6.54368,3.140915 9.625,6.0625 3.4804,3.22335 7.00149,6.326024 10.6875,9.3125 4.26668,3.457168 8.49231,6.956768 12.6875,10.5 0.82818,0.696819 0.82818,0.696819 1.6731,1.407715 2.54136,2.150655 5.02797,4.306602 7.3269,6.717285 -5.49846,1.86555 -11.01951,3.64655 -16.5625,5.374997 -0.67781,0.21141 -1.35561,0.42281 -2.05395,0.64062 -3.59777,1.12056 -7.1971,2.23595 -10.79761,3.34766 -1.07399,0.33282 -1.07399,0.33282 -2.16968,0.67236 -1.36616,0.42331 -2.73283,0.84496 -4.1001,1.26465 -2.74814,0.85252 -5.4329,1.74742 -8.09741,2.83643 -2.5368,0.98703 -4.52016,1.01748 -7.21875,0.86328 0.51519,-3.60631 5.48989,-9.52103 6.20459,-13.094516 0.59018,-3.14928 -1.87157,-4.790442 -3.40316,-6.574756 -2.31818,-1.687318 -6.92745,1.432066 -9.77842,1.418968 -21.32862,-1.46125 -40.919858,-15.747889 -55.882378,-29.769224 -2.0218,-1.938648 -2.0218,-1.938648 -3.90625,-3.304688 -1.42188,-1.113281 -1.42188,-1.113281 -3.23438,-3.675781 -2.38131,-2.253307 1.42178,-4.21934 -1.37814,-7.224067 l -5.20564,-0.431414 -1.41622,-2.344519 c 0.49559,-4.35355 1.80088,-6.30066 4.9375,-9.312499 0.71027,-0.697383 1.42055,-1.394766 2.15234,-2.113281 1.91016,-1.574219 1.91016,-1.574219 3.91016,-1.574219 z"
     fill="#a8b8fd"
     id="path4-4"
     style="fill:#ffffff;fill-opacity:1"
     sodipodi:nodetypes="ccccccccccccsccsccccccccccccccc" />
  <path
     id="path9-3"
     d="m 58.631592,46.701237 c -2.5625,0.1875 -2.5625,0.1875 -4.5625,2.1875 -0.125,3.125 -0.125,3.125 0,6 0.78625,0.23375 1.54938,0.460625 2.3125,0.6875 2.6875,0.3125 2.6875,0.3125 4.5,-0.8125 1.54353,-2.437146 1.48577,-4.041405 1.1875,-6.875 -1,-1 -1,-1 -3.4375,-1.1875 z m -0.36328,1.699219 c 1.55555,0.114667 1.55518,0.113054 2.19336,0.724609 0.19035,1.732901 0.22724,2.714628 -0.75781,4.205078 -1.15669,0.688 -1.156,0.689158 -2.8711,0.498047 -0.487,-0.138747 -0.9748,-0.278924 -1.47656,-0.421875 -0.0798,-1.758222 -0.0798,-1.756859 0,-3.667969 1.27635,-1.223111 1.27678,-1.223223 2.91211,-1.33789 z"
     style="fill:#ffffff;fill-opacity:1" />
</svg>
