<?xml version="1.0" encoding="UTF-8"?>
<svg version="1.1" xmlns="http://www.w3.org/2000/svg" width="250" height="250">
<path d="M0 0 C1.22847656 0.3403125 2.45695313 0.680625 3.72265625 1.03125 C35.60926274 10.79178311 62.06012711 32.61764369 77.984375 61.80419922 C93.34899476 91.09300564 95.79802459 125.30170058 86.18212891 156.81591797 C75.86940743 188.24694236 53.33223792 214.22562119 23.95776367 229.23706055 C8.56410767 236.72367159 -7.95517511 240.884918 -25 242 C-25.98355469 242.07089844 -26.96710938 242.14179688 -27.98046875 242.21484375 C-55.29386764 243.17793962 -83.57420217 233.77308003 -105 217 C-105.57347168 216.55140625 -106.14694336 216.1028125 -106.73779297 215.640625 C-132.33132736 195.30546206 -148.85737808 166.53347701 -153 134 C-154.92297834 98.72329391 -147.77221893 66.18150301 -124 39 C-106.2798459 19.38510905 -86.34889167 7.31115402 -61 0 C-59.87207031 -0.34160156 -58.74414062 -0.68320313 -57.58203125 -1.03515625 C-39.74624276 -5.53069497 -17.67838178 -4.97643437 0 0 Z " fill="#7D90D3" transform="translate(156,6)"/>
<path d="M0 0 C16.34762409 3.20279982 30.31740271 12.99622388 40.37890625 26.09765625 C44.54245216 32.47333281 47.31566492 39.05391791 49.85766602 46.1784668 C55.14584337 60.95346587 62.12307512 68.50979494 76.07910156 75.29052734 C82.03247549 78.09252285 87.73179481 80.40326604 94.23046875 81.58984375 C103.08736939 83.2221406 109.50949795 86.04380151 117 91 C126.73018785 97.32668067 135.92356744 103.17613288 147.3203125 105.9453125 C148.01195999 106.1133992 148.70360748 106.2814859 149.41621399 106.45466614 C157.30761543 108.35045019 165.23428663 110.07233369 173.1875 111.6875 C174.31981552 111.91870041 174.31981552 111.91870041 175.4750061 112.15457153 C187.65573849 114.61439147 199.54240047 116.1012813 212 116 C203.88891562 135.22964949 178.55896866 148.9284543 160.1640625 156.43359375 C147.44911452 161.35482777 134.57145125 164.01298536 121 165 C120.01257813 165.0721875 119.02515625 165.144375 118.0078125 165.21875 C90.68460148 166.14758437 62.43848846 156.78301483 41 140 C40.42652832 139.55140625 39.85305664 139.1028125 39.26220703 138.640625 C13.66867264 118.30546206 -2.85737808 89.53347701 -7 57 C-8.07768604 37.23003549 -7.24888331 18.56877272 0 0 Z " fill="#4B321B" transform="translate(10,83)"/>
<path d="M0 0 C3.13349856 2.9259821 5.39236478 5.94898522 7.6875 9.5625 C26.62932293 38.39461054 54.51082457 62.57062655 86.5 75.75 C90.82244745 77.62875375 90.82244745 77.62875375 92.375 80.875 C92.684375 82.421875 92.684375 82.421875 93 84 C94.09276142 85.73249659 94.09276142 85.73249659 95.4375 87.4375 C97.96906208 90.79051291 99.44298179 94.10745447 101 98 C102.15866921 99.36636155 102.15866921 99.36636155 105.3125 99.375 C109.05072358 99.36596291 109.05072358 99.36596291 111.25 96.9375 C113.18675125 93.68652468 114.61929061 90.52080895 116 87 C123.07920631 88.20587683 130.06719376 89.65966633 137.0546875 91.31640625 C139.69548362 91.92932312 142.33872155 92.48443868 145 93 C145.10957031 92.15179688 145.21914062 91.30359375 145.33203125 90.4296875 C146.49413457 81.8320125 148.07117269 73.46112246 150 65 C154.03805866 66.36266644 156.54368118 68.1409151 159.625 71.0625 C163.98084449 75.09664254 168.46882419 78.8823767 173.08203125 82.6171875 C176.25417407 85.20755848 179.38043294 87.84682867 182.5 90.5 C187.33529263 94.60925353 192.22283511 98.64665014 197.14453125 102.65234375 C202.48130877 107.04003634 207.73738641 111.52385012 213 116 C212.03762061 122.02580733 209.63844643 127.11107302 206 132 C203.13680874 133.95594497 200.31920513 135.05165568 197 136 C196.01 136.33 195.02 136.66 194 137 C181.45151376 138.3401296 169.51069577 136.27423708 157.25 133.8125 C156.51031982 133.66651367 155.77063965 133.52052734 155.00854492 133.37011719 C142.32141133 130.83690313 129.12028825 128.00296116 117.9375 121.25 C117.37643555 120.91782471 116.81537109 120.58564941 116.23730469 120.2434082 C113.22451283 118.4393337 110.28451102 116.53811113 107.36328125 114.58984375 C100.78416506 110.20642023 94.8387987 106.65608423 87 105 C75.34803765 102.18097685 65.0828993 98.67419186 55 92 C54.2575 91.52304688 53.515 91.04609375 52.75 90.5546875 C44.00001759 84.02638031 40.07722188 72.18008081 36.5 62.25 C30.10963206 45.16683817 18.01008495 34.14132522 1.859375 26.65625 C-2.03400666 24.93657265 -6.00177545 23.45713073 -10 22 C-7.2052092 14.30540575 -4.25580748 7.00849998 0 0 Z " fill="#A8B8FC" transform="translate(20,61)"/>
<path d="M0 0 C1.20027784 1.41386111 2.33428348 2.88416686 3.4375 4.375 C20.57469983 26.18877859 46.81784644 38.60223081 74 42 C74.06058594 41.22914062 74.12117188 40.45828125 74.18359375 39.6640625 C74.30927734 38.15972656 74.30927734 38.15972656 74.4375 36.625 C74.55931641 35.12839844 74.55931641 35.12839844 74.68359375 33.6015625 C75 31 75 31 76 29 C80.03805866 30.36266644 82.54368118 32.1409151 85.625 35.0625 C89.10539602 38.28585052 92.62648913 41.38852404 96.3125 44.375 C100.57918063 47.83216776 104.80480839 51.33176781 109 54.875 C109.82818237 55.57181885 109.82818237 55.57181885 110.6730957 56.28271484 C113.21445671 58.43336963 115.70107083 60.58931733 118 63 C112.50154112 64.86554855 106.98048753 66.64654874 101.4375 68.375 C100.75969482 68.58640625 100.08188965 68.7978125 99.38354492 69.015625 C95.78577614 70.13617963 92.18644805 71.25156983 88.5859375 72.36328125 C87.51194702 72.69610107 87.51194702 72.69610107 86.41625977 73.03564453 C85.05010387 73.45895151 83.68343191 73.88059782 82.31616211 74.30029297 C79.56801502 75.15281128 76.88326216 76.04771167 74.21875 77.13671875 C71.68194928 78.12374861 69.69858647 78.15420494 67 78 C67.5151876 74.39368681 68.03530108 70.82349462 68.75 67.25 C69.34018232 64.10072186 69.34018232 64.10072186 67.80859375 62.31640625 C65.4904086 60.6290879 64.16346913 60.70059787 61.3125 60.6875 C39.98387535 59.22625035 19.10315152 44.00180409 4.140625 29.98046875 C2.11882824 28.04182094 2.11882824 28.04182094 0.234375 26.67578125 C-1.1875 25.5625 -1.1875 25.5625 -3 23 C-3.09544919 19.57443452 -2.65824649 16.35640537 -2 13 C-2.7425 13 -3.485 13 -4.25 13 C-6.5 13 -8.75 13 -11 13 C-10.50441205 8.64645044 -9.19912401 6.69933969 -6.0625 3.6875 C-5.35222656 2.99011719 -4.64195313 2.29273438 -3.91015625 1.57421875 C-2 0 -2 0 0 0 Z " fill="#A8B8FD" transform="translate(45,34)"/>
<path d="M0 0 C4.0580569 0.79711832 6.75137406 1.60701896 9.5 4.6875 C16.41884945 15.88115346 16.41884945 15.88115346 15.5 21.6875 C14.109375 23.41796875 14.109375 23.41796875 12.25 24.875 C11.34507812 25.60783203 11.34507812 25.60783203 10.421875 26.35546875 C3.96793006 30.82862978 -2.90969951 30.49108527 -10.5 29.6875 C-14.35140437 28.20321952 -17.61479023 26.45791955 -19.5 22.6875 C-19.875 19.875 -19.875 19.875 -19.5 16.6875 C-17.24272962 13.97877554 -14.85038301 11.95702539 -12.0625 9.8125 C-9.78884359 7.92702883 -8.38472048 6.2620114 -6.625 3.9375 C-4.26970911 1.12926856 -3.79478951 0.74540508 0 0 Z " fill="#4E3622" transform="translate(182.5,159.3125)"/>
<path d="M0 0 C3.84243147 0.66051715 6.10690832 1.3594243 9.17578125 3.84375 C11.03773521 7.73692647 10.84295018 10.71743144 9.55078125 14.71875 C7.6543119 18.46559396 5.52269474 21.74683651 2.55078125 24.71875 C-0.82421875 25.15625 -0.82421875 25.15625 -4.44921875 24.71875 C-8.12080269 21.35313139 -9.55447411 17.2496611 -11.44921875 12.71875 C-12.00609375 12.038125 -12.56296875 11.3575 -13.13671875 10.65625 C-15.00700488 7.89535143 -14.8650556 5.97613869 -14.44921875 2.71875 C-10.79174492 -2.09015078 -5.42171254 -0.622589 0 0 Z " fill="#4C341F" transform="translate(126.44921875,136.28125)"/>
<path d="M0 0 C0.72058594 -0.02900391 1.44117187 -0.05800781 2.18359375 -0.08789062 C5.71634838 -0.13017958 7.73720686 0.03266172 10.63671875 2.125 C12.125 4.3125 12.125 4.3125 12.0625 7.625 C11.08367151 11.47505871 9.80888962 14.72508299 8.125 18.3125 C3.92898615 18.92441869 0.52170553 19.17037497 -3.18359375 16.89453125 C-6.50668729 14.03484158 -9.26551295 11.46415121 -10.875 7.3125 C-10.625 4.125 -10.625 4.125 -9.875 1.3125 C-6.74441914 -0.25279043 -3.43420992 0.04558686 0 0 Z " fill="#4C3520" transform="translate(102.875,93.6875)"/>
<path d="M0 0 C5.26870634 0.74171109 10.26976631 2.10909615 15.375 3.5625 C16.20644531 3.79646484 17.03789062 4.03042969 17.89453125 4.27148438 C19.93048609 4.84482798 21.96535527 5.4220244 24 6 C24 7.32 24 8.64 24 10 C17.6283196 9.54795511 13.09989036 7.93966344 7.5 4.9375 C6.77296875 4.56044922 6.0459375 4.18339844 5.296875 3.79492188 C3.52549507 2.87427046 1.76189339 1.93867864 0 1 C0 0.67 0 0.34 0 0 Z " fill="#7C8CC9" transform="translate(134,179)"/>
<path d="M0 0 C2.4375 0.1875 2.4375 0.1875 3.4375 1.1875 C3.7357732 4.02109542 3.79352594 5.62535378 2.25 8.0625 C0.4375 9.1875 0.4375 9.1875 -2.25 8.875 C-3.013125 8.648125 -3.77625 8.42125 -4.5625 8.1875 C-4.6875 5.3125 -4.6875 5.3125 -4.5625 2.1875 C-2.5625 0.1875 -2.5625 0.1875 0 0 Z " fill="#4F3926" transform="translate(40.5625,45.8125)"/>
<path d="M0 0 C2.875 -0.125 2.875 -0.125 6 0 C6.66 0.66 7.32 1.32 8 2 C7.625 4.625 7.625 4.625 7 7 C4.125 7.125 4.125 7.125 1 7 C0.34 6.34 -0.32 5.68 -1 5 C-0.625 2.375 -0.625 2.375 0 0 Z " fill="#4E3826" transform="translate(135,119)"/>
<path d="M0 0 C0.78375 0.04125 1.5675 0.0825 2.375 0.125 C3.0625 2.4375 3.0625 2.4375 3.375 5.125 C2.25 7 2.25 7 0.375 8.125 C-2.3125 7.8125 -2.3125 7.8125 -4.625 7.125 C-4.75 4.75 -4.75 4.75 -4.625 2.125 C-2.625 0.125 -2.625 0.125 0 0 Z " fill="#4D3724" transform="translate(75.625,95.875)"/>
</svg>
