<?xml version="1.0" encoding="UTF-8" standalone="no"?>
<svg
   version="1.1"
   width="512"
   height="512"
   viewBox="0 0 1280 1280"
   id="svg2"
   xml:space="preserve"
   sodipodi:docname="Speed2XButtonActive.svg"
   inkscape:version="1.4 (e7c3feb100, 2024-10-09)"
   xmlns:inkscape="http://www.inkscape.org/namespaces/inkscape"
   xmlns:sodipodi="http://sodipodi.sourceforge.net/DTD/sodipodi-0.dtd"
   xmlns="http://www.w3.org/2000/svg"
   xmlns:svg="http://www.w3.org/2000/svg"><sodipodi:namedview
     id="namedview1"
     pagecolor="#ffffff"
     bordercolor="#666666"
     borderopacity="1.0"
     inkscape:showpageshadow="2"
     inkscape:pageopacity="0.0"
     inkscape:pagecheckerboard="0"
     inkscape:deskcolor="#d1d1d1"
     inkscape:zoom="1.1640625"
     inkscape:cx="178.25503"
     inkscape:cy="322.14765"
     inkscape:window-width="2560"
     inkscape:window-height="1403"
     inkscape:window-x="0"
     inkscape:window-y="0"
     inkscape:window-maximized="1"
     inkscape:current-layer="g1" /><defs
     id="defs2"><rect
       x="85.186211"
       y="124.02759"
       width="402.53793"
       height="387.97241"
       id="rect1" /></defs><g
     id="g1"
     transform="matrix(2.5,0,0,2.5,-0.85446741,-0.10664749)"
     style="display:inline"><path
       id="path1-3"
       style="display:inline;fill:#12ffd5;fill-opacity:1;stroke-width:17.7931;stroke-linecap:round"
       d="M 108.54772,4.1412726 C 71.565202,4.1822764 47.409391,13.247296 30.589644,30.238226 13.769897,47.229154 4.471557,72.611149 4.4147904,109.953 c -0.178556,117.4565 0.033432,171.22788 -0.019905,296.26412 -0.015253,35.76467 8.9990126,58.05804 26.0469016,74.8448 17.047887,16.78676 40.853778,26.84047 77.530893,26.89545 139.48929,0.20904 159.49414,-0.0366 295.92384,-3e-5 36.36842,0.0104 60.33707,-9.8477 77.55874,-26.89542 17.22167,-17.04774 26.81312,-39.36478 26.85431,-75.08742 0.11829,-102.53833 -0.1201,-182.85526 -0.21738,-296.02725 C 508.06002,72.591787 498.38357,47.116652 481.45516,30.138242 464.52675,13.159826 441.20546,4.297196 405.08415,4.2256406 292.46046,4.0025361 240.74099,3.9947056 108.54772,4.1412726 Z" /><path
       d="m 251.58555,415.1874 h -151.04 v -23.36 l 59.84,-60.48 q 17.28,-17.28 29.12,-30.72 11.84,-13.44 17.92,-26.24 6.08,-13.12 6.08,-28.48 0,-18.88 -11.2,-28.48 -11.2,-9.92 -29.12,-9.92 -16.64,0 -29.44,5.76 -12.48,5.76 -25.6,16 l -15.04,-18.88 q 8.96,-7.68 19.52,-13.76 10.88,-6.08 23.36,-9.6 12.8,-3.52 27.2,-3.52 21.44,0 36.8,7.36 15.36,7.36 23.68,21.12 8.64,13.44 8.64,32.32 0,17.92 -7.36,33.6 -7.36,15.68 -20.48,31.04 -13.12,15.04 -30.72,32.32 l -47.68,47.04 v 1.28 h 115.52 z m 84.48016,-87.68 -59.2,-83.84 h 32 l 44.16,64.64 43.84,-64.64 h 31.68 l -59.2,83.84 62.4,87.68 h -32 l -46.72,-68.48 -47.36,68.48 h -31.68 z"
       id="text1"
       style="font-size:320px;line-height:125%;font-family:'Noto Sans';-inkscape-font-specification:'Noto Sans';letter-spacing:0px;word-spacing:0px;white-space:pre;stroke:#000000;stroke-width:1px"
       transform="translate(-9.80384,-43.304743)"
       aria-label="2x" /></g></svg>
