<?xml version="1.0" encoding="UTF-8" standalone="no"?>
<svg
   version="1.1"
   width="512"
   height="512"
   viewBox="0 0 1280 1280"
   id="svg2"
   xml:space="preserve"
   sodipodi:docname="Speed2XButtonHover.svg"
   inkscape:version="1.4 (e7c3feb100, 2024-10-09)"
   xmlns:inkscape="http://www.inkscape.org/namespaces/inkscape"
   xmlns:sodipodi="http://sodipodi.sourceforge.net/DTD/sodipodi-0.dtd"
   xmlns="http://www.w3.org/2000/svg"
   xmlns:svg="http://www.w3.org/2000/svg"><sodipodi:namedview
     id="namedview1"
     pagecolor="#ffffff"
     bordercolor="#666666"
     borderopacity="1.0"
     inkscape:showpageshadow="2"
     inkscape:pageopacity="0.0"
     inkscape:pagecheckerboard="0"
     inkscape:deskcolor="#d1d1d1"
     inkscape:zoom="0.58203125"
     inkscape:cx="52.402685"
     inkscape:cy="298.95302"
     inkscape:window-width="2560"
     inkscape:window-height="1403"
     inkscape:window-x="0"
     inkscape:window-y="0"
     inkscape:window-maximized="1"
     inkscape:current-layer="g1" /><defs
     id="defs2"><rect
       x="85.186211"
       y="124.02759"
       width="402.53793"
       height="387.97241"
       id="rect1" /></defs><g
     id="g1"
     transform="matrix(2.5,0,0,2.5,-0.85446741,-0.10664749)"
     style="display:inline"><path
       id="path2-5"
       style="display:inline;fill:#006072;fill-opacity:0.75294119;stroke-width:6.99718;stroke-linecap:round"
       d="m 101.92699,4.3212457 c 50.95394,0.1956816 71.06878,-1.2505108 83.29085,10.6851463 12.22207,11.935658 9.53875,34.594077 9.70011,84.975514 0.16135,50.381434 2.19394,71.406214 -10.70858,84.160614 -12.90252,12.75441 -34.12271,10.68513 -84.13883,10.71135 -50.016135,0.0262 -73.034326,2.77131 -85.360945,-9.64205 C 2.3829759,172.79847 4.1711062,150.35259 4.1858962,99.981906 4.2006862,49.611228 1.4862929,26.02764 13.788832,13.911248 26.091371,1.7948569 50.973035,4.1255641 101.92699,4.3212457 Z"
       transform="matrix(2.5940351,0,0,2.5939064,-2.0544322,-1.3094385)" /><path
       id="path1-3"
       style="display:inline;fill:#12ffd5;fill-opacity:1;stroke-width:17.7931;stroke-linecap:round"
       d="M 108.54772,4.1412726 C 71.565202,4.1822764 47.409391,13.247296 30.589644,30.238226 13.769897,47.229154 4.471557,72.611149 4.4147904,109.953 c -0.178556,117.4565 0.033432,171.22788 -0.019905,296.26412 -0.015253,35.76467 8.9990126,58.05804 26.0469016,74.8448 17.047887,16.78676 40.853778,26.84047 77.530893,26.89545 139.48929,0.20904 159.49414,-0.0366 295.92384,-3e-5 36.36842,0.0104 60.33707,-9.8477 77.55874,-26.89542 17.22167,-17.04774 26.81312,-39.36478 26.85431,-75.08742 0.11829,-102.53833 -0.1201,-182.85526 -0.21738,-296.02725 C 508.06002,72.591787 498.38357,47.116652 481.45516,30.138242 464.52675,13.159826 441.20546,4.297196 405.08415,4.2256406 292.46046,4.0025361 240.74099,3.9947056 108.54772,4.1412726 Z M 405.41727,15.20177 c 33.36194,0.117479 53.92649,9.804658 67.57052,23.523017 13.64403,13.718359 23.97334,37.808885 24.19098,72.270533 0.81816,129.54763 -0.39662,150.01644 -0.0431,294.32276 0.0812,33.1584 -10.96587,53.7529 -24.14787,67.24528 -13.182,13.49239 -35.68072,24.09528 -69.1142,24.19589 -133.71545,0.4023 -164.15544,0.52803 -295.9318,0 -34.277869,-0.13746 -55.402425,-10.4904 -69.100054,-24.29589 -13.697628,-13.80549 -23.160909,-33.54225 -23.247947,-66.83073 -0.404688,-154.7762 -0.06518,-168.63123 0,-295.45494 0.01768,-34.420003 8.163897,-56.668631 23.247987,-71.64087 15.084091,-14.972238 35.89302,-23.249155 69.888194,-23.281059 125.65105,-0.117922 144.55191,-0.589706 296.68729,-0.05399 z" /><path
       d="m 251.58555,415.1874 h -151.04 v -23.36 l 59.84,-60.48 q 17.28,-17.28 29.12,-30.72 11.84,-13.44 17.92,-26.24 6.08,-13.12 6.08,-28.48 0,-18.88 -11.2,-28.48 -11.2,-9.92 -29.12,-9.92 -16.64,0 -29.44,5.76 -12.48,5.76 -25.6,16 l -15.04,-18.88 q 8.96,-7.68 19.52,-13.76 10.88,-6.08 23.36,-9.6 12.8,-3.52 27.2,-3.52 21.44,0 36.8,7.36 15.36,7.36 23.68,21.12 8.64,13.44 8.64,32.32 0,17.92 -7.36,33.6 -7.36,15.68 -20.48,31.04 -13.12,15.04 -30.72,32.32 l -47.68,47.04 v 1.28 h 115.52 z m 84.48016,-87.68 -59.2,-83.84 h 32 l 44.16,64.64 43.84,-64.64 h 31.68 l -59.2,83.84 62.4,87.68 h -32 l -46.72,-68.48 -47.36,68.48 h -31.68 z"
       id="text1"
       style="font-size:320px;line-height:125%;font-family:'Noto Sans';-inkscape-font-specification:'Noto Sans';letter-spacing:0px;word-spacing:0px;white-space:pre;fill:#ffffff;stroke:#ffffff;stroke-width:1px"
       transform="translate(-9.803841,-43.304745)"
       aria-label="2x" /></g></svg>
