<?xml version="1.0" encoding="UTF-8" standalone="no"?>
<!-- Created with Inkscape (http://www.inkscape.org/) -->

<svg
   width="64"
   height="64"
   viewBox="0 0 64 64"
   version="1.1"
   id="svg1"
   xml:space="preserve"
   xmlns="http://www.w3.org/2000/svg"
   xmlns:svg="http://www.w3.org/2000/svg"><defs
     id="defs1" /><g
     id="layer1"><path
       style="display:inline;fill:#3b4c43;fill-opacity:1;stroke-width:0.787978"
       d="m 19.488032,49.760934 c -4.570914,-4.701076 -5.661144,-5.829756 -6.325407,-6.478949 -0.664263,-0.649193 -0.900424,-1.085127 2.265833,-4.358702 3.166257,-3.273577 3.515839,-3.35227 4.466703,-2.380937 C 20.846025,37.513676 31.722583,48.416 31.722583,48.416 42.090709,38.252694 43.044817,37.32137 43.913404,36.468653 c 0.868587,-0.852715 1.069711,-0.782372 4.374185,2.368515 3.304473,3.150887 3.40817,3.30806 2.406085,4.300148 -1.002084,0.992087 -1.722098,1.688942 -7.463132,7.232754 -8.800591,8.533714 -9.70661,9.63689 -11.524812,9.629897 -1.818203,-0.007 -2.889674,-0.750919 -12.217698,-10.239033 z"
       id="path11" /><path
       style="display:inline;fill:#ffffff;fill-opacity:1;stroke-width:0.746477"
       d="m 20.789157,49.691563 c 0,0 -5.853517,-6.02578 -6.449436,-6.632475 -0.595917,-0.606693 -1.003326,-0.553957 1.749466,-3.374666 2.752792,-2.820708 2.819403,-2.536083 3.46869,-1.875447 C 20.207163,38.469609 31.688533,50 31.688533,50 41.535447,40.440851 43.115959,38.924475 43.943598,38.079702 c 0.827639,-0.844772 0.731364,-1.252052 3.61243,1.556509 2.881066,2.808561 2.408801,2.611349 1.39252,3.638187 -1.01628,1.026838 -4.493559,4.396685 -9.719865,9.564998 -5.226304,5.168313 -6.102174,6.15936 -7.57257,6.160604 -1.470397,0.0012 -2.709106,-1.188211 -10.866956,-9.308437 z"
       id="path12" /><path
       style="display:inline;fill:#3b4c43;fill-opacity:1;stroke-width:0.787978"
       d="m 19.488032,14.239066 c -4.570914,4.701076 -5.661144,5.829756 -6.325407,6.478949 -0.664263,0.649193 -0.900424,1.085127 2.265833,4.358702 3.166257,3.273577 3.515839,3.35227 4.466703,2.380937 C 20.846025,26.486324 31.722583,15.584 31.722583,15.584 c 10.403988,10.196947 11.322234,11.09463 12.190821,11.947347 0.868587,0.852715 1.069711,0.782372 4.374185,-2.368515 3.304473,-3.150887 3.40817,-3.30806 2.406085,-4.300148 C 49.69159,19.870597 48.971576,19.173742 43.230542,13.62993 34.429951,5.0962158 33.523932,3.9930404 31.70573,4.0000329 29.887527,4.0070254 28.816056,4.7509519 19.488032,14.239066 Z"
       id="path3" /><path
       style="display:inline;fill:#ffffff;fill-opacity:1;stroke-width:0.746477"
       d="m 20.789157,14.308437 c 0,0 -5.853517,6.02578 -6.449436,6.632475 -0.595917,0.606693 -1.003326,0.553957 1.749466,3.374666 2.752792,2.820708 2.819403,2.536083 3.46869,1.875447 C 20.207163,25.530391 31.688533,14 31.688533,14 c 9.846914,9.559149 11.427426,11.075525 12.255065,11.920298 0.827639,0.844772 0.731364,1.252052 3.61243,-1.556509 2.881066,-2.808561 2.408801,-2.611349 1.39252,-3.638187 -1.01628,-1.026838 -4.493559,-4.396685 -9.719865,-9.564998 C 34.002379,5.9922907 33.126509,5.0012439 31.656113,5 30.185716,4.99875 28.947007,6.1882108 20.789157,14.308437 Z"
       id="path7" /></g></svg>
