<?xml version="1.0" encoding="UTF-8" standalone="no"?>
<!-- Created with Inkscape (http://www.inkscape.org/) -->

<svg
   version="1.1"
   id="svg1"
   width="256"
   height="256"
   viewBox="0 0 256 256"
   xml:space="preserve"
   sodipodi:docname="Sunlight.svg"
   inkscape:version="1.3.1 (9b9bdc1480, 2023-11-25, custom)"
   xmlns:inkscape="http://www.inkscape.org/namespaces/inkscape"
   xmlns:sodipodi="http://sodipodi.sourceforge.net/DTD/sodipodi-0.dtd"
   xmlns="http://www.w3.org/2000/svg"
   xmlns:svg="http://www.w3.org/2000/svg"><sodipodi:namedview
     id="namedview1"
     pagecolor="#ffffff"
     bordercolor="#111111"
     borderopacity="1"
     inkscape:showpageshadow="0"
     inkscape:pageopacity="0"
     inkscape:pagecheckerboard="1"
     inkscape:deskcolor="#d1d1d1"
     showgrid="false"
     inkscape:clip-to-page="true"
     inkscape:zoom="1.9583232"
     inkscape:cx="122.55383"
     inkscape:cy="133.27729"
     inkscape:window-width="1854"
     inkscape:window-height="1008"
     inkscape:window-x="0"
     inkscape:window-y="0"
     inkscape:window-maximized="1"
     inkscape:current-layer="svg1" /><defs
     id="defs1" /><g
     id="g1"
     style="display:inline"
     transform="matrix(1.26,0,0,1.2599977,2,2.0004547)"><path
       id="path1"
       clip-path="none"
       style="display:inline;fill:#ccc074;fill-opacity:1;stroke-width:1.0149"
       d="M 89,0.00195313 C 80.00465,5.4655361 30.965244,33.117825 8.0019531,47 c 4.73e-4,86.47863 -0.0027,73.72104 0,106 C 25.309223,163.3384 78.870404,193.95919 89,200 h 22 c 7.01694,-4.16931 23.74669,-13.81633 40.48242,-23.47266 C 168.21815,166.87102 184.96059,157.20536 192,153 c 9.7e-4,-73.649898 -1e-4,-70.565425 0,-106 -3.44304,-2.099183 -9.36659,-5.562357 -16.5293,-9.707031 C 153.98259,24.858946 121.33483,6.2894838 111,0.00195313 c -2.07511,-0.002439969 -11.267232,-0.00366995 -22,0 z" /><path
       id="path94"
       style="display:inline;fill:#2b2626;fill-opacity:1;stroke:none;stroke-width:0.415077;stroke-opacity:0.487466"
       d="m 99.999999,41.5 c -1.8124,0.0038 -3.292652,1.80247 -3.338066,4.055594 h -0.0058 v 0.10139 16.639636 0.276873 h 0.0156 c 0.116273,2.181204 1.570473,3.878095 3.328317,3.884011 1.75786,-0.006 3.21205,-1.702808 3.32831,-3.884011 h 0.0156 V 62.29662 45.656984 45.555594 h -0.002 C 103.29656,43.300586 101.81391,41.501129 99.99998,41.5 Z m 27.981651,7.473602 c -1.3311,-0.06057 -2.77561,0.760761 -3.65003,2.207179 l -0.006,-0.0039 -0.0507,0.08969 -8.31983,14.40906 -0.13843,0.239825 0.0137,0.0078 c -0.98991,1.947114 -0.57762,4.144502 0.94175,5.028548 1.52534,0.873735 3.63252,0.130611 4.82382,-1.70023 l 0.0137,0.0078 0.13845,-0.239825 8.31981,-14.40906 0.0507,-0.08969 h -0.002 c 1.08817,-1.975605 0.70268,-4.274644 -0.86766,-5.182581 -0.39287,-0.225729 -0.82368,-0.344422 -1.26738,-0.364614 z m -56.002298,0.002 c -0.430714,0.02466 -0.849003,0.142265 -1.230327,0.360714 -1.519344,0.88411 -1.929713,3.081435 -0.939806,5.028547 l -0.01365,0.0078 0.138436,0.237876 8.319818,14.411009 0.05069,0.08969 0.002,-0.0019 c 1.166772,1.930221 3.349838,2.74854 4.921308,1.842566 1.567588,-0.909658 1.951,-3.208615 0.863763,-5.182582 l 0.0059,-0.002 -0.05264,-0.08969 -8.319818,-14.411009 -0.136487,-0.237877 -0.01365,0.0078 C 74.681394,49.66343 73.27159,48.901608 71.979449,48.975602 Z m 75.769428,20.293571 c -0.74103,0.0093 -1.52739,0.210376 -2.26763,0.618088 l -0.004,-0.0059 -0.0877,0.0507 -14.40906,8.319819 -0.23982,0.138436 0.008,0.01365 c -1.83084,1.191298 -2.57401,3.298525 -1.70022,4.823817 0.88411,1.519348 3.08142,1.931661 5.02855,0.941755 l 0.008,0.01365 0.23982,-0.138436 14.40907,-8.319818 0.0897,-0.05069 -0.002,-0.002 c 1.93017,-1.16684 2.7466,-3.351789 1.84062,-4.923257 -0.56844,-0.979803 -1.67797,-1.495466 -2.91301,-1.479902 z m -95.596995,0.0019 c -1.196617,0.01225 -2.261038,0.528342 -2.813569,1.477953 -0.873736,1.525333 -0.13256,3.634471 1.69828,4.825767 l -0.0078,0.01365 0.237876,0.136486 14.411009,8.319818 0.08969,0.05264 v -0.0019 c 1.975564,1.088235 4.276586,0.702668 5.184531,-0.867663 0.902742,-1.571582 0.08405,-3.751521 -1.844515,-4.917408 l 0.0039,-0.0058 -0.08969,-0.0507 -14.411009,-8.319818 -0.237876,-0.138436 -0.0078,0.01365 c -0.730155,-0.371203 -1.49504,-0.545496 -2.213009,-0.538146 z m -6.767773,27.385012 v 0.0156 C 43.20281,96.787992 41.50592,98.242156 41.5,100 c 0.006,1.75785 1.70281,3.21204 3.884012,3.32831 v 0.0156 h 0.274922 16.639636 0.10334 v -0.002 c 2.255006,-0.0453 4.054456,-1.52805 4.055594,-3.34197 -0.004,-1.8124 -1.802475,-3.292654 -4.055594,-3.338067 v -0.0058 H 62.29857 45.658934 Z m 92.042488,0 v 0.0156 c -2.18118,0.116274 -3.87808,1.570473 -3.884,3.328315 0.006,1.75785 1.70282,3.21204 3.884,3.32831 v 0.0156 h 0.27688 16.63964 0.10139 v -0.002 c 2.25501,-0.0454 4.05446,-1.52805 4.05559,-3.341968 -0.004,-1.8124 -1.80247,-3.292654 -4.05559,-3.338067 v -0.0058 h -0.10139 -16.63964 z M 68.036846,115.29038 c -0.741009,0.009 -1.527383,0.21037 -2.267623,0.61808 l -0.002,-0.006 -0.08969,0.0526 -14.411009,8.31983 -0.237876,0.13647 0.0078,0.0137 c -1.830846,1.19131 -2.574027,3.29851 -1.70023,4.82382 0.884113,1.51934 3.081434,1.93166 5.028548,0.94175 l 0.0078,0.0136 0.237876,-0.13843 14.411009,-8.31983 0.08969,-0.0507 -0.002,-0.002 c 1.930182,-1.16684 2.746592,-3.35178 1.840616,-4.92325 h 0.002 c -0.568536,-0.97975 -1.679944,-1.49545 -2.914959,-1.4799 z m 63.826864,0.002 c -1.19661,0.0122 -2.26299,0.52834 -2.81551,1.47796 -0.87374,1.52533 -0.13061,3.63447 1.70022,4.82576 l -0.008,0.0136 0.23982,0.13844 14.40906,8.31981 0.0877,0.0507 0.002,-0.002 c 1.97561,1.08817 4.27465,0.70267 5.18259,-0.86766 0.90274,-1.57159 0.0859,-3.75151 -1.84258,-4.91741 l 0.002,-0.006 -0.0877,-0.0507 -14.40907,-8.31983 -0.23982,-0.13843 -0.008,0.0137 c -0.73017,-0.37121 -1.49507,-0.54551 -2.21303,-0.53815 z M 81.960404,128.6856 c -1.331117,-0.0606 -2.775618,0.76075 -3.650035,2.20717 l -0.0059,-0.004 -0.05069,0.0897 -8.319818,14.41101 -0.138436,0.23788 0.01365,0.008 c -0.989907,1.94712 -0.579571,4.14255 0.939806,5.0266 1.525334,0.87373 3.634471,0.13255 4.825767,-1.69828 l 0.01365,0.008 0.136487,-0.23788 8.319819,-14.41101 0.05264,-0.0897 h -0.002 c 1.088168,-1.9756 0.70267,-4.27659 -0.867663,-5.18453 -0.392895,-0.22569 -0.823668,-0.34249 -1.267373,-0.36266 z m 36.040196,0.002 c -0.43072,0.0247 -0.849,0.14226 -1.23033,0.36072 -1.51935,0.8841 -1.9297,3.08144 -0.93981,5.02855 l -0.0137,0.008 0.13843,0.23983 8.31983,14.40906 0.0507,0.0897 0.002,-0.002 c 1.16684,1.93017 3.34984,2.7466 4.92131,1.84062 1.56759,-0.90966 1.95099,-3.20666 0.86376,-5.18064 l 0.006,-0.004 -0.0507,-0.0877 -8.31981,-14.40906 -0.13845,-0.23982 -0.0137,0.008 c -0.89347,-1.37313 -2.30329,-2.13494 -3.59544,-2.06094 z m -18.000601,4.85502 c -1.8124,0.004 -3.292652,1.80247 -3.338066,4.05559 h -0.0058 v 0.10334 16.63963 0.27492 h 0.0156 c 0.116273,2.18121 1.570473,3.8781 3.328317,3.88402 1.75786,-0.006 3.21205,-1.70281 3.32831,-3.88402 h 0.0156 v -0.27492 -16.63963 -0.10334 h -0.002 c -0.0454,-2.25501 -1.52805,-4.05446 -3.34198,-4.05559 z" /><circle
       style="display:inline;fill:#2b2626;fill-opacity:1;stroke:none;stroke-width:1.00157;stroke-opacity:0.487466"
       id="path103"
       cx="100"
       cy="100"
       r="27.799999" /></g></svg>
