<?xml version="1.0" encoding="UTF-8" standalone="no"?>
<!-- Created with Inkscape (http://www.inkscape.org/) -->

<svg
   version="1.1"
   id="svg1"
   width="512"
   height="512"
   viewBox="0 0 512 512"
   xml:space="preserve"
   xmlns="http://www.w3.org/2000/svg"
   xmlns:svg="http://www.w3.org/2000/svg"><defs
     id="defs1" /><g
     id="g1"
     style="display:inline"
     transform="matrix(2.52,0,0,2.52,4,4)"><path
       style="display:inline;fill:#f4591e;fill-opacity:1;stroke-width:1.0149"
       d="m 8.0011016,153 c -0.0027,-32.27899 4.73e-4,-19.52128 0,-106 C 30.964415,33.117811 80.005078,5.4659024 89.000437,0.00231398 c 10.732779,-0.00366995 19.924703,-0.002439966 21.999813,0 C 124.78004,8.3856966 178.22741,38.60326 191.99959,47 c -1e-4,35.43461 9.7e-4,32.350028 0,106 -14.07883,8.41072 -66.96544,38.66138 -80.99934,47 H 89.000437 C 78.870831,193.95918 25.308389,163.33841 8.0011016,153 Z"
       id="path4"
       clip-path="none" /><path
       id="path110"
       style="display:inline;fill:#2b2b2b;fill-opacity:1"
       d="m 132.06445,33.132812 c -4.00436,-0.102503 -8.10436,1.442545 -11.375,4.917969 C 119.4648,39.352115 109.29216,56.343636 98.082031,75.810547 86.871905,95.277456 78.3439,111.11938 77.667447,112.34361 c -15.10605,1.36695 -21.844687,12.55449 -23.715374,17.61266 -5.509158,14.89628 2.332105,28.37286 12.521468,33.94708 10.189363,5.57422 24.725262,4.83857 34.362299,-6.57101 7.68557,-9.09919 7.84931,-21.36374 3.32647,-30.06025 l 10.29472,-17.94592 c 5.70042,-9.942008 15.09533,-26.302207 20.87891,-36.355467 10.82822,-18.822081 11.93637,-22.251136 11.67187,-26.898437 -0.42681,-7.499003 -8.26942,-12.768615 -14.94336,-12.939454 z m -0.20507,7.945313 c 3.66669,0.156469 7.30664,3.041014 7.30664,7.025391 0,1.614605 -7.07699,14.698815 -21.66602,40.054687 -11.28528,19.613927 -19.250348,34.349157 -22.176545,39.718227 3.463672,4.79801 4.672962,10.7709 3.115608,16.5504 -1.230377,4.56606 -3.951032,8.22919 -7.465311,10.80516 -7.472852,5.4776 -16.274994,3.87688 -20.949174,1.16898 -6.248766,-3.62011 -9.580776,-9.65941 -9.923697,-16.09416 -0.225634,-4.23392 1.175528,-9.10356 3.962726,-12.70624 4.177199,-5.5505 10.956807,-8.12653 17.057564,-7.64747 2.429658,-4.03109 11.455182,-18.79643 22.997969,-38.871069 11.54278,-20.074647 21.9222,-37.341798 23.06445,-38.373047 1.33858,-1.208501 3.00911,-1.701981 4.67579,-1.630859 z" /><path
       style="display:inline;fill:#2b2b2b;fill-opacity:1;stroke-width:0.902179"
       d="m 72.689515,153.35477 c -7.669405,-3.81161 -11.027875,-13.9785 -6.306044,-21.9748 4.550109,-7.46455 12.399036,-8.46126 17.392717,-7.04127 2.73212,-4.68616 10.846096,-18.57759 10.846096,-18.57759 14.334696,-23.24876 10.082756,-22.416833 15.243376,-19.106443 4.77468,3.062808 4.64804,-0.958897 -8.80968,22.797413 -3.645314,6.43493 -7.908222,13.65307 -10.635201,18.83823 3.408022,3.14323 6.804163,10.93281 2.767415,18.43524 -4.036749,7.50243 -12.829274,10.44082 -20.498679,6.62922 z"
       id="path106" /></g></svg>
