<?xml version="1.0" encoding="UTF-8" standalone="no"?>
<svg
   version="1.1"
   width="512"
   height="512"
   viewBox="0 0 1280 1280"
   id="svg2"
   xml:space="preserve"
   xmlns="http://www.w3.org/2000/svg"
   xmlns:svg="http://www.w3.org/2000/svg"><defs
     id="defs2" /><g
     id="g1"
     transform="matrix(2.5,0,0,2.5,-0.85446741,-0.10664749)"
     style="display:inline"><path
       id="path2-5"
       style="display:inline;fill:#28363d;fill-opacity:0.752941;stroke-width:6.99718;stroke-linecap:round"
       d="m 101.92699,4.3212457 c 50.95394,0.1956816 71.06878,-1.2505108 83.29085,10.6851463 12.22207,11.935658 9.53875,34.594077 9.70011,84.975514 0.16135,50.381434 2.19394,71.406214 -10.70858,84.160614 -12.90252,12.75441 -34.12271,10.68513 -84.13883,10.71135 -50.016135,0.0262 -73.034326,2.77131 -85.360945,-9.64205 C 2.3829759,172.79847 4.1711062,150.35259 4.1858962,99.981906 4.2006862,49.611228 1.4862929,26.02764 13.788832,13.911248 26.091371,1.7948569 50.973035,4.1255641 101.92699,4.3212457 Z"
       transform="matrix(2.5940351,0,0,2.5939064,-2.0544322,-1.3094385)" /><path
       id="path1-3"
       style="display:inline;fill:#659e95;fill-opacity:1;stroke-width:17.7931;stroke-linecap:round"
       d="M 108.54772,4.1412726 C 71.565202,4.1822764 47.409391,13.247296 30.589644,30.238226 13.769897,47.229154 4.471557,72.611149 4.4147904,109.953 c -0.178556,117.4565 0.033432,171.22788 -0.019905,296.26412 -0.015253,35.76467 8.9990126,58.05804 26.0469016,74.8448 17.047887,16.78676 40.853778,26.84047 77.530893,26.89545 139.48929,0.20904 159.49414,-0.0366 295.92384,-3e-5 36.36842,0.0104 60.33707,-9.8477 77.55874,-26.89542 17.22167,-17.04774 26.81312,-39.36478 26.85431,-75.08742 0.11829,-102.53833 -0.1201,-182.85526 -0.21738,-296.02725 C 508.06002,72.591787 498.38357,47.116652 481.45516,30.138242 464.52675,13.159826 441.20546,4.297196 405.08415,4.2256406 292.46046,4.0025361 240.74099,3.9947056 108.54772,4.1412726 Z M 405.41727,15.20177 c 33.36194,0.117479 53.92649,9.804658 67.57052,23.523017 13.64403,13.718359 23.97334,37.808885 24.19098,72.270533 0.81816,129.54763 -0.39662,150.01644 -0.0431,294.32276 0.0812,33.1584 -10.96587,53.7529 -24.14787,67.24528 -13.182,13.49239 -35.68072,24.09528 -69.1142,24.19589 -133.71545,0.4023 -164.15544,0.52803 -295.9318,0 -34.277869,-0.13746 -55.402425,-10.4904 -69.100054,-24.29589 -13.697628,-13.80549 -23.160909,-33.54225 -23.247947,-66.83073 -0.404688,-154.7762 -0.06518,-168.63123 0,-295.45494 0.01768,-34.420003 8.163897,-56.668631 23.247987,-71.64087 15.084091,-14.972238 35.89302,-23.249155 69.888194,-23.281059 125.65105,-0.117922 144.55191,-0.589706 296.68729,-0.05399 z" /><path
       style="display:inline;fill:#7f878a;fill-opacity:1;fill-rule:nonzero;stroke:none;stroke-width:0.78089"
       d="m 256.13459,272.21312 c 0.25013,0 0.50026,0 0.75954,0 4.11187,0.006 8.09562,0.23183 12.14649,0.99136 0.28064,0.0519 0.56432,0.10067 0.8541,0.15252 13.40934,2.47079 25.90663,8.6447 35.83247,18.01537 0.80835,0.76869 0.80835,0.76869 1.74785,1.35436 0,0.20132 0,0.40265 0,0.61007 0.17997,0.0793 0.363,0.15862 0.54907,0.23793 0.72903,0.40569 1.11337,0.79919 1.64414,1.43976 0.78089,0.93036 1.58618,1.82411 2.41892,2.70871 3.20592,3.55977 5.85667,7.61368 8.19934,11.78046 0.11287,0.19522 0.22268,0.38739 0.3386,0.58872 1.53432,2.68735 2.81547,5.44487 3.9685,8.31525 0.12507,0.29894 0.24708,0.59787 0.3752,0.90596 1.02491,2.6355 1.02491,2.6355 0.5033,4.22168 -0.59176,1.26895 -1.20183,1.80581 -2.44028,2.44028 -0.21352,0.11896 -0.42705,0.23793 -0.64668,0.36299 -0.57346,0.24708 -0.57346,0.24708 -1.48857,0.24708 0,0.30199 0,0.60397 0,0.9151 -0.9212,0.0671 -1.84241,0.13117 -2.76361,0.18913 -0.25928,0.0214 -0.51856,0.0397 -0.78394,0.061 -1.96443,0.12202 -3.5079,-0.0152 -5.22525,-1.07372 -0.84495,-0.8663 -1.13778,-1.62279 -1.54043,-2.76057 -2.38233,-6.34473 -5.87803,-12.13735 -10.42915,-17.15822 -0.37824,-0.43315 -0.37824,-0.43315 -0.76563,-0.87851 -1.32081,-1.50382 -1.32081,-1.50382 -2.82158,-2.82767 -0.33859,-0.28063 -0.33859,-0.28063 -0.68328,-0.56432 0,-0.20132 0,-0.40264 0,-0.61007 -0.15862,-0.0671 -0.32029,-0.13421 -0.48501,-0.20132 -0.80834,-0.4484 -1.48247,-1.00051 -2.19015,-1.59228 -10.38339,-8.69045 -23.53956,-12.91518 -36.9611,-12.92433 -0.23793,0 -0.47585,0 -0.71988,0 -3.61161,0.003 -7.05546,0.17997 -10.58472,0.99136 -0.23793,0.0519 -0.47585,0.10066 -0.72293,0.15252 -14.94061,3.19066 -28.27675,12.13429 -36.66216,24.91831 -8.70571,13.62287 -11.59134,29.63111 -8.17494,45.45022 1.14693,4.94768 2.94053,9.57811 5.32286,14.05907 0.25013,0.46976 0.4911,0.94561 0.73209,1.42452 1.71429,3.30963 4.00206,6.28372 6.38132,9.13885 0.45756,0.60091 0.78395,1.17438 1.09508,1.85766 0.20133,0 0.40265,0 0.61007,0 0.49416,0.51246 0.49416,0.51246 1.04932,1.18353 0.65278,0.787 1.13779,1.29031 2.00103,1.86682 0,0.20132 0,0.40265 0,0.61007 0.25318,0.10981 0.25318,0.10981 0.50941,0.21963 0.8846,0.485 1.57093,1.09812 2.33047,1.7631 7.86685,6.67112 17.56392,10.60302 27.66363,12.35392 0.22267,0.0397 0.44535,0.0793 0.67413,0.11897 12.46678,2.11694 25.50703,-0.57042 36.54014,-6.52471 0.18608,-0.10066 0.37215,-0.19827 0.56432,-0.30198 2.63245,-1.40926 5.02698,-3.03205 7.3666,-4.88362 0.28063,-0.21962 0.56126,-0.43619 0.85105,-0.66192 1.08897,-0.85409 2.15354,-1.696 3.11441,-2.69346 0.20132,-0.20132 0.40264,-0.40265 0.61007,-0.61007 0.20132,0 0.40264,0 0.61007,0 0,-0.20132 0,-0.40265 0,-0.61007 0.20132,0 0.40264,0 0.61007,0 0,-0.20132 0,-0.40265 0,-0.61007 0.20132,0 0.40264,0 0.61007,0 0.20132,-0.5033 0.40264,-1.00661 0.61007,-1.52518 -2.72092,-2.11084 -2.72092,-2.11084 -5.49064,-4.15457 -1.66548,-1.20184 -3.29132,-2.44944 -4.91716,-3.70008 -2.20236,-1.68684 -4.42911,-3.32183 -6.70467,-4.90801 -1.65024,-1.15303 -3.24863,-2.36097 -4.83481,-3.59636 -1.51603,-1.17744 -3.0534,-2.32132 -4.59078,-3.46825 -0.28978,-0.21963 -0.58261,-0.43925 -0.88155,-0.66498 -0.59787,-0.4484 -1.20183,-0.8968 -1.8058,-1.33605 -0.72293,-0.53686 -1.39096,-1.11338 -2.05899,-1.71735 -1.81801,-1.7021 -1.81801,-1.7021 -4.10882,-2.38538 -1.42147,0.27149 -2.65381,0.91206 -3.95631,1.52823 -4.50841,1.00966 -8.69654,-0.0183 -12.57049,-2.43113 -3.20287,-2.33046 -5.40827,-5.88718 -6.18916,-9.77028 -0.53992,-4.57246 0.43925,-8.72705 3.22421,-12.42102 2.5684,-3.029 6.04885,-5.24355 10.06616,-5.63705 4.53587,-0.21352 7.64723,0.8663 11.56998,3.11136 0,0.20132 0,0.40264 0,0.61007 0.17693,0.0732 0.35384,0.14642 0.53382,0.22268 2.49213,1.41231 3.79768,4.49926 4.65178,7.09816 0,0.20132 0,0.40264 0,0.61007 0.30808,0.0213 0.30808,0.0213 0.62532,0.0427 2.69651,0.20132 5.36252,0.56736 8.03768,0.95475 0.49111,0.0702 0.98526,0.14032 1.47941,0.21048 1.32691,0.19217 2.65381,0.38434 3.98072,0.57652 0.83274,0.11896 1.66243,0.24097 2.49518,0.35993 2.90088,0.4179 5.80177,0.83885 8.7057,1.2598 2.69956,0.3935 5.39912,0.78394 8.10173,1.17133 2.32437,0.3325 4.64874,0.66803 6.9731,1.00662 1.38486,0.20133 2.76972,0.40265 4.15763,0.60092 1.3025,0.18607 2.605,0.3752 3.90445,0.56737 0.47586,0.0671 0.95476,0.13726 1.43061,0.20437 0.65278,0.0915 1.30556,0.18912 1.95528,0.28368 0.36604,0.0549 0.72903,0.10676 1.10728,0.16167 1.94612,0.424 3.39504,1.10118 4.69753,2.666 1.29641,2.28167 0.45756,5.13374 -0.0366,7.54962 -0.0701,0.33554 -0.13726,0.66803 -0.20743,1.01272 -0.65277,3.10526 -1.50382,6.11901 -2.50128,9.1297 -0.0976,0.29894 -0.0976,0.29894 -0.19522,0.60092 -2.64161,8.06818 -7.11343,16.59696 -13.34224,22.43533 -0.65278,0.61922 -1.23539,1.23234 -1.80885,1.91867 -1.11949,1.2903 -2.30607,2.50434 -3.50791,3.71837 -0.20437,0.20743 -0.4118,0.4179 -0.62227,0.63143 -0.19217,0.19522 -0.38739,0.38739 -0.58567,0.58871 -0.17387,0.17693 -0.35079,0.35385 -0.53076,0.53382 -0.4545,0.38129 -0.4545,0.38129 -1.06457,0.38129 0,0.20132 0,0.40265 0,0.61007 -0.40265,0.38435 -0.40265,0.38435 -0.97306,0.82055 -0.21048,0.16166 -0.42095,0.32333 -0.63753,0.48805 -0.22877,0.17082 -0.4606,0.3447 -0.69548,0.52161 -0.23793,0.17692 -0.4728,0.35689 -0.71378,0.53992 -15.68795,11.7347 -35.18884,17.54256 -54.75989,14.8369 -12.51864,-1.90647 -24.20758,-6.5247 -34.34086,-14.15668 -0.43009,-0.32333 -0.43009,-0.32333 -0.87239,-0.65582 -1.59229,-1.2415 -3.08391,-2.58365 -4.55723,-3.9624 -0.68022,-0.63448 -1.3635,-1.2415 -2.09254,-1.82106 -0.64362,-0.52161 -1.15303,-1.03103 -1.68684,-1.66245 -0.59787,-0.70463 -1.19574,-1.39096 -1.83631,-2.05593 -2.46773,-2.5745 -4.39861,-5.47234 -6.34168,-8.44948 -0.12201,-0.18607 -0.24403,-0.37214 -0.3691,-0.56431 -10.32238,-15.92588 -13.90349,-35.73791 -10.02955,-54.29624 4.18509,-19.10435 15.41648,-36.08871 31.94023,-46.72222 1.34215,-0.8419 2.70566,-1.64719 4.08137,-2.43418 0.20741,-0.12202 0.41484,-0.24098 0.63141,-0.36605 8.13529,-4.67008 17.25584,-7.25678 26.5167,-8.47997 0.34469,-0.0458 0.34469,-0.0458 0.69854,-0.0946 2.57144,-0.30809 5.16119,-0.28368 7.74789,-0.28674 z m 0,0"
       id="path2-6" /><path
       style="display:inline;fill:#7f878a;fill-opacity:1;fill-rule:nonzero;stroke:none;stroke-width:0.78089"
       d="m 255.22253,66.65914 c 15.72762,-0.381293 30.21678,5.874976 41.57629,16.508498 0.28978,0.268431 0.57956,0.539912 0.8785,0.817494 8.46167,8.059027 13.73572,19.229408 15.89842,30.601118 0.0671,0.33859 0.13117,0.67718 0.19828,1.02492 1.07982,6.44539 0.76258,13.16836 0.74733,19.67781 -0.003,1.14693 -0.003,2.29081 -0.003,3.43469 0,1.97663 -0.003,3.95326 -0.003,5.92989 -0.006,2.86428 -0.006,5.7255 -0.009,8.58978 0,4.66094 -0.006,9.31882 -0.009,13.97671 0,0.27758 0,0.55517 0,0.84189 -0.003,1.97053 -0.003,3.94106 -0.006,5.91159 -0.003,2.25116 -0.003,4.50537 -0.006,6.75652 0,0.27759 0,0.55517 0,0.8419 -0.006,4.64264 -0.009,9.28832 -0.009,13.934 -0.003,2.85208 -0.006,5.70721 -0.009,8.55928 -0.003,1.95833 -0.003,3.91361 -0.003,5.87193 -0.003,1.12558 -0.003,2.24811 -0.006,3.37369 -0.12811,9.22121 -0.12811,9.22121 0.83275,18.37226 0.0549,0.29893 0.10677,0.59787 0.16167,0.909 1.51297,8.1841 4.63958,16.03265 8.19019,23.53041 0.15557,0.32944 0.31114,0.66193 0.47281,1.00357 3.16931,6.68942 6.53689,13.26292 10.10886,19.74796 1.14387,2.08949 2.2237,4.20949 3.27607,6.34473 0.66803,1.35436 1.35436,2.69346 2.07729,4.02342 9.37373,17.27413 16.07535,36.05514 16.70372,55.81532 0.006,0.21047 0.0152,0.42094 0.0214,0.63752 0.46669,15.88318 -3.30659,31.85786 -10.39255,46.03284 -0.13422,0.26538 -0.26538,0.53381 -0.4057,0.80834 -1.54957,3.07781 -3.21506,6.058 -5.08494,8.95278 -0.18607,0.29283 -0.37214,0.58262 -0.56431,0.88461 -2.71481,4.16373 -5.76516,8.02852 -9.06564,11.74079 -0.38739,0.43621 -0.77174,0.8785 -1.15303,1.32386 -1.05542,1.21709 -2.1322,2.31216 -3.37674,3.34013 -0.86935,0.72903 -1.65329,1.54653 -2.42503,2.37927 -1.65329,1.73565 -3.54145,3.16017 -5.43877,4.61518 -0.51246,0.39655 -1.01882,0.79615 -1.52518,1.1988 -14.47087,11.42051 -32.62655,18.11603 -50.87985,19.96759 -0.26843,0.0275 -0.53686,0.0579 -0.81444,0.0885 -2.82158,0.27148 -5.6401,0.28978 -8.47083,0.29283 -0.39044,0 -0.39044,0 -0.79004,0 -9.88923,-0.0122 -19.49784,-1.50382 -28.96918,-4.34675 -0.22877,-0.0671 -0.45755,-0.13421 -0.69548,-0.20437 -13.66557,-4.10882 -26.28487,-11.58523 -36.82383,-21.14809 -0.27453,-0.25012 -0.27453,-0.25012 -0.55517,-0.5033 -3.71838,-3.38284 -3.71838,-3.38284 -4.93546,-4.68229 0,-0.20132 0,-0.40265 0,-0.61007 -0.20132,0 -0.40265,0 -0.61007,0 -0.42095,-0.40569 -0.42095,-0.40569 -0.91511,-0.99136 -0.18912,-0.22268 -0.38129,-0.4484 -0.57652,-0.67718 -0.21047,-0.25623 -0.424,-0.50941 -0.64362,-0.77174 -0.35079,-0.41485 -0.35079,-0.41485 -0.71073,-0.83885 -13.44844,-15.94418 -21.54711,-35.14309 -23.69151,-55.89767 -0.0397,-0.3752 -0.0793,-0.75039 -0.12201,-1.13778 -1.59534,-18.7322 2.79412,-36.82383 10.4932,-53.76853 0.15557,-0.3447 0.31114,-0.68634 0.46976,-1.04017 1.92782,-4.27355 3.9624,-8.49218 6.05189,-12.68642 0.10066,-0.20436 0.20132,-0.40569 0.30503,-0.61616 0.97307,-1.95833 1.96138,-3.89225 3.08086,-5.77126 1.05542,-1.77531 1.97053,-3.60552 2.88258,-5.45708 0.62532,-1.2659 1.26895,-2.52264 1.91867,-3.77939 0.10676,-0.20742 0.21353,-0.41485 0.32639,-0.62837 0.43315,-0.84495 0.86935,-1.68684 1.30555,-2.52874 7.13782,-13.79979 14.52272,-28.19134 14.51052,-44.08367 0,-0.4362 0,-0.86935 0.003,-1.3025 0,-1.18658 0.003,-2.37317 0.003,-3.55976 0,-1.28115 0.003,-2.56229 0.003,-3.84649 0.003,-2.22066 0.006,-4.44131 0.009,-6.66197 0.003,-3.51705 0.009,-7.03411 0.0152,-10.55116 0.003,-1.20489 0.006,-2.40978 0.006,-3.61466 0.003,-0.45146 0.003,-0.45146 0.003,-0.91511 0.006,-3.42554 0.0122,-6.85109 0.0183,-10.27663 0,-0.31419 0,-0.62837 0,-0.95171 0.009,-5.06053 0.0152,-10.12412 0.0183,-15.1877 0.006,-5.20999 0.0152,-10.42 0.0275,-15.62694 0.006,-3.20897 0.0122,-6.41489 0.0122,-9.62081 0,-2.20235 0.003,-4.40471 0.0122,-6.60706 0.003,-1.26895 0.003,-2.53484 0.003,-3.80074 -0.0152,-11.89636 1.46416,-22.83187 7.14392,-33.428788 0.10371,-0.201323 0.21047,-0.399597 0.31724,-0.60702 1.29334,-2.470784 2.72396,-4.7799 4.3925,-7.018857 0.15861,-0.213524 0.31724,-0.427049 0.4789,-0.646675 0.39045,-0.509408 0.80224,-1.000515 1.21709,-1.488571 0.20133,0 0.40265,0 0.61007,0 0.0824,-0.17692 0.16168,-0.35384 0.24403,-0.536861 1.00357,-1.879016 2.68126,-3.343185 4.29185,-4.700591 0.44229,-0.378243 0.86935,-0.771738 1.29029,-1.174385 9.83739,-9.379828 23.77443,-13.769283 37.09227,-14.367152 z m -22.48108,23.524305 c -0.26843,0.179971 -0.53381,0.359941 -0.80834,0.546013 -8.99243,6.25932 -14.8003,15.413422 -17.28329,26.010342 -0.0488,0.20132 -0.0976,0.40264 -0.14947,0.61007 -0.4972,2.29996 -0.55516,4.65483 -0.67107,6.9975 0.23793,0.003 0.47585,0.006 0.72293,0.006 2.25726,0.0244 4.51452,0.0519 6.77178,0.0824 1.15913,0.0153 2.31827,0.0275 3.48045,0.0397 1.11948,0.0122 2.24201,0.0275 3.36453,0.0427 0.424,0.006 0.85105,0.009 1.2781,0.0122 6.57351,0.0579 6.57351,0.0579 9.09004,2.56229 1.78446,2.34267 2.0651,4.40166 1.83021,7.32084 -0.50635,2.15965 -1.79665,3.70618 -3.66042,4.88056 -2.31216,1.13474 -4.63042,1.06153 -7.15002,1.07067 -0.4545,0.006 -0.909,0.0122 -1.3635,0.0183 -1.18964,0.0122 -2.37927,0.0213 -3.56891,0.0305 -1.43061,0.009 -2.86123,0.0275 -4.29185,0.0427 -2.1688,0.0244 -4.33455,0.0397 -6.50334,0.0579 0,4.83176 0,9.66352 0,14.64169 2.1993,0.0122 2.1993,0.0122 4.44131,0.0244 0.9334,0.006 1.86376,0.0152 2.79717,0.0244 1.47942,0.0152 2.95579,0.0275 4.43521,0.0336 1.19268,0.006 2.38538,0.0152 3.57806,0.0305 0.45145,0.003 0.90596,0.006 1.36046,0.006 2.96799,0.003 5.38997,0.15253 7.73263,2.12915 0.21963,0.26538 0.44231,0.53076 0.66803,0.80224 0.21963,0.25928 0.43925,0.51552 0.66803,0.78089 1.04322,1.97968 1.42756,4.12408 0.85714,6.31118 -0.78089,2.10779 -1.85461,3.66042 -3.83124,4.786 -2.93138,1.26589 -6.37827,0.97611 -9.51709,0.95171 -0.35078,0 -0.70158,-0.003 -1.06457,-0.003 -1.10423,-0.003 -2.21151,-0.009 -3.31573,-0.0152 -1.47027,-0.009 -2.94054,-0.0152 -4.40776,-0.0183 -0.33554,-0.003 -0.67412,-0.006 -1.01882,-0.009 -0.31113,0 -0.62226,0 -0.94255,-0.003 -0.27453,0 -0.54602,-0.003 -0.82664,-0.003 -0.74735,0.006 -0.74735,0.006 -1.61364,0.33859 0,4.7311 0,9.46219 0,14.33665 2.56534,0.19828 5.03307,0.34164 7.59232,0.31418 0.67108,-0.006 1.3391,-0.009 2.01018,-0.0122 1.03712,-0.006 2.07119,-0.0152 3.10831,-0.0275 1.01576,-0.009 2.02848,-0.0122 3.04119,-0.0183 0.46061,-0.006 0.46061,-0.006 0.93036,-0.0122 2.83073,-0.009 5.52114,0.26843 7.72044,2.19625 1.99798,2.47079 2.34573,4.48097 2.13524,7.62588 -0.25012,1.11643 -0.5704,2.10169 -1.40621,2.92529 -0.49415,0.40264 -0.49415,0.40264 -0.424,1.04017 -0.40569,0.20437 -0.81443,0.40569 -1.22014,0.61007 -0.30503,0.15861 -0.30503,0.15861 -0.61921,0.32029 -2.35182,1.08592 -4.66094,1.08286 -7.19883,1.08592 -0.45451,0.003 -0.90901,0.009 -1.36351,0.0152 -1.18353,0.0122 -2.36707,0.0183 -3.55366,0.0244 -1.21099,0.006 -2.42503,0.0183 -3.63602,0.0305 -2.37317,0.0213 -4.74329,0.0397 -7.11646,0.0488 -0.003,0.39349 -0.003,0.79004 -0.006,1.19573 -0.0183,3.74584 -0.0397,7.49166 -0.0671,11.24055 -0.0122,1.92477 -0.0244,3.84954 -0.0336,5.77432 -0.006,1.86376 -0.0183,3.72752 -0.0336,5.58824 -0.006,0.70768 -0.009,1.41231 -0.0122,2.11694 -0.0152,5.72551 -0.37824,11.34425 -2.00103,16.86539 -0.0915,0.31418 -0.18302,0.62837 -0.27453,0.95476 -2.41588,8.09868 -6.17696,15.75811 -10.38339,23.06675 -0.25013,0.4423 -0.50331,0.8846 -0.75344,1.3269 -1.64414,2.87953 -3.35539,5.71941 -5.07883,8.55014 -3.64823,5.97869 -7.23239,12.00007 -10.58777,18.14958 -0.37519,0.68023 -0.75954,1.35741 -1.14693,2.03458 -11.85976,20.91931 -16.87149,45.04454 -10.51151,68.62069 3.71532,13.18667 9.90754,24.92747 18.92742,35.2285 0.34164,0.3935 0.34164,0.3935 0.69243,0.79615 2.79717,3.16321 5.74382,6.0519 9.0687,8.65994 0.34469,0.27759 0.68633,0.55212 1.03101,0.8297 2.22371,1.7814 4.49317,3.43469 6.8999,4.96596 0.28368,0.18608 0.57041,0.37215 0.86325,0.56432 10.04175,6.40269 21.24264,10.49016 32.99564,12.24716 0.41484,0.0671 0.83275,0.13116 1.24759,0.19827 21.37076,3.26083 44.21179,-2.48603 61.65369,-15.15719 1.21404,-0.89375 2.40978,-1.80886 3.59636,-2.73312 0.43621,-0.33553 0.43621,-0.33553 0.8785,-0.68022 3.8709,-3.07781 7.49166,-6.54911 10.71283,-10.30104 0.15253,-0.17386 0.30199,-0.34774 0.45756,-0.52771 4.11188,-4.78905 7.58012,-10.06311 10.52371,-15.63914 0.10066,-0.18303 0.19827,-0.3691 0.30198,-0.55821 5.29846,-9.85874 8.6447,-21.2091 9.45914,-32.38558 0.0214,-0.27758 0.0397,-0.55211 0.061,-0.83885 1.07372,-15.75201 -2.0773,-31.03427 -8.90703,-45.22145 -0.13726,-0.28368 -0.27148,-0.56736 -0.41179,-0.8602 -2.06814,-4.27659 -4.30405,-8.44031 -6.68027,-12.55219 -0.56737,-0.98221 -1.13168,-1.97052 -1.69295,-2.95579 -1.7326,-3.02594 -3.47129,-6.03969 -5.33811,-8.98328 -1.58313,-2.49519 -3.06866,-5.05138 -4.56333,-7.60147 -0.54601,-0.93341 -1.09507,-1.86072 -1.64718,-2.79107 -1.87902,-3.18152 -3.71838,-6.36304 -5.30152,-9.70317 -0.32333,-0.67413 -0.64667,-1.34521 -0.97306,-2.01629 -4.43216,-9.1663 -7.60757,-18.46987 -7.59842,-28.75565 0,-0.45755 0,-0.91816 -0.003,-1.37571 0,-1.25979 -0.003,-2.51654 -0.003,-3.77328 0,-1.35741 -0.003,-2.71482 -0.003,-4.07527 -0.003,-2.35182 -0.006,-4.70364 -0.009,-7.05851 -0.003,-3.72448 -0.009,-7.44896 -0.0152,-11.17038 -0.003,-1.2781 -0.006,-2.55315 -0.006,-3.8282 -0.003,-0.32028 -0.003,-0.63752 -0.003,-0.96696 -0.006,-3.62686 -0.0122,-7.25678 -0.0183,-10.88365 0,-0.33249 0,-0.66193 0,-1.00357 -0.009,-5.36556 -0.0152,-10.72808 -0.0183,-16.09059 -0.006,-5.51809 -0.0152,-11.03312 -0.0275,-16.54816 -0.006,-3.39808 -0.0122,-6.79313 -0.0122,-10.19122 0,-2.33047 -0.003,-4.66398 -0.0122,-6.99445 -0.003,-1.34215 -0.003,-2.68431 -0.003,-4.02646 0.0183,-14.31225 -2.47383,-26.26047 -12.46373,-37.012956 -1.2903,-1.290298 -2.68736,-2.415878 -4.13628,-3.526205 -0.25623,-0.204374 -0.51246,-0.405697 -0.77479,-0.616172 -13.79005,-10.578578 -34.67275,-11.289311 -48.94534,-1.214002 z m 0,0"
       id="path1-35" /></g></svg>
