<?xml version="1.0" encoding="UTF-8" standalone="no"?>
<svg
   version="1.1"
   width="512"
   height="512"
   viewBox="0 0 1280 1280"
   id="svg2"
   xml:space="preserve"
   xmlns="http://www.w3.org/2000/svg"
   xmlns:svg="http://www.w3.org/2000/svg"><defs
     id="defs2" /><g
     id="g1"
     transform="matrix(2.5,0,0,2.5,-0.85446741,-0.10664749)"
     style="display:inline"><path
       id="path1-3"
       style="display:inline;fill:#12ffd5;fill-opacity:1;stroke-width:6.86;stroke-linecap:round"
       d="M 42.505349,2.0849128 C 28.248595,2.1007232 18.936535,5.5960515 12.452526,12.147485 5.9685169,18.698918 2.3840087,28.485814 2.3621252,42.884241 2.2932919,88.173608 2.3750133,108.907 2.3544517,157.119 c -0.00588,13.79029 3.4691176,22.38626 10.0410753,28.85897 6.571957,6.47271 15.749123,10.34926 29.888143,10.37046 53.773095,0.0806 61.48496,-0.0141 114.07858,-1e-5 14.02002,0.004 23.25993,-3.79712 29.89888,-10.37045 6.63895,-6.57334 10.33645,-15.17844 10.35233,-28.95252 0.0456,-39.53716 -0.0463,-70.506097 -0.0838,-114.143426 C 196.51726,28.478348 192.78699,18.655539 186.26109,12.108933 179.73519,5.5623242 170.74484,2.1450344 156.82008,2.1174438 113.40367,2.0314182 93.465828,2.0283989 42.505349,2.0849128 Z"
       transform="matrix(2.5940351,0,0,2.5939064,-2.0544322,-1.3094385)" /><path
       d="m 312.93939,298.07445 c 0.72475,0.67395 1.44024,1.35706 2.15382,2.04281 0.21124,0.20156 0.42247,0.40312 0.64011,0.61079 3.15821,3.02872 6.02678,6.14901 8.59691,9.69204 0.15915,0.21822 0.31829,0.43644 0.48226,0.66127 12.33813,17.06338 12.33813,17.06338 11.86338,24.5407 -0.40771,1.66479 -0.40771,1.66479 -1.68753,2.46468 -3.9367,2.14948 -6.9117,2.70857 -11.36865,2.17603 0,-0.23448 0,-0.46896 0,-0.71054 -0.35171,0 -0.70343,0 -1.06581,0 -0.1391,-0.32664 -0.1391,-0.32664 -0.28102,-0.65989 -4.10658,-9.61557 -8.63538,-18.199 -15.91343,-25.81346 -0.33509,-0.35102 -0.66828,-0.70387 -0.99954,-1.05851 -4.1079,-4.39081 -8.86949,-7.86762 -14.10186,-10.81007 -0.45374,-0.25581 -0.90559,-0.51502 -1.3555,-0.7775 -6.10355,-3.55488 -12.99477,-6.07564 -19.92861,-7.42094 -0.25148,-0.0521 -0.50297,-0.10419 -0.76206,-0.15786 -8.39719,-1.68343 -17.87659,-1.64475 -26.23846,0.15786 -0.44248,0.0886 -0.44248,0.0886 -0.89391,0.17902 -6.96447,1.40565 -13.4742,3.89575 -19.71176,7.28165 -0.55574,0.30019 -0.55574,0.30019 -1.1227,0.60645 -3.86196,2.17267 -7.50431,4.72206 -10.71778,7.77847 -0.59397,0.49683 -0.59397,0.49683 -1.30451,0.49683 0,0.23448 0,0.46895 0,0.71054 -0.47184,0.45102 -0.47184,0.45102 -1.15462,0.99919 -12.36842,10.60461 -19.86158,27.72348 -21.22739,43.76483 -0.12679,2.12288 -0.13894,4.2466 -0.13322,6.37266 4.7e-4,0.42833 4.7e-4,0.42833 8.8e-4,0.86531 0.0545,15.25209 5.01245,29.72186 14.30146,41.8226 0.75217,1.03251 0.75217,1.03251 1.10744,2.09832 0.23448,0 0.46896,0 0.71054,0 0.52597,0.5218 0.52597,0.5218 1.13242,1.24344 0.21891,0.25692 0.43782,0.51384 0.66336,0.77854 0.22807,0.27066 0.45613,0.54132 0.69111,0.82018 0.44998,0.52679 0.90141,1.05236 1.35447,1.57651 0.20013,0.23401 0.40026,0.46804 0.60645,0.70915 0.50277,0.59565 0.50277,0.59565 1.23651,0.91177 0,0.23448 0,0.46895 0,0.71054 0.20517,0.0952 0.41034,0.19051 0.62172,0.28865 0.81908,0.4323 1.5172,0.88493 2.22044,1.4877 0,0.23448 0,0.46895 0,0.71054 0.20901,0.0992 0.41801,0.1983 0.63335,0.30045 0.73381,0.38202 1.3601,0.79459 2.02285,1.28716 9.96805,7.29378 21.27626,12.13532 33.58134,13.689 0.51522,0.0694 0.51522,0.0694 1.04084,0.14016 16.59413,1.80372 34.57069,-2.50501 47.98643,-12.57461 0.20884,-0.15514 0.41766,-0.31028 0.63282,-0.47011 3.68546,-2.75813 7.64566,-5.74435 10.38055,-9.47745 -0.49319,-1.47958 -1.5482,-2.02319 -2.77555,-2.88657 -0.49142,-0.35276 -0.98268,-0.70572 -1.47381,-1.05888 -0.24444,-0.17465 -0.48888,-0.34931 -0.74073,-0.52926 -0.9444,-0.67892 -1.87471,-1.37568 -2.80365,-2.07558 -0.34347,-0.25829 -0.68695,-0.51659 -1.04082,-0.78271 -0.3673,-0.27661 -0.73459,-0.55322 -1.113,-0.83821 -2.97096,-2.23685 -5.94988,-4.46148 -8.94837,-6.66132 -2.43408,-1.78629 -4.84216,-3.60367 -7.23862,-5.44007 -2.59424,-1.98764 -5.21673,-3.92717 -7.87466,-5.82865 -1.98745,-1.42502 -3.9291,-2.8997 -5.8532,-4.40895 -1.79491,-1.5491 -1.79491,-1.5491 -3.94683,-2.15244 -0.54423,0.18985 -1.08733,0.38318 -1.62647,0.58703 -4.02991,1.45685 -8.23531,1.62368 -12.23461,-0.0333 -4.66469,-2.33777 -7.15675,-5.37834 -9.05245,-10.18626 -1.17369,-3.78008 -0.67276,-8.10017 1.12549,-11.57264 2.46741,-4.27346 5.47145,-6.78585 10.17515,-8.30444 4.33232,-1.05531 8.40862,-0.31716 12.20825,1.88737 3.29602,2.10945 5.69625,5.02988 6.97634,8.77073 0,0.35172 0,0.70344 0,1.06581 0.37323,0.0207 0.37323,0.0207 0.754,0.0417 3.74835,0.24527 7.44027,0.79062 11.15448,1.33629 0.71234,0.10348 1.42471,0.20681 2.1371,0.31001 1.89313,0.2746 3.78598,0.55102 5.6788,0.82778 1.95664,0.28579 3.91353,0.56992 5.87042,0.8541 0.78209,0.11359 1.56418,0.22719 2.34627,0.3408 0.57791,0.0839 0.57791,0.0839 1.16749,0.16958 1.16178,0.16883 2.32353,0.33788 3.48527,0.50698 4.31948,0.62859 8.63956,1.25255 12.96123,1.866 0.69477,0.0987 0.69477,0.0987 1.40359,0.19938 1.66597,0.23642 3.33197,0.47255 4.99817,0.70728 2.34044,0.32978 4.67988,0.66542 7.018,1.01125 0.30688,0.0448 0.61375,0.0897 0.92992,0.13584 0.88281,0.13053 1.76465,0.26632 2.64637,0.404 0.25589,0.0374 0.51178,0.0748 0.77541,0.11334 1.75842,0.28355 3.50376,0.6854 4.69381,2.09183 0.10716,0.22257 0.21433,0.44514 0.32474,0.67446 0.11266,0.21708 0.22532,0.43415 0.3414,0.6578 0.63581,2.41613 0.18247,4.91068 -0.3192,7.31357 -0.0624,0.30249 -0.12479,0.60497 -0.18908,0.91662 -4.17036,19.41493 -14.63891,37.66022 -30.51957,49.86479 -0.19349,0.14959 -0.38698,0.29917 -0.58634,0.45328 -12.1841,9.36371 -26.44441,15.33182 -41.69079,17.31022 -0.24043,0.0335 -0.48087,0.067 -0.72858,0.10149 -3.20449,0.38806 -6.44013,0.34042 -9.66307,0.3426 -0.3176,2.4e-4 -0.63519,4.8e-4 -0.9624,7.3e-4 -4.82119,-0.006 -9.48724,-0.19639 -14.2254,-1.15536 -0.30935,-0.0591 -0.61871,-0.11815 -0.93744,-0.17902 -21.7672,-4.21905 -40.3554,-16.51006 -53.41887,-34.28217 -0.23425,-0.31625 -0.23425,-0.31625 -0.47323,-0.6389 -12.80354,-17.50325 -17.38083,-40.52186 -14.28748,-61.75713 3.12884,-19.2471 13.441,-40.63365 29.68205,-52.35619 0.23448,0 0.46896,0 0.71054,0 0,-0.23448 0,-0.46896 0,-0.71054 0.67586,-0.55348 1.34934,-1.05631 2.06501,-1.55431 0.22034,-0.15474 0.44067,-0.30946 0.66769,-0.46889 4.69725,-3.26239 9.48845,-6.22129 14.67553,-8.6349 0.24461,-0.11707 0.48923,-0.23413 0.74125,-0.35475 8.57411,-4.09794 17.86445,-6.58161 27.32508,-7.46119 0.60795,-0.0591 0.60795,-0.0591 1.22818,-0.11936 23.22854,-1.96446 46.4762,5.93999 63.76404,21.52438 z"
       fill="#fbfbfb"
       id="path2"
       style="stroke-width:0.35527;fill:#050505;fill-opacity:1" /><path
       d="m 252.45467,36.066965 c 0.38962,-0.0052 0.38962,-0.0052 0.78712,-0.01054 5.833,-0.06197 11.40774,0.02724 17.0874,1.516278 0.29974,0.07614 0.59947,0.152274 0.9083,0.230718 9.86839,2.562201 19.44791,7.507879 26.44749,15.045893 0.2931,0.293098 0.5862,0.586196 0.88818,0.888175 0.2931,0.293098 0.58619,0.586196 0.88817,0.888176 0.18187,0.173368 0.36375,0.346738 0.55112,0.52536 1.58756,1.535098 2.91993,3.162705 4.20062,4.959122 0.19953,0.279387 0.39906,0.558774 0.60463,0.846629 7.59809,10.805856 11.04558,22.997347 11.03509,36.124001 8.6e-4,0.555114 0.002,1.110228 0.003,1.665341 0.003,1.518182 0.004,3.036362 0.004,4.554552 6.5e-4,1.64033 0.004,3.28066 0.006,4.92099 0.004,2.84111 0.007,5.68222 0.009,8.52333 0.004,4.49561 0.011,8.99123 0.0189,13.48684 0.003,1.54005 0.005,3.08009 0.008,4.62014 6.7e-4,0.38485 8.9e-4,0.7697 0.002,1.16621 0.007,4.37738 0.0141,8.75475 0.0205,13.13212 5.7e-4,0.39996 8.8e-4,0.79993 0.002,1.212 0.009,6.47608 0.016,12.95215 0.0219,19.42823 0.006,6.65836 0.0164,13.31671 0.0302,19.97506 0.008,4.10134 0.0132,8.20267 0.0139,12.30402 7.6e-4,2.8142 0.005,5.62837 0.013,8.44255 0.004,1.6205 0.007,3.24097 0.004,4.86148 -0.0561,9.0316 -0.0561,9.0316 1.21557,17.95285 0.0783,0.37298 0.15655,0.74597 0.23719,1.13026 0.19037,0.87645 0.41026,1.73619 0.65098,2.60008 0.0883,0.31811 0.17666,0.63622 0.26767,0.96398 4.56469,15.66452 13.79361,29.73424 22.64725,43.26714 0.22921,0.35062 0.45842,0.70125 0.69458,1.06251 1.03893,1.58922 2.07811,3.17828 3.11755,4.76717 2.0554,3.14241 4.10851,6.28605 6.13543,9.44693 0.26293,0.40976 0.26293,0.40976 0.53117,0.8278 1.25842,1.96526 2.50233,3.939 3.73207,5.92233 0.13035,0.20872 0.2607,0.41743 0.395,0.63248 8.67172,14.01175 13.50465,30.97797 14.88161,47.32897 0.0308,0.3652 0.0617,0.7304 0.0935,1.10667 1.72319,22.01627 -2.90035,44.29867 -13.60868,63.64337 -0.29931,0.54493 -0.5885,1.09537 -0.87603,1.6466 -2.7281,5.20676 -6.1741,9.9693 -9.76715,14.60493 -0.37782,0.49254 -0.37782,0.49254 -0.76327,0.99503 -2.58598,3.30899 -5.47022,6.37597 -8.47375,9.3078 -0.28577,0.28577 -0.57154,0.57154 -0.86597,0.86597 -0.30043,0.30043 -0.60085,0.60085 -0.91038,0.91038 -0.19922,0.20746 -0.39843,0.41492 -0.60368,0.62866 -1.91914,1.97363 -3.98268,3.71292 -6.14645,5.41093 -0.22423,0.17654 -0.44847,0.3531 -0.67949,0.53498 -20.45266,16.04169 -45.31058,25.14962 -71.39592,25.11108 -0.29153,-3.4e-4 -0.58305,-6.7e-4 -0.88341,-8.9e-4 -4.61157,-0.0114 -9.15312,-0.14303 -13.72707,-0.77614 -0.38784,-0.0516 -0.77568,-0.10327 -1.17527,-0.15647 -20.81265,-2.85793 -41.63202,-11.29472 -57.4998,-25.25367 -0.91394,-0.79593 -1.85117,-1.53681 -2.80885,-2.27872 -4.58903,-3.73746 -8.79085,-8.13798 -12.41225,-12.81193 -0.57621,-0.67447 -1.15359,-1.34795 -1.73194,-2.02059 -3.5188,-4.22583 -6.39898,-8.90018 -9.21239,-13.61354 -0.36556,-0.61021 -0.73714,-1.2168 -1.10987,-1.82267 -14.63414,-24.17668 -17.9661,-55.55577 -11.39362,-82.72935 3.82526,-15.54276 10.78595,-28.98169 19.53499,-42.257 8.32352,-12.6183 8.32352,-12.6183 16.22464,-25.5026 0.46044,-0.778 0.9257,-1.5529 1.39246,-2.32713 6.39455,-10.6526 11.93776,-22.01676 14.0068,-34.36266 0.0573,-0.33663 0.11448,-0.67327 0.17347,-1.0201 0.27197,-1.93151 0.31355,-3.87648 0.37982,-5.82384 0.015,-0.43533 0.03,-0.87066 0.0455,-1.31917 0.164,-5.25411 0.15486,-10.50759 0.14262,-15.76372 -0.003,-1.4942 -0.004,-2.98841 -0.005,-4.48262 -0.002,-2.57812 -0.005,-5.15625 -0.01,-7.73437 -0.006,-3.73583 -0.009,-7.47167 -0.0121,-11.20751 -0.004,-6.07545 -0.01,-12.1509 -0.0161,-18.22634 -3.9e-4,-0.36207 -7.7e-4,-0.72413 -8.9e-4,-1.09718 -0.005,-5.14304 -0.0122,-10.28608 -0.0192,-15.42912 -5e-4,-0.36271 -8.9e-4,-0.72542 -0.002,-1.09912 -7.5e-4,-0.5434 -7.5e-4,-0.5434 -0.002,-1.09777 -0.008,-6.05837 -0.0136,-12.11675 -0.0168,-18.17513 -0.002,-3.72319 -0.006,-7.44636 -0.0139,-11.16954 -0.005,-2.5522 -0.007,-5.10439 -0.007,-7.6566 -2.4e-4,-1.46742 -0.002,-2.93482 -0.006,-4.40223 -0.0473,-15.77833 -0.0473,-15.77833 1.74525,-22.709691 0.0926,-0.369549 0.18513,-0.739098 0.2805,-1.119847 1.81678,-6.996286 4.80473,-13.721915 9.06754,-19.574632 0.13664,-0.189255 0.27329,-0.378509 0.41407,-0.573498 9.68554,-13.283246 23.70788,-21.118203 39.73144,-23.940135 0.32788,-0.06271 0.65575,-0.125425 0.99356,-0.190038 1.29301,-0.187729 2.56545,-0.235497 3.8692,-0.249886 z m -27.60004,27.795717 c -0.3073,0.302715 -0.6146,0.60543 -0.9312,0.917319 -8.94053,9.303177 -11.59269,21.475679 -11.52546,33.965758 0.002,0.581246 0.004,1.162491 0.004,1.743741 0.004,1.40976 0.01,2.81949 0.0173,4.22924 0.24581,0.002 0.49162,0.004 0.74488,0.006 2.33075,0.0207 4.66138,0.0464 6.99201,0.0774 1.19786,0.0158 2.39567,0.0298 3.59359,0.0393 1.38117,0.012 2.76211,0.0306 4.14319,0.0504 0.63693,0.003 0.63693,0.003 1.28672,0.007 3.16802,0.055 6.49325,0.2676 8.81905,2.66181 1.88213,2.5095 2.05772,4.72882 1.77635,7.81594 -0.71764,2.5056 -2.32015,3.92112 -4.56031,5.18861 -2.02265,0.83596 -4.23286,0.66672 -6.38506,0.6775 -0.47437,0.006 -0.94872,0.0124 -1.42308,0.0194 -1.24107,0.0168 -2.48213,0.0274 -3.72328,0.0368 -1.26946,0.0107 -2.53884,0.0271 -3.80825,0.0432 -2.48527,0.031 -4.97037,0.0524 -7.45581,0.0742 0,4.68957 0,9.37913 0,14.21081 2.22022,0.0199 2.22022,0.0199 4.48528,0.0402 1.18636,0.0136 2.37268,0.0282 3.55902,0.0434 1.24891,0.0158 2.49777,0.0298 3.74675,0.0393 1.4358,0.0111 2.87141,0.0306 4.30712,0.0504 0.44383,0.003 0.88765,0.004 1.34493,0.007 3.41861,0.0573 5.99675,0.46551 8.49161,3.01708 1.71168,2.23794 1.7479,4.7406 1.42108,7.46067 -0.54489,2.09445 -1.74028,3.27702 -3.44861,4.53802 -2.56705,1.37317 -5.20509,1.26673 -8.05187,1.2934 -0.68077,0.0103 -0.68077,0.0103 -1.37529,0.0209 -1.19903,0.0176 -2.39803,0.0322 -3.59712,0.0456 -1.22659,0.0143 -2.45312,0.0323 -3.67966,0.0502 -2.40106,0.0346 -4.80208,0.063 -7.20324,0.0916 0,4.68956 0,9.37913 0,14.2108 1.50166,0.009 3.00334,0.0183 4.55051,0.0277 1.20477,0.0113 2.4095,0.0239 3.61424,0.0376 1.26767,0.0139 2.53525,0.0255 3.80297,0.031 1.45792,0.006 2.9155,0.0242 4.37332,0.0425 0.67464,6.6e-4 0.67464,6.6e-4 1.36291,8.9e-4 2.81089,0.0462 5.34101,0.26439 7.47511,2.25782 1.91199,2.06288 2.36469,4.01173 2.30996,6.78914 -0.2751,2.30396 -1.24703,4.28725 -3.08641,5.73428 -2.5564,1.75149 -5.90731,1.53989 -8.85955,1.56818 -0.66818,0.0103 -0.66818,0.0103 -1.34986,0.0209 -1.17508,0.0176 -2.35015,0.0322 -3.52528,0.0456 -1.20281,0.0143 -2.40556,0.0324 -3.60831,0.0502 -2.35319,0.0346 -4.70632,0.063 -7.05961,0.0916 0,4.68957 0,9.37913 0,14.21081 2.25868,0.0199 2.25868,0.0199 4.563,0.0402 1.20673,0.0136 2.41343,0.0282 3.62014,0.0434 1.27045,0.0158 2.54086,0.0298 3.81139,0.0393 1.22557,0.009 2.45098,0.0237 3.67645,0.0415 0.69104,0.009 1.38214,0.0123 2.07322,0.0158 2.68466,0.0442 5.06138,0.11419 7.21074,1.90407 0.19144,0.23541 0.38287,0.4708 0.58009,0.71332 0.29539,0.35034 0.29539,0.35034 0.59674,0.70776 1.45219,2.14296 1.48245,4.28167 1.22402,6.79732 -0.61067,2.19769 -2.01868,3.74044 -3.90797,4.97378 -1.36465,0.6461 -2.46269,0.80513 -3.96738,0.82382 -0.65062,0.0106 -0.65062,0.0106 -1.31438,0.0214 -0.46487,0.004 -0.92973,0.008 -1.40869,0.0124 -0.48335,0.006 -0.96669,0.0136 -1.45003,0.0209 -1.26795,0.0182 -2.53591,0.0323 -3.80391,0.0456 -1.29558,0.0142 -2.5911,0.0324 -3.88664,0.0502 -2.53889,0.0344 -5.07781,0.0643 -7.61679,0.0916 0.002,0.5272 0.002,0.5272 0.003,1.06506 0.009,3.92446 -0.0155,7.84827 -0.0766,11.77227 -0.01,0.72 -0.0176,1.44003 -0.0226,2.16007 -0.0462,6.33683 -0.66195,12.53992 -2.79029,18.55341 -0.10459,0.30254 -0.20917,0.60509 -0.31693,0.9168 -4.54068,12.75538 -12.26475,23.98968 -20.24432,34.81004 -0.49645,0.68054 -0.99241,1.36142 -1.48769,2.04281 -0.22029,0.3018 -0.44056,0.60359 -0.66752,0.91454 -0.6386,0.88372 -1.26703,1.7741 -1.89474,2.66557 -1.55304,2.19944 -3.16979,4.33792 -4.8318,6.45626 -2.09333,2.67134 -4.11187,5.37811 -6.03959,8.17122 -0.14638,0.21083 -0.29275,0.42167 -0.44357,0.63889 -15.38389,22.25138 -21.01043,49.49 -16.24441,76.05364 2.74327,14.44887 8.55523,27.85309 17.04325,39.83604 0.27477,0.39078 0.27477,0.39078 0.55511,0.78947 2.61325,3.68934 5.52678,6.99192 8.68191,10.2239 0.24072,0.24988 0.48143,0.49975 0.72945,0.7572 3.05811,3.17067 6.15388,6.12404 9.69463,8.74835 0.59555,0.4467 1.17958,0.90534 1.76196,1.36904 2.56688,2.03657 5.23284,3.81444 8.06435,5.46783 0.39477,0.23356 0.78954,0.46713 1.19626,0.70776 15.49488,9.0299 32.84963,13.95372 50.8286,13.92492 0.24933,-2.1e-4 0.49866,-4.2e-4 0.75555,-6.4e-4 4.2309,-0.01 8.39519,-0.19673 12.58928,-0.77651 0.32716,-0.0439 0.65432,-0.0878 0.99139,-0.13306 19.63848,-2.71978 37.23428,-11.32182 52.29911,-24.0253 0.35172,-0.29631 0.70344,-0.59261 1.06581,-0.89789 1.09963,-0.93679 1.09963,-0.93679 2.13162,-1.94427 0,-0.23448 0,-0.46896 0,-0.71054 0.19784,-0.0806 0.39569,-0.16121 0.59952,-0.24425 1.05661,-0.5997 1.78793,-1.34266 2.59791,-2.24264 0,-0.23448 0,-0.46896 0,-0.71054 0.23448,0 0.46896,0 0.71054,0 0.51749,-0.57335 1.00915,-1.17013 1.4877,-1.77635 0.94827,-1.19573 1.90819,-2.36247 2.92264,-3.50274 3.99698,-4.54458 7.16169,-9.73363 10.15574,-14.9713 0.21406,-0.36675 0.21406,-0.36675 0.43246,-0.7409 12.76634,-21.98073 15.05331,-49.90327 8.62874,-74.20148 -1.1127,-4.02054 -2.44554,-7.90994 -4.08742,-11.74351 -0.17706,-0.41912 -0.17706,-0.41912 -0.3577,-0.84672 -2.80412,-6.59476 -6.16504,-12.83793 -10.30041,-18.69313 -0.17299,-0.2461 -0.34598,-0.4922 -0.52422,-0.74576 -2.3411,-3.31815 -4.77673,-6.5513 -7.28365,-9.74556 -1.68867,-2.15767 -3.28943,-4.3655 -4.86545,-6.60606 -0.91698,-1.29503 -1.85045,-2.5782 -2.78092,-3.86356 -0.39647,-0.54953 -0.79292,-1.09909 -1.18932,-1.64867 -0.67254,-0.93172 -1.34814,-1.86094 -2.02893,-2.78665 -9.48178,-12.96358 -19.72889,-29.12772 -19.74295,-45.75438 -6.9e-4,-0.24478 -0.002,-0.48957 -0.002,-0.74177 -0.002,-0.81567 -8.9e-4,-1.63131 -6.6e-4,-2.44697 -8.6e-4,-0.5926 -0.002,-1.1852 -0.003,-1.7778 -0.003,-1.62511 -0.004,-3.25021 -0.004,-4.87532 -6.6e-4,-1.75417 -0.004,-3.50833 -0.006,-5.2625 -0.004,-3.03963 -0.007,-6.07926 -0.009,-9.1189 -0.004,-4.80895 -0.011,-9.6179 -0.0189,-14.42686 -0.003,-1.64663 -0.005,-3.29326 -0.008,-4.93989 -6.6e-4,-0.41152 -8.9e-4,-0.82304 -0.002,-1.24702 -0.007,-4.68296 -0.0141,-9.36593 -0.0205,-14.04889 -5.8e-4,-0.42799 -8.9e-4,-0.85597 -0.002,-1.29693 -0.009,-6.92869 -0.016,-13.8574 -0.0219,-20.7861 -0.006,-7.12082 -0.0164,-14.24162 -0.0302,-21.36243 -0.008,-4.3877 -0.0132,-8.77537 -0.014,-13.16306 -7.5e-4,-3.01073 -0.005,-6.02144 -0.013,-9.03216 -0.004,-1.73418 -0.007,-3.46832 -0.004,-5.20251 0.002,-1.59228 -8.9e-4,-3.184468 -0.008,-4.776729 -0.002,-0.571426 -0.002,-1.14286 6.9e-4,-1.714284 0.0422,-12.171117 -3.70892,-23.233068 -12.22162,-32.081243 -0.31187,-0.330193 -0.62374,-0.660385 -0.94507,-1.000584 -2.0207,-2.088913 -4.03944,-3.871794 -6.5156,-5.394276 -0.3056,-0.188138 -0.3056,-0.188138 -0.61738,-0.380077 -17.88923,-10.876392 -39.9192,-8.261123 -54.80474,6.419667 z"
       fill="#fafafa"
       id="path1"
       style="stroke-width:0.35527;fill:#050505;fill-opacity:1" /></g></svg>
