<?xml version="1.0" encoding="UTF-8" standalone="no"?>
<svg
   version="1.1"
   width="512"
   height="512"
   viewBox="0 0 1280 1280"
   id="svg2"
   xml:space="preserve"
   xmlns="http://www.w3.org/2000/svg"
   xmlns:svg="http://www.w3.org/2000/svg"><defs
     id="defs2" /><g
     id="g1"
     transform="matrix(2.5,0,0,2.5,-0.85446741,-0.10664749)"
     style="display:inline"><path
       id="path1-3"
       style="display:inline;fill:#12ffd5;fill-opacity:1;stroke-width:17.7931;stroke-linecap:round"
       d="M 108.54772,4.1412726 C 71.565202,4.1822764 47.409391,13.247296 30.589644,30.238226 13.769897,47.229154 4.471557,72.611149 4.4147904,109.953 c -0.178556,117.4565 0.033432,171.22788 -0.019905,296.26412 -0.015253,35.76467 8.9990126,58.05804 26.0469016,74.8448 17.047887,16.78676 40.853778,26.84047 77.530893,26.89545 139.48929,0.20904 159.49414,-0.0366 295.92384,-3e-5 36.36842,0.0104 60.33707,-9.8477 77.55874,-26.89542 17.22167,-17.04774 26.81312,-39.36478 26.85431,-75.08742 0.11829,-102.53833 -0.1201,-182.85526 -0.21738,-296.02725 C 508.06002,72.591787 498.38357,47.116652 481.45516,30.138242 464.52675,13.159826 441.20546,4.297196 405.08415,4.2256406 292.46046,4.0025361 240.74099,3.9947056 108.54772,4.1412726 Z" /><path
       style="display:inline;fill:#050505;fill-opacity:1;fill-rule:nonzero;stroke:none;stroke-width:0.78089"
       d="m 256.13459,272.21312 c 0.25013,0 0.50026,0 0.75954,0 4.11187,0.006 8.09563,0.23182 12.1465,0.99136 0.28063,0.0518 0.56431,0.10066 0.8541,0.15252 13.40934,2.47078 25.90662,8.64469 35.83246,18.01537 0.80834,0.76868 0.80834,0.76868 1.74785,1.35435 0,0.20133 0,0.40265 0,0.61007 0.17998,0.0794 0.36299,0.15863 0.54907,0.23793 0.72903,0.4057 1.11338,0.7992 1.64414,1.43977 0.78088,0.93035 1.58618,1.82411 2.41892,2.70871 3.20592,3.55976 5.85667,7.61367 8.19934,11.78045 0.11288,0.19523 0.22269,0.38739 0.3386,0.58872 1.53432,2.68736 2.81547,5.44487 3.9685,8.31526 0.12507,0.29893 0.24709,0.59787 0.3752,0.90595 1.02491,2.6355 1.02491,2.6355 0.5033,4.22169 -0.59176,1.26895 -1.20183,1.8058 -2.44028,2.44027 -0.21352,0.11897 -0.42705,0.23794 -0.64668,0.36299 -0.57345,0.24709 -0.57345,0.24709 -1.48856,0.24709 0,0.30199 0,0.60397 0,0.9151 -0.9212,0.0671 -1.84241,0.13116 -2.76362,0.18912 -0.25928,0.0214 -0.51856,0.0396 -0.78394,0.061 -1.96442,0.12202 -3.50791,-0.0153 -5.22525,-1.07371 -0.84495,-0.86631 -1.13778,-1.6228 -1.54043,-2.76058 -2.38233,-6.34472 -5.87803,-12.13734 -10.42915,-17.15822 -0.37824,-0.43315 -0.37824,-0.43315 -0.76563,-0.8785 -1.32081,-1.50382 -1.32081,-1.50382 -2.82158,-2.82768 -0.33859,-0.28062 -0.33859,-0.28062 -0.68328,-0.56432 0,-0.20131 0,-0.40263 0,-0.61006 -0.15861,-0.0671 -0.32029,-0.13422 -0.485,-0.20133 -0.80835,-0.4484 -1.48248,-1.0005 -2.19016,-1.59228 -10.38339,-8.69044 -23.53955,-12.91518 -36.9611,-12.92433 -0.23792,0 -0.47584,0 -0.71988,0 -3.61161,0.003 -7.05546,0.17997 -10.58472,0.99136 -0.23792,0.0518 -0.47585,0.10067 -0.72292,0.15252 -14.94062,3.19067 -28.27676,12.13429 -36.66217,24.91832 -8.70571,13.62286 -11.59133,29.6311 -8.17494,45.45021 1.14693,4.94768 2.94053,9.57811 5.32286,14.05907 0.25013,0.46976 0.49111,0.94561 0.73209,1.42452 1.71429,3.30963 4.00206,6.28372 6.38133,9.13885 0.45755,0.60092 0.78395,1.17439 1.09507,1.85766 0.20133,0 0.40265,0 0.61008,0 0.49416,0.51247 0.49416,0.51247 1.04931,1.18354 0.65278,0.78699 1.13779,1.2903 2.00103,1.86682 0,0.20131 0,0.40263 0,0.61006 0.25318,0.10981 0.25318,0.10981 0.50942,0.21963 0.8846,0.48501 1.57093,1.09812 2.33046,1.7631 7.86686,6.67111 17.56392,10.60302 27.66363,12.35391 0.22268,0.0396 0.44535,0.0794 0.67414,0.11898 12.46678,2.11694 25.50702,-0.57042 36.54014,-6.5247 0.18607,-0.10067 0.37214,-0.19828 0.56432,-0.30199 2.63244,-1.40927 5.02697,-3.03205 7.36659,-4.88361 0.28063,-0.21963 0.56126,-0.4362 0.85105,-0.66193 1.08898,-0.85409 2.15355,-1.69599 3.11441,-2.69345 0.20132,-0.20133 0.40264,-0.40266 0.61007,-0.61008 0.20132,0 0.40264,0 0.61007,0 0,-0.20131 0,-0.40264 0,-0.61007 0.20132,0 0.40264,0 0.61007,0 0,-0.20132 0,-0.40264 0,-0.61006 0.20132,0 0.40264,0 0.61006,0 0.20133,-0.50331 0.40265,-1.00662 0.61008,-1.52518 -2.72092,-2.11084 -2.72092,-2.11084 -5.49063,-4.15458 -1.66549,-1.20183 -3.29133,-2.44943 -4.91717,-3.70008 -2.20236,-1.68684 -4.42911,-3.32183 -6.70467,-4.90801 -1.65023,-1.15303 -3.24862,-2.36097 -4.8348,-3.59636 -1.51603,-1.17744 -3.05341,-2.32132 -4.59079,-3.46825 -0.28978,-0.21962 -0.58261,-0.43925 -0.88154,-0.66498 -0.59787,-0.4484 -1.20184,-0.8968 -1.80581,-1.33605 -0.72293,-0.53687 -1.39096,-1.11338 -2.05899,-1.71735 -1.81801,-1.7021 -1.81801,-1.7021 -4.10882,-2.38537 -1.42146,0.27148 -2.65381,0.91205 -3.95631,1.52822 -4.50841,1.00967 -8.69654,-0.0183 -12.57049,-2.43113 -3.20286,-2.33046 -5.40827,-5.88717 -6.18916,-9.77027 -0.53991,-4.57248 0.43925,-8.72706 3.22422,-12.42103 2.5684,-3.02899 6.04885,-5.24355 10.06616,-5.63704 4.53586,-0.21352 7.64723,0.8663 11.56997,3.11135 0,0.20133 0,0.40264 0,0.61007 0.17693,0.0732 0.35385,0.14642 0.53382,0.22268 2.49213,1.41231 3.79768,4.49926 4.65178,7.09817 0,0.20132 0,0.40263 0,0.61006 0.30808,0.0213 0.30808,0.0213 0.62532,0.0427 2.69652,0.20132 5.36253,0.56736 8.03768,0.95475 0.49111,0.0702 0.98526,0.14032 1.47942,0.21048 1.3269,0.19218 2.65381,0.38434 3.98071,0.57652 0.83274,0.11896 1.66243,0.24098 2.49518,0.35994 2.90088,0.4179 5.80177,0.83884 8.70571,1.25979 2.69955,0.3935 5.39912,0.78395 8.10173,1.17134 2.32436,0.33249 4.64873,0.66802 6.9731,1.00661 1.38485,0.20132 2.76971,0.40265 4.15762,0.60092 1.3025,0.18608 2.605,0.37519 3.90445,0.56737 0.47586,0.0671 0.95476,0.13726 1.43062,0.20437 0.65277,0.0915 1.30555,0.18913 1.95527,0.28368 0.36604,0.0549 0.72903,0.10676 1.10728,0.16167 1.94613,0.424 3.39505,1.10118 4.69754,2.666 1.2964,2.28167 0.45755,5.13375 -0.0366,7.54962 -0.0701,0.33555 -0.13726,0.66803 -0.20743,1.01272 -0.65276,3.10526 -1.50382,6.11901 -2.50128,9.1297 -0.0976,0.29894 -0.0976,0.29894 -0.19522,0.60093 -2.64161,8.06817 -7.11342,16.59695 -13.34223,22.43531 -0.65278,0.61923 -1.23539,1.23235 -1.80886,1.91869 -1.11948,1.29029 -2.30607,2.50433 -3.50791,3.71837 -0.20437,0.20743 -0.4118,0.4179 -0.62227,0.63143 -0.19217,0.19521 -0.38739,0.38739 -0.58567,0.5887 -0.17387,0.17693 -0.35079,0.35385 -0.53076,0.53382 -0.45451,0.38129 -0.45451,0.38129 -1.06457,0.38129 0,0.20132 0,0.40265 0,0.61008 -0.40264,0.38434 -0.40264,0.38434 -0.97306,0.82053 -0.21048,0.16168 -0.42095,0.32334 -0.63753,0.48807 -0.22876,0.17081 -0.4606,0.34469 -0.69547,0.52161 -0.23793,0.17691 -0.47281,0.35689 -0.71378,0.5399 -15.68796,11.7347 -35.18885,17.54258 -54.75989,14.83691 -12.51865,-1.90647 -24.20759,-6.5247 -34.34086,-14.15668 -0.4301,-0.32333 -0.4301,-0.32333 -0.8724,-0.65582 -1.59229,-1.2415 -3.0839,-2.58365 -4.55722,-3.96241 -0.68022,-0.63447 -1.3635,-1.2415 -2.09254,-1.82105 -0.64363,-0.52162 -1.15304,-1.03103 -1.68685,-1.66244 -0.59787,-0.70463 -1.19573,-1.39097 -1.83631,-2.05594 -2.46773,-2.5745 -4.3986,-5.47234 -6.34168,-8.44948 -0.12201,-0.18607 -0.24402,-0.37214 -0.36909,-0.56431 -10.32239,-15.92587 -13.9035,-35.73791 -10.02955,-54.29624 4.18508,-19.10435 15.41647,-36.0887 31.94022,-46.72222 1.34216,-0.8419 2.70566,-1.64719 4.08137,-2.43418 0.20742,-0.12201 0.41484,-0.24098 0.63142,-0.36604 8.13529,-4.67009 17.25583,-7.25679 26.5167,-8.47998 0.34469,-0.0457 0.34469,-0.0457 0.69853,-0.0946 2.57144,-0.30809 5.16119,-0.28368 7.74789,-0.28673 z m 0,0"
       id="path2-6" /><path
       style="display:inline;fill:#050505;fill-opacity:1;fill-rule:nonzero;stroke:none;stroke-width:0.78089"
       d="m 255.22253,66.65914 c 15.72762,-0.381294 30.21678,5.874974 41.57629,16.508497 0.28978,0.268431 0.57957,0.539912 0.8785,0.817494 8.46168,8.059027 13.73572,19.229409 15.89842,30.601119 0.0671,0.33859 0.13117,0.67717 0.19828,1.02492 1.07982,6.44539 0.76259,13.16836 0.74733,19.67781 -0.003,1.14693 -0.003,2.29081 -0.003,3.4347 0,1.97662 -0.003,3.95325 -0.003,5.92988 -0.006,2.86427 -0.006,5.7255 -0.009,8.58978 0,4.66094 -0.006,9.31882 -0.009,13.97671 0,0.27758 0,0.55516 0,0.84189 -0.003,1.97054 -0.003,3.94106 -0.006,5.91159 -0.003,2.25115 -0.003,4.50536 -0.006,6.75652 0,0.27759 0,0.55517 0,0.8419 -0.006,4.64263 -0.009,9.28832 -0.009,13.934 -0.003,2.85208 -0.006,5.70721 -0.009,8.55928 -0.003,1.95833 -0.003,3.9136 -0.003,5.87193 -0.003,1.12558 -0.003,2.2481 -0.006,3.37369 -0.12811,9.22121 -0.12811,9.22121 0.83275,18.37226 0.0549,0.29893 0.10676,0.59786 0.16167,0.909 1.51298,8.18409 4.63958,16.03264 8.19019,23.5304 0.15557,0.32944 0.31114,0.66194 0.4728,1.00357 3.16931,6.68942 6.5369,13.26293 10.10887,19.74797 1.14387,2.08949 2.22371,4.20949 3.27607,6.34473 0.66803,1.35436 1.35436,2.69346 2.07729,4.02342 9.37373,17.27413 16.07535,36.05513 16.70372,55.81531 0.006,0.21047 0.0153,0.42095 0.0214,0.63752 0.46669,15.88318 -3.30659,31.85787 -10.39255,46.03284 -0.13421,0.26539 -0.26537,0.53382 -0.40569,0.80834 -1.54958,3.07781 -3.21507,6.058 -5.08494,8.95279 -0.18607,0.29282 -0.37214,0.58261 -0.56431,0.8846 -2.71482,4.16373 -5.76516,8.02852 -9.06565,11.7408 -0.38739,0.4362 -0.77174,0.8785 -1.15303,1.32385 -1.05542,1.21709 -2.13219,2.31216 -3.37674,3.34014 -0.86935,0.72902 -1.65329,1.54652 -2.42503,2.37926 -1.65328,1.73565 -3.54145,3.16017 -5.43877,4.61519 -0.51246,0.39654 -1.01882,0.79614 -1.52518,1.19879 -14.47086,11.42051 -32.62655,18.11603 -50.87985,19.96759 -0.26843,0.0275 -0.53686,0.0579 -0.81444,0.0885 -2.82158,0.27149 -5.6401,0.28978 -8.47082,0.29283 -0.39045,0 -0.39045,0 -0.79004,0 -9.88924,-0.0122 -19.49785,-1.50382 -28.96918,-4.34675 -0.22877,-0.0671 -0.45756,-0.13421 -0.69548,-0.20437 -13.66558,-4.10882 -26.28488,-11.58523 -36.82384,-21.14809 -0.27453,-0.25012 -0.27453,-0.25012 -0.55516,-0.5033 -3.71837,-3.38284 -3.71837,-3.38284 -4.93547,-4.68229 0,-0.20131 0,-0.40264 0,-0.61007 -0.20131,0 -0.40265,0 -0.61007,0 -0.42094,-0.40569 -0.42094,-0.40569 -0.91511,-0.99136 -0.18911,-0.22268 -0.38129,-0.4484 -0.57651,-0.67718 -0.21047,-0.25622 -0.424,-0.5094 -0.64362,-0.77173 -0.35079,-0.41486 -0.35079,-0.41486 -0.71073,-0.83886 -13.44844,-15.94418 -21.54712,-35.14309 -23.69151,-55.89767 -0.0396,-0.37519 -0.0793,-0.75039 -0.12202,-1.13778 -1.59533,-18.7322 2.79412,-36.82383 10.4932,-53.76852 0.15557,-0.3447 0.31114,-0.68634 0.46977,-1.04018 1.92781,-4.27354 3.9624,-8.49217 6.05189,-12.68641 0.10066,-0.20437 0.20132,-0.4057 0.30503,-0.61617 0.97307,-1.95833 1.96138,-3.89224 3.08086,-5.77126 1.05542,-1.7753 1.97052,-3.60551 2.88258,-5.45708 0.62532,-1.2659 1.26894,-2.52263 1.91866,-3.77939 0.10677,-0.20741 0.21353,-0.41484 0.32639,-0.62837 0.43316,-0.84494 0.86936,-1.68683 1.30556,-2.52873 7.13782,-13.79979 14.52272,-28.19135 14.51052,-44.08367 0,-0.43621 0,-0.86935 0.003,-1.30251 0,-1.18658 0.003,-2.37316 0.003,-3.55975 0,-1.28115 0.003,-2.56229 0.003,-3.8465 0.003,-2.22066 0.006,-4.44131 0.009,-6.66196 0.003,-3.51705 0.009,-7.03411 0.0152,-10.55116 0.003,-1.20489 0.006,-2.40978 0.006,-3.61467 0.003,-0.45146 0.003,-0.45146 0.003,-0.91511 0.006,-3.42554 0.0122,-6.85108 0.0183,-10.27663 0,-0.31419 0,-0.62837 0,-0.95171 0.009,-5.06052 0.0153,-10.12411 0.0183,-15.18769 0.006,-5.21 0.0153,-10.42 0.0274,-15.62695 0.006,-3.20896 0.0122,-6.41488 0.0122,-9.6208 0,-2.20235 0.003,-4.40471 0.0122,-6.60706 0.003,-1.26895 0.003,-2.53484 0.003,-3.80074 -0.0153,-11.89636 1.46417,-22.83187 7.14392,-33.42879 0.10372,-0.201323 0.21047,-0.399596 0.31724,-0.60702 1.29335,-2.470784 2.72396,-4.7799 4.39251,-7.018856 0.15861,-0.213525 0.31723,-0.427049 0.4789,-0.646675 0.39044,-0.509409 0.80224,-1.000515 1.21709,-1.488571 0.20132,0 0.40265,0 0.61007,0 0.0824,-0.17692 0.16167,-0.353841 0.24403,-0.536861 1.00356,-1.879017 2.68126,-3.343185 4.29184,-4.700591 0.4423,-0.378243 0.86936,-0.771738 1.2903,-1.174386 9.83738,-9.379827 23.77443,-13.769282 37.09226,-14.36715 z m -22.48108,23.524304 c -0.26842,0.179971 -0.53381,0.359941 -0.80834,0.546012 -8.99243,6.25932 -14.8003,15.413424 -17.28328,26.010344 -0.0488,0.20132 -0.0976,0.40264 -0.14948,0.61007 -0.4972,2.29996 -0.55515,4.65483 -0.67107,6.9975 0.23793,0.003 0.47586,0.006 0.72293,0.006 2.25726,0.0244 4.51453,0.0519 6.77179,0.0824 1.15913,0.0153 2.31826,0.0275 3.48044,0.0396 1.11948,0.0122 2.242,0.0275 3.36454,0.0427 0.424,0.006 0.85105,0.009 1.27809,0.0122 6.57351,0.0579 6.57351,0.0579 9.09005,2.56229 1.78445,2.34267 2.06509,4.40166 1.83021,7.32085 -0.50636,2.15964 -1.79666,3.70617 -3.66042,4.88056 -2.31217,1.13473 -4.63043,1.06152 -7.15003,1.07066 -0.4545,0.006 -0.909,0.0122 -1.3635,0.0183 -1.18964,0.0122 -2.37927,0.0213 -3.56891,0.0305 -1.43061,0.009 -2.86123,0.0275 -4.29184,0.0427 -2.1688,0.0244 -4.33455,0.0396 -6.50335,0.0579 0,4.83175 0,9.66351 0,14.64168 2.19931,0.0122 2.19931,0.0122 4.44131,0.0244 0.93341,0.006 1.86376,0.0153 2.79717,0.0244 1.47942,0.0152 2.95579,0.0274 4.43521,0.0335 1.19268,0.006 2.38538,0.0153 3.57807,0.0306 0.45144,0.003 0.90595,0.006 1.36045,0.006 2.96799,0.003 5.38997,0.15252 7.73264,2.12915 0.21962,0.26538 0.44231,0.53075 0.66802,0.80224 0.21963,0.25927 0.43926,0.51551 0.66803,0.78088 1.04323,1.97969 1.42756,4.12409 0.85715,6.31119 -0.78089,2.10779 -1.85461,3.66041 -3.83124,4.786 -2.93138,1.26589 -6.37828,0.9761 -9.5171,0.9517 -0.35078,0 -0.70157,-0.003 -1.06457,-0.003 -1.10422,-0.003 -2.2115,-0.009 -3.31573,-0.0153 -1.47026,-0.009 -2.94054,-0.0153 -4.40775,-0.0183 -0.33554,-0.003 -0.67413,-0.006 -1.01882,-0.009 -0.31114,0 -0.62227,0 -0.94256,-0.003 -0.27452,0 -0.54601,-0.003 -0.82664,-0.003 -0.74735,0.006 -0.74735,0.006 -1.61364,0.33859 0,4.7311 0,9.46219 0,14.33664 2.56535,0.19828 5.03307,0.34165 7.59233,0.31419 0.67107,-0.006 1.3391,-0.009 2.01017,-0.0122 1.03712,-0.006 2.07119,-0.0153 3.10831,-0.0274 1.01576,-0.009 2.02848,-0.0122 3.0412,-0.0183 0.46061,-0.006 0.46061,-0.006 0.93035,-0.0122 2.83073,-0.009 5.52114,0.26843 7.72045,2.19626 1.99797,2.47078 2.34572,4.48096 2.13524,7.62587 -0.25013,1.11643 -0.57041,2.10169 -1.40621,2.92529 -0.49416,0.40264 -0.49416,0.40264 -0.424,1.04016 -0.4057,0.20439 -0.81444,0.4057 -1.22014,0.61008 -0.30504,0.15861 -0.30504,0.15861 -0.61922,0.32029 -2.35182,1.08592 -4.66093,1.08286 -7.19882,1.08592 -0.45451,0.003 -0.90901,0.009 -1.36351,0.0153 -1.18354,0.0122 -2.36708,0.0183 -3.55367,0.0244 -1.21098,0.006 -2.42502,0.0183 -3.63602,0.0305 -2.37316,0.0213 -4.74329,0.0396 -7.11646,0.0488 -0.003,0.39349 -0.003,0.79003 -0.006,1.19573 -0.0183,3.74583 -0.0396,7.49166 -0.0671,11.24055 -0.0122,1.92477 -0.0244,3.84953 -0.0335,5.77431 -0.006,1.86377 -0.0183,3.72752 -0.0335,5.58824 -0.006,0.70768 -0.009,1.41231 -0.0122,2.11694 -0.0153,5.72552 -0.37824,11.34426 -2.00102,16.86539 -0.0915,0.31419 -0.18303,0.62838 -0.27455,0.95476 -2.41587,8.09868 -6.17695,15.75811 -10.38338,23.06676 -0.25013,0.4423 -0.50331,0.88459 -0.75344,1.32689 -1.64414,2.87954 -3.35539,5.71941 -5.07883,8.55014 -3.64823,5.97869 -7.23238,12.00007 -10.58777,18.14958 -0.3752,0.68023 -0.75954,1.35741 -1.14693,2.03458 -11.85977,20.91931 -16.87149,45.04454 -10.51151,68.62069 3.71533,13.18667 9.90754,24.92748 18.92743,35.2285 0.34163,0.3935 0.34163,0.3935 0.69242,0.79615 2.79718,3.16322 5.74381,6.0519 9.06869,8.65994 0.34469,0.27758 0.68634,0.55211 1.03102,0.82969 2.22371,1.78141 4.49317,3.4347 6.8999,4.96598 0.28368,0.18607 0.57041,0.37214 0.86325,0.56431 10.04175,6.40269 21.24263,10.49016 32.99563,12.24716 0.41486,0.0671 0.83276,0.13116 1.2476,0.19827 21.37076,3.26083 44.21178,-2.48603 61.65369,-15.15719 1.21404,-0.89375 2.40977,-1.80885 3.59636,-2.73312 0.43621,-0.33552 0.43621,-0.33552 0.8785,-0.68022 3.8709,-3.0778 7.49166,-6.5491 10.71283,-10.30104 0.15253,-0.17386 0.30198,-0.34774 0.45756,-0.52771 4.11187,-4.78904 7.58011,-10.06311 10.52371,-15.63914 0.10066,-0.18303 0.19827,-0.3691 0.30198,-0.55821 5.29846,-9.85874 8.6447,-21.20909 9.45913,-32.38558 0.0214,-0.27759 0.0396,-0.55211 0.061,-0.83885 1.07373,-15.752 -2.07729,-31.03426 -8.90702,-45.22144 -0.13727,-0.28369 -0.27149,-0.56737 -0.41179,-0.8602 -2.06814,-4.2766 -4.30405,-8.44032 -6.68028,-12.55219 -0.56736,-0.98222 -1.13168,-1.97053 -1.69294,-2.9558 -1.7326,-3.02594 -3.4713,-6.0397 -5.33812,-8.98328 -1.58313,-2.49519 -3.06866,-5.05138 -4.56332,-7.60147 -0.54602,-0.93341 -1.09507,-1.86072 -1.64719,-2.79107 -1.87901,-3.18152 -3.71837,-6.36304 -5.30151,-9.70317 -0.32333,-0.67413 -0.64667,-1.3452 -0.97306,-2.01629 -4.43216,-9.1663 -7.60757,-18.46986 -7.59843,-28.75564 0,-0.45756 0,-0.91816 -0.003,-1.37571 0,-1.25979 -0.003,-2.51655 -0.003,-3.77328 0,-1.35742 -0.003,-2.71482 -0.003,-4.07527 -0.003,-2.35182 -0.006,-4.70364 -0.009,-7.05852 -0.003,-3.72448 -0.009,-7.44896 -0.0153,-11.17037 -0.003,-1.2781 -0.006,-2.55316 -0.006,-3.8282 -0.003,-0.32029 -0.003,-0.63752 -0.003,-0.96696 -0.006,-3.62687 -0.0122,-7.25679 -0.0183,-10.88365 0,-0.33249 0,-0.66193 0,-1.00358 -0.009,-5.36556 -0.0153,-10.72808 -0.0183,-16.09059 -0.006,-5.51808 -0.0153,-11.03311 -0.0275,-16.54815 -0.006,-3.39809 -0.0122,-6.79313 -0.0122,-10.19122 0,-2.33047 -0.003,-4.66399 -0.0122,-6.99445 -0.003,-1.34216 -0.003,-2.68431 -0.003,-4.02647 0.0183,-14.31224 -2.47383,-26.26046 -12.46373,-37.01295 -1.2903,-1.290299 -2.68737,-2.415878 -4.13629,-3.526205 -0.25622,-0.204374 -0.51245,-0.405697 -0.77478,-0.616171 -13.79005,-10.578579 -34.67275,-11.289312 -48.94534,-1.214003 z m 0,0"
       id="path1-35" /></g></svg>
