<?xml version="1.0" encoding="UTF-8" standalone="no"?>
<svg
   version="1.1"
   width="250"
   height="250"
   id="svg13"
   sodipodi:docname="UpwellingEvent.svg"
   inkscape:version="1.4.2 (ebf0e940d0, 2025-05-08)"
   xmlns:inkscape="http://www.inkscape.org/namespaces/inkscape"
   xmlns:sodipodi="http://sodipodi.sourceforge.net/DTD/sodipodi-0.dtd"
   xmlns="http://www.w3.org/2000/svg"
   xmlns:svg="http://www.w3.org/2000/svg">
  <defs
     id="defs13" />
  <sodipodi:namedview
     id="namedview13"
     pagecolor="#000000"
     bordercolor="#000000"
     borderopacity="0.25"
     inkscape:showpageshadow="2"
     inkscape:pageopacity="0.0"
     inkscape:pagecheckerboard="0"
     inkscape:deskcolor="#d1d1d1"
     inkscape:zoom="0.754"
     inkscape:cx="-161.14058"
     inkscape:cy="367.374"
     inkscape:window-width="1920"
     inkscape:window-height="983"
     inkscape:window-x="0"
     inkscape:window-y="0"
     inkscape:window-maximized="1"
     inkscape:current-layer="svg13" />
  <path
     d="m 125.73442,45.763689 c 3.35441,1.378832 4.97716,3.33835 7.18551,6.232242 0.69964,0.902136 1.39929,1.804281 2.12014,2.733752 0.37007,0.478344 0.74015,0.956678 1.12143,1.449512 1.97325,2.515329 4.01954,4.966226 6.06059,7.423573 1.23315,1.494156 2.46504,2.989391 3.69676,4.484781 0.79632,0.965899 1.59383,1.930774 2.39256,2.894569 1.11383,1.347006 2.21921,2.701349 3.32425,4.055957 0.63531,0.773594 1.27062,1.547197 1.92519,2.344238 1.57146,2.212211 2.50073,4.225511 3.36647,6.804008 -1.41019,0.309394 -2.82153,0.613262 -4.23333,0.914825 -0.78581,0.169819 -1.57162,0.339628 -2.38124,0.514589 -2.29769,0.400235 -2.29769,0.400235 -5.86259,0.400235 4.42474,19.49659 10.23889,37.64708 23.17186,53.05982 0.51584,0.66039 1.03167,1.32078 1.56313,2.00118 14.85735,18.33911 38.34359,27.90993 59.04021,37.33628 0.32098,2.96527 0.23554,4.2275 -1.45346,6.7131 -2.11144,1.52032 -2.11144,1.52032 -4.57102,1.65232 -7.53859,-1.36356 -14.17777,-3.74094 -21.1579,-6.93601 -1.01558,-0.44871 -2.03115,-0.89742 -3.07751,-1.35973 -9.41078,-2.6504 -11.40771,-4.66634 -20.53997,-11.04758 -6.43335,-3.77947 -12.28947,-8.26863 -17.57486,-13.3272 -2.64269,-2.52929 -5.1427,-5.20093 -7.50084,-7.99739 -1.17907,-1.39823 -8.89595,-9.20017 -8.65305,-9.21814 8.13233,-0.60166 5.94224,-5.14254 4.90464,-6.65682 -1.03761,-1.51429 -5.14836,-0.69299 -6.32276,1.63716 -0.82829,1.64344 -1.48472,-2.28575 -2.38166,-3.89856 -1.79388,-3.22562 -3.44753,-6.54099 -4.96173,-9.92858 -3.02839,-6.77518 -5.49902,-13.83926 -7.41837,-21.051955 -0.16614,-1.064559 -0.32601,-2.13032 -0.47581,-3.197533 -0.14981,-1.067212 -0.28954,-2.135876 -0.41541,-3.206239 l -6.75458,0.671897 -0.83466,-0.207296 c 1.38524,-6.232759 -4.15547,-8.148222 -3.89772,-9.927807 0.25776,-1.779586 0.39408,-2.5441 1.29356,-4.716575 1.14826,-3.002107 2.1367,-6.039118 3.04908,-9.101306 0.91238,-3.062188 1.74868,-6.149552 2.59267,-9.252362 1.12734,-4.135529 2.28782,-8.233851 3.66042,-12.292955 z"
     fill="#a8b8fd"
     id="path4-4-5"
     sodipodi:nodetypes="cccccccccccccccccccccssscssccccccscscc"
     style="fill:#ffffff;fill-opacity:1;stroke-width:0.902948" />
  <path
     id="path2-6"
     style="fill:#ffffff;fill-opacity:1;fill-rule:nonzero"
     d="m 13.283922,78.097939 c -7.2488799,18.56877 -8.0776899,37.230041 -6.9999999,57.000001 4.1426199,32.53348 20.6681839,61.30547 46.2617239,81.64063 0.59085,0.46219 1.16481,0.91078 1.73828,1.35937 21.43849,16.78301 49.684594,26.14758 77.007804,25.21875 1.01735,-0.0744 2.00477,-0.14655 2.99219,-0.21875 13.57145,-0.98701 26.44911,-3.64516 39.16406,-8.5664 18.39491,-7.50514 43.72486,-21.20395 51.83594,-40.4336 -12.4576,0.10128 -24.34466,-1.38588 -36.52539,-3.8457 l -2.28711,-0.4668 c -7.95321,-1.61517 -15.88008,-3.33664 -23.77149,-5.23242 l -2.0957,-0.50976 c -11.39674,-2.76918 -20.59012,-8.61864 -30.32031,-14.94532 -7.4905,-4.9562 -13.91263,-7.77785 -22.76953,-9.41015 -6.49868,-1.18657 -12.198964,-3.49684 -18.152344,-6.29883 -13.95602,-6.78074 -20.93253,-14.33828 -26.2207,-29.11328 -2.542,-7.12455 -5.31498,-13.70441 -9.47852,-20.08008 C 43.601316,91.094159 29.631546,81.300739 13.283922,78.097939 Z m 12.376954,25.343751 c 13.43225,2.5603 24.91056,10.38811 33.17774,20.86133 3.42103,5.09668 5.70038,10.35742 7.78906,16.05274 4.34508,11.81105 10.07777,17.85099 21.54492,23.27148 4.89167,2.23991 9.57432,4.08662 14.914054,5.03516 7.27738,1.30486 12.55433,3.56148 18.70899,7.52343 7.99494,5.05751 15.54783,9.7336 24.91211,11.94727 0.56831,0.13436 1.13713,0.26779 1.72265,0.40625 6.48408,1.51546 12.99639,2.89244 19.53125,4.18359 0.93039,0.18483 0.93169,0.18451 1.88086,0.37305 10.00846,1.96639 19.77577,3.15518 30.01172,3.07422 -6.66458,15.37207 -27.47737,26.3227 -42.5918,32.32226 -10.44741,3.93401 -21.02852,6.05865 -32.17968,6.84766 -0.81133,0.0578 -1.62307,0.11631 -2.45899,0.17578 -22.45047,0.74249 -45.660174,-6.74394 -63.275384,-20.16015 -0.47121,-0.35861 -0.94225,-0.71646 -1.42773,-1.08594 -21.02927,-16.2558 -34.60789,-39.2566 -38.01172,-65.26367 -0.88551,-15.80401 -0.20418,-30.72069 5.75195,-45.56446 z" />
  <path
     id="path1-6-2"
     d="m 126.06658,1.5355292 c -9.95624,-0.19868 -19.93367,0.78544 -28.851554,3.0332 l -3.41797,1.03516 c -20.43346,5.8934398 -37.34561,14.8818198 -52.41797,28.4199198 -0.37251,0.2324 -0.81148,0.59331 -1.49219,1.1543 -0.73179,0.71851 -1.44207,1.4159 -2.15234,2.11328 -0.81424,0.78184 -1.50456,1.49234 -2.08985,2.19141 -1.63523,1.64727 -3.25068,3.35335 -4.84765,5.12109 -4.53924,5.19023 -8.47184,10.57584 -11.85157,16.13867 -0.0491,-0.0463 -0.0989,-0.0925 -0.14843,-0.13867 -2.187794,3.60286 -4.029824,7.28259 -5.683604,11.05273 -1.56324,3.56377 -2.95833,7.20824 -4.3163999,10.94727 -0.32937,0.8437 -0.64399,1.68707 -0.94727,2.53125 -6.37151,17.735101 -7.08146002,35.597071 -6.05273,54.468751 4.14262,32.53348 20.6701339,61.30547 46.2636739,81.64063 0.59078,0.46213 1.16292,0.91083 1.73633,1.35937 2.56771,2.01012 5.23519,3.91567 7.98632,5.70899 h 0.002 l 0.002,0.002 c 2.75001,1.79242 5.58387,3.47358 8.49024,5.03906 h 0.002 v 0.002 h 0.002 0.002 c 17.44463,9.39523 37.462874,14.61025 57.148434,14.5293 1.12579,-0.004 2.24985,-0.0243 3.37305,-0.0625 1.01735,-0.0744 2.00477,-0.14655 2.99219,-0.21875 6.19191,-0.40508 12.28025,-1.35958 18.30468,-2.58203 1.25949,-0.25575 2.53162,-0.49265 3.78321,-0.78516 1.90345,-0.44455 3.79435,-0.92541 5.67578,-1.45508 1.72104,-0.48566 3.43565,-1.04359 5.14648,-1.60546 1.96712,-0.64386 3.93657,-1.26879 5.875,-2.00977 0.12576,-0.0482 0.25318,-0.0802 0.37891,-0.12891 0.3352,-0.13676 0.72869,-0.34545 1.06836,-0.48632 2.93234,-1.16269 5.86801,-2.31875 8.72656,-3.70899 1.13544,-0.58025 2.2603,-1.17831 3.375,-1.79101 14.2566,-7.20407 29.25792,-17.39204 36.62891,-30.33399 9.754,-11.82968 17.351,-25.45505 22.2207,-40.29687 9.61589,-31.51422 7.1654,-65.722921 -8.19922,-95.011721 -15.92424,-29.18656 -42.37512,-51.01291 -74.26172,-60.7734398 -1.26571,-0.35062 -2.49417,-0.69094 -3.72265,-1.03125 -8.83919,-2.48822 -18.77424,-3.86968 -28.73047,-4.06836 z m -0.73242,15.5839898 0.002,0.002 c 8.6372,0.173 17.25568,1.37621 24.92383,3.54296 1.06573,0.29635 2.13048,0.59116 3.22851,0.89649 27.66217,8.49953 50.60928,27.50604 64.42383,52.92187 13.32907,25.50487 15.45523,55.295511 7.11328,82.738291 -4.22455,12.92434 -10.81557,24.78848 -19.27734,35.08984 -6.39446,11.26992 -19.40754,20.14268 -31.77539,26.41602 -0.96703,0.53354 -1.94273,1.05331 -2.92774,1.55859 -2.47985,1.21064 -5.02645,2.21798 -7.57031,3.23047 -0.29467,0.12266 -0.63694,0.30473 -0.92773,0.42383 -0.10907,0.0423 -0.21903,0.0693 -0.32813,0.11133 -1.68163,0.64525 -3.39114,1.18932 -5.09765,1.75 -1.48418,0.48928 -2.97182,0.97551 -4.46485,1.39843 -1.63218,0.46123 -3.27255,0.88046 -4.92383,1.26758 -1.08578,0.25471 -2.18863,0.46089 -3.28125,0.6836 -5.2263,1.06452 -10.5073,1.89529 -15.8789,2.24804 -0.85659,0.0629 -1.71509,0.12661 -2.59766,0.19141 -0.9744,0.0332 -1.94914,0.0487 -2.92578,0.0527 -17.07757,0.0705 -34.442654,-4.47091 -49.576164,-12.65234 h -0.002 -0.002 l -0.002,-0.002 c -2.52132,-1.36324 -4.97956,-2.82587 -7.36524,-4.38672 v -0.002 h -0.002 -0.002 c -2.38666,-1.56163 -4.7002,-3.22222 -6.92774,-4.97265 -0.49744,-0.39058 -0.99335,-0.78118 -1.50586,-1.1836 -22.20284,-17.70798 -36.54097,-42.76143 -40.134764,-71.09179 -0.89245,-16.43357 -0.2774,-31.98781 5.250004,-47.431641 0.2631,-0.73512 0.53653,-1.47038 0.82226,-2.20508 1.17815,-3.25597 2.38801,-6.42985 3.74414,-9.53321 1.4347,-3.28306 3.0337,-6.4876 4.93165,-9.625 0.043,0.0403 0.0843,0.0808 0.12695,0.1211 2.93197,-4.84415 6.34533,-9.53305 10.2832,-14.05274 1.38539,-1.53935 2.78649,-3.02648 4.20508,-4.46094 0.50775,-0.60875 1.10613,-1.22737 1.8125,-1.9082 0.61617,-0.60728 1.23235,-1.21416 1.86719,-1.83984 0.59053,-0.48852 0.97177,-0.80349 1.29492,-1.00586 13.07554,-11.78907 27.74627,-19.61601 45.47266,-24.74805 l 2.964834,-0.90039 c 7.73643,-1.95737 16.39209,-2.81559 25.0293,-2.64258 z"
     style="fill:#ffffff;fill-opacity:1" />
  <path
     id="path2-6-7"
     style="fill:#ffffff;fill-opacity:1;fill-rule:nonzero"
     d="m 12.620792,77.434809 c -7.2488799,18.56877 -8.0776899,37.230041 -6.9999999,57.000001 4.14262,32.53348 20.6681839,61.30547 46.2617239,81.64063 0.59085,0.46219 1.16481,0.91078 1.73828,1.35937 21.43849,16.78301 49.684594,26.14758 77.007804,25.21875 1.01735,-0.0744 2.00477,-0.14655 2.99219,-0.21875 13.57145,-0.98701 26.44911,-3.64516 39.16406,-8.5664 18.39491,-7.50514 43.72486,-21.20395 51.83594,-40.4336 -12.4576,0.10128 -24.34466,-1.38588 -36.52539,-3.8457 l -2.28711,-0.4668 c -7.95321,-1.61517 -15.88008,-3.33664 -23.77149,-5.23242 l -2.0957,-0.50976 c -11.39674,-2.76918 -20.59012,-8.61864 -30.32031,-14.94532 -7.4905,-4.9562 -13.91263,-7.77785 -22.76953,-9.41015 -6.49868,-1.18657 -12.198964,-3.49684 -18.152344,-6.29883 -13.95602,-6.78074 -20.93253,-14.33828 -26.2207,-29.11328 -2.542,-7.12455 -5.31498,-13.70441 -9.47852,-20.08008 C 42.938186,90.431029 28.968416,80.637609 12.620792,77.434809 Z m 12.376954,25.343751 c 13.43225,2.5603 24.91056,10.38811 33.17774,20.86133 3.42103,5.09668 5.70038,10.35742 7.78906,16.05274 4.34508,11.81105 10.07777,17.85099 21.54492,23.27148 4.89167,2.23991 9.57432,4.08662 14.914054,5.03516 7.27738,1.30486 12.55433,3.56148 18.70899,7.52343 7.99494,5.05751 15.54783,9.7336 24.91211,11.94727 0.56831,0.13436 1.13713,0.26779 1.72265,0.40625 6.48408,1.51546 12.99639,2.89244 19.53125,4.18359 0.93039,0.18483 0.93169,0.18451 1.88086,0.37305 10.00846,1.96639 19.77577,3.15518 30.01172,3.07422 -6.66458,15.37207 -27.47737,26.3227 -42.5918,32.32226 -10.44741,3.93401 -21.02852,6.05865 -32.17968,6.84766 -0.81133,0.0578 -1.62307,0.11631 -2.45899,0.17578 -22.450474,0.74249 -45.660174,-6.74394 -63.275384,-20.16015 -0.47121,-0.35861 -0.94225,-0.71646 -1.42773,-1.08594 -21.02927,-16.2558 -34.60789,-39.2566 -38.01172,-65.26367 -0.885514,-15.80401 -0.20418,-30.72069 5.75195,-45.56446 z" />
  <path
     id="path5-0-65"
     d="m 50.95222,75.095023 c 3.77946,-0.819628 4.24676,-1.212732 6.54656,-4.066582 1.71383,-2.35855 3.08505,-4.050769 5.32132,-5.980436 2.74532,-2.198755 5.09758,-4.267003 7.30133,-7.019441 0.31246,-3.194237 0.31246,-3.194237 -0.11758,-5.998847 -1.95875,-3.73275 -5.25571,-5.413758 -9.13546,-6.822273 -7.60459,-0.65468 -14.48752,-0.857366 -20.85255,3.741419 l -1.79877,1.516014 c -1.83046,1.49319 -1.83046,1.49319 -3.1869,3.250582 -0.80488,5.823242 -0.80488,5.823242 6.33201,16.879146 2.80848,3.02602 5.51714,3.782981 9.59004,4.500418 z M 50.0639,70.636966 c -3.00304,-0.521597 -5.00114,-1.073494 -7.07142,-3.276113 -5.2604,-8.048082 -5.26009,-8.048048 -4.66555,-12.287874 1.00051,-1.279734 1.00059,-1.279365 2.35056,-2.366831 0.65667,-0.546514 0.65633,-0.546768 1.32626,-1.104334 4.69412,-3.34936 9.77009,-3.202931 15.37724,-2.727669 2.86048,1.024777 5.29171,2.247354 6.73531,4.964664 0.31659,2.041858 0.3166,2.042647 0.0856,4.368301 -1.62545,2.004351 -3.36056,3.511055 -5.38522,5.112382 -1.64928,1.405322 -2.66104,2.637618 -3.92517,4.355102 -1.69628,2.078203 -2.0407,2.364948 -4.82764,2.962372 z"
     style="fill:#ffffff;fill-opacity:1" />
  <path
     id="path6-6-6"
     d="m 113.44606,97.587471 c 3.22087,0.09619 6.16413,-0.515735 8.39071,-3.565517 0.35192,-3.264914 0.45623,-5.186537 -1.46781,-7.910253 -0.58738,-0.689871 -1.15749,-1.359446 -1.7276,-2.029032 -1.98317,-4.492907 -3.49699,-8.567491 -7.23383,-11.860509 -3.63288,-0.366372 -3.63288,-0.366372 -6.99865,0.137187 -2.9131,3.029583 -4.98,6.351979 -6.80268,10.135267 -1.2135,4.025875 -1.34983,7.00962 0.58806,10.865562 3.11697,2.423708 5.39471,3.078095 9.24935,3.663183 2.03732,0.19358 4.06991,0.506395 6.00245,0.564112 z m -1.67429,-4.092973 c -1.44815,-0.04113 -2.97052,-0.268225 -4.49714,-0.408043 -2.88828,-0.423597 -4.5957,-0.897245 -6.93038,-2.657658 -1.4505,-2.801991 -1.34727,-4.972311 -0.43614,-7.89921 1.36752,-2.750859 2.91834,-5.165536 5.10266,-7.368998 2.52243,-0.367515 2.52288,-0.367524 5.24508,-0.102813 2.79881,2.392018 3.93189,5.35318 5.41603,8.618161 0.42693,0.486467 0.85294,0.971791 1.2928,1.472997 1.44061,1.978986 1.36241,3.375737 1.09725,5.74913 -1.66986,2.217842 -3.87658,2.664925 -6.29016,2.596434 z"
     style="fill:#ffffff;fill-opacity:1" />
  <path
     id="path7-2-9"
     d="m 107.36643,143.97136 c 0.7417,-0.0445 1.46157,-0.0876 2.18145,-0.13068 3.43266,-0.11289 6.74808,0.12056 9.84738,-1.50578 0.69474,-2.82666 0.69474,-2.82666 0.88222,-6.01844 -1.69054,-4.11931 -4.4992,-6.63544 -7.87771,-9.42946 -3.74919,-2.20278 -7.15101,-1.8901 -11.33422,-1.19607 -1.61326,3.61974 -4.34775,6.92398 -5.25093,10.79248 0.002,3.31309 1.52607,3.28323 3.05694,5.44114 2.93996,2.03511 4.96362,2.15833 8.49487,2.0468 z m 0.60422,-2.26228 c -2.62975,0.0786 -4.13643,0.004 -6.32143,-1.29042 -1.13547,-1.37552 -1.13425,-1.37549 -1.1292,-3.49222 0.68058,-2.47346 1.5885,-4.56632 2.7973,-6.88231 3.11644,-0.45209 5.65073,-0.66051 8.43797,0.73907 2.50998,1.77809 4.59515,3.38132 5.84546,6.00964 -0.14622,2.03963 -0.1457,2.0385 -0.66889,3.84588 -2.31125,1.0455 -4.7793,0.90455 -7.33564,0.9838 -0.53614,0.029 -1.07318,0.0565 -1.62557,0.0866 z"
     style="fill:#ffffff;fill-opacity:1"
     sodipodi:nodetypes="scccccccssscccccccss" />
  <path
     id="path10-1-3"
     d="m 99.23315,114.46887 c 0.57833,-2.38679 0.57833,-2.38679 0.90182,-5.01864 l -2.03882,-1.96042 c -3.12684,-0.0637 -3.12684,-0.0637 -5.99884,0.11759 -0.57834,2.38679 -0.57834,2.38679 -0.90182,5.01864 l 2.03881,1.96042 c 3.12685,0.0637 3.12685,0.0637 5.99885,-0.11759 z m -0.84369,-1.9819 c -2.04944,0.10809 -2.05,0.1081 -4.28043,0.0839 -0.47781,-0.3493 -0.9545,-0.6979 -1.44679,-1.05779 0.23954,-1.4312 0.23898,-1.43134 0.65951,-2.73024 2.04944,-0.10809 2.05,-0.1081 4.28043,-0.0839 0.47781,0.3493 0.9545,0.69788 1.44679,1.05777 -0.23953,1.43121 -0.23898,1.43136 -0.65951,2.73025 z"
     style="fill:#ffffff;fill-opacity:1" />
  <path
     id="path11-8-7"
     d="m 145.13339,137.0302 c 2.62205,-0.17642 2.62205,-0.17642 4.58247,-2.21523 0.0735,-2.62694 0.0735,-2.62694 -0.098,-4.99904 -2.32553,-0.64205 -2.32553,-0.64205 -5.01864,-0.90182 -1.85259,1.16153 -1.85259,1.16153 -2.94063,3.05822 0.36511,2.68086 0.36511,2.68086 1.0978,4.97944 0.80818,0.0267 1.59259,0.0525 2.377,0.0784 z m 0.29484,-0.90439 c -0.57995,-0.0204 -1.15989,-0.0404 -1.7574,-0.0613 -0.54303,-1.76839 -0.54396,-1.76829 -0.81546,-3.83046 0.80329,-1.4582 0.80413,-1.45933 2.17308,-2.35163 1.99119,0.20138 1.99198,0.20174 3.71163,0.69692 0.12819,1.82458 0.12818,1.8245 0.0754,3.84496 -1.44816,1.567 -1.44883,1.56733 -3.38722,1.70148 z"
     style="fill:#ffffff;fill-opacity:1" />
  <path
     id="path1-6-4"
     d="m 126.06658,1.5355292 c -9.95624,-0.19868 -19.93367,0.78544 -28.851554,3.0332 l -3.41797,1.03516 c -20.43346,5.8934398 -37.34561,14.8818198 -52.41797,28.4199198 -0.37251,0.2324 -0.81148,0.59331 -1.49219,1.1543 -0.73179,0.71851 -1.44207,1.4159 -2.15234,2.11328 -0.81424,0.78184 -1.50456,1.49234 -2.08985,2.19141 -1.63523,1.64727 -3.25068,3.35335 -4.84765,5.12109 -4.53924,5.19023 -8.47184,10.57584 -11.85157,16.13867 -0.0491,-0.0463 -0.0989,-0.0925 -0.14843,-0.13867 -2.187794,3.60286 -4.029824,7.28259 -5.683604,11.05273 -1.56324,3.56377 -2.95833,7.20824 -4.3163999,10.94727 -0.32937,0.8437 -0.64399,1.68707 -0.94727,2.53125 -6.37151,17.735101 -7.08146002,35.597071 -6.05273,54.468751 4.14262,32.53348 20.6701339,61.30547 46.2636739,81.64063 0.59078,0.46213 1.16292,0.91083 1.73633,1.35937 2.56771,2.01012 5.23519,3.91567 7.98632,5.70899 h 0.002 l 0.002,0.002 c 2.75001,1.79242 5.58387,3.47358 8.49024,5.03906 h 0.002 v 0.002 h 0.002 0.002 c 17.44463,9.39523 37.462874,14.61025 57.148434,14.5293 1.12579,-0.004 2.24985,-0.0243 3.37305,-0.0625 1.01735,-0.0744 2.00477,-0.14655 2.99219,-0.21875 6.19191,-0.40508 12.28025,-1.35958 18.30468,-2.58203 1.25949,-0.25575 2.53162,-0.49265 3.78321,-0.78516 1.90345,-0.44455 3.79435,-0.92541 5.67578,-1.45508 1.72104,-0.48566 3.43565,-1.04359 5.14648,-1.60546 1.96712,-0.64386 3.93657,-1.26879 5.875,-2.00977 0.12576,-0.0482 0.25318,-0.0802 0.37891,-0.12891 0.3352,-0.13676 0.72869,-0.34545 1.06836,-0.48632 2.93234,-1.16269 5.86801,-2.31875 8.72656,-3.70899 1.13544,-0.58025 2.2603,-1.17831 3.375,-1.79101 14.2566,-7.20407 29.25792,-17.39204 36.62891,-30.33399 9.754,-11.82968 17.351,-25.45505 22.2207,-40.29687 9.61589,-31.51422 7.1654,-65.722921 -8.19922,-95.011721 -15.92424,-29.18656 -42.37512,-51.01291 -74.26172,-60.7734398 -1.26571,-0.35062 -2.49417,-0.69094 -3.72265,-1.03125 -8.83919,-2.48822 -18.77424,-3.86968 -28.73047,-4.06836 z m -0.73242,15.5839898 0.002,0.002 c 8.6372,0.173 17.25568,1.37621 24.92383,3.54296 1.06573,0.29635 2.13048,0.59116 3.22851,0.89649 27.66217,8.49953 50.60928,27.50604 64.42383,52.92187 13.32907,25.50487 15.45523,55.295511 7.11328,82.738291 -4.22455,12.92434 -10.81557,24.78848 -19.27734,35.08984 -6.39446,11.26992 -19.40754,20.14268 -31.77539,26.41602 -0.96703,0.53354 -1.94273,1.05331 -2.92774,1.55859 -2.47985,1.21064 -5.02645,2.21798 -7.57031,3.23047 -0.29467,0.12266 -0.63694,0.30473 -0.92773,0.42383 -0.10907,0.0423 -0.21903,0.0693 -0.32813,0.11133 -1.68163,0.64525 -3.39114,1.18932 -5.09765,1.75 -1.48418,0.48928 -2.97182,0.97551 -4.46485,1.39843 -1.63218,0.46123 -3.27255,0.88046 -4.92383,1.26758 -1.08578,0.25471 -2.18863,0.46089 -3.28125,0.6836 -5.2263,1.06452 -10.5073,1.89529 -15.8789,2.24804 -0.85659,0.0629 -1.71509,0.12661 -2.59766,0.19141 -0.9744,0.0332 -1.94914,0.0487 -2.92578,0.0527 -17.07757,0.0705 -34.442654,-4.47091 -49.576164,-12.65234 h -0.002 -0.002 l -0.002,-0.002 c -2.52132,-1.36324 -4.97956,-2.82587 -7.36524,-4.38672 v -0.002 h -0.002 -0.002 c -2.38666,-1.56163 -4.7002,-3.22222 -6.92774,-4.97265 -0.49744,-0.39058 -0.99335,-0.78118 -1.50586,-1.1836 -22.20284,-17.70798 -36.54097,-42.76143 -40.134764,-71.09179 -0.89245,-16.43357 -0.2774,-31.98781 5.250004,-47.431641 0.2631,-0.73512 0.53653,-1.47038 0.82226,-2.20508 1.17815,-3.25597 2.38801,-6.42985 3.74414,-9.53321 1.4347,-3.28306 3.0337,-6.4876 4.93165,-9.625 0.043,0.0403 0.0843,0.0808 0.12695,0.1211 2.93197,-4.84415 6.34533,-9.53305 10.2832,-14.05274 1.38539,-1.53935 2.78649,-3.02648 4.20508,-4.46094 0.50775,-0.60875 1.10613,-1.22737 1.8125,-1.9082 0.61617,-0.60728 1.23235,-1.21416 1.86719,-1.83984 0.59053,-0.48852 0.97177,-0.80349 1.29492,-1.00586 13.07554,-11.78907 27.74627,-19.61601 45.47266,-24.74805 l 2.964834,-0.90039 c 7.73643,-1.95737 16.39209,-2.81559 25.0293,-2.64258 z"
     style="fill:#ffffff;fill-opacity:1" />
  <path
     id="path9-3"
     d="m 177.62094,184.59513 c 2.55833,-0.23768 2.55833,-0.23768 4.51875,-2.27649 0.0637,-3.12685 0.0637,-3.12685 -0.11759,-5.99885 -0.79068,-0.2183 -1.55811,-0.43017 -2.32553,-0.64205 -2.69311,-0.25977 -2.69311,-0.25977 -4.48321,0.90054 -1.49547,2.46693 -1.40628,4.06975 -1.05254,6.89695 1.01941,0.98021 1.01941,0.98021 3.46012,1.1199 z m 0.32991,-1.70601 c -1.5575,-0.0841 -1.5571,-0.0825 -2.20714,-0.68147 -0.22428,-1.72885 -0.2804,-2.70966 0.67525,-4.21913 1.14298,-0.71053 1.14227,-0.71168 2.86079,-0.55422 0.48962,0.12918 0.98008,0.25976 1.48454,0.39286 0.11424,1.75632 0.11422,1.75495 0.0719,3.66726 -1.25213,1.2479 -1.25256,1.24801 -2.88533,1.3947 z"
     style="fill:#ffffff;fill-opacity:1" />
  <path
     id="path3-8-4"
     style="fill:#ffffff;fill-opacity:1;stroke-width:0.945839"
     d="M 71.837891,24.240234 C 61.233406,23.888132 47.208416,39.719391 41.041016,47.291016 c -0.413488,0.516846 -1.276609,0.541505 0.202804,6.443649 3.077021,-7.438313 14.007682,-11.649714 21.448534,-3.891702 -0.177018,-1.077346 -1.755731,-1.331324 -1.92087,-2.417182 3.717821,0 3.717112,3.69e-4 6.101563,-0.441406 1.34074,-0.308542 1.340094,-0.308897 2.654297,-0.611328 1.457628,-0.332268 1.45796,-0.332508 2.886718,-0.658203 1.018414,-0.236498 2.007637,-0.465773 2.996094,-0.695313 3.486358,-0.79799 6.971006,-1.597596 10.455078,-2.40625 0,-3.255329 9.68e-4,-3.254124 -3.074218,-6.83789 -0.534512,-0.619992 -1.053481,-1.222457 -1.572266,-1.824219 -0.682639,-0.855211 -1.345241,-1.685575 -2.007812,-2.515625 -0.739419,-0.903789 -1.458102,-1.780998 -2.175782,-2.658203 -2.062228,-2.549153 -2.06132,-2.54871 -4.18164,-4.451172 -0.334583,-0.04586 -0.673545,-0.07458 -1.015625,-0.08594 z m -8.832498,36.901427 c -3.689794,5.97245 -14.088954,11.362104 -15.508584,10.890859 5.662409,20.465523 10.912659,41.5954 16.585222,57.26826 2.054532,5.69063 4.08262,11.14846 7.304688,16.26758 11.490417,15.3451 32.303041,19.67871 49.798831,23.13476 v -1.92578 c -0.81596,-0.71714 -1.60843,-1.41331 -2.40039,-2.10937 -10.52015,-8.7365 -20.556021,-20.78827 -27.648441,-32.68555 -0.419714,-0.73536 -0.827013,-1.45032 -1.234375,-2.16406 -0.809406,-1.41265 -1.612535,-2.82825 -2.410156,-4.24805 -0.684165,-1.31971 -1.384751,-2.63101 -2.105469,-3.92969 C 79.946107,114.25855 76.41274,106.57932 73.90625,97.664062 68.938994,84.708261 65.627167,74.564077 63.005393,61.141661 Z"
     sodipodi:nodetypes="ccccccccccccccccccccccccccccc" />
</svg>
