<?xml version="1.0" encoding="UTF-8"?>
<svg version="1.1" xmlns="http://www.w3.org/2000/svg" width="250" height="250">
<path d="M0 0 C33.12784356 -0.95130632 64.2742574 12.4851658 88.31640625 34.7578125 C111.66865297 57.43535546 125.29824314 87.69022918 126.10400391 120.30639648 C126.36435616 155.20873489 113.34011309 186.51968071 89 211.43359375 C65.97551909 234.14839986 33.91399241 246.41095169 1.73413086 246.36816406 C-27.02869253 245.86067584 -54.3687422 235.76146148 -76.25 217.12109375 C-76.76401367 216.69070801 -77.27802734 216.26032227 -77.80761719 215.81689453 C-101.23031197 196.03887079 -114.80186651 168.18705272 -119.25 138.12109375 C-121.39466626 100.15310561 -112.28285362 68.38188014 -87.1875 39.30859375 C-75.41022506 26.44808608 -61.05446331 17.22159014 -45.25 10.12109375 C-44.18265625 9.63769531 -43.1153125 9.15429688 -42.015625 8.65625 C-28.73020789 3.10941976 -14.3021696 0.76973482 0 0 Z " fill="#7D8FD3" transform="translate(122.25,1.87890625)"/>
<path d="M0 0 C18.86602637 3.96980515 32.72691669 14.92190814 43.10546875 30.7421875 C45.95551878 35.64309828 48.03597859 40.69296341 50 46 C55.65636742 61.07099238 62.68973546 69.16203771 77.3125 76.1875 C84.74431924 79.29632205 92.69005998 81.47077378 100.625 82.8125 C107.69215039 84.30445397 113.74138703 88.8513076 119.68359375 92.76953125 C130.31539985 99.76788207 141.17178989 105.27694083 153.76953125 107.59033203 C156.62069903 108.11400317 159.46623655 108.66514872 162.3125 109.21484375 C165.77773646 109.88390225 169.24332485 110.54953432 172.7121582 111.19970703 C181.83533929 112.9170597 181.83533929 112.9170597 186.07421875 114.11328125 C191.1366485 115.43331097 196.29523983 115.46107055 201.5 115.625 C202.51320312 115.66367188 203.52640625 115.70234375 204.5703125 115.7421875 C207.04670284 115.83563619 209.52310151 115.92139873 212 116 C210.50656838 121.44787029 206.7726103 124.76409036 202.875 128.625 C201.80572266 129.68460937 201.80572266 129.68460937 200.71484375 130.765625 C177.56566068 153.1418125 146.10516917 165.28977973 113.98413086 165.24707031 C85.22130747 164.73958209 57.8812578 154.64036773 36 136 C35.48598633 135.56961426 34.97197266 135.13922852 34.44238281 134.69580078 C11.01968803 114.91777704 -2.55186651 87.06595897 -7 57 C-8.11589455 37.24481852 -7.2416924 18.55035244 0 0 Z " fill="#4B321B" transform="translate(10,83)"/>
<path d="M0 0 C2.28125 1.9765625 2.28125 1.9765625 4.5 4.625 C5.27214844 5.53636719 6.04429688 6.44773437 6.83984375 7.38671875 C7.55269531 8.24910156 8.26554687 9.11148437 9 10 C9.55816406 10.62519531 10.11632812 11.25039063 10.69140625 11.89453125 C14 15.61787749 14 15.61787749 14 19 C10.25149397 19.84015157 6.50097168 20.67093219 2.75 21.5 C1.68652344 21.73847656 0.62304688 21.97695313 -0.47265625 22.22265625 C-2.00986328 22.56103516 -2.00986328 22.56103516 -3.578125 22.90625 C-4.99206543 23.22045898 -4.99206543 23.22045898 -6.43457031 23.54101562 C-9 24 -9 24 -13 24 C-10.14210462 42.14647394 -5.65139682 59.10816181 1.1328125 76.1953125 C2.93324045 80.74171688 4.50704268 85.34449646 6 90 C5.01 90.66 4.02 91.32 3 92 C3.33 93.65 3.66 95.3 4 97 C5.58554688 97.02513672 5.58554688 97.02513672 7.203125 97.05078125 C11 98 11 98 13.484375 101.10546875 C14.25979938 102.45472735 15.01390491 103.81638886 15.75 105.1875 C16.60816139 106.66260896 17.47290652 108.13390482 18.34375 109.6015625 C18.78203125 110.3430957 19.2203125 111.08462891 19.671875 111.84863281 C27.30261096 124.20930289 38.09935145 136.73181217 49.41796875 145.80859375 C50.27003906 146.53175781 51.12210937 147.25492188 52 148 C52 148.66 52 149.32 52 150 C33.17629703 146.40935146 10.78440655 141.9076134 -1.578125 125.96484375 C-5.04473675 120.64633152 -7.22702584 114.97477181 -9.4375 109.0625 C-16.07939643 91.34168019 -27.23713035 77.34352496 -44.625 69.25 C-49.03139513 67.35079982 -53.48366645 65.61906297 -58 64 C-53.19331986 49.67657626 -45.85660292 37.43852684 -36 26 C-35.41476563 25.29359375 -34.82953125 24.5871875 -34.2265625 23.859375 C-27.37701147 15.73909278 -11.51928434 -1.52461116 0 0 Z " fill="#A8B8FC" transform="translate(68,19)"/>
<path d="M0 0 C3.76381862 1.50721148 5.58463482 3.64916931 8.0625 6.8125 C8.84753906 7.79863281 9.63257812 8.78476562 10.44140625 9.80078125 C10.85664551 10.32365723 11.27188477 10.8465332 11.69970703 11.38525391 C13.91378574 14.13476885 16.20983146 16.81385651 18.5 19.5 C19.88365537 21.13326642 21.26590164 22.76771676 22.64794922 24.40234375 C23.54146366 25.45816869 24.43629812 26.51287811 25.33251953 27.56640625 C26.58228845 29.03882703 27.82258742 30.51926973 29.0625 32 C29.77535156 32.845625 30.48820312 33.69125 31.22265625 34.5625 C32.98591314 36.98068088 34.02860032 39.18143098 35 42 C33.4176994 42.33820166 31.83410625 42.67035939 30.25 43 C29.36828125 43.185625 28.4865625 43.37125 27.578125 43.5625 C25 44 25 44 21 44 C25.96477802 65.3118285 32.48854704 85.15223602 47 102 C47.57878906 102.721875 48.15757812 103.44375 48.75390625 104.1875 C65.42459518 124.23409045 91.77734637 134.69600008 115 145 C115.36015072 148.24135644 115.26427779 149.62110952 113.36914062 152.33813477 C111 154 111 154 108.24023438 154.14428711 C99.781546 152.65377801 92.33205244 150.05504897 84.5 146.5625 C83.36046875 146.07201172 82.2209375 145.58152344 81.046875 145.07617188 C67.90857438 139.36286157 67.90857438 139.36286157 65 135 C62.66976758 134.32257417 60.3359694 133.65737041 58 133 C29.12586026 116.47454895 10.61443459 87.5369644 2 56 C1.62716123 53.67265241 1.28246935 51.3400356 1 49 C-3.95 49.495 -3.95 49.495 -9 50 C-12.45603272 38.24948875 -12.45603272 38.24948875 -10.4375 33.5 C-7.86068765 26.93676019 -6.00115889 20.2209034 -4.10717773 13.4375 C-2.84223495 8.91692586 -1.54012552 4.43702829 0 0 Z " fill="#A8B8FD" transform="translate(111,46)"/>
<path d="M0 0 C6.42399907 0.13327799 11.01170227 0.63774696 16.15234375 4.8359375 C17.89412312 6.96311058 17.93295302 8.02537152 17.76171875 10.74609375 C17.31928442 13.84816173 16.82473951 15.17858293 14.60546875 17.4296875 C13.02553074 18.61200778 11.41449722 19.75373654 9.77734375 20.85546875 C7.60467309 22.42878199 6.47474025 23.72875853 5.01171875 25.93359375 C2.29721437 28.71596074 1.76091952 28.96275976 -1.92578125 29.18359375 C-6.9334188 28.83305912 -9.14171009 27.16915965 -12.48828125 23.49609375 C-13.91015625 21.26171875 -13.91015625 21.26171875 -14.48828125 18.49609375 C-13.20482451 15.87207096 -11.97247176 13.7829293 -10.30078125 11.43359375 C-9.88763672 10.82193359 -9.47449219 10.21027344 -9.04882812 9.58007812 C-8.24357141 8.39587707 -7.42467972 7.22080883 -6.59106445 6.05639648 C-5.68160086 4.76961724 -4.84048899 3.43481707 -4.01953125 2.08984375 C-2.48828125 0.49609375 -2.48828125 0.49609375 0 0 Z " fill="#4B331D" transform="translate(32.48828125,46.50390625)"/>
<path d="M0 0 C3.32745678 0.18149764 5.98260782 0.33343271 8.8125 2.1875 C10 4 10 4 10.875 6.75 C11.9109944 9.74287271 12.75131595 11.06394104 14.6875 13.4375 C16.87984467 16.34769204 17 16.89533084 17 20.8125 C16 24 16 24 13 26 C6.40931332 26.53801524 -0.86828765 25.86411449 -6.625 22.4375 C-8.79008956 18.59938669 -8.92808121 15.28555148 -8 11 C-5.8889214 6.85507737 -3.28568762 3.28568762 0 0 Z " fill="#4C3420" transform="translate(85,74)"/>
<path d="M0 0 C5.97771725 0.66419081 9.77372583 3.93779742 13.6484375 8.4140625 C15.59518297 11.46986296 15.3292903 13.91138734 14.9375 17.4375 C11.21562704 19.91874864 8.24873273 19.80482877 3.9375 19.8125 C3.21304688 19.83699219 2.48859375 19.86148438 1.7421875 19.88671875 C-3.54184649 19.91596617 -3.54184649 19.91596617 -6.0390625 17.62109375 C-7.78942112 13.88654998 -7.69460189 10.37211489 -6.41796875 6.46484375 C-3.95892467 0.56556067 -3.95892467 0.56556067 0 0 Z " fill="#4C3522" transform="translate(106.0625,122.5625)"/>
<path d="M0 0 C2 1 2 1 3.4375 3.4375 C4.89664045 6.2355972 4.89664045 6.2355972 8 8 C10.32387947 8.39387788 12.65793749 8.73486085 15 9 C14.01 9.33 13.02 9.66 12 10 C12.2172876 10.5347998 12.4345752 11.06959961 12.65844727 11.62060547 C13.63446735 14.03559252 14.5985998 16.45515151 15.5625 18.875 C16.07586914 20.13763672 16.07586914 20.13763672 16.59960938 21.42578125 C16.91865234 22.23144531 17.23769531 23.03710938 17.56640625 23.8671875 C17.86490479 24.61081543 18.16340332 25.35444336 18.47094727 26.12060547 C19 28 19 28 18 30 C17.48953125 29.62488281 16.9790625 29.24976562 16.453125 28.86328125 C10.31194823 24.54050257 3.98780862 21.69362455 -3 19 C-4.66729426 18.33490447 -6.33417323 17.66876257 -8 17 C-7.23723405 14.91369947 -6.46445843 12.8310568 -5.6875 10.75 C-5.25824219 9.58984375 -4.82898438 8.4296875 -4.38671875 7.234375 C-3.17401435 4.4058701 -1.97057026 2.33463456 0 0 Z " fill="#7B8DCE" transform="translate(18,66)"/>
<path d="M0 0 C2.625 0.375 2.625 0.375 4.46777344 2.24389648 C6.81116065 4.55890633 8.74825716 5.56552028 11.765625 6.84765625 C12.75433594 7.27240234 13.74304688 7.69714844 14.76171875 8.13476562 C15.78910156 8.56466797 16.81648438 8.99457031 17.875 9.4375 C18.88691406 9.87126953 19.89882812 10.30503906 20.94140625 10.75195312 C26.45504667 13.10115011 31.99492309 15.32096476 37.625 17.375 C37.625 17.705 37.625 18.035 37.625 18.375 C29.09945568 18.69277549 21.32545085 17.87170445 13 16.0625 C11.92621094 15.84916016 10.85242188 15.63582031 9.74609375 15.41601562 C8.72386719 15.20009766 7.70164063 14.98417969 6.6484375 14.76171875 C5.27051025 14.47107544 5.27051025 14.47107544 3.86474609 14.17456055 C1.625 13.375 1.625 13.375 -0.375 10.375 C-2.42503955 9.18267387 -2.42503955 9.18267387 -4.375 8.375 C-4.5 5.5 -4.5 5.5 -4.375 2.375 C-2.375 0.375 -2.375 0.375 0 0 Z " fill="#7A8BCA" transform="translate(174.375,180.625)"/>
<path d="M0 0 C2.4375 0.1875 2.4375 0.1875 3.4375 1.1875 C3.625 4.125 3.625 4.125 3.4375 7.1875 C1.4375 9.1875 1.4375 9.1875 -1.125 9.375 C-3.5625 9.1875 -3.5625 9.1875 -4.5625 8.1875 C-4.75 5.25 -4.75 5.25 -4.5625 2.1875 C-2.5625 0.1875 -2.5625 0.1875 0 0 Z " fill="#4E3726" transform="translate(174.5625,180.8125)"/>
<path d="M0 0 C2.33294775 -0.04241723 4.66702567 -0.04092937 7 0 C8 1 8 1 8.125 3.5 C8 6 8 6 7 7 C4.0625 7.25 4.0625 7.25 1 7 C-1 4 -1 4 -0.625 1.8125 C-0.41875 1.214375 -0.2125 0.61625 0 0 Z " fill="#503B2A" transform="translate(71,110)"/>
<path d="M0 0 C0.78375 0.04125 1.5675 0.0825 2.375 0.125 C3.0625 2.4375 3.0625 2.4375 3.375 5.125 C2.25 6.9375 2.25 6.9375 0.375 8.125 C-2.3125 8.3125 -2.3125 8.3125 -4.625 8.125 C-4.75 5.25 -4.75 5.25 -4.625 2.125 C-2.625 0.125 -2.625 0.125 0 0 Z " fill="#503927" transform="translate(139.625,131.875)"/>
<path d="M0 0 C3.98381075 2.16264012 6.88983545 4.71211176 10 8 C5.89041233 6.54955729 2.56741255 4.48889248 -1 2 C-0.67 1.34 -0.34 0.68 0 0 Z " fill="#919DD4" transform="translate(120,168)"/>
</svg>
