<?xml version="1.0" encoding="UTF-8" standalone="no"?>
<!-- Created with Inkscape (http://www.inkscape.org/) -->

<svg
   width="512"
   height="512"
   viewBox="0 0 512 512"
   version="1.1"
   id="svg1"
   xml:space="preserve"
   xmlns:xlink="http://www.w3.org/1999/xlink"
   xmlns="http://www.w3.org/2000/svg"
   xmlns:svg="http://www.w3.org/2000/svg"><defs
     id="defs1"><linearGradient
       id="linearGradient15"><stop
         style="stop-color:#2b1a0a;stop-opacity:1;"
         offset="0"
         id="stop14" /><stop
         style="stop-color:#45260c;stop-opacity:1;"
         offset="1"
         id="stop15" /></linearGradient><linearGradient
       id="linearGradient12"><stop
         style="stop-color:#2b1a0a;stop-opacity:1;"
         offset="0"
         id="stop12" /><stop
         style="stop-color:#45260c;stop-opacity:1;"
         offset="1"
         id="stop13" /></linearGradient><linearGradient
       xlink:href="#linearGradient12"
       id="linearGradient13"
       x1="86.174507"
       y1="93.919846"
       x2="86.127411"
       y2="75.383812"
       gradientUnits="userSpaceOnUse" /><linearGradient
       xlink:href="#linearGradient15"
       id="linearGradient14"
       gradientUnits="userSpaceOnUse"
       x1="86.174507"
       y1="93.919846"
       x2="86.127411"
       y2="75.383812"
       gradientTransform="translate(-7.9576259,47.673446)" /><linearGradient
       xlink:href="#linearGradient15"
       id="linearGradient1"
       gradientUnits="userSpaceOnUse"
       gradientTransform="translate(-7.9576259,47.673446)"
       x1="86.174507"
       y1="93.919846"
       x2="86.127411"
       y2="75.383812" /></defs><g
     id="layer1"
     style="display:inline"
     transform="matrix(2.52,0,0,2.52,4,4)"><circle
       style="display:inline;fill:#b97d55;fill-opacity:1;stroke-width:0.264102"
       id="path1"
       cx="100"
       cy="100"
       r="100" /><path
       style="display:inline;fill:#45260c;fill-opacity:1"
       d="m 44.765625,141.76897 c -3.968068,-0.35178 -8.420382,-2.41914 -11.611634,-5.39167 -1.312328,-1.22238 -3.037792,-3.31811 -3.857116,-4.68481 -1.862695,-3.10714 -2.956263,-6.17243 -3.530341,-9.89561 -0.903921,-5.86239 0.41832,-12.47515 3.498112,-17.49469 1.142247,-1.86167 3.568429,-4.563293 5.422854,-6.038499 1.152778,-0.917042 3.511489,-2.267423 4.859902,-2.782334 2.954494,-1.128214 4.961889,-1.41573 9.897312,-1.417575 l 3.429088,-0.0013 -0.474628,-0.507812 c -2.51151,-2.687105 -4.578452,-6.939035 -5.563778,-11.445313 -0.297348,-1.359891 -0.34165,-2.03863 -0.34165,-5.234375 0,-3.195745 0.0443,-3.874484 0.34165,-5.234375 1.098101,-5.022041 3.19403,-9.094148 6.332934,-12.304032 3.119943,-3.190494 6.203406,-4.965251 10.323438,-5.941889 l 1.430107,-0.339001 34.609375,-0.05117 c 23.09683,-0.03415 35.07715,0.0024 36.01562,0.110016 3.06907,0.351779 6.16267,1.488481 8.77608,3.224652 1.93929,1.288331 4.71135,4.094199 6.04927,6.123041 3.15464,4.783773 4.66334,10.741838 4.17384,16.483071 -0.20651,2.42214 -0.47453,3.775058 -1.21493,6.132812 -0.90472,2.881039 -2.69974,6.177077 -4.4674,8.203125 l -0.61346,0.703125 4.19518,0.09765 c 4.58571,0.106737 5.79876,0.270469 8.15045,1.100105 3.14173,1.108352 5.64882,2.728793 8.04928,5.202588 0.9833,1.01336 2.10036,2.38134 2.55906,3.13394 2.02119,3.31616 2.61604,4.68281 3.53515,8.12197 0.97717,3.65641 0.98021,8.90615 0.007,12.65625 -1.01926,3.92888 -2.51767,6.9813 -4.83223,9.84374 -3.03944,3.75892 -6.88687,6.15096 -11.86895,7.37924 -1.02303,0.25221 -4.63523,0.27044 -56.87366,0.28693 -30.679693,0.01 -56.062505,-0.007 -56.406255,-0.0378 z"
       id="path6" /><path
       style="display:inline;fill:#f6ac59;fill-opacity:1"
       d="m 110.625,140.84395 c -8.06605,-1.13357 -14.734477,-7.56111 -16.845423,-15.28972 -3.891686,-11.69109 1.773872,-26.142804 13.639333,-29.819285 8.77398,-3.126774 18.60112,2.089332 22.89359,10.358805 6.42969,11.57434 2.38587,27.40375 -9.50524,33.06709 -3.16156,1.64603 -6.69758,1.84413 -10.18226,1.68311 z m 40.9742,-0.14043 c -9.17895,-1.56002 -15.9265,-10.29129 -16.91893,-19.06348 -1.8415,-11.14573 4.46796,-23.806893 16.19539,-26.258837 9.10719,-1.905506 17.6539,3.395286 21.29378,11.010257 5.65563,11.08435 2.49907,25.58177 -8.0544,31.89852 -4.0983,2.39943 -8.16108,3.1466 -12.51584,2.41354 z M 131.04589,99.640025 c -11.35061,-1.760868 -18.31017,-13.083509 -17.36746,-23.770583 -0.0816,-10.726888 6.7606,-20.241774 17.7529,-21.822751 9.39648,-1.252359 17.55516,4.860499 20.7464,13.01381 4.3951,10.208047 1.3179,23.56007 -8.16602,29.746504 -3.74555,2.45254 -7.15714,3.533615 -12.96582,2.83302 z"
       id="path12" /><path
       id="path15"
       style="display:inline;fill:url(#linearGradient1);stroke-width:0.79375;stroke-linecap:round"
       d="m 133.36157,123.22971 c 0.56445,0.002 0.53723,0.0234 0.98929,0 0.98989,4.81908 1.74903,5.81037 3.91401,9.40244 2.16499,3.59207 8.86549,9.14891 15.42441,9.13847 -6.79707,0.0115 -32.62795,-2.8e-4 -40.12115,0 8.40685,-0.15096 13.66085,-5.59135 16.06424,-9.33379 2.4034,-3.74244 2.5884,-4.44207 3.7292,-9.20712 z" /><path
       id="path13"
       style="fill:url(#linearGradient14);stroke-width:0.79375;stroke-linecap:round"
       d="m 26.020126,123.22971 c 8.910108,0.0238 57.096135,0.0271 66.509651,0 0.989896,4.81908 1.749033,5.81037 3.914017,9.40244 2.164985,3.59207 8.865486,9.14891 15.424406,9.13847 -6.79707,0.0115 -59.581587,-2.8e-4 -67.074787,0 -8.467183,-0.85058 -13.177216,-6.68238 -15.021645,-9.33379 -1.84443,-2.65141 -3.11876,-5.98636 -3.751642,-9.20712 z" /><path
       id="rect12"
       style="display:inline;fill:url(#linearGradient13);stroke-width:0.79375;stroke-linecap:round"
       d="m 46.513508,75.556267 c 8.910108,0.02383 57.113032,0.02705 66.526542,0 0.0158,4.616929 -0.20381,5.628077 1.06655,9.402436 1.27037,3.774359 2.30957,5.540229 5.24165,9.138476 -6.79707,0.01152 -59.104011,-2.8e-4 -66.597211,0 -1.997996,-2.340713 -3.883921,-5.205308 -5.20316,-9.349196 -1.31924,-4.143889 -1.012809,-5.075307 -1.034371,-9.191716 z" /></g></svg>
