<?xml version="1.0" encoding="UTF-8" standalone="no"?>
<svg
   version="1.1"
   width="800"
   height="800"
   id="svg10"
   xml:space="preserve"
   sodipodi:docname="CellGermination.svg"
   inkscape:version="1.4.4 (dcaf3e7, 2026-05-05)"
   xmlns:inkscape="http://www.inkscape.org/namespaces/inkscape"
   xmlns:sodipodi="http://sodipodi.sourceforge.net/DTD/sodipodi-0.dtd"
   xmlns="http://www.w3.org/2000/svg"
   xmlns:svg="http://www.w3.org/2000/svg"><sodipodi:namedview
     id="namedview1"
     pagecolor="#000000"
     bordercolor="#000000"
     borderopacity="0.25"
     inkscape:showpageshadow="2"
     inkscape:pageopacity="0.0"
     inkscape:pagecheckerboard="0"
     inkscape:deskcolor="#d1d1d1"
     inkscape:zoom="0.39755946"
     inkscape:cx="827.54917"
     inkscape:cy="179.84731"
     inkscape:window-width="1920"
     inkscape:window-height="1017"
     inkscape:window-x="-8"
     inkscape:window-y="-8"
     inkscape:window-maximized="1"
     inkscape:current-layer="g4" /><defs
     id="defs10" /><g
     id="g11"
     transform="matrix(1.1570723,0,0,1.1570723,-50.482317,-109.28016)"
     style="stroke-width:8.6425;stroke-dasharray:none"><g
       id="g10"
       transform="matrix(0.65076495,0.65076495,-0.65076495,0.65076495,419.94665,-127.01646)"
       style="stroke-width:18.78150313;stroke-dasharray:none"><g
         id="g1"
         transform="matrix(-0.0010578,-1.9832441,1.9832441,0.0010578,-457.2398,1272.076)"
         style="stroke-width:14.1183;stroke-dasharray:none"><g
           id="g3"
           transform="matrix(0.999106,1.0309553e-5,1.0309553e-5,0.999106,0.36210353,0.38791341)"
           style="stroke-width:14.2178;stroke-dasharray:none"><g
             id="g4"
             transform="translate(5.6687336e-4,-0.11117847)"
             style="stroke-width:14.21785006;stroke-dasharray:none"><g
               id="g13"
               transform="matrix(0.99427266,-7.3473185e-6,-7.3473185e-6,0.99427266,1.2720681,184.22363)"
               style="stroke-width:14.29974959;stroke-dasharray:none"><path
                 style="fill:none;fill-opacity:0.752941;stroke:#ffffff;stroke-width:14.29974959;stroke-miterlimit:100;stroke-dasharray:none;stroke-dashoffset:2.04596;stroke-opacity:1"
                 id="path12"
                 d="m 262.31564,336.62586 c -16.13345,-0.11888 -20.19667,-13.35823 -34.10923,-21.5279 -13.91253,-8.16969 -27.45399,-5.26809 -35.41776,-19.29952 -7.96378,-14.03141 1.47021,-24.16996 1.5891,-40.30341 0.11886,-16.13345 -9.16471,-26.4099 -0.99503,-40.32245 8.16968,-13.91253 21.6669,-10.81173 35.69832,-18.77551 14.03141,-7.96376 18.2893,-21.14181 34.42275,-21.02292 16.13345,0.11886 20.19669,13.35822 34.10924,21.5279 13.91255,8.16967 27.45399,5.26809 35.41777,19.2995 7.96378,14.03142 -1.47023,24.16996 -1.5891,40.30341 -0.11887,16.13344 9.16469,26.40992 0.99502,40.32245 -8.16967,13.91254 -21.6669,10.81174 -35.69832,18.7755 -14.03141,7.96378 -18.28929,21.14182 -34.42276,21.02295 z" /><circle
                 style="fill:#ffffff;fill-opacity:1;stroke:#ffffff;stroke-width:14.29974959;stroke-miterlimit:100;stroke-dasharray:none;stroke-dashoffset:2.04596;stroke-opacity:1"
                 id="path13"
                 cx="262.90973"
                 cy="256"
                 r="24.479204" /></g><g
               id="g2"
               style="stroke-width:14.29974959;stroke-dasharray:none"
               transform="matrix(0.99427266,-7.3473185e-6,-7.3473185e-6,0.99427266,0.70296312,2.6256693)"><g
                 id="g13-8"
                 transform="matrix(0.85541346,0,0,0.85541346,338.71161,219.65817)"
                 style="fill:none;stroke-width:16.71676944;stroke-dasharray:none"><path
                   style="fill:none;fill-opacity:0.752941;stroke:#ffffff;stroke-width:16.71676944;stroke-miterlimit:100;stroke-dasharray:none;stroke-dashoffset:2.04596;stroke-opacity:1"
                   id="path12-5"
                   d="m 262.31564,336.62586 c -16.13345,-0.11888 -20.19667,-13.35823 -34.10923,-21.5279 -13.91253,-8.16969 -27.45399,-5.26809 -35.41776,-19.29952 -7.96378,-14.03141 1.47021,-24.16996 1.5891,-40.30341 0.11886,-16.13345 -9.16471,-26.4099 -0.99503,-40.32245 8.16968,-13.91253 21.6669,-10.81173 35.69832,-18.77551 14.03141,-7.96376 18.2893,-21.14181 34.42275,-21.02292 16.13345,0.11886 20.19669,13.35822 34.10924,21.5279 13.91255,8.16967 27.45399,5.26809 35.41777,19.2995 7.96378,14.03142 -1.47023,24.16996 -1.5891,40.30341 -0.11887,16.13344 9.16469,26.40992 0.99502,40.32245 -8.16967,13.91254 -21.6669,10.81174 -35.69832,18.7755 -14.03141,7.96378 -18.28929,21.14182 -34.42276,21.02295 z" /><circle
                   style="fill:none;fill-opacity:1;stroke:#ffffff;stroke-width:16.71676944;stroke-miterlimit:100;stroke-dasharray:none;stroke-dashoffset:2.04596;stroke-opacity:1"
                   id="path13-7"
                   cx="262.90973"
                   cy="256"
                   r="24.479204" /></g><g
                 id="g13-8-8"
                 transform="matrix(0.85541346,0,0,0.85541346,105.7219,-59.47887)"
                 style="fill:none;stroke-width:16.71676944;stroke-dasharray:none"><path
                   style="fill:none;fill-opacity:0.752941;stroke:#ffffff;stroke-width:16.71676944;stroke-miterlimit:100;stroke-dasharray:none;stroke-dashoffset:2.04596;stroke-opacity:1"
                   id="path12-5-9"
                   d="m 436.43916,550.14134 c -16.13345,-0.11888 -20.19667,-13.35823 -34.10923,-21.5279 -13.91253,-8.16969 -27.45399,-5.26809 -35.41776,-19.29952 -7.96378,-14.03141 1.47021,-24.16996 1.5891,-40.30341 0.11886,-16.13345 -9.16471,-26.4099 -0.99503,-40.32245 8.16968,-13.91253 21.6669,-10.81173 35.69832,-18.77551 14.03141,-7.96376 18.2893,-21.14181 34.42275,-21.02292 16.13345,0.11886 20.19669,13.35822 34.10924,21.5279 13.91255,8.16967 27.45399,5.26809 35.41777,19.2995 7.96378,14.03142 -1.47023,24.16996 -1.5891,40.30341 -0.11887,16.13344 9.16469,26.40992 0.99502,40.32245 -8.16967,13.91254 -21.6669,10.81174 -35.69832,18.7755 -14.03141,7.96378 -18.28929,21.14182 -34.42276,21.02295 z" /><circle
                   style="fill:none;fill-opacity:1;stroke:#ffffff;stroke-width:16.71676944;stroke-miterlimit:100;stroke-dasharray:none;stroke-dashoffset:2.04596;stroke-opacity:1"
                   id="path13-7-2"
                   cx="437.03326"
                   cy="469.51547"
                   r="24.479204" /></g><g
                 id="g13-8-8-5"
                 transform="matrix(0.85541346,0,0,0.85541346,254.6695,316.15119)"
                 style="fill:none;stroke-width:16.71676944;stroke-dasharray:none"><path
                   style="fill:none;fill-opacity:0.752941;stroke:#ffffff;stroke-width:16.71676944;stroke-miterlimit:100;stroke-dasharray:none;stroke-dashoffset:2.04596;stroke-opacity:1"
                   id="path12-5-9-4"
                   d="m 262.31564,336.62586 c -16.13345,-0.11888 -20.19667,-13.35823 -34.10923,-21.5279 -13.91253,-8.16969 -27.45399,-5.26809 -35.41776,-19.29952 -7.96378,-14.03141 1.47021,-24.16996 1.5891,-40.30341 0.11886,-16.13345 -9.16471,-26.4099 -0.99503,-40.32245 8.16968,-13.91253 21.6669,-10.81173 35.69832,-18.77551 14.03141,-7.96376 18.2893,-21.14181 34.42275,-21.02292 16.13345,0.11886 20.19669,13.35822 34.10924,21.5279 13.91255,8.16967 27.45399,5.26809 35.41777,19.2995 7.96378,14.03142 -1.47023,24.16996 -1.5891,40.30341 -0.11887,16.13344 9.16469,26.40992 0.99502,40.32245 -8.16967,13.91254 -21.6669,10.81174 -35.69832,18.7755 -14.03141,7.96378 -18.28929,21.14182 -34.42276,21.02295 z" /><circle
                   style="fill:none;fill-opacity:1;stroke:#ffffff;stroke-width:16.71676944;stroke-miterlimit:100;stroke-dasharray:none;stroke-dashoffset:2.04596;stroke-opacity:1"
                   id="path13-7-2-3"
                   cx="262.90973"
                   cy="256"
                   r="24.479204" /></g></g><g
               id="g14"
               transform="matrix(-1.3280906,9.7885863e-6,-9.7885863e-6,1.3280906,1039.3167,118.33798)"
               style="stroke-width:10.70548204;stroke-dasharray:none"><path
                 sodipodi:type="star"
                 style="fill:#ffffff;stroke:#ffffff;stroke-width:10.70548204;stroke-miterlimit:100;stroke-dasharray:none;stroke-dashoffset:2.04596"
                 id="path1"
                 inkscape:flatsided="false"
                 sodipodi:sides="3"
                 sodipodi:cx="458.92242"
                 sodipodi:cy="227.49373"
                 sodipodi:r1="22.16222"
                 sodipodi:r2="11.08111"
                 sodipodi:arg1="1.0471976"
                 sodipodi:arg2="2.0943951"
                 inkscape:rounded="-2.4286129e-17"
                 inkscape:randomized="0"
                 d="m 470.00353,246.68677 -16.62166,-9.59652 -16.62167,-9.59652 16.62167,-9.59652 16.62167,-9.59653 -10e-6,19.19305 z"
                 inkscape:transform-center-y="-6.287424"
                 transform="translate(2.9807892,13.763723)" /><rect
                 style="fill:#ffffff;stroke:#ffffff;stroke-width:8.02911153;stroke-miterlimit:100;stroke-dasharray:none;stroke-dashoffset:2.04596"
                 id="rect1"
                 width="8.1708403"
                 height="39.188202"
                 x="237.18018"
                 y="478.04504"
                 transform="matrix(0,1,1,0,0,0)" /></g></g></g></g></g></g></svg>
