<?xml version="1.0" encoding="UTF-8"?>
<svg version="1.1" xmlns="http://www.w3.org/2000/svg" width="512" height="512">
<path d="M0 0 C8.26560646 4.52715468 13.86933836 10.45189905 17 19.4375 C17 20.7575 17 22.0775 17 23.4375 C39.11 23.1075 61.22 22.7775 84 22.4375 C84.99 19.4675 85.98 16.4975 87 13.4375 C91.60420482 6.46999168 97.81067048 0.6046231 106 -1.5625 C117.34912292 -2.83241194 126.11387296 -1.59413285 135.25 5.5625 C141.80124726 11.62992261 144.65642381 19.36975121 145.25 28.125 C145.08614595 36.82564984 141.96769458 44.15997026 136 50.4375 C130.66549896 55.40753203 127.4911955 56.56470112 120 58.4375 C120 80.5475 120 102.6575 120 125.4375 C123.96 126.4275 123.96 126.4275 128 127.4375 C135.66042781 131.48695174 141.18097241 138.26770471 143.875 146.4375 C146.14699206 155.30908806 145.34233007 163.56499483 140.74609375 171.640625 C135.99397562 178.4256656 130.05800837 183.28675139 122 185.4375 C111.1689259 186.51380966 102.75369652 185.81955603 93.98046875 178.828125 C88.63617054 173.9226218 85.74640375 168.42311499 84 161.4375 C50.835 160.9425 50.835 160.9425 17 160.4375 C16.67 162.7475 16.34 165.0575 16 167.4375 C12.49495043 175.14860904 6.00569457 181.35412433 -1.796875 184.6015625 C-9.64400728 186.64947263 -19.11602031 186.85231156 -26.5625 183.375 C-35.05068975 178.29635201 -39.90136483 171.73340552 -43 162.4375 C-43.83770813 151.87688434 -42.67405464 144.05664239 -36.875 135.1875 C-31.16822828 129.72884879 -25.80291745 126.73798624 -18 125.4375 C-18 103.3275 -18 81.2175 -18 58.4375 C-22.95 56.9525 -22.95 56.9525 -28 55.4375 C-35.19770487 50.72272433 -40.02575087 44.82000403 -42.5703125 36.59375 C-44.29986676 27.91453225 -43.43972233 20.04845257 -39 12.4375 C-38.443125 11.385625 -37.88625 10.33375 -37.3125 9.25 C-28.52933951 -1.43222222 -12.89498041 -5.25267558 0 0 Z M17 33.4375 C15.68 37.0675 14.36 40.6975 13 44.4375 C7.54833002 52.29804741 0.9561839 55.45210537 -8 58.4375 C-8 80.5475 -8 102.6575 -8 125.4375 C-4.37 126.7575 -0.74 128.0775 3 129.4375 C10.72511427 134.95543877 14.6987312 141.23242479 17 150.4375 C39.11 150.4375 61.22 150.4375 84 150.4375 C85.65 146.4775 87.3 142.5175 89 138.4375 C89.99 136.4575 89.99 136.4575 91 134.4375 C91.66 134.4375 92.32 134.4375 93 134.4375 C93 133.7775 93 133.1175 93 132.4375 C98.20683312 129.83408344 103.62638486 127.67650631 109 125.4375 C109 103.3275 109 81.2175 109 58.4375 C105.04 56.7875 101.08 55.1375 97 53.4375 C90.04692957 47.67948855 87.2968471 41.67961775 84 33.4375 C61.89 33.4375 39.78 33.4375 17 33.4375 Z " fill="#FCFCFC" transform="translate(206,164.5625)"/>
<path d="M0 0 C0.99 0.99 0.99 0.99 2 2 C1.70662644 5.4031333 1.23198096 8.69942591 0.6328125 12.05859375 C-0.14626667 16.93258904 0.0718081 20.44245551 2 25 C3.83178767 27.65021698 3.83178767 27.65021698 7 29 C11.91712136 29.52469283 16.59485544 29.28102891 21.4375 28.3125 C24 28 24 28 26.01953125 28.96875 C28.88772615 31.91048836 29.37321319 35.29947691 30.25 39.1875 C32.07497748 46.53576849 34.6149203 52.96329727 38.23339844 59.6081543 C41.37468779 65.40846356 43.81825724 71.09097892 42.73046875 77.796875 C41.49107371 81.53494345 39.17517814 84.55776225 36.9765625 87.796875 C33.5996052 93.26941449 31.23292427 99.19478823 28.78369141 105.12744141 C28.02343749 106.94399828 27.21935965 108.7420201 26.4140625 110.5390625 C24.5300832 115.15012786 23.43152685 119.86299307 22.2578125 124.6953125 C20.80394674 128.51509646 19.11839594 130.39656853 16 133 C6.29351913 136.23549362 -3.98597486 132.87273461 -12.88671875 128.62109375 C-13.79035156 128.16863281 -14.69398437 127.71617187 -15.625 127.25 C-21.13029114 124.6540744 -25.98258145 123.98582833 -32 125 C-36.98122563 127.29902722 -39.94583451 131.06292206 -43.2890625 135.29296875 C-45.2172735 137.21677744 -46.31405029 137.71726845 -49 138 C-51.25 137.0625 -51.25 137.0625 -53 136 C-53 135.34 -53 134.68 -53 134 C-56.52344767 132.1379502 -60.08346273 130.95892556 -63.87890625 129.78125 C-66.87943274 128.67608371 -68.6634671 127.66866477 -70.12011719 124.77441406 C-71.09034778 121.71511871 -71.61927571 118.78637759 -72.078125 115.609375 C-72.26656982 114.35390869 -72.45501465 113.09844238 -72.64916992 111.80493164 C-72.74684662 111.14333038 -72.84452332 110.48172913 -72.94515991 109.80007935 C-75.26336654 94.20991347 -78.51002993 78.95836211 -82.61083984 63.73193359 C-85.39970923 53.17389383 -84.62232434 43.54329243 -79.375 34 C-78.59254807 32.66123831 -77.80411238 31.32586469 -77 30 C-76.34 30 -75.68 30 -75 30 C-74.78085938 29.41089844 -74.56171875 28.82179687 -74.3359375 28.21484375 C-70.21832699 21.38827896 -59.41811908 18.21765019 -52.2890625 15.38671875 C-46.95411089 13.13742205 -41.82399332 10.48801209 -36.6640625 7.8671875 C-36.04063965 7.55289795 -35.4172168 7.2386084 -34.77490234 6.91479492 C-33.14869508 6.0766383 -31.549197 5.18717832 -29.953125 4.29296875 C-26.52877372 2.79368267 -23.85016149 2.56609689 -20.125 2.4375 C-16.0923181 2.23352873 -12.33625911 2.00687393 -8.4375 0.9375 C-5.39192649 0.10688904 -3.12105544 -0.36718299 0 0 Z M-36.68408203 19.63085938 C-40.09016096 21.644489 -43.61926856 23.38852552 -47.15478516 25.16186523 C-62.11446282 32.07744775 -62.11446282 32.07744775 -71.63671875 44.7890625 C-73.25053766 54.61079908 -71.85106595 64.01640772 -69.85546875 73.64453125 C-68.86262638 78.50553238 -68.17713997 83.39907892 -67.5 88.3125 C-66.50667008 95.44546116 -65.48229349 102.57123017 -64.375 109.6875 C-64.25189453 110.49550049 -64.12878906 111.30350098 -64.00195312 112.13598633 C-63.41742705 116.19025474 -63.41742705 116.19025474 -62 120 C-60.05329654 120.80124624 -60.05329654 120.80124624 -57.75 121.4375 C-54.15333913 122.56181504 -51.14241254 123.87126892 -48 126 C-47.6596875 125.52949219 -47.319375 125.05898437 -46.96875 124.57421875 C-43.33907037 119.91162497 -39.95463561 117.03999045 -34 116 C-23.30846037 114.93681896 -15.50308694 116.05910713 -6.90234375 122.59375 C-3.14717511 125.36964468 0.62502298 126.11201101 5.203125 126.05078125 C6.45609375 126.03402344 7.7090625 126.01726562 9 126 C9.29390625 124.77410156 9.5878125 123.54820312 9.890625 122.28515625 C12.61617088 111.58907111 16.19755842 101.69865719 21 91.75 C21.49790039 90.71625244 21.99580078 89.68250488 22.50878906 88.61743164 C24.87065776 83.85309239 27.31859342 79.45163098 30.4375 75.140625 C32.34969415 72.33849858 32.98537124 71.38424868 33.1171875 67.921875 C31.69777475 64.20956473 30.00215784 60.74955854 28.125 57.25 C25.03411977 51.30937205 22.51403013 45.56079723 21 39 C19.42412109 39.05220703 19.42412109 39.05220703 17.81640625 39.10546875 C9.90060049 39.28640145 3.40687268 39.174374 -4 36 C-4 35.34 -4 34.68 -4 34 C-4.66 34 -5.32 34 -6 34 C-8.86501253 26.65062002 -9.64775091 19.85879863 -10 12 C-21.23029239 10.44237383 -27.54199491 13.95574417 -36.68408203 19.63085938 Z " fill="#F7F7F7" transform="translate(107,101)"/>
<path d="M0 0 C7.68802764 3.36351209 12.7052638 11.48493576 15.703125 19.06640625 C16.4822855 21.14703214 17.22326818 23.23179943 17.921875 25.34082031 C19.69543767 30.63775524 21.82743992 35.19987879 26.1875 38.8125 C33.00345789 41.69034889 40.7237312 41.13671486 48 41 C50.09126359 44.76427447 50.7194237 48.35662455 51.4375 52.5625 C51.99463132 54.97673574 52.88954992 56.80204301 54 59 C54.125 61.9375 54.125 61.9375 53 65 C46.43446501 69.67558124 39.11026131 73.02781478 31.8659668 76.51123047 C29.83088148 77.49114909 27.80104949 78.4813646 25.77148438 79.47265625 C18.64742447 82.92840144 11.51087709 86.07729212 4.08178711 88.83789062 C1.03509799 89.98676492 -1.95680511 91.22612584 -4.953125 92.5 C-15.04686159 96.74162273 -25.41927173 100.25786304 -35.75341797 103.86230469 C-38.45829452 104.81017089 -41.15369866 105.77957611 -43.84765625 106.7578125 C-54.03669236 110.34761293 -64.8752158 112.45689957 -75.25 108.25 C-78.26885488 106.65813679 -80.35085 105.07841333 -82 102 C-79.69036315 99.41320673 -77.47129557 97.61973831 -74.4375 96 C-70.10820379 93.48113675 -68.53984253 91.91021203 -67.1875 87.125 C-66.88731371 82.12189515 -67.99324235 79.17455059 -71.25 75.375 C-73.96558431 72.90168289 -73.96558431 72.90168289 -77.25 71 C-80 69 -80 69 -81.0625 66.625 C-80.96287439 62.44072428 -78.92495685 59.59016554 -76.859375 56.0390625 C-72.51267817 48.41858767 -69.0478598 40.50637145 -66.4375 32.125 C-64.44779385 25.9891464 -61.80486366 21.97459174 -56 19 C-53.53468969 18.31828327 -51.1196431 17.7243181 -48.625 17.1875 C-34.06193805 13.77873176 -13.84849097 -1.98592127 0 0 Z M-9.25 15.125 C-22.03087043 22.46509297 -34.74089401 26.69815832 -49.05273438 29.99682617 C-50.55223633 30.34644409 -50.55223633 30.34644409 -52.08203125 30.703125 C-52.98155518 30.90583008 -53.8810791 31.10853516 -54.80786133 31.31738281 C-57.17950613 31.86957266 -57.17950613 31.86957266 -59 34 C-59.80973505 36.43213897 -60.54776299 38.84967283 -61.25 41.3125 C-63.50647125 48.91761184 -66.45726029 55.89017185 -70 63 C-69.25234375 63.73992187 -68.5046875 64.47984375 -67.734375 65.2421875 C-65.50515888 67.49051119 -63.34909411 69.75655311 -61.25 72.125 C-60.65703125 72.78757812 -60.0640625 73.45015625 -59.453125 74.1328125 C-56.42873821 78.01898693 -56.56012175 82.3341781 -56.56640625 87.06640625 C-57.18844127 91.27494947 -59.10681684 93.91914285 -61.6875 97.22265625 C-63.19801434 98.8999051 -63.19801434 98.8999051 -63 101 C-57.2218392 100.41305364 -51.92424547 99.31987773 -46.375 97.625 C-45.53525635 97.37024902 -44.6955127 97.11549805 -43.83032227 96.85302734 C-20.4395491 89.57219336 2.9734837 80.89991558 24.76171875 69.66015625 C26.97440871 68.52578565 29.20769798 67.43094909 31.45703125 66.37109375 C32.54371094 65.85675781 33.63039063 65.34242188 34.75 64.8125 C35.71421875 64.36519531 36.6784375 63.91789062 37.671875 63.45703125 C40.26346908 61.83511079 41.12715121 60.91133741 42 58 C41.2046876 54.29827466 41.2046876 54.29827466 40 51 C38.69675781 50.96132813 38.69675781 50.96132813 37.3671875 50.921875 C25.96642528 50.36076366 25.96642528 50.36076366 21 46 C19.96875 45.21625 18.9375 44.4325 17.875 43.625 C12.57270957 38.7837783 10.48904103 34.0542956 9.125 27.125 C7.74908951 20.93871384 6.14719585 15.1726601 1 11 C-3.13756832 11 -5.79757189 13.06653878 -9.25 15.125 Z " fill="#F6F6F6" transform="translate(336,367)"/>
<path d="M0 0 C5.08617267 3.94630399 6.39899311 8.21781724 8.1875 14.125 C15.09111462 35.06992974 26.27326465 51.66110029 42 67 C49.28537122 74.12347408 49.28537122 74.12347408 49.375 79.1875 C49.15193633 87.32276308 44.37749225 93.02856852 39.796875 99.4296875 C35.81696523 105.12268887 32.41885901 111.04328714 29.4375 117.3125 C26.02587317 124.22212395 20.89299869 128.64401478 14 132 C11.0625 132.375 11.0625 132.375 9 132 C8.67 131.67 8.34 131.34 8 131 C8.09290181 129.51656795 8.25116064 128.03711148 8.4375 126.5625 C9.68533002 117.09907825 9.68533002 117.09907825 7.6875 108 C5.97536603 105.78264147 5.97536603 105.78264147 3 104 C0.19606196 103.71950812 0.19606196 103.71950812 -2.875 103.8125 C-3.90367187 103.81894531 -4.93234375 103.82539063 -5.9921875 103.83203125 C-8.96471697 103.88225154 -8.96471697 103.88225154 -11.5703125 104.76171875 C-14 105 -14 105 -16.703125 103.50390625 C-19.59899924 100.34700934 -19.98152352 98.13423543 -20.75 93.9375 C-22.69857757 84.56058864 -26.7652143 76.41611289 -31.1237793 67.94433594 C-33.06385165 63.63931051 -33.32473663 59.70868112 -33 55 C-31.47736337 51.59846881 -29.66812905 48.41283965 -27.765625 45.21484375 C-21.92049674 35.34691239 -17.82614381 25.60695914 -14.47265625 14.64453125 C-9.57552657 -1.32076229 -9.57552657 -1.32076229 0 0 Z M-3 25 C-6.20529194 29.71890202 -8.37066145 35.02359816 -10.75 40.1875 C-13.91036968 47.00188339 -16.96849586 53.16914874 -21.91796875 58.8671875 C-23.6150333 62.21230391 -22.87631104 64.40526023 -22 68 C-20.86325839 70.87378889 -19.51551535 73.61662725 -18.125 76.375 C-15.29525583 82.16431038 -12.80502824 87.79521543 -11 94 C-9.9378125 93.95359375 -8.875625 93.9071875 -7.78125 93.859375 C1.57370404 93.57076472 8.09722812 93.48428906 15.375 100.1875 C17.27076778 103.46863655 17.90514414 106.39497001 18.5078125 110.109375 C18.67023438 110.73328125 18.83265625 111.3571875 19 112 C19.99 112.495 19.99 112.495 21 113 C21.30703857 112.40050537 21.61407715 111.80101074 21.93041992 111.18334961 C23.34376505 108.43177235 24.76555679 105.68464318 26.1875 102.9375 C26.67025391 101.99455078 27.15300781 101.05160156 27.65039062 100.08007812 C29.83705446 95.86818202 32.01602647 91.81365122 34.82421875 87.98046875 C37.12271653 85.2350617 37.12271653 85.2350617 37.625 82.375 C36.70204895 78.86778601 34.66678424 77.43982388 32 75 C30.15654818 72.87963481 28.34985254 70.73230648 26.55078125 68.57421875 C26.03902344 68.05472656 25.52726562 67.53523438 25 67 C24.34 67 23.68 67 23 67 C22.75507813 66.45085937 22.51015625 65.90171875 22.2578125 65.3359375 C20.73413647 62.50625345 18.86180063 60.15176735 16.875 57.625 C9.16940819 47.5778955 3.49980839 36.37460372 -2 25 C-2.33 25 -2.66 25 -3 25 Z " fill="#F7F7F7" transform="translate(397,279)"/>
<path d="M0 0 C0.98638962 0.00064957 0.98638962 0.00064957 1.9927063 0.00131226 C12.88462133 0.03998873 23.49947397 1.10371586 34.25 2.8125 C34.92727142 2.91900879 35.60454285 3.02551758 36.30233765 3.13525391 C46.8700972 4.83452734 55.5187298 7.40111557 64.6875 12.9375 C65.35007812 13.31970703 66.01265625 13.70191406 66.6953125 14.09570312 C69.33595078 15.67632909 71.50387784 17.0830067 73.34765625 19.57421875 C74.22170654 23.19528422 71.54207224 26.40700451 69.8125 29.5 C65.60333476 37.47205754 61.87786951 45.31234952 59.11767578 53.90625 C57.38334381 58.96007002 55.08457038 63.16938827 50.8125 66.5 C47.12471995 68.12588153 43.34855818 69.05942762 39.4375 70 C27.03170873 73.29653247 15.92771979 77.40795087 4.875 84 C0.65771781 86.35206743 -2.34769047 87.2901207 -7.12890625 86.29296875 C-14.66951403 83.38833236 -18.82844237 76.50898338 -22.1875 69.5 C-23.05224353 67.11532383 -23.88458195 64.71869708 -24.6875 62.3125 C-27.15936171 55.07010264 -29.7436053 50.77150502 -36.125 46.5625 C-41.08032085 44.69024077 -46.75740817 45.44112102 -51.95703125 45.6875 C-53.02308594 45.625625 -54.08914062 45.56375 -55.1875 45.5 C-57.17635403 42.51671896 -57.60821796 41.00198714 -58.1875 37.5625 C-58.76375345 34.15128536 -59.59919309 31.56133347 -61.1875 28.5 C-61.6875 25.5625 -61.6875 25.5625 -61.1875 22.5 C-56.93152618 18.38216443 -52.49831339 15.95517973 -47.125 13.5625 C-45.6106748 12.87240084 -44.09635191 12.18229663 -42.58203125 11.4921875 C-41.83775879 11.15670898 -41.09348633 10.82123047 -40.32666016 10.47558594 C-38.39558501 9.5948993 -36.48256196 8.68648585 -34.57421875 7.7578125 C-33.49785156 7.23960938 -32.42148438 6.72140625 -31.3125 6.1875 C-30.38695312 5.73761719 -29.46140625 5.28773437 -28.5078125 4.82421875 C-18.9867251 1.02698507 -10.22559324 -0.04900757 0 0 Z M-48.1875 25.5 C-49.86657839 28.85815678 -48.81796857 31.91268271 -48.1875 35.5 C-46.90166016 35.53867188 -46.90166016 35.53867188 -45.58984375 35.578125 C-34.58852835 36.12384978 -29.46280445 38.52053027 -21.9140625 46.43359375 C-18.34422246 50.70609461 -17.21142436 55.15157207 -16.25 60.5 C-15.16300087 66.45132025 -12.91281592 71.48348147 -8.1875 75.5 C-3.99749572 74.27602657 -0.44677531 72.62087625 3.31738281 70.47900391 C16.6975173 62.89354085 31.29577272 57.98076354 46.4140625 55.203125 C49.16555063 54.39649981 49.99717856 53.68021017 51.8125 51.5 C52.8033515 49.28521894 52.8033515 49.28521894 53.53125 46.7890625 C53.82386719 45.87382813 54.11648437 44.95859375 54.41796875 44.015625 C54.71316406 43.06171875 55.00835937 42.1078125 55.3125 41.125 C57.06539415 35.50655325 58.72034396 30.53418088 61.8125 25.5 C61.8125 24.18 61.8125 22.86 61.8125 21.5 C56.65024739 18.61947669 51.95703846 16.83893862 46.0625 16.0625 C44.48393516 15.83110599 42.90583889 15.59650164 41.328125 15.359375 C40.45994141 15.22982422 39.59175781 15.10027344 38.69726562 14.96679688 C35.46596549 14.4439257 32.25949083 13.83054689 29.046875 13.203125 C0.18189258 7.60228078 -23.52478743 7.77251638 -48.1875 25.5 Z " fill="#F7F7F7" transform="translate(185.1875,59.5)"/>
<path d="M0 0 C2.3125 1 2.3125 1 4 2 C4 2.66 4 3.32 4 4 C4.763125 4.226875 5.52625 4.45375 6.3125 4.6875 C9.37457728 5.77739191 12.19081818 6.9949579 15.125 8.375 C19.0896702 10.21978532 23.01279896 11.70167325 27.1875 13 C39.39072763 17.03608696 39.39072763 17.03608696 42.234375 22.2734375 C43.33239025 25.15361595 44.19585421 28.02429 45 31 C48.59761816 44.22324542 52.69296971 56.95708736 60 68.625 C63.50210661 74.34432399 63.50210661 74.34432399 63.0625 78 C62.1877135 80.46998542 61.3476034 82.75399434 60 85 C59.34 85 58.68 85 58 85 C57.505 86.485 57.505 86.485 57 88 C50.44715535 93.36951542 43.11987537 96.15561146 35.18359375 98.82421875 C30.00109288 100.73824668 26.29701084 102.89387258 23.328125 107.71484375 C21.80670511 111.47812059 21.75880658 114.08914365 21.9375 118.125 C22.24620712 125.48647757 22.24620712 125.48647757 20 129 C12.43199384 129.54057187 7.68741547 128.10519197 1.84765625 123.1875 C-4.54501452 117.07570228 -9.74694888 110.07818529 -15 103 C-15.49371094 102.38640625 -15.98742187 101.7728125 -16.49609375 101.140625 C-28.70118645 85.61414642 -32.49750262 64.20059284 -35.74023438 45.28100586 C-36.25144826 42.30406636 -36.78073648 39.3307522 -37.3125 36.35742188 C-41.61850465 11.98930397 -41.61850465 11.98930397 -41 7 C-39.00097656 4.6652832 -39.00097656 4.6652832 -37 3 C-36.52949219 3.55429687 -36.05898438 4.10859375 -35.57421875 4.6796875 C-34.95160156 5.40414063 -34.32898437 6.12859375 -33.6875 6.875 C-33.07261719 7.59429687 -32.45773438 8.31359375 -31.82421875 9.0546875 C-29.72284539 11.29555246 -28.0233165 12.85244313 -24.9140625 13.30078125 C-20.11424617 13.32535369 -16.7292053 13.32604797 -13 10 C-11.34547579 7.70434766 -9.81139144 5.37319237 -8.33203125 2.9609375 C-6.05431528 -0.39218103 -3.84463695 -0.27461693 0 0 Z M-2 11 C-4.60270668 13.67886161 -6.94142014 16.52970417 -9.33203125 19.3984375 C-12.69313134 22.67587917 -15.53806175 23.73733389 -20.16015625 24.23046875 C-23.89907392 24.14601681 -27.35317328 23.79004045 -31 23 C-29.73495216 36.89664488 -27.12659633 50.40771611 -24 64 C-23.83242188 64.72944824 -23.66484375 65.45889648 -23.4921875 66.21044922 C-19.12801917 84.59635753 -9.0687189 99.61142779 3.5 113.375 C4.01651123 113.940979 4.53302246 114.50695801 5.06518555 115.09008789 C6.3321618 116.43681718 7.66114866 117.72470173 9 119 C9.66 119 10.32 119 11 119 C11.06316406 118.16597656 11.12632813 117.33195312 11.19140625 116.47265625 C12.23568945 106.8762433 14.85912277 101.64106972 21.96875 95.22265625 C27.47151399 91.0237188 32.88798822 90.11604656 39.6015625 88.921875 C44.74387981 87.52694755 48.21747452 84.65243862 52 81 C51.48050781 79.97261719 50.96101563 78.94523437 50.42578125 77.88671875 C42.28205381 61.73424278 35.21274133 45.87323098 31.43139648 28.1027832 C30.47702429 23.77541661 30.47702429 23.77541661 27 21 C24.99355462 20.33024684 22.96991944 19.71122825 20.9375 19.125 C6.86802738 14.91201826 6.86802738 14.91201826 1 11 C0.01 11 -0.98 11 -2 11 Z " fill="#F6F6F6" transform="translate(84,255)"/>
<path d="M0 0 C11.59522552 7.21611643 23.64375789 12.12091228 36.83105469 15.65893555 C40.49137997 16.7071196 42.75708916 17.54656948 45.63671875 20.1171875 C49.04152187 26.42635024 48.02508554 34.66955703 46.13671875 41.39453125 C44.90352848 44.61304332 43.56272775 47.74295286 42.125 50.875 C38.94004534 58.13018426 36.9331641 63.27791869 39 71.25 C41.07699809 75.8255651 45.24921454 78.57089961 49.140625 81.56640625 C51.125 83.875 51.125 83.875 51.1171875 87 C49.94419793 90.39889892 48.36880227 91.50824982 45.3046875 93.30859375 C41.94242212 94.1823007 39.49000086 93.67670427 36.125 92.875 C33.82227058 91.48650558 31.84611009 90.14290549 29.75 88.5 C28.52068419 87.58134101 27.28880015 86.66611109 26.0546875 85.75390625 C25.41370117 85.27840332 24.77271484 84.80290039 24.11230469 84.31298828 C18.69759881 80.39497629 13.00962667 76.86406974 7.36328125 73.29248047 C5.84738896 72.33248149 4.33444372 71.36781587 2.82421875 70.39892578 C-6.48991541 64.43279236 -15.36851061 59.49131447 -25.875 55.875 C-29.90171348 54.27081805 -33.88617645 52.57084714 -37.875 50.875 C-38.54063965 50.59865723 -39.2062793 50.32231445 -39.89208984 50.03759766 C-42.05713776 49.13864814 -44.21630736 48.22659164 -46.375 47.3125 C-47.39944214 46.89121826 -47.39944214 46.89121826 -48.44458008 46.46142578 C-52.32785976 44.79792252 -55.17978951 43.15439404 -57.875 39.875 C-59.12739928 36.56508762 -58.94457569 35.09060528 -57.84765625 31.69140625 C-56.48271655 26.33579946 -57.26701065 21.63979037 -57.87890625 16.203125 C-57.875 12.875 -57.875 12.875 -56.9140625 11.05859375 C-53.72294764 9.20627995 -50.2447791 8.52829114 -46.6875 7.6875 C-39.38071685 5.83308781 -32.95237529 3.28189306 -26.35473633 -0.3581543 C-16.64483684 -5.64610782 -9.48316641 -6.1832979 0 0 Z M-21.83984375 6.703125 C-22.63543701 7.08927979 -23.43103027 7.47543457 -24.25073242 7.87329102 C-25.51880737 8.49288696 -25.51880737 8.49288696 -26.8125 9.125 C-33.72675098 12.45997133 -40.58180301 15.44393434 -47.875 17.875 C-47.545 23.815 -47.215 29.755 -46.875 35.875 C-40.77129414 38.68551521 -34.68714878 41.01941512 -28.3125 43.125 C-14.31070221 47.91187275 -1.92114481 54.49418232 10.35449219 62.69433594 C13.51205578 64.79995888 16.69221216 66.87029039 19.875 68.9375 C20.47199707 69.33187256 21.06899414 69.72624512 21.68408203 70.13256836 C24.65722253 72.22347818 24.65722253 72.22347818 28.125 72.875 C28.16238281 71.96878906 28.19976562 71.06257813 28.23828125 70.12890625 C28.82276699 59.29872923 29.90563891 52.0199202 37.125 43.875 C39.0105683 40.55280823 39.20509473 37.95000525 39.16796875 34.20703125 C39.16176514 33.39596924 39.15556152 32.58490723 39.14916992 31.74926758 C39.14119385 31.13075928 39.13321777 30.51225098 39.125 29.875 C38.04738403 29.54459717 38.04738403 29.54459717 36.94799805 29.20751953 C18.63880497 23.52742056 1.23623209 17.20953927 -14.37890625 5.8359375 C-17.22125945 4.01030072 -19.05121169 5.33282995 -21.83984375 6.703125 Z " fill="#F7F8F7" transform="translate(187.875,368.125)"/>
<path d="M0 0 C0.70382812 0.15839355 1.40765625 0.31678711 2.1328125 0.47998047 C3.4115625 0.75712891 4.6903125 1.03427734 6.0078125 1.31982422 C28.15194182 7.01733537 48.43939435 16.64605585 67.1953125 29.60498047 C68.26833618 30.34143799 68.26833618 30.34143799 69.36303711 31.09277344 C76.11996634 35.88532037 80.17704502 40.46518701 82.9453125 48.47998047 C83.36425781 49.65560547 83.78320312 50.83123047 84.21484375 52.04248047 C85.12091368 55.43542319 85.54356866 57.99597644 85.1328125 61.47998047 C83.50044119 64.1436333 82.12455295 64.48250868 79.12109375 65.40185547 C77.30158203 65.81177734 77.30158203 65.81177734 75.4453125 66.22998047 C66.2085321 68.4653086 57.86571842 72.35968057 49.27636719 76.34033203 C44.00094534 78.70987331 39.83654046 79.64263107 34.1328125 78.47998047 C31.34162147 77.03399453 28.8572442 75.33238008 26.2734375 73.54248047 C15.60887651 66.53888818 3.64707667 62.3773533 -8.5559082 58.91357422 C-17.27433957 56.35853812 -17.27433957 56.35853812 -19.8671875 52.47998047 C-23.07536951 40.77195992 -18.38314169 27.72720178 -12.765625 17.46826172 C-11.18423631 13.96857979 -11.06973389 10.13994974 -10.625 6.35498047 C-8.99852014 0.18441771 -6.19707701 -1.14480136 0 0 Z M-0.8671875 13.47998047 C-1.08632813 14.09744141 -1.30546875 14.71490234 -1.53125 15.35107422 C-3.27347661 20.00409407 -5.1265152 24.09373063 -7.9921875 28.16748047 C-11.65943173 33.41830744 -12.97577433 38.09507499 -12.8671875 44.47998047 C-11.63226563 44.82029297 -10.39734375 45.16060547 -9.125 45.51123047 C7.44765729 50.20129413 22.42437492 56.38820581 36.99609375 65.59716797 C38.03121094 66.21849609 39.06632812 66.83982422 40.1328125 67.47998047 C40.93976563 67.96982422 41.74671875 68.45966797 42.578125 68.96435547 C46.56912029 69.76987745 49.32066669 67.77014545 52.6953125 65.85498047 C58.66142853 62.65145201 64.46184585 60.12550612 70.97265625 58.17138672 C73.08999712 57.6754286 73.08999712 57.6754286 74.1328125 56.47998047 C74.63450665 53.64924611 74.63450665 53.64924611 74.1328125 50.47998047 C70.29440066 45.94914924 65.64282242 42.9743136 60.6328125 39.85498047 C59.80547607 39.33790527 58.97813965 38.82083008 58.12573242 38.28808594 C30.44227316 20.84614086 30.44227316 20.84614086 -0.8671875 13.47998047 Z " fill="#F7F7F7" transform="translate(298.8671875,70.52001953125)"/>
<path d="M0 0 C4.49622187 0.34726917 6.61411388 1.56648593 10.34375 4.046875 C11.47849266 4.79009258 12.61390326 5.53229144 13.75 6.2734375 C14.7709375 6.94117188 15.791875 7.60890625 16.84375 8.296875 C18.16902355 9.0201757 19.5004824 9.73256662 20.84375 10.421875 C24.6296996 12.7880935 26.43816692 14.50625923 28.84375 18.296875 C29.65687405 22.49801593 29.89155531 24.65866545 27.58203125 28.26953125 C25.14912975 31.12209409 22.50191211 33.68316662 19.76171875 36.23828125 C3.18567464 51.97805647 -6.21391611 72.6002918 -11.77441406 94.46484375 C-12.03061523 95.44066406 -12.28681641 96.41648437 -12.55078125 97.421875 C-12.76581299 98.29070312 -12.98084473 99.15953125 -13.20239258 100.0546875 C-14.37710519 102.81602885 -15.54759733 103.84955247 -18.15625 105.296875 C-21.48197423 104.68602769 -23.46408811 104.07091926 -25.74121094 101.52441406 C-27.2878287 99.08974525 -27.99926749 97.00361786 -28.734375 94.21875 C-29.00451416 93.23028076 -29.27465332 92.24181152 -29.55297852 91.22338867 C-29.83455811 90.17513916 -30.1161377 89.12688965 -30.40625 88.046875 C-34.14148684 74.71957392 -38.84088979 62.57472224 -46.08984375 50.7265625 C-47.40766195 47.72406095 -47.43838881 45.54587975 -47.15625 42.296875 C-42.02619872 31.81372674 -30.99553869 27.59877935 -20.70898438 23.76953125 C-14.71354315 21.3922539 -10.54961503 18.91064634 -7.15625 13.296875 C-5.87841467 10.09998499 -5.87841467 10.09998499 -5.34375 6.921875 C-4.00383606 0.37659844 -4.00383606 0.37659844 0 0 Z M2.84375 14.296875 C2.51375 15.121875 2.18375 15.946875 1.84375 16.796875 C-1.38398076 23.23703922 -7.40464306 28.87648761 -14.15625 31.296875 C-16.27867684 31.76698003 -18.40403963 32.2239124 -20.53125 32.671875 C-25.96740206 33.85986704 -31.10677633 35.28152611 -35.15625 39.296875 C-36.23898764 41.06104545 -36.23898764 41.06104545 -36.15625 43.296875 C-34.74702369 46.3605774 -34.74702369 46.3605774 -32.65625 49.609375 C-28.24410973 56.92826783 -24.64825452 64.50533992 -21.15625 72.296875 C-20.16625 72.296875 -19.17625 72.296875 -18.15625 72.296875 C-17.93074463 71.78938721 -17.70523926 71.28189941 -17.47290039 70.7590332 C-12.5697775 59.82243784 -7.46911614 49.84784252 -0.15625 40.296875 C0.54757812 39.37132812 1.25140625 38.44578125 1.9765625 37.4921875 C4.90997727 33.73340127 7.83789582 30.21928495 11.34375 26.984375 C13.99679032 24.55753092 13.99679032 24.55753092 14.53125 21.671875 C13.52416583 18.19285696 11.90135747 17.15802737 8.84375 15.296875 C5.65612891 14.49996662 5.65612891 14.49996662 2.84375 14.296875 Z " fill="#F8F8F8" transform="translate(414.15625,135.703125)"/>
<path d="M0 0 C0.66 0.33 1.32 0.66 2 1 C-0.97 3.97 -3.94 6.94 -7 10 C-7.66 9.67 -8.32 9.34 -9 9 C-8.34 8.01 -7.68 7.02 -7 6 C-6.34 6 -5.68 6 -5 6 C-4.731875 5.38125 -4.46375 4.7625 -4.1875 4.125 C-3 2 -3 2 0 0 Z " fill="#D8D8D8" transform="translate(37,125)"/>
</svg>
