<?xml version="1.0" encoding="UTF-8" standalone="no"?>
<!-- Created with Inkscape (http://www.inkscape.org/) -->

<svg
   version="1.1"
   id="svg1"
   width="200"
   height="200"
   viewBox="0 0 200 200"
   xml:space="preserve"
   xmlns="http://www.w3.org/2000/svg"
   xmlns:svg="http://www.w3.org/2000/svg"><defs
     id="defs1"><filter
       style="color-interpolation-filters:sRGB"
       id="filter8"
       x="-0.0024222655"
       y="-0.002533497"
       width="1.0048445"
       height="1.005067"><feGaussianBlur
         stdDeviation="0.10557941"
         id="feGaussianBlur8" /></filter></defs><g
     id="g1"><path
       id="path8"
       style="display:inline;fill:none;fill-opacity:1;stroke:#ffffff;stroke-width:5;stroke-dasharray:none;stroke-opacity:1"
       d="M 193.9563,49.0946 C 188.97559,70.720437 180.65268,87.272019 152.91079,85.024396 121.25226,82.459449 142.98524,75.953145 102.37352,63.253791 86.620734,58.32787 91.847879,49.7128 87.677927,36.965988 81.501079,18.084446 92.636322,8.5929816 109.85857,8.9155586 c 8.23214,0.15419 24.49073,-5.4816508 38.40713,-5.4816503 27.83279,1.1e-6 51.71071,19.5218867 45.6906,45.6606917 z" /><path
       id="path5"
       style="display:inline;mix-blend-mode:normal;fill:#ffffff;fill-opacity:1;stroke-width:8.00326;filter:url(#filter8)"
       d="m 134.14221,43.126405 c -6.71088,-0.0148 -13.68854,3.755893 -17.41854,10.953005 l -1.20873,3.676768 C 96.7898,57.866739 105.473,57.738458 86.748361,57.623925 84.485167,49.559661 78.288341,44.291949 69.66611,43.161833 c -6.699058,-0.533761 -13.254228,2.920916 -16.532013,7.070845 -4.755372,6.020669 -5.50799,14.104967 -2.215983,20.742698 2.608329,5.259219 8.189151,9.152352 12.523622,9.966117 0.307932,17.075168 0.183235,7.083536 0.222236,24.274157 0,0 -6.460336,1.44759 -10.392417,6.43039 -3.932082,4.98279 -5.919365,13.22902 -2.633783,20.34304 3.285581,7.11401 11.061638,11.48464 18.31111,11.11224 7.249471,-0.3724 15.212339,-5.51788 17.757768,-14.34044 4.676784,-0.5886 27.86666,-0.46685 28.84269,-0.15252 2.56812,7.96541 7.64082,11.63703 11.65896,13.12361 5.81347,2.15078 12.31934,1.31572 17.30659,-1.72296 4.33748,-2.64277 8.97842,-8.02558 8.87563,-16.46089 -0.10279,-8.43531 -5.75826,-16.09424 -14.75048,-18.41168 0.16385,-16.11528 0.14771,-7.738129 0.36151,-24.142957 7.54732,-2.062428 10.87376,-7.395011 12.49499,-10.1311 2.6135,-5.547339 2.80265,-11.356676 -0.10469,-16.979288 -4.43689,-8.580661 -10.05664,-10.832433 -17.24964,-10.75669 z M 86.871911,66.257808 h 28.515769 c 0.95505,5.332168 5.38289,12.794969 14.83461,15.000327 -0.0277,17.111876 -0.0259,6.807772 -0.0259,23.919665 -7.84844,2.17628 -12.89875,6.53537 -14.77713,14.778 -7.14251,-0.0878 15.86444,-0.004 -28.632737,-0.0683 -1.767794,-7.06852 -5.963283,-12.6965 -14.723298,-14.78789 -0.0088,-17.115926 0.0072,-6.815846 0.02187,-23.93176 4.689444,-0.78628 7.143526,-2.744479 9.626192,-5.192915 2.41451,-2.381219 4.135689,-5.605865 5.193292,-9.88882 z"
       transform="matrix(0.43785292,0,0,0.43771264,101.94734,0.74265722)" /><path
       id="path1"
       style="display:inline;fill:none;fill-opacity:1;stroke:#ffffff;stroke-width:4.94609;stroke-dasharray:none;stroke-opacity:1"
       d="m 30.810015,90.975709 c 6.514829,12.980541 3.07077,26.149281 1.203731,37.341171 -3.333287,19.98128 -15.298354,49.50021 -20.785436,59.59472 10.192612,-0.17885 39.543184,-26.52357 75.137272,-32.5037 15.916928,-2.67419 22.887558,-1.98046 30.124298,0.39495 24.49536,7.24387 21.56052,-1.99197 23.03392,-15.49932 0.43627,-3.99947 8.70544,-0.68524 6.72119,-9.14651 -2.39873,-10.22876 -1.0645,-4.15191 -6.02964,-7.11452 -3.96032,-2.36304 -3.76831,-2.4787 -3.55388,-8.11087 0.31828,-8.36033 -5.36052,-5.09441 -7.35372,-8.12053 -2.08461,-3.16487 2.54976,-3.3055 -1.95326,-10.829816 -4.28447,-7.159144 -12.2672,-1.941751 -13.78117,-3.841 -2.36747,-2.969962 -0.25723,-6.883485 -6.91861,-9.903155 -7.775625,-3.524776 -13.679149,1.675764 -22.065837,2.207442 -2.987767,0.189411 0.546696,-12.940448 -8.317728,-15.95885 -8.930604,-3.040936 -10.524181,1.58531 -13.891863,1.861736 -2.5223,0.207036 -5.432889,-5.30336 -13.700397,-5.792974 -9.381639,-0.555595 -7.382564,11.008513 -18.486168,9.485712 -7.625723,-1.04583 -1.461683,11.793224 0.617298,15.935514 z" /><path
       id="path2"
       style="fill:#f3f3f3;fill-opacity:0.197514;stroke:#ffffff;stroke-width:3;stroke-linecap:round;stroke-dasharray:none"
       d="m 53.201172,128.03125 c 1.657711,-2.66966 3.453368,-5.29082 4.771484,-8.17187 3.127726,-6.83642 4.567702,-11.65538 6.466797,-17.60157 1.001074,-3.386302 1.039928,-5.778186 1.730469,-8.832029 m 47.263668,33.150389 c -6.34662,-0.63656 -10.49104,-0.43092 -17.56136,1.14088 -14.788552,3.28766 -24.267611,8.47021 -33.626136,16.8142" /></g></svg>
