<?xml version="1.0" encoding="UTF-8"?>
<svg version="1.1" xmlns="http://www.w3.org/2000/svg" width="500" height="500">
<path d="M0 0 C6.27933126 4.11362741 10.90363951 8.45597567 14.02734375 15.328125 C14.52234375 18.298125 14.52234375 18.298125 15.02734375 21.328125 C36.47734375 20.998125 57.92734375 20.668125 80.02734375 20.328125 C81.34734375 17.028125 82.66734375 13.728125 84.02734375 10.328125 C88.79045439 3.67459691 94.9806148 -0.97959635 103.02734375 -2.671875 C112.76465566 -3.72545658 120.24678019 -2.84959893 128.2109375 2.90625 C135.01329382 8.44798616 138.62594271 14.6428988 140.02734375 23.328125 C140.82157959 31.90587208 138.24605889 39.85475366 132.83203125 46.5078125 C127.86524576 51.51760046 122.68805747 54.10788709 116.02734375 56.328125 C115.69734375 77.778125 115.36734375 99.228125 115.02734375 121.328125 C117.99734375 122.318125 120.96734375 123.308125 124.02734375 124.328125 C132.0871921 128.75313978 136.34214857 134.7072352 139.02734375 143.328125 C141.24235646 151.42918546 139.84007777 159.23455217 135.80859375 166.53515625 C130.96557942 173.57097984 124.2348968 178.07567623 116.02734375 180.328125 C107.10441659 181.18056345 99.71461086 180.83822457 92.4609375 175.40625 C87.11199822 170.89040607 83.4808538 166.90799286 81.02734375 160.328125 C81.02734375 159.008125 81.02734375 157.688125 81.02734375 156.328125 C59.24734375 156.328125 37.46734375 156.328125 15.02734375 156.328125 C14.36734375 158.968125 13.70734375 161.608125 13.02734375 164.328125 C8.96268607 171.83388491 2.20926923 177.2548412 -5.8828125 179.96875 C-13.47355304 181.27407361 -22.2706762 181.52183925 -28.97265625 177.328125 C-36.57302469 171.63652489 -42.03537247 165.85458471 -43.97265625 156.328125 C-44.80001501 146.22480173 -43.11150254 138.10505494 -36.71484375 130.1171875 C-32.69102282 125.98510233 -27.46355969 123.05383751 -21.97265625 121.328125 C-20.98265625 121.328125 -19.99265625 121.328125 -18.97265625 121.328125 C-18.97265625 99.878125 -18.97265625 78.428125 -18.97265625 56.328125 C-23.92265625 54.843125 -23.92265625 54.843125 -28.97265625 53.328125 C-35.45435161 49.31801026 -40.44807201 43.10328598 -43.28515625 36.078125 C-45.21154916 25.57052731 -43.81616695 16.73397616 -38.28515625 7.515625 C-28.00194212 -2.21173972 -13.26937652 -7.01769634 0 0 Z M15.02734375 31.328125 C13.70734375 34.958125 12.38734375 38.588125 11.02734375 42.328125 C5.81258617 49.8470778 -0.60747449 52.9820523 -8.97265625 56.328125 C-8.97265625 77.778125 -8.97265625 99.228125 -8.97265625 121.328125 C-6.00265625 122.648125 -3.03265625 123.968125 0.02734375 125.328125 C9.09668565 130.30737153 11.80720635 136.6677128 15.02734375 146.328125 C36.47734375 146.328125 57.92734375 146.328125 80.02734375 146.328125 C81.67734375 142.368125 83.32734375 138.408125 85.02734375 134.328125 C86.01734375 132.348125 86.01734375 132.348125 87.02734375 130.328125 C87.68734375 130.328125 88.34734375 130.328125 89.02734375 130.328125 C89.02734375 129.668125 89.02734375 129.008125 89.02734375 128.328125 C94.23417687 125.72470844 99.65372861 123.56713131 105.02734375 121.328125 C105.02734375 99.878125 105.02734375 78.428125 105.02734375 56.328125 C101.06734375 54.678125 97.10734375 53.028125 93.02734375 51.328125 C86.07427332 45.57011355 83.32419085 39.57024275 80.02734375 31.328125 C58.57734375 31.328125 37.12734375 31.328125 15.02734375 31.328125 Z " fill="#FCFCFC" transform="translate(202.97265625,161.671875)"/>
<path d="M0 0 C1 1 1 1 1.125 4.375 C1 8 1 8 0 11 C-0.40603893 15.60698012 -0.54360209 19.69535498 1.25 24 C3.55286025 26.63184029 5.60895297 27.84829616 9.11328125 28.23046875 C9.83902344 28.21628906 10.56476563 28.20210937 11.3125 28.1875 C12.09625 28.17460938 12.88 28.16171875 13.6875 28.1484375 C16.26425969 28.02717932 16.26425969 28.02717932 19.8125 27.3125 C23 27 23 27 25.08984375 28.0625 C27.72149871 30.73182692 27.98907246 33.03427135 28.75 36.6875 C30.322403 43.51441977 32.89049039 49.3766631 36.18261719 55.54370117 C39.88908524 62.48930777 42.71337217 69.09536274 41 77 C39.39566599 80.07105021 37.648031 82.93263282 35.77319336 85.83984375 C28.75285606 96.85213755 23.96963018 109.36245018 20.80957031 122.01342773 C19.92790464 125.23929182 19.25501204 126.80069447 16.5859375 128.88671875 C8.53432934 132.35304553 0.81220828 130.8143407 -7.12890625 127.8203125 C-10.95391866 126.23398833 -14.73997708 124.56740163 -18.515625 122.8671875 C-24.07987549 120.92494912 -30.00697138 121.05989216 -35.3125 123.5625 C-38.02625024 126.02380836 -40.23754083 128.57081614 -42.41015625 131.51171875 C-44.57954598 133.54252339 -46.04713266 133.86638609 -49 134 C-51.2109375 132.85546875 -51.2109375 132.85546875 -53.375 131.1875 C-56.38090894 129.0068406 -58.15601519 127.95652036 -61.8125 126.9375 C-65.8912805 125.73785868 -66.7245576 124.5727247 -69 121 C-69.95010185 117.95863806 -70.45727845 114.88009144 -70.96484375 111.73828125 C-71.12489395 110.83361618 -71.28494415 109.92895111 -71.44984436 108.99687195 C-71.95998098 106.10434842 -72.45028698 103.20896568 -72.9375 100.3125 C-73.58121274 96.53572929 -74.23558958 92.76105323 -74.90234375 88.98828125 C-75.14706421 87.59707565 -75.14706421 87.59707565 -75.39672852 86.17776489 C-76.50943757 80.08161518 -77.9683846 74.17396433 -79.71484375 68.23046875 C-81.51123257 62.10312083 -82.83006064 56.41319937 -82.625 50 C-82.61243164 49.21093262 -82.59986328 48.42186523 -82.58691406 47.60888672 C-82.33018269 41.19457236 -80.79286857 36.25082094 -77 31 C-76.38125 30.071875 -75.7625 29.14375 -75.125 28.1875 C-69.86868689 22.77658944 -63.96702227 19.90039597 -57.0625 17.1875 C-49.9875804 14.31564665 -43.1252474 11.20333456 -36.34008789 7.7019043 C-29.71259507 4.2866126 -24.28563972 1.68490726 -16.75 1.375 C-10.98571509 1.11523609 -5.78513888 -0.2142644 0 0 Z M-33.75 17 C-35.85263424 18.194416 -37.95549875 19.38842674 -40.05859375 20.58203125 C-41.07034668 21.16678223 -42.08209961 21.7515332 -43.12451172 22.35400391 C-46.97347952 24.55724222 -50.88308364 26.63235761 -54.8125 28.6875 C-57.99094245 30.36471201 -61.00983149 32.00655433 -64 34 C-64 34.66 -64 35.32 -64 36 C-64.66 36 -65.32 36 -66 36 C-66.639375 37.0725 -67.27875 38.145 -67.9375 39.25 C-68.29714844 39.85328125 -68.65679687 40.4565625 -69.02734375 41.078125 C-73.17148074 49.26654026 -70.96864519 59.8324658 -69.5390625 68.49609375 C-69.38843353 69.45089127 -69.23780457 70.40568878 -69.08261108 71.38941956 C-68.60465186 74.40677024 -68.11501972 77.42208715 -67.625 80.4375 C-67.30392022 82.453654 -66.98360198 84.46992943 -66.6640625 86.48632812 C-66.05553966 90.31764429 -65.43859739 94.14743234 -64.81347656 97.97607422 C-64.32237995 100.98560599 -63.84531385 103.99594582 -63.39746094 107.01220703 C-63.2327832 108.09228027 -63.06810547 109.17235352 -62.8984375 110.28515625 C-62.76872559 111.17211182 -62.63901367 112.05906738 -62.50537109 112.97290039 C-62.13217403 115.21119573 -62.13217403 115.21119573 -60 117 C-58.20241455 117.7831468 -58.20241455 117.7831468 -56.1875 118.4375 C-52.85833361 119.62605485 -49.96838128 121.05199978 -47 123 C-46.505 122.0925 -46.01 121.185 -45.5 120.25 C-42.75524767 116.29680723 -39.64934889 114.18057647 -35 113 C-26.10697596 111.93548698 -17.55539456 111.76934223 -10 117 C-8.7315625 118.051875 -8.7315625 118.051875 -7.4375 119.125 C-2.69148714 122.77577913 2.19951523 123.09789848 8 123 C8.17015625 122.3922876 8.3403125 121.7845752 8.515625 121.15844727 C12.69070749 106.42212718 17.02710265 91.79883708 25.6484375 78.97265625 C30.32099283 72.61678784 30.32099283 72.61678784 31.8515625 65.1953125 C30.82010302 62.54652455 29.55972497 60.37349452 28 58 C27.12613801 56.34357503 26.27192068 54.67663968 25.4375 53 C25.01984375 52.18789062 24.6021875 51.37578125 24.171875 50.5390625 C22.30738053 46.49932449 21.12424893 42.29591053 20 38 C18.77023438 37.96261719 17.54046875 37.92523438 16.2734375 37.88671875 C14.64059599 37.82102972 13.00778482 37.75458341 11.375 37.6875 C10.56675781 37.66494141 9.75851563 37.64238281 8.92578125 37.61914062 C3.20005827 37.36311236 -1.3056237 36.54077765 -5.64453125 32.44921875 C-9.37410196 26.82367899 -9.66155178 21.54130969 -9.859375 14.87890625 C-9.67181268 12.10426531 -9.67181268 12.10426531 -11 11 C-20.05862168 9.66299652 -26.09272982 12.46330199 -33.75 17 Z " fill="#F6F6F6" transform="translate(105,99)"/>
<path d="M0 0 C6.81470348 2.12420346 9.98972569 7.54146355 13.453125 13.5 C15.91312773 18.24217394 17.7354072 22.99271934 19.30859375 28.08984375 C20.14973289 30.41366884 21.41829934 32.11702302 23 34 C23 34.66 23 35.32 23 36 C23.66 36 24.32 36 25 36 C25 36.66 25 37.32 25 38 C30.54244438 40.25352134 35.50948613 40.07592982 41.34179688 39.65820312 C43.41796875 39.58203125 43.41796875 39.58203125 47 40 C49.44543259 42.85300469 50.37495098 45.66114746 51.0625 49.3125 C51.5108199 51.67601103 51.96742579 53.90416326 52.7421875 56.18359375 C53.4375 58.25 53.4375 58.25 54 62 C50.10804009 67.06611659 44.84190779 69.44255473 39.1875 72.1875 C38.2298877 72.65945801 37.27227539 73.13141602 36.28564453 73.61767578 C26.32309115 78.4546027 16.1227761 82.69203965 5.85766602 86.83813477 C2.80965499 88.07739017 -0.22654323 89.34293496 -3.26171875 90.61328125 C-53.68487637 111.65550336 -53.68487637 111.65550336 -69.74609375 107.24609375 C-73.76966128 105.56134873 -76.86464865 103.98598919 -79 100 C-76.6846378 97.40679434 -74.49485793 95.64947604 -71.4375 94.0625 C-68.07984694 92.18913134 -66.40138376 90.70954526 -65 87 C-64.35778986 82.59283292 -64.34309828 79.20431982 -66.5 75.25 C-68.697262 73.2724642 -70.65541161 71.97288445 -73.1875 70.5 C-76.85089075 68.30606636 -76.85089075 68.30606636 -78.1875 65.5625 C-77.80081303 60.27777804 -74.20217732 55.59296782 -71.625 51.0625 C-68.97208416 46.19138982 -67.0179127 41.47647369 -65.375 36.1875 C-61.0335125 22.57293241 -61.0335125 22.57293241 -54.625 19.25 C-53.09457749 18.79376084 -51.55013175 18.38397759 -50 18 C-47.58262146 17.37775906 -45.16602526 16.75247486 -42.75 16.125 C-41.7741394 15.87290771 -41.7741394 15.87290771 -40.77856445 15.61572266 C-29.46856418 12.61897206 -18.26720868 7.53533582 -8.33984375 1.33984375 C-5.32358201 -0.38733117 -3.43214278 -0.35751487 0 0 Z M-3.7890625 12.9765625 C-4.55742432 13.39728027 -5.32578613 13.81799805 -6.11743164 14.25146484 C-6.9449292 14.70473145 -7.77242676 15.15799805 -8.625 15.625 C-21.11639671 22.30198398 -33.23494829 26.97970219 -47.15063477 29.70849609 C-50.65675134 30.40304857 -52.98603985 30.99069324 -56 33 C-56.98649576 34.9853537 -56.98649576 34.9853537 -57.68359375 37.32421875 C-57.97169922 38.18853516 -58.25980469 39.05285156 -58.55664062 39.94335938 C-58.84732422 40.84892578 -59.13800781 41.75449219 -59.4375 42.6875 C-62.6753879 52.6922098 -62.6753879 52.6922098 -65.28515625 56.89453125 C-67.17121806 59.73024101 -67.17121806 59.73024101 -67.0234375 62.203125 C-65.62351706 64.66100059 -63.84759036 66.00933053 -61.625 67.75 C-57.37573889 71.41058958 -54.80509011 74.36436925 -54 80 C-53.88946691 85.48980999 -54.8254404 89.44519709 -58 94 C-58 94.66 -58 95.32 -58 96 C-58.66 96 -59.32 96 -60 96 C-60 96.99 -60 97.98 -60 99 C-54.4850656 98.44785517 -49.48224092 97.40810244 -44.22265625 95.62890625 C-43.50245804 95.39112961 -42.78225983 95.15335297 -42.04023743 94.90837097 C-39.71120176 94.13542061 -37.38662532 93.35008211 -35.0625 92.5625 C-34.26442932 92.29433472 -33.46635864 92.02616943 -32.644104 91.74987793 C-18.54654185 87.00638409 -4.68980103 81.82805836 9 76 C9.85239258 75.63922363 10.70478516 75.27844727 11.58300781 74.90673828 C28.03561577 69.04134998 28.03561577 69.04134998 41.3984375 59.03125 C42.37100754 55.74724727 41.08833215 53.14407064 40 50 C38.82244141 49.96132813 38.82244141 49.96132813 37.62109375 49.921875 C31.11113164 49.57041692 26.12925309 49.17356678 21 45 C20.3090625 44.44183594 19.618125 43.88367188 18.90625 43.30859375 C13.44648797 38.41261149 11.544802 34.05282015 10 27 C8.3748614 20.4802132 6.88536235 15.76009665 2 11 C-0.49322229 11 -1.6137658 11.76510219 -3.7890625 12.9765625 Z " fill="#F6F6F6" transform="translate(327,358)"/>
<path d="M0 0 C3.93250877 0.64204225 5.2538732 1.66074955 8.0625 4.5 C9.44306951 7.42369176 10.32351301 10.46979399 11.25 13.5625 C18.08750692 34.5192385 29.08543624 51.2860665 45.0612793 66.38964844 C50.97160948 72.05310602 50.97160948 72.05310602 52.0625 76.5 C52.0625 83.86536523 49.05220398 88.47491657 45.0625 94.5 C43.95440081 96.20578515 42.85034708 97.91420396 41.75 99.625 C41.16605469 100.52863281 40.58210938 101.43226563 39.98046875 102.36328125 C38.53012901 104.7352218 37.17682743 107.09683863 35.86328125 109.54296875 C30.82094474 118.92929001 26.65541036 126.49823386 16.0625 130.5 C13.6875 130.1875 13.6875 130.1875 12.0625 129.5 C11.06462255 126.2070044 11.03358207 124.59398326 12.0625 121.25 C13.5473603 115.68177388 12.73908826 110.99817205 11.25 105.5 C10.27108327 103.36614774 10.27108327 103.36614774 8.328125 102.8828125 C5.72422312 102.44284287 3.26591208 102.36767431 0.625 102.375 C-0.30183594 102.37242187 -1.22867187 102.36984375 -2.18359375 102.3671875 C-4.93771871 102.38963761 -4.93771871 102.38963761 -7.47265625 103.2578125 C-9.9375 103.5 -9.9375 103.5 -12.63671875 102.015625 C-15.56128328 98.8179687 -15.95987412 96.49217316 -16.75 92.25 C-18.21808574 85.23815059 -20.66735197 79.34476425 -24.12036133 73.08105469 C-27.80893982 66.29627611 -29.92555385 60.23229795 -27.9375 52.5 C-26.63473382 50.06500141 -25.32637222 47.85190627 -23.8125 45.5625 C-16.82190729 34.41269989 -11.89372884 22.86077065 -8.70996094 10.08251953 C-7.30959189 4.74601261 -5.75337434 0.97929776 0 0 Z M1.0625 24.5 C-1.30965241 28.06481793 -2.87960233 31.71201114 -4.4375 35.6875 C-7.28164799 42.73799823 -11.16625985 48.99389332 -15.41796875 55.28198242 C-18.25068375 59.59724062 -18.25068375 59.59724062 -18.9609375 64.61328125 C-17.76664861 67.98190525 -16.30544879 71.03171073 -14.625 74.1875 C-11.52546554 80.13205236 -9.03341687 86.12112256 -6.9375 92.5 C-6.10347656 92.46519531 -5.26945312 92.43039062 -4.41015625 92.39453125 C2.69424963 92.22363489 8.54441811 92.58225492 15.0625 95.5 C16.12210937 95.91185547 16.12210937 95.91185547 17.203125 96.33203125 C19.64005527 97.86279207 19.95583289 99.08111602 20.75 101.8125 C20.9871875 102.61171875 21.224375 103.4109375 21.46875 104.234375 C22.1000847 106.64341529 22.66580723 109.04050483 23.0625 111.5 C26.59100118 107.46742722 28.79690288 103.29669391 31.0625 98.5 C33.34241016 93.67300271 35.63331857 89.63866724 39.0625 85.5 C40.22061388 82.55270463 40.22061388 82.55270463 40.0625 79.5 C38.38522662 76.5897153 38.38522662 76.5897153 36.0625 74.5 C35.4025 74.5 34.7425 74.5 34.0625 74.5 C33.7325 73.51 33.4025 72.52 33.0625 71.5 C32.4025 71.5 31.7425 71.5 31.0625 71.5 C31.0625 70.84 31.0625 70.18 31.0625 69.5 C29.42757086 67.80218897 27.75525908 66.14015922 26.0625 64.5 C15.32792014 52.62927848 7.89101937 39.33415321 2.0625 24.5 C1.7325 24.5 1.4025 24.5 1.0625 24.5 Z " fill="#F7F7F7" transform="translate(383.9375,271.5)"/>
<path d="M0 0 C9.4742632 -0.21263932 18.76608282 0.84282551 28.1328125 2.1171875 C29.16245117 2.25672852 30.19208984 2.39626953 31.25292969 2.54003906 C34.59114539 3.00398111 37.92458897 3.49371597 41.2578125 3.9921875 C42.31258789 4.14139648 43.36736328 4.29060547 44.45410156 4.44433594 C50.7072915 5.41971389 55.67943692 6.9205892 61.1328125 10.1171875 C62.78410156 10.99890625 62.78410156 10.99890625 64.46875 11.8984375 C65.47164063 12.465625 66.47453125 13.0328125 67.5078125 13.6171875 C68.52617187 14.184375 69.54453125 14.7515625 70.59375 15.3359375 C74.47973307 18.06210409 74.47973307 18.06210409 75.1328125 21.1171875 C73.99609375 23.90625 73.99609375 23.90625 72.1328125 27.1171875 C67.59255879 35.8491893 63.35507304 44.45355704 60.21166992 53.80029297 C58.78435078 57.90880804 57.13607966 60.95828078 54.1328125 64.1171875 C49.27786248 66.40725826 44.33185548 67.56879637 39.1328125 68.8671875 C28.07021163 71.68742063 17.98595388 76.41692903 8.1328125 82.1171875 C1.7129072 85.64059659 1.7129072 85.64059659 -2.3046875 85.3671875 C-9.94961792 82.68475577 -14.21188611 77.13536617 -17.8671875 70.1171875 C-19.39022615 66.3203165 -20.79953671 62.47841812 -22.06811523 58.58911133 C-24.06451262 52.90271939 -26.7763018 49.4143023 -31.8671875 46.1171875 C-36.02589428 44.73095191 -40.08907903 45.14238465 -44.41796875 45.33203125 C-49.34320967 45.43889052 -49.34320967 45.43889052 -51.76953125 43.94921875 C-53.21193059 41.54179779 -53.54189707 39.45445978 -53.9296875 36.6796875 C-54.45039604 33.03472775 -55.20494352 30.37934132 -56.8671875 27.1171875 C-56.79327568 23.5694201 -56.55028781 21.78892647 -53.98828125 19.26953125 C-49.56173544 16.21693208 -44.84602718 13.97488662 -39.9921875 11.6796875 C-38.96585205 11.19322754 -37.9395166 10.70676758 -36.88208008 10.20556641 C-24.69189514 4.52019189 -13.52142229 0.55264669 0 0 Z M-44.8671875 25.1171875 C-44.5371875 28.4171875 -44.2071875 31.7171875 -43.8671875 35.1171875 C-43.0215625 35.13136719 -42.1759375 35.14554688 -41.3046875 35.16015625 C-31.13735172 35.5876465 -25.84633244 37.68718202 -18.9921875 45.1171875 C-15.30006295 49.62141201 -14.00976487 53.31427677 -12.9921875 58.9921875 C-11.85860582 64.98142612 -9.63178401 70.06728047 -4.8671875 74.1171875 C-1.29468101 72.77835142 2.06281642 71.16019891 5.4465332 69.40161133 C18.19933025 62.80168448 31.0520118 58.11930166 45.01489258 54.76489258 C49.50172903 53.77058821 49.50172903 53.77058821 53.1328125 51.1171875 C53.87547503 49.35941993 53.87547503 49.35941993 54.46484375 47.3359375 C54.70380371 46.58038574 54.94276367 45.82483398 55.18896484 45.04638672 C55.43855957 44.24475098 55.6881543 43.44311523 55.9453125 42.6171875 C58.13457919 35.78879275 60.57919611 29.3753261 64.1328125 23.1171875 C61.23149685 19.81592413 59.16150556 18.5048442 54.8828125 17.5546875 C53.81933594 17.31621094 52.75585938 17.07773438 51.66015625 16.83203125 C45.86350642 15.65729491 40.06241988 14.54007118 34.24023438 13.50097656 C32.13295593 13.11721362 30.031464 12.70961941 27.9296875 12.296875 C-0.17807089 6.87729913 -19.81219561 11.49130921 -44.8671875 25.1171875 Z " fill="#F7F7F7" transform="translate(177.8671875,57.8828125)"/>
<path d="M0 0 C2.3125 1 2.3125 1 4 2 C4 2.66 4 3.32 4 4 C4.825 4.2475 5.65 4.495 6.5 4.75 C10 6 10 6 13.4375 7.8125 C18.51472701 10.45422933 23.96001584 11.99192236 29.4140625 13.65625 C34.59941183 15.59934387 39.26237233 18.03700015 42 23 C42.9550036 25.94192897 43.66422267 28.92864093 44.375 31.9375 C47.64278289 44.95190779 52.45451818 56.27748722 59 68 C60.94881892 71.63306309 61.56459601 73.80585823 61 78 C58.19298687 84.81313866 53.47682465 88.76579888 47 92 C43.16883594 93.56790456 39.29805391 95.02944295 35.3840332 96.37719727 C29.25986091 98.56933149 25.7639837 101.23948005 22.1953125 106.82421875 C20.74252538 110.68407473 20.7378483 113.70198291 20.875 117.8125 C20.95231891 120.21166017 20.99407832 122.59875781 21 125 C19.47912153 126.52087847 18.11960515 126.27932338 16 126.375 C10.41803793 126.35708038 6.55840221 124.01738208 2 121 C2 120.34 2 119.68 2 119 C1.01 118.67 0.02 118.34 -1 118 C-2.84270484 115.89027902 -4.55770414 113.78732036 -6.25 111.5625 C-6.74016602 110.92505859 -7.23033203 110.28761719 -7.73535156 109.63085938 C-9.16588268 107.76052705 -10.58412176 105.88143645 -12 104 C-12.6703125 103.12214844 -13.340625 102.24429688 -14.03125 101.33984375 C-23.86996368 87.94577672 -29.35319421 72.85013886 -32.4375 56.625 C-32.74337036 55.05322998 -32.74337036 55.05322998 -33.05541992 53.44970703 C-34.74870292 44.6105243 -36.30358194 35.74722589 -37.8125 26.875 C-38.03156006 25.60092285 -38.25062012 24.3268457 -38.47631836 23.01416016 C-38.67620361 21.81065918 -38.87608887 20.6071582 -39.08203125 19.3671875 C-39.25968018 18.30612793 -39.4373291 17.24506836 -39.62036133 16.15185547 C-40.72962896 6.9424374 -40.72962896 6.9424374 -38.5 4.0625 C-38.005 3.711875 -37.51 3.36125 -37 3 C-36.319375 3.721875 -35.63875 4.44375 -34.9375 5.1875 C-30.82957418 9.23756771 -27.27051525 12.64149759 -21.4375 13.5625 C-17.20455041 12.86983552 -15.24181807 11.81897224 -12 9 C-10.56351008 6.95637484 -9.29277306 4.88934893 -8.078125 2.70703125 C-6.03831123 -0.52267388 -3.5452676 -0.2532334 0 0 Z M-3 11 C-4.58248821 12.61358339 -4.58248821 12.61358339 -5.875 14.75 C-8.37498161 18.60711449 -10.91573216 20.8320474 -15 23 C-17.78582574 23.28139654 -20.12356255 23.38863832 -22.875 23.25 C-23.56335938 23.23195313 -24.25171875 23.21390625 -24.9609375 23.1953125 C-26.6412381 23.14863748 -28.32081163 23.07690939 -30 23 C-29.48216683 31.25865721 -28.37146843 39.21416568 -26.6875 47.3125 C-26.46239746 48.40409424 -26.23729492 49.49568848 -26.00537109 50.62036133 C-25.35071059 53.75006537 -24.68012166 56.8757403 -24 60 C-23.83097168 60.7847168 -23.66194336 61.56943359 -23.48779297 62.37792969 C-19.20531575 81.75125718 -8.70694175 97.48857909 4.8125 111.63671875 C7 114 7 114 8 116 C8.99 116 9.98 116 11 116 C11.08636719 115.14277344 11.17273438 114.28554688 11.26171875 113.40234375 C12.12362314 106.38849792 12.86110125 101.0459471 18 96 C18.76376953 95.20335937 18.76376953 95.20335937 19.54296875 94.390625 C24.43970361 90.02355903 29.87658867 88.89434829 36.1184082 87.54052734 C41.59655076 86.28524087 46.37743982 84.46861865 50 80 C50 75.83445525 47.93137233 73.0343556 45.9375 69.5 C39.02196983 56.80352952 34.10017068 43.5437732 31.32885742 29.34179688 C30.56478408 25.59064135 29.97240964 23.43283073 27 21 C25.12751659 20.12435417 25.12751659 20.12435417 23.05078125 19.53515625 C22.28443359 19.29216797 21.51808594 19.04917969 20.72851562 18.79882812 C19.93123047 18.55583984 19.13394531 18.31285156 18.3125 18.0625 C12.84462255 16.38181853 7.81448257 14.57506491 2.81323242 11.76733398 C0.71419774 10.74018338 0.71419774 10.74018338 -3 11 Z " fill="#F5F5F5" transform="translate(82,249)"/>
<path d="M0 0 C2.68012798 1.45756765 5.30517729 2.98765797 7.92773438 4.54638672 C20.2504675 11.57745944 33.0163576 16.94345751 46.86523438 20.18310547 C49.33518693 21.27435606 50.26463346 22.71703734 51.67773438 24.98388672 C55.03470261 35.05479141 51.27047437 44.8450991 47.05273438 53.98388672 C44.34266787 59.94025816 42.51782182 64.34075117 43.67773438 70.98388672 C45.70866131 75.89196014 47.84911407 78.22030679 51.99023438 81.48388672 C55.62978289 84.50437184 55.62978289 84.50437184 56.05273438 88.73388672 C54.67773438 91.98388672 54.67773438 91.98388672 52.11523438 93.98388672 C48.03496874 95.17087309 44.73760441 95.0632796 40.67773438 93.98388672 C38.18251732 92.45344864 36.10561138 91.00148311 33.86523438 89.17138672 C14.84126996 74.46806991 -6.08090991 62.73827159 -28.43164062 53.97998047 C-29.32270508 53.6287915 -30.21376953 53.27760254 -31.13183594 52.91577148 C-32.88343404 52.22768907 -34.63788119 51.54680156 -36.39550781 50.87426758 C-48.08381406 46.3059834 -48.08381406 46.3059834 -50.82226562 41.17138672 C-51.32226562 37.98388672 -51.32226562 37.98388672 -50.31835938 34.76904297 C-48.91276194 29.42777273 -49.71492873 24.74288002 -50.32617188 19.31201172 C-50.32226562 15.98388672 -50.32226562 15.98388672 -49.35742188 14.16748047 C-46.18505604 12.32251531 -42.7343981 11.63670201 -39.19726562 10.79638672 C-30.84490503 8.66763746 -23.39570466 5.49744021 -15.70117188 1.65576172 C-10.36771745 -0.9832192 -5.73846906 -2.51088186 0 0 Z M-18.63476562 11.67138672 C-25.71158231 15.29343017 -32.82642167 18.31413408 -40.32226562 20.98388672 C-40.3760714 23.77580876 -40.41584231 26.56670082 -40.44726562 29.35888672 C-40.46402344 30.15294922 -40.48078125 30.94701172 -40.49804688 31.76513672 C-40.51562035 33.83880687 -40.4256173 35.91271913 -40.32226562 37.98388672 C-37.81667301 40.48947934 -35.75512944 40.96934616 -32.38085938 42.05029297 C-31.16543457 42.44861328 -29.95000977 42.84693359 -28.69775391 43.25732422 C-28.05453186 43.46711914 -27.41130981 43.67691406 -26.74859619 43.89306641 C-8.49318174 49.88987341 6.92009352 58.0549699 22.67773438 68.98388672 C24.44537824 70.19688108 26.21567345 71.40603442 27.99023438 72.60888672 C28.66699219 73.07552734 29.34375 73.54216797 30.04101562 74.02294922 C31.64886023 75.15265352 31.64886023 75.15265352 33.67773438 74.98388672 C33.70351562 73.92169922 33.72929687 72.85951172 33.75585938 71.76513672 C34.27032192 57.30891021 34.27032192 57.30891021 38.67773438 50.98388672 C39.37898438 49.93201172 40.08023438 48.88013672 40.80273438 47.79638672 C41.42148438 46.86826172 42.04023438 45.94013672 42.67773438 44.98388672 C44.77352689 40.89709131 44.85673168 37.54831805 44.67773438 32.98388672 C40.65173291 31.43786589 36.63970146 29.94125868 32.52148438 28.65966797 C18.10839566 24.16526396 5.27508806 18.19454601 -7.06445312 9.45263672 C-11.43302937 6.61079473 -14.48036272 9.50940153 -18.63476562 11.67138672 Z " fill="#F7F7F7" transform="translate(177.322265625,356.01611328125)"/>
<path d="M0 0 C5.37708832 0.14522858 10.26765735 1.69610233 15.36328125 3.3125 C16.37302002 3.62936768 17.38275879 3.94623535 18.4230957 4.27270508 C38.02148535 10.56607707 71.83932757 21.96543698 82.17578125 41.375 C82.67396433 42.67289803 83.13214088 43.98680549 83.55078125 45.3125 C83.84210938 46.06660156 84.1334375 46.82070312 84.43359375 47.59765625 C86.00795507 51.84559513 87.31173951 55.74675046 86.55078125 60.3125 C83.35435855 63.41559649 80.07524574 64.05980127 75.80078125 65 C69.0451106 66.61192043 63.1930589 69.19833319 57.09472656 72.49487305 C50.8094916 75.86753728 44.80977721 78.09922917 37.55078125 77.3125 C35.05075827 76.04670191 32.91230004 74.80249117 30.61328125 73.25 C19.07062015 65.93571013 7.03708034 61.06794446 -6.15527344 57.52856445 C-9.82050414 56.47897566 -12.07942612 55.64427656 -14.95703125 53.0625 C-18.16328323 47.15359583 -17.62445483 39.6027113 -15.875 33.21630859 C-14.13002661 28.08382126 -11.98384565 23.07156326 -9.34765625 18.33203125 C-7.54454252 14.27894518 -7.05978594 9.76557413 -6.23046875 5.4296875 C-5.13978536 1.07786079 -4.50650844 0.40829069 0 0 Z M2.55078125 13.3125 C2.33164062 13.92996094 2.1125 14.54742187 1.88671875 15.18359375 C0.15623296 19.80525702 -1.63318523 23.77095465 -4.57421875 27.75 C-8.01959635 32.60485025 -8.8165516 37.47669095 -9.44921875 43.3125 C-5.10780996 44.78236615 -0.7677118 46.23431252 3.62890625 47.53125 C17.03606867 51.58792361 30.44951245 57.3938582 41.84765625 65.6484375 C44.92054182 67.54012717 46.02786749 67.97271622 49.55078125 67.3125 C52.19550884 66.11654907 54.6947941 64.87956433 57.23828125 63.5 C62.67631967 60.64000383 67.78838425 58.32151302 73.828125 56.98046875 C74.39660156 56.76003906 74.96507812 56.53960937 75.55078125 56.3125 C76.85989067 52.38517175 76.33082968 51.02596918 74.55078125 47.3125 C72.23976647 45.42220093 70.13652857 43.91062045 67.61328125 42.375 C66.93088379 41.94316406 66.24848633 41.51132813 65.54541016 41.06640625 C64.17401088 40.19964837 62.79873142 39.338996 61.41943359 38.48486328 C59.87322904 37.5147987 58.35779409 36.49588216 56.8515625 35.46484375 C41.27750354 24.85642678 21.44010343 15.50721237 2.55078125 13.3125 Z " fill="#F7F7F7" transform="translate(288.44921875,68.6875)"/>
<path d="M0 0 C9.82707703 2.12920002 21.0203297 8.29271556 27.9375 15.6875 C30.20916137 19.33592584 30.89096547 20.8124623 30 25 C27.33247781 29.48909406 24.15540249 32.95655796 20.375 36.5 C4.84982984 51.69055552 -4.8323981 70.9979816 -10 92 C-12.52694611 100.52694611 -12.52694611 100.52694611 -15 103 C-18.24348694 102.85897883 -20.35016384 102.45664163 -23.0234375 100.578125 C-25.97865289 96.72349623 -26.65350191 92.54985903 -27.75 87.875 C-31.01766495 74.97772216 -35.84029308 63.29172109 -42.5625 51.8125 C-44.38951642 48.53388148 -44.99411074 47.08833891 -45.25 43.25 C-42.11401312 35.09643412 -35.69407652 30.68494395 -28 27 C-25.97071349 26.29654888 -23.92828202 25.62998426 -21.875 25 C-15.32320678 22.96784792 -10.52681026 20.03217232 -6.125 14.75 C-4.71286067 11.29810385 -4.15511934 7.89025627 -3.625 4.20703125 C-3 2 -3 2 0 0 Z M4 15 C3.443125 16.03125 2.88625 17.0625 2.3125 18.125 C-1.50821714 24.95172254 -6.09604046 29.31574916 -13.67578125 31.46484375 C-15.96337023 31.99156592 -18.25698418 32.4345314 -20.5625 32.875 C-25.27758898 33.86110824 -29.33466641 35.84893516 -33 39 C-33.33 39.99 -33.66 40.98 -34 42 C-32.70481465 44.54859054 -31.35695152 46.9389153 -29.875 49.375 C-25.75459934 56.38040218 -22.62732312 63.2896648 -20 71 C-18.68 71 -17.36 71 -16 71 C-15.72027344 70.27296875 -15.44054687 69.5459375 -15.15234375 68.796875 C-8.67646374 52.55511806 0.86228745 38.85129897 13.12890625 26.47265625 C15.17024762 24.14916041 15.17024762 24.14916041 15.5234375 21.359375 C15.21182764 18.89349518 15.21182764 18.89349518 13.28515625 17.41796875 C12.55167969 17.01191406 11.81820312 16.60585937 11.0625 16.1875 C10.33160156 15.76855469 9.60070312 15.34960938 8.84765625 14.91796875 C6.44191567 13.71867476 6.44191567 13.71867476 4 15 Z " fill="#F8F8F8" transform="translate(403,132)"/>
</svg>
