<?xml version="1.0" encoding="UTF-8" standalone="no"?>
<!-- Generator: Adobe Illustrator 27.7.0, SVG Export Plug-In . SVG Version: 6.00 Build 0)  -->

<svg
   version="1.1"
   id="Layer_1"
   x="0px"
   y="0px"
   viewBox="0 0 512 512"
   xml:space="preserve"
   sodipodi:docname="bluesky.svg"
   width="512"
   height="512"
   inkscape:version="1.4 (e7c3feb100, 2024-10-09)"
   xmlns:inkscape="http://www.inkscape.org/namespaces/inkscape"
   xmlns:sodipodi="http://sodipodi.sourceforge.net/DTD/sodipodi-0.dtd"
   xmlns="http://www.w3.org/2000/svg"
   xmlns:svg="http://www.w3.org/2000/svg"><defs
   id="defs1" /><sodipodi:namedview
   id="namedview1"
   pagecolor="#232323"
   bordercolor="#666666"
   borderopacity="1.0"
   inkscape:showpageshadow="2"
   inkscape:pageopacity="0.0"
   inkscape:pagecheckerboard="0"
   inkscape:deskcolor="#d1d1d1"
   inkscape:zoom="1.4142136"
   inkscape:cx="245.01249"
   inkscape:cy="251.73001"
   inkscape:window-width="2560"
   inkscape:window-height="1403"
   inkscape:window-x="0"
   inkscape:window-y="0"
   inkscape:window-maximized="1"
   inkscape:current-layer="Layer_1" />

<ellipse
   style="fill:#ffffff;stroke:#ffffff;stroke-width:37.842;stroke-linejoin:bevel;stroke-dashoffset:49.138;fill-opacity:1;stroke-opacity:1;stroke-dasharray:none;opacity:0.29"
   id="path2"
   cx="256"
   cy="256"
   rx="237.009"
   ry="237.06851" /><path
   d="m 167.32201,136.72222 c 35.89477,26.94753 74.50367,81.58589 88.67891,110.90801 14.17632,-29.31996 52.78305,-83.96103 88.67891,-110.90801 25.89977,-19.44426 67.86408,-34.48913 67.86408,13.38442 0,9.56099 -5.48171,80.31736 -8.69678,91.80437 -11.17554,39.93682 -51.89885,50.12291 -88.1229,43.95782 63.31894,10.77663 79.42667,46.47275 44.64012,82.16887 -66.06654,67.79391 -94.95682,-17.00974 -102.36292,-38.73952 -1.35707,-3.9836 -1.99209,-5.84716 -2.00143,-4.26252 -0.01,-1.5847 -0.64437,0.27891 -2.00143,4.26252 -7.40286,21.72978 -36.29261,106.53559 -102.36293,38.73952 -34.78708,-35.69612 -18.67989,-71.3944 44.64013,-82.16887 -36.22512,6.16509 -76.94897,-4.02106 -88.12291,-43.95782 -3.21517,-11.4881 -8.696769,-82.24445 -8.696769,-91.80437 0,-47.87355 41.965399,-32.82868 67.864089,-13.38442 z"
   fill="#000000"
   id="path1-7"
   style="display:inline;stroke-width:0.539804" /></svg>
