<?xml version="1.0" encoding="UTF-8" standalone="no"?>
<!-- Generator: Adobe Illustrator 27.7.0, SVG Export Plug-In . SVG Version: 6.00 Build 0)  -->

<svg
   version="1.1"
   id="Layer_1"
   x="0px"
   y="0px"
   viewBox="0 0 512 512"
   xml:space="preserve"
   sodipodi:docname="instagram.svg"
   width="512"
   height="512"
   inkscape:version="1.4 (e7c3feb100, 2024-10-09)"
   xmlns:inkscape="http://www.inkscape.org/namespaces/inkscape"
   xmlns:sodipodi="http://sodipodi.sourceforge.net/DTD/sodipodi-0.dtd"
   xmlns="http://www.w3.org/2000/svg"
   xmlns:svg="http://www.w3.org/2000/svg"><defs
   id="defs1" /><sodipodi:namedview
   id="namedview1"
   pagecolor="#232323"
   bordercolor="#666666"
   borderopacity="1.0"
   inkscape:showpageshadow="2"
   inkscape:pageopacity="0.0"
   inkscape:pagecheckerboard="0"
   inkscape:deskcolor="#d1d1d1"
   inkscape:zoom="1"
   inkscape:cx="201.99999"
   inkscape:cy="130"
   inkscape:window-width="2560"
   inkscape:window-height="1403"
   inkscape:window-x="0"
   inkscape:window-y="0"
   inkscape:window-maximized="1"
   inkscape:current-layer="Layer_1" />

<ellipse
   style="fill:#ffffff;stroke:#ffffff;stroke-width:37.842;stroke-linejoin:bevel;stroke-dashoffset:49.138;fill-opacity:1;stroke-opacity:1;stroke-dasharray:none;opacity:0.29"
   id="path2"
   cx="256"
   cy="256"
   rx="237.009"
   ry="237.06851" /><g
   style="fill:#000000"
   id="g1"
   transform="matrix(1.7388533,0,0,1.7388533,109.01299,109.01299)"><g
     id="g3">
	<path
   d="M 122.406,0 H 46.654 C 20.929,0 0,20.93 0,46.655 v 75.752 c 0,25.726 20.929,46.655 46.654,46.655 h 75.752 c 25.727,0 46.656,-20.93 46.656,-46.655 V 46.655 C 169.063,20.93 148.133,0 122.406,0 Z m 31.657,122.407 c 0,17.455 -14.201,31.655 -31.656,31.655 H 46.654 C 29.2,154.063 15,139.862 15,122.407 V 46.655 C 15,29.201 29.2,15 46.654,15 h 75.752 c 17.455,0 31.656,14.201 31.656,31.655 v 75.752 z"
   id="path1-5" />
	<path
   d="m 84.531,40.97 c -24.021,0 -43.563,19.542 -43.563,43.563 0,24.02 19.542,43.561 43.563,43.561 24.021,0 43.563,-19.541 43.563,-43.561 0,-24.021 -19.542,-43.563 -43.563,-43.563 z m 0,72.123 c -15.749,0 -28.563,-12.812 -28.563,-28.561 0,-15.75 12.813,-28.563 28.563,-28.563 15.75,0 28.563,12.813 28.563,28.563 0,15.749 -12.814,28.561 -28.563,28.561 z"
   id="path2-6" />
	<path
   d="m 129.921,28.251 c -2.89,0 -5.729,1.17 -7.77,3.22 -2.051,2.04 -3.23,4.88 -3.23,7.78 0,2.891 1.18,5.73 3.23,7.78 2.04,2.04 4.88,3.22 7.77,3.22 2.9,0 5.73,-1.18 7.78,-3.22 2.05,-2.05 3.22,-4.89 3.22,-7.78 0,-2.9 -1.17,-5.74 -3.22,-7.78 -2.04,-2.05 -4.88,-3.22 -7.78,-3.22 z"
   id="path3" />
</g></g></svg>
