<?xml version="1.0" encoding="UTF-8" standalone="no"?>
<!-- Generator: Adobe Illustrator 27.7.0, SVG Export Plug-In . SVG Version: 6.00 Build 0)  -->

<svg
   version="1.1"
   id="Layer_1"
   x="0px"
   y="0px"
   viewBox="0 0 512 512"
   xml:space="preserve"
   sodipodi:docname="mastodonHover.svg"
   width="512"
   height="512"
   inkscape:version="1.4 (e7c3feb100, 2024-10-09)"
   xmlns:inkscape="http://www.inkscape.org/namespaces/inkscape"
   xmlns:sodipodi="http://sodipodi.sourceforge.net/DTD/sodipodi-0.dtd"
   xmlns="http://www.w3.org/2000/svg"
   xmlns:svg="http://www.w3.org/2000/svg"><defs
   id="defs1" /><sodipodi:namedview
   id="namedview1"
   pagecolor="#232323"
   bordercolor="#666666"
   borderopacity="1.0"
   inkscape:showpageshadow="2"
   inkscape:pageopacity="0.0"
   inkscape:pagecheckerboard="0"
   inkscape:deskcolor="#d1d1d1"
   inkscape:zoom="1.4142136"
   inkscape:cx="244.65894"
   inkscape:cy="251.73001"
   inkscape:window-width="2560"
   inkscape:window-height="1371"
   inkscape:window-x="0"
   inkscape:window-y="0"
   inkscape:window-maximized="1"
   inkscape:current-layer="Layer_1" />

<ellipse
   style="fill:#ffffff;stroke:#ffffff;stroke-width:37.842;stroke-linejoin:bevel;stroke-dashoffset:49.138;fill-opacity:1;stroke-opacity:1;stroke-dasharray:none;opacity:0.49"
   id="path2"
   cx="256"
   cy="256"
   rx="237.009"
   ry="237.06851" /><g
   style="fill:#000000"
   id="g2"
   transform="matrix(12.626667,0,0,12.626667,104.47417,104.48918)"><path
     d="M 23.193,7.879 C 23.193,2.673 19.782,1.147 19.782,1.147 18.062,0.357 15.108,0.025 12.041,0 h -0.076 c -3.068,0.025 -6.02,0.357 -7.74,1.147 0,0 -3.411,1.526 -3.411,6.732 0,1.192 -0.023,2.618 0.015,4.129 0.124,5.092 0.934,10.109 5.641,11.355 2.17,0.574 4.034,0.695 5.535,0.612 2.722,-0.15 4.25,-0.972 4.25,-0.972 l -0.09,-1.975 c 0,0 -1.945,0.613 -4.129,0.539 C 9.871,21.493 7.587,21.334 7.237,18.676 A 5.499,5.499 0 0 1 7.189,17.931 c 0,0 2.125,0.52 4.817,0.643 1.646,0.075 3.19,-0.097 4.758,-0.283 3.007,-0.359 5.625,-2.212 5.954,-3.905 0.517,-2.665 0.475,-6.507 0.475,-6.507 z m -4.024,6.709 H 16.672 V 8.469 c 0,-1.29 -0.543,-1.944 -1.628,-1.944 -1.2,0 -1.802,0.776 -1.802,2.312 v 3.349 h -2.483 v -3.35 c 0,-1.536 -0.602,-2.312 -1.802,-2.312 -1.085,0 -1.628,0.655 -1.628,1.944 v 6.119 H 4.832 V 8.284 c 0,-1.289 0.328,-2.313 0.987,-3.07 0.68,-0.758 1.569,-1.146 2.674,-1.146 1.278,0 2.246,0.491 2.886,1.474 L 12,6.585 12.622,5.542 c 0.64,-0.983 1.608,-1.474 2.886,-1.474 1.104,0 1.994,0.388 2.674,1.146 0.658,0.757 0.986,1.781 0.986,3.07 v 6.304 z"
     id="path1" /></g></svg>
