<?xml version="1.0" encoding="UTF-8" standalone="no"?>
<!-- Generator: Adobe Illustrator 27.7.0, SVG Export Plug-In . SVG Version: 6.00 Build 0)  -->

<svg
   version="1.1"
   id="Layer_1"
   x="0px"
   y="0px"
   viewBox="0 0 512 512"
   xml:space="preserve"
   sodipodi:docname="threads.svg"
   width="512"
   height="512"
   inkscape:version="1.4 (e7c3feb100, 2024-10-09)"
   xmlns:inkscape="http://www.inkscape.org/namespaces/inkscape"
   xmlns:sodipodi="http://sodipodi.sourceforge.net/DTD/sodipodi-0.dtd"
   xmlns="http://www.w3.org/2000/svg"
   xmlns:svg="http://www.w3.org/2000/svg"><defs
   id="defs1" /><sodipodi:namedview
   id="namedview1"
   pagecolor="#232323"
   bordercolor="#666666"
   borderopacity="1.0"
   inkscape:showpageshadow="2"
   inkscape:pageopacity="0.0"
   inkscape:pagecheckerboard="0"
   inkscape:deskcolor="#d1d1d1"
   inkscape:zoom="1.4142136"
   inkscape:cx="245.36605"
   inkscape:cy="251.73001"
   inkscape:window-width="2560"
   inkscape:window-height="1403"
   inkscape:window-x="0"
   inkscape:window-y="0"
   inkscape:window-maximized="1"
   inkscape:current-layer="Layer_1" />

<ellipse
   style="fill:#ffffff;stroke:#ffffff;stroke-width:37.842;stroke-linejoin:bevel;stroke-dashoffset:49.138;fill-opacity:1;stroke-opacity:1;stroke-dasharray:none;opacity:0.29"
   id="path2"
   cx="256"
   cy="256"
   rx="237.009"
   ry="237.06851" /><g
   style="clip-rule:evenodd;fill-rule:evenodd;image-rendering:optimizeQuality;shape-rendering:geometricPrecision;text-rendering:geometricPrecision"
   id="g1"
   transform="matrix(0.59415919,0,0,0.59415919,103.89525,103.89525)"><path
     id="path1"
     style="clip-rule:evenodd;fill-rule:evenodd;stroke-width:1.03487;image-rendering:optimizeQuality;shape-rendering:geometricPrecision;text-rendering:geometricPrecision"
     d="M 99.733995,-8.9269329 C 39.970488,-8.9269329 -8.9269343,39.97049 -8.9269343,99.734001 V 412.26599 c 0,59.7635 48.8974223,108.66093 108.6609293,108.66093 H 412.26599 c 59.76351,0 108.66094,-48.89743 108.66094,-108.66093 V 99.734001 C 520.92693,39.97049 472.0295,-8.9269329 412.26599,-8.9269329 Z M 258.50374,80.061273 h 0.20751 c 51.55702,0.362203 91.56577,17.604642 118.92762,51.268827 13.505,16.6096 23.41937,36.63248 29.7217,59.86523 l -29.58903,7.89902 c -5.20537,-18.87595 -13.0883,-35.07492 -23.5508,-47.94865 -21.34928,-26.25455 -53.5132,-39.72556 -95.61155,-40.03602 -41.80858,0.31046 -73.42623,13.72196 -93.97867,39.85232 -19.24851,24.46423 -29.19267,59.80401 -29.56522,105.038 0.37255,45.23399 10.31671,80.57376 29.56522,105.03799 20.55244,26.13036 52.17009,39.54185 93.97867,39.85231 37.67947,-0.27941 62.61949,-9.24166 83.3582,-29.97002 23.67774,-23.65704 23.23025,-52.67442 15.66538,-70.32923 -4.46027,-10.39006 -12.52128,-19.03085 -23.39772,-25.5919 -2.64926,19.74524 -8.65218,35.42584 -18.1419,47.52343 -12.50118,15.92658 -30.4024,24.6392 -53.24189,25.88104 -17.28226,0.95208 -33.92453,-3.21919 -46.83966,-11.74648 -15.27462,-10.08995 -24.21458,-25.52033 -25.16665,-43.47526 -1.88346,-35.37172 26.18191,-60.82716 69.83255,-63.34189 15.5023,-0.88998 29.99196,-0.18798 43.40382,2.08872 -1.77997,-10.88679 -5.3822,-19.50798 -10.75315,-25.75857 -7.3786,-8.56869 -18.79335,-12.96645 -33.91275,-13.05959 h -0.41502 c -12.13898,0 -28.62384,3.3956 -39.12773,19.33254 l -25.2517,-17.32547 c 14.77788,-22.42554 38.49919,-33.22801 64.99176,-33.05208 45.917,0.28976 73.2581,28.94414 75.96945,78.99026 1.56265,0.66231 3.10196,1.36771 4.61286,2.09211 21.43207,10.27622 37.10221,25.84051 45.31905,44.99588 11.45596,26.72024 12.49949,70.23659 -22.25131,104.95634 -26.56501,26.54432 -58.81046,38.51778 -104.55153,38.83858 h -0.20751 c -51.45354,-0.35185 -91.02556,-17.67775 -117.60092,-51.46612 -23.65703,-30.06286 -35.8598,-71.89973 -36.2634,-124.34673 v -0.25173 c 0.4036,-52.44701 12.60637,-94.28387 36.2634,-124.34672 26.57536,-33.788372 66.14738,-51.103934 117.60092,-51.466137 z m 14.49855,180.459747 c -3.4668,0 -7.00553,0.10599 -10.60687,0.31296 -31.45992,1.81101 -41.88983,17.03127 -41.16542,30.67081 0.98312,18.38957 20.86067,26.98112 39.98499,25.90486 18.74143,-1.03487 39.99951,-8.38167 43.62154,-53.64671 -9.71739,-2.13182 -20.40932,-3.24192 -31.83424,-3.24192 z" /></g></svg>
