<?xml version="1.0" encoding="UTF-8" standalone="no"?>
<!-- Created with Inkscape (http://www.inkscape.org/) -->

<svg
   width="512"
   height="512"
   viewBox="0 0 512 512"
   version="1.1"
   id="svg1"
   xml:space="preserve"
   xmlns="http://www.w3.org/2000/svg"
   xmlns:svg="http://www.w3.org/2000/svg"><defs
     id="defs1" /><g
     id="layer1"
     transform="matrix(3.9998087,0,0,-3.9998171,0.01546543,511.98405)"
     style="display:inline"><path
       id="path6"
       style="display:inline;fill:#0b84b5;fill-opacity:1;stroke-width:0.997384"
       d="m 18.000237,128.00292 c -8.9396152,7e-5 -9.7796699,0.23799 -14.000199,-4.00014 -3.48404085,-3.49857 -3.99980851186,-4.38696 -4.000057503493,-14.00049 -2.48991627e-4,-9.6139 0.0038998735,-0.002 0.0038998735,-0.002 L 0.00339239,99.986315 c -3e-5,2.3e-4 -0.00339989393,0.0151 -0.00339989393,0.0151 0,0 -9.999664e-6,-28.095339 0,-52.002036 6.99976466e-6,-13.792326 1.00996604e-4,-27.925127 0,-30.00105 C -4.4248927e-4,9.0022209 -0.27979809,8.2732137 4.00005,3.9980476 c 4.2798471,-4.27516695 4.9889322,-3.99948021 14.000199,-4.00014041 8.988435,-6.5849e-4 53.500757,0 53.500757,0 l -0.003,4.883e-4 c 16.307872,1.315e-4 32.951264,4.0209e-4 38.503964,0 8.94124,-6.4749e-4 9.77967,-0.23798605 14.0002,4.00014011 4.22054,4.2381255 4.00027,4.9736466 4.00007,14.0004894 -0.011,9.006244 0.007,83.017275 0,92.003225 -6.4e-4,8.98274 -0.079,10.08128 -4.00007,14.00049 -4.2267,4.22473 -4.94499,4.00038 -14.0002,4.00014 -9.04109,-2.4e-4 -46.000652,0 -46.000652,0 0,0 -37.062084,-7e-5 -46.000651,0 z" /><path
       id="path7"
       style="display:inline;opacity:1;fill:#efc223;fill-opacity:1;stroke-width:6.77898;stroke-linecap:round"
       d="M 142.75521,14.566324 C 102.35945,35.679877 71.765293,85.520317 67.505123,168.38133 c -3.20573,62.35166 15.74282,131.9824 59.344307,193.01046 43.07782,60.29558 101.57327,100.16591 161.34904,115.89186 91.2416,24.00405 137.36788,-2.94071 166.03147,-25.03694 3.68276,-5.60956 -6.27658,-16.92156 -6.27658,-16.92156 -21.03847,-9.61857 -28.99437,-10.2744 -77.09063,-19.20187 -26.71199,-5.45914 -54.93207,-18.39321 -82.24252,-37.55604 -62.60702,-43.92978 -110.25343,-108.54859 -131.03068,-181.80317 -9.19264,-32.49622 -11.08279,-64.87015 -7.02347,-91.97957 5.22775,-50.941413 7.73707,-49.394903 5.06051,-78.627965 0,0 -5.5893,-11.114207 -12.87136,-11.590211 z"
       transform="matrix(0.25001196,0,0,-0.25001143,-0.00386654,128.00187)" /></g></svg>
