<?xml version="1.0" encoding="UTF-8" standalone="no"?>
<!-- Created with Inkscape (http://www.inkscape.org/) -->

<svg
   width="512"
   height="512"
   viewBox="0 0 512 512"
   version="1.1"
   id="svg1"
   xml:space="preserve"
   xmlns="http://www.w3.org/2000/svg"
   xmlns:svg="http://www.w3.org/2000/svg"><defs
     id="defs1" /><g
     id="layer1"
     transform="matrix(3.9998087,0,0,-3.9998171,0.01546543,511.98405)"><path
       id="path4-2"
       style="display:inline;fill:#261c00;fill-opacity:1;stroke-width:0.997384"
       d="m 18.000237,128.00292 c -8.9396152,7e-5 -9.7796699,0.23799 -14.000199,-4.00014 -3.48404085,-3.49857 -3.99980851186,-4.38696 -4.000057503493,-14.00049 -2.48991627e-4,-9.6139 0.0038998735,-0.002 0.0038998735,-0.002 L 0.00339239,99.986315 c -3e-5,2.3e-4 -0.00339989393,0.0151 -0.00339989393,0.0151 0,0 -9.999664e-6,-28.095119 0,-52.001816 6.99976466e-6,-13.792326 1.00996604e-4,-27.925127 0,-30.00105 C -4.4248927e-4,9.0022209 -0.27979809,8.2732137 4.00005,3.9980476 c 4.2798471,-4.27516695 4.9889322,-3.99948021 14.000199,-4.00014041 8.988435,-6.5849e-4 53.500757,0 53.500757,0 l -0.003,4.883e-4 c 16.307872,1.315e-4 32.951264,4.0209e-4 38.503964,0 8.94124,-6.4749e-4 9.77967,-0.23798605 14.0002,4.00014011 4.22054,4.2381255 4.00027,4.9736466 4.00007,14.0004894 -0.011,9.006244 0.007,83.017275 0,92.003225 -6.4e-4,8.98274 -0.079,10.08128 -4.00007,14.00049 -4.2267,4.22473 -4.94499,4.00038 -14.0002,4.00014 -9.04109,-2.4e-4 -46.000652,0 -46.000652,0 0,0 -37.062084,-7e-5 -46.000651,0 z" /><path
       id="path1"
       style="opacity:1;fill:#ecc129;fill-opacity:1;stroke-width:1.49811;stroke-linecap:round"
       d="M 38.595967,116.69362 C 29.639176,112.04301 22.3518,100.79524 21.40721,82.543707 20.696415,68.809709 24.897803,53.472372 34.565386,40.029919 44.116859,26.748808 57.086822,17.9667 70.340664,14.502796 90.5713,9.2155008 101.30255,15.420114 107.65802,20.287178 c 0.81655,1.235601 -1.39169,3.727258 -1.39169,3.727258 -4.66477,2.118651 -5.52324,2.849127 -16.187434,4.815552 -5.922743,1.202467 -12.32864,3.967182 -18.384077,8.188116 -13.881604,9.676271 -24.262065,21.078181 -28.868923,37.213731 -2.038246,7.157837 -3.1976,16.979815 -2.297544,22.95112 1.159128,11.220705 1.514994,10.518665 0.92153,16.957735 0,0 -1.239292,2.44808 -2.853915,2.55293 z" /></g></svg>
